<svg width="48" height="48" viewBox="0 0 48 48" fill="none" xmlns="http://www.w3.org/2000/svg">
<path d="M14 0.5H34C41.4558 0.5 47.5 6.54416 47.5 14V34C47.5 41.4558 41.4558 47.5 34 47.5H14C6.54416 47.5 0.5 41.4558 0.5 34V14C0.500001 6.54416 6.54416 0.5 14 0.5Z" fill="#F5F5F5"/>
<path d="M14 0.5H34C41.4558 0.5 47.5 6.54416 47.5 14V34C47.5 41.4558 41.4558 47.5 34 47.5H14C6.54416 47.5 0.5 41.4558 0.5 34V14C0.500001 6.54416 6.54416 0.5 14 0.5Z" stroke="#D4D4D4"/>
<path d="M27.477 24.89L28.992 33.416C29.009 33.5164 28.9949 33.6196 28.9516 33.7118C28.9084 33.8039 28.838 33.8807 28.7499 33.9318C28.6619 33.9829 28.5603 34.0059 28.4588 33.9977C28.3573 33.9895 28.2607 33.9506 28.182 33.886L24.602 31.199C24.4292 31.0699 24.2192 31.0001 24.0035 31.0001C23.7878 31.0001 23.5778 31.0699 23.405 31.199L19.819 33.885C19.7403 33.9494 19.6439 33.9884 19.5425 33.9966C19.4411 34.0048 19.3397 33.9818 19.2517 33.9309C19.1636 33.8799 19.0933 33.8033 19.0499 33.7113C19.0066 33.6194 18.9923 33.5163 19.009 33.416L20.523 24.89" stroke="#8D191C" stroke-width="2" stroke-linecap="round" stroke-linejoin="round"/>
<path d="M24 26C27.3137 26 30 23.3137 30 20C30 16.6863 27.3137 14 24 14C20.6863 14 18 16.6863 18 20C18 23.3137 20.6863 26 24 26Z" stroke="#8D191C" stroke-width="2" stroke-linecap="round" stroke-linejoin="round"/>
</svg>
