<svg width="16" height="16" viewBox="0 0 16 16" fill="none" xmlns="http://www.w3.org/2000/svg">
<path d="M9.33101 2.66675C9.57154 2.66674 9.80759 2.73181 10.0141 2.85504C10.2207 2.97827 10.3901 3.15509 10.5043 3.36675L10.8283 3.96675C10.9426 4.17841 11.112 4.35522 11.3185 4.47846C11.5251 4.60169 11.7611 4.66675 12.0017 4.66675H13.333C13.6866 4.66675 14.0258 4.80722 14.2758 5.05727C14.5259 5.30732 14.6663 5.64646 14.6663 6.00008V12.0001C14.6663 12.3537 14.5259 12.6928 14.2758 12.9429C14.0258 13.1929 13.6866 13.3334 13.333 13.3334H2.66634C2.31272 13.3334 1.97358 13.1929 1.72353 12.9429C1.47348 12.6928 1.33301 12.3537 1.33301 12.0001V6.00008C1.33301 5.64646 1.47348 5.30732 1.72353 5.05727C1.97358 4.80722 2.31272 4.66675 2.66634 4.66675H3.99767C4.23796 4.66676 4.47377 4.60184 4.68019 4.47886C4.88662 4.35587 5.05597 4.1794 5.17034 3.96808L5.49634 3.36541C5.61071 3.1541 5.78007 2.97762 5.98649 2.85464C6.19291 2.73165 6.42873 2.66673 6.66901 2.66675H9.33101Z" stroke="#737373" stroke-width="1.33333" stroke-linecap="round" stroke-linejoin="round"/>
<path d="M8 10.6667C9.10457 10.6667 10 9.77132 10 8.66675C10 7.56218 9.10457 6.66675 8 6.66675C6.89543 6.66675 6 7.56218 6 8.66675C6 9.77132 6.89543 10.6667 8 10.6667Z" stroke="#737373" stroke-width="1.33333" stroke-linecap="round" stroke-linejoin="round"/>
</svg>
