<svg width="275" height="197" viewBox="0 0 275 197" fill="none" xmlns="http://www.w3.org/2000/svg">
<rect x="0.5" y="0.5" width="273.5" height="196" rx="23.5" fill="white"/>
<rect x="0.5" y="0.5" width="273.5" height="196" rx="23.5" stroke="#D4D4D4"/>
<path d="M32.334 36.2167V37.5717C32.3308 37.8572 32.2544 38.1371 32.112 38.3846C31.9695 38.6321 31.7659 38.8388 31.5207 38.985C30.9999 39.3707 30.5764 39.8725 30.2836 40.4506C29.9908 41.0286 29.8368 41.667 29.834 42.315" stroke="#737373" stroke-width="1.66667" stroke-linecap="round" stroke-linejoin="round"/>
<path d="M35.666 36.2167V37.5717C35.6692 37.8572 35.7456 38.1371 35.888 38.3846C36.0305 38.6321 36.2341 38.8388 36.4793 38.985C37.0001 39.3707 37.4236 39.8725 37.7164 40.4506C38.0092 41.0286 38.1632 41.667 38.166 42.315" stroke="#737373" stroke-width="1.66667" stroke-linecap="round" stroke-linejoin="round"/>
<path d="M39 31.5H40.25C40.8025 31.5 41.3324 31.2805 41.7231 30.8898C42.1138 30.4991 42.3333 29.9692 42.3333 29.4167C42.3333 28.8641 42.1138 28.3342 41.7231 27.9435C41.3324 27.5528 40.8025 27.3333 40.25 27.3333H39" stroke="#737373" stroke-width="1.66667" stroke-linecap="round" stroke-linejoin="round"/>
<path d="M27.334 42.3333H40.6673" stroke="#737373" stroke-width="1.66667" stroke-linecap="round" stroke-linejoin="round"/>
<path d="M29 31.5C29 32.8261 29.5268 34.0978 30.4645 35.0355C31.4021 35.9732 32.6739 36.5 34 36.5C35.3261 36.5 36.5979 35.9732 37.5355 35.0355C38.4732 34.0978 39 32.8261 39 31.5V26.5C39 26.279 38.9122 26.067 38.7559 25.9107C38.5996 25.7545 38.3877 25.6667 38.1667 25.6667H29.8333C29.6123 25.6667 29.4004 25.7545 29.2441 25.9107C29.0878 26.067 29 26.279 29 26.5V31.5Z" stroke="#737373" stroke-width="1.66667" stroke-linecap="round" stroke-linejoin="round"/>
<path d="M28.9993 31.5H27.7493C27.1968 31.5 26.6669 31.2805 26.2762 30.8898C25.8855 30.4991 25.666 29.9692 25.666 29.4167C25.666 28.8641 25.8855 28.3342 26.2762 27.9435C26.6669 27.5528 27.1968 27.3333 27.7493 27.3333H28.9993" stroke="#737373" stroke-width="1.66667" stroke-linecap="round" stroke-linejoin="round"/>
<path d="M24.7045 69.875V68.3636H33.7102V69.875H30.0795V80H28.3295V69.875H24.7045ZM36.9744 80.1761C36.1563 80.1761 35.4422 79.9886 34.8324 79.6136C34.2225 79.2386 33.7491 78.714 33.4119 78.0398C33.0748 77.3655 32.9062 76.5777 32.9062 75.6761C32.9062 74.7708 33.0748 73.9792 33.4119 73.3011C33.7491 72.6231 34.2225 72.0966 34.8324 71.7216C35.4422 71.3466 36.1563 71.1591 36.9744 71.1591C37.7926 71.1591 38.5066 71.3466 39.1165 71.7216C39.7263 72.0966 40.1998 72.6231 40.5369 73.3011C40.8741 73.9792 41.0426 74.7708 41.0426 75.6761C41.0426 76.5777 40.8741 77.3655 40.5369 78.0398C40.1998 78.714 39.7263 79.2386 39.1165 79.6136C38.5066 79.9886 37.7926 80.1761 36.9744 80.1761ZM36.9801 78.75C37.5104 78.75 37.9498 78.6098 38.2983 78.3295C38.6468 78.0492 38.9044 77.6761 39.071 77.2102C39.2415 76.7443 39.3267 76.2311 39.3267 75.6705C39.3267 75.1136 39.2415 74.6023 39.071 74.1364C38.9044 73.6667 38.6468 73.2898 38.2983 73.0057C37.9498 72.7216 37.5104 72.5795 36.9801 72.5795C36.446 72.5795 36.0028 72.7216 35.6506 73.0057C35.3021 73.2898 35.0426 73.6667 34.8722 74.1364C34.7055 74.6023 34.6222 75.1136 34.6222 75.6705C34.6222 76.2311 34.7055 76.7443 34.8722 77.2102C35.0426 77.6761 35.3021 78.0492 35.6506 78.3295C36.0028 78.6098 36.446 78.75 36.9801 78.75ZM46.0128 71.2727V72.6364H41.2457V71.2727H46.0128ZM42.5241 69.1818H44.223V77.4375C44.223 77.767 44.2723 78.0152 44.3707 78.1818C44.4692 78.3447 44.5961 78.4564 44.7514 78.517C44.9105 78.5739 45.0829 78.6023 45.2685 78.6023C45.4048 78.6023 45.5241 78.5928 45.6264 78.5739C45.7287 78.5549 45.8082 78.5398 45.8651 78.5284L46.1719 79.9318C46.0734 79.9697 45.9332 80.0076 45.7514 80.0455C45.5696 80.0871 45.3423 80.1098 45.0696 80.1136C44.6226 80.1212 44.206 80.0417 43.8196 79.875C43.4332 79.7083 43.1207 79.4508 42.8821 79.1023C42.6435 78.7538 42.5241 78.3163 42.5241 77.7898V69.1818ZM49.4318 80.1932C48.8788 80.1932 48.3788 80.0909 47.9318 79.8864C47.4848 79.678 47.1307 79.3769 46.8693 78.983C46.6117 78.589 46.483 78.1061 46.483 77.5341C46.483 77.0417 46.5777 76.6364 46.767 76.3182C46.9564 76 47.2121 75.7481 47.5341 75.5625C47.8561 75.3769 48.2159 75.2367 48.6136 75.142C49.0114 75.0473 49.4167 74.9754 49.8295 74.9261C50.3523 74.8655 50.7765 74.8163 51.1023 74.7784C51.428 74.7367 51.6648 74.6705 51.8125 74.5795C51.9602 74.4886 52.0341 74.3409 52.0341 74.1364V74.0966C52.0341 73.6004 51.8939 73.2159 51.6136 72.9432C51.3371 72.6705 50.9242 72.5341 50.375 72.5341C49.803 72.5341 49.3523 72.661 49.0227 72.9148C48.697 73.1648 48.4716 73.4432 48.3466 73.75L46.75 73.3864C46.9394 72.8561 47.2159 72.428 47.5795 72.1023C47.947 71.7727 48.3693 71.5341 48.8466 71.3864C49.3239 71.2348 49.8258 71.1591 50.3523 71.1591C50.7008 71.1591 51.0701 71.2008 51.4602 71.2841C51.8542 71.3636 52.2216 71.5114 52.5625 71.7273C52.9072 71.9432 53.1894 72.2519 53.4091 72.6534C53.6288 73.0511 53.7386 73.5682 53.7386 74.2045V80H52.0795V78.8068H52.0114C51.9015 79.0265 51.7367 79.2424 51.517 79.4545C51.2973 79.6667 51.0152 79.8428 50.6705 79.983C50.3258 80.1231 49.9129 80.1932 49.4318 80.1932ZM49.8011 78.8295C50.2708 78.8295 50.6723 78.7367 51.0057 78.5511C51.3428 78.3655 51.5985 78.1231 51.7727 77.8239C51.9508 77.5208 52.0398 77.197 52.0398 76.8523V75.7273C51.9792 75.7879 51.8617 75.8447 51.6875 75.8977C51.517 75.947 51.322 75.9905 51.1023 76.0284C50.8826 76.0625 50.6686 76.0947 50.4602 76.125C50.2519 76.1515 50.0777 76.1742 49.9375 76.1932C49.608 76.2348 49.3068 76.3049 49.0341 76.4034C48.7652 76.5019 48.5492 76.6439 48.3864 76.8295C48.2273 77.0114 48.1477 77.2538 48.1477 77.5568C48.1477 77.9773 48.303 78.2955 48.6136 78.5114C48.9242 78.7235 49.3201 78.8295 49.8011 78.8295ZM56.7003 68.3636V80H55.0014V68.3636H56.7003ZM62.3395 80H60.4759L64.6634 68.3636H66.6918L70.8793 80H69.0156L65.7259 70.4773H65.6349L62.3395 80ZM62.652 75.4432H68.6974V76.9205H62.652V75.4432ZM74.9503 71.2727V72.6364H70.1832V71.2727H74.9503ZM71.4616 69.1818H73.1605V77.4375C73.1605 77.767 73.2098 78.0152 73.3082 78.1818C73.4067 78.3447 73.5336 78.4564 73.6889 78.517C73.848 78.5739 74.0204 78.6023 74.206 78.6023C74.3423 78.6023 74.4616 78.5928 74.5639 78.5739C74.6662 78.5549 74.7457 78.5398 74.8026 78.5284L75.1094 79.9318C75.0109 79.9697 74.8707 80.0076 74.6889 80.0455C74.5071 80.0871 74.2798 80.1098 74.0071 80.1136C73.5601 80.1212 73.1435 80.0417 72.7571 79.875C72.3707 79.7083 72.0582 79.4508 71.8196 79.1023C71.581 78.7538 71.4616 78.3163 71.4616 77.7898V69.1818ZM79.9034 71.2727V72.6364H75.1364V71.2727H79.9034ZM76.4148 69.1818H78.1136V77.4375C78.1136 77.767 78.1629 78.0152 78.2614 78.1818C78.3598 78.3447 78.4867 78.4564 78.642 78.517C78.8011 78.5739 78.9735 78.6023 79.1591 78.6023C79.2955 78.6023 79.4148 78.5928 79.517 78.5739C79.6193 78.5549 79.6989 78.5398 79.7557 78.5284L80.0625 79.9318C79.964 79.9697 79.8239 80.0076 79.642 80.0455C79.4602 80.0871 79.233 80.1098 78.9602 80.1136C78.5133 80.1212 78.0966 80.0417 77.7102 79.875C77.3239 79.7083 77.0114 79.4508 76.7727 79.1023C76.5341 78.7538 76.4148 78.3163 76.4148 77.7898V69.1818ZM84.4503 80.1761C83.5904 80.1761 82.8499 79.9924 82.2287 79.625C81.6113 79.2538 81.134 78.733 80.7969 78.0625C80.4635 77.3883 80.2969 76.5985 80.2969 75.6932C80.2969 74.7992 80.4635 74.0114 80.7969 73.3295C81.134 72.6477 81.6037 72.1155 82.206 71.733C82.812 71.3504 83.5204 71.1591 84.331 71.1591C84.8234 71.1591 85.3007 71.2405 85.7628 71.4034C86.2249 71.5663 86.6397 71.822 87.0071 72.1705C87.3745 72.5189 87.6643 72.9716 87.8764 73.5284C88.0885 74.0814 88.1946 74.7538 88.1946 75.5455V76.1477H81.2571V74.875H86.5298C86.5298 74.428 86.4389 74.0322 86.2571 73.6875C86.0753 73.339 85.8196 73.0644 85.4901 72.8636C85.1643 72.6629 84.7817 72.5625 84.3423 72.5625C83.8651 72.5625 83.4484 72.6799 83.0923 72.9148C82.7401 73.1458 82.4673 73.4489 82.2741 73.8239C82.0848 74.1951 81.9901 74.5985 81.9901 75.0341V76.0284C81.9901 76.6117 82.0923 77.108 82.2969 77.517C82.5052 77.9261 82.795 78.2386 83.1662 78.4545C83.5374 78.6667 83.9711 78.7727 84.4673 78.7727C84.7893 78.7727 85.0829 78.7273 85.348 78.6364C85.6132 78.5417 85.8423 78.4015 86.0355 78.2159C86.2287 78.0303 86.3764 77.8011 86.4787 77.5284L88.0866 77.8182C87.9579 78.2917 87.7268 78.7064 87.3935 79.0625C87.0639 79.4148 86.6491 79.6894 86.1491 79.8864C85.6529 80.0795 85.0866 80.1761 84.4503 80.1761ZM89.0795 80V71.2727H90.7102V72.6932H90.8182C91 72.2121 91.2973 71.8371 91.7102 71.5682C92.1231 71.2955 92.6174 71.1591 93.1932 71.1591C93.7765 71.1591 94.2652 71.2955 94.6591 71.5682C95.0568 71.8409 95.3504 72.2159 95.5398 72.6932H95.6307C95.839 72.2273 96.1705 71.8561 96.625 71.5795C97.0795 71.2992 97.6212 71.1591 98.25 71.1591C99.0417 71.1591 99.6875 71.4072 100.188 71.9034C100.691 72.3996 100.943 73.1477 100.943 74.1477V80H99.2443V74.3068C99.2443 73.7159 99.0833 73.2879 98.7614 73.0227C98.4394 72.7576 98.0549 72.625 97.608 72.625C97.0549 72.625 96.625 72.7955 96.3182 73.1364C96.0114 73.4735 95.858 73.9072 95.858 74.4375V80H94.1648V74.1989C94.1648 73.7254 94.017 73.3447 93.7216 73.0568C93.4261 72.7689 93.0417 72.625 92.5682 72.625C92.2462 72.625 91.9489 72.7102 91.6761 72.8807C91.4072 73.0473 91.1894 73.2803 91.0227 73.5795C90.8598 73.8788 90.7784 74.2254 90.7784 74.6193V80H89.0795ZM102.22 83.2727V71.2727H103.879V72.6875H104.021C104.12 72.5057 104.262 72.2955 104.447 72.0568C104.633 71.8182 104.891 71.6098 105.22 71.4318C105.55 71.25 105.985 71.1591 106.527 71.1591C107.232 71.1591 107.86 71.3371 108.413 71.6932C108.966 72.0492 109.4 72.5625 109.714 73.233C110.033 73.9034 110.192 74.7102 110.192 75.6534C110.192 76.5966 110.035 77.4053 109.72 78.0795C109.406 78.75 108.974 79.267 108.425 79.6307C107.875 79.9905 107.249 80.1705 106.544 80.1705C106.014 80.1705 105.58 80.0814 105.243 79.9034C104.91 79.7254 104.648 79.517 104.459 79.2784C104.269 79.0398 104.124 78.8277 104.021 78.642H103.919V83.2727H102.22ZM103.885 75.6364C103.885 76.25 103.974 76.7879 104.152 77.25C104.33 77.7121 104.588 78.0739 104.925 78.3352C105.262 78.5928 105.675 78.7216 106.163 78.7216C106.671 78.7216 107.095 78.5871 107.436 78.3182C107.777 78.0455 108.035 77.6761 108.209 77.2102C108.387 76.7443 108.476 76.2197 108.476 75.6364C108.476 75.0606 108.389 74.5436 108.214 74.0852C108.044 73.6269 107.786 73.2652 107.442 73C107.101 72.7348 106.675 72.6023 106.163 72.6023C105.671 72.6023 105.254 72.7292 104.913 72.983C104.576 73.2367 104.321 73.5909 104.146 74.0455C103.972 74.5 103.885 75.0303 103.885 75.6364ZM115.169 71.2727V72.6364H110.402V71.2727H115.169ZM111.68 69.1818H113.379V77.4375C113.379 77.767 113.429 78.0152 113.527 78.1818C113.625 78.3447 113.752 78.4564 113.908 78.517C114.067 78.5739 114.239 78.6023 114.425 78.6023C114.561 78.6023 114.68 78.5928 114.783 78.5739C114.885 78.5549 114.964 78.5398 115.021 78.5284L115.328 79.9318C115.23 79.9697 115.089 80.0076 114.908 80.0455C114.726 80.0871 114.499 80.1098 114.226 80.1136C113.779 80.1212 113.362 80.0417 112.976 79.875C112.589 79.7083 112.277 79.4508 112.038 79.1023C111.8 78.7538 111.68 78.3163 111.68 77.7898V69.1818ZM122.447 73.4034L120.908 73.6761C120.843 73.4792 120.741 73.2917 120.601 73.1136C120.464 72.9356 120.279 72.7898 120.044 72.6761C119.809 72.5625 119.516 72.5057 119.163 72.5057C118.682 72.5057 118.281 72.6136 117.959 72.8295C117.637 73.0417 117.476 73.3163 117.476 73.6534C117.476 73.9451 117.584 74.1799 117.8 74.358C118.016 74.536 118.364 74.6818 118.845 74.7955L120.232 75.1136C121.035 75.2992 121.633 75.5852 122.027 75.9716C122.421 76.358 122.618 76.8598 122.618 77.4773C122.618 78 122.466 78.4659 122.163 78.875C121.864 79.2803 121.446 79.5985 120.908 79.8295C120.374 80.0606 119.754 80.1761 119.05 80.1761C118.072 80.1761 117.275 79.9678 116.658 79.5511C116.04 79.1307 115.661 78.5341 115.521 77.7614L117.163 77.5114C117.266 77.9394 117.476 78.2633 117.794 78.483C118.112 78.6989 118.527 78.8068 119.038 78.8068C119.595 78.8068 120.04 78.6913 120.374 78.4602C120.707 78.2254 120.874 77.9394 120.874 77.6023C120.874 77.3295 120.771 77.1004 120.567 76.9148C120.366 76.7292 120.057 76.589 119.641 76.4943L118.163 76.1705C117.349 75.9848 116.747 75.6894 116.357 75.2841C115.97 74.8788 115.777 74.3655 115.777 73.7443C115.777 73.2292 115.921 72.7784 116.209 72.392C116.497 72.0057 116.894 71.7045 117.402 71.4886C117.91 71.2689 118.491 71.1591 119.146 71.1591C120.089 71.1591 120.832 71.3636 121.374 71.7727C121.915 72.178 122.273 72.7216 122.447 73.4034Z" fill="#262626"/>
<path d="M24.196 148L24.6989 144.966L31.9943 139.392C32.5455 138.96 33.017 138.562 33.4091 138.199C33.8068 137.835 34.125 137.472 34.3636 137.108C34.6023 136.744 34.7557 136.347 34.8239 135.915C34.9034 135.432 34.8665 135.017 34.7131 134.67C34.5597 134.324 34.3153 134.06 33.9801 133.878C33.6449 133.69 33.2415 133.597 32.7699 133.597C32.2869 133.597 31.8438 133.696 31.4403 133.895C31.0369 134.088 30.7017 134.372 30.4347 134.747C30.1733 135.116 30 135.562 29.9148 136.085H25.9091C26.108 134.898 26.5483 133.872 27.2301 133.009C27.9119 132.145 28.7756 131.48 29.821 131.014C30.8665 130.543 32.0341 130.307 33.3239 130.307C34.642 130.307 35.7528 130.528 36.6562 130.972C37.5653 131.415 38.2216 132.034 38.625 132.83C39.0341 133.619 39.1506 134.537 38.9744 135.582C38.8608 136.247 38.6136 136.906 38.233 137.56C37.858 138.207 37.2585 138.929 36.4347 139.724C35.6108 140.514 34.4773 141.46 33.0341 142.562L30.6307 144.489L30.6051 144.599H37.6875L37.1165 148H24.196Z" fill="#262626"/>
<path d="M25.0568 167V158.273H28.0057C28.6903 158.273 29.25 158.396 29.6847 158.643C30.1222 158.888 30.446 159.219 30.6562 159.636C30.8665 160.054 30.9716 160.52 30.9716 161.034C30.9716 161.548 30.8665 162.016 30.6562 162.436C30.4489 162.857 30.1278 163.192 29.6932 163.442C29.2585 163.689 28.7017 163.812 28.0227 163.812H25.9091V162.875H27.9886C28.4574 162.875 28.8338 162.794 29.1179 162.632C29.402 162.47 29.608 162.251 29.7358 161.976C29.8665 161.697 29.9318 161.384 29.9318 161.034C29.9318 160.685 29.8665 160.372 29.7358 160.097C29.608 159.821 29.4006 159.605 29.1136 159.449C28.8267 159.29 28.446 159.21 27.9716 159.21H26.1136V167H25.0568ZM31.5376 167V160.455H32.5092V161.443H32.5774C32.6967 161.119 32.9126 160.857 33.2251 160.655C33.5376 160.453 33.8899 160.352 34.282 160.352C34.3558 160.352 34.4482 160.354 34.5589 160.357C34.6697 160.359 34.7536 160.364 34.8104 160.369V161.392C34.7763 161.384 34.6982 161.371 34.576 161.354C34.4567 161.334 34.3303 161.324 34.1967 161.324C33.8786 161.324 33.5945 161.391 33.3445 161.524C33.0973 161.655 32.9013 161.837 32.7564 162.07C32.6143 162.3 32.5433 162.562 32.5433 162.858V167H31.5376ZM36.9286 167.153C36.5138 167.153 36.1374 167.075 35.7994 166.919C35.4613 166.76 35.1928 166.531 34.994 166.233C34.7951 165.932 34.6957 165.568 34.6957 165.142C34.6957 164.767 34.7695 164.463 34.9173 164.23C35.065 163.994 35.2624 163.81 35.5096 163.676C35.7567 163.543 36.0295 163.443 36.3278 163.378C36.6289 163.31 36.9315 163.256 37.2354 163.216C37.6332 163.165 37.9556 163.126 38.2028 163.101C38.4528 163.072 38.6346 163.026 38.7482 162.96C38.8647 162.895 38.9229 162.781 38.9229 162.619V162.585C38.9229 162.165 38.8079 161.838 38.5778 161.605C38.3505 161.372 38.0053 161.256 37.5423 161.256C37.0621 161.256 36.6857 161.361 36.413 161.571C36.1403 161.781 35.9485 162.006 35.8377 162.244L34.8832 161.903C35.0536 161.506 35.2809 161.196 35.565 160.974C35.8519 160.75 36.1644 160.594 36.5025 160.506C36.8434 160.415 37.1786 160.369 37.5082 160.369C37.7184 160.369 37.9599 160.395 38.2326 160.446C38.5082 160.494 38.7738 160.595 39.0295 160.749C39.288 160.902 39.5025 161.134 39.6729 161.443C39.8434 161.753 39.9286 162.168 39.9286 162.688V167H38.9229V166.114H38.8718C38.8036 166.256 38.69 166.408 38.5309 166.57C38.3718 166.732 38.1602 166.869 37.896 166.983C37.6317 167.097 37.3093 167.153 36.9286 167.153ZM37.082 166.25C37.4798 166.25 37.815 166.172 38.0877 166.016C38.3633 165.859 38.5707 165.658 38.7099 165.411C38.8519 165.163 38.9229 164.903 38.9229 164.631V163.71C38.8803 163.761 38.7866 163.808 38.6417 163.851C38.4996 163.891 38.3349 163.926 38.1474 163.957C37.9627 163.986 37.7823 164.011 37.6062 164.034C37.4329 164.054 37.2923 164.071 37.1843 164.085C36.9229 164.119 36.6786 164.175 36.4513 164.251C36.2269 164.325 36.0451 164.437 35.9059 164.588C35.7695 164.736 35.7013 164.937 35.7013 165.193C35.7013 165.543 35.8306 165.807 36.0891 165.986C36.3505 166.162 36.6815 166.25 37.082 166.25ZM43.4233 167.136C42.8097 167.136 42.2813 166.991 41.8381 166.702C41.3949 166.412 41.054 166.013 40.8153 165.504C40.5767 164.996 40.4574 164.415 40.4574 163.761C40.4574 163.097 40.5795 162.51 40.8239 162.001C41.071 161.49 41.4148 161.091 41.8551 160.804C42.2983 160.514 42.8153 160.369 43.4062 160.369C43.8665 160.369 44.2812 160.455 44.6506 160.625C45.0199 160.795 45.3224 161.034 45.5582 161.341C45.794 161.648 45.9403 162.006 45.9972 162.415H44.9915C44.9148 162.116 44.7443 161.852 44.4801 161.622C44.2188 161.389 43.8665 161.273 43.4233 161.273C43.0313 161.273 42.6875 161.375 42.392 161.58C42.0994 161.781 41.8707 162.067 41.706 162.436C41.544 162.803 41.4631 163.233 41.4631 163.727C41.4631 164.233 41.5426 164.673 41.7017 165.048C41.8636 165.423 42.0909 165.714 42.3835 165.922C42.679 166.129 43.0256 166.233 43.4233 166.233C43.6847 166.233 43.9219 166.188 44.1349 166.097C44.348 166.006 44.5284 165.875 44.6761 165.705C44.8239 165.534 44.929 165.33 44.9915 165.091H45.9972C45.9403 165.477 45.7997 165.825 45.5753 166.135C45.3537 166.442 45.0597 166.686 44.6932 166.868C44.3295 167.047 43.9063 167.136 43.4233 167.136ZM49.3139 160.455V161.307H45.9219V160.455H49.3139ZM46.9105 158.886H47.9162V165.125C47.9162 165.409 47.9574 165.622 48.0398 165.764C48.125 165.903 48.233 165.997 48.3636 166.045C48.4972 166.091 48.6378 166.114 48.7855 166.114C48.8963 166.114 48.9872 166.108 49.0582 166.097C49.1293 166.082 49.1861 166.071 49.2287 166.062L49.4332 166.966C49.3651 166.991 49.2699 167.017 49.1477 167.043C49.0256 167.071 48.8707 167.085 48.6832 167.085C48.3991 167.085 48.1207 167.024 47.848 166.902C47.5781 166.78 47.3537 166.594 47.1747 166.344C46.9986 166.094 46.9105 165.778 46.9105 165.398V158.886ZM49.8267 167V160.455H50.8324V167H49.8267ZM50.3381 159.364C50.142 159.364 49.973 159.297 49.831 159.163C49.6918 159.03 49.6222 158.869 49.6222 158.682C49.6222 158.494 49.6918 158.334 49.831 158.2C49.973 158.067 50.142 158 50.3381 158C50.5341 158 50.7017 158.067 50.8409 158.2C50.983 158.334 51.054 158.494 51.054 158.682C51.054 158.869 50.983 159.03 50.8409 159.163C50.7017 159.297 50.5341 159.364 50.3381 159.364ZM54.3335 167.136C53.7198 167.136 53.1914 166.991 52.7482 166.702C52.305 166.412 51.9641 166.013 51.7255 165.504C51.4869 164.996 51.3675 164.415 51.3675 163.761C51.3675 163.097 51.4897 162.51 51.734 162.001C51.9812 161.49 52.3249 161.091 52.7653 160.804C53.2085 160.514 53.7255 160.369 54.3164 160.369C54.7766 160.369 55.1914 160.455 55.5607 160.625C55.93 160.795 56.2326 161.034 56.4684 161.341C56.7042 161.648 56.8505 162.006 56.9073 162.415H55.9016C55.8249 162.116 55.6545 161.852 55.3903 161.622C55.1289 161.389 54.7766 161.273 54.3335 161.273C53.9414 161.273 53.5977 161.375 53.3022 161.58C53.0096 161.781 52.7809 162.067 52.6161 162.436C52.4542 162.803 52.3732 163.233 52.3732 163.727C52.3732 164.233 52.4528 164.673 52.6119 165.048C52.7738 165.423 53.0011 165.714 53.2937 165.922C53.5891 166.129 53.9357 166.233 54.3335 166.233C54.5948 166.233 54.832 166.188 55.0451 166.097C55.2582 166.006 55.4386 165.875 55.5863 165.705C55.734 165.534 55.8391 165.33 55.9016 165.091H56.9073C56.8505 165.477 56.7099 165.825 56.4854 166.135C56.2638 166.442 55.9698 166.686 55.6033 166.868C55.2397 167.047 54.8164 167.136 54.3335 167.136ZM60.1218 167.136C59.4911 167.136 58.9471 166.997 58.4897 166.719C58.0352 166.438 57.6843 166.045 57.4371 165.543C57.1928 165.037 57.0707 164.449 57.0707 163.778C57.0707 163.108 57.1928 162.517 57.4371 162.006C57.6843 161.491 58.0281 161.091 58.4684 160.804C58.9116 160.514 59.4286 160.369 60.0195 160.369C60.3604 160.369 60.6971 160.426 61.0295 160.54C61.3619 160.653 61.6644 160.838 61.9371 161.094C62.2099 161.347 62.4272 161.682 62.5891 162.099C62.7511 162.517 62.832 163.031 62.832 163.642V164.068H57.7866V163.199H61.8093C61.8093 162.83 61.7354 162.5 61.5877 162.21C61.4428 161.92 61.2354 161.692 60.9656 161.524C60.6985 161.357 60.3832 161.273 60.0195 161.273C59.619 161.273 59.2724 161.372 58.9798 161.571C58.69 161.767 58.467 162.023 58.3107 162.338C58.1545 162.653 58.0763 162.991 58.0763 163.352V163.932C58.0763 164.426 58.1616 164.845 58.332 165.189C58.5053 165.53 58.7454 165.79 59.0522 165.969C59.359 166.145 59.7156 166.233 60.1218 166.233C60.386 166.233 60.6246 166.196 60.8377 166.122C61.0536 166.045 61.2397 165.932 61.396 165.781C61.5522 165.628 61.6729 165.437 61.7582 165.21L62.7298 165.483C62.6275 165.812 62.4556 166.102 62.2141 166.352C61.9727 166.599 61.6744 166.793 61.3192 166.932C60.9641 167.068 60.565 167.136 60.1218 167.136ZM68.396 167.136C67.7823 167.136 67.2539 166.991 66.8107 166.702C66.3675 166.412 66.0266 166.013 65.788 165.504C65.5494 164.996 65.43 164.415 65.43 163.761C65.43 163.097 65.5522 162.51 65.7965 162.001C66.0437 161.49 66.3874 161.091 66.8278 160.804C67.271 160.514 67.788 160.369 68.3789 160.369C68.8391 160.369 69.2539 160.455 69.6232 160.625C69.9925 160.795 70.2951 161.034 70.5309 161.341C70.7667 161.648 70.913 162.006 70.9698 162.415H69.9641C69.8874 162.116 69.717 161.852 69.4528 161.622C69.1914 161.389 68.8391 161.273 68.396 161.273C68.0039 161.273 67.6602 161.375 67.3647 161.58C67.0721 161.781 66.8434 162.067 66.6786 162.436C66.5167 162.803 66.4357 163.233 66.4357 163.727C66.4357 164.233 66.5153 164.673 66.6744 165.048C66.8363 165.423 67.0636 165.714 67.3562 165.922C67.6516 166.129 67.9982 166.233 68.396 166.233C68.6573 166.233 68.8945 166.188 69.1076 166.097C69.3207 166.006 69.5011 165.875 69.6488 165.705C69.7965 165.534 69.9016 165.33 69.9641 165.091H70.9698C70.913 165.477 70.7724 165.825 70.5479 166.135C70.3263 166.442 70.0323 166.686 69.6658 166.868C69.3022 167.047 68.8789 167.136 68.396 167.136ZM74.0991 167.136C73.5082 167.136 72.9897 166.996 72.5437 166.714C72.1005 166.433 71.7539 166.04 71.5039 165.534C71.2567 165.028 71.1332 164.437 71.1332 163.761C71.1332 163.08 71.2567 162.484 71.5039 161.976C71.7539 161.467 72.1005 161.072 72.5437 160.791C72.9897 160.51 73.5082 160.369 74.0991 160.369C74.69 160.369 75.207 160.51 75.6502 160.791C76.0962 161.072 76.4428 161.467 76.69 161.976C76.94 162.484 77.065 163.08 77.065 163.761C77.065 164.437 76.94 165.028 76.69 165.534C76.4428 166.04 76.0962 166.433 75.6502 166.714C75.207 166.996 74.69 167.136 74.0991 167.136ZM74.0991 166.233C74.5479 166.233 74.9173 166.118 75.207 165.888C75.4968 165.658 75.7113 165.355 75.8505 164.98C75.9897 164.605 76.0593 164.199 76.0593 163.761C76.0593 163.324 75.9897 162.916 75.8505 162.538C75.7113 162.161 75.4968 161.855 75.207 161.622C74.9173 161.389 74.5479 161.273 74.0991 161.273C73.6502 161.273 73.2809 161.389 72.9911 161.622C72.7013 161.855 72.4869 162.161 72.3477 162.538C72.2085 162.916 72.1388 163.324 72.1388 163.761C72.1388 164.199 72.2085 164.605 72.3477 164.98C72.4869 165.355 72.7013 165.658 72.9911 165.888C73.2809 166.118 73.6502 166.233 74.0991 166.233ZM81.7251 164.324V160.455H82.7308V167H81.7251V165.892H81.657C81.5036 166.224 81.2649 166.507 80.9411 166.74C80.6172 166.97 80.2081 167.085 79.7138 167.085C79.3047 167.085 78.9411 166.996 78.6229 166.817C78.3047 166.635 78.0547 166.362 77.8729 165.999C77.6911 165.632 77.6001 165.17 77.6001 164.614V160.455H78.6058V164.545C78.6058 165.023 78.7393 165.403 79.0064 165.688C79.2763 165.972 79.62 166.114 80.0376 166.114C80.2876 166.114 80.5419 166.05 80.8004 165.922C81.0618 165.794 81.2805 165.598 81.4567 165.334C81.6357 165.07 81.7251 164.733 81.7251 164.324ZM84.5785 163.062V167H83.5728V160.455H84.5444V161.477H84.6296C84.783 161.145 85.016 160.878 85.3285 160.676C85.641 160.472 86.0444 160.369 86.5387 160.369C86.9819 160.369 87.3697 160.46 87.7021 160.642C88.0344 160.821 88.293 161.094 88.4776 161.46C88.6623 161.824 88.7546 162.284 88.7546 162.841V167H87.7489V162.909C87.7489 162.395 87.6154 161.994 87.3484 161.707C87.0813 161.418 86.7148 161.273 86.2489 161.273C85.9279 161.273 85.641 161.342 85.3881 161.482C85.1381 161.621 84.9407 161.824 84.7958 162.091C84.6509 162.358 84.5785 162.682 84.5785 163.062ZM92.4389 160.455V161.307H89.0469V160.455H92.4389ZM90.0355 158.886H91.0412V165.125C91.0412 165.409 91.0824 165.622 91.1648 165.764C91.25 165.903 91.358 165.997 91.4886 166.045C91.6222 166.091 91.7628 166.114 91.9105 166.114C92.0213 166.114 92.1122 166.108 92.1832 166.097C92.2543 166.082 92.3111 166.071 92.3537 166.062L92.5582 166.966C92.4901 166.991 92.3949 167.017 92.2727 167.043C92.1506 167.071 91.9957 167.085 91.8082 167.085C91.5241 167.085 91.2457 167.024 90.973 166.902C90.7031 166.78 90.4787 166.594 90.2997 166.344C90.1236 166.094 90.0355 165.778 90.0355 165.398V158.886Z" fill="#62748E"/>
</svg>
