<svg width="101" height="16" viewBox="0 0 101 16" fill="none" xmlns="http://www.w3.org/2000/svg">
<path d="M3.99935 14.6666C3.64573 14.6666 3.30659 14.5262 3.05654 14.2761C2.80649 14.0261 2.66602 13.6869 2.66602 13.3333V2.66665C2.66602 2.31303 2.80649 1.97389 3.05654 1.72384C3.30659 1.47379 3.64573 1.33332 3.99935 1.33332H9.33268C9.54372 1.33297 9.75274 1.37438 9.9477 1.45516C10.1427 1.53594 10.3197 1.65449 10.4687 1.80398L12.8607 4.19598C13.0106 4.34499 13.1295 4.52221 13.2105 4.71742C13.2915 4.91263 13.333 5.12196 13.3327 5.33332V13.3333C13.3327 13.6869 13.1922 14.0261 12.9422 14.2761C12.6921 14.5262 12.353 14.6666 11.9993 14.6666H3.99935Z" stroke="#45556C" stroke-width="1.33333" stroke-linecap="round" stroke-linejoin="round"/>
<path d="M9.33398 1.33331V4.66665C9.33398 4.84346 9.40422 5.01303 9.52925 5.13805C9.65427 5.26308 9.82384 5.33331 10.0007 5.33331H13.334" stroke="#45556C" stroke-width="1.33333" stroke-linecap="round" stroke-linejoin="round"/>
<path d="M6.66732 6H5.33398" stroke="#45556C" stroke-width="1.33333" stroke-linecap="round" stroke-linejoin="round"/>
<path d="M10.6673 8.66669H5.33398" stroke="#45556C" stroke-width="1.33333" stroke-linecap="round" stroke-linejoin="round"/>
<path d="M10.6673 11.3333H5.33398" stroke="#45556C" stroke-width="1.33333" stroke-linecap="round" stroke-linejoin="round"/>
<path d="M22.8153 10.9119V9.89773L27.2898 2.81818H28.0256V4.3892H27.5284L24.1477 9.73864V9.81818H30.1733V10.9119H22.8153ZM27.608 13V10.6037V10.1314V2.81818H28.7812V13H27.608ZM34.3574 13.1392C33.6084 13.1392 32.9703 12.9354 32.4434 12.5277C31.9164 12.1167 31.5137 11.5218 31.2353 10.7429C30.9569 9.9607 30.8176 9.0161 30.8176 7.90909C30.8176 6.80871 30.9569 5.86908 31.2353 5.0902C31.517 4.308 31.9213 3.71141 32.4483 3.30043C32.9786 2.88613 33.615 2.67898 34.3574 2.67898C35.0998 2.67898 35.7346 2.88613 36.2615 3.30043C36.7918 3.71141 37.1962 4.308 37.4746 5.0902C37.7563 5.86908 37.8972 6.80871 37.8972 7.90909C37.8972 9.0161 37.758 9.9607 37.4796 10.7429C37.2012 11.5218 36.7985 12.1167 36.2715 12.5277C35.7445 12.9354 35.1065 13.1392 34.3574 13.1392ZM34.3574 12.0455C35.0998 12.0455 35.6766 11.6875 36.0875 10.9716C36.4985 10.2557 36.704 9.23485 36.704 7.90909C36.704 7.02746 36.6096 6.27675 36.4206 5.65696C36.235 5.03717 35.9666 4.56487 35.6152 4.24006C35.2672 3.91525 34.848 3.75284 34.3574 3.75284C33.6216 3.75284 33.0466 4.11577 32.6323 4.84162C32.218 5.56416 32.0108 6.58665 32.0108 7.90909C32.0108 8.79072 32.1036 9.53977 32.2892 10.1562C32.4748 10.7727 32.7417 11.2417 33.0897 11.5632C33.441 11.8847 33.8636 12.0455 34.3574 12.0455ZM46.954 15.8636V11.8267H46.8546C46.7684 11.9659 46.6458 12.1416 46.4867 12.3537C46.3276 12.5625 46.1006 12.7498 45.8056 12.9155C45.5106 13.0779 45.1178 13.1591 44.6273 13.1591C43.9909 13.1591 43.4292 12.9983 42.9419 12.6768C42.4547 12.352 42.0736 11.8946 41.7985 11.3047C41.5234 10.7114 41.3858 10.0104 41.3858 9.2017C41.3858 8.39962 41.5234 7.7036 41.7985 7.11364C42.0736 6.52367 42.4564 6.06794 42.9469 5.74645C43.4374 5.42495 44.0042 5.2642 44.6472 5.2642C45.1444 5.2642 45.5371 5.34706 45.8255 5.51278C46.1171 5.67519 46.3392 5.8608 46.4917 6.0696C46.6474 6.27509 46.7684 6.44413 46.8546 6.5767H46.9938V5.36364H48.1273V15.8636H46.954ZM44.7864 12.1051C45.257 12.1051 45.6548 11.9825 45.9796 11.7372C46.3044 11.4886 46.5513 11.1456 46.7203 10.7081C46.8894 10.2673 46.9739 9.75852 46.9739 9.18182C46.9739 8.61174 46.891 8.11293 46.7253 7.68537C46.5596 7.2545 46.3143 6.91974 45.9895 6.68111C45.6647 6.43916 45.2637 6.31818 44.7864 6.31818C44.2892 6.31818 43.8749 6.44579 43.5435 6.70099C43.2154 6.95289 42.9685 7.29593 42.8027 7.73011C42.6403 8.16098 42.5591 8.64489 42.5591 9.18182C42.5591 9.72538 42.642 10.2192 42.8077 10.6634C42.9767 11.1042 43.2253 11.4555 43.5534 11.7173C43.8849 11.9759 44.2959 12.1051 44.7864 12.1051ZM54.0875 9.87784V5.36364H55.2608V13H54.0875V11.7074H54.008C53.829 12.0952 53.5506 12.425 53.1728 12.6967C52.7949 12.9652 52.3176 13.0994 51.7409 13.0994C51.2637 13.0994 50.8394 12.995 50.4682 12.7862C50.097 12.5741 49.8053 12.2559 49.5932 11.8317C49.3811 11.4041 49.275 10.8655 49.275 10.2159V5.36364H50.4483V10.1364C50.4483 10.6932 50.6041 11.1373 50.9157 11.4688C51.2305 11.8002 51.6316 11.9659 52.1188 11.9659C52.4105 11.9659 52.7071 11.8913 53.0087 11.7422C53.3136 11.593 53.5688 11.3643 53.7743 11.0561C53.9831 10.7479 54.0875 10.3551 54.0875 9.87784ZM59.6115 13.1591C58.8757 13.1591 58.241 12.9967 57.7074 12.6719C57.1771 12.3438 56.7678 11.8864 56.4794 11.2997C56.1944 10.7098 56.0518 10.0237 56.0518 9.24148C56.0518 8.45928 56.1944 7.76989 56.4794 7.1733C56.7678 6.57339 57.1688 6.10606 57.6825 5.77131C58.1996 5.43324 58.8028 5.2642 59.4922 5.2642C59.8899 5.2642 60.2827 5.33049 60.6705 5.46307C61.0582 5.59564 61.4112 5.81108 61.7294 6.10938C62.0476 6.40436 62.3011 6.79545 62.4901 7.28267C62.679 7.76989 62.7734 8.36979 62.7734 9.08239V9.57955H56.8871V8.56534H61.5803C61.5803 8.13447 61.4941 7.75 61.3217 7.41193C61.1527 7.07386 60.9107 6.80705 60.5959 6.61151C60.2843 6.41596 59.9164 6.31818 59.4922 6.31818C59.0249 6.31818 58.6205 6.43419 58.2791 6.66619C57.9411 6.89489 57.6809 7.19318 57.4986 7.56108C57.3163 7.92898 57.2251 8.32339 57.2251 8.74432V9.42045C57.2251 9.99716 57.3246 10.486 57.5234 10.8871C57.7256 11.2848 58.0057 11.5881 58.3636 11.7969C58.7216 12.0024 59.1375 12.1051 59.6115 12.1051C59.9197 12.1051 60.1982 12.062 60.4467 11.9759C60.6986 11.8864 60.9157 11.7538 61.098 11.5781C61.2803 11.3991 61.4212 11.1771 61.5206 10.9119L62.6541 11.2301C62.5348 11.6146 62.3343 11.9527 62.0526 12.2443C61.7708 12.5327 61.4228 12.758 61.0085 12.9205C60.5942 13.0795 60.1286 13.1591 59.6115 13.1591ZM68.9673 7.07386L67.9134 7.37216C67.8471 7.1965 67.7493 7.0258 67.62 6.86009C67.4941 6.69105 67.3217 6.55185 67.103 6.44247C66.8842 6.3331 66.6042 6.27841 66.2628 6.27841C65.7955 6.27841 65.406 6.38613 65.0945 6.60156C64.7862 6.81368 64.6321 7.08381 64.6321 7.41193C64.6321 7.7036 64.7382 7.93395 64.9503 8.10298C65.1624 8.27202 65.4938 8.41288 65.9446 8.52557L67.0781 8.80398C67.7609 8.9697 68.2696 9.22325 68.6044 9.56463C68.9392 9.9027 69.1065 10.3385 69.1065 10.8722C69.1065 11.3097 68.9806 11.7008 68.7287 12.0455C68.4801 12.3902 68.1321 12.6619 67.6847 12.8608C67.2372 13.0597 66.7169 13.1591 66.1236 13.1591C65.3447 13.1591 64.7 12.9901 64.1896 12.652C63.6792 12.3139 63.3561 11.8201 63.2202 11.1705L64.3338 10.892C64.4399 11.303 64.6404 11.6113 64.9354 11.8168C65.2337 12.0223 65.6231 12.125 66.1037 12.125C66.6506 12.125 67.0848 12.009 67.4062 11.777C67.7311 11.5417 67.8935 11.2599 67.8935 10.9318C67.8935 10.6667 67.8007 10.4446 67.6151 10.2656C67.4295 10.0833 67.1444 9.94744 66.7599 9.85795L65.4872 9.55966C64.7879 9.39394 64.2741 9.13707 63.946 8.78906C63.6212 8.43774 63.4588 7.99858 63.4588 7.47159C63.4588 7.04072 63.5798 6.65956 63.8217 6.32812C64.067 5.99669 64.4001 5.73651 64.821 5.54758C65.2453 5.35866 65.7259 5.2642 66.2628 5.2642C67.0185 5.2642 67.6117 5.42992 68.0426 5.76136C68.4768 6.0928 68.785 6.5303 68.9673 7.07386ZM73.1937 5.36364V6.35795H69.2363V5.36364H73.1937ZM70.3897 3.53409H71.563V10.8125C71.563 11.1439 71.6111 11.3925 71.7072 11.5582C71.8066 11.7206 71.9326 11.83 72.085 11.8864C72.2408 11.9394 72.4049 11.9659 72.5772 11.9659C72.7065 11.9659 72.8126 11.9593 72.8954 11.946C72.9783 11.9295 73.0446 11.9162 73.0943 11.9062L73.3329 12.9602C73.2534 12.9901 73.1423 13.0199 72.9998 13.0497C72.8573 13.0829 72.6767 13.0994 72.4579 13.0994C72.1265 13.0994 71.8017 13.0282 71.4835 12.8857C71.1686 12.7431 70.9068 12.526 70.698 12.2344C70.4925 11.9427 70.3897 11.5748 70.3897 11.1307V3.53409ZM73.9586 13V5.36364H75.1319V13H73.9586ZM74.5552 4.09091C74.3265 4.09091 74.1293 4.01302 73.9636 3.85724C73.8012 3.70147 73.72 3.5142 73.72 3.29545C73.72 3.0767 73.8012 2.88944 73.9636 2.73366C74.1293 2.57789 74.3265 2.5 74.5552 2.5C74.7839 2.5 74.9795 2.57789 75.1419 2.73366C75.3076 2.88944 75.3904 3.0767 75.3904 3.29545C75.3904 3.5142 75.3076 3.70147 75.1419 3.85724C74.9795 4.01302 74.7839 4.09091 74.5552 4.09091ZM79.3832 13.1591C78.6938 13.1591 78.0889 12.995 77.5685 12.6669C77.0515 12.3388 76.6471 11.8797 76.3555 11.2898C76.0671 10.6998 75.9229 10.0104 75.9229 9.22159C75.9229 8.42614 76.0671 7.73177 76.3555 7.13849C76.6471 6.54522 77.0515 6.08452 77.5685 5.75639C78.0889 5.42827 78.6938 5.2642 79.3832 5.2642C80.0726 5.2642 80.6758 5.42827 81.1928 5.75639C81.7132 6.08452 82.1175 6.54522 82.4059 7.13849C82.6976 7.73177 82.8434 8.42614 82.8434 9.22159C82.8434 10.0104 82.6976 10.6998 82.4059 11.2898C82.1175 11.8797 81.7132 12.3388 81.1928 12.6669C80.6758 12.995 80.0726 13.1591 79.3832 13.1591ZM79.3832 12.1051C79.9068 12.1051 80.3377 11.9709 80.6758 11.7024C81.0138 11.4339 81.2641 11.081 81.4265 10.6435C81.5889 10.206 81.6701 9.73201 81.6701 9.22159C81.6701 8.71117 81.5889 8.23556 81.4265 7.79474C81.2641 7.35393 81.0138 6.99763 80.6758 6.72585C80.3377 6.45407 79.9068 6.31818 79.3832 6.31818C78.8595 6.31818 78.4286 6.45407 78.0906 6.72585C77.7525 6.99763 77.5022 7.35393 77.3398 7.79474C77.1774 8.23556 77.0962 8.71117 77.0962 9.22159C77.0962 9.73201 77.1774 10.206 77.3398 10.6435C77.5022 11.081 77.7525 11.4339 78.0906 11.7024C78.4286 11.9709 78.8595 12.1051 79.3832 12.1051ZM84.8077 8.40625V13H83.6344V5.36364H84.7679V6.55682H84.8674C85.0463 6.16903 85.3181 5.85748 85.6827 5.62216C86.0473 5.38352 86.5179 5.2642 87.0946 5.2642C87.6117 5.2642 88.0641 5.37027 88.4519 5.58239C88.8397 5.79119 89.1413 6.10938 89.3567 6.53693C89.5721 6.96117 89.6799 7.49811 89.6799 8.14773V13H88.5066V8.22727C88.5066 7.62737 88.3508 7.16004 88.0392 6.82528C87.7277 6.48722 87.3001 6.31818 86.7566 6.31818C86.382 6.31818 86.0473 6.39938 85.7523 6.56179C85.4606 6.72419 85.2303 6.96117 85.0613 7.27273C84.8922 7.58428 84.8077 7.96212 84.8077 8.40625ZM96.233 7.07386L95.179 7.37216C95.1127 7.1965 95.0149 7.0258 94.8857 6.86009C94.7597 6.69105 94.5874 6.55185 94.3686 6.44247C94.1499 6.3331 93.8698 6.27841 93.5284 6.27841C93.0611 6.27841 92.6716 6.38613 92.3601 6.60156C92.0518 6.81368 91.8977 7.08381 91.8977 7.41193C91.8977 7.7036 92.0038 7.93395 92.2159 8.10298C92.428 8.27202 92.7595 8.41288 93.2102 8.52557L94.3438 8.80398C95.0265 8.9697 95.5353 9.22325 95.87 9.56463C96.2048 9.9027 96.3722 10.3385 96.3722 10.8722C96.3722 11.3097 96.2462 11.7008 95.9943 12.0455C95.7457 12.3902 95.3977 12.6619 94.9503 12.8608C94.5028 13.0597 93.9825 13.1591 93.3892 13.1591C92.6103 13.1591 91.9657 12.9901 91.4553 12.652C90.9448 12.3139 90.6217 11.8201 90.4858 11.1705L91.5994 10.892C91.7055 11.303 91.906 11.6113 92.201 11.8168C92.4993 12.0223 92.8887 12.125 93.3693 12.125C93.9162 12.125 94.3504 12.009 94.6719 11.777C94.9967 11.5417 95.1591 11.2599 95.1591 10.9318C95.1591 10.6667 95.0663 10.4446 94.8807 10.2656C94.6951 10.0833 94.41 9.94744 94.0256 9.85795L92.7528 9.55966C92.0535 9.39394 91.5398 9.13707 91.2116 8.78906C90.8868 8.43774 90.7244 7.99858 90.7244 7.47159C90.7244 7.04072 90.8454 6.65956 91.0874 6.32812C91.3326 5.99669 91.6657 5.73651 92.0866 5.54758C92.5109 5.35866 92.9915 5.2642 93.5284 5.2642C94.2841 5.2642 94.8774 5.42992 95.3082 5.76136C95.7424 6.0928 96.0507 6.5303 96.233 7.07386Z" fill="#45556C"/>
</svg>
