<svg width="20" height="20" viewBox="0 0 20 20" fill="none" xmlns="http://www.w3.org/2000/svg">
<g clip-path="url(#clip0_511_1907)">
<path d="M8.33398 12.2167V13.5717C8.33084 13.8572 8.25439 14.1371 8.11197 14.3846C7.96955 14.6321 7.76593 14.8388 7.52065 14.985C6.99994 15.3707 6.57635 15.8725 6.28356 16.4506C5.99076 17.0286 5.83683 17.667 5.83398 18.315" stroke="#737373" stroke-width="1.66667" stroke-linecap="round" stroke-linejoin="round"/>
<path d="M11.666 12.2167V13.5717C11.6692 13.8572 11.7456 14.1371 11.888 14.3846C12.0305 14.6321 12.2341 14.8388 12.4793 14.985C13.0001 15.3707 13.4236 15.8725 13.7164 16.4506C14.0092 17.0286 14.1632 17.667 14.166 18.315" stroke="#737373" stroke-width="1.66667" stroke-linecap="round" stroke-linejoin="round"/>
<path d="M15 7.50001H16.25C16.8025 7.50001 17.3324 7.28052 17.7231 6.88982C18.1138 6.49912 18.3333 5.96921 18.3333 5.41668C18.3333 4.86414 18.1138 4.33424 17.7231 3.94354C17.3324 3.55284 16.8025 3.33334 16.25 3.33334H15" stroke="#737373" stroke-width="1.66667" stroke-linecap="round" stroke-linejoin="round"/>
<path d="M3.33398 18.3333H16.6673" stroke="#737373" stroke-width="1.66667" stroke-linecap="round" stroke-linejoin="round"/>
<path d="M5 7.49999C5 8.82607 5.52678 10.0978 6.46447 11.0355C7.40215 11.9732 8.67392 12.5 10 12.5C11.3261 12.5 12.5979 11.9732 13.5355 11.0355C14.4732 10.0978 15 8.82607 15 7.49999V2.49999C15 2.27898 14.9122 2.06701 14.7559 1.91073C14.5996 1.75445 14.3877 1.66666 14.1667 1.66666H5.83333C5.61232 1.66666 5.40036 1.75445 5.24408 1.91073C5.0878 2.06701 5 2.27898 5 2.49999V7.49999Z" stroke="#737373" stroke-width="1.66667" stroke-linecap="round" stroke-linejoin="round"/>
<path d="M4.99935 7.50001H3.74935C3.19681 7.50001 2.66691 7.28052 2.27621 6.88982C1.88551 6.49912 1.66602 5.96921 1.66602 5.41668C1.66602 4.86414 1.88551 4.33424 2.27621 3.94354C2.66691 3.55284 3.19681 3.33334 3.74935 3.33334H4.99935" stroke="#737373" stroke-width="1.66667" stroke-linecap="round" stroke-linejoin="round"/>
</g>
<defs>
<clipPath id="clip0_511_1907">
<rect width="20" height="20" fill="white"/>
</clipPath>
</defs>
</svg>
