<svg width="285" height="44" viewBox="0 0 285 44" fill="none" xmlns="http://www.w3.org/2000/svg">
<rect width="285" height="44" rx="11" fill="#262626"/>
<path d="M92 20.0021C91.9996 19.8837 92.0308 19.7675 92.0902 19.6652C92.1496 19.5629 92.2352 19.4782 92.3382 19.4199C92.4411 19.3616 92.5577 19.3318 92.676 19.3334C92.7943 19.3351 92.9101 19.3682 93.0113 19.4294L96.3427 21.4274C96.4418 21.4865 96.524 21.5703 96.581 21.6707C96.638 21.7711 96.668 21.8846 96.668 22.0001C96.668 22.1155 96.638 22.229 96.581 22.3294C96.524 22.4298 96.4418 22.5136 96.3427 22.5727L93.0113 24.5707C92.91 24.6319 92.7942 24.665 92.6759 24.6667C92.5575 24.6683 92.4409 24.6384 92.3379 24.58C92.2349 24.5216 92.1493 24.4369 92.09 24.3345C92.0306 24.2321 91.9995 24.1158 92 23.9974V20.0021Z" stroke="white" stroke-width="1.33333" stroke-linecap="round" stroke-linejoin="round"/>
<path d="M94.0007 28.6667C97.6825 28.6667 100.667 25.6819 100.667 22C100.667 18.3181 97.6825 15.3334 94.0007 15.3334C90.3188 15.3334 87.334 18.3181 87.334 22C87.334 25.6819 90.3188 28.6667 94.0007 28.6667Z" stroke="white" stroke-width="1.33333" stroke-linecap="round" stroke-linejoin="round"/>
<path d="M111.278 28V16.3636H115.426C116.328 16.3636 117.076 16.5189 117.67 16.8295C118.269 17.1402 118.716 17.5701 119.011 18.1193C119.307 18.6648 119.455 19.2955 119.455 20.0114C119.455 20.7235 119.305 21.3504 119.006 21.892C118.71 22.4299 118.263 22.8485 117.665 23.1477C117.07 23.447 116.322 23.5966 115.42 23.5966H112.278V22.0852H115.261C115.83 22.0852 116.292 22.0038 116.648 21.8409C117.008 21.678 117.271 21.4413 117.438 21.1307C117.604 20.8201 117.688 20.447 117.688 20.0114C117.688 19.572 117.602 19.1913 117.432 18.8693C117.265 18.5473 117.002 18.3011 116.642 18.1307C116.286 17.9564 115.818 17.8693 115.239 17.8693H113.034V28H111.278ZM117.023 22.75L119.898 28H117.898L115.08 22.75H117.023ZM124.147 28.1761C123.287 28.1761 122.546 27.9924 121.925 27.625C121.308 27.2538 120.83 26.733 120.493 26.0625C120.16 25.3883 119.993 24.5985 119.993 23.6932C119.993 22.7992 120.16 22.0114 120.493 21.3295C120.83 20.6477 121.3 20.1155 121.902 19.733C122.508 19.3504 123.217 19.1591 124.027 19.1591C124.52 19.1591 124.997 19.2405 125.459 19.4034C125.921 19.5663 126.336 19.822 126.703 20.1705C127.071 20.5189 127.361 20.9716 127.573 21.5284C127.785 22.0814 127.891 22.7538 127.891 23.5455V24.1477H120.953V22.875H126.226C126.226 22.428 126.135 22.0322 125.953 21.6875C125.772 21.339 125.516 21.0644 125.186 20.8636C124.861 20.6629 124.478 20.5625 124.039 20.5625C123.561 20.5625 123.145 20.6799 122.789 20.9148C122.436 21.1458 122.164 21.4489 121.97 21.8239C121.781 22.1951 121.686 22.5985 121.686 23.0341V24.0284C121.686 24.6117 121.789 25.108 121.993 25.517C122.201 25.9261 122.491 26.2386 122.862 26.4545C123.234 26.6667 123.667 26.7727 124.164 26.7727C124.486 26.7727 124.779 26.7273 125.044 26.6364C125.309 26.5417 125.539 26.4015 125.732 26.2159C125.925 26.0303 126.073 25.8011 126.175 25.5284L127.783 25.8182C127.654 26.2917 127.423 26.7064 127.09 27.0625C126.76 27.4148 126.345 27.6894 125.845 27.8864C125.349 28.0795 124.783 28.1761 124.147 28.1761ZM135.356 21.4034L133.816 21.6761C133.751 21.4792 133.649 21.2917 133.509 21.1136C133.373 20.9356 133.187 20.7898 132.952 20.6761C132.717 20.5625 132.424 20.5057 132.071 20.5057C131.59 20.5057 131.189 20.6136 130.867 20.8295C130.545 21.0417 130.384 21.3163 130.384 21.6534C130.384 21.9451 130.492 22.1799 130.708 22.358C130.924 22.536 131.272 22.6818 131.753 22.7955L133.14 23.1136C133.943 23.2992 134.541 23.5852 134.935 23.9716C135.329 24.358 135.526 24.8598 135.526 25.4773C135.526 26 135.375 26.4659 135.071 26.875C134.772 27.2803 134.354 27.5985 133.816 27.8295C133.282 28.0606 132.662 28.1761 131.958 28.1761C130.981 28.1761 130.183 27.9678 129.566 27.5511C128.948 27.1307 128.57 26.5341 128.429 25.7614L130.071 25.5114C130.174 25.9394 130.384 26.2633 130.702 26.483C131.02 26.6989 131.435 26.8068 131.946 26.8068C132.503 26.8068 132.948 26.6913 133.282 26.4602C133.615 26.2254 133.782 25.9394 133.782 25.6023C133.782 25.3295 133.679 25.1004 133.475 24.9148C133.274 24.7292 132.965 24.589 132.549 24.4943L131.071 24.1705C130.257 23.9848 129.655 23.6894 129.265 23.2841C128.878 22.8788 128.685 22.3655 128.685 21.7443C128.685 21.2292 128.829 20.7784 129.117 20.392C129.405 20.0057 129.803 19.7045 130.31 19.4886C130.818 19.2689 131.399 19.1591 132.054 19.1591C132.998 19.1591 133.74 19.3636 134.282 19.7727C134.823 20.178 135.181 20.7216 135.356 21.4034ZM141.962 24.3807V19.2727H143.667V28H141.996V26.4886H141.906C141.705 26.9545 141.383 27.3428 140.94 27.6534C140.5 27.9602 139.953 28.1136 139.298 28.1136C138.737 28.1136 138.241 27.9905 137.809 27.7443C137.381 27.4943 137.044 27.125 136.798 26.6364C136.555 26.1477 136.434 25.5436 136.434 24.8239V19.2727H138.133V24.6193C138.133 25.214 138.298 25.6875 138.627 26.0398C138.957 26.392 139.385 26.5682 139.911 26.5682C140.229 26.5682 140.546 26.4886 140.86 26.3295C141.178 26.1705 141.441 25.9299 141.65 25.608C141.862 25.286 141.966 24.8769 141.962 24.3807ZM144.99 28V19.2727H146.62V20.6932H146.728C146.91 20.2121 147.207 19.8371 147.62 19.5682C148.033 19.2955 148.527 19.1591 149.103 19.1591C149.687 19.1591 150.175 19.2955 150.569 19.5682C150.967 19.8409 151.26 20.2159 151.45 20.6932H151.541C151.749 20.2273 152.08 19.8561 152.535 19.5795C152.99 19.2992 153.531 19.1591 154.16 19.1591C154.952 19.1591 155.597 19.4072 156.097 19.9034C156.601 20.3996 156.853 21.1477 156.853 22.1477V28H155.154V22.3068C155.154 21.7159 154.993 21.2879 154.671 21.0227C154.349 20.7576 153.965 20.625 153.518 20.625C152.965 20.625 152.535 20.7955 152.228 21.1364C151.921 21.4735 151.768 21.9072 151.768 22.4375V28H150.075V22.1989C150.075 21.7254 149.927 21.3447 149.632 21.0568C149.336 20.7689 148.952 20.625 148.478 20.625C148.156 20.625 147.859 20.7102 147.586 20.8807C147.317 21.0473 147.099 21.2803 146.933 21.5795C146.77 21.8788 146.688 22.2254 146.688 22.6193V28H144.99ZM161.932 28.1761C161.072 28.1761 160.331 27.9924 159.71 27.625C159.093 27.2538 158.615 26.733 158.278 26.0625C157.945 25.3883 157.778 24.5985 157.778 23.6932C157.778 22.7992 157.945 22.0114 158.278 21.3295C158.615 20.6477 159.085 20.1155 159.687 19.733C160.293 19.3504 161.002 19.1591 161.812 19.1591C162.305 19.1591 162.782 19.2405 163.244 19.4034C163.706 19.5663 164.121 19.822 164.488 20.1705C164.856 20.5189 165.146 20.9716 165.358 21.5284C165.57 22.0814 165.676 22.7538 165.676 23.5455V24.1477H158.738V22.875H164.011C164.011 22.428 163.92 22.0322 163.738 21.6875C163.557 21.339 163.301 21.0644 162.971 20.8636C162.646 20.6629 162.263 20.5625 161.824 20.5625C161.346 20.5625 160.93 20.6799 160.574 20.9148C160.221 21.1458 159.949 21.4489 159.755 21.8239C159.566 22.1951 159.471 22.5985 159.471 23.0341V24.0284C159.471 24.6117 159.574 25.108 159.778 25.517C159.986 25.9261 160.276 26.2386 160.647 26.4545C161.019 26.6667 161.452 26.7727 161.949 26.7727C162.271 26.7727 162.564 26.7273 162.829 26.6364C163.094 26.5417 163.324 26.4015 163.517 26.2159C163.71 26.0303 163.858 25.8011 163.96 25.5284L165.568 25.8182C165.439 26.2917 165.208 26.7064 164.875 27.0625C164.545 27.4148 164.13 27.6894 163.63 27.8864C163.134 28.0795 162.568 28.1761 161.932 28.1761ZM169.438 17.875V16.3636H178.443V17.875H174.813V28H173.063V17.875H169.438ZM181.833 28.1761C180.973 28.1761 180.232 27.9924 179.611 27.625C178.994 27.2538 178.516 26.733 178.179 26.0625C177.846 25.3883 177.679 24.5985 177.679 23.6932C177.679 22.7992 177.846 22.0114 178.179 21.3295C178.516 20.6477 178.986 20.1155 179.588 19.733C180.195 19.3504 180.903 19.1591 181.713 19.1591C182.206 19.1591 182.683 19.2405 183.145 19.4034C183.607 19.5663 184.022 19.822 184.39 20.1705C184.757 20.5189 185.047 20.9716 185.259 21.5284C185.471 22.0814 185.577 22.7538 185.577 23.5455V24.1477H178.64V22.875H183.912C183.912 22.428 183.821 22.0322 183.64 21.6875C183.458 21.339 183.202 21.0644 182.873 20.8636C182.547 20.6629 182.164 20.5625 181.725 20.5625C181.248 20.5625 180.831 20.6799 180.475 20.9148C180.123 21.1458 179.85 21.4489 179.657 21.8239C179.467 22.1951 179.373 22.5985 179.373 23.0341V24.0284C179.373 24.6117 179.475 25.108 179.679 25.517C179.888 25.9261 180.177 26.2386 180.549 26.4545C180.92 26.6667 181.354 26.7727 181.85 26.7727C182.172 26.7727 182.465 26.7273 182.731 26.6364C182.996 26.5417 183.225 26.4015 183.418 26.2159C183.611 26.0303 183.759 25.8011 183.861 25.5284L185.469 25.8182C185.34 26.2917 185.109 26.7064 184.776 27.0625C184.446 27.4148 184.032 27.6894 183.532 27.8864C183.035 28.0795 182.469 28.1761 181.833 28.1761ZM193.042 21.4034L191.502 21.6761C191.438 21.4792 191.335 21.2917 191.195 21.1136C191.059 20.9356 190.873 20.7898 190.638 20.6761C190.404 20.5625 190.11 20.5057 189.758 20.5057C189.277 20.5057 188.875 20.6136 188.553 20.8295C188.231 21.0417 188.07 21.3163 188.07 21.6534C188.07 21.9451 188.178 22.1799 188.394 22.358C188.61 22.536 188.958 22.6818 189.44 22.7955L190.826 23.1136C191.629 23.2992 192.227 23.5852 192.621 23.9716C193.015 24.358 193.212 24.8598 193.212 25.4773C193.212 26 193.061 26.4659 192.758 26.875C192.458 27.2803 192.04 27.5985 191.502 27.8295C190.968 28.0606 190.349 28.1761 189.644 28.1761C188.667 28.1761 187.869 27.9678 187.252 27.5511C186.635 27.1307 186.256 26.5341 186.116 25.7614L187.758 25.5114C187.86 25.9394 188.07 26.2633 188.388 26.483C188.707 26.6989 189.121 26.8068 189.633 26.8068C190.19 26.8068 190.635 26.6913 190.968 26.4602C191.301 26.2254 191.468 25.9394 191.468 25.6023C191.468 25.3295 191.366 25.1004 191.161 24.9148C190.96 24.7292 190.652 24.589 190.235 24.4943L188.758 24.1705C187.943 23.9848 187.341 23.6894 186.951 23.2841C186.565 22.8788 186.371 22.3655 186.371 21.7443C186.371 21.2292 186.515 20.7784 186.803 20.392C187.091 20.0057 187.489 19.7045 187.996 19.4886C188.504 19.2689 189.085 19.1591 189.741 19.1591C190.684 19.1591 191.426 19.3636 191.968 19.7727C192.51 20.178 192.868 20.7216 193.042 21.4034ZM198.194 19.2727V20.6364H193.427V19.2727H198.194ZM194.705 17.1818H196.404V25.4375C196.404 25.767 196.454 26.0152 196.552 26.1818C196.65 26.3447 196.777 26.4564 196.933 26.517C197.092 26.5739 197.264 26.6023 197.45 26.6023C197.586 26.6023 197.705 26.5928 197.808 26.5739C197.91 26.5549 197.989 26.5398 198.046 26.5284L198.353 27.9318C198.255 27.9697 198.114 28.0076 197.933 28.0455C197.751 28.0871 197.524 28.1098 197.251 28.1136C196.804 28.1212 196.387 28.0417 196.001 27.875C195.614 27.7083 195.302 27.4508 195.063 27.1023C194.825 26.7538 194.705 26.3163 194.705 25.7898V17.1818Z" fill="#F3F4F6"/>
</svg>
