<svg width="493" height="17" viewBox="0 0 493 17" fill="none" xmlns="http://www.w3.org/2000/svg">
<path d="M5.33398 1.33334V4.00001" stroke="#8D191C" stroke-width="1.33333" stroke-linecap="round" stroke-linejoin="round"/>
<path d="M10.666 1.33334V4.00001" stroke="#8D191C" stroke-width="1.33333" stroke-linecap="round" stroke-linejoin="round"/>
<path d="M12.6667 2.66666H3.33333C2.59695 2.66666 2 3.26361 2 3.99999V13.3333C2 14.0697 2.59695 14.6667 3.33333 14.6667H12.6667C13.403 14.6667 14 14.0697 14 13.3333V3.99999C14 3.26361 13.403 2.66666 12.6667 2.66666Z" stroke="#8D191C" stroke-width="1.33333" stroke-linecap="round" stroke-linejoin="round"/>
<path d="M2 6.66666H14" stroke="#8D191C" stroke-width="1.33333" stroke-linecap="round" stroke-linejoin="round"/>
<path d="M34.6364 2.36364V14H33.2727L26.9318 4.86364H26.8182V14H25.4091V2.36364H26.7727L33.1364 11.5227H33.25V2.36364H34.6364ZM39.9332 14.1818C39.0923 14.1818 38.367 13.9962 37.7571 13.625C37.151 13.25 36.6832 12.7273 36.3537 12.0568C36.0279 11.3826 35.8651 10.5985 35.8651 9.70455C35.8651 8.81061 36.0279 8.02273 36.3537 7.34091C36.6832 6.6553 37.1416 6.12121 37.7287 5.73864C38.3196 5.35227 39.009 5.15909 39.7969 5.15909C40.2514 5.15909 40.7003 5.23485 41.1435 5.38636C41.5866 5.53788 41.9901 5.78409 42.3537 6.125C42.7173 6.46212 43.0071 6.90909 43.223 7.46591C43.4389 8.02273 43.5469 8.70833 43.5469 9.52273V10.0909H36.8196V8.93182H42.1832C42.1832 8.43939 42.0848 8 41.8878 7.61364C41.6946 7.22727 41.4181 6.92235 41.0582 6.69886C40.7022 6.47538 40.2817 6.36364 39.7969 6.36364C39.2628 6.36364 38.8007 6.49621 38.4105 6.76136C38.0241 7.02273 37.7268 7.36364 37.5185 7.78409C37.3101 8.20455 37.206 8.6553 37.206 9.13636V9.90909C37.206 10.5682 37.3196 11.1269 37.5469 11.5852C37.7779 12.0398 38.098 12.3864 38.5071 12.625C38.9162 12.8598 39.3916 12.9773 39.9332 12.9773C40.2855 12.9773 40.6037 12.928 40.8878 12.8295C41.1757 12.7273 41.4238 12.5758 41.6321 12.375C41.8404 12.1705 42.0014 11.9167 42.1151 11.6136L43.4105 11.9773C43.2741 12.4167 43.045 12.803 42.723 13.1364C42.401 13.4659 42.0033 13.7235 41.5298 13.9091C41.0563 14.0909 40.5241 14.1818 39.9332 14.1818ZM45.3523 5.27273L47.4432 8.84091L49.5341 5.27273H51.0795L48.2614 9.63636L51.0795 14H49.5341L47.4432 10.6136L45.3523 14H43.8068L46.5795 9.63636L43.8068 5.27273H45.3523ZM55.7884 5.27273V6.40909H51.2656V5.27273H55.7884ZM52.5838 3.18182H53.9247V11.5C53.9247 11.8788 53.9796 12.1629 54.0895 12.3523C54.2031 12.5379 54.3471 12.6629 54.5213 12.7273C54.6993 12.7879 54.8868 12.8182 55.0838 12.8182C55.2315 12.8182 55.3527 12.8106 55.4474 12.7955C55.5421 12.7765 55.6179 12.7614 55.6747 12.75L55.9474 13.9545C55.8565 13.9886 55.7296 14.0227 55.5668 14.0568C55.4039 14.0947 55.1974 14.1136 54.9474 14.1136C54.5687 14.1136 54.1974 14.0322 53.8338 13.8693C53.474 13.7064 53.1747 13.4583 52.9361 13.125C52.7012 12.7917 52.5838 12.3712 52.5838 11.8636V3.18182ZM60.4872 14V2.36364H67.5099V3.61364H61.8963V7.54545H67.1463V8.79545H61.8963V12.75H67.6009V14H60.4872ZM69.8679 5.27273L71.9588 8.84091L74.0497 5.27273H75.5952L72.777 9.63636L75.5952 14H74.0497L71.9588 10.6136L69.8679 14H68.3224L71.0952 9.63636L68.3224 5.27273H69.8679ZM79.0767 14.2045C78.5237 14.2045 78.0218 14.1004 77.571 13.892C77.1203 13.6799 76.7623 13.375 76.4972 12.9773C76.232 12.5758 76.0994 12.0909 76.0994 11.5227C76.0994 11.0227 76.1979 10.6174 76.3949 10.3068C76.5919 9.99242 76.8551 9.74621 77.1847 9.56818C77.5142 9.39015 77.8778 9.25758 78.2756 9.17045C78.6771 9.07955 79.0805 9.00758 79.4858 8.95455C80.0161 8.88636 80.446 8.83523 80.7756 8.80114C81.1089 8.76326 81.3513 8.70076 81.5028 8.61364C81.6581 8.52652 81.7358 8.375 81.7358 8.15909V8.11364C81.7358 7.55303 81.5824 7.11742 81.2756 6.80682C80.9725 6.49621 80.5123 6.34091 79.8949 6.34091C79.2547 6.34091 78.7528 6.48106 78.3892 6.76136C78.0256 7.04167 77.7699 7.34091 77.6222 7.65909L76.3494 7.20455C76.5767 6.67424 76.8797 6.26136 77.2585 5.96591C77.6411 5.66667 78.0578 5.45833 78.5085 5.34091C78.9631 5.2197 79.41 5.15909 79.8494 5.15909C80.1297 5.15909 80.4517 5.19318 80.8153 5.26136C81.1828 5.32576 81.5369 5.46023 81.8778 5.66477C82.2225 5.86932 82.5085 6.17803 82.7358 6.59091C82.9631 7.00379 83.0767 7.55682 83.0767 8.25V14H81.7358V12.8182H81.6676C81.5767 13.0076 81.4252 13.2102 81.2131 13.4261C81.0009 13.642 80.7188 13.8258 80.3665 13.9773C80.0142 14.1288 79.5843 14.2045 79.0767 14.2045ZM79.2812 13C79.8116 13 80.2585 12.8958 80.6222 12.6875C80.9896 12.4792 81.2661 12.2102 81.4517 11.8807C81.6411 11.5511 81.7358 11.2045 81.7358 10.8409V9.61364C81.679 9.68182 81.554 9.74432 81.3608 9.80114C81.1714 9.85417 80.9517 9.90151 80.7017 9.94318C80.4555 9.98106 80.215 10.0152 79.9801 10.0455C79.7491 10.072 79.5616 10.0947 79.4176 10.1136C79.0691 10.1591 78.7434 10.233 78.4403 10.3352C78.1411 10.4337 77.8987 10.5833 77.7131 10.7841C77.5313 10.9811 77.4403 11.25 77.4403 11.5909C77.4403 12.0568 77.6127 12.4091 77.9574 12.6477C78.3059 12.8826 78.7472 13 79.2812 13ZM84.5241 14V5.27273H85.8196V6.63636H85.9332C86.1151 6.17045 86.4086 5.80871 86.8139 5.55114C87.2192 5.28977 87.706 5.15909 88.2741 5.15909C88.8499 5.15909 89.3291 5.28977 89.7116 5.55114C90.098 5.80871 90.3991 6.17045 90.6151 6.63636H90.706C90.9295 6.18561 91.2647 5.82765 91.7116 5.5625C92.1586 5.29356 92.6946 5.15909 93.3196 5.15909C94.0999 5.15909 94.7382 5.40341 95.2344 5.89205C95.7306 6.37689 95.9787 7.13258 95.9787 8.15909V14H94.6378V8.15909C94.6378 7.51515 94.4616 7.05492 94.1094 6.77841C93.7571 6.50189 93.3423 6.36364 92.8651 6.36364C92.2514 6.36364 91.776 6.54924 91.4389 6.92045C91.1018 7.28788 90.9332 7.75379 90.9332 8.31818V14H89.5696V8.02273C89.5696 7.52652 89.4086 7.12689 89.0866 6.82386C88.7647 6.51705 88.3499 6.36364 87.8423 6.36364C87.4938 6.36364 87.1681 6.45644 86.8651 6.64205C86.5658 6.82765 86.3234 7.08523 86.1378 7.41477C85.956 7.74053 85.8651 8.11742 85.8651 8.54545V14H84.5241ZM98.4077 14.0909C98.1274 14.0909 97.8868 13.9905 97.6861 13.7898C97.4853 13.589 97.3849 13.3485 97.3849 13.0682C97.3849 12.7879 97.4853 12.5473 97.6861 12.3466C97.8868 12.1458 98.1274 12.0455 98.4077 12.0455C98.688 12.0455 98.9285 12.1458 99.1293 12.3466C99.33 12.5473 99.4304 12.7879 99.4304 13.0682C99.4304 13.2538 99.383 13.4242 99.2884 13.5795C99.1974 13.7348 99.0743 13.8598 98.919 13.9545C98.7675 14.0455 98.5971 14.0909 98.4077 14.0909ZM98.4077 7.61364C98.1274 7.61364 97.8868 7.51326 97.6861 7.3125C97.4853 7.11174 97.3849 6.87121 97.3849 6.59091C97.3849 6.31061 97.4853 6.07008 97.6861 5.86932C97.8868 5.66856 98.1274 5.56818 98.4077 5.56818C98.688 5.56818 98.9285 5.66856 99.1293 5.86932C99.33 6.07008 99.4304 6.31061 99.4304 6.59091C99.4304 6.77652 99.383 6.94697 99.2884 7.10227C99.1974 7.25758 99.0743 7.38258 98.919 7.47727C98.7675 7.56818 98.5971 7.61364 98.4077 7.61364ZM104.518 2.36364H106.2L110.155 12.0227H110.291L114.246 2.36364H115.928V14H114.609V5.15909H114.496L110.859 14H109.587L105.95 5.15909H105.837V14H104.518V2.36364ZM120.139 14.2045C119.586 14.2045 119.084 14.1004 118.634 13.892C118.183 13.6799 117.825 13.375 117.56 12.9773C117.295 12.5758 117.162 12.0909 117.162 11.5227C117.162 11.0227 117.26 10.6174 117.457 10.3068C117.654 9.99242 117.918 9.74621 118.247 9.56818C118.577 9.39015 118.94 9.25758 119.338 9.17045C119.74 9.07955 120.143 9.00758 120.548 8.95455C121.079 8.88636 121.509 8.83523 121.838 8.80114C122.171 8.76326 122.414 8.70076 122.565 8.61364C122.721 8.52652 122.798 8.375 122.798 8.15909V8.11364C122.798 7.55303 122.645 7.11742 122.338 6.80682C122.035 6.49621 121.575 6.34091 120.957 6.34091C120.317 6.34091 119.815 6.48106 119.452 6.76136C119.088 7.04167 118.832 7.34091 118.685 7.65909L117.412 7.20455C117.639 6.67424 117.942 6.26136 118.321 5.96591C118.704 5.66667 119.12 5.45833 119.571 5.34091C120.026 5.2197 120.473 5.15909 120.912 5.15909C121.192 5.15909 121.514 5.19318 121.878 5.26136C122.245 5.32576 122.599 5.46023 122.94 5.66477C123.285 5.86932 123.571 6.17803 123.798 6.59091C124.026 7.00379 124.139 7.55682 124.139 8.25V14H122.798V12.8182H122.73C122.639 13.0076 122.488 13.2102 122.276 13.4261C122.063 13.642 121.781 13.8258 121.429 13.9773C121.077 14.1288 120.647 14.2045 120.139 14.2045ZM120.344 13C120.874 13 121.321 12.8958 121.685 12.6875C122.052 12.4792 122.329 12.2102 122.514 11.8807C122.704 11.5511 122.798 11.2045 122.798 10.8409V9.61364C122.741 9.68182 122.616 9.74432 122.423 9.80114C122.234 9.85417 122.014 9.90151 121.764 9.94318C121.518 9.98106 121.277 10.0152 121.043 10.0455C120.812 10.072 120.624 10.0947 120.48 10.1136C120.132 10.1591 119.806 10.233 119.503 10.3352C119.204 10.4337 118.961 10.5833 118.776 10.7841C118.594 10.9811 118.503 11.25 118.503 11.5909C118.503 12.0568 118.675 12.4091 119.02 12.6477C119.368 12.8826 119.81 13 120.344 13ZM125.587 14V5.27273H126.882V6.59091H126.973C127.132 6.15909 127.42 5.80871 127.837 5.53977C128.253 5.27083 128.723 5.13636 129.246 5.13636C129.344 5.13636 129.467 5.13826 129.615 5.14205C129.763 5.14583 129.875 5.15152 129.95 5.15909V6.52273C129.905 6.51136 129.801 6.49432 129.638 6.47159C129.479 6.44508 129.31 6.43182 129.132 6.43182C128.708 6.43182 128.329 6.52083 127.996 6.69886C127.666 6.87311 127.405 7.11553 127.212 7.42614C127.022 7.73295 126.928 8.08333 126.928 8.47727V14H125.587ZM133.82 14.1818C133.001 14.1818 132.297 13.9886 131.706 13.6023C131.115 13.2159 130.661 12.6837 130.342 12.0057C130.024 11.3277 129.865 10.553 129.865 9.68182C129.865 8.79545 130.028 8.01326 130.354 7.33523C130.683 6.65341 131.142 6.12121 131.729 5.73864C132.32 5.35227 133.009 5.15909 133.797 5.15909C134.411 5.15909 134.964 5.27273 135.456 5.5C135.948 5.72727 136.352 6.04545 136.666 6.45455C136.981 6.86364 137.176 7.34091 137.251 7.88636H135.911C135.808 7.48864 135.581 7.13636 135.229 6.82955C134.88 6.51894 134.411 6.36364 133.82 6.36364C133.297 6.36364 132.839 6.5 132.445 6.77273C132.054 7.04167 131.75 7.42235 131.53 7.91477C131.314 8.40341 131.206 8.97727 131.206 9.63636C131.206 10.3106 131.312 10.8977 131.524 11.3977C131.74 11.8977 132.043 12.286 132.433 12.5625C132.827 12.839 133.289 12.9773 133.82 12.9773C134.168 12.9773 134.484 12.9167 134.768 12.7955C135.053 12.6742 135.293 12.5 135.49 12.2727C135.687 12.0455 135.827 11.7727 135.911 11.4545H137.251C137.176 11.9697 136.988 12.4337 136.689 12.8466C136.393 13.2557 136.001 13.5814 135.513 13.8239C135.028 14.0625 134.464 14.1818 133.82 14.1818ZM139.553 8.75V14H138.212V2.36364H139.553V6.63636H139.666C139.871 6.18561 140.178 5.82765 140.587 5.5625C141 5.29356 141.549 5.15909 142.234 5.15909C142.829 5.15909 143.35 5.27841 143.797 5.51705C144.244 5.75189 144.59 6.11364 144.837 6.60227C145.087 7.08712 145.212 7.70455 145.212 8.45455V14H143.871V8.54545C143.871 7.85227 143.691 7.31629 143.331 6.9375C142.975 6.55492 142.481 6.36364 141.848 6.36364C141.409 6.36364 141.015 6.45644 140.666 6.64205C140.321 6.82765 140.049 7.09848 139.848 7.45455C139.651 7.81061 139.553 8.24242 139.553 8.75ZM154.233 2.36364V14H152.824V3.84091H152.756L149.915 5.72727V4.29545L152.824 2.36364H154.233ZM160.216 14.1591C159.549 14.1591 158.949 14.0265 158.415 13.7614C157.881 13.4962 157.453 13.1326 157.131 12.6705C156.809 12.2083 156.633 11.6818 156.602 11.0909H157.966C158.019 11.6174 158.258 12.053 158.682 12.3977C159.11 12.7386 159.621 12.9091 160.216 12.9091C160.693 12.9091 161.117 12.7973 161.489 12.5739C161.864 12.3504 162.157 12.0436 162.369 11.6534C162.585 11.2595 162.693 10.8144 162.693 10.3182C162.693 9.81061 162.581 9.35795 162.358 8.96023C162.138 8.55871 161.835 8.24242 161.449 8.01136C161.063 7.7803 160.621 7.66288 160.125 7.65909C159.769 7.6553 159.403 7.71023 159.028 7.82386C158.653 7.93371 158.345 8.07576 158.102 8.25L156.784 8.09091L157.489 2.36364H163.534V3.61364H158.67L158.261 7.04545H158.33C158.568 6.85606 158.867 6.69886 159.227 6.57386C159.587 6.44886 159.962 6.38636 160.352 6.38636C161.064 6.38636 161.699 6.55682 162.256 6.89773C162.816 7.23485 163.256 7.69697 163.574 8.28409C163.896 8.87121 164.057 9.54167 164.057 10.2955C164.057 11.0379 163.89 11.7008 163.557 12.2841C163.227 12.8636 162.773 13.322 162.193 13.6591C161.614 13.9924 160.955 14.1591 160.216 14.1591ZM166.899 12.4091L166.808 13.0227C166.744 13.4545 166.645 13.9167 166.513 14.4091C166.384 14.9015 166.25 15.3655 166.109 15.8011C165.969 16.2367 165.854 16.5833 165.763 16.8409H164.74C164.789 16.5985 164.854 16.2784 164.933 15.8807C165.013 15.483 165.092 15.0379 165.172 14.5455C165.255 14.0568 165.323 13.5568 165.376 13.0455L165.445 12.4091H166.899ZM171.861 14V12.9773L175.702 8.77273C176.152 8.2803 176.524 7.85227 176.815 7.48864C177.107 7.12121 177.323 6.77652 177.463 6.45455C177.607 6.12879 177.679 5.78788 177.679 5.43182C177.679 5.02273 177.58 4.66856 177.384 4.36932C177.19 4.07008 176.925 3.83901 176.588 3.67614C176.251 3.51326 175.872 3.43182 175.452 3.43182C175.005 3.43182 174.615 3.52462 174.281 3.71023C173.952 3.89205 173.696 4.14773 173.514 4.47727C173.336 4.80682 173.247 5.19318 173.247 5.63636H171.906C171.906 4.95455 172.063 4.35606 172.378 3.84091C172.692 3.32576 173.12 2.92424 173.662 2.63636C174.207 2.34848 174.819 2.20455 175.497 2.20455C176.179 2.20455 176.783 2.34848 177.31 2.63636C177.836 2.92424 178.249 3.3125 178.548 3.80114C178.848 4.28977 178.997 4.83333 178.997 5.43182C178.997 5.85985 178.92 6.27841 178.764 6.6875C178.613 7.0928 178.348 7.54545 177.969 8.04545C177.594 8.54167 177.073 9.14773 176.406 9.86364L173.793 12.6591V12.75H179.202V14H171.861ZM184.344 14.1591C183.488 14.1591 182.759 13.9261 182.156 13.4602C181.554 12.9905 181.094 12.3106 180.776 11.4205C180.457 10.5265 180.298 9.44697 180.298 8.18182C180.298 6.92424 180.457 5.85038 180.776 4.96023C181.098 4.06629 181.56 3.38447 182.162 2.91477C182.768 2.44129 183.495 2.20455 184.344 2.20455C185.192 2.20455 185.918 2.44129 186.52 2.91477C187.126 3.38447 187.588 4.06629 187.906 4.96023C188.228 5.85038 188.389 6.92424 188.389 8.18182C188.389 9.44697 188.23 10.5265 187.912 11.4205C187.594 12.3106 187.134 12.9905 186.531 13.4602C185.929 13.9261 185.2 14.1591 184.344 14.1591ZM184.344 12.9091C185.192 12.9091 185.851 12.5 186.321 11.6818C186.791 10.8636 187.026 9.69697 187.026 8.18182C187.026 7.17424 186.918 6.31629 186.702 5.60795C186.49 4.89962 186.183 4.35985 185.781 3.98864C185.384 3.61742 184.904 3.43182 184.344 3.43182C183.503 3.43182 182.846 3.84659 182.372 4.67614C181.899 5.50189 181.662 6.67045 181.662 8.18182C181.662 9.18939 181.768 10.0455 181.98 10.75C182.192 11.4545 182.497 11.9905 182.895 12.358C183.296 12.7254 183.779 12.9091 184.344 12.9091ZM189.548 14V12.9773L193.389 8.77273C193.84 8.2803 194.211 7.85227 194.503 7.48864C194.795 7.12121 195.01 6.77652 195.151 6.45455C195.295 6.12879 195.366 5.78788 195.366 5.43182C195.366 5.02273 195.268 4.66856 195.071 4.36932C194.878 4.07008 194.613 3.83901 194.276 3.67614C193.938 3.51326 193.56 3.43182 193.139 3.43182C192.692 3.43182 192.302 3.52462 191.969 3.71023C191.639 3.89205 191.384 4.14773 191.202 4.47727C191.024 4.80682 190.935 5.19318 190.935 5.63636H189.594C189.594 4.95455 189.751 4.35606 190.065 3.84091C190.38 3.32576 190.808 2.92424 191.349 2.63636C191.895 2.34848 192.507 2.20455 193.185 2.20455C193.866 2.20455 194.471 2.34848 194.997 2.63636C195.524 2.92424 195.937 3.3125 196.236 3.80114C196.535 4.28977 196.685 4.83333 196.685 5.43182C196.685 5.85985 196.607 6.27841 196.452 6.6875C196.3 7.0928 196.035 7.54545 195.656 8.04545C195.281 8.54167 194.76 9.14773 194.094 9.86364L191.48 12.6591V12.75H196.889V14H189.548ZM201.872 14.1591C201.205 14.1591 200.605 14.0265 200.071 13.7614C199.537 13.4962 199.109 13.1326 198.787 12.6705C198.465 12.2083 198.289 11.6818 198.259 11.0909H199.622C199.675 11.6174 199.914 12.053 200.338 12.3977C200.766 12.7386 201.277 12.9091 201.872 12.9091C202.349 12.9091 202.774 12.7973 203.145 12.5739C203.52 12.3504 203.813 12.0436 204.026 11.6534C204.241 11.2595 204.349 10.8144 204.349 10.3182C204.349 9.81061 204.238 9.35795 204.014 8.96023C203.795 8.55871 203.491 8.24242 203.105 8.01136C202.719 7.7803 202.277 7.66288 201.781 7.65909C201.425 7.6553 201.06 7.71023 200.685 7.82386C200.31 7.93371 200.001 8.07576 199.759 8.25L198.44 8.09091L199.145 2.36364H205.19V3.61364H200.327L199.918 7.04545H199.986C200.224 6.85606 200.524 6.69886 200.884 6.57386C201.243 6.44886 201.618 6.38636 202.009 6.38636C202.721 6.38636 203.355 6.55682 203.912 6.89773C204.473 7.23485 204.912 7.69697 205.23 8.28409C205.552 8.87121 205.713 9.54167 205.713 10.2955C205.713 11.0379 205.546 11.7008 205.213 12.2841C204.884 12.8636 204.429 13.322 203.849 13.6591C203.27 13.9924 202.611 14.1591 201.872 14.1591Z" fill="#364153"/>
</svg>
