<svg width="92" height="92" viewBox="0 0 92 92" fill="none" xmlns="http://www.w3.org/2000/svg">
<g opacity="0.07">
<path d="M38.334 56.1967V62.4297C38.3195 63.7431 37.9678 65.0307 37.3127 66.1692C36.6576 67.3076 35.721 68.2586 34.5927 68.931C32.1974 70.7051 30.2489 73.0135 28.902 75.6726C27.5552 78.3317 26.8471 81.2683 26.834 84.249" stroke="#737373" stroke-width="7.66667" stroke-linecap="round" stroke-linejoin="round"/>
<path d="M53.666 56.1967V62.4297C53.6805 63.7431 54.0322 65.0307 54.6873 66.1692C55.3424 67.3076 56.279 68.2586 57.4073 68.931C59.8026 70.7051 61.7511 73.0135 63.098 75.6726C64.4448 78.3317 65.1529 81.2683 65.166 84.249" stroke="#737373" stroke-width="7.66667" stroke-linecap="round" stroke-linejoin="round"/>
<path d="M69 34.5H74.75C77.2917 34.5 79.7292 33.4903 81.5264 31.6931C83.3237 29.8959 84.3333 27.4583 84.3333 24.9167C84.3333 22.375 83.3237 19.9375 81.5264 18.1402C79.7292 16.343 77.2917 15.3333 74.75 15.3333H69" stroke="#737373" stroke-width="7.66667" stroke-linecap="round" stroke-linejoin="round"/>
<path d="M15.334 84.3333H76.6673" stroke="#737373" stroke-width="7.66667" stroke-linecap="round" stroke-linejoin="round"/>
<path d="M23 34.5C23 40.6 25.4232 46.4501 29.7365 50.7634C34.0499 55.0768 39.9 57.5 46 57.5C52.1 57.5 57.9501 55.0768 62.2635 50.7634C66.5768 46.4501 69 40.6 69 34.5V11.5C69 10.4833 68.5961 9.5083 67.8773 8.78941C67.1584 8.07052 66.1833 7.66666 65.1667 7.66666H26.8333C25.8167 7.66666 24.8416 8.07052 24.1228 8.78941C23.4039 9.5083 23 10.4833 23 11.5V34.5Z" stroke="#737373" stroke-width="7.66667" stroke-linecap="round" stroke-linejoin="round"/>
<path d="M22.9993 34.5H17.2493C14.7077 34.5 12.2701 33.4903 10.4729 31.6931C8.67569 29.8959 7.66602 27.4583 7.66602 24.9167C7.66602 22.375 8.67569 19.9375 10.4729 18.1402C12.2701 16.343 14.7077 15.3333 17.2493 15.3333H22.9993" stroke="#737373" stroke-width="7.66667" stroke-linecap="round" stroke-linejoin="round"/>
</g>
</svg>
