<svg width="91" height="18" viewBox="0 0 91 18" fill="none" xmlns="http://www.w3.org/2000/svg">
<path d="M12.6673 14V12.6667C12.6673 11.9594 12.3864 11.2811 11.8863 10.781C11.3862 10.281 10.7079 10 10.0007 10H6.00065C5.29341 10 4.61513 10.281 4.11503 10.781C3.61494 11.2811 3.33398 11.9594 3.33398 12.6667V14" stroke="#8D191C" stroke-width="1.33333" stroke-linecap="round" stroke-linejoin="round"/>
<path d="M8.00065 7.33333C9.47341 7.33333 10.6673 6.13943 10.6673 4.66667C10.6673 3.19391 9.47341 2 8.00065 2C6.52789 2 5.33398 3.19391 5.33398 4.66667C5.33398 6.13943 6.52789 7.33333 8.00065 7.33333Z" stroke="#8D191C" stroke-width="1.33333" stroke-linecap="round" stroke-linejoin="round"/>
<path d="M31.7727 5.27273C31.7045 4.69697 31.428 4.25 30.9432 3.93182C30.4583 3.61364 29.8636 3.45455 29.1591 3.45455C28.6439 3.45455 28.1932 3.53788 27.8068 3.70455C27.4242 3.87121 27.125 4.10038 26.9091 4.39205C26.697 4.68371 26.5909 5.01515 26.5909 5.38636C26.5909 5.69697 26.6648 5.96401 26.8125 6.1875C26.964 6.4072 27.1572 6.59091 27.392 6.73864C27.6269 6.88258 27.8731 7.00189 28.1307 7.09659C28.3883 7.1875 28.625 7.26136 28.8409 7.31818L30.0227 7.63636C30.3258 7.71591 30.6629 7.82576 31.0341 7.96591C31.4091 8.10606 31.767 8.29735 32.108 8.53977C32.4527 8.77841 32.7367 9.08523 32.9602 9.46023C33.1837 9.83523 33.2955 10.2955 33.2955 10.8409C33.2955 11.4697 33.1307 12.0379 32.8011 12.5455C32.4754 13.053 31.9981 13.4564 31.3693 13.7557C30.7443 14.0549 29.9848 14.2045 29.0909 14.2045C28.2576 14.2045 27.536 14.0701 26.9261 13.8011C26.3201 13.5322 25.8428 13.1572 25.4943 12.6761C25.1496 12.1951 24.9545 11.6364 24.9091 11H26.3636C26.4015 11.4394 26.5492 11.803 26.8068 12.0909C27.0682 12.375 27.3977 12.5871 27.7955 12.7273C28.197 12.8636 28.6288 12.9318 29.0909 12.9318C29.6288 12.9318 30.1117 12.8447 30.5398 12.6705C30.9678 12.4924 31.3068 12.2462 31.5568 11.9318C31.8068 11.6136 31.9318 11.2424 31.9318 10.8182C31.9318 10.4318 31.8239 10.1174 31.608 9.875C31.392 9.63258 31.108 9.43561 30.7557 9.28409C30.4034 9.13258 30.0227 9 29.6136 8.88636L28.1818 8.47727C27.2727 8.21591 26.553 7.8428 26.0227 7.35795C25.4924 6.87311 25.2273 6.23864 25.2273 5.45455C25.2273 4.80303 25.4034 4.23485 25.7557 3.75C26.1117 3.26136 26.589 2.88258 27.1875 2.61364C27.7898 2.34091 28.4621 2.20455 29.2045 2.20455C29.9545 2.20455 30.6212 2.33901 31.2045 2.60795C31.7879 2.87311 32.25 3.23674 32.5909 3.69886C32.9356 4.16098 33.1174 4.68561 33.1364 5.27273H31.7727ZM35.4077 14.0909C35.1274 14.0909 34.8868 13.9905 34.6861 13.7898C34.4853 13.589 34.3849 13.3485 34.3849 13.0682C34.3849 12.7879 34.4853 12.5473 34.6861 12.3466C34.8868 12.1458 35.1274 12.0455 35.4077 12.0455C35.688 12.0455 35.9285 12.1458 36.1293 12.3466C36.33 12.5473 36.4304 12.7879 36.4304 13.0682C36.4304 13.2538 36.383 13.4242 36.2884 13.5795C36.1974 13.7348 36.0743 13.8598 35.919 13.9545C35.7675 14.0455 35.5971 14.0909 35.4077 14.0909ZM47.8821 5.27273C47.8139 4.69697 47.5374 4.25 47.0526 3.93182C46.5677 3.61364 45.973 3.45455 45.2685 3.45455C44.7533 3.45455 44.3026 3.53788 43.9162 3.70455C43.5336 3.87121 43.2344 4.10038 43.0185 4.39205C42.8063 4.68371 42.7003 5.01515 42.7003 5.38636C42.7003 5.69697 42.7741 5.96401 42.9219 6.1875C43.0734 6.4072 43.2666 6.59091 43.5014 6.73864C43.7363 6.88258 43.9825 7.00189 44.2401 7.09659C44.4976 7.1875 44.7344 7.26136 44.9503 7.31818L46.1321 7.63636C46.4351 7.71591 46.7723 7.82576 47.1435 7.96591C47.5185 8.10606 47.8764 8.29735 48.2173 8.53977C48.562 8.77841 48.8461 9.08523 49.0696 9.46023C49.2931 9.83523 49.4048 10.2955 49.4048 10.8409C49.4048 11.4697 49.2401 12.0379 48.9105 12.5455C48.5848 13.053 48.1075 13.4564 47.4787 13.7557C46.8537 14.0549 46.0942 14.2045 45.2003 14.2045C44.367 14.2045 43.6454 14.0701 43.0355 13.8011C42.4295 13.5322 41.9522 13.1572 41.6037 12.6761C41.259 12.1951 41.0639 11.6364 41.0185 11H42.473C42.5109 11.4394 42.6586 11.803 42.9162 12.0909C43.1776 12.375 43.5071 12.5871 43.9048 12.7273C44.3063 12.8636 44.7382 12.9318 45.2003 12.9318C45.7382 12.9318 46.2211 12.8447 46.6491 12.6705C47.0772 12.4924 47.4162 12.2462 47.6662 11.9318C47.9162 11.6136 48.0412 11.2424 48.0412 10.8182C48.0412 10.4318 47.9332 10.1174 47.7173 9.875C47.5014 9.63258 47.2173 9.43561 46.8651 9.28409C46.5128 9.13258 46.1321 9 45.723 8.88636L44.2912 8.47727C43.3821 8.21591 42.6624 7.8428 42.1321 7.35795C41.6018 6.87311 41.3366 6.23864 41.3366 5.45455C41.3366 4.80303 41.5128 4.23485 41.8651 3.75C42.2211 3.26136 42.6984 2.88258 43.2969 2.61364C43.8991 2.34091 44.5715 2.20455 45.3139 2.20455C46.0639 2.20455 46.7306 2.33901 47.3139 2.60795C47.8973 2.87311 48.3594 3.23674 48.7003 3.69886C49.045 4.16098 49.2268 4.68561 49.2457 5.27273H47.8821ZM53.108 14.2045C52.5549 14.2045 52.053 14.1004 51.6023 13.892C51.1515 13.6799 50.7936 13.375 50.5284 12.9773C50.2633 12.5758 50.1307 12.0909 50.1307 11.5227C50.1307 11.0227 50.2292 10.6174 50.4261 10.3068C50.6231 9.99242 50.8864 9.74621 51.2159 9.56818C51.5455 9.39015 51.9091 9.25758 52.3068 9.17045C52.7083 9.07955 53.1117 9.00758 53.517 8.95455C54.0473 8.88636 54.4773 8.83523 54.8068 8.80114C55.1402 8.76326 55.3826 8.70076 55.5341 8.61364C55.6894 8.52652 55.767 8.375 55.767 8.15909V8.11364C55.767 7.55303 55.6136 7.11742 55.3068 6.80682C55.0038 6.49621 54.5436 6.34091 53.9261 6.34091C53.286 6.34091 52.7841 6.48106 52.4205 6.76136C52.0568 7.04167 51.8011 7.34091 51.6534 7.65909L50.3807 7.20455C50.608 6.67424 50.911 6.26136 51.2898 5.96591C51.6723 5.66667 52.089 5.45833 52.5398 5.34091C52.9943 5.2197 53.4413 5.15909 53.8807 5.15909C54.161 5.15909 54.483 5.19318 54.8466 5.26136C55.214 5.32576 55.5682 5.46023 55.9091 5.66477C56.2538 5.86932 56.5398 6.17803 56.767 6.59091C56.9943 7.00379 57.108 7.55682 57.108 8.25V14H55.767V12.8182H55.6989C55.608 13.0076 55.4564 13.2102 55.2443 13.4261C55.0322 13.642 54.75 13.8258 54.3977 13.9773C54.0455 14.1288 53.6155 14.2045 53.108 14.2045ZM53.3125 13C53.8428 13 54.2898 12.8958 54.6534 12.6875C55.0208 12.4792 55.2973 12.2102 55.483 11.8807C55.6723 11.5511 55.767 11.2045 55.767 10.8409V9.61364C55.7102 9.68182 55.5852 9.74432 55.392 9.80114C55.2027 9.85417 54.983 9.90151 54.733 9.94318C54.4867 9.98106 54.2462 10.0152 54.0114 10.0455C53.7803 10.072 53.5928 10.0947 53.4489 10.1136C53.1004 10.1591 52.7746 10.233 52.4716 10.3352C52.1723 10.4337 51.9299 10.5833 51.7443 10.7841C51.5625 10.9811 51.4716 11.25 51.4716 11.5909C51.4716 12.0568 51.6439 12.4091 51.9886 12.6477C52.3371 12.8826 52.7784 13 53.3125 13ZM62.3509 5.27273V6.40909H57.8281V5.27273H62.3509ZM59.1463 3.18182H60.4872V11.5C60.4872 11.8788 60.5421 12.1629 60.652 12.3523C60.7656 12.5379 60.9096 12.6629 61.0838 12.7273C61.2618 12.7879 61.4493 12.8182 61.6463 12.8182C61.794 12.8182 61.9152 12.8106 62.0099 12.7955C62.1046 12.7765 62.1804 12.7614 62.2372 12.75L62.5099 13.9545C62.419 13.9886 62.2921 14.0227 62.1293 14.0568C61.9664 14.0947 61.7599 14.1136 61.5099 14.1136C61.1312 14.1136 60.7599 14.0322 60.3963 13.8693C60.0365 13.7064 59.7372 13.4583 59.4986 13.125C59.2637 12.7917 59.1463 12.3712 59.1463 11.8636V3.18182ZM64.8963 8.75V14H63.5554V2.36364H64.8963V6.63636H65.0099C65.2145 6.18561 65.5213 5.82765 65.9304 5.5625C66.3433 5.29356 66.8925 5.15909 67.5781 5.15909C68.1728 5.15909 68.6937 5.27841 69.1406 5.51705C69.5876 5.75189 69.9342 6.11364 70.1804 6.60227C70.4304 7.08712 70.5554 7.70455 70.5554 8.45455V14H69.2145V8.54545C69.2145 7.85227 69.0346 7.31629 68.6747 6.9375C68.3187 6.55492 67.8243 6.36364 67.1918 6.36364C66.7524 6.36364 66.3584 6.45644 66.0099 6.64205C65.6652 6.82765 65.3925 7.09848 65.1918 7.45455C64.9948 7.81061 64.8963 8.24242 64.8963 8.75ZM72.0085 14V5.27273H73.3494V14H72.0085ZM72.6903 3.81818C72.429 3.81818 72.2036 3.72917 72.0142 3.55114C71.8286 3.37311 71.7358 3.15909 71.7358 2.90909C71.7358 2.65909 71.8286 2.44508 72.0142 2.26705C72.2036 2.08902 72.429 2 72.6903 2C72.9517 2 73.1752 2.08902 73.3608 2.26705C73.5502 2.44508 73.6449 2.65909 73.6449 2.90909C73.6449 3.15909 73.5502 3.37311 73.3608 3.55114C73.1752 3.72917 72.9517 3.81818 72.6903 3.81818ZM75.669 17.2727C75.4418 17.2727 75.2391 17.2538 75.0611 17.2159C74.883 17.1818 74.7599 17.1477 74.6918 17.1136L75.0327 15.9318C75.3584 16.0152 75.6463 16.0455 75.8963 16.0227C76.1463 16 76.3679 15.8883 76.5611 15.6875C76.758 15.4905 76.938 15.1705 77.1009 14.7273L77.3509 14.0455L74.1236 5.27273H75.5781L77.9872 12.2273H78.0781L80.4872 5.27273H81.9418L78.2372 15.2727C78.0705 15.7235 77.8641 16.0966 77.6179 16.392C77.3717 16.6913 77.0857 16.9129 76.7599 17.0568C76.438 17.2008 76.0743 17.2727 75.669 17.2727ZM85.0142 14.2045C84.4612 14.2045 83.9593 14.1004 83.5085 13.892C83.0578 13.6799 82.6998 13.375 82.4347 12.9773C82.1695 12.5758 82.0369 12.0909 82.0369 11.5227C82.0369 11.0227 82.1354 10.6174 82.3324 10.3068C82.5294 9.99242 82.7926 9.74621 83.1222 9.56818C83.4517 9.39015 83.8153 9.25758 84.2131 9.17045C84.6146 9.07955 85.018 9.00758 85.4233 8.95455C85.9536 8.88636 86.3835 8.83523 86.7131 8.80114C87.0464 8.76326 87.2888 8.70076 87.4403 8.61364C87.5956 8.52652 87.6733 8.375 87.6733 8.15909V8.11364C87.6733 7.55303 87.5199 7.11742 87.2131 6.80682C86.91 6.49621 86.4498 6.34091 85.8324 6.34091C85.1922 6.34091 84.6903 6.48106 84.3267 6.76136C83.9631 7.04167 83.7074 7.34091 83.5597 7.65909L82.2869 7.20455C82.5142 6.67424 82.8172 6.26136 83.196 5.96591C83.5786 5.66667 83.9953 5.45833 84.446 5.34091C84.9006 5.2197 85.3475 5.15909 85.7869 5.15909C86.0672 5.15909 86.3892 5.19318 86.7528 5.26136C87.1203 5.32576 87.4744 5.46023 87.8153 5.66477C88.16 5.86932 88.446 6.17803 88.6733 6.59091C88.9006 7.00379 89.0142 7.55682 89.0142 8.25V14H87.6733V12.8182H87.6051C87.5142 13.0076 87.3627 13.2102 87.1506 13.4261C86.9384 13.642 86.6563 13.8258 86.304 13.9773C85.9517 14.1288 85.5218 14.2045 85.0142 14.2045ZM85.2188 13C85.7491 13 86.196 12.8958 86.5597 12.6875C86.9271 12.4792 87.2036 12.2102 87.3892 11.8807C87.5786 11.5511 87.6733 11.2045 87.6733 10.8409V9.61364C87.6165 9.68182 87.4915 9.74432 87.2983 9.80114C87.1089 9.85417 86.8892 9.90151 86.6392 9.94318C86.393 9.98106 86.1525 10.0152 85.9176 10.0455C85.6866 10.072 85.4991 10.0947 85.3551 10.1136C85.0066 10.1591 84.6809 10.233 84.3778 10.3352C84.0786 10.4337 83.8362 10.5833 83.6506 10.7841C83.4688 10.9811 83.3778 11.25 83.3778 11.5909C83.3778 12.0568 83.5502 12.4091 83.8949 12.6477C84.2434 12.8826 84.6847 13 85.2188 13Z" fill="#364153"/>
</svg>
