<svg width="51" height="16" viewBox="0 0 51 16" fill="none" xmlns="http://www.w3.org/2000/svg">
<path d="M10.3178 8.59335L11.3278 14.2774C11.3391 14.3443 11.3298 14.4131 11.3009 14.4745C11.2721 14.536 11.2252 14.5872 11.1665 14.6212C11.1077 14.6553 11.04 14.6706 10.9724 14.6652C10.9047 14.6597 10.8403 14.6337 10.7878 14.5907L8.40117 12.7994C8.28595 12.7133 8.14599 12.6668 8.00217 12.6668C7.85835 12.6668 7.71838 12.7133 7.60317 12.7994L5.2125 14.59C5.16005 14.633 5.09574 14.6589 5.02816 14.6644C4.96059 14.6698 4.89295 14.6546 4.83428 14.6206C4.7756 14.5866 4.72868 14.5356 4.69978 14.4742C4.67088 14.4129 4.66136 14.3442 4.6725 14.2774L5.68183 8.59335" stroke="#8D191C" stroke-width="1.33333" stroke-linecap="round" stroke-linejoin="round"/>
<path d="M8 9.33334C10.2091 9.33334 12 7.54248 12 5.33334C12 3.1242 10.2091 1.33334 8 1.33334C5.79086 1.33334 4 3.1242 4 5.33334C4 7.54248 5.79086 9.33334 8 9.33334Z" stroke="#8D191C" stroke-width="1.33333" stroke-linecap="round" stroke-linejoin="round"/>
<path d="M25.4091 14V2.36364H26.8182V12.75H32.2273V14H25.4091ZM33.4091 14V2.36364H34.8182V12.75H40.2273V14H33.4091ZM41.4091 14V2.36364H45.4773C46.2879 2.36364 46.9564 2.50379 47.483 2.78409C48.0095 3.06061 48.4015 3.43371 48.6591 3.90341C48.9167 4.36932 49.0455 4.88636 49.0455 5.45455C49.0455 5.95455 48.9564 6.36742 48.7784 6.69318C48.6042 7.01894 48.3731 7.27652 48.0852 7.46591C47.8011 7.6553 47.4924 7.79545 47.1591 7.88636V8C47.5152 8.02273 47.8731 8.14773 48.233 8.375C48.5928 8.60227 48.8939 8.92803 49.1364 9.35227C49.3788 9.77651 49.5 10.2955 49.5 10.9091C49.5 11.4924 49.3674 12.017 49.1023 12.483C48.8371 12.9489 48.4186 13.3182 47.8466 13.5909C47.2746 13.8636 46.5303 14 45.6136 14H41.4091ZM42.8182 12.75H45.6136C46.5341 12.75 47.1875 12.572 47.5739 12.2159C47.964 11.8561 48.1591 11.4205 48.1591 10.9091C48.1591 10.5152 48.0587 10.1515 47.858 9.81818C47.6572 9.48106 47.3712 9.21212 47 9.01136C46.6288 8.80682 46.1894 8.70455 45.6818 8.70455H42.8182V12.75ZM42.8182 7.47727H45.4318C45.8561 7.47727 46.2386 7.39394 46.5795 7.22727C46.9242 7.06061 47.197 6.82576 47.3977 6.52273C47.6023 6.2197 47.7045 5.86364 47.7045 5.45455C47.7045 4.94318 47.5265 4.50947 47.1705 4.15341C46.8144 3.79356 46.25 3.61364 45.4773 3.61364H42.8182V7.47727Z" fill="#364153"/>
</svg>
