<svg width="128" height="24" viewBox="0 0 128 24" fill="none" xmlns="http://www.w3.org/2000/svg">
<path d="M5.00065 20.3333C4.55862 20.3333 4.1347 20.1577 3.82214 19.8452C3.50958 19.5326 3.33398 19.1087 3.33398 18.6667V5.33334C3.33398 4.89131 3.50958 4.46739 3.82214 4.15483C4.1347 3.84227 4.55862 3.66667 5.00065 3.66667H11.6673C11.9311 3.66625 12.1924 3.71801 12.4361 3.81898C12.6798 3.91995 12.9011 4.06814 13.0873 4.25501L16.0773 7.24501C16.2647 7.43126 16.4133 7.6528 16.5146 7.89681C16.6158 8.14082 16.6677 8.40248 16.6673 8.66667V18.6667C16.6673 19.1087 16.4917 19.5326 16.1792 19.8452C15.8666 20.1577 15.4427 20.3333 15.0007 20.3333H5.00065Z" stroke="#D4D4D4" stroke-width="1.66667" stroke-linecap="round" stroke-linejoin="round"/>
<path d="M11.666 3.66667V7.83334C11.666 8.05435 11.7538 8.26631 11.9101 8.42259C12.0664 8.57887 12.2783 8.66667 12.4993 8.66667H16.666" stroke="#D4D4D4" stroke-width="1.66667" stroke-linecap="round" stroke-linejoin="round"/>
<path d="M8.33268 9.5H6.66602" stroke="#D4D4D4" stroke-width="1.66667" stroke-linecap="round" stroke-linejoin="round"/>
<path d="M13.3327 12.8333H6.66602" stroke="#D4D4D4" stroke-width="1.66667" stroke-linecap="round" stroke-linejoin="round"/>
<path d="M13.3327 16.1667H6.66602" stroke="#D4D4D4" stroke-width="1.66667" stroke-linecap="round" stroke-linejoin="round"/>
<path d="M28.9318 15.6136V14.4545L34.0455 6.36364H34.8864V8.15909H34.3182L30.4545 14.2727V14.3636H37.3409V15.6136H28.9318ZM34.4091 18V15.2614V14.7216V6.36364H35.75V18H34.4091ZM43.1056 18.1591C42.2496 18.1591 41.5204 17.9261 40.9181 17.4602C40.3159 16.9905 39.8556 16.3106 39.5374 15.4205C39.2193 14.5265 39.0602 13.447 39.0602 12.1818C39.0602 10.9242 39.2193 9.85038 39.5374 8.96023C39.8594 8.06629 40.3215 7.38447 40.9238 6.91477C41.5299 6.44129 42.2571 6.20455 43.1056 6.20455C43.9541 6.20455 44.6795 6.44129 45.2818 6.91477C45.8878 7.38447 46.3499 8.06629 46.6681 8.96023C46.9901 9.85038 47.1511 10.9242 47.1511 12.1818C47.1511 13.447 46.992 14.5265 46.6738 15.4205C46.3556 16.3106 45.8954 16.9905 45.2931 17.4602C44.6909 17.9261 43.9617 18.1591 43.1056 18.1591ZM43.1056 16.9091C43.9541 16.9091 44.6132 16.5 45.0829 15.6818C45.5526 14.8636 45.7874 13.697 45.7874 12.1818C45.7874 11.1742 45.6795 10.3163 45.4636 9.60795C45.2515 8.89962 44.9446 8.35985 44.5431 7.98864C44.1454 7.61742 43.6662 7.43182 43.1056 7.43182C42.2647 7.43182 41.6075 7.84659 41.134 8.67614C40.6605 9.50189 40.4238 10.6705 40.4238 12.1818C40.4238 13.1894 40.5299 14.0455 40.742 14.75C40.9541 15.4545 41.259 15.9905 41.6568 16.358C42.0583 16.7254 42.5412 16.9091 43.1056 16.9091ZM57.922 14.3636H59.4674L60.7629 16.0682L61.1038 16.5227L63.0356 19.0909H61.4902L60.2174 17.3864L59.8993 16.9545L57.922 14.3636ZM63.5129 12.1818C63.5129 13.4091 63.2913 14.4697 62.8481 15.3636C62.4049 16.2576 61.797 16.947 61.0243 17.4318C60.2515 17.9167 59.369 18.1591 58.3765 18.1591C57.3841 18.1591 56.5015 17.9167 55.7288 17.4318C54.9561 16.947 54.3481 16.2576 53.9049 15.3636C53.4618 14.4697 53.2402 13.4091 53.2402 12.1818C53.2402 10.9545 53.4618 9.89394 53.9049 9C54.3481 8.10606 54.9561 7.41667 55.7288 6.93182C56.5015 6.44697 57.3841 6.20455 58.3765 6.20455C59.369 6.20455 60.2515 6.44697 61.0243 6.93182C61.797 7.41667 62.4049 8.10606 62.8481 9C63.2913 9.89394 63.5129 10.9545 63.5129 12.1818ZM62.1493 12.1818C62.1493 11.1742 61.9807 10.3239 61.6436 9.63068C61.3102 8.9375 60.8576 8.41288 60.2856 8.05682C59.7174 7.70076 59.0811 7.52273 58.3765 7.52273C57.672 7.52273 57.0337 7.70076 56.4618 8.05682C55.8936 8.41288 55.4409 8.9375 55.1038 9.63068C54.7705 10.3239 54.6038 11.1742 54.6038 12.1818C54.6038 13.1894 54.7705 14.0398 55.1038 14.733C55.4409 15.4261 55.8936 15.9508 56.4618 16.3068C57.0337 16.6629 57.672 16.8409 58.3765 16.8409C59.0811 16.8409 59.7174 16.6629 60.2856 16.3068C60.8576 15.9508 61.3102 15.4261 61.6436 14.733C61.9807 14.0398 62.1493 13.1894 62.1493 12.1818ZM71.0404 14.4318V9.27273H72.3813V18H71.0404V16.5227H70.9495C70.7449 16.9659 70.4268 17.3428 69.9949 17.6534C69.5631 17.9602 69.0177 18.1136 68.3586 18.1136C67.8131 18.1136 67.3283 17.9943 66.904 17.7557C66.4798 17.5133 66.1465 17.1496 65.904 16.6648C65.6616 16.1761 65.5404 15.5606 65.5404 14.8182V9.27273H66.8813V14.7273C66.8813 15.3636 67.0593 15.8712 67.4154 16.25C67.7752 16.6288 68.2336 16.8182 68.7904 16.8182C69.1237 16.8182 69.4627 16.733 69.8074 16.5625C70.1559 16.392 70.4476 16.1307 70.6824 15.7784C70.9211 15.4261 71.0404 14.9773 71.0404 14.4318ZM78.3364 18.1818C77.4955 18.1818 76.7701 17.9962 76.1602 17.625C75.5542 17.25 75.0864 16.7273 74.7568 16.0568C74.4311 15.3826 74.2682 14.5985 74.2682 13.7045C74.2682 12.8106 74.4311 12.0227 74.7568 11.3409C75.0864 10.6553 75.5447 10.1212 76.1318 9.73864C76.7227 9.35227 77.4121 9.15909 78.2 9.15909C78.6545 9.15909 79.1034 9.23485 79.5466 9.38636C79.9898 9.53788 80.3932 9.78409 80.7568 10.125C81.1205 10.4621 81.4102 10.9091 81.6261 11.4659C81.842 12.0227 81.95 12.7083 81.95 13.5227V14.0909H75.2227V12.9318H80.5864C80.5864 12.4394 80.4879 12 80.2909 11.6136C80.0977 11.2273 79.8212 10.9223 79.4614 10.6989C79.1053 10.4754 78.6848 10.3636 78.2 10.3636C77.6659 10.3636 77.2038 10.4962 76.8136 10.7614C76.4273 11.0227 76.1299 11.3636 75.9216 11.7841C75.7133 12.2045 75.6091 12.6553 75.6091 13.1364V13.9091C75.6091 14.5682 75.7227 15.1269 75.95 15.5852C76.1811 16.0398 76.5011 16.3864 76.9102 16.625C77.3193 16.8598 77.7947 16.9773 78.3364 16.9773C78.6886 16.9773 79.0068 16.928 79.2909 16.8295C79.5788 16.7273 79.8269 16.5758 80.0352 16.375C80.2436 16.1705 80.4045 15.9167 80.5182 15.6136L81.8136 15.9773C81.6773 16.4167 81.4481 16.803 81.1261 17.1364C80.8042 17.4659 80.4064 17.7235 79.933 17.9091C79.4595 18.0909 78.9273 18.1818 78.3364 18.1818ZM90.0116 11.2273L88.807 11.5682C88.7313 11.3674 88.6195 11.1723 88.4718 10.983C88.3279 10.7898 88.1309 10.6307 87.8809 10.5057C87.6309 10.3807 87.3108 10.3182 86.9207 10.3182C86.3866 10.3182 85.9415 10.4413 85.5855 10.6875C85.2332 10.9299 85.057 11.2386 85.057 11.6136C85.057 11.947 85.1783 12.2102 85.4207 12.4034C85.6631 12.5966 86.0419 12.7576 86.557 12.8864L87.8525 13.2045C88.6328 13.3939 89.2142 13.6837 89.5968 14.0739C89.9794 14.4602 90.1707 14.9583 90.1707 15.5682C90.1707 16.0682 90.0267 16.5152 89.7389 16.9091C89.4548 17.303 89.057 17.6136 88.5457 17.8409C88.0343 18.0682 87.4396 18.1818 86.7616 18.1818C85.8714 18.1818 85.1347 17.9886 84.5514 17.6023C83.968 17.2159 83.5987 16.6515 83.4434 15.9091L84.7161 15.5909C84.8373 16.0606 85.0665 16.4129 85.4036 16.6477C85.7445 16.8826 86.1896 17 86.7389 17C87.3639 17 87.8601 16.8674 88.2275 16.6023C88.5987 16.3333 88.7843 16.0114 88.7843 15.6364C88.7843 15.3333 88.6783 15.0795 88.4661 14.875C88.254 14.6667 87.9283 14.5114 87.4889 14.4091L86.0343 14.0682C85.2351 13.8788 84.648 13.5852 84.273 13.1875C83.9017 12.786 83.7161 12.2841 83.7161 11.6818C83.7161 11.1894 83.8544 10.7538 84.1309 10.375C84.4112 9.99621 84.7919 9.69886 85.273 9.48295C85.7578 9.26705 86.307 9.15909 86.9207 9.15909C87.7843 9.15909 88.4623 9.34848 88.9548 9.72727C89.451 10.1061 89.8033 10.6061 90.0116 11.2273ZM95.8246 9.27273V10.4091H91.3019V9.27273H95.8246ZM92.6201 7.18182H93.961V15.5C93.961 15.8788 94.0159 16.1629 94.1257 16.3523C94.2394 16.5379 94.3833 16.6629 94.5576 16.7273C94.7356 16.7879 94.9231 16.8182 95.1201 16.8182C95.2678 16.8182 95.389 16.8106 95.4837 16.7955C95.5784 16.7765 95.6541 16.7614 95.711 16.75L95.9837 17.9545C95.8928 17.9886 95.7659 18.0227 95.603 18.0568C95.4401 18.0947 95.2337 18.1136 94.9837 18.1136C94.6049 18.1136 94.2337 18.0322 93.8701 17.8693C93.5102 17.7064 93.211 17.4583 92.9723 17.125C92.7375 16.7917 92.6201 16.3712 92.6201 15.8636V7.18182ZM97.6816 18V9.27273H99.0226V18H97.6816ZM98.3635 7.81818C98.1021 7.81818 97.8767 7.72917 97.6873 7.55114C97.5017 7.37311 97.4089 7.15909 97.4089 6.90909C97.4089 6.65909 97.5017 6.44508 97.6873 6.26705C97.8767 6.08902 98.1021 6 98.3635 6C98.6248 6 98.8483 6.08902 99.0339 6.26705C99.2233 6.44508 99.318 6.65909 99.318 6.90909C99.318 7.15909 99.2233 7.37311 99.0339 7.55114C98.8483 7.72917 98.6248 7.81818 98.3635 7.81818ZM104.864 18.1818C104.076 18.1818 103.385 17.9943 102.79 17.6193C102.199 17.2443 101.737 16.7197 101.404 16.0455C101.074 15.3712 100.909 14.5833 100.909 13.6818C100.909 12.7727 101.074 11.9792 101.404 11.3011C101.737 10.6231 102.199 10.0966 102.79 9.72159C103.385 9.34659 104.076 9.15909 104.864 9.15909C105.652 9.15909 106.341 9.34659 106.932 9.72159C107.527 10.0966 107.989 10.6231 108.319 11.3011C108.652 11.9792 108.819 12.7727 108.819 13.6818C108.819 14.5833 108.652 15.3712 108.319 16.0455C107.989 16.7197 107.527 17.2443 106.932 17.6193C106.341 17.9943 105.652 18.1818 104.864 18.1818ZM104.864 16.9773C105.462 16.9773 105.955 16.8239 106.341 16.517C106.728 16.2102 107.014 15.8068 107.199 15.3068C107.385 14.8068 107.478 14.2652 107.478 13.6818C107.478 13.0985 107.385 12.5549 107.199 12.0511C107.014 11.5473 106.728 11.1402 106.341 10.8295C105.955 10.5189 105.462 10.3636 104.864 10.3636C104.265 10.3636 103.773 10.5189 103.387 10.8295C103 11.1402 102.714 11.5473 102.529 12.0511C102.343 12.5549 102.25 13.0985 102.25 13.6818C102.25 14.2652 102.343 14.8068 102.529 15.3068C102.714 15.8068 103 16.2102 103.387 16.517C103.773 16.8239 104.265 16.9773 104.864 16.9773ZM112.046 12.75V18H110.705V9.27273H112.001V10.6364H112.114C112.319 10.1932 112.63 9.83712 113.046 9.56818C113.463 9.29545 114.001 9.15909 114.66 9.15909C115.251 9.15909 115.768 9.2803 116.211 9.52273C116.654 9.76136 116.999 10.125 117.245 10.6136C117.491 11.0985 117.614 11.7121 117.614 12.4545V18H116.274V12.5455C116.274 11.8598 116.096 11.3258 115.739 10.9432C115.383 10.5568 114.895 10.3636 114.274 10.3636C113.846 10.3636 113.463 10.4564 113.126 10.642C112.793 10.8277 112.529 11.0985 112.336 11.4545C112.143 11.8106 112.046 12.2424 112.046 12.75ZM126.087 11.2273L124.882 11.5682C124.806 11.3674 124.695 11.1723 124.547 10.983C124.403 10.7898 124.206 10.6307 123.956 10.5057C123.706 10.3807 123.386 10.3182 122.996 10.3182C122.462 10.3182 122.017 10.4413 121.66 10.6875C121.308 10.9299 121.132 11.2386 121.132 11.6136C121.132 11.947 121.253 12.2102 121.496 12.4034C121.738 12.5966 122.117 12.7576 122.632 12.8864L123.927 13.2045C124.708 13.3939 125.289 13.6837 125.672 14.0739C126.054 14.4602 126.246 14.9583 126.246 15.5682C126.246 16.0682 126.102 16.5152 125.814 16.9091C125.53 17.303 125.132 17.6136 124.621 17.8409C124.109 18.0682 123.515 18.1818 122.837 18.1818C121.946 18.1818 121.21 17.9886 120.626 17.6023C120.043 17.2159 119.674 16.6515 119.518 15.9091L120.791 15.5909C120.912 16.0606 121.142 16.4129 121.479 16.6477C121.82 16.8826 122.265 17 122.814 17C123.439 17 123.935 16.8674 124.302 16.6023C124.674 16.3333 124.859 16.0114 124.859 15.6364C124.859 15.3333 124.753 15.0795 124.541 14.875C124.329 14.6667 124.003 14.5114 123.564 14.4091L122.109 14.0682C121.31 13.8788 120.723 13.5852 120.348 13.1875C119.977 12.786 119.791 12.2841 119.791 11.6818C119.791 11.1894 119.929 10.7538 120.206 10.375C120.486 9.99621 120.867 9.69886 121.348 9.48295C121.833 9.26705 122.382 9.15909 122.996 9.15909C123.859 9.15909 124.537 9.34848 125.03 9.72727C125.526 10.1061 125.878 10.6061 126.087 11.2273Z" fill="#FAFAFA"/>
</svg>
