<svg width="275" height="197" viewBox="0 0 275 197" fill="none" xmlns="http://www.w3.org/2000/svg">
<rect x="0.5" y="0.5" width="273.5" height="196" rx="23.5" fill="white"/>
<rect x="0.5" y="0.5" width="273.5" height="196" rx="23.5" stroke="#D4D4D4"/>
<path d="M37.334 29.8333H42.334V34.8333" stroke="#737373" stroke-width="1.66667" stroke-linecap="round" stroke-linejoin="round"/>
<path d="M42.3327 29.8333L35.2493 36.9167L31.0827 32.75L25.666 38.1667" stroke="#737373" stroke-width="1.66667" stroke-linecap="round" stroke-linejoin="round"/>
<path d="M25.2784 80V68.3636H29.5398C30.3655 68.3636 31.0492 68.5 31.5909 68.7727C32.1326 69.0417 32.5379 69.4072 32.8068 69.8693C33.0758 70.3277 33.2102 70.8447 33.2102 71.4205C33.2102 71.9053 33.1212 72.3144 32.9432 72.6477C32.7652 72.9773 32.5265 73.2424 32.2273 73.4432C31.9318 73.6402 31.6061 73.7841 31.25 73.875V73.9886C31.6364 74.0076 32.0133 74.1326 32.3807 74.3636C32.7519 74.5909 33.0587 74.9148 33.3011 75.3352C33.5436 75.7557 33.6648 76.267 33.6648 76.8693C33.6648 77.464 33.5246 77.9981 33.2443 78.4716C32.9678 78.9413 32.5398 79.3144 31.9602 79.5909C31.3807 79.8636 30.6402 80 29.7386 80H25.2784ZM27.0341 78.4943H29.5682C30.4091 78.4943 31.0114 78.3314 31.375 78.0057C31.7386 77.6799 31.9205 77.2727 31.9205 76.7841C31.9205 76.4167 31.8277 76.0795 31.642 75.7727C31.4564 75.4659 31.1913 75.2216 30.8466 75.0398C30.5057 74.858 30.1004 74.767 29.6307 74.767H27.0341V78.4943ZM27.0341 73.3977H29.3864C29.7803 73.3977 30.1345 73.322 30.4489 73.1705C30.767 73.0189 31.0189 72.8068 31.2045 72.5341C31.3939 72.2576 31.4886 71.9318 31.4886 71.5568C31.4886 71.0758 31.3201 70.6723 30.983 70.3466C30.6458 70.0208 30.1288 69.858 29.4318 69.858H27.0341V73.3977ZM38.3722 80.1761C37.5123 80.1761 36.7718 79.9924 36.1506 79.625C35.5331 79.2538 35.0559 78.733 34.7188 78.0625C34.3854 77.3883 34.2188 76.5985 34.2188 75.6932C34.2188 74.7992 34.3854 74.0114 34.7188 73.3295C35.0559 72.6477 35.5256 72.1155 36.1278 71.733C36.7339 71.3504 37.4422 71.1591 38.2528 71.1591C38.7453 71.1591 39.2225 71.2405 39.6847 71.4034C40.1468 71.5663 40.5616 71.822 40.929 72.1705C41.2964 72.5189 41.5862 72.9716 41.7983 73.5284C42.0104 74.0814 42.1165 74.7538 42.1165 75.5455V76.1477H35.179V74.875H40.4517C40.4517 74.428 40.3608 74.0322 40.179 73.6875C39.9972 73.339 39.7415 73.0644 39.4119 72.8636C39.0862 72.6629 38.7036 72.5625 38.2642 72.5625C37.7869 72.5625 37.3703 72.6799 37.0142 72.9148C36.6619 73.1458 36.3892 73.4489 36.196 73.8239C36.0066 74.1951 35.9119 74.5985 35.9119 75.0341V76.0284C35.9119 76.6117 36.0142 77.108 36.2188 77.517C36.4271 77.9261 36.7169 78.2386 37.0881 78.4545C37.4593 78.6667 37.893 78.7727 38.3892 78.7727C38.7112 78.7727 39.0047 78.7273 39.2699 78.6364C39.535 78.5417 39.7642 78.4015 39.9574 78.2159C40.1506 78.0303 40.2983 77.8011 40.4006 77.5284L42.0085 77.8182C41.8797 78.2917 41.6487 78.7064 41.3153 79.0625C40.9858 79.4148 40.571 79.6894 40.071 79.8864C39.5748 80.0795 39.0085 80.1761 38.3722 80.1761ZM49.5412 73.4034L48.0014 73.6761C47.937 73.4792 47.8348 73.2917 47.6946 73.1136C47.5582 72.9356 47.3726 72.7898 47.1378 72.6761C46.9029 72.5625 46.6094 72.5057 46.2571 72.5057C45.776 72.5057 45.3745 72.6136 45.0526 72.8295C44.7306 73.0417 44.5696 73.3163 44.5696 73.6534C44.5696 73.9451 44.6776 74.1799 44.8935 74.358C45.1094 74.536 45.4579 74.6818 45.9389 74.7955L47.3253 75.1136C48.1283 75.2992 48.7268 75.5852 49.1207 75.9716C49.5147 76.358 49.7116 76.8598 49.7116 77.4773C49.7116 78 49.5601 78.4659 49.2571 78.875C48.9579 79.2803 48.5393 79.5985 48.0014 79.8295C47.4673 80.0606 46.848 80.1761 46.1435 80.1761C45.1662 80.1761 44.3688 79.9678 43.7514 79.5511C43.134 79.1307 42.7552 78.5341 42.6151 77.7614L44.2571 77.5114C44.3594 77.9394 44.5696 78.2633 44.8878 78.483C45.206 78.6989 45.6207 78.8068 46.1321 78.8068C46.6889 78.8068 47.134 78.6913 47.4673 78.4602C47.8007 78.2254 47.9673 77.9394 47.9673 77.6023C47.9673 77.3295 47.8651 77.1004 47.6605 76.9148C47.4598 76.7292 47.151 76.589 46.7344 76.4943L45.2571 76.1705C44.4427 75.9848 43.8404 75.6894 43.4503 75.2841C43.0639 74.8788 42.8707 74.3655 42.8707 73.7443C42.8707 73.2292 43.0147 72.7784 43.3026 72.392C43.5904 72.0057 43.9882 71.7045 44.4957 71.4886C45.0033 71.2689 45.5848 71.1591 46.2401 71.1591C47.1832 71.1591 47.9257 71.3636 48.4673 71.7727C49.009 72.178 49.367 72.7216 49.5412 73.4034ZM54.6534 71.2727V72.6364H49.8864V71.2727H54.6534ZM51.1648 69.1818H52.8636V77.4375C52.8636 77.767 52.9129 78.0152 53.0114 78.1818C53.1098 78.3447 53.2367 78.4564 53.392 78.517C53.5511 78.5739 53.7235 78.6023 53.9091 78.6023C54.0455 78.6023 54.1648 78.5928 54.267 78.5739C54.3693 78.5549 54.4489 78.5398 54.5057 78.5284L54.8125 79.9318C54.714 79.9697 54.5739 80.0076 54.392 80.0455C54.2102 80.0871 53.983 80.1098 53.7102 80.1136C53.2633 80.1212 52.8466 80.0417 52.4602 79.875C52.0739 79.7083 51.7614 79.4508 51.5227 79.1023C51.2841 78.7538 51.1648 78.3163 51.1648 77.7898V69.1818ZM65.25 71.4205C65.1894 70.8826 64.9394 70.4659 64.5 70.1705C64.0606 69.8712 63.5076 69.7216 62.8409 69.7216C62.3636 69.7216 61.9508 69.7973 61.6023 69.9489C61.2538 70.0966 60.983 70.3011 60.7898 70.5625C60.6004 70.8201 60.5057 71.1136 60.5057 71.4432C60.5057 71.7197 60.5701 71.9583 60.6989 72.1591C60.8314 72.3598 61.0038 72.5284 61.2159 72.6648C61.4318 72.7973 61.6629 72.9091 61.9091 73C62.1553 73.0871 62.392 73.1591 62.6193 73.2159L63.7557 73.5114C64.1269 73.6023 64.5076 73.7254 64.8977 73.8807C65.2879 74.036 65.6496 74.2405 65.983 74.4943C66.3163 74.7481 66.5852 75.0625 66.7898 75.4375C66.9981 75.8125 67.1023 76.2614 67.1023 76.7841C67.1023 77.4432 66.9318 78.0284 66.5909 78.5398C66.2538 79.0511 65.7633 79.4545 65.1193 79.75C64.4792 80.0455 63.7045 80.1932 62.7955 80.1932C61.9242 80.1932 61.1705 80.0549 60.5341 79.7784C59.8977 79.5019 59.3996 79.1098 59.0398 78.6023C58.6799 78.0909 58.4811 77.4848 58.4432 76.7841H60.2045C60.2386 77.2045 60.375 77.5549 60.6136 77.8352C60.8561 78.1117 61.1648 78.3182 61.5398 78.4545C61.9186 78.5871 62.3333 78.6534 62.7841 78.6534C63.2803 78.6534 63.7216 78.5758 64.108 78.4205C64.4981 78.2614 64.8049 78.0417 65.0284 77.7614C65.2519 77.4773 65.3636 77.1458 65.3636 76.767C65.3636 76.4223 65.2652 76.1402 65.0682 75.9205C64.875 75.7008 64.6117 75.5189 64.2784 75.375C63.9489 75.2311 63.5758 75.1042 63.1591 74.9943L61.7841 74.6193C60.8523 74.3655 60.1136 73.9924 59.5682 73.5C59.0265 73.0076 58.7557 72.3561 58.7557 71.5455C58.7557 70.875 58.9375 70.2898 59.3011 69.7898C59.6648 69.2898 60.1572 68.9015 60.7784 68.625C61.3996 68.3447 62.1004 68.2045 62.8807 68.2045C63.6686 68.2045 64.3636 68.3428 64.9659 68.6193C65.572 68.8958 66.0492 69.2765 66.3977 69.7614C66.7462 70.2424 66.928 70.7955 66.9432 71.4205H65.25ZM71.7401 80.1761C70.8954 80.1761 70.1681 79.9848 69.5582 79.6023C68.9522 79.2159 68.4863 78.6837 68.1605 78.0057C67.8348 77.3277 67.6719 76.5511 67.6719 75.6761C67.6719 74.7898 67.8385 74.0076 68.1719 73.3295C68.5052 72.6477 68.9749 72.1155 69.581 71.733C70.187 71.3504 70.901 71.1591 71.723 71.1591C72.3859 71.1591 72.9768 71.2822 73.4957 71.5284C74.0147 71.7708 74.4332 72.1117 74.7514 72.5511C75.0734 72.9905 75.2647 73.5038 75.3253 74.0909H73.6719C73.581 73.6818 73.3726 73.3295 73.0469 73.0341C72.7249 72.7386 72.2931 72.5909 71.7514 72.5909C71.2779 72.5909 70.8632 72.7159 70.5071 72.9659C70.1548 73.2121 69.8802 73.5644 69.6832 74.0227C69.4863 74.4773 69.3878 75.0152 69.3878 75.6364C69.3878 76.2727 69.4844 76.822 69.6776 77.2841C69.8707 77.7462 70.1435 78.1042 70.4957 78.358C70.8518 78.6117 71.2704 78.7386 71.7514 78.7386C72.0734 78.7386 72.3651 78.6799 72.6264 78.5625C72.8916 78.4413 73.1132 78.2689 73.2912 78.0455C73.473 77.822 73.5999 77.553 73.6719 77.2386H75.3253C75.2647 77.803 75.081 78.3068 74.7741 78.75C74.4673 79.1932 74.0563 79.5417 73.5412 79.7955C73.0298 80.0492 72.4295 80.1761 71.7401 80.1761ZM79.8182 80.1761C79 80.1761 78.286 79.9886 77.6761 79.6136C77.0663 79.2386 76.5928 78.714 76.2557 78.0398C75.9186 77.3655 75.75 76.5777 75.75 75.6761C75.75 74.7708 75.9186 73.9792 76.2557 73.3011C76.5928 72.6231 77.0663 72.0966 77.6761 71.7216C78.286 71.3466 79 71.1591 79.8182 71.1591C80.6364 71.1591 81.3504 71.3466 81.9602 71.7216C82.5701 72.0966 83.0436 72.6231 83.3807 73.3011C83.7178 73.9792 83.8864 74.7708 83.8864 75.6761C83.8864 76.5777 83.7178 77.3655 83.3807 78.0398C83.0436 78.714 82.5701 79.2386 81.9602 79.6136C81.3504 79.9886 80.6364 80.1761 79.8182 80.1761ZM79.8239 78.75C80.3542 78.75 80.7936 78.6098 81.142 78.3295C81.4905 78.0492 81.7481 77.6761 81.9148 77.2102C82.0852 76.7443 82.1705 76.2311 82.1705 75.6705C82.1705 75.1136 82.0852 74.6023 81.9148 74.1364C81.7481 73.6667 81.4905 73.2898 81.142 73.0057C80.7936 72.7216 80.3542 72.5795 79.8239 72.5795C79.2898 72.5795 78.8466 72.7216 78.4943 73.0057C78.1458 73.2898 77.8864 73.6667 77.7159 74.1364C77.5492 74.6023 77.4659 75.1136 77.4659 75.6705C77.4659 76.2311 77.5492 76.7443 77.7159 77.2102C77.8864 77.6761 78.1458 78.0492 78.4943 78.3295C78.8466 78.6098 79.2898 78.75 79.8239 78.75ZM84.7827 80V71.2727H86.4247V72.6591H86.5156C86.6747 72.1894 86.955 71.8201 87.3565 71.5511C87.7618 71.2784 88.2202 71.142 88.7315 71.142C88.8376 71.142 88.9626 71.1458 89.1065 71.1534C89.2543 71.161 89.3698 71.1705 89.4531 71.1818V72.8068C89.3849 72.7879 89.2637 72.767 89.0895 72.7443C88.9152 72.7178 88.741 72.7045 88.5668 72.7045C88.1652 72.7045 87.8073 72.7898 87.4929 72.9602C87.1823 73.1269 86.9361 73.3598 86.7543 73.6591C86.5724 73.9545 86.4815 74.2917 86.4815 74.6705V80H84.7827ZM93.3722 80.1761C92.5123 80.1761 91.7718 79.9924 91.1506 79.625C90.5331 79.2538 90.0559 78.733 89.7188 78.0625C89.3854 77.3883 89.2188 76.5985 89.2188 75.6932C89.2188 74.7992 89.3854 74.0114 89.7188 73.3295C90.0559 72.6477 90.5256 72.1155 91.1278 71.733C91.7339 71.3504 92.4422 71.1591 93.2528 71.1591C93.7453 71.1591 94.2225 71.2405 94.6847 71.4034C95.1468 71.5663 95.5616 71.822 95.929 72.1705C96.2964 72.5189 96.5862 72.9716 96.7983 73.5284C97.0104 74.0814 97.1165 74.7538 97.1165 75.5455V76.1477H90.179V74.875H95.4517C95.4517 74.428 95.3608 74.0322 95.179 73.6875C94.9972 73.339 94.7415 73.0644 94.4119 72.8636C94.0862 72.6629 93.7036 72.5625 93.2642 72.5625C92.7869 72.5625 92.3703 72.6799 92.0142 72.9148C91.6619 73.1458 91.3892 73.4489 91.196 73.8239C91.0066 74.1951 90.9119 74.5985 90.9119 75.0341V76.0284C90.9119 76.6117 91.0142 77.108 91.2188 77.517C91.4271 77.9261 91.7169 78.2386 92.0881 78.4545C92.4593 78.6667 92.893 78.7727 93.3892 78.7727C93.7112 78.7727 94.0047 78.7273 94.2699 78.6364C94.535 78.5417 94.7642 78.4015 94.9574 78.2159C95.1506 78.0303 95.2983 77.8011 95.4006 77.5284L97.0085 77.8182C96.8797 78.2917 96.6487 78.7064 96.3153 79.0625C95.9858 79.4148 95.571 79.6894 95.071 79.8864C94.5748 80.0795 94.0085 80.1761 93.3722 80.1761ZM104.912 80.1761C104.094 80.1761 103.38 79.9886 102.77 79.6136C102.16 79.2386 101.687 78.714 101.349 78.0398C101.012 77.3655 100.844 76.5777 100.844 75.6761C100.844 74.7708 101.012 73.9792 101.349 73.3011C101.687 72.6231 102.16 72.0966 102.77 71.7216C103.38 71.3466 104.094 71.1591 104.912 71.1591C105.73 71.1591 106.444 71.3466 107.054 71.7216C107.664 72.0966 108.137 72.6231 108.474 73.3011C108.812 73.9792 108.98 74.7708 108.98 75.6761C108.98 76.5777 108.812 77.3655 108.474 78.0398C108.137 78.714 107.664 79.2386 107.054 79.6136C106.444 79.9886 105.73 80.1761 104.912 80.1761ZM104.918 78.75C105.448 78.75 105.887 78.6098 106.236 78.3295C106.584 78.0492 106.842 77.6761 107.009 77.2102C107.179 76.7443 107.264 76.2311 107.264 75.6705C107.264 75.1136 107.179 74.6023 107.009 74.1364C106.842 73.6667 106.584 73.2898 106.236 73.0057C105.887 72.7216 105.448 72.5795 104.918 72.5795C104.384 72.5795 103.94 72.7216 103.588 73.0057C103.24 73.2898 102.98 73.6667 102.81 74.1364C102.643 74.6023 102.56 75.1136 102.56 75.6705C102.56 76.2311 102.643 76.7443 102.81 77.2102C102.98 77.6761 103.24 78.0492 103.588 78.3295C103.94 78.6098 104.384 78.75 104.918 78.75ZM114.03 71.2727V72.6364H109.098V71.2727H114.03ZM110.45 80V70.2614C110.45 69.7159 110.57 69.2633 110.808 68.9034C111.047 68.5398 111.363 68.2689 111.757 68.0909C112.151 67.9091 112.579 67.8182 113.041 67.8182C113.382 67.8182 113.674 67.8466 113.916 67.9034C114.159 67.9564 114.339 68.0057 114.456 68.0511L114.058 69.4261C113.979 69.4034 113.876 69.3769 113.751 69.3466C113.626 69.3125 113.475 69.2955 113.297 69.2955C112.884 69.2955 112.589 69.3977 112.411 69.6023C112.236 69.8068 112.149 70.1023 112.149 70.4886V80H110.45ZM118.153 68.3636H120.284L123.989 77.4091H124.125L127.83 68.3636H129.96V80H128.29V71.5795H128.182L124.75 79.983H123.364L119.932 71.5739H119.824V80H118.153V68.3636ZM135.053 80.1761C134.234 80.1761 133.52 79.9886 132.911 79.6136C132.301 79.2386 131.827 78.714 131.49 78.0398C131.153 77.3655 130.984 76.5777 130.984 75.6761C130.984 74.7708 131.153 73.9792 131.49 73.3011C131.827 72.6231 132.301 72.0966 132.911 71.7216C133.52 71.3466 134.234 71.1591 135.053 71.1591C135.871 71.1591 136.585 71.3466 137.195 71.7216C137.804 72.0966 138.278 72.6231 138.615 73.3011C138.952 73.9792 139.121 74.7708 139.121 75.6761C139.121 76.5777 138.952 77.3655 138.615 78.0398C138.278 78.714 137.804 79.2386 137.195 79.6136C136.585 79.9886 135.871 80.1761 135.053 80.1761ZM135.058 78.75C135.589 78.75 136.028 78.6098 136.376 78.3295C136.725 78.0492 136.982 77.6761 137.149 77.2102C137.32 76.7443 137.405 76.2311 137.405 75.6705C137.405 75.1136 137.32 74.6023 137.149 74.1364C136.982 73.6667 136.725 73.2898 136.376 73.0057C136.028 72.7216 135.589 72.5795 135.058 72.5795C134.524 72.5795 134.081 72.7216 133.729 73.0057C133.38 73.2898 133.121 73.6667 132.95 74.1364C132.784 74.6023 132.7 75.1136 132.7 75.6705C132.7 76.2311 132.784 76.7443 132.95 77.2102C133.121 77.6761 133.38 78.0492 133.729 78.3295C134.081 78.6098 134.524 78.75 135.058 78.75ZM143.693 80.1761C142.848 80.1761 142.121 79.9848 141.511 79.6023C140.905 79.2159 140.439 78.6837 140.114 78.0057C139.788 77.3277 139.625 76.5511 139.625 75.6761C139.625 74.7898 139.792 74.0076 140.125 73.3295C140.458 72.6477 140.928 72.1155 141.534 71.733C142.14 71.3504 142.854 71.1591 143.676 71.1591C144.339 71.1591 144.93 71.2822 145.449 71.5284C145.968 71.7708 146.386 72.1117 146.705 72.5511C147.027 72.9905 147.218 73.5038 147.278 74.0909H145.625C145.534 73.6818 145.326 73.3295 145 73.0341C144.678 72.7386 144.246 72.5909 143.705 72.5909C143.231 72.5909 142.816 72.7159 142.46 72.9659C142.108 73.2121 141.833 73.5644 141.636 74.0227C141.439 74.4773 141.341 75.0152 141.341 75.6364C141.341 76.2727 141.438 76.822 141.631 77.2841C141.824 77.7462 142.097 78.1042 142.449 78.358C142.805 78.6117 143.223 78.7386 143.705 78.7386C144.027 78.7386 144.318 78.6799 144.58 78.5625C144.845 78.4413 145.066 78.2689 145.244 78.0455C145.426 77.822 145.553 77.553 145.625 77.2386H147.278C147.218 77.803 147.034 78.3068 146.727 78.75C146.42 79.1932 146.009 79.5417 145.494 79.7955C144.983 80.0492 144.383 80.1761 143.693 80.1761ZM149.658 77.0398L149.646 74.9659H149.942L153.419 71.2727H155.453L151.487 75.4773H151.22L149.658 77.0398ZM148.095 80V68.3636H149.794V80H148.095ZM153.607 80L150.482 75.8523L151.652 74.6648L155.692 80H153.607ZM158.798 69.875V68.3636H167.804V69.875H164.173V80H162.423V69.875H158.798ZM171.153 80.1761C170.294 80.1761 169.553 79.9924 168.932 79.625C168.314 79.2538 167.837 78.733 167.5 78.0625C167.167 77.3883 167 76.5985 167 75.6932C167 74.7992 167.167 74.0114 167.5 73.3295C167.837 72.6477 168.307 72.1155 168.909 71.733C169.515 71.3504 170.223 71.1591 171.034 71.1591C171.527 71.1591 172.004 71.2405 172.466 71.4034C172.928 71.5663 173.343 71.822 173.71 72.1705C174.078 72.5189 174.367 72.9716 174.58 73.5284C174.792 74.0814 174.898 74.7538 174.898 75.5455V76.1477H167.96V74.875H173.233C173.233 74.428 173.142 74.0322 172.96 73.6875C172.778 73.339 172.523 73.0644 172.193 72.8636C171.867 72.6629 171.485 72.5625 171.045 72.5625C170.568 72.5625 170.152 72.6799 169.795 72.9148C169.443 73.1458 169.17 73.4489 168.977 73.8239C168.788 74.1951 168.693 74.5985 168.693 75.0341V76.0284C168.693 76.6117 168.795 77.108 169 77.517C169.208 77.9261 169.498 78.2386 169.869 78.4545C170.241 78.6667 170.674 78.7727 171.17 78.7727C171.492 78.7727 171.786 78.7273 172.051 78.6364C172.316 78.5417 172.545 78.4015 172.739 78.2159C172.932 78.0303 173.08 77.8011 173.182 77.5284L174.79 77.8182C174.661 78.2917 174.43 78.7064 174.097 79.0625C173.767 79.4148 173.352 79.6894 172.852 79.8864C172.356 80.0795 171.79 80.1761 171.153 80.1761ZM182.322 73.4034L180.783 73.6761C180.718 73.4792 180.616 73.2917 180.476 73.1136C180.339 72.9356 180.154 72.7898 179.919 72.6761C179.684 72.5625 179.391 72.5057 179.038 72.5057C178.557 72.5057 178.156 72.6136 177.834 72.8295C177.512 73.0417 177.351 73.3163 177.351 73.6534C177.351 73.9451 177.459 74.1799 177.675 74.358C177.891 74.536 178.239 74.6818 178.72 74.7955L180.107 75.1136C180.91 75.2992 181.508 75.5852 181.902 75.9716C182.296 76.358 182.493 76.8598 182.493 77.4773C182.493 78 182.341 78.4659 182.038 78.875C181.739 79.2803 181.321 79.5985 180.783 79.8295C180.249 80.0606 179.629 80.1761 178.925 80.1761C177.947 80.1761 177.15 79.9678 176.533 79.5511C175.915 79.1307 175.536 78.5341 175.396 77.7614L177.038 77.5114C177.141 77.9394 177.351 78.2633 177.669 78.483C177.987 78.6989 178.402 78.8068 178.913 78.8068C179.47 78.8068 179.915 78.6913 180.249 78.4602C180.582 78.2254 180.749 77.9394 180.749 77.6023C180.749 77.3295 180.646 77.1004 180.442 76.9148C180.241 76.7292 179.932 76.589 179.516 76.4943L178.038 76.1705C177.224 75.9848 176.622 75.6894 176.232 75.2841C175.845 74.8788 175.652 74.3655 175.652 73.7443C175.652 73.2292 175.796 72.7784 176.084 72.392C176.372 72.0057 176.769 71.7045 177.277 71.4886C177.785 71.2689 178.366 71.1591 179.021 71.1591C179.964 71.1591 180.707 71.3636 181.249 71.7727C181.79 72.178 182.148 72.7216 182.322 73.4034ZM187.435 71.2727V72.6364H182.668V71.2727H187.435ZM183.946 69.1818H185.645V77.4375C185.645 77.767 185.694 78.0152 185.793 78.1818C185.891 78.3447 186.018 78.4564 186.173 78.517C186.332 78.5739 186.505 78.6023 186.69 78.6023C186.827 78.6023 186.946 78.5928 187.048 78.5739C187.151 78.5549 187.23 78.5398 187.287 78.5284L187.594 79.9318C187.495 79.9697 187.355 80.0076 187.173 80.0455C186.991 80.0871 186.764 80.1098 186.491 80.1136C186.045 80.1212 185.628 80.0417 185.241 79.875C184.855 79.7083 184.543 79.4508 184.304 79.1023C184.065 78.7538 183.946 78.3163 183.946 77.7898V69.1818Z" fill="#262626"/>
<path d="M30.9801 148.239C29.6222 148.239 28.4432 148.023 27.4432 147.591C26.4432 147.153 25.6989 146.557 25.2102 145.801C24.7273 145.045 24.5653 144.196 24.7244 143.253C24.8494 142.537 25.1364 141.881 25.5852 141.284C26.0341 140.682 26.5852 140.182 27.2386 139.784C27.8977 139.386 28.5994 139.131 29.3438 139.017V138.889C28.429 138.707 27.7273 138.256 27.2386 137.534C26.75 136.807 26.5852 135.96 26.7443 134.994C26.892 134.091 27.2983 133.287 27.9631 132.582C28.6335 131.872 29.483 131.315 30.5114 130.912C31.5398 130.509 32.6676 130.307 33.8949 130.307C35.1278 130.307 36.1932 130.514 37.0909 130.929C37.9943 131.338 38.6648 131.901 39.1023 132.616C39.5398 133.332 39.6847 134.145 39.5369 135.054C39.3778 136.031 38.9318 136.872 38.1989 137.577C37.4659 138.276 36.6023 138.713 35.608 138.889V139.017C36.3125 139.131 36.929 139.389 37.4574 139.793C37.9915 140.196 38.3835 140.702 38.6335 141.31C38.8835 141.912 38.9432 142.58 38.8125 143.312C38.6591 144.244 38.2188 145.082 37.4915 145.827C36.7642 146.571 35.8352 147.159 34.7045 147.591C33.5795 148.023 32.3381 148.239 30.9801 148.239ZM31.4318 145.247C31.9545 145.247 32.429 145.148 32.8551 144.949C33.2869 144.744 33.642 144.466 33.9205 144.114C34.2045 143.756 34.3835 143.352 34.4574 142.903C34.5313 142.449 34.4858 142.048 34.321 141.702C34.1563 141.355 33.892 141.085 33.5284 140.892C33.1705 140.693 32.7386 140.594 32.233 140.594C31.7216 140.594 31.25 140.696 30.8182 140.901C30.3864 141.105 30.0284 141.386 29.7443 141.744C29.4602 142.097 29.2784 142.503 29.1989 142.963C29.125 143.406 29.1705 143.801 29.3352 144.148C29.5057 144.494 29.7699 144.764 30.1278 144.957C30.4915 145.151 30.9261 145.247 31.4318 145.247ZM32.6847 137.619C33.1392 137.619 33.554 137.526 33.929 137.338C34.304 137.151 34.6165 136.895 34.8665 136.571C35.1165 136.241 35.2756 135.872 35.3438 135.463C35.4176 135.048 35.3835 134.687 35.2415 134.381C35.1051 134.068 34.8807 133.827 34.5682 133.656C34.2614 133.486 33.8892 133.401 33.4517 133.401C32.9972 133.401 32.5795 133.491 32.1989 133.673C31.8239 133.855 31.5085 134.105 31.2528 134.423C30.9972 134.736 30.8352 135.099 30.767 135.514C30.6932 135.923 30.7273 136.287 30.8693 136.605C31.017 136.918 31.2472 137.165 31.5597 137.347C31.8722 137.528 32.2472 137.619 32.6847 137.619ZM46.0391 148.239C44.772 148.239 43.6811 148.009 42.7663 147.548C41.8516 147.088 41.1754 146.455 40.7379 145.648C40.3004 144.841 40.1555 143.915 40.3033 142.869H44.3942C44.3203 143.506 44.4936 144.02 44.9141 144.412C45.3402 144.804 45.8913 145 46.5675 145C47.1072 145 47.5987 144.884 48.0419 144.651C48.4908 144.418 48.8658 144.091 49.1669 143.67C49.468 143.25 49.6641 142.761 49.755 142.205C49.8516 141.642 49.8175 141.151 49.6527 140.73C49.4879 140.304 49.218 139.974 48.843 139.741C48.468 139.509 48.0135 139.392 47.4794 139.392C46.968 139.392 46.468 139.506 45.9794 139.733C45.4964 139.955 45.1044 140.261 44.8033 140.653L41.1896 139.955L43.5163 130.545H54.7152L54.1612 133.946H46.4311L45.3487 138.062H45.451C45.8203 137.58 46.3544 137.182 47.0533 136.869C47.7521 136.551 48.5135 136.392 49.3374 136.392C50.3828 136.392 51.272 136.636 52.005 137.125C52.7436 137.608 53.2777 138.281 53.6072 139.145C53.9368 140.003 54.0078 140.983 53.8203 142.085C53.6328 143.284 53.1811 144.347 52.4652 145.273C51.755 146.193 50.8459 146.918 49.7379 147.446C48.6357 147.974 47.4027 148.239 46.0391 148.239ZM64.4858 144.727L64.6562 143.807C64.7869 143.091 65.0568 142.429 65.4659 141.821C65.875 141.213 66.4034 140.724 67.0511 140.355C67.6989 139.986 68.446 139.801 69.2926 139.801C70.1676 139.801 70.875 139.986 71.4148 140.355C71.9545 140.719 72.3267 141.205 72.5312 141.812C72.7415 142.415 72.7756 143.08 72.6335 143.807L72.4631 144.727C72.3324 145.437 72.0625 146.099 71.6534 146.713C71.25 147.321 70.7216 147.81 70.0682 148.179C69.4148 148.548 68.6591 148.733 67.8011 148.733C66.9432 148.733 66.2443 148.548 65.7045 148.179C65.1705 147.81 64.7983 147.321 64.5881 146.713C64.3835 146.099 64.3494 145.437 64.4858 144.727ZM67.375 143.807L67.2045 144.727C67.1364 145.085 67.1648 145.435 67.2898 145.776C67.4205 146.111 67.7244 146.278 68.2017 146.278C68.7017 146.278 69.0625 146.114 69.2841 145.784C69.5057 145.455 69.6506 145.102 69.7188 144.727L69.8892 143.807C69.9574 143.426 69.9375 143.068 69.8295 142.733C69.7216 142.392 69.4091 142.222 68.892 142.222C68.4148 142.222 68.0597 142.392 67.8267 142.733C67.5938 143.068 67.4432 143.426 67.375 143.807ZM57.1051 134.739L57.2415 133.818C57.3494 133.085 57.6108 132.418 58.0256 131.815C58.4403 131.213 58.9773 130.73 59.6364 130.366C60.2955 129.997 61.0455 129.812 61.8864 129.812C62.7557 129.812 63.4545 129.997 63.983 130.366C64.5114 130.73 64.8778 131.213 65.0824 131.815C65.2869 132.418 65.3352 133.085 65.2273 133.818L65.0909 134.739C64.983 135.466 64.7244 136.131 64.3153 136.733C63.9063 137.335 63.3693 137.815 62.7045 138.173C62.0455 138.531 61.2869 138.71 60.429 138.71C59.5653 138.71 58.8693 138.531 58.3409 138.173C57.8182 137.81 57.4545 137.327 57.25 136.724C57.0511 136.116 57.0028 135.455 57.1051 134.739ZM59.9858 133.818L59.8494 134.739C59.7926 135.119 59.8239 135.474 59.9432 135.804C60.0625 136.128 60.358 136.29 60.8295 136.29C61.3239 136.29 61.6847 136.128 61.9119 135.804C62.1392 135.474 62.2813 135.119 62.3381 134.739L62.4744 133.818C62.5313 133.437 62.5085 133.08 62.4062 132.744C62.304 132.403 61.9972 132.233 61.4858 132.233C61.0028 132.233 60.6449 132.406 60.4119 132.753C60.1847 133.099 60.0426 133.455 59.9858 133.818ZM56.142 148L71.0398 130.545H73.4943L58.5966 148H56.142Z" fill="#262626"/>
<path d="M25.0568 167V158.273H28.0057C28.6903 158.273 29.25 158.396 29.6847 158.643C30.1222 158.888 30.446 159.219 30.6562 159.636C30.8665 160.054 30.9716 160.52 30.9716 161.034C30.9716 161.548 30.8665 162.016 30.6562 162.436C30.4489 162.857 30.1278 163.192 29.6932 163.442C29.2585 163.689 28.7017 163.812 28.0227 163.812H25.9091V162.875H27.9886C28.4574 162.875 28.8338 162.794 29.1179 162.632C29.402 162.47 29.608 162.251 29.7358 161.976C29.8665 161.697 29.9318 161.384 29.9318 161.034C29.9318 160.685 29.8665 160.372 29.7358 160.097C29.608 159.821 29.4006 159.605 29.1136 159.449C28.8267 159.29 28.446 159.21 27.9716 159.21H26.1136V167H25.0568ZM34.2116 167.136C33.581 167.136 33.0369 166.997 32.5795 166.719C32.125 166.438 31.7741 166.045 31.527 165.543C31.2827 165.037 31.1605 164.449 31.1605 163.778C31.1605 163.108 31.2827 162.517 31.527 162.006C31.7741 161.491 32.1179 161.091 32.5582 160.804C33.0014 160.514 33.5185 160.369 34.1094 160.369C34.4503 160.369 34.7869 160.426 35.1193 160.54C35.4517 160.653 35.7543 160.838 36.027 161.094C36.2997 161.347 36.517 161.682 36.679 162.099C36.8409 162.517 36.9219 163.031 36.9219 163.642V164.068H31.8764V163.199H35.8991C35.8991 162.83 35.8253 162.5 35.6776 162.21C35.5327 161.92 35.3253 161.692 35.0554 161.524C34.7884 161.357 34.473 161.273 34.1094 161.273C33.7088 161.273 33.3622 161.372 33.0696 161.571C32.7798 161.767 32.5568 162.023 32.4006 162.338C32.2443 162.653 32.1662 162.991 32.1662 163.352V163.932C32.1662 164.426 32.2514 164.845 32.4219 165.189C32.5952 165.53 32.8352 165.79 33.142 165.969C33.4489 166.145 33.8054 166.233 34.2116 166.233C34.4759 166.233 34.7145 166.196 34.9276 166.122C35.1435 166.045 35.3295 165.932 35.4858 165.781C35.642 165.628 35.7628 165.437 35.848 165.21L36.8196 165.483C36.7173 165.812 36.5455 166.102 36.304 166.352C36.0625 166.599 35.7642 166.793 35.4091 166.932C35.054 167.068 34.6548 167.136 34.2116 167.136ZM37.4517 167V160.455H38.4233V161.443H38.4915C38.6108 161.119 38.8267 160.857 39.1392 160.655C39.4517 160.453 39.804 160.352 40.196 160.352C40.2699 160.352 40.3622 160.354 40.473 160.357C40.5838 160.359 40.6676 160.364 40.7244 160.369V161.392C40.6903 161.384 40.6122 161.371 40.4901 161.354C40.3707 161.334 40.2443 161.324 40.1108 161.324C39.7926 161.324 39.5085 161.391 39.2585 161.524C39.0114 161.655 38.8153 161.837 38.6705 162.07C38.5284 162.3 38.4574 162.562 38.4574 162.858V167H37.4517ZM45.5529 161.92L44.6495 162.176C44.5927 162.026 44.5089 161.879 44.3981 161.737C44.2901 161.592 44.1424 161.473 43.9549 161.379C43.7674 161.286 43.5273 161.239 43.2347 161.239C42.8342 161.239 42.5004 161.331 42.2333 161.516C41.9691 161.697 41.837 161.929 41.837 162.21C41.837 162.46 41.9279 162.658 42.1097 162.803C42.2915 162.947 42.5756 163.068 42.962 163.165L43.9336 163.403C44.5188 163.545 44.9549 163.763 45.2418 164.055C45.5288 164.345 45.6722 164.719 45.6722 165.176C45.6722 165.551 45.5643 165.886 45.3484 166.182C45.1353 166.477 44.837 166.71 44.4535 166.881C44.07 167.051 43.6239 167.136 43.1154 167.136C42.4478 167.136 41.8952 166.991 41.4577 166.702C41.0202 166.412 40.7433 165.989 40.6268 165.432L41.5813 165.193C41.6722 165.545 41.8441 165.81 42.0969 165.986C42.3526 166.162 42.6864 166.25 43.0984 166.25C43.5671 166.25 43.9393 166.151 44.2148 165.952C44.4933 165.75 44.6325 165.509 44.6325 165.227C44.6325 165 44.5529 164.81 44.3938 164.656C44.2347 164.5 43.9904 164.384 43.6609 164.307L42.57 164.051C41.9705 163.909 41.5302 163.689 41.2489 163.391C40.9705 163.089 40.8313 162.713 40.8313 162.261C40.8313 161.892 40.935 161.565 41.1424 161.281C41.3526 160.997 41.6381 160.774 41.9989 160.612C42.3626 160.45 42.7745 160.369 43.2347 160.369C43.8825 160.369 44.391 160.511 44.7603 160.795C45.1325 161.08 45.3967 161.455 45.5529 161.92ZM48.8452 167.136C48.2543 167.136 47.7358 166.996 47.2898 166.714C46.8466 166.433 46.5 166.04 46.25 165.534C46.0028 165.028 45.8793 164.437 45.8793 163.761C45.8793 163.08 46.0028 162.484 46.25 161.976C46.5 161.467 46.8466 161.072 47.2898 160.791C47.7358 160.51 48.2543 160.369 48.8452 160.369C49.4361 160.369 49.9531 160.51 50.3963 160.791C50.8423 161.072 51.1889 161.467 51.4361 161.976C51.6861 162.484 51.8111 163.08 51.8111 163.761C51.8111 164.437 51.6861 165.028 51.4361 165.534C51.1889 166.04 50.8423 166.433 50.3963 166.714C49.9531 166.996 49.4361 167.136 48.8452 167.136ZM48.8452 166.233C49.294 166.233 49.6634 166.118 49.9531 165.888C50.2429 165.658 50.4574 165.355 50.5966 164.98C50.7358 164.605 50.8054 164.199 50.8054 163.761C50.8054 163.324 50.7358 162.916 50.5966 162.538C50.4574 162.161 50.2429 161.855 49.9531 161.622C49.6634 161.389 49.294 161.273 48.8452 161.273C48.3963 161.273 48.027 161.389 47.7372 161.622C47.4474 161.855 47.233 162.161 47.0938 162.538C46.9545 162.916 46.8849 163.324 46.8849 163.761C46.8849 164.199 46.9545 164.605 47.0938 164.98C47.233 165.355 47.4474 165.658 47.7372 165.888C48.027 166.118 48.3963 166.233 48.8452 166.233ZM53.3519 163.062V167H52.3462V160.455H53.3178V161.477H53.4031C53.5565 161.145 53.7894 160.878 54.1019 160.676C54.4144 160.472 54.8178 160.369 55.3121 160.369C55.7553 160.369 56.1431 160.46 56.4755 160.642C56.8079 160.821 57.0664 161.094 57.2511 161.46C57.4357 161.824 57.5281 162.284 57.5281 162.841V167H56.5224V162.909C56.5224 162.395 56.3888 161.994 56.1218 161.707C55.8548 161.418 55.4883 161.273 55.0224 161.273C54.7013 161.273 54.4144 161.342 54.1616 161.482C53.9116 161.621 53.7141 161.824 53.5692 162.091C53.4244 162.358 53.3519 162.682 53.3519 163.062ZM60.2919 167.153C59.8771 167.153 59.5007 167.075 59.1626 166.919C58.8246 166.76 58.5561 166.531 58.3572 166.233C58.1584 165.932 58.0589 165.568 58.0589 165.142C58.0589 164.767 58.1328 164.463 58.2805 164.23C58.4283 163.994 58.6257 163.81 58.8729 163.676C59.12 163.543 59.3928 163.443 59.6911 163.378C59.9922 163.31 60.2947 163.256 60.5987 163.216C60.9964 163.165 61.3189 163.126 61.5661 163.101C61.8161 163.072 61.9979 163.026 62.1115 162.96C62.228 162.895 62.2862 162.781 62.2862 162.619V162.585C62.2862 162.165 62.1712 161.838 61.9411 161.605C61.7138 161.372 61.3686 161.256 60.9055 161.256C60.4254 161.256 60.049 161.361 59.7763 161.571C59.5036 161.781 59.3118 162.006 59.201 162.244L58.2464 161.903C58.4169 161.506 58.6442 161.196 58.9283 160.974C59.2152 160.75 59.5277 160.594 59.8658 160.506C60.2067 160.415 60.5419 160.369 60.8714 160.369C61.0817 160.369 61.3232 160.395 61.5959 160.446C61.8714 160.494 62.1371 160.595 62.3928 160.749C62.6513 160.902 62.8658 161.134 63.0362 161.443C63.2067 161.753 63.2919 162.168 63.2919 162.688V167H62.2862V166.114H62.2351C62.1669 166.256 62.0533 166.408 61.8942 166.57C61.7351 166.732 61.5234 166.869 61.2592 166.983C60.995 167.097 60.6726 167.153 60.2919 167.153ZM60.4453 166.25C60.843 166.25 61.1783 166.172 61.451 166.016C61.7266 165.859 61.9339 165.658 62.0732 165.411C62.2152 165.163 62.2862 164.903 62.2862 164.631V163.71C62.2436 163.761 62.1499 163.808 62.005 163.851C61.8629 163.891 61.6982 163.926 61.5107 163.957C61.326 163.986 61.1456 164.011 60.9695 164.034C60.7962 164.054 60.6555 164.071 60.5476 164.085C60.2862 164.119 60.0419 164.175 59.8146 164.251C59.5902 164.325 59.4084 164.437 59.2692 164.588C59.1328 164.736 59.0646 164.937 59.0646 165.193C59.0646 165.543 59.1939 165.807 59.4524 165.986C59.7138 166.162 60.0447 166.25 60.4453 166.25ZM65.1332 158.273V167H64.1275V158.273H65.1332ZM68.4865 167V158.273H69.4922V161.494H69.5774C69.6513 161.381 69.7536 161.236 69.8842 161.06C70.0178 160.881 70.2081 160.722 70.4553 160.582C70.7053 160.44 71.0433 160.369 71.4695 160.369C72.0206 160.369 72.5064 160.507 72.9268 160.783C73.3473 161.058 73.6754 161.449 73.9112 161.955C74.147 162.46 74.2649 163.057 74.2649 163.744C74.2649 164.438 74.147 165.038 73.9112 165.547C73.6754 166.053 73.3487 166.445 72.9311 166.723C72.5135 166.999 72.032 167.136 71.4865 167.136C71.0661 167.136 70.7294 167.067 70.4766 166.928C70.2237 166.786 70.0291 166.625 69.8928 166.446C69.7564 166.264 69.6513 166.114 69.5774 165.994H69.4581V167H68.4865ZM69.4751 163.727C69.4751 164.222 69.5476 164.658 69.6925 165.036C69.8374 165.411 70.049 165.705 70.3274 165.918C70.6058 166.128 70.9467 166.233 71.3501 166.233C71.7706 166.233 72.1214 166.122 72.4027 165.901C72.6868 165.676 72.8999 165.375 73.0419 164.997C73.1868 164.616 73.2592 164.193 73.2592 163.727C73.2592 163.267 73.1882 162.852 73.0462 162.483C72.907 162.111 72.6953 161.817 72.4112 161.601C72.13 161.382 71.7763 161.273 71.3501 161.273C70.9411 161.273 70.5973 161.376 70.3189 161.584C70.0405 161.788 69.8303 162.075 69.6882 162.445C69.5462 162.811 69.4751 163.239 69.4751 163.727ZM77.5476 167.136C76.9169 167.136 76.3729 166.997 75.9155 166.719C75.4609 166.438 75.1101 166.045 74.8629 165.543C74.6186 165.037 74.4964 164.449 74.4964 163.778C74.4964 163.108 74.6186 162.517 74.8629 162.006C75.1101 161.491 75.4538 161.091 75.8942 160.804C76.3374 160.514 76.8544 160.369 77.4453 160.369C77.7862 160.369 78.1229 160.426 78.4553 160.54C78.7876 160.653 79.0902 160.838 79.3629 161.094C79.6357 161.347 79.853 161.682 80.0149 162.099C80.1768 162.517 80.2578 163.031 80.2578 163.642V164.068H75.2124V163.199H79.2351C79.2351 162.83 79.1612 162.5 79.0135 162.21C78.8686 161.92 78.6612 161.692 78.3913 161.524C78.1243 161.357 77.8089 161.273 77.4453 161.273C77.0447 161.273 76.6982 161.372 76.4055 161.571C76.1158 161.767 75.8928 162.023 75.7365 162.338C75.5803 162.653 75.5021 162.991 75.5021 163.352V163.932C75.5021 164.426 75.5874 164.845 75.7578 165.189C75.9311 165.53 76.1712 165.79 76.478 165.969C76.7848 166.145 77.1413 166.233 77.5476 166.233C77.8118 166.233 78.0504 166.196 78.2635 166.122C78.4794 166.045 78.6655 165.932 78.8217 165.781C78.978 165.628 79.0987 165.437 79.1839 165.21L80.1555 165.483C80.0533 165.812 79.8814 166.102 79.6399 166.352C79.3984 166.599 79.1001 166.793 78.745 166.932C78.3899 167.068 77.9908 167.136 77.5476 167.136ZM85.424 161.92L84.5206 162.176C84.4638 162.026 84.38 161.879 84.2692 161.737C84.1612 161.592 84.0135 161.473 83.826 161.379C83.6385 161.286 83.3984 161.239 83.1058 161.239C82.7053 161.239 82.3714 161.331 82.1044 161.516C81.8402 161.697 81.7081 161.929 81.7081 162.21C81.7081 162.46 81.799 162.658 81.9808 162.803C82.1626 162.947 82.4467 163.068 82.8331 163.165L83.8047 163.403C84.3899 163.545 84.826 163.763 85.1129 164.055C85.3999 164.345 85.5433 164.719 85.5433 165.176C85.5433 165.551 85.4354 165.886 85.2195 166.182C85.0064 166.477 84.7081 166.71 84.3246 166.881C83.9411 167.051 83.495 167.136 82.9865 167.136C82.3189 167.136 81.7663 166.991 81.3288 166.702C80.8913 166.412 80.6143 165.989 80.4979 165.432L81.4524 165.193C81.5433 165.545 81.7152 165.81 81.968 165.986C82.2237 166.162 82.5575 166.25 82.9695 166.25C83.4382 166.25 83.8104 166.151 84.0859 165.952C84.3643 165.75 84.5036 165.509 84.5036 165.227C84.5036 165 84.424 164.81 84.2649 164.656C84.1058 164.5 83.8615 164.384 83.532 164.307L82.4411 164.051C81.8416 163.909 81.4013 163.689 81.12 163.391C80.8416 163.089 80.7024 162.713 80.7024 162.261C80.7024 161.892 80.8061 161.565 81.0135 161.281C81.2237 160.997 81.5092 160.774 81.87 160.612C82.2337 160.45 82.6456 160.369 83.1058 160.369C83.7536 160.369 84.2621 160.511 84.6314 160.795C85.0036 161.08 85.2678 161.455 85.424 161.92ZM88.9038 160.455V161.307H85.5117V160.455H88.9038ZM86.5004 158.886H87.506V165.125C87.506 165.409 87.5472 165.622 87.6296 165.764C87.7148 165.903 87.8228 165.997 87.9535 166.045C88.087 166.091 88.2276 166.114 88.3754 166.114C88.4862 166.114 88.5771 166.108 88.6481 166.097C88.7191 166.082 88.7759 166.071 88.8185 166.062L89.0231 166.966C88.9549 166.991 88.8597 167.017 88.7376 167.043C88.6154 167.071 88.4606 167.085 88.2731 167.085C87.989 167.085 87.7106 167.024 87.4379 166.902C87.168 166.78 86.9435 166.594 86.7646 166.344C86.5884 166.094 86.5004 165.778 86.5004 165.398V158.886Z" fill="#62748E"/>
</svg>
