<svg width="136" height="16" viewBox="0 0 136 16" fill="none" xmlns="http://www.w3.org/2000/svg">
<path d="M8 4.66667V14" stroke="#8D191C" stroke-width="1.33333" stroke-linecap="round" stroke-linejoin="round"/>
<path d="M2.00065 12C1.82384 12 1.65427 11.9298 1.52925 11.8047C1.40422 11.6797 1.33398 11.5101 1.33398 11.3333V2.66667C1.33398 2.48986 1.40422 2.32029 1.52925 2.19526C1.65427 2.07024 1.82384 2 2.00065 2H5.33398C6.04123 2 6.71951 2.28095 7.2196 2.78105C7.7197 3.28115 8.00065 3.95942 8.00065 4.66667C8.00065 3.95942 8.2816 3.28115 8.7817 2.78105C9.2818 2.28095 9.96007 2 10.6673 2H14.0007C14.1775 2 14.347 2.07024 14.4721 2.19526C14.5971 2.32029 14.6673 2.48986 14.6673 2.66667V11.3333C14.6673 11.5101 14.5971 11.6797 14.4721 11.8047C14.347 11.9298 14.1775 12 14.0007 12H10.0007C9.47022 12 8.96151 12.2107 8.58644 12.5858C8.21136 12.9609 8.00065 13.4696 8.00065 14C8.00065 13.4696 7.78994 12.9609 7.41486 12.5858C7.03979 12.2107 6.53108 12 6.00065 12H2.00065Z" stroke="#8D191C" stroke-width="1.33333" stroke-linecap="round" stroke-linejoin="round"/>
<path d="M25.8864 2.36364L29.3409 12.1591H29.4773L32.9318 2.36364H34.4091L30.1364 14H28.6818L24.4091 2.36364H25.8864ZM35.2216 14V2.36364H36.6307V12.75H42.0398V14H35.2216ZM44.4332 14H42.956L47.2287 2.36364H48.6832L52.956 14H51.4787L48.0014 4.20455H47.9105L44.4332 14ZM44.9787 9.45455H50.9332V10.7045H44.9787V9.45455ZM51.7727 3.61364V2.36364H60.5V3.61364H56.8409V14H55.4318V3.61364H51.7727ZM61.4702 14V12.9773L65.3111 8.77273C65.7618 8.2803 66.133 7.85227 66.4247 7.48864C66.7164 7.12121 66.9323 6.77652 67.0724 6.45455C67.2164 6.12879 67.2884 5.78788 67.2884 5.43182C67.2884 5.02273 67.1899 4.66856 66.9929 4.36932C66.7997 4.07008 66.5346 3.83901 66.1974 3.67614C65.8603 3.51326 65.4815 3.43182 65.0611 3.43182C64.6141 3.43182 64.224 3.52462 63.8906 3.71023C63.5611 3.89205 63.3054 4.14773 63.1236 4.47727C62.9455 4.80682 62.8565 5.19318 62.8565 5.63636H61.5156C61.5156 4.95455 61.6728 4.35606 61.9872 3.84091C62.3016 3.32576 62.7296 2.92424 63.2713 2.63636C63.8168 2.34848 64.4285 2.20455 65.1065 2.20455C65.7884 2.20455 66.3925 2.34848 66.919 2.63636C67.4455 2.92424 67.8584 3.3125 68.1577 3.80114C68.4569 4.28977 68.6065 4.83333 68.6065 5.43182C68.6065 5.85985 68.5289 6.27841 68.3736 6.6875C68.2221 7.0928 67.9569 7.54545 67.5781 8.04545C67.2031 8.54167 66.6823 9.14773 66.0156 9.86364L63.402 12.6591V12.75H68.8111V14H61.4702ZM73.9531 14.1591C73.0971 14.1591 72.3679 13.9261 71.7656 13.4602C71.1634 12.9905 70.7031 12.3106 70.3849 11.4205C70.0668 10.5265 69.9077 9.44697 69.9077 8.18182C69.9077 6.92424 70.0668 5.85038 70.3849 4.96023C70.7069 4.06629 71.169 3.38447 71.7713 2.91477C72.3774 2.44129 73.1046 2.20455 73.9531 2.20455C74.8016 2.20455 75.527 2.44129 76.1293 2.91477C76.7353 3.38447 77.1974 4.06629 77.5156 4.96023C77.8376 5.85038 77.9986 6.92424 77.9986 8.18182C77.9986 9.44697 77.8395 10.5265 77.5213 11.4205C77.2031 12.3106 76.7429 12.9905 76.1406 13.4602C75.5384 13.9261 74.8092 14.1591 73.9531 14.1591ZM73.9531 12.9091C74.8016 12.9091 75.4607 12.5 75.9304 11.6818C76.4001 10.8636 76.6349 9.69697 76.6349 8.18182C76.6349 7.17424 76.527 6.31629 76.3111 5.60795C76.099 4.89962 75.7921 4.35985 75.3906 3.98864C74.9929 3.61742 74.5137 3.43182 73.9531 3.43182C73.1122 3.43182 72.455 3.84659 71.9815 4.67614C71.508 5.50189 71.2713 6.67045 71.2713 8.18182C71.2713 9.18939 71.3774 10.0455 71.5895 10.75C71.8016 11.4545 72.1065 11.9905 72.5043 12.358C72.9058 12.7254 73.3887 12.9091 73.9531 12.9091ZM79.1577 14V12.9773L82.9986 8.77273C83.4493 8.2803 83.8205 7.85227 84.1122 7.48864C84.4039 7.12121 84.6198 6.77652 84.7599 6.45455C84.9039 6.12879 84.9759 5.78788 84.9759 5.43182C84.9759 5.02273 84.8774 4.66856 84.6804 4.36932C84.4872 4.07008 84.2221 3.83901 83.8849 3.67614C83.5478 3.51326 83.169 3.43182 82.7486 3.43182C82.3016 3.43182 81.9115 3.52462 81.5781 3.71023C81.2486 3.89205 80.9929 4.14773 80.8111 4.47727C80.633 4.80682 80.544 5.19318 80.544 5.63636H79.2031C79.2031 4.95455 79.3603 4.35606 79.6747 3.84091C79.9891 3.32576 80.4171 2.92424 80.9588 2.63636C81.5043 2.34848 82.116 2.20455 82.794 2.20455C83.4759 2.20455 84.08 2.34848 84.6065 2.63636C85.133 2.92424 85.5459 3.3125 85.8452 3.80114C86.1444 4.28977 86.294 4.83333 86.294 5.43182C86.294 5.85985 86.2164 6.27841 86.0611 6.6875C85.9096 7.0928 85.6444 7.54545 85.2656 8.04545C84.8906 8.54167 84.3698 9.14773 83.7031 9.86364L81.0895 12.6591V12.75H86.4986V14H79.1577ZM91.4815 14.1591C90.8149 14.1591 90.2145 14.0265 89.6804 13.7614C89.1463 13.4962 88.7183 13.1326 88.3963 12.6705C88.0743 12.2083 87.8982 11.6818 87.8679 11.0909H89.2315C89.2846 11.6174 89.5232 12.053 89.9474 12.3977C90.3755 12.7386 90.8868 12.9091 91.4815 12.9091C91.9588 12.9091 92.383 12.7973 92.7543 12.5739C93.1293 12.3504 93.4228 12.0436 93.6349 11.6534C93.8509 11.2595 93.9588 10.8144 93.9588 10.3182C93.9588 9.81061 93.8471 9.35795 93.6236 8.96023C93.4039 8.55871 93.1009 8.24242 92.7145 8.01136C92.3281 7.7803 91.8868 7.66288 91.3906 7.65909C91.0346 7.6553 90.669 7.71023 90.294 7.82386C89.919 7.93371 89.6103 8.07576 89.3679 8.25L88.0497 8.09091L88.7543 2.36364H94.7997V3.61364H89.9361L89.527 7.04545H89.5952C89.8338 6.85606 90.133 6.69886 90.4929 6.57386C90.8527 6.44886 91.2277 6.38636 91.6179 6.38636C92.33 6.38636 92.9645 6.55682 93.5213 6.89773C94.0819 7.23485 94.5213 7.69697 94.8395 8.28409C95.1615 8.87121 95.3224 9.54167 95.3224 10.2955C95.3224 11.0379 95.1558 11.7008 94.8224 12.2841C94.4929 12.8636 94.0384 13.322 93.4588 13.6591C92.8793 13.9924 92.2202 14.1591 91.4815 14.1591ZM101.602 7.55682V8.80682H96.5114V7.55682H101.602ZM102.666 11.6136V10.4545L107.78 2.36364H108.621V4.15909H108.053L104.189 10.2727V10.3636H111.075V11.6136H102.666ZM108.143 14V11.2614V10.7216V2.36364H109.484V14H108.143ZM115.841 14.1591C115.174 14.1591 114.574 14.0265 114.04 13.7614C113.506 13.4962 113.078 13.1326 112.756 12.6705C112.434 12.2083 112.258 11.6818 112.227 11.0909H113.591C113.644 11.6174 113.883 12.053 114.307 12.3977C114.735 12.7386 115.246 12.9091 115.841 12.9091C116.318 12.9091 116.742 12.7973 117.114 12.5739C117.489 12.3504 117.782 12.0436 117.994 11.6534C118.21 11.2595 118.318 10.8144 118.318 10.3182C118.318 9.81061 118.206 9.35795 117.983 8.96023C117.763 8.55871 117.46 8.24242 117.074 8.01136C116.688 7.7803 116.246 7.66288 115.75 7.65909C115.394 7.6553 115.028 7.71023 114.653 7.82386C114.278 7.93371 113.97 8.07576 113.727 8.25L112.409 8.09091L113.114 2.36364H119.159V3.61364H114.295L113.886 7.04545H113.955C114.193 6.85606 114.492 6.69886 114.852 6.57386C115.212 6.44886 115.587 6.38636 115.977 6.38636C116.689 6.38636 117.324 6.55682 117.881 6.89773C118.441 7.23485 118.881 7.69697 119.199 8.28409C119.521 8.87121 119.682 9.54167 119.682 10.2955C119.682 11.0379 119.515 11.7008 119.182 12.2841C118.852 12.8636 118.398 13.322 117.818 13.6591C117.239 13.9924 116.58 14.1591 115.841 14.1591ZM120.939 14V12.9773L124.78 8.77273C125.231 8.2803 125.602 7.85227 125.893 7.48864C126.185 7.12121 126.401 6.77652 126.541 6.45455C126.685 6.12879 126.757 5.78788 126.757 5.43182C126.757 5.02273 126.659 4.66856 126.462 4.36932C126.268 4.07008 126.003 3.83901 125.666 3.67614C125.329 3.51326 124.95 3.43182 124.53 3.43182C124.083 3.43182 123.693 3.52462 123.359 3.71023C123.03 3.89205 122.774 4.14773 122.592 4.47727C122.414 4.80682 122.325 5.19318 122.325 5.63636H120.984C120.984 4.95455 121.142 4.35606 121.456 3.84091C121.77 3.32576 122.198 2.92424 122.74 2.63636C123.286 2.34848 123.897 2.20455 124.575 2.20455C125.257 2.20455 125.861 2.34848 126.388 2.63636C126.914 2.92424 127.327 3.3125 127.626 3.80114C127.926 4.28977 128.075 4.83333 128.075 5.43182C128.075 5.85985 127.998 6.27841 127.842 6.6875C127.691 7.0928 127.426 7.54545 127.047 8.04545C126.672 8.54167 126.151 9.14773 125.484 9.86364L122.871 12.6591V12.75H128.28V14H120.939ZM133.717 2.36364V14H132.308V3.84091H132.24L129.399 5.72727V4.29545L132.308 2.36364H133.717Z" fill="#364153"/>
</svg>
