<svg width="248" height="56" viewBox="0 0 248 56" fill="none" xmlns="http://www.w3.org/2000/svg">
<rect x="0.5" y="0.5" width="246.5" height="55" rx="10.5" stroke="#8D191C"/>
<path d="M34.9261 34.5H30.6882V21.4091H35.0604C36.343 21.4091 37.4446 21.6712 38.3651 22.1953C39.2855 22.7152 39.9908 23.4631 40.4808 24.4389C40.9751 25.4105 41.2223 26.576 41.2223 27.9354C41.2223 29.299 40.973 30.4709 40.4744 31.451C39.9801 32.4311 39.2642 33.1854 38.3267 33.7138C37.3892 34.2379 36.2557 34.5 34.9261 34.5ZM32.6634 32.7741H34.8175C35.8146 32.7741 36.6435 32.5866 37.304 32.2116C37.9645 31.8324 38.4588 31.2848 38.7869 30.5689C39.1151 29.8487 39.2791 28.9709 39.2791 27.9354C39.2791 26.9084 39.1151 26.0369 38.7869 25.321C38.4631 24.6051 37.9794 24.0618 37.3359 23.6911C36.6925 23.3203 35.8935 23.1349 34.9389 23.1349H32.6634V32.7741ZM46.5807 34.6982C45.6602 34.6982 44.857 34.4872 44.1709 34.0653C43.4848 33.6435 42.9521 33.0533 42.5729 32.2947C42.1936 31.5362 42.004 30.6499 42.004 29.6357C42.004 28.6172 42.1936 27.7266 42.5729 26.9638C42.9521 26.201 43.4848 25.6087 44.1709 25.1868C44.857 24.7649 45.6602 24.554 46.5807 24.554C47.5011 24.554 48.3044 24.7649 48.9905 25.1868C49.6766 25.6087 50.2092 26.201 50.5885 26.9638C50.9678 27.7266 51.1574 28.6172 51.1574 29.6357C51.1574 30.6499 50.9678 31.5362 50.5885 32.2947C50.2092 33.0533 49.6766 33.6435 48.9905 34.0653C48.3044 34.4872 47.5011 34.6982 46.5807 34.6982ZM46.5871 33.0938C47.1837 33.0938 47.678 32.9361 48.07 32.6207C48.4621 32.3054 48.7519 31.8857 48.9394 31.3615C49.1311 30.8374 49.227 30.2599 49.227 29.6293C49.227 29.0028 49.1311 28.4276 48.9394 27.9034C48.7519 27.375 48.4621 26.951 48.07 26.6314C47.678 26.3118 47.1837 26.152 46.5871 26.152C45.9862 26.152 45.4876 26.3118 45.0913 26.6314C44.6993 26.951 44.4074 27.375 44.2156 27.9034C44.0281 28.4276 43.9344 29.0028 43.9344 29.6293C43.9344 30.2599 44.0281 30.8374 44.2156 31.3615C44.4074 31.8857 44.6993 32.3054 45.0913 32.6207C45.4876 32.9361 45.9862 33.0938 46.5871 33.0938ZM54.0405 34.5L51.1513 24.6818H53.1264L55.0504 31.892H55.1463L57.0767 24.6818H59.0518L60.9694 31.8601H61.0653L62.9765 24.6818H64.9517L62.0689 34.5H60.1193L58.125 27.4112H57.978L55.9836 34.5H54.0405ZM67.5966 28.6705V34.5H65.6854V24.6818H67.5199V26.2798H67.6414C67.8672 25.7599 68.2209 25.3423 68.7025 25.027C69.1883 24.7116 69.7998 24.554 70.537 24.554C71.206 24.554 71.792 24.6946 72.2948 24.9759C72.7976 25.2528 73.1876 25.6662 73.4645 26.2159C73.7415 26.7656 73.88 27.4453 73.88 28.255V34.5H71.9688V28.4851C71.9688 27.7734 71.7834 27.2173 71.4127 26.8168C71.042 26.4119 70.5327 26.2095 69.885 26.2095C69.4418 26.2095 69.0476 26.3054 68.7025 26.4972C68.3616 26.6889 68.091 26.9702 67.8907 27.3409C67.6947 27.7074 67.5966 28.1506 67.5966 28.6705ZM77.2745 21.4091V34.5H75.3632V21.4091H77.2745ZM82.9013 34.6982C81.9809 34.6982 81.1776 34.4872 80.4915 34.0653C79.8054 33.6435 79.2728 33.0533 78.8935 32.2947C78.5142 31.5362 78.3246 30.6499 78.3246 29.6357C78.3246 28.6172 78.5142 27.7266 78.8935 26.9638C79.2728 26.201 79.8054 25.6087 80.4915 25.1868C81.1776 24.7649 81.9809 24.554 82.9013 24.554C83.8218 24.554 84.625 24.7649 85.3111 25.1868C85.9972 25.6087 86.5299 26.201 86.9091 26.9638C87.2884 27.7266 87.478 28.6172 87.478 29.6357C87.478 30.6499 87.2884 31.5362 86.9091 32.2947C86.5299 33.0533 85.9972 33.6435 85.3111 34.0653C84.625 34.4872 83.8218 34.6982 82.9013 34.6982ZM82.9077 33.0938C83.5043 33.0938 83.9986 32.9361 84.3907 32.6207C84.7827 32.3054 85.0725 31.8857 85.26 31.3615C85.4517 30.8374 85.5476 30.2599 85.5476 29.6293C85.5476 29.0028 85.4517 28.4276 85.26 27.9034C85.0725 27.375 84.7827 26.951 84.3907 26.6314C83.9986 26.3118 83.5043 26.152 82.9077 26.152C82.3069 26.152 81.8083 26.3118 81.412 26.6314C81.0199 26.951 80.728 27.375 80.5363 27.9034C80.3488 28.4276 80.255 29.0028 80.255 29.6293C80.255 30.2599 80.3488 30.8374 80.5363 31.3615C80.728 31.8857 81.0199 32.3054 81.412 32.6207C81.8083 32.9361 82.3069 33.0938 82.9077 33.0938ZM91.3886 34.7173C90.7664 34.7173 90.2039 34.6023 89.7011 34.3722C89.1983 34.1378 88.7998 33.799 88.5058 33.3558C88.216 32.9126 88.0711 32.3693 88.0711 31.7259C88.0711 31.1719 88.1777 30.7159 88.3907 30.358C88.6038 30 88.8914 29.7166 89.2537 29.5078C89.6159 29.299 90.0207 29.1413 90.4682 29.0348C90.9156 28.9283 91.3716 28.8473 91.8361 28.7919C92.4241 28.7237 92.9014 28.6683 93.2679 28.6257C93.6343 28.5788 93.9007 28.5043 94.0669 28.402C94.2331 28.2997 94.3162 28.1335 94.3162 27.9034V27.8587C94.3162 27.3004 94.1585 26.8679 93.8432 26.5611C93.5321 26.2543 93.0676 26.1009 92.4497 26.1009C91.8062 26.1009 91.2991 26.2436 90.9284 26.5291C90.5619 26.8104 90.3084 27.1236 90.1677 27.4688L88.3716 27.0597C88.5846 26.4631 88.8957 25.9815 89.3048 25.6151C89.7182 25.2443 90.1933 24.9759 90.7302 24.8097C91.2672 24.6392 91.8318 24.554 92.4241 24.554C92.8162 24.554 93.2316 24.6009 93.6706 24.6946C94.1138 24.7841 94.5271 24.9503 94.9106 25.1932C95.2984 25.4361 95.6159 25.7834 95.863 26.2351C96.1102 26.6825 96.2338 27.2642 96.2338 27.9801V34.5H94.3673V33.1577H94.2906C94.167 33.4048 93.9816 33.6477 93.7345 33.8864C93.4873 34.125 93.1699 34.3232 92.7821 34.4808C92.3943 34.6385 91.9298 34.7173 91.3886 34.7173ZM91.8041 33.1832C92.3325 33.1832 92.7842 33.0788 93.1592 32.87C93.5385 32.6612 93.8261 32.3885 94.0221 32.0518C94.2224 31.7109 94.3226 31.3466 94.3226 30.9588V29.6932C94.2544 29.7614 94.1223 29.8253 93.9263 29.8849C93.7345 29.9403 93.515 29.9893 93.2679 30.032C93.0207 30.0703 92.7799 30.1065 92.5456 30.1406C92.3112 30.1705 92.1152 30.196 91.9575 30.2173C91.5868 30.2642 91.248 30.343 90.9412 30.4538C90.6386 30.5646 90.3957 30.7244 90.2125 30.9332C90.0335 31.1378 89.944 31.4105 89.944 31.7514C89.944 32.2244 90.1187 32.5824 90.4682 32.8253C90.8176 33.0639 91.2629 33.1832 91.8041 33.1832ZM101.375 34.6918C100.582 34.6918 99.8748 34.4893 99.2527 34.0845C98.6348 33.6754 98.149 33.0937 97.7953 32.3395C97.4459 31.581 97.2711 30.6712 97.2711 29.6101C97.2711 28.549 97.448 27.6413 97.8017 26.8871C98.1596 26.1328 98.6497 25.5554 99.2719 25.1548C99.894 24.7543 100.599 24.554 101.388 24.554C101.997 24.554 102.487 24.6562 102.858 24.8608C103.233 25.0611 103.523 25.2955 103.727 25.5639C103.936 25.8324 104.098 26.0689 104.213 26.2734H104.328V21.4091H106.239V34.5H104.373V32.9723H104.213C104.098 33.1811 103.932 33.4197 103.714 33.6882C103.501 33.9567 103.207 34.1911 102.832 34.3913C102.457 34.5916 101.971 34.6918 101.375 34.6918ZM101.797 33.0618C102.346 33.0618 102.811 32.9169 103.19 32.6271C103.574 32.3331 103.863 31.9261 104.059 31.4062C104.26 30.8864 104.36 30.2812 104.36 29.5909C104.36 28.9091 104.262 28.3125 104.066 27.8011C103.87 27.2898 103.582 26.8913 103.203 26.6058C102.824 26.3203 102.355 26.1776 101.797 26.1776C101.221 26.1776 100.742 26.3267 100.359 26.625C99.975 26.9233 99.6852 27.3303 99.4892 27.8459C99.2974 28.3615 99.2015 28.9432 99.2015 29.5909C99.2015 30.2472 99.2996 30.8374 99.4956 31.3615C99.6916 31.8857 99.9814 32.3011 100.365 32.608C100.753 32.9105 101.23 33.0618 101.797 33.0618ZM111.724 34.5V21.4091H116.518C117.447 21.4091 118.216 21.5625 118.826 21.8693C119.435 22.1719 119.891 22.5831 120.194 23.103C120.496 23.6186 120.647 24.2003 120.647 24.848C120.647 25.3935 120.547 25.8537 120.347 26.2287C120.147 26.5994 119.878 26.8977 119.542 27.1236C119.209 27.3452 118.843 27.5071 118.442 27.6094V27.7372C118.877 27.7585 119.301 27.8991 119.714 28.1591C120.132 28.4148 120.477 28.7791 120.75 29.2521C121.022 29.7251 121.159 30.3004 121.159 30.978C121.159 31.647 121.001 32.2479 120.686 32.7805C120.375 33.3089 119.893 33.7287 119.241 34.0398C118.589 34.3466 117.756 34.5 116.742 34.5H111.724ZM113.699 32.8061H116.55C117.496 32.8061 118.174 32.6229 118.583 32.2564C118.992 31.8899 119.196 31.4318 119.196 30.8821C119.196 30.4687 119.092 30.0895 118.883 29.7443C118.674 29.3991 118.376 29.1243 117.988 28.9197C117.605 28.7152 117.149 28.6129 116.62 28.6129H113.699V32.8061ZM113.699 27.0724H116.346C116.789 27.0724 117.187 26.9872 117.541 26.8168C117.899 26.6463 118.182 26.4077 118.391 26.1009C118.604 25.7898 118.711 25.4233 118.711 25.0014C118.711 24.4602 118.521 24.0064 118.142 23.6399C117.762 23.2734 117.181 23.0902 116.397 23.0902H113.699V27.0724ZM122.268 34.5V24.6818H124.115V26.2415H124.218C124.397 25.7131 124.712 25.2976 125.164 24.995C125.62 24.6882 126.135 24.5348 126.71 24.5348C126.83 24.5348 126.97 24.5391 127.132 24.5476C127.299 24.5561 127.429 24.5668 127.522 24.5795V26.4077C127.446 26.3864 127.309 26.3629 127.113 26.3374C126.917 26.3075 126.721 26.2926 126.525 26.2926C126.073 26.2926 125.671 26.3885 125.317 26.5803C124.968 26.7678 124.691 27.0298 124.486 27.3665C124.281 27.6989 124.179 28.0781 124.179 28.5043V34.5H122.268ZM131.88 34.6982C130.96 34.6982 130.157 34.4872 129.471 34.0653C128.784 33.6435 128.252 33.0533 127.872 32.2947C127.493 31.5362 127.304 30.6499 127.304 29.6357C127.304 28.6172 127.493 27.7266 127.872 26.9638C128.252 26.201 128.784 25.6087 129.471 25.1868C130.157 24.7649 130.96 24.554 131.88 24.554C132.801 24.554 133.604 24.7649 134.29 25.1868C134.976 25.6087 135.509 26.201 135.888 26.9638C136.267 27.7266 136.457 28.6172 136.457 29.6357C136.457 30.6499 136.267 31.5362 135.888 32.2947C135.509 33.0533 134.976 33.6435 134.29 34.0653C133.604 34.4872 132.801 34.6982 131.88 34.6982ZM131.887 33.0938C132.483 33.0938 132.978 32.9361 133.37 32.6207C133.762 32.3054 134.051 31.8857 134.239 31.3615C134.431 30.8374 134.527 30.2599 134.527 29.6293C134.527 29.0028 134.431 28.4276 134.239 27.9034C134.051 27.375 133.762 26.951 133.37 26.6314C132.978 26.3118 132.483 26.152 131.887 26.152C131.286 26.152 130.787 26.3118 130.391 26.6314C129.999 26.951 129.707 27.375 129.515 27.9034C129.328 28.4276 129.234 29.0028 129.234 29.6293C129.234 30.2599 129.328 30.8374 129.515 31.3615C129.707 31.8857 129.999 32.3054 130.391 32.6207C130.787 32.9361 131.286 33.0938 131.887 33.0938ZM141.646 34.6982C140.696 34.6982 139.878 34.483 139.191 34.0526C138.51 33.6179 137.985 33.0192 137.619 32.2564C137.253 31.4936 137.069 30.62 137.069 29.6357C137.069 28.6385 137.257 27.7585 137.632 26.9957C138.007 26.2287 138.535 25.63 139.217 25.1996C139.899 24.7692 140.702 24.554 141.627 24.554C142.373 24.554 143.037 24.6925 143.621 24.9695C144.205 25.2422 144.676 25.6257 145.034 26.12C145.396 26.6143 145.611 27.1918 145.679 27.8523H143.819C143.717 27.392 143.483 26.9957 143.116 26.6634C142.754 26.331 142.268 26.1648 141.659 26.1648C141.126 26.1648 140.659 26.3054 140.259 26.5866C139.863 26.8636 139.554 27.2599 139.332 27.7756C139.11 28.2869 139 28.892 139 29.5909C139 30.3068 139.108 30.9247 139.326 31.4446C139.543 31.9645 139.85 32.3672 140.246 32.6527C140.647 32.9382 141.118 33.081 141.659 33.081C142.021 33.081 142.349 33.0149 142.643 32.8828C142.941 32.7464 143.191 32.5526 143.391 32.3011C143.596 32.0497 143.738 31.7472 143.819 31.3935H145.679C145.611 32.0284 145.405 32.5952 145.059 33.0938C144.714 33.5923 144.252 33.9844 143.672 34.2699C143.097 34.5554 142.422 34.6982 141.646 34.6982ZM148.554 28.6705V34.5H146.643V21.4091H148.529V26.2798H148.65C148.88 25.7514 149.232 25.3317 149.705 25.0206C150.178 24.7095 150.796 24.554 151.559 24.554C152.232 24.554 152.82 24.6925 153.323 24.9695C153.83 25.2464 154.222 25.6598 154.499 26.2095C154.78 26.755 154.921 27.4368 154.921 28.255V34.5H153.01V28.4851C153.01 27.7649 152.824 27.2067 152.454 26.8104C152.083 26.4098 151.567 26.2095 150.907 26.2095C150.455 26.2095 150.05 26.3054 149.692 26.4972C149.339 26.6889 149.059 26.9702 148.855 27.3409C148.655 27.7074 148.554 28.1506 148.554 28.6705ZM162.611 30.4283V24.6818H164.528V34.5H162.649V32.7997H162.547C162.321 33.3239 161.959 33.7607 161.46 34.1101C160.966 34.4553 160.35 34.6278 159.613 34.6278C158.982 34.6278 158.424 34.4893 157.938 34.2124C157.457 33.9311 157.077 33.5156 156.8 32.9659C156.528 32.4162 156.391 31.7365 156.391 30.9268V24.6818H158.303V30.6967C158.303 31.3658 158.488 31.8984 158.859 32.2947C159.229 32.6911 159.711 32.8892 160.303 32.8892C160.661 32.8892 161.017 32.7997 161.371 32.6207C161.729 32.4418 162.025 32.1712 162.259 31.8089C162.498 31.4467 162.615 30.9865 162.611 30.4283ZM166.016 34.5V24.6818H167.864V26.2415H167.966C168.145 25.7131 168.46 25.2976 168.912 24.995C169.368 24.6882 169.884 24.5348 170.459 24.5348C170.578 24.5348 170.719 24.5391 170.881 24.5476C171.047 24.5561 171.177 24.5668 171.271 24.5795V26.4077C171.194 26.3864 171.058 26.3629 170.862 26.3374C170.666 26.3075 170.47 26.2926 170.274 26.2926C169.822 26.2926 169.419 26.3885 169.065 26.5803C168.716 26.7678 168.439 27.0298 168.234 27.3665C168.03 27.6989 167.928 28.0781 167.928 28.5043V34.5H166.016ZM175.725 34.6982C174.757 34.6982 173.924 34.4915 173.225 34.0781C172.531 33.6605 171.994 33.0746 171.615 32.3203C171.24 31.5618 171.052 30.6733 171.052 29.6548C171.052 28.6491 171.24 27.7628 171.615 26.9957C171.994 26.2287 172.522 25.63 173.2 25.1996C173.882 24.7692 174.678 24.554 175.59 24.554C176.144 24.554 176.681 24.6456 177.201 24.8288C177.721 25.0121 178.188 25.2997 178.601 25.6918C179.014 26.0838 179.34 26.593 179.579 27.2195C179.818 27.8416 179.937 28.598 179.937 29.4886V30.1662H172.132V28.7344H178.064C178.064 28.2315 177.962 27.7862 177.757 27.3984C177.553 27.0064 177.265 26.6974 176.894 26.4716C176.528 26.2457 176.097 26.1328 175.603 26.1328C175.066 26.1328 174.597 26.2649 174.197 26.5291C173.801 26.7891 173.494 27.13 173.276 27.5518C173.063 27.9695 172.957 28.4233 172.957 28.9134V30.032C172.957 30.6882 173.072 31.2464 173.302 31.7067C173.536 32.1669 173.862 32.5185 174.28 32.7614C174.698 33 175.186 33.1193 175.744 33.1193C176.106 33.1193 176.436 33.0682 176.735 32.9659C177.033 32.8594 177.291 32.7017 177.508 32.4929C177.725 32.2841 177.892 32.0263 178.007 31.7195L179.816 32.0455C179.671 32.5781 179.411 33.0447 179.036 33.4453C178.665 33.8416 178.198 34.1506 177.636 34.3722C177.078 34.5895 176.441 34.6982 175.725 34.6982Z" fill="#8D191C"/>
<mask id="mask0_361_2157" style="mask-type:alpha" maskUnits="userSpaceOnUse" x="194" y="16" width="25" height="24">
<rect x="194.25" y="16" width="24" height="24" fill="#D9D9D9"/>
</mask>
<g mask="url(#mask0_361_2157)">
<path d="M206.25 32L201.25 27L202.65 25.55L205.25 28.15V20H207.25V28.15L209.85 25.55L211.25 27L206.25 32ZM200.25 36C199.7 36 199.229 35.8042 198.838 35.4125C198.446 35.0208 198.25 34.55 198.25 34V31H200.25V34H212.25V31H214.25V34C214.25 34.55 214.054 35.0208 213.663 35.4125C213.271 35.8042 212.8 36 212.25 36H200.25Z" fill="#8D191C"/>
</g>
</svg>
