<svg width="176" height="20" viewBox="0 0 176 20" fill="none" xmlns="http://www.w3.org/2000/svg">
<path d="M14.6663 6.66669L8.67234 10.4847C8.46894 10.6028 8.2379 10.6651 8.00267 10.6651C7.76745 10.6651 7.53641 10.6028 7.33301 10.4847L1.33301 6.66669" stroke="#F5F5F5" stroke-width="1.33333" stroke-linecap="round" stroke-linejoin="round"/>
<path d="M13.333 4.66669H2.66634C1.92996 4.66669 1.33301 5.26364 1.33301 6.00002V14C1.33301 14.7364 1.92996 15.3334 2.66634 15.3334H13.333C14.0694 15.3334 14.6663 14.7364 14.6663 14V6.00002C14.6663 5.26364 14.0694 4.66669 13.333 4.66669Z" stroke="#F5F5F5" stroke-width="1.33333" stroke-linecap="round" stroke-linejoin="round"/>
<path d="M27.6745 15.179C27.1906 15.179 26.7515 15.0878 26.3571 14.9055C25.9627 14.7199 25.6494 14.4531 25.4174 14.1051C25.1854 13.7538 25.0694 13.3295 25.0694 12.8324C25.0694 12.3949 25.1556 12.0402 25.3279 11.7685C25.5003 11.4934 25.7306 11.2779 26.019 11.1222C26.3074 10.9664 26.6255 10.8504 26.9735 10.7741C27.3249 10.6946 27.6779 10.6316 28.0325 10.5852C28.4965 10.5256 28.8727 10.4808 29.161 10.451C29.4527 10.4179 29.6648 10.3632 29.7974 10.2869C29.9333 10.2107 30.0012 10.0781 30.0012 9.8892V9.84943C30.0012 9.3589 29.867 8.97775 29.5985 8.70597C29.3334 8.43419 28.9307 8.2983 28.3904 8.2983C27.8303 8.2983 27.3912 8.42093 27.073 8.66619C26.7548 8.91146 26.5311 9.1733 26.4018 9.4517L25.2882 9.05398C25.487 8.58996 25.7522 8.22869 26.0836 7.97017C26.4184 7.70833 26.783 7.52604 27.1774 7.4233C27.5751 7.31723 27.9662 7.2642 28.3507 7.2642C28.5959 7.2642 28.8777 7.29403 29.1958 7.35369C29.5173 7.41004 29.8272 7.5277 30.1255 7.70668C30.4271 7.88565 30.6774 8.15578 30.8762 8.51705C31.0751 8.87831 31.1745 9.36222 31.1745 9.96875V15H30.0012V13.9659H29.9416C29.862 14.1316 29.7295 14.3089 29.5439 14.4979C29.3583 14.6868 29.1113 14.8475 28.8031 14.9801C28.4949 15.1127 28.1187 15.179 27.6745 15.179ZM27.8535 14.125C28.3175 14.125 28.7086 14.0339 29.0268 13.8516C29.3483 13.6693 29.5903 13.4339 29.7527 13.1456C29.9184 12.8572 30.0012 12.554 30.0012 12.2358V11.1619C29.9515 11.2216 29.8422 11.2763 29.6731 11.326C29.5074 11.3724 29.3152 11.4138 29.0964 11.4503C28.881 11.4834 28.6705 11.5133 28.465 11.5398C28.2628 11.563 28.0988 11.5829 27.9728 11.5994C27.6679 11.6392 27.3829 11.7038 27.1177 11.7933C26.8559 11.8795 26.6438 12.0104 26.4814 12.1861C26.3223 12.3584 26.2427 12.5937 26.2427 12.892C26.2427 13.2997 26.3935 13.608 26.6951 13.8168C27.0001 14.0223 27.3862 14.125 27.8535 14.125ZM35.6996 15.1591C35.0632 15.1591 34.5014 14.9983 34.0142 14.6768C33.527 14.352 33.1458 13.8946 32.8707 13.3047C32.5956 12.7114 32.4581 12.0104 32.4581 11.2017C32.4581 10.3996 32.5956 9.7036 32.8707 9.11364C33.1458 8.52367 33.5286 8.06794 34.0192 7.74645C34.5097 7.42495 35.0765 7.2642 35.7195 7.2642C36.2166 7.2642 36.6094 7.34706 36.8977 7.51278C37.1894 7.67519 37.4115 7.8608 37.5639 8.0696C37.7197 8.27509 37.8407 8.44413 37.9268 8.5767H38.0263V4.81818H39.1996V15H38.0661V13.8267H37.9268C37.8407 13.9659 37.718 14.1416 37.5589 14.3537C37.3999 14.5625 37.1728 14.7498 36.8778 14.9155C36.5829 15.0779 36.1901 15.1591 35.6996 15.1591ZM35.8587 14.1051C36.3293 14.1051 36.727 13.9825 37.0518 13.7372C37.3767 13.4886 37.6236 13.1456 37.7926 12.7081C37.9616 12.2673 38.0462 11.7585 38.0462 11.1818C38.0462 10.6117 37.9633 10.1129 37.7976 9.68537C37.6319 9.2545 37.3866 8.91974 37.0618 8.68111C36.737 8.43916 36.3359 8.31818 35.8587 8.31818C35.3615 8.31818 34.9472 8.44579 34.6158 8.70099C34.2876 8.95289 34.0407 9.29593 33.875 9.73011C33.7126 10.161 33.6314 10.6449 33.6314 11.1818C33.6314 11.7254 33.7143 12.2192 33.88 12.6634C34.049 13.1042 34.2976 13.4555 34.6257 13.7173C34.9571 13.9759 35.3681 14.1051 35.8587 14.1051ZM41.0114 15V7.36364H42.1449V8.55682H42.2443C42.4034 8.14915 42.6603 7.83262 43.0149 7.60724C43.3696 7.37855 43.7955 7.2642 44.2926 7.2642C44.7964 7.2642 45.2157 7.37855 45.5504 7.60724C45.8885 7.83262 46.152 8.14915 46.3409 8.55682H46.4205C46.616 8.16241 46.9093 7.84919 47.3004 7.61719C47.6915 7.38187 48.1605 7.2642 48.7074 7.2642C49.3902 7.2642 49.9486 7.47798 50.3828 7.90554C50.817 8.32978 51.0341 8.991 51.0341 9.8892V15H49.8608V9.8892C49.8608 9.32576 49.7067 8.92306 49.3984 8.68111C49.0902 8.43916 48.7273 8.31818 48.3097 8.31818C47.7727 8.31818 47.3568 8.48059 47.0618 8.8054C46.7668 9.12689 46.6193 9.53456 46.6193 10.0284V15H45.4261V9.76989C45.4261 9.3357 45.2853 8.98603 45.0036 8.72088C44.7218 8.45241 44.3589 8.31818 43.9148 8.31818C43.6098 8.31818 43.3248 8.39938 43.0597 8.56179C42.7978 8.72419 42.5857 8.94957 42.4233 9.23793C42.2642 9.52296 42.1847 9.85275 42.1847 10.2273V15H41.0114ZM52.6793 15V7.36364H53.8526V15H52.6793ZM53.2759 6.09091C53.0472 6.09091 52.85 6.01302 52.6843 5.85724C52.5219 5.70147 52.4407 5.5142 52.4407 5.29545C52.4407 5.0767 52.5219 4.88944 52.6843 4.73366C52.85 4.57789 53.0472 4.5 53.2759 4.5C53.5046 4.5 53.7002 4.57789 53.8626 4.73366C54.0283 4.88944 54.1112 5.0767 54.1112 5.29545C54.1112 5.5142 54.0283 5.70147 53.8626 5.85724C53.7002 6.01302 53.5046 6.09091 53.2759 6.09091ZM60.9107 9.07386L59.8567 9.37216C59.7904 9.1965 59.6926 9.0258 59.5634 8.86009C59.4374 8.69105 59.2651 8.55185 59.0463 8.44247C58.8276 8.3331 58.5475 8.27841 58.2061 8.27841C57.7388 8.27841 57.3494 8.38613 57.0378 8.60156C56.7296 8.81368 56.5755 9.08381 56.5755 9.41193C56.5755 9.7036 56.6815 9.93395 56.8936 10.103C57.1058 10.272 57.4372 10.4129 57.888 10.5256L59.0215 10.804C59.7042 10.9697 60.213 11.2232 60.5478 11.5646C60.8825 11.9027 61.0499 12.3385 61.0499 12.8722C61.0499 13.3097 60.9239 13.7008 60.6721 14.0455C60.4235 14.3902 60.0755 14.6619 59.628 14.8608C59.1806 15.0597 58.6602 15.1591 58.0669 15.1591C57.2881 15.1591 56.6434 14.9901 56.133 14.652C55.6226 14.3139 55.2994 13.8201 55.1635 13.1705L56.2772 12.892C56.3832 13.303 56.5837 13.6113 56.8787 13.8168C57.177 14.0223 57.5665 14.125 58.0471 14.125C58.5939 14.125 59.0281 14.009 59.3496 13.777C59.6744 13.5417 59.8368 13.2599 59.8368 12.9318C59.8368 12.6667 59.744 12.4446 59.5584 12.2656C59.3728 12.0833 59.0878 11.9474 58.7033 11.858L57.4306 11.5597C56.7312 11.3939 56.2175 11.1371 55.8894 10.7891C55.5646 10.4377 55.4022 9.99858 55.4022 9.47159C55.4022 9.04072 55.5231 8.65956 55.7651 8.32812C56.0104 7.99669 56.3435 7.73651 56.7644 7.54758C57.1886 7.35866 57.6692 7.2642 58.2061 7.2642C58.9618 7.2642 59.5551 7.42992 59.986 7.76136C60.4202 8.0928 60.7284 8.5303 60.9107 9.07386ZM67.7251 9.07386L66.6712 9.37216C66.6049 9.1965 66.5071 9.0258 66.3778 8.86009C66.2519 8.69105 66.0795 8.55185 65.8608 8.44247C65.642 8.3331 65.362 8.27841 65.0206 8.27841C64.5533 8.27841 64.1638 8.38613 63.8523 8.60156C63.544 8.81368 63.3899 9.08381 63.3899 9.41193C63.3899 9.7036 63.496 9.93395 63.7081 10.103C63.9202 10.272 64.2517 10.4129 64.7024 10.5256L65.8359 10.804C66.5187 10.9697 67.0275 11.2232 67.3622 11.5646C67.697 11.9027 67.8643 12.3385 67.8643 12.8722C67.8643 13.3097 67.7384 13.7008 67.4865 14.0455C67.2379 14.3902 66.8899 14.6619 66.4425 14.8608C65.995 15.0597 65.4747 15.1591 64.8814 15.1591C64.1025 15.1591 63.4579 14.9901 62.9474 14.652C62.437 14.3139 62.1139 13.8201 61.978 13.1705L63.0916 12.892C63.1977 13.303 63.3982 13.6113 63.6932 13.8168C63.9915 14.0223 64.3809 14.125 64.8615 14.125C65.4084 14.125 65.8426 14.009 66.1641 13.777C66.4889 13.5417 66.6513 13.2599 66.6513 12.9318C66.6513 12.6667 66.5585 12.4446 66.3729 12.2656C66.1873 12.0833 65.9022 11.9474 65.5178 11.858L64.245 11.5597C63.5457 11.3939 63.032 11.1371 62.7038 10.7891C62.379 10.4377 62.2166 9.99858 62.2166 9.47159C62.2166 9.04072 62.3376 8.65956 62.5795 8.32812C62.8248 7.99669 63.1579 7.73651 63.5788 7.54758C64.0031 7.35866 64.4837 7.2642 65.0206 7.2642C65.7763 7.2642 66.3696 7.42992 66.8004 7.76136C67.2346 8.0928 67.5429 8.5303 67.7251 9.07386ZM69.1305 15V7.36364H70.3038V15H69.1305ZM69.7271 6.09091C69.4984 6.09091 69.3012 6.01302 69.1355 5.85724C68.9731 5.70147 68.8919 5.5142 68.8919 5.29545C68.8919 5.0767 68.9731 4.88944 69.1355 4.73366C69.3012 4.57789 69.4984 4.5 69.7271 4.5C69.9558 4.5 70.1513 4.57789 70.3137 4.73366C70.4795 4.88944 70.5623 5.0767 70.5623 5.29545C70.5623 5.5142 70.4795 5.70147 70.3137 5.85724C70.1513 6.01302 69.9558 6.09091 69.7271 6.09091ZM75.055 15.1591C74.3656 15.1591 73.7608 14.995 73.2404 14.6669C72.7234 14.3388 72.319 13.8797 72.0273 13.2898C71.739 12.6998 71.5948 12.0104 71.5948 11.2216C71.5948 10.4261 71.739 9.73177 72.0273 9.13849C72.319 8.54522 72.7234 8.08452 73.2404 7.75639C73.7608 7.42827 74.3656 7.2642 75.055 7.2642C75.7444 7.2642 76.3477 7.42827 76.8647 7.75639C77.3851 8.08452 77.7894 8.54522 78.0778 9.13849C78.3694 9.73177 78.5153 10.4261 78.5153 11.2216C78.5153 12.0104 78.3694 12.6998 78.0778 13.2898C77.7894 13.8797 77.3851 14.3388 76.8647 14.6669C76.3477 14.995 75.7444 15.1591 75.055 15.1591ZM75.055 14.1051C75.5787 14.1051 76.0096 13.9709 76.3477 13.7024C76.6857 13.4339 76.936 13.081 77.0984 12.6435C77.2608 12.206 77.342 11.732 77.342 11.2216C77.342 10.7112 77.2608 10.2356 77.0984 9.79474C76.936 9.35393 76.6857 8.99763 76.3477 8.72585C76.0096 8.45407 75.5787 8.31818 75.055 8.31818C74.5314 8.31818 74.1005 8.45407 73.7624 8.72585C73.4244 8.99763 73.1741 9.35393 73.0117 9.79474C72.8493 10.2356 72.7681 10.7112 72.7681 11.2216C72.7681 11.732 72.8493 12.206 73.0117 12.6435C73.1741 13.081 73.4244 13.4339 73.7624 13.7024C74.1005 13.9709 74.5314 14.1051 75.055 14.1051ZM80.9796 10.4062V15H79.8063V7.36364H80.9398V8.55682H81.0392C81.2182 8.16903 81.49 7.85748 81.8546 7.62216C82.2192 7.38352 82.6898 7.2642 83.2665 7.2642C83.7836 7.2642 84.236 7.37027 84.6238 7.58239C85.0115 7.79119 85.3132 8.10938 85.5286 8.53693C85.744 8.96117 85.8517 9.49811 85.8517 10.1477V15H84.6784V10.2273C84.6784 9.62737 84.5227 9.16004 84.2111 8.82528C83.8996 8.48722 83.472 8.31818 82.9284 8.31818C82.5539 8.31818 82.2192 8.39938 81.9242 8.56179C81.6325 8.72419 81.4022 8.96117 81.2331 9.27273C81.0641 9.58428 80.9796 9.96212 80.9796 10.4062ZM92.9048 9.07386L91.8509 9.37216C91.7846 9.1965 91.6868 9.0258 91.5575 8.86009C91.4316 8.69105 91.2592 8.55185 91.0405 8.44247C90.8217 8.3331 90.5417 8.27841 90.2003 8.27841C89.733 8.27841 89.3435 8.38613 89.032 8.60156C88.7237 8.81368 88.5696 9.08381 88.5696 9.41193C88.5696 9.7036 88.6757 9.93395 88.8878 10.103C89.0999 10.272 89.4313 10.4129 89.8821 10.5256L91.0156 10.804C91.6984 10.9697 92.2071 11.2232 92.5419 11.5646C92.8767 11.9027 93.044 12.3385 93.044 12.8722C93.044 13.3097 92.9181 13.7008 92.6662 14.0455C92.4176 14.3902 92.0696 14.6619 91.6222 14.8608C91.1747 15.0597 90.6544 15.1591 90.0611 15.1591C89.2822 15.1591 88.6375 14.9901 88.1271 14.652C87.6167 14.3139 87.2936 13.8201 87.1577 13.1705L88.2713 12.892C88.3774 13.303 88.5779 13.6113 88.8729 13.8168C89.1712 14.0223 89.5606 14.125 90.0412 14.125C90.5881 14.125 91.0223 14.009 91.3438 13.777C91.6686 13.5417 91.831 13.2599 91.831 12.9318C91.831 12.6667 91.7382 12.4446 91.5526 12.2656C91.367 12.0833 91.0819 11.9474 90.6974 11.858L89.4247 11.5597C88.7254 11.3939 88.2116 11.1371 87.8835 10.7891C87.5587 10.4377 87.3963 9.99858 87.3963 9.47159C87.3963 9.04072 87.5173 8.65956 87.7592 8.32812C88.0045 7.99669 88.3376 7.73651 88.7585 7.54758C89.1828 7.35866 89.6634 7.2642 90.2003 7.2642C90.956 7.2642 91.5492 7.42992 91.9801 7.76136C92.4143 8.0928 92.7225 8.5303 92.9048 9.07386ZM100.177 17.6847C99.1625 17.6847 98.2659 17.5455 97.487 17.267C96.7082 16.992 96.0536 16.5859 95.5233 16.049C94.993 15.5121 94.5919 14.8542 94.3201 14.0753C94.0484 13.2964 93.9125 12.4048 93.9125 11.4006C93.9125 10.4295 94.05 9.56108 94.3251 8.79545C94.6035 8.02983 95.0062 7.38021 95.5332 6.84659C96.0635 6.30966 96.7065 5.90033 97.4622 5.61861C98.2212 5.33688 99.0796 5.19602 100.037 5.19602C100.969 5.19602 101.784 5.34848 102.483 5.65341C103.186 5.95502 103.773 6.36435 104.243 6.88139C104.717 7.39512 105.072 7.97348 105.307 8.61648C105.546 9.25947 105.665 9.92235 105.665 10.6051C105.665 11.0857 105.642 11.5729 105.596 12.0668C105.549 12.5606 105.452 13.0147 105.302 13.429C105.153 13.84 104.923 14.1714 104.611 14.4233C104.303 14.6752 103.885 14.8011 103.358 14.8011C103.126 14.8011 102.871 14.7647 102.593 14.6918C102.314 14.6188 102.068 14.4979 101.852 14.3288C101.637 14.1598 101.509 13.9328 101.469 13.6477H101.41C101.33 13.84 101.207 14.0223 101.042 14.1946C100.879 14.367 100.666 14.5045 100.4 14.6072C100.139 14.71 99.8187 14.7547 99.4409 14.7415C99.01 14.7249 98.6305 14.6288 98.3024 14.4531C97.9743 14.2741 97.6992 14.0322 97.4771 13.7273C97.2583 13.419 97.0926 13.0627 96.9799 12.6584C96.8706 12.2507 96.8159 11.8116 96.8159 11.3409C96.8159 10.8935 96.8822 10.4841 97.0147 10.1129C97.1473 9.74171 97.3313 9.4169 97.5666 9.13849C97.8052 8.86009 98.0836 8.63802 98.4018 8.4723C98.7233 8.30327 99.0697 8.19886 99.4409 8.15909C99.7723 8.12595 100.074 8.14086 100.346 8.20384C100.617 8.26349 100.841 8.35464 101.017 8.47727C101.193 8.59659 101.304 8.72917 101.35 8.875H101.41V8.31818H102.464V12.8125C102.464 13.0909 102.541 13.3362 102.697 13.5483C102.853 13.7604 103.08 13.8665 103.378 13.8665C103.716 13.8665 103.975 13.7505 104.154 13.5185C104.336 13.2865 104.461 12.9285 104.527 12.4446C104.596 11.9607 104.631 11.3409 104.631 10.5852C104.631 10.1411 104.57 9.7036 104.447 9.27273C104.328 8.83854 104.146 8.43253 103.9 8.05469C103.658 7.67685 103.352 7.34375 102.981 7.0554C102.609 6.76705 102.174 6.54167 101.673 6.37926C101.176 6.21354 100.611 6.13068 99.9778 6.13068C99.1989 6.13068 98.5012 6.25166 97.8848 6.49361C97.2716 6.73224 96.7496 7.08191 96.3187 7.54261C95.8912 8 95.5647 8.55682 95.3393 9.21307C95.1172 9.866 95.0062 10.6084 95.0062 11.4403C95.0062 12.2855 95.1172 13.0362 95.3393 13.6925C95.5647 14.3487 95.8961 14.9022 96.3336 15.353C96.7744 15.8037 97.3197 16.1451 97.9693 16.3771C98.6189 16.6125 99.368 16.7301 100.216 16.7301C100.581 16.7301 100.941 16.6953 101.295 16.6257C101.65 16.5561 101.963 16.4799 102.235 16.397C102.507 16.3142 102.702 16.2528 102.822 16.2131L103.1 17.1278C102.894 17.214 102.626 17.3002 102.295 17.3864C101.966 17.4725 101.615 17.5438 101.241 17.6001C100.869 17.6565 100.515 17.6847 100.177 17.6847ZM99.6 13.7273C100.044 13.7273 100.404 13.6378 100.679 13.4588C100.954 13.2798 101.154 13.0097 101.28 12.6484C101.406 12.2872 101.469 11.8314 101.469 11.2812C101.469 10.7244 101.4 10.2902 101.26 9.97869C101.121 9.66714 100.916 9.44839 100.644 9.32244C100.372 9.1965 100.037 9.13352 99.6397 9.13352C99.2619 9.13352 98.9387 9.23295 98.6703 9.43182C98.4051 9.62737 98.2013 9.8892 98.0588 10.2173C97.9196 10.5421 97.85 10.8968 97.85 11.2812C97.85 11.7055 97.9063 12.1049 98.019 12.4794C98.1317 12.8506 98.3156 13.1522 98.5708 13.3842C98.8261 13.6129 99.1691 13.7273 99.6 13.7273ZM113.166 7.36364L110.342 15H109.149L106.325 7.36364H107.598L109.706 13.4489H109.785L111.893 7.36364H113.166ZM114.214 15V7.36364H115.348V8.55682H115.447C115.607 8.14915 115.863 7.83262 116.218 7.60724C116.573 7.37855 116.999 7.2642 117.496 7.2642C118 7.2642 118.419 7.37855 118.754 7.60724C119.092 7.83262 119.355 8.14915 119.544 8.55682H119.624C119.819 8.16241 120.112 7.84919 120.504 7.61719C120.895 7.38187 121.364 7.2642 121.911 7.2642C122.593 7.2642 123.152 7.47798 123.586 7.90554C124.02 8.32978 124.237 8.991 124.237 9.8892V15H123.064V9.8892C123.064 9.32576 122.91 8.92306 122.602 8.68111C122.293 8.43916 121.93 8.31818 121.513 8.31818C120.976 8.31818 120.56 8.48059 120.265 8.8054C119.97 9.12689 119.822 9.53456 119.822 10.0284V15H118.629V9.76989C118.629 9.3357 118.488 8.98603 118.207 8.72088C117.925 8.45241 117.562 8.31818 117.118 8.31818C116.813 8.31818 116.528 8.39938 116.263 8.56179C116.001 8.72419 115.789 8.94957 115.626 9.23793C115.467 9.52296 115.388 9.85275 115.388 10.2273V15H114.214ZM127.056 4.81818V15H125.882V4.81818H127.056ZM134.114 9.07386L133.06 9.37216C132.994 9.1965 132.896 9.0258 132.767 8.86009C132.641 8.69105 132.468 8.55185 132.249 8.44247C132.031 8.3331 131.751 8.27841 131.409 8.27841C130.942 8.27841 130.552 8.38613 130.241 8.60156C129.933 8.81368 129.779 9.08381 129.779 9.41193C129.779 9.7036 129.885 9.93395 130.097 10.103C130.309 10.272 130.64 10.4129 131.091 10.5256L132.225 10.804C132.907 10.9697 133.416 11.2232 133.751 11.5646C134.086 11.9027 134.253 12.3385 134.253 12.8722C134.253 13.3097 134.127 13.7008 133.875 14.0455C133.627 14.3902 133.279 14.6619 132.831 14.8608C132.384 15.0597 131.863 15.1591 131.27 15.1591C130.491 15.1591 129.847 14.9901 129.336 14.652C128.826 14.3139 128.503 13.8201 128.367 13.1705L129.48 12.892C129.586 13.303 129.787 13.6113 130.082 13.8168C130.38 14.0223 130.77 14.125 131.25 14.125C131.797 14.125 132.231 14.009 132.553 13.777C132.878 13.5417 133.04 13.2599 133.04 12.9318C133.04 12.6667 132.947 12.4446 132.762 12.2656C132.576 12.0833 132.291 11.9474 131.906 11.858L130.634 11.5597C129.934 11.3939 129.421 11.1371 129.093 10.7891C128.768 10.4377 128.605 9.99858 128.605 9.47159C128.605 9.04072 128.726 8.65956 128.968 8.32812C129.213 7.99669 129.547 7.73651 129.968 7.54758C130.392 7.35866 130.872 7.2642 131.409 7.2642C132.165 7.2642 132.758 7.42992 133.189 7.76136C133.623 8.0928 133.932 8.5303 134.114 9.07386ZM136.374 15.0795C136.129 15.0795 135.919 14.9917 135.743 14.8161C135.567 14.6404 135.479 14.4299 135.479 14.1847C135.479 13.9394 135.567 13.7289 135.743 13.5533C135.919 13.3776 136.129 13.2898 136.374 13.2898C136.62 13.2898 136.83 13.3776 137.006 13.5533C137.181 13.7289 137.269 13.9394 137.269 14.1847C137.269 14.3471 137.228 14.4962 137.145 14.6321C137.065 14.768 136.958 14.8774 136.822 14.9602C136.689 15.0398 136.54 15.0795 136.374 15.0795ZM142.076 15.1591C141.341 15.1591 140.706 14.9967 140.172 14.6719C139.642 14.3438 139.233 13.8864 138.944 13.2997C138.659 12.7098 138.517 12.0237 138.517 11.2415C138.517 10.4593 138.659 9.76989 138.944 9.1733C139.233 8.57339 139.634 8.10606 140.147 7.77131C140.664 7.43324 141.268 7.2642 141.957 7.2642C142.355 7.2642 142.748 7.33049 143.135 7.46307C143.523 7.59564 143.876 7.81108 144.194 8.10938C144.512 8.40436 144.766 8.79545 144.955 9.28267C145.144 9.76989 145.238 10.3698 145.238 11.0824V11.5795H139.352V10.5653H144.045C144.045 10.1345 143.959 9.75 143.787 9.41193C143.618 9.07386 143.376 8.80705 143.061 8.61151C142.749 8.41596 142.381 8.31818 141.957 8.31818C141.49 8.31818 141.085 8.43419 140.744 8.66619C140.406 8.89489 140.146 9.19318 139.963 9.56108C139.781 9.92898 139.69 10.3234 139.69 10.7443V11.4205C139.69 11.9972 139.789 12.486 139.988 12.8871C140.19 13.2848 140.471 13.5881 140.828 13.7969C141.186 14.0024 141.602 14.1051 142.076 14.1051C142.385 14.1051 142.663 14.062 142.912 13.9759C143.163 13.8864 143.381 13.7538 143.563 13.5781C143.745 13.3991 143.886 13.1771 143.985 12.9119L145.119 13.2301C145 13.6146 144.799 13.9527 144.517 14.2443C144.236 14.5327 143.888 14.758 143.473 14.9205C143.059 15.0795 142.593 15.1591 142.076 15.1591ZM149.407 15.1591C148.77 15.1591 148.208 14.9983 147.721 14.6768C147.234 14.352 146.853 13.8946 146.578 13.3047C146.303 12.7114 146.165 12.0104 146.165 11.2017C146.165 10.3996 146.303 9.7036 146.578 9.11364C146.853 8.52367 147.236 8.06794 147.726 7.74645C148.217 7.42495 148.783 7.2642 149.426 7.2642C149.924 7.2642 150.316 7.34706 150.605 7.51278C150.896 7.67519 151.118 7.8608 151.271 8.0696C151.427 8.27509 151.548 8.44413 151.634 8.5767H151.733V4.81818H152.907V15H151.773V13.8267H151.634C151.548 13.9659 151.425 14.1416 151.266 14.3537C151.107 14.5625 150.88 14.7498 150.585 14.9155C150.29 15.0779 149.897 15.1591 149.407 15.1591ZM149.566 14.1051C150.036 14.1051 150.434 13.9825 150.759 13.7372C151.084 13.4886 151.331 13.1456 151.5 12.7081C151.669 12.2673 151.753 11.7585 151.753 11.1818C151.753 10.6117 151.67 10.1129 151.505 9.68537C151.339 9.2545 151.094 8.91974 150.769 8.68111C150.444 8.43916 150.043 8.31818 149.566 8.31818C149.069 8.31818 148.654 8.44579 148.323 8.70099C147.995 8.95289 147.748 9.29593 147.582 9.73011C147.42 10.161 147.338 10.6449 147.338 11.1818C147.338 11.7254 147.421 12.2192 147.587 12.6634C147.756 13.1042 148.005 13.4555 148.333 13.7173C148.664 13.9759 149.075 14.1051 149.566 14.1051ZM159.531 11.8778V7.36364H160.704V15H159.531V13.7074H159.451C159.272 14.0952 158.994 14.425 158.616 14.6967C158.238 14.9652 157.761 15.0994 157.184 15.0994C156.707 15.0994 156.283 14.995 155.912 14.7862C155.54 14.5741 155.249 14.2559 155.037 13.8317C154.824 13.4041 154.718 12.8655 154.718 12.2159V7.36364H155.892V12.1364C155.892 12.6932 156.047 13.1373 156.359 13.4688C156.674 13.8002 157.075 13.9659 157.562 13.9659C157.854 13.9659 158.15 13.8913 158.452 13.7422C158.757 13.593 159.012 13.3643 159.218 13.0561C159.426 12.7479 159.531 12.3551 159.531 11.8778ZM163.208 15.0795C162.963 15.0795 162.753 14.9917 162.577 14.8161C162.401 14.6404 162.313 14.4299 162.313 14.1847C162.313 13.9394 162.401 13.7289 162.577 13.5533C162.753 13.3776 162.963 13.2898 163.208 13.2898C163.454 13.2898 163.664 13.3776 163.84 13.5533C164.015 13.7289 164.103 13.9394 164.103 14.1847C164.103 14.3471 164.062 14.4962 163.979 14.6321C163.899 14.768 163.792 14.8774 163.656 14.9602C163.523 15.0398 163.374 15.0795 163.208 15.0795ZM165.709 15V7.36364H166.882V15H165.709ZM166.305 6.09091C166.077 6.09091 165.879 6.01302 165.714 5.85724C165.551 5.70147 165.47 5.5142 165.47 5.29545C165.47 5.0767 165.551 4.88944 165.714 4.73366C165.879 4.57789 166.077 4.5 166.305 4.5C166.534 4.5 166.729 4.57789 166.892 4.73366C167.058 4.88944 167.14 5.0767 167.14 5.29545C167.14 5.5142 167.058 5.70147 166.892 5.85724C166.729 6.01302 166.534 6.09091 166.305 6.09091ZM169.704 10.4062V15H168.531V7.36364H169.664V8.55682H169.764C169.943 8.16903 170.215 7.85748 170.579 7.62216C170.944 7.38352 171.414 7.2642 171.991 7.2642C172.508 7.2642 172.961 7.37027 173.348 7.58239C173.736 7.79119 174.038 8.10938 174.253 8.53693C174.469 8.96117 174.576 9.49811 174.576 10.1477V15H173.403V10.2273C173.403 9.62737 173.247 9.16004 172.936 8.82528C172.624 8.48722 172.197 8.31818 171.653 8.31818C171.279 8.31818 170.944 8.39938 170.649 8.56179C170.357 8.72419 170.127 8.96117 169.958 9.27273C169.789 9.58428 169.704 9.96212 169.704 10.4062Z" fill="#F5F5F5"/>
</svg>
