<svg width="28" height="28" viewBox="0 0 28 28" fill="none" xmlns="http://www.w3.org/2000/svg">
<path d="M4.66699 22.75V5.25004C4.66699 4.47649 4.97428 3.73463 5.52126 3.18765C6.06825 2.64066 6.81011 2.33337 7.58366 2.33337H22.167C22.4764 2.33337 22.7732 2.45629 22.992 2.67508C23.2107 2.89388 23.3337 3.19062 23.3337 3.50004V24.5C23.3337 24.8095 23.2107 25.1062 22.992 25.325C22.7732 25.5438 22.4764 25.6667 22.167 25.6667H7.58366C6.81011 25.6667 6.06825 25.3594 5.52126 24.8124C4.97428 24.2655 4.66699 23.5236 4.66699 22.75ZM4.66699 22.75C4.66699 21.9765 4.97428 21.2346 5.52126 20.6876C6.06825 20.1407 6.81011 19.8334 7.58366 19.8334H23.3337" stroke="#8D191C" stroke-width="2.33333" stroke-linecap="round" stroke-linejoin="round"/>
</svg>
