<svg width="92" height="39" viewBox="0 0 92 39" fill="none" xmlns="http://www.w3.org/2000/svg">
<path d="M12.1509 12.5145C11.7458 11.4647 11.2761 10.3413 10.742 9.14417C10.2079 7.92863 9.58173 6.5105 8.86345 4.88978L8.39381 3.86762L8.31094 3.70187C8.01626 2.98359 7.70317 2.41266 7.37166 1.98906C7.05856 1.54704 6.54288 1.14187 5.8246 0.77352L5.74173 0.386758L6.54288 0.469634C7.8505 0.580139 8.76216 0.635391 9.27784 0.635391C9.92245 0.635391 11.0275 0.589347 12.5929 0.49726L12.7863 0.856397C12.3812 1.11424 12.1786 1.59309 12.1786 2.29294C12.1786 2.90071 12.2706 3.45323 12.4548 3.9505C12.8968 5.1292 13.4125 6.46445 14.0019 7.95625C14.6096 9.44805 15.1898 10.8846 15.7423 12.2659C16.2212 13.4999 16.9947 15.3508 18.0629 17.8187L18.1734 18.0397C18.7627 16.5479 19.4258 14.9088 20.1624 13.1223C20.5308 12.1646 20.936 11.078 21.378 9.86244C21.8384 8.62848 22.3725 7.14589 22.9803 5.41467C23.1276 5.00949 23.2842 4.55827 23.4499 4.061C23.7078 3.43481 23.8367 2.85467 23.8367 2.32057C23.8367 1.91539 23.7446 1.59309 23.5604 1.35366C23.3763 1.11424 23.0263 0.939275 22.5106 0.828771L22.704 0.386758C24.1222 0.534095 25.2088 0.607764 25.9639 0.607764C26.3322 0.607764 26.9492 0.580138 27.8148 0.524887C28.5515 0.469635 29.1317 0.4328 29.5553 0.414383L29.3895 0.77352C28.7817 1.03136 28.2568 1.43654 27.8148 1.98906C27.3728 2.54158 26.9492 3.21381 26.544 4.00575C26.1204 4.92661 25.6968 5.90273 25.2732 6.9341C24.8496 7.94705 24.3524 9.19021 23.7814 10.6636C23.4868 11.4371 23.2658 11.9988 23.1184 12.3488C22.879 12.9381 22.483 13.8682 21.9305 15.139C21.3412 16.4834 20.7794 17.7911 20.2453 19.0619C19.7296 20.3142 19.1495 21.7508 18.5049 23.3715C18.4681 23.4452 18.376 23.5281 18.2286 23.6201C18.0813 23.7122 17.8971 23.7583 17.6761 23.7583C17.4551 23.7583 17.2617 23.703 17.096 23.5925C16.9302 23.482 16.8197 23.3715 16.7645 23.261C16.4698 22.4875 16.1014 21.585 15.6594 20.5537C15.2174 19.5039 14.6096 18.1042 13.8361 16.3545C13.4125 15.4152 13.081 14.6693 12.8416 14.1168C12.6022 13.5643 12.3719 13.0302 12.1509 12.5145ZM34.9242 23.2058C34.2612 23.2058 33.0364 23.2886 31.2499 23.4544L31.2223 22.9847C31.4433 22.8742 31.6643 22.6993 31.8853 22.4599C32.1063 22.2204 32.3089 21.935 32.4931 21.6034C32.6957 21.2719 32.8522 20.9312 32.9627 20.5813C33.0917 20.2314 33.1561 19.9183 33.1561 19.642C33.193 18.2423 33.2114 17.0912 33.2114 16.1888C33.2114 15.2679 33.2114 13.9695 33.2114 12.2935C33.2114 10.8938 33.193 9.46647 33.1561 8.0115C33.1193 6.55654 33.064 5.14762 32.9904 3.78474C32.9535 3.1033 32.8246 2.51395 32.6036 2.01668C32.401 1.501 31.9958 1.04057 31.3881 0.635391V0.30388C32.2537 0.377549 32.9351 0.4328 33.4324 0.469634C33.9296 0.50647 34.4085 0.524887 34.8689 0.524887C35.2373 0.524887 35.8358 0.497261 36.6646 0.442009C37.3829 0.386757 37.9262 0.349922 38.2945 0.331505V0.663017C37.7973 0.920858 37.4381 1.34446 37.2171 1.93381C36.9961 2.50474 36.858 3.14935 36.8027 3.86762C36.7475 4.56748 36.7106 5.29496 36.6922 6.05007C36.6922 6.80517 36.6922 7.76287 36.6922 8.92316V12.2106C36.6922 13.5183 36.7106 14.697 36.7475 15.7468C36.7843 16.7781 36.8396 18.0673 36.9132 19.6144C36.9685 20.5352 37.2816 21.1706 37.8525 21.5206C38.4419 21.8521 39.243 22.0178 40.256 22.0178C40.9374 22.0178 41.6281 21.9165 42.3279 21.714C43.0278 21.5114 43.6447 21.1983 44.1788 20.7747C44.4919 20.5352 44.8787 20.0564 45.3391 19.3381C45.6154 18.9145 45.8456 18.6014 46.0298 18.3988C46.2324 18.1778 46.4534 18.0673 46.6928 18.0673C46.9875 18.0673 47.1809 18.1226 47.2729 18.2331C47.365 18.3436 47.4111 18.4541 47.4111 18.5646C47.4111 18.7119 47.365 18.9053 47.2729 19.1447C47.1993 19.3842 47.0612 19.7249 46.8586 20.1669C46.4902 20.9957 46.2508 21.6127 46.1403 22.0178C46.0666 22.2941 45.9009 22.5611 45.643 22.819C45.4036 23.0768 45.0445 23.215 44.5656 23.2334C44.4919 23.2334 44.1328 23.2518 43.4882 23.2886C42.3832 23.3623 41.5544 23.3991 41.0019 23.3991C40.3573 23.3991 39.7955 23.3899 39.3167 23.3715C38.8563 23.3531 38.2669 23.3255 37.5486 23.2886C36.4436 23.2334 35.5688 23.2058 34.9242 23.2058ZM61.8642 3.78474L68.4391 20.2498C68.7154 20.9681 69.0469 21.5482 69.4337 21.9902C69.8388 22.4322 70.3361 22.7822 70.9255 23.04V23.482C70.1704 23.3531 69.5073 23.261 68.9364 23.2058C68.3839 23.1505 67.8682 23.1229 67.3894 23.1229C66.8184 23.1229 66.2475 23.1505 65.6765 23.2058C65.1056 23.2426 64.415 23.3255 63.6046 23.4544V23.0676C63.6046 22.9387 63.7243 22.7177 63.9637 22.4046C64.3137 21.9442 64.4886 21.5758 64.4886 21.2996C64.4886 21.1154 64.461 20.922 64.4058 20.7194C64.3689 20.4984 64.3321 20.3511 64.2953 20.2774L62.1681 14.476C61.0078 14.3839 59.9764 14.3378 59.074 14.3378C57.8032 14.3378 56.7165 14.3839 55.8141 14.476L53.383 20.7747V20.8023C53.2541 21.097 53.1712 21.3272 53.1344 21.4929C53.0976 21.6403 53.0791 21.8152 53.0791 22.0178C53.0791 22.4414 53.2449 22.8098 53.5764 23.1229V23.4544C52.9502 23.3623 52.4253 23.2978 52.0017 23.261C51.5781 23.2242 51.1822 23.2058 50.8138 23.2058C50.3902 23.2058 49.9482 23.2242 49.4878 23.261C49.0273 23.2978 48.4288 23.3715 47.6921 23.482L48.0512 23.04C48.7327 22.8006 49.3128 22.4506 49.7917 21.9902C50.2889 21.5298 50.7033 20.9036 51.0348 20.1116L57.6098 4.14388C57.6466 4.07021 57.665 3.94129 57.665 3.75712C57.665 3.2046 57.4717 2.66129 57.0849 2.12719C56.7165 1.57467 56.2193 1.07741 55.5931 0.635391L55.4826 0.30388C56.9007 0.4328 58.1899 0.49726 59.3502 0.49726H60.5381L61.8642 3.78474ZM59.0187 13.0394C59.5712 13.0394 60.4184 13.021 61.5603 12.9842V12.9013L59.1292 6.49208L56.5324 12.9013V12.9842C57.6374 13.021 58.4662 13.0394 59.0187 13.0394ZM86.2591 -4.71099e-06C86.2039 0.349923 85.9552 0.957693 85.5132 1.8233C85.0712 2.72575 84.8042 3.37956 84.7121 3.78474C84.6937 3.89525 84.574 3.99654 84.3529 4.08863C84.1504 4.1623 83.9846 4.19913 83.8557 4.19913C83.5978 4.19913 83.4229 4.11625 83.3308 3.9505C83.2387 3.78474 83.1742 3.54532 83.1374 3.23222C83.119 3.06647 83.1006 2.96517 83.0822 2.92834C83.0269 2.6705 82.9164 2.48633 82.7506 2.37582C82.6033 2.2469 82.4375 2.17323 82.2534 2.15482C81.8114 2.1364 81.1115 2.12719 80.1538 2.12719H77.9714L77.8332 3.92287C77.7411 5.11999 77.6951 6.63021 77.6951 8.45352C77.6951 9.06129 77.7043 9.73352 77.7227 10.4702C77.7227 11.5016 77.7227 12.1001 77.7227 12.2659C77.7227 14.8075 77.7964 17.5332 77.9437 20.4432C77.999 21.6955 78.5423 22.5704 79.5737 23.0676V23.4544C78.7081 23.3807 78.0082 23.3347 77.4741 23.3163C76.9584 23.2794 76.4519 23.261 75.9547 23.261C75.4942 23.261 75.0062 23.2794 74.4905 23.3163C73.9932 23.3347 73.3578 23.3807 72.5843 23.4544V23.0676C73.0816 22.8098 73.4683 22.4875 73.7446 22.1007C74.0209 21.6955 74.1682 21.1983 74.1866 20.6089C74.2234 18.7672 74.2419 16.0138 74.2419 12.3488C74.2419 10.415 74.2419 8.79424 74.2419 7.48661C74.2419 6.17899 74.2234 4.85294 74.1866 3.50848L74.159 2.12719C73.2013 2.12719 72.3449 2.15481 71.5898 2.21007C70.8347 2.26532 70.0888 2.37582 69.3521 2.54158C69.1311 2.59683 68.864 2.69812 68.5509 2.84546C68.2563 2.9928 67.9432 3.2046 67.6117 3.48086C67.5748 3.49928 67.5104 3.55453 67.4183 3.64661C67.2157 3.83079 67.0223 3.97812 66.8381 4.08863C66.654 4.19913 66.4422 4.25438 66.2027 4.25438C66.037 4.25438 65.8712 4.21755 65.7055 4.14388C65.5397 4.05179 65.4568 3.98733 65.4568 3.9505C65.4752 3.80316 65.641 3.50848 65.9541 3.06647C66.2856 2.60604 66.5066 2.25611 66.6171 2.01668C66.6355 1.96143 66.7 1.8233 66.8105 1.6023C67.1236 1.01294 67.3262 0.524887 67.4183 0.138125H68.5786C68.7627 0.340714 68.9285 0.469635 69.0758 0.524887C69.2232 0.580138 69.481 0.616973 69.8493 0.635391C71.3596 0.653808 73.6157 0.663017 76.6177 0.663017C77.6122 0.663017 79.1685 0.626182 81.2865 0.552513C82.0416 0.534096 82.8059 0.515678 83.5794 0.49726C83.8741 0.478843 84.2701 0.377548 84.7673 0.193376C85.0068 0.101289 85.1909 0.0368293 85.3199 -4.71099e-06H86.2591Z" fill="#8D191C"/>
<path d="M1.87186 32.3486L3.36303 36.5769H3.42189L4.91306 32.3486H5.55073L3.70639 37.3715H3.07853L1.23419 32.3486H1.87186ZM6.05685 32.3486H6.78281L8.48981 36.518H8.54867L10.2557 32.3486H10.9816V37.3715H10.4126V33.5553H10.3636L8.79393 37.3715H8.24455L6.6749 33.5553H6.62585V37.3715H6.05685V32.3486ZM11.9249 37.3715V32.3486H13.6221C14.0145 32.3486 14.3366 32.4157 14.5884 32.5497C14.8402 32.6822 15.0266 32.8645 15.1476 33.0967C15.2686 33.3288 15.3291 33.5929 15.3291 33.8888C15.3291 34.1848 15.2686 34.4472 15.1476 34.6761C15.0266 34.905 14.841 35.0849 14.5909 35.2157C14.3407 35.3449 14.0211 35.4094 13.6319 35.4094H12.2585V34.8601H13.6123C13.8805 34.8601 14.0963 34.8208 14.2598 34.7423C14.4249 34.6639 14.5443 34.5527 14.6179 34.4088C14.6931 34.2633 14.7307 34.0899 14.7307 33.8888C14.7307 33.6877 14.6931 33.512 14.6179 33.3615C14.5426 33.2111 14.4225 33.095 14.2573 33.0133C14.0922 32.9299 13.8739 32.8882 13.6025 32.8882H12.5332V37.3715H11.9249ZM14.2892 35.1151L15.5253 37.3715H14.819L13.6025 35.1151H14.2892ZM16.0664 37.3715V32.3486H19.0782V32.8882H16.6746V34.5854H18.8525V35.1249H16.6746V37.3715H16.0664ZM21.5098 37.3715V32.3486H22.1181V36.8319H24.4529V37.3715H21.5098ZM25.6415 37.3715H25.0038L26.8481 32.3486H27.476L29.3203 37.3715H28.6827L27.1817 33.1433H27.1424L25.6415 37.3715ZM25.8769 35.4094H28.4472V35.949H25.8769V35.4094ZM30.3476 37.3715L28.9742 32.3486H29.5922L30.6419 36.4395H30.691L31.7603 32.3486H32.447L33.5164 36.4395H33.5654L34.6151 32.3486H35.2332L33.8597 37.3715H33.2319L32.1233 33.3689H32.0841L30.9755 37.3715H30.3476ZM37.587 37.3715H36.9493L38.7936 32.3486H39.4215L41.2658 37.3715H40.6282L39.1272 33.1433H39.0879L37.587 37.3715ZM37.8224 35.4094H40.3927V35.949H37.8224V35.4094ZM43.322 37.3715H41.772V32.3486H43.3907C43.8779 32.3486 44.2948 32.4492 44.6415 32.6503C44.9881 32.8498 45.2538 33.1367 45.4386 33.5111C45.6233 33.8839 45.7157 34.3303 45.7157 34.8502C45.7157 35.3735 45.6225 35.8239 45.4361 36.2016C45.2497 36.5777 44.9783 36.8671 44.6219 37.0698C44.2654 37.2709 43.8321 37.3715 43.322 37.3715ZM42.3802 36.8319H43.2827C43.6981 36.8319 44.0422 36.7518 44.3153 36.5916C44.5883 36.4313 44.7919 36.2033 44.926 35.9073C45.0601 35.6114 45.1271 35.259 45.1271 34.8502C45.1271 34.4448 45.0609 34.0957 44.9284 33.803C44.796 33.5087 44.5981 33.283 44.3349 33.1261C44.0717 32.9675 43.7438 32.8882 43.3514 32.8882H42.3802V36.8319ZM46.4597 32.3486H47.1857L48.8927 36.518H48.9516L50.6585 32.3486H51.3845V37.3715H50.8155V33.5553H50.7665L49.1968 37.3715H48.6474L47.0778 33.5553H47.0287V37.3715H46.4597V32.3486ZM52.936 32.3486V37.3715H52.3278V32.3486H52.936ZM56.6262 33.6043C56.5968 33.3558 56.4774 33.1629 56.2681 33.0255C56.0589 32.8882 55.8022 32.8195 55.498 32.8195C55.2757 32.8195 55.0811 32.8555 54.9143 32.9274C54.7492 32.9994 54.62 33.0983 54.5268 33.2242C54.4352 33.3501 54.3895 33.4932 54.3895 33.6534C54.3895 33.7875 54.4213 33.9027 54.4851 33.9992C54.5505 34.094 54.6339 34.1733 54.7353 34.2371C54.8367 34.2992 54.9429 34.3507 55.0541 34.3916C55.1653 34.4309 55.2675 34.4627 55.3607 34.4873L55.8708 34.6246C56.0016 34.6589 56.1472 34.7064 56.3074 34.7669C56.4693 34.8274 56.6238 34.9099 56.7709 35.0146C56.9197 35.1176 57.0423 35.25 57.1388 35.4119C57.2353 35.5738 57.2835 35.7724 57.2835 36.0079C57.2835 36.2793 57.2124 36.5245 57.0701 36.7436C56.9295 36.9627 56.7235 37.1369 56.4521 37.266C56.1823 37.3952 55.8545 37.4598 55.4686 37.4598C55.1089 37.4598 54.7974 37.4018 54.5342 37.2857C54.2726 37.1696 54.0665 37.0077 53.9161 36.8001C53.7673 36.5924 53.6831 36.3512 53.6635 36.0765H54.2914C54.3077 36.2662 54.3715 36.4232 54.4827 36.5474C54.5955 36.6701 54.7377 36.7616 54.9094 36.8221C55.0827 36.881 55.2691 36.9104 55.4686 36.9104C55.7008 36.9104 55.9092 36.8728 56.094 36.7976C56.2788 36.7208 56.4251 36.6145 56.533 36.4788C56.6409 36.3414 56.6949 36.1812 56.6949 35.9981C56.6949 35.8313 56.6483 35.6956 56.5551 35.5909C56.4619 35.4863 56.3393 35.4013 56.1872 35.3359C56.0351 35.2705 55.8708 35.2132 55.6942 35.1642L55.0762 34.9876C54.6838 34.8748 54.3731 34.7137 54.1442 34.5044C53.9153 34.2951 53.8008 34.0213 53.8008 33.6828C53.8008 33.4016 53.8769 33.1563 54.0289 32.947C54.1826 32.7361 54.3886 32.5726 54.647 32.4565C54.907 32.3388 55.1972 32.2799 55.5177 32.2799C55.8414 32.2799 56.1292 32.338 56.381 32.4541C56.6328 32.5685 56.8322 32.7255 56.9794 32.925C57.1282 33.1244 57.2067 33.3509 57.2148 33.6043H56.6262ZM60.7542 33.6043C60.7248 33.3558 60.6054 33.1629 60.3961 33.0255C60.1868 32.8882 59.9301 32.8195 59.626 32.8195C59.4036 32.8195 59.2091 32.8555 59.0423 32.9274C58.8771 32.9994 58.748 33.0983 58.6548 33.2242C58.5632 33.3501 58.5174 33.4932 58.5174 33.6534C58.5174 33.7875 58.5493 33.9027 58.6131 33.9992C58.6785 34.094 58.7619 34.1733 58.8632 34.2371C58.9646 34.2992 59.0709 34.3507 59.1821 34.3916C59.2933 34.4309 59.3955 34.4627 59.4887 34.4873L59.9988 34.6246C60.1296 34.6589 60.2751 34.7064 60.4354 34.7669C60.5972 34.8274 60.7517 34.9099 60.8989 35.0146C61.0477 35.1176 61.1703 35.25 61.2668 35.4119C61.3632 35.5738 61.4115 35.7724 61.4115 36.0079C61.4115 36.2793 61.3404 36.5245 61.1981 36.7436C61.0575 36.9627 60.8515 37.1369 60.5801 37.266C60.3103 37.3952 59.9824 37.4598 59.5966 37.4598C59.2369 37.4598 58.9254 37.4018 58.6621 37.2857C58.4005 37.1696 58.1945 37.0077 58.0441 36.8001C57.8953 36.5924 57.8111 36.3512 57.7915 36.0765H58.4193C58.4357 36.2662 58.4994 36.4232 58.6106 36.5474C58.7235 36.6701 58.8657 36.7616 59.0374 36.8221C59.2107 36.881 59.3971 36.9104 59.5966 36.9104C59.8287 36.9104 60.0372 36.8728 60.222 36.7976C60.4067 36.7208 60.5531 36.6145 60.661 36.4788C60.7689 36.3414 60.8229 36.1812 60.8229 35.9981C60.8229 35.8313 60.7763 35.6956 60.6831 35.5909C60.5899 35.4863 60.4672 35.4013 60.3152 35.3359C60.1631 35.2705 59.9988 35.2132 59.8222 35.1642L59.2042 34.9876C58.8117 34.8748 58.5011 34.7137 58.2722 34.5044C58.0433 34.2951 57.9288 34.0213 57.9288 33.6828C57.9288 33.4016 58.0048 33.1563 58.1569 32.947C58.3106 32.7361 58.5166 32.5726 58.775 32.4565C59.0349 32.3388 59.3252 32.2799 59.6456 32.2799C59.9694 32.2799 60.2571 32.338 60.5089 32.4541C60.7607 32.5685 60.9602 32.7255 61.1074 32.925C61.2562 33.1244 61.3346 33.3509 61.3428 33.6043H60.7542ZM62.7435 32.3486V37.3715H62.1353V32.3486H62.7435ZM67.9249 34.8601C67.9249 35.3898 67.8292 35.8476 67.6379 36.2335C67.4466 36.6194 67.1842 36.917 66.8506 37.1262C66.5171 37.3355 66.1361 37.4402 65.7077 37.4402C65.2793 37.4402 64.8984 37.3355 64.5648 37.1262C64.2313 36.917 63.9688 36.6194 63.7775 36.2335C63.5862 35.8476 63.4906 35.3898 63.4906 34.8601C63.4906 34.3303 63.5862 33.8725 63.7775 33.4866C63.9688 33.1007 64.2313 32.8032 64.5648 32.5939C64.8984 32.3846 65.2793 32.2799 65.7077 32.2799C66.1361 32.2799 66.5171 32.3846 66.8506 32.5939C67.1842 32.8032 67.4466 33.1007 67.6379 33.4866C67.8292 33.8725 67.9249 34.3303 67.9249 34.8601ZM67.3362 34.8601C67.3362 34.4251 67.2635 34.0581 67.118 33.7589C66.9741 33.4596 66.7787 33.2332 66.5318 33.0795C66.2865 32.9258 66.0118 32.8489 65.7077 32.8489C65.4036 32.8489 65.1281 32.9258 64.8812 33.0795C64.6359 33.2332 64.4406 33.4596 64.295 33.7589C64.1511 34.0581 64.0792 34.4251 64.0792 34.8601C64.0792 35.295 64.1511 35.6621 64.295 35.9613C64.4406 36.2605 64.6359 36.4869 64.8812 36.6406C65.1281 36.7943 65.4036 36.8712 65.7077 36.8712C66.0118 36.8712 66.2865 36.7943 66.5318 36.6406C66.7787 36.4869 66.9741 36.2605 67.118 35.9613C67.2635 35.6621 67.3362 35.295 67.3362 34.8601ZM72.6543 32.3486V37.3715H72.0657L69.3286 33.4278H69.2796V37.3715H68.6713V32.3486H69.2599L72.0068 36.3022H72.0559V32.3486H72.6543ZM74.9867 32.8882V32.3486H78.7538V32.8882H77.1744V37.3715H76.5661V32.8882H74.9867ZM79.4163 37.3715V32.3486H82.4477V32.8882H80.0245V34.5854H82.2907V35.1249H80.0245V36.8319H82.4869V37.3715H79.4163ZM86.0146 33.6043C85.9852 33.3558 85.8658 33.1629 85.6565 33.0255C85.4473 32.8882 85.1906 32.8195 84.8864 32.8195C84.6641 32.8195 84.4695 32.8555 84.3027 32.9274C84.1376 32.9994 84.0084 33.0983 83.9152 33.2242C83.8236 33.3501 83.7779 33.4932 83.7779 33.6534C83.7779 33.7875 83.8097 33.9027 83.8735 33.9992C83.9389 34.094 84.0223 34.1733 84.1237 34.2371C84.2251 34.2992 84.3313 34.3507 84.4425 34.3916C84.5537 34.4309 84.6559 34.4627 84.7491 34.4873L85.2592 34.6246C85.39 34.6589 85.5355 34.7064 85.6958 34.7669C85.8577 34.8274 86.0122 34.9099 86.1593 35.0146C86.3081 35.1176 86.4307 35.25 86.5272 35.4119C86.6237 35.5738 86.6719 35.7724 86.6719 36.0079C86.6719 36.2793 86.6008 36.5245 86.4585 36.7436C86.3179 36.9627 86.1119 37.1369 85.8405 37.266C85.5707 37.3952 85.2429 37.4598 84.857 37.4598C84.4973 37.4598 84.1858 37.4018 83.9226 37.2857C83.661 37.1696 83.4549 37.0077 83.3045 36.8001C83.1557 36.5924 83.0715 36.3512 83.0519 36.0765H83.6798C83.6961 36.2662 83.7599 36.4232 83.8711 36.5474C83.9839 36.6701 84.1261 36.7616 84.2978 36.8221C84.4711 36.881 84.6575 36.9104 84.857 36.9104C85.0892 36.9104 85.2976 36.8728 85.4824 36.7976C85.6672 36.7208 85.8135 36.6145 85.9214 36.4788C86.0293 36.3414 86.0833 36.1812 86.0833 35.9981C86.0833 35.8313 86.0367 35.6956 85.9435 35.5909C85.8503 35.4863 85.7277 35.4013 85.5756 35.3359C85.4235 35.2705 85.2592 35.2132 85.0826 35.1642L84.4646 34.9876C84.0722 34.8748 83.7615 34.7137 83.5326 34.5044C83.3037 34.2951 83.1892 34.0213 83.1892 33.6828C83.1892 33.4016 83.2653 33.1563 83.4173 32.947C83.571 32.7361 83.777 32.5726 84.0354 32.4565C84.2954 32.3388 84.5856 32.2799 84.9061 32.2799C85.2298 32.2799 85.5176 32.338 85.7694 32.4541C86.0212 32.5685 86.2206 32.7255 86.3678 32.925C86.5166 33.1244 86.5951 33.3509 86.6032 33.6043H86.0146ZM87.121 32.8882V32.3486H90.8882V32.8882H89.3087V37.3715H88.7005V32.8882H87.121Z" fill="#8D191C"/>
</svg>
