<svg width="24" height="24" viewBox="0 0 24 24" fill="none" xmlns="http://www.w3.org/2000/svg">
<path d="M21.42 10.9219C21.5991 10.8429 21.751 10.7131 21.857 10.5487C21.963 10.3842 22.0184 10.1923 22.0164 9.99661C22.0143 9.80095 21.955 9.61019 21.8456 9.44795C21.7362 9.28571 21.5817 9.15912 21.401 9.08387L12.83 5.17987C12.5695 5.06102 12.2864 4.99951 12 4.99951C11.7137 4.99951 11.4306 5.06102 11.17 5.17987L2.60004 9.07987C2.42201 9.15784 2.27056 9.286 2.16421 9.44868C2.05786 9.61136 2.00122 9.80151 2.00122 9.99587C2.00122 10.1902 2.05786 10.3804 2.16421 10.5431C2.27056 10.7057 2.42201 10.8339 2.60004 10.9119L11.17 14.8199C11.4306 14.9387 11.7137 15.0002 12 15.0002C12.2864 15.0002 12.5695 14.9387 12.83 14.8199L21.42 10.9219Z" stroke="#8D191C" stroke-width="2" stroke-linecap="round" stroke-linejoin="round"/>
<path d="M22 10V16" stroke="#8D191C" stroke-width="2" stroke-linecap="round" stroke-linejoin="round"/>
<path d="M6 12.5V16C6 16.7956 6.63214 17.5587 7.75736 18.1213C8.88258 18.6839 10.4087 19 12 19C13.5913 19 15.1174 18.6839 16.2426 18.1213C17.3679 17.5587 18 16.7956 18 16V12.5" stroke="#8D191C" stroke-width="2" stroke-linecap="round" stroke-linejoin="round"/>
</svg>
