<svg width="28" height="28" viewBox="0 0 28 28" fill="none" xmlns="http://www.w3.org/2000/svg">
<path d="M24.9903 12.7423C25.1991 12.6502 25.3763 12.4988 25.5 12.3069C25.6237 12.115 25.6883 11.8911 25.686 11.6628C25.6836 11.4346 25.6143 11.212 25.4867 11.0227C25.3591 10.8335 25.1788 10.6858 24.9681 10.598L14.9686 6.0433C14.6646 5.90464 14.3344 5.83289 14.0003 5.83289C13.6661 5.83289 13.3359 5.90464 13.0319 6.0433L3.03359 10.5933C2.82588 10.6843 2.64919 10.8338 2.52511 11.0236C2.40104 11.2134 2.33496 11.4352 2.33496 11.662C2.33496 11.8887 2.40104 12.1106 2.52511 12.3004C2.64919 12.4901 2.82588 12.6397 3.03359 12.7306L13.0319 17.29C13.3359 17.4286 13.6661 17.5004 14.0003 17.5004C14.3344 17.5004 14.6646 17.4286 14.9686 17.29L24.9903 12.7423Z" stroke="#FFF6E2" stroke-width="2.33333" stroke-linecap="round" stroke-linejoin="round"/>
<path d="M25.667 11.6667V18.6667" stroke="#FFF6E2" stroke-width="2.33333" stroke-linecap="round" stroke-linejoin="round"/>
<path d="M7 14.5833V18.6666C7 19.5949 7.7375 20.4851 9.05025 21.1415C10.363 21.7979 12.1435 22.1666 14 22.1666C15.8565 22.1666 17.637 21.7979 18.9497 21.1415C20.2625 20.4851 21 19.5949 21 18.6666V14.5833" stroke="#FFF6E2" stroke-width="2.33333" stroke-linecap="round" stroke-linejoin="round"/>
</svg>
