<svg width="56" height="56" viewBox="0 0 56 56" fill="none" xmlns="http://www.w3.org/2000/svg">
<path d="M0 16C0 7.16344 7.16344 0 16 0H40C48.8366 0 56 7.16344 56 16V40C56 48.8366 48.8366 56 40 56H16C7.16344 56 0 48.8366 0 40V16Z" fill="url(#paint0_radial_600_1966)"/>
<path d="M16 2H40C47.732 2 54 8.26801 54 16V40C54 47.732 47.732 54 40 54H16C8.26801 54 2 47.732 2 40V16C2 8.26801 8.26801 2 16 2Z" stroke="white" stroke-opacity="0.3" stroke-width="4"/>
<path d="M38.9903 26.7423C39.1991 26.6502 39.3763 26.4988 39.5 26.3069C39.6237 26.115 39.6883 25.8911 39.686 25.6628C39.6836 25.4346 39.6143 25.212 39.4867 25.0227C39.3591 24.8335 39.1788 24.6858 38.9681 24.598L28.9686 20.0433C28.6646 19.9046 28.3344 19.8329 28.0003 19.8329C27.6661 19.8329 27.3359 19.9046 27.0319 20.0433L17.0336 24.5933C16.8259 24.6843 16.6492 24.8338 16.5251 25.0236C16.401 25.2134 16.335 25.4352 16.335 25.662C16.335 25.8887 16.401 26.1106 16.5251 26.3004C16.6492 26.4901 16.8259 26.6397 17.0336 26.7306L27.0319 31.29C27.3359 31.4286 27.6661 31.5004 28.0003 31.5004C28.3344 31.5004 28.6646 31.4286 28.9686 31.29L38.9903 26.7423Z" stroke="#FFF6E2" stroke-width="2.33333" stroke-linecap="round" stroke-linejoin="round"/>
<path d="M39.667 25.6667V32.6667" stroke="#FFF6E2" stroke-width="2.33333" stroke-linecap="round" stroke-linejoin="round"/>
<path d="M21 28.5833V32.6666C21 33.5949 21.7375 34.4851 23.0503 35.1415C24.363 35.7979 26.1435 36.1666 28 36.1666C29.8565 36.1666 31.637 35.7979 32.9497 35.1415C34.2625 34.4851 35 33.5949 35 32.6666V28.5833" stroke="#FFF6E2" stroke-width="2.33333" stroke-linecap="round" stroke-linejoin="round"/>
<defs>
<radialGradient id="paint0_radial_600_1966" cx="0" cy="0" r="1" gradientUnits="userSpaceOnUse" gradientTransform="translate(-3.29422e-07 71) rotate(-57.0023) scale(91.8096 183.619)">
<stop stop-color="#FF2B2F"/>
<stop offset="1" stop-color="#8D191C"/>
</radialGradient>
</defs>
</svg>
