<svg width="24" height="24" viewBox="0 0 24 24" fill="none" xmlns="http://www.w3.org/2000/svg">
<path d="M17.463 13.826C17.484 13.748 18 11.893 18 10C18 8.107 17.484 6.252 17.463 6.174C17.37 5.843 17.113 5.583 16.784 5.486C16.75 5.476 16.313 5.351 15.489 5.23C15.498 4.988 15.503 4.742 15.5 4.5C15.5 2.178 14.322 1 12 1C9.67801 1 8.50001 2.178 8.50001 4.49C8.49801 4.737 8.50301 4.985 8.51201 5.229C7.68701 5.35 7.25001 5.475 7.21601 5.485C6.88701 5.583 6.63101 5.842 6.53701 6.173C6.51601 6.251 6.00001 8.106 6.00001 9.999C6.00001 11.892 6.51601 13.747 6.53701 13.825C6.63001 14.156 6.88701 14.416 7.21601 14.513C7.28301 14.533 8.89101 14.998 12 14.998C15.109 14.998 16.717 14.532 16.784 14.513C17.113 14.415 17.37 14.156 17.463 13.825V13.826ZM10.5 4.5C10.5 3.267 10.767 3 12 3C13.233 3 13.5 3.267 13.5 4.511C13.501 4.635 13.502 4.836 13.498 5.043C13.041 5.019 12.553 5.001 12 5.001C11.447 5.001 10.96 5.019 10.503 5.043C10.499 4.839 10.499 4.638 10.5 4.5ZM15.675 12.714C15.025 12.833 13.795 13 12 13C10.205 13 8.97501 12.833 8.32501 12.714C8.18901 12.088 8.00001 11.034 8.00001 10C8.00001 8.966 8.18901 7.912 8.32501 7.286C8.97501 7.167 10.205 7 12 7C13.795 7 15.025 7.167 15.675 7.286C15.812 7.912 16 8.966 16 10C16 11.034 15.812 12.088 15.675 12.714ZM13 9.5V10.5C13 11.053 12.552 11.5 12 11.5C11.448 11.5 11 11.053 11 10.5V9.5C11 8.947 11.448 8.5 12 8.5C12.552 8.5 13 8.947 13 9.5ZM14.707 18.707L13.414 20L14.707 21.293C15.098 21.684 15.098 22.316 14.707 22.707C14.512 22.902 14.256 23 14 23C13.744 23 13.488 22.902 13.293 22.707L12 21.414L10.707 22.707C10.512 22.902 10.256 23 10 23C9.74401 23 9.48801 22.902 9.29301 22.707C8.90201 22.316 8.90201 21.684 9.29301 21.293L10.586 20L9.29301 18.707C8.90201 18.316 8.90201 17.684 9.29301 17.293C9.68401 16.902 10.316 16.902 10.707 17.293L12 18.586L13.293 17.293C13.684 16.902 14.316 16.902 14.707 17.293C15.098 17.684 15.098 18.316 14.707 18.707ZM22.707 21.293C23.098 21.684 23.098 22.316 22.707 22.707C22.512 22.902 22.256 23 22 23C21.744 23 21.488 22.902 21.293 22.707L20 21.414L18.707 22.707C18.512 22.902 18.256 23 18 23C17.744 23 17.488 22.902 17.293 22.707C16.902 22.316 16.902 21.684 17.293 21.293L18.586 20L17.293 18.707C16.902 18.316 16.902 17.684 17.293 17.293C17.684 16.902 18.316 16.902 18.707 17.293L20 18.586L21.293 17.293C21.684 16.902 22.316 16.902 22.707 17.293C23.098 17.684 23.098 18.316 22.707 18.707L21.414 20L22.707 21.293ZM6.70701 18.707L5.41401 20L6.70701 21.293C7.09801 21.684 7.09801 22.316 6.70701 22.707C6.51201 22.902 6.25601 23 6.00001 23C5.74401 23 5.48801 22.902 5.29301 22.707L4.00001 21.414L2.70701 22.707C2.51201 22.902 2.25601 23 2.00001 23C1.74401 23 1.48801 22.902 1.29301 22.707C0.902006 22.316 0.902006 21.684 1.29301 21.293L2.58601 20L1.29301 18.707C0.902006 18.316 0.902006 17.684 1.29301 17.293C1.68401 16.902 2.31601 16.902 2.70701 17.293L4.00001 18.586L5.29301 17.293C5.68401 16.902 6.31601 16.902 6.70701 17.293C7.09801 17.684 7.09801 18.316 6.70701 18.707Z" fill="#8D191C"/>
</svg>
