<svg width="24" height="24" viewBox="0 0 24 24" fill="none" xmlns="http://www.w3.org/2000/svg">
<g clip-path="url(#clip0_96_3052)">
<path d="M20.999 24C20.978 24 21.019 24 20.999 24V24ZM19.5 0H4.5C2.019 0 0 2.019 0 4.5V6.5C0 8.981 2.019 11 4.5 11H5C5.553 11 6 10.552 6 10C6 9.448 5.553 9 5 9H4.5C3.121 9 2 7.878 2 6.5V4.5C2 3.122 3.121 2 4.5 2H19.5C20.879 2 22 3.122 22 4.5V6.5C22 7.878 20.879 9 19.5 9H17C16.447 9 16 9.448 16 10C16 10.552 16.447 11 17 11H19.5C21.981 11 24 8.981 24 6.5V4.5C24 2.019 21.981 0 19.5 0ZM18.763 18.552L14.007 16.769V12.107C14.007 10.591 12.931 9.273 11.503 9.041C10.624 8.897 9.735 9.144 9.064 9.715C8.393 10.286 8.007 11.119 8.007 12.001V19.564L7.008 18.769C5.798 17.682 3.93 17.758 2.816 18.951C1.686 20.159 1.75 22.061 2.946 23.181L3.504 23.719C3.69 23.899 3.939 23.999 4.198 23.999C5.098 23.999 5.54 22.904 4.892 22.279L4.324 21.731C3.921 21.353 3.9 20.718 4.278 20.315C4.651 19.916 5.277 19.895 5.679 20.26C5.701 20.281 7.46 21.683 7.46 21.683C7.937 22.063 8.573 22.131 9.12 21.869C9.668 21.604 10.008 21.062 10.008 20.454V11.999C10.008 11.705 10.137 11.427 10.361 11.237C10.589 11.043 10.88 10.966 11.183 11.013C11.646 11.089 12.008 11.569 12.008 12.106V17.46C12.008 17.877 12.267 18.25 12.656 18.397L18.06 20.424C19.171 20.84 19.933 21.874 20.002 23.057C20.033 23.589 20.474 24 20.999 24C21.55 23.968 22.03 23.492 21.998 22.941C21.883 20.968 20.613 19.246 18.763 18.552Z" fill="#8D191C"/>
</g>
<defs>
<clipPath id="clip0_96_3052">
<rect width="24" height="24" fill="white"/>
</clipPath>
</defs>
</svg>
