<svg width="56" height="56" viewBox="0 0 56 56" fill="none" xmlns="http://www.w3.org/2000/svg">
<path d="M0 16C0 7.16344 7.16344 0 16 0H40C48.8366 0 56 7.16344 56 16V40C56 48.8366 48.8366 56 40 56H16C7.16344 56 0 48.8366 0 40V16Z" fill="#FFF6E2"/>
<path d="M28 35V19.8334" stroke="#8D191C" stroke-width="2" stroke-linecap="round" stroke-linejoin="round"/>
<path d="M31.5 29.1667C30.4906 28.8716 29.604 28.2574 28.973 27.4161C28.342 26.5748 28.0006 25.5516 28 24.5C27.9994 25.5516 27.658 26.5748 27.027 27.4161C26.396 28.2574 25.5094 28.8716 24.5 29.1667" stroke="#8D191C" stroke-width="2" stroke-linecap="round" stroke-linejoin="round"/>
<path d="M34.531 21.5833C34.7995 21.1184 34.9574 20.5979 34.9925 20.0622C35.0276 19.5265 34.9391 18.9898 34.7336 18.4938C34.5282 17.9978 34.2114 17.5557 33.8077 17.2017C33.4041 16.8477 32.9245 16.5913 32.4059 16.4524C31.8873 16.3134 31.3437 16.2956 30.8172 16.4004C30.2906 16.5051 29.7952 16.7296 29.3693 17.0564C28.9434 17.3833 28.5983 17.8037 28.3609 18.2852C28.1235 18.7667 28 19.2964 28 19.8333C28 19.2964 27.8765 18.7667 27.6391 18.2852C27.4017 17.8037 27.0566 17.3833 26.6307 17.0564C26.2048 16.7296 25.7094 16.5051 25.1828 16.4004C24.6563 16.2956 24.1127 16.3134 23.5941 16.4524C23.0755 16.5913 22.5959 16.8477 22.1922 17.2017C21.7886 17.5557 21.4718 17.9978 21.2664 18.4938C21.0609 18.9898 20.9724 19.5265 21.0075 20.0622C21.0426 20.5979 21.2005 21.1184 21.469 21.5833" stroke="#8D191C" stroke-width="2" stroke-linecap="round" stroke-linejoin="round"/>
<path d="M34.9961 19.9791C35.6819 20.1555 36.3185 20.4855 36.8578 20.9443C37.3971 21.4031 37.825 21.9786 38.1089 22.6273C38.3929 23.2759 38.5255 23.9807 38.4968 24.6882C38.4681 25.3956 38.2787 26.0873 37.9431 26.7108" stroke="#8D191C" stroke-width="2" stroke-linecap="round" stroke-linejoin="round"/>
<path d="M35 35C36.0273 34.9999 37.0258 34.661 37.8408 34.0356C38.6557 33.4102 39.2416 32.5334 39.5074 31.5412C39.7733 30.5489 39.7044 29.4967 39.3113 28.5476C38.9182 27.5985 38.2229 26.8057 37.3333 26.292" stroke="#8D191C" stroke-width="2" stroke-linecap="round" stroke-linejoin="round"/>
<path d="M37.2952 34.3969C37.3769 35.0295 37.3281 35.6721 37.1518 36.2851C36.9754 36.8981 36.6753 37.4685 36.2699 37.961C35.8645 38.4534 35.3624 38.8576 34.7947 39.1484C34.227 39.4392 33.6057 39.6106 32.9692 39.6519C32.3327 39.6932 31.6944 39.6036 31.0939 39.3886C30.4933 39.1735 29.9433 38.8377 29.4776 38.4017C29.012 37.9658 28.6406 37.439 28.3865 36.8539C28.1324 36.2688 28.001 35.6379 28.0003 35C27.9996 35.6379 27.8682 36.2688 27.6141 36.8539C27.36 37.439 26.9887 37.9658 26.523 38.4017C26.0574 38.8377 25.5073 39.1735 24.9068 39.3886C24.3062 39.6036 23.668 39.6932 23.0315 39.6519C22.3949 39.6106 21.7736 39.4392 21.2059 39.1484C20.6382 38.8576 20.1361 38.4534 19.7307 37.961C19.3253 37.4685 19.0252 36.8981 18.8489 36.2851C18.6725 35.6721 18.6237 35.0295 18.7055 34.3969" stroke="#8D191C" stroke-width="2" stroke-linecap="round" stroke-linejoin="round"/>
<path d="M21.0004 35C19.9732 34.9999 18.9747 34.661 18.1597 34.0356C17.3447 33.4102 16.7589 32.5334 16.493 31.5412C16.2271 30.5489 16.2961 29.4967 16.6892 28.5476C17.0823 27.5985 17.7775 26.8057 18.6671 26.292" stroke="#8D191C" stroke-width="2" stroke-linecap="round" stroke-linejoin="round"/>
<path d="M21.0036 19.9791C20.3178 20.1555 19.6812 20.4855 19.1419 20.9443C18.6025 21.4031 18.1747 21.9786 17.8907 22.6273C17.6068 23.2759 17.4741 23.9807 17.5029 24.6882C17.5316 25.3956 17.721 26.0873 18.0566 26.7108" stroke="#8D191C" stroke-width="2" stroke-linecap="round" stroke-linejoin="round"/>
</svg>
