<svg width="20" height="20" viewBox="0 0 20 20" fill="none" xmlns="http://www.w3.org/2000/svg">
<g clip-path="url(#clip0_117_3452)">
<path d="M10 15V4.16663" stroke="#8D191C" stroke-width="1.66667" stroke-linecap="round" stroke-linejoin="round"/>
<path d="M12.5 10.8333C11.779 10.6226 11.1457 10.1839 10.695 9.58292C10.2443 8.98198 10.0005 8.25117 10 7.5C9.99955 8.25117 9.7557 8.98198 9.305 9.58292C8.8543 10.1839 8.221 10.6226 7.5 10.8333" stroke="#8D191C" stroke-width="1.66667" stroke-linecap="round" stroke-linejoin="round"/>
<path d="M14.665 5.41661C14.8568 5.08452 14.9695 4.71277 14.9946 4.33011C15.0197 3.94745 14.9565 3.56415 14.8097 3.20986C14.663 2.85557 14.4367 2.53978 14.1484 2.28693C13.8601 2.03408 13.5175 1.85094 13.1471 1.75169C12.7766 1.65244 12.3884 1.63973 12.0123 1.71454C11.6361 1.78936 11.2823 1.9497 10.9781 2.18315C10.6738 2.41661 10.4274 2.71692 10.2578 3.06085C10.0882 3.40479 9.99998 3.78313 10 4.16661C10 3.78313 9.91181 3.40479 9.74222 3.06085C9.57262 2.71692 9.32617 2.41661 9.02194 2.18315C8.71771 1.9497 8.36386 1.78936 7.98775 1.71454C7.61164 1.63973 7.22336 1.65244 6.85294 1.75169C6.48253 1.85094 6.13992 2.03408 5.85161 2.28693C5.5633 2.53978 5.33702 2.85557 5.19028 3.20986C5.04353 3.56415 4.98026 3.94745 5.00536 4.33011C5.03046 4.71277 5.14324 5.08452 5.335 5.41661" stroke="#8D191C" stroke-width="1.66667" stroke-linecap="round" stroke-linejoin="round"/>
<path d="M14.9976 4.27087C15.4874 4.39682 15.9421 4.63258 16.3274 4.9603C16.7126 5.28802 17.0182 5.6991 17.221 6.16241C17.4239 6.62573 17.5186 7.12912 17.4981 7.63447C17.4775 8.13982 17.3423 8.63387 17.1026 9.07921" stroke="#8D191C" stroke-width="1.66667" stroke-linecap="round" stroke-linejoin="round"/>
<path d="M15 15C15.7338 15 16.447 14.7579 17.0291 14.3112C17.6112 13.8645 18.0297 13.2382 18.2196 12.5294C18.4095 11.8207 18.3603 11.0691 18.0795 10.3912C17.7987 9.71326 17.3021 9.14694 16.6667 8.78003" stroke="#8D191C" stroke-width="1.66667" stroke-linecap="round" stroke-linejoin="round"/>
<path d="M16.6392 14.5692C16.6976 15.0211 16.6628 15.4801 16.5368 15.918C16.4108 16.3559 16.1965 16.7632 15.9069 17.115C15.6173 17.4668 15.2587 17.7554 14.8532 17.9632C14.4477 18.1709 14.0039 18.2933 13.5492 18.3228C13.0946 18.3523 12.6387 18.2883 12.2097 18.1347C11.7808 17.9811 11.3878 17.7412 11.0552 17.4298C10.7226 17.1185 10.4574 16.7422 10.2759 16.3243C10.0944 15.9064 10.0005 15.4557 10 15C9.99955 15.4557 9.90567 15.9064 9.72418 16.3243C9.54269 16.7422 9.27745 17.1185 8.94484 17.4298C8.61223 17.7412 8.21932 17.9811 7.79036 18.1347C7.36141 18.2883 6.90552 18.3523 6.45085 18.3228C5.99619 18.2933 5.5524 18.1709 5.14689 17.9632C4.74138 17.7554 4.38277 17.4668 4.09319 17.115C3.80362 16.7632 3.58923 16.3559 3.46328 15.918C3.33732 15.4801 3.30247 15.0211 3.36087 14.5692" stroke="#8D191C" stroke-width="1.66667" stroke-linecap="round" stroke-linejoin="round"/>
<path d="M5.00006 15C4.2663 15 3.55306 14.7579 2.97095 14.3112C2.38883 13.8645 1.97037 13.2382 1.78045 12.5294C1.59054 11.8207 1.63979 11.0691 1.92057 10.3912C2.20135 9.71326 2.69796 9.14694 3.33339 8.78003" stroke="#8D191C" stroke-width="1.66667" stroke-linecap="round" stroke-linejoin="round"/>
<path d="M5.00252 4.27087C4.51269 4.39682 4.05794 4.63258 3.67272 4.9603C3.28749 5.28802 2.98189 5.6991 2.77906 6.16241C2.57623 6.62573 2.48149 7.12912 2.50201 7.63447C2.52254 8.13982 2.65779 8.63387 2.89752 9.07921" stroke="#8D191C" stroke-width="1.66667" stroke-linecap="round" stroke-linejoin="round"/>
</g>
<defs>
<clipPath id="clip0_117_3452">
<rect width="20" height="20" fill="white"/>
</clipPath>
</defs>
</svg>
