<svg width="16" height="16" viewBox="0 0 16 16" fill="none" xmlns="http://www.w3.org/2000/svg">
<path d="M8 12.6667V14.6667" stroke="#737373" stroke-width="1.33333" stroke-linecap="round" stroke-linejoin="round"/>
<path d="M12.6663 6.66675V8.00008C12.6663 9.23776 12.1747 10.4247 11.2995 11.2999C10.4243 12.1751 9.23735 12.6667 7.99967 12.6667C6.762 12.6667 5.57501 12.1751 4.69984 11.2999C3.82467 10.4247 3.33301 9.23776 3.33301 8.00008V6.66675" stroke="#737373" stroke-width="1.33333" stroke-linecap="round" stroke-linejoin="round"/>
<path d="M10 3.33325C10 2.22868 9.10457 1.33325 8 1.33325C6.89543 1.33325 6 2.22868 6 3.33325V7.99992C6 9.10449 6.89543 9.99992 8 9.99992C9.10457 9.99992 10 9.10449 10 7.99992V3.33325Z" stroke="#737373" stroke-width="1.33333" stroke-linecap="round" stroke-linejoin="round"/>
</svg>
