<svg width="16" height="16" viewBox="0 0 16 16" fill="none" xmlns="http://www.w3.org/2000/svg">
<path d="M2.66602 14.6666V2.66665C2.66602 2.56315 2.69011 2.46107 2.7364 2.3685C2.78268 2.27593 2.84988 2.19541 2.93268 2.13331C3.62507 1.61402 4.4672 1.33331 5.33268 1.33331C7.33268 1.33331 8.66602 2.66665 10.2213 2.66665C11.1102 2.66665 11.7918 2.48887 12.266 2.13331C12.3651 2.05903 12.4828 2.01379 12.6061 2.00267C12.7295 1.99155 12.8534 2.01499 12.9642 2.07036C13.0749 2.12573 13.168 2.21084 13.2331 2.31616C13.2982 2.42148 13.3327 2.54284 13.3327 2.66665V9.33331C13.3327 9.43681 13.3086 9.53888 13.2623 9.63145C13.216 9.72402 13.1488 9.80455 13.066 9.86665C12.3736 10.3859 11.5315 10.6666 10.666 10.6666C8.66602 10.6666 7.33268 9.33331 5.33268 9.33331C4.34876 9.33334 3.39937 9.69601 2.66602 10.352" stroke="#525252" stroke-width="1.33333" stroke-linecap="round" stroke-linejoin="round"/>
</svg>
