<svg width="19" height="17" viewBox="0 0 19 17" fill="none" xmlns="http://www.w3.org/2000/svg">
<path d="M1.66671 13.3334C1.44569 13.3334 1.23373 13.2456 1.07745 13.0893C0.921171 12.933 0.833374 12.7211 0.833374 12.5V1.66671C0.833374 1.44569 0.921171 1.23373 1.07745 1.07745C1.23373 0.921171 1.44569 0.833374 1.66671 0.833374H5.83337C6.71743 0.833374 7.56528 1.18456 8.1904 1.80968C8.81552 2.43481 9.16671 3.28265 9.16671 4.16671C9.16671 3.28265 9.5179 2.43481 10.143 1.80968C10.7681 1.18456 11.616 0.833374 12.5 0.833374H16.6667C16.8877 0.833374 17.0997 0.921171 17.256 1.07745C17.4122 1.23373 17.5 1.44569 17.5 1.66671V12.5C17.5 12.7211 17.4122 12.933 17.256 13.0893C17.0997 13.2456 16.8877 13.3334 16.6667 13.3334H11.6667C11.0037 13.3334 10.3678 13.5968 9.89894 14.0656C9.4301 14.5344 9.16671 15.1703 9.16671 15.8334C9.16671 15.1703 8.90332 14.5344 8.43447 14.0656C7.96563 13.5968 7.32975 13.3334 6.66671 13.3334H1.66671Z" stroke="#8D191C" stroke-width="1.66667" stroke-linecap="round" stroke-linejoin="round"/>
</svg>
