<svg width="28" height="28" viewBox="0 0 28 28" fill="none" xmlns="http://www.w3.org/2000/svg">
<path d="M18.6663 24.5V22.1667C18.6663 20.929 18.1747 19.742 17.2995 18.8668C16.4243 17.9917 15.2374 17.5 13.9997 17.5H6.99967C5.762 17.5 4.57501 17.9917 3.69984 18.8668C2.82467 19.742 2.33301 20.929 2.33301 22.1667V24.5" stroke="white" stroke-width="2.33333" stroke-linecap="round" stroke-linejoin="round"/>
<path d="M10.4997 12.8333C13.077 12.8333 15.1663 10.744 15.1663 8.16667C15.1663 5.58934 13.077 3.5 10.4997 3.5C7.92235 3.5 5.83301 5.58934 5.83301 8.16667C5.83301 10.744 7.92235 12.8333 10.4997 12.8333Z" stroke="white" stroke-width="2.33333" stroke-linecap="round" stroke-linejoin="round"/>
<path d="M22.167 9.33337V16.3334" stroke="white" stroke-width="2.33333" stroke-linecap="round" stroke-linejoin="round"/>
<path d="M25.667 12.8334H18.667" stroke="white" stroke-width="2.33333" stroke-linecap="round" stroke-linejoin="round"/>
</svg>
