<svg width="28" height="28" viewBox="0 0 28 28" fill="none" xmlns="http://www.w3.org/2000/svg">
<path d="M7.00033 25.6667C6.38149 25.6667 5.78799 25.4209 5.35041 24.9833C4.91282 24.5457 4.66699 23.9522 4.66699 23.3334V4.66671C4.66699 4.04787 4.91282 3.45438 5.35041 3.0168C5.78799 2.57921 6.38149 2.33338 7.00033 2.33338H16.3337C16.703 2.33278 17.0688 2.40525 17.4099 2.54661C17.7511 2.68797 18.061 2.89543 18.3217 3.15704L22.5077 7.34304C22.77 7.6038 22.978 7.91395 23.1198 8.25557C23.2616 8.59719 23.3343 8.96351 23.3337 9.33338V23.3334C23.3337 23.9522 23.0878 24.5457 22.6502 24.9833C22.2127 25.4209 21.6192 25.6667 21.0003 25.6667H7.00033Z" stroke="white" stroke-width="2.33333" stroke-linecap="round" stroke-linejoin="round"/>
<path d="M16.333 2.33337V8.16671C16.333 8.47613 16.4559 8.77287 16.6747 8.99166C16.8935 9.21046 17.1903 9.33337 17.4997 9.33337H23.333" stroke="white" stroke-width="2.33333" stroke-linecap="round" stroke-linejoin="round"/>
<path d="M11.6663 10.5H9.33301" stroke="white" stroke-width="2.33333" stroke-linecap="round" stroke-linejoin="round"/>
<path d="M18.6663 15.1666H9.33301" stroke="white" stroke-width="2.33333" stroke-linecap="round" stroke-linejoin="round"/>
<path d="M18.6663 19.8334H9.33301" stroke="white" stroke-width="2.33333" stroke-linecap="round" stroke-linejoin="round"/>
</svg>
