<svg width="16" height="16" viewBox="0 0 16 16" fill="none" xmlns="http://www.w3.org/2000/svg">
<path d="M6.00001 6.00205C5.99965 5.88374 6.03078 5.76747 6.09021 5.66516C6.14964 5.56286 6.23523 5.47822 6.33818 5.41992C6.44113 5.36163 6.55774 5.33178 6.67604 5.33344C6.79434 5.3351 6.91007 5.36822 7.01134 5.42939L10.3427 7.42739C10.4418 7.4865 10.524 7.57035 10.581 7.67074C10.638 7.77112 10.668 7.8846 10.668 8.00005C10.668 8.11551 10.638 8.22898 10.581 8.32937C10.524 8.42976 10.4418 8.51361 10.3427 8.57272L7.01134 10.5707C6.91002 10.6319 6.79423 10.665 6.67587 10.6667C6.55752 10.6683 6.44086 10.6384 6.33789 10.58C6.23491 10.5216 6.14934 10.4369 6.08996 10.3345C6.03058 10.2321 5.99953 10.1158 6.00001 9.99739V6.00205Z" stroke="white" stroke-width="1.33333" stroke-linecap="round" stroke-linejoin="round"/>
<path d="M8.00065 14.6667C11.6825 14.6667 14.6673 11.6819 14.6673 8.00004C14.6673 4.31814 11.6825 1.33337 8.00065 1.33337C4.31875 1.33337 1.33398 4.31814 1.33398 8.00004C1.33398 11.6819 4.31875 14.6667 8.00065 14.6667Z" stroke="white" stroke-width="1.33333" stroke-linecap="round" stroke-linejoin="round"/>
</svg>
