<svg xmlns="http://www.w3.org/2000/svg" width="608" height="140" fill="none" viewBox="0 0 608 140"><rect width="607" height="139" x=".5" y=".5" fill="#fff" rx="23.5"/><rect width="607" height="139" x=".5" y=".5" stroke="#d4d4d4" rx="23.5"/><mask id="a" width="24" height="24" x="73" y="58" maskUnits="userSpaceOnUse" style="mask-type:alpha"><path fill="#d9d9d9" d="M73 58h24v24H73z"/></mask><g mask="url(#a)"><path fill="#2db246" d="m83.6 74.6 7.05-7.05-1.4-1.4-5.65 5.65-2.85-2.85-1.4 1.4zM85 80a9.7 9.7 0 0 1-3.9-.787 10.1 10.1 0 0 1-3.175-2.138q-1.35-1.35-2.138-3.175A9.7 9.7 0 0 1 75 70q0-2.075.787-3.9a10.1 10.1 0 0 1 2.138-3.175q1.35-1.35 3.175-2.137A9.7 9.7 0 0 1 85 60q2.075 0 3.9.788a10.1 10.1 0 0 1 3.175 2.137q1.35 1.35 2.138 3.175A9.7 9.7 0 0 1 95 70a9.7 9.7 0 0 1-.787 3.9 10.1 10.1 0 0 1-2.138 3.175q-1.35 1.35-3.175 2.138A9.7 9.7 0 0 1 85 80m0-2q3.35 0 5.675-2.325T93 70t-2.325-5.675T85 62t-5.675 2.325T77 70t2.325 5.675T85 78"/></g><path fill="#0a0a0a" d="M122.585 63V49.91h7.901v1.405h-6.316v4.424h5.907v1.406h-5.907v4.449h6.418V63zm17.582-9.818L136.536 63h-1.534l-3.631-9.818h1.637l2.71 7.824h.102l2.711-7.824zm3.581 10.048a4 4 0 0 1-1.693-.351 2.9 2.9 0 0 1-1.209-1.03q-.447-.677-.447-1.636 0-.843.332-1.368.333-.53.889-.83.557-.301 1.227-.448.678-.154 1.362-.243.894-.115 1.451-.173.562-.064.818-.21.262-.149.262-.512v-.051q0-.945-.518-1.47-.512-.525-1.553-.525-1.08 0-1.694.473-.614.474-.863 1.01l-1.432-.51q.384-.896 1.023-1.394a3.8 3.8 0 0 1 1.406-.704 5.8 5.8 0 0 1 1.509-.204q.472 0 1.086.115.62.11 1.196.454.58.345.965 1.042.383.696.383 1.866V63h-1.508v-1.33h-.077q-.154.32-.511.684-.358.365-.953.62-.594.255-1.451.256m.231-1.355q.894 0 1.508-.352a2.4 2.4 0 0 0 1.253-2.077v-1.38q-.096.114-.422.21-.32.09-.741.16a34 34 0 0 1-1.445.192 6 6 0 0 0-1.1.25 1.9 1.9 0 0 0-.818.504q-.307.332-.307.908 0 .786.582 1.189.588.396 1.49.396m7.531-11.966V63h-1.508V49.91zm7.951 9.077v-5.804h1.508V63h-1.508v-1.662h-.103q-.345.749-1.073 1.272-.73.518-1.841.518-.92 0-1.637-.403-.715-.41-1.125-1.227-.409-.824-.409-2.078v-6.238h1.509v6.136q0 1.074.601 1.713.606.64 1.547.64.562 0 1.144-.288.588-.288.984-.882.403-.596.403-1.515m6.16 4.244a4 4 0 0 1-1.693-.351 2.9 2.9 0 0 1-1.209-1.03q-.447-.677-.447-1.636 0-.843.332-1.368.333-.53.889-.83.556-.301 1.227-.448.678-.154 1.362-.243.894-.115 1.451-.173.562-.064.818-.21.262-.149.262-.512v-.051q0-.945-.518-1.47-.511-.525-1.553-.525-1.08 0-1.694.473-.614.474-.863 1.01l-1.432-.51q.384-.896 1.023-1.394a3.8 3.8 0 0 1 1.406-.704 5.8 5.8 0 0 1 1.509-.204q.472 0 1.086.115.62.11 1.196.454.582.345.965 1.042.384.696.383 1.866V63h-1.508v-1.33h-.077q-.154.32-.511.684-.358.365-.953.62-.594.255-1.451.256m.231-1.355q.894 0 1.508-.352a2.4 2.4 0 0 0 .933-.907q.32-.556.32-1.17v-1.38q-.096.114-.422.21-.32.09-.741.16a34 34 0 0 1-1.445.192 6 6 0 0 0-1.099.25q-.506.165-.819.504-.306.332-.306.908 0 .786.581 1.189.588.396 1.49.396m10.293-8.693v1.278h-5.088v-1.278zm-3.605-2.352h1.508v9.358q0 .639.185.958.192.315.486.422.302.102.633.102.25 0 .409-.025l.256-.051.307 1.355a3 3 0 0 1-.429.115 3 3 0 0 1-.696.064q-.64 0-1.253-.275a2.5 2.5 0 0 1-1.01-.837q-.396-.562-.396-1.42zm8.885 12.375q-1.419 0-2.448-.627a4.2 4.2 0 0 1-1.579-1.764q-.55-1.138-.55-2.646t.55-2.66q.556-1.156 1.547-1.802.997-.652 2.326-.652.768 0 1.515.256.748.255 1.362.83.613.57.978 1.51.364.939.364 2.313v.64h-7.568v-1.305h6.034q0-.83-.332-1.483a2.5 2.5 0 0 0-.933-1.029q-.601-.377-1.42-.377-.9 0-1.559.447a2.95 2.95 0 0 0-1.004 1.151q-.351.71-.351 1.521v.87q0 1.112.383 1.885.39.768 1.08 1.17.692.396 1.605.396.594 0 1.074-.166.486-.172.837-.511.352-.345.543-.857l1.458.41a3.2 3.2 0 0 1-.774 1.303q-.543.556-1.342.87-.799.306-1.796.306m12.315-7.824-1.356.383a2.5 2.5 0 0 0-.377-.658 1.8 1.8 0 0 0-.664-.537q-.423-.21-1.081-.211-.901 0-1.502.415-.594.41-.594 1.042 0 .563.409.889t1.278.543l1.458.358q1.316.32 1.962.978.645.652.646 1.681 0 .845-.486 1.509-.48.664-1.343 1.048-.862.384-2.007.384-1.502 0-2.486-.652t-1.247-1.905l1.432-.358q.205.792.774 1.189.575.396 1.502.396 1.055 0 1.674-.447.627-.454.627-1.087 0-.511-.358-.857-.358-.351-1.1-.524l-1.636-.383q-1.349-.32-1.981-.991-.627-.678-.627-1.694 0-.831.467-1.47.472-.639 1.285-1.004.818-.364 1.853-.364 1.458 0 2.289.64.837.638 1.189 1.687m5.716 7.62V49.91h1.586v6.493h.153l5.881-6.494h2.071l-5.497 5.906L209.147 63h-1.918l-4.551-6.085-1.636 1.84V63zm13.934.205q-1.419 0-2.448-.627a4.2 4.2 0 0 1-1.579-1.764q-.55-1.138-.55-2.646t.55-2.66q.555-1.156 1.547-1.802.996-.652 2.326-.652.768 0 1.515.256.749.255 1.362.83.614.57.978 1.51.364.939.364 2.313v.64h-7.568v-1.305h6.034q0-.83-.332-1.483a2.5 2.5 0 0 0-.934-1.029q-.6-.377-1.419-.377-.901 0-1.559.447a2.94 2.94 0 0 0-1.004 1.151q-.351.71-.351 1.521v.87q0 1.112.383 1.885.39.768 1.08 1.17.69.396 1.605.396.594 0 1.074-.166.485-.172.837-.511a2.3 2.3 0 0 0 .543-.857l1.458.41a3.24 3.24 0 0 1-.774 1.303q-.543.556-1.342.87-.799.306-1.796.306m6.033 3.477q-.384 0-.684-.064a1.8 1.8 0 0 1-.416-.115l.384-1.33q.55.14.971.103.423-.039.748-.378.333-.331.607-1.08l.282-.767-3.631-9.87h1.636l2.711 7.825h.102l2.71-7.824h1.636l-4.167 11.25q-.282.76-.697 1.26a2.6 2.6 0 0 1-.965.747 3 3 0 0 1-1.227.243m19.474-13.5a2 2 0 0 0-.934-1.509q-.817-.537-2.007-.537-.869 0-1.521.282-.645.28-1.01.773-.358.492-.358 1.119 0 .525.249.9.256.372.652.621.398.243.831.403.435.153.799.249l1.33.358q.511.135 1.138.37.632.237 1.208.646.582.403.959 1.036t.377 1.553q0 1.061-.556 1.918-.55.856-1.611 1.361-1.055.505-2.563.505-1.407 0-2.436-.454-1.023-.453-1.611-1.265-.581-.812-.658-1.886h1.636q.064.741.499 1.227.441.48 1.112.716.678.23 1.458.23.907 0 1.63-.294.722-.3 1.144-.83a1.97 1.97 0 0 0 .422-1.254q0-.651-.365-1.06a2.7 2.7 0 0 0-.959-.665q-.594-.255-1.284-.448l-1.611-.46q-1.534-.441-2.429-1.26-.895-.817-.895-2.14 0-1.1.594-1.918.601-.825 1.611-1.279 1.017-.46 2.269-.46 1.266 0 2.25.454.986.447 1.56 1.227.582.78.614 1.77zm4.521 6.238-.026-1.866h.307l4.295-4.372h1.867l-4.577 4.628h-.128zM242.012 63V49.91h1.508V63zm6.238 0-3.835-4.858 1.074-1.048L250.168 63zm2.553 0v-9.818h1.508V63zm.767-11.455q-.441 0-.761-.3a.96.96 0 0 1-.313-.722q0-.422.313-.723.32-.3.761-.3.44 0 .754.3.32.3.319.723a.96.96 0 0 1-.319.722q-.313.3-.754.3m4.013-1.636V63h-1.509V49.91zm3.271 0V63h-1.508V49.91zm8.718 5.472-1.356.383a2.5 2.5 0 0 0-.377-.658 1.8 1.8 0 0 0-.664-.537q-.423-.21-1.081-.211-.901 0-1.502.415-.594.41-.594 1.042 0 .563.409.889.41.326 1.278.543l1.458.358q1.316.32 1.962.978.646.652.646 1.681 0 .845-.486 1.509-.48.664-1.343 1.048t-2.007.384q-1.502 0-2.486-.652t-1.247-1.905l1.432-.358q.205.792.774 1.189.575.396 1.502.396 1.054 0 1.674-.447.627-.454.627-1.087 0-.511-.358-.857-.358-.351-1.1-.524l-1.636-.383q-1.349-.32-1.981-.991-.627-.678-.627-1.694 0-.831.467-1.47.472-.639 1.285-1.004.818-.364 1.853-.364 1.458 0 2.289.64.837.638 1.189 1.687"/><path fill="#4a5565" d="M122.886 90h-1.477l4.273-11.636h1.454L131.409 90h-1.477l-3.477-9.796h-.091zm.546-4.546h5.954v1.25h-5.954zm9.949-.704V90h-1.341v-8.727h1.295v1.363h.114q.306-.665.932-1.068.624-.409 1.613-.409.887 0 1.551.364.665.358 1.035 1.09.369.73.369 1.841V90h-1.341v-5.454q0-1.029-.534-1.603-.534-.58-1.466-.58a2.34 2.34 0 0 0-1.148.279 2 2 0 0 0-.79.813q-.29.534-.289 1.295m9.586 5.454a3.5 3.5 0 0 1-1.505-.312 2.6 2.6 0 0 1-1.074-.915q-.398-.602-.398-1.454 0-.75.296-1.216.295-.472.789-.739t1.091-.397q.603-.137 1.21-.217.797-.102 1.29-.153.5-.057.727-.187.234-.132.233-.455v-.045q0-.842-.46-1.307-.454-.466-1.38-.466-.962 0-1.506.42-.546.42-.767.898l-1.273-.455q.34-.795.909-1.238.574-.45 1.25-.625a5.2 5.2 0 0 1 1.341-.182q.42 0 .966.102.551.098 1.062.404.518.306.858.926.342.62.341 1.659V90h-1.341v-1.182h-.068q-.136.285-.454.608-.319.324-.847.551t-1.29.227m.205-1.204q.795 0 1.341-.312.551-.313.829-.807.285-.495.284-1.04v-1.227q-.084.102-.375.187a6 6 0 0 1-.659.142 30 30 0 0 1-1.284.17q-.522.069-.977.222a1.7 1.7 0 0 0-.727.45q-.273.294-.273.806 0 .699.517 1.057.522.352 1.324.352m6.584-10.636V90h-1.341V78.364zm2.319 14.909q-.34 0-.608-.057a1.6 1.6 0 0 1-.369-.102l.341-1.182q.489.125.864.09.375-.033.664-.335.296-.295.54-.96l.25-.681-3.227-8.773h1.454l2.409 6.954h.091l2.409-6.954h1.455l-3.705 10a3.8 3.8 0 0 1-.619 1.119q-.369.449-.858.665a2.6 2.6 0 0 1-1.091.216m10.838-12v1.136h-4.522v-1.136zm-3.204-2.091h1.341V87.5q0 .569.164.852.171.278.432.375.267.09.563.091.222 0 .363-.022l.228-.046.272 1.204q-.135.052-.38.103-.245.057-.62.057-.568 0-1.113-.245a2.2 2.2 0 0 1-.898-.744q-.352-.5-.352-1.261zM163.93 90v-8.727h1.341V90zm.682-10.182a.95.95 0 0 1-.676-.267.86.86 0 0 1-.278-.642q0-.375.278-.642a.95.95 0 0 1 .676-.267q.393 0 .671.267a.85.85 0 0 1 .284.642q0 .375-.284.642a.93.93 0 0 1-.671.267m5.661 10.364q-1.227 0-2.114-.58a3.8 3.8 0 0 1-1.364-1.596q-.477-1.017-.477-2.324 0-1.33.489-2.347.494-1.023 1.375-1.596.886-.58 2.068-.58a3.9 3.9 0 0 1 1.659.341 3.2 3.2 0 0 1 1.21.954q.472.615.586 1.432h-1.341q-.154-.596-.682-1.056-.523-.466-1.409-.466-.784 0-1.375.409-.585.404-.915 1.142-.324.732-.324 1.721 0 1.012.318 1.762.324.75.909 1.165.59.414 1.387.414.523 0 .949-.181.426-.183.721-.523t.421-.819h1.341q-.114.774-.563 1.393-.442.613-1.176.977-.727.358-1.693.358m6.96.022a3.55 3.55 0 0 1-1.506-.312 2.6 2.6 0 0 1-1.074-.915q-.397-.602-.397-1.454 0-.75.295-1.216.295-.472.79-.739a4.1 4.1 0 0 1 1.091-.397q.602-.137 1.21-.217.795-.102 1.29-.153.5-.057.727-.187.233-.132.233-.455v-.045q0-.842-.46-1.307-.454-.466-1.381-.466-.96 0-1.506.42-.545.42-.767.898l-1.272-.455q.34-.795.909-1.238.573-.45 1.25-.625a5.2 5.2 0 0 1 1.341-.182q.42 0 .966.102.55.098 1.062.404.517.306.858.926t.341 1.659V90h-1.341v-1.182h-.068q-.137.285-.455.608-.318.324-.846.551-.529.228-1.29.227m.205-1.204q.795 0 1.34-.312a2.13 2.13 0 0 0 1.114-1.847v-1.227q-.085.102-.375.187a6 6 0 0 1-.659.142 30 30 0 0 1-1.284.17 5 5 0 0 0-.977.222q-.45.148-.728.45-.272.294-.272.806 0 .699.517 1.057.522.352 1.324.352m6.583-10.636V90h-1.341V78.364zm7.524 11.84a3.5 3.5 0 0 1-1.505-.312 2.6 2.6 0 0 1-1.074-.915q-.398-.602-.398-1.454 0-.75.296-1.216.295-.472.789-.739t1.091-.397q.602-.137 1.211-.217.795-.102 1.289-.153.5-.057.728-.187.233-.132.233-.455v-.045q0-.842-.461-1.307-.455-.466-1.38-.466-.96 0-1.506.42t-.767.898l-1.273-.455q.34-.795.909-1.238.575-.45 1.25-.625a5.2 5.2 0 0 1 1.341-.182q.42 0 .966.102.552.098 1.063.404.516.306.858.926.34.62.34 1.659V90h-1.34v-1.182h-.069q-.136.285-.454.608-.318.324-.847.551t-1.29.227M191.75 89q.795 0 1.341-.312.551-.313.829-.807.285-.495.285-1.04v-1.227q-.085.102-.375.187-.285.08-.66.142a30 30 0 0 1-1.284.17q-.522.069-.977.222a1.7 1.7 0 0 0-.727.45q-.273.294-.273.806 0 .699.517 1.057.523.352 1.324.352m5.425 1V78.364h1.341v4.295h.113q.148-.227.409-.58.267-.357.762-.636.5-.284 1.352-.284 1.103 0 1.943.551.841.552 1.313 1.563.471 1.011.471 2.386 0 1.386-.471 2.403-.472 1.012-1.307 1.569-.836.55-1.926.55-.841 0-1.347-.278-.505-.284-.778-.642a9 9 0 0 1-.421-.602h-.159V90zm1.318-4.364q0 .989.29 1.745.29.75.846 1.176.557.42 1.364.42.841 0 1.403-.443.568-.449.853-1.205a4.7 4.7 0 0 0 .289-1.693q0-.92-.284-1.659-.278-.744-.846-1.176-.563-.437-1.415-.437-.819 0-1.375.414-.557.41-.841 1.148-.284.734-.284 1.71M205.93 90v-8.727h1.341V90zm.682-10.182a.95.95 0 0 1-.676-.267.86.86 0 0 1-.278-.642q0-.375.278-.642a.95.95 0 0 1 .676-.267q.393 0 .671.267a.85.85 0 0 1 .284.642q0 .375-.284.642a.93.93 0 0 1-.671.267m3.456-1.454V90h-1.341V78.364zM211.524 90v-8.727h1.341V90zm.682-10.182a.95.95 0 0 1-.676-.267.86.86 0 0 1-.279-.642q0-.375.279-.642a.95.95 0 0 1 .676-.267q.392 0 .67.267.285.267.285.642t-.285.642a.93.93 0 0 1-.67.267m5.91 1.455v1.136h-4.522v-1.136zm-3.204-2.091h1.341V87.5q0 .569.165.852a.85.85 0 0 0 .431.375q.267.09.563.091.222 0 .364-.022l.227-.046.273 1.204a3 3 0 0 1-.381.103 2.8 2.8 0 0 1-.619.057 2.7 2.7 0 0 1-1.114-.245 2.2 2.2 0 0 1-.898-.744q-.352-.5-.352-1.261zM219.134 90v-8.727h1.34V90zm.681-10.182a.95.95 0 0 1-.676-.267.86.86 0 0 1-.278-.642.86.86 0 0 1 .278-.642.96.96 0 0 1 .676-.267q.393 0 .671.267a.85.85 0 0 1 .284.642q0 .375-.284.642a.93.93 0 0 1-.671.267m5.774 10.364q-1.26 0-2.176-.557a3.73 3.73 0 0 1-1.403-1.568q-.489-1.012-.489-2.353 0-1.34.489-2.363.494-1.029 1.375-1.602.886-.58 2.068-.58.683 0 1.347.227a3.3 3.3 0 0 1 1.21.739q.545.506.869 1.34.324.836.324 2.058v.568h-6.727v-1.16h5.363q0-.738-.295-1.317a2.23 2.23 0 0 0-.83-.915q-.534-.335-1.261-.335-.801 0-1.386.397a2.6 2.6 0 0 0-.892 1.023q-.313.63-.313 1.352v.773q0 .99.341 1.676.346.682.96 1.04.614.352 1.426.352a2.9 2.9 0 0 0 .955-.148q.432-.153.744-.454.313-.306.483-.761l1.296.363a2.9 2.9 0 0 1-.688 1.16q-.482.494-1.193.772a4.4 4.4 0 0 1-1.597.273m10.836-6.955-1.205.341a2.2 2.2 0 0 0-.335-.585 1.6 1.6 0 0 0-.591-.477q-.375-.188-.96-.188-.801 0-1.335.37-.53.362-.529.926 0 .5.364.79.363.29 1.136.482l1.296.319q1.17.284 1.744.869.574.579.574 1.494 0 .75-.432 1.341-.426.591-1.193.932-.768.34-1.784.34-1.335 0-2.211-.579-.874-.579-1.107-1.693l1.272-.318q.182.705.688 1.057.511.352 1.335.352.937 0 1.489-.398.556-.403.556-.966 0-.454-.318-.761-.318-.312-.977-.466l-1.455-.34q-1.199-.285-1.761-.882-.557-.602-.557-1.505 0-.739.415-1.307.42-.568 1.142-.892.727-.324 1.648-.324 1.294 0 2.034.568.744.57 1.057 1.5m3.177 5.182-.091.614q-.096.647-.295 1.386-.193.738-.404 1.392-.21.653-.346 1.04h-1.023l.193-.96q.12-.597.239-1.335.125-.735.205-1.5l.068-.637zm8.53 1.773q-1.227 0-2.114-.58a3.8 3.8 0 0 1-1.363-1.596q-.477-1.017-.477-2.324 0-1.33.488-2.347.495-1.023 1.375-1.596.886-.58 2.068-.58a3.9 3.9 0 0 1 1.659.341 3.2 3.2 0 0 1 1.211.954q.471.615.585 1.432h-1.341q-.154-.596-.682-1.056-.522-.466-1.409-.466-.784 0-1.375.409-.585.404-.915 1.142-.324.732-.324 1.721 0 1.012.319 1.762.324.75.909 1.165.591.414 1.386.414.523 0 .949-.181a1.96 1.96 0 0 0 .722-.523q.296-.34.42-.819h1.341a3.1 3.1 0 0 1-1.739 2.37q-.727.358-1.693.358m4.392-.182v-8.727h1.296v1.318h.091q.238-.648.863-1.051a2.54 2.54 0 0 1 1.409-.404q.148 0 .37.006.22.006.335.017v1.364a4 4 0 0 0-.313-.051 3 3 0 0 0-.505-.04q-.637 0-1.137.267a2 2 0 0 0-.784.727 1.96 1.96 0 0 0-.284 1.051V90zm4.953 0v-8.727h1.341V90zm.682-10.182a.95.95 0 0 1-.676-.267.86.86 0 0 1-.278-.642q0-.375.278-.642a.95.95 0 0 1 .676-.267q.392 0 .671.267a.85.85 0 0 1 .284.642q0 .375-.284.642a.94.94 0 0 1-.671.267m5.911 1.455v1.136h-4.523v-1.136zm-3.205-2.091h1.341V87.5q0 .569.165.852.17.278.432.375.267.09.562.091.222 0 .364-.022l.227-.046.273 1.204a3 3 0 0 1-.381.103 2.8 2.8 0 0 1-.619.057 2.7 2.7 0 0 1-1.114-.245 2.2 2.2 0 0 1-.898-.744q-.352-.5-.352-1.261zM265.087 90v-8.727h1.341V90zm.681-10.182a.95.95 0 0 1-.676-.267.86.86 0 0 1-.278-.642.86.86 0 0 1 .278-.642.96.96 0 0 1 .676-.267q.392 0 .671.267a.85.85 0 0 1 .284.642q0 .375-.284.642a.93.93 0 0 1-.671.267m5.661 10.364q-1.227 0-2.114-.58a3.77 3.77 0 0 1-1.363-1.596q-.477-1.017-.478-2.324 0-1.33.489-2.347.495-1.023 1.375-1.596.886-.58 2.068-.58a3.9 3.9 0 0 1 1.659.341 3.2 3.2 0 0 1 1.211.954q.471.615.585 1.432h-1.341q-.154-.596-.682-1.056-.522-.466-1.409-.466-.784 0-1.375.409-.585.404-.915 1.142-.324.732-.324 1.721 0 1.012.319 1.762.322.75.909 1.165.591.414 1.386.414.523 0 .949-.181.426-.183.721-.523a2 2 0 0 0 .421-.819h1.341a3.1 3.1 0 0 1-1.739 2.37q-.727.358-1.693.358m6.96.022a3.5 3.5 0 0 1-1.505-.312 2.6 2.6 0 0 1-1.074-.915q-.398-.602-.398-1.454 0-.75.295-1.216a2.1 2.1 0 0 1 .79-.739q.494-.267 1.091-.397.603-.137 1.21-.217.797-.102 1.29-.153.5-.057.727-.187.233-.132.233-.455v-.045q0-.842-.46-1.307-.454-.466-1.381-.466-.96 0-1.505.42-.546.42-.767.898l-1.273-.455q.34-.795.909-1.238.574-.45 1.25-.625a5.2 5.2 0 0 1 1.341-.182q.42 0 .966.102.55.098 1.062.404.517.306.858.926t.341 1.659V90h-1.341v-1.182h-.068q-.136.285-.454.608-.32.324-.847.551-.528.228-1.29.227m.205-1.204q.795 0 1.341-.312.551-.313.829-.807.284-.495.284-1.04v-1.227q-.086.102-.375.187a6 6 0 0 1-.659.142 30 30 0 0 1-1.284.17q-.522.069-.977.222a1.7 1.7 0 0 0-.727.45q-.273.294-.273.806 0 .699.517 1.057.523.352 1.324.352m6.584-10.636V90h-1.341V78.364zm8.751 2.909v1.136h-4.523v-1.136zm-3.205-2.091h1.341V87.5q0 .569.165.852.171.278.432.375.267.09.562.091.222 0 .364-.022l.227-.046.273 1.204a3 3 0 0 1-.381.103 2.8 2.8 0 0 1-.619.057 2.7 2.7 0 0 1-1.114-.245 2.2 2.2 0 0 1-.897-.744q-.353-.5-.353-1.261zm5.75 5.568V90h-1.34V78.364h1.34v4.272h.114q.307-.675.921-1.073.619-.404 1.647-.404.893 0 1.563.358.67.353 1.04 1.085.375.727.375 1.852V90h-1.341v-5.454q0-1.04-.54-1.609-.534-.573-1.483-.573-.66 0-1.182.278a2.04 2.04 0 0 0-.818.813q-.296.534-.296 1.295m7.113 5.25v-8.727h1.341V90zm.681-10.182a.95.95 0 0 1-.676-.267.86.86 0 0 1-.278-.642.86.86 0 0 1 .278-.642.96.96 0 0 1 .676-.267q.392 0 .671.267a.85.85 0 0 1 .284.642q0 .375-.284.642a.93.93 0 0 1-.671.267m3.456 4.932V90h-1.34v-8.727h1.295v1.363h.114q.307-.665.931-1.068.625-.409 1.614-.409.887 0 1.551.364a2.45 2.45 0 0 1 1.034 1.09q.37.73.37 1.841V90h-1.341v-5.454q0-1.029-.534-1.603-.534-.58-1.466-.58a2.34 2.34 0 0 0-1.148.279 2 2 0 0 0-.79.813q-.29.534-.29 1.295m8.269 2.068-.023-1.659h.273l3.818-3.886h1.659l-4.068 4.113h-.114zM314.743 90V78.364h1.341V90zm5.545 0-3.409-4.318.955-.932 4.159 5.25zm2.158 0v-8.727h1.341V90zm.682-10.182a.95.95 0 0 1-.676-.267.86.86 0 0 1-.279-.642q0-.375.279-.642a.95.95 0 0 1 .676-.267q.392 0 .67.267.284.267.284.642t-.284.642a.93.93 0 0 1-.67.267m3.456 4.932V90h-1.341v-8.727h1.295v1.363h.114q.307-.665.932-1.068.624-.409 1.613-.409.886 0 1.552.364.664.358 1.034 1.09.369.73.369 1.841V90h-1.341v-5.454q0-1.029-.534-1.603-.534-.58-1.466-.58a2.34 2.34 0 0 0-1.148.279 2 2 0 0 0-.789.813q-.29.534-.29 1.295m10.541 8.704q-.972 0-1.67-.25a3.5 3.5 0 0 1-1.165-.647 3.5 3.5 0 0 1-.733-.853l1.068-.75q.182.24.46.546.279.312.762.54.487.233 1.278.233 1.057 0 1.744-.512.688-.51.688-1.602v-1.773h-.114q-.147.24-.42.591-.267.347-.773.62-.5.267-1.352.267-1.057 0-1.898-.5-.835-.501-1.324-1.455-.483-.954-.483-2.318 0-1.34.472-2.335.472-1 1.312-1.546.842-.55 1.943-.55.853 0 1.353.283.505.279.772.636.273.353.421.58h.136v-1.386h1.296v8.977q0 1.125-.512 1.83a2.9 2.9 0 0 1-1.363 1.04q-.852.334-1.898.334m-.045-4.795q.806 0 1.363-.37.557-.368.847-1.062.29-.693.29-1.659 0-.943-.285-1.665-.284-.721-.84-1.13-.558-.41-1.375-.41-.853 0-1.421.433a2.63 2.63 0 0 0-.847 1.158 4.5 4.5 0 0 0-.278 1.614q0 .909.284 1.608.29.693.852 1.091.569.392 1.41.392m7.272-.25-.091.614q-.097.647-.295 1.386-.193.738-.404 1.392-.21.653-.346 1.04h-1.023l.193-.96q.12-.597.239-1.335.125-.735.205-1.5l.068-.637zm7.553 1.795a3.55 3.55 0 0 1-1.506-.312 2.6 2.6 0 0 1-1.074-.915q-.397-.602-.397-1.454 0-.75.295-1.216.295-.472.79-.739a4.1 4.1 0 0 1 1.091-.397q.602-.137 1.21-.217.795-.102 1.29-.153.5-.057.727-.187.233-.132.233-.455v-.045q0-.842-.46-1.307-.455-.466-1.381-.466-.96 0-1.506.42-.545.42-.767.898l-1.272-.455q.34-.795.909-1.238.573-.45 1.25-.625a5.2 5.2 0 0 1 1.341-.182q.42 0 .965.102.552.098 1.063.404.518.306.858.926t.341 1.659V90h-1.341v-1.182h-.068q-.137.285-.455.608-.318.324-.846.551-.53.228-1.29.227m.204-1.204q.797 0 1.341-.312a2.13 2.13 0 0 0 1.114-1.847v-1.227q-.086.102-.375.187a6 6 0 0 1-.659.142 30 30 0 0 1-1.284.17 5 5 0 0 0-.978.222 1.7 1.7 0 0 0-.727.45q-.273.294-.273.806 0 .699.518 1.057.522.352 1.323.352m6.584-4.25V90h-1.341v-8.727h1.296v1.363h.113a2.5 2.5 0 0 1 .932-1.068q.625-.409 1.614-.409.887 0 1.551.364a2.45 2.45 0 0 1 1.034 1.09q.369.73.369 1.841V90h-1.341v-5.454q0-1.029-.534-1.603-.533-.58-1.466-.58-.642 0-1.147.279a2 2 0 0 0-.79.813q-.29.534-.29 1.295m10.314 5.432q-1.09 0-1.926-.551-.835-.556-1.307-1.569-.471-1.016-.471-2.403 0-1.375.471-2.386.472-1.011 1.313-1.563.84-.55 1.943-.55.852 0 1.346.283.501.279.762.636.267.353.415.58h.113v-4.295h1.341V90h-1.295v-1.34h-.159a9 9 0 0 1-.421.601q-.273.359-.778.642-.506.279-1.347.279m.182-1.205q.806 0 1.364-.42.556-.426.846-1.176.29-.755.29-1.745 0-.977-.284-1.71-.285-.738-.841-1.148-.557-.414-1.375-.414-.852 0-1.421.437-.562.432-.846 1.176a4.7 4.7 0 0 0-.279 1.66q0 .93.285 1.692.29.756.852 1.205.568.443 1.409.443m12.506 1.205q-1.228 0-2.114-.58a3.8 3.8 0 0 1-1.364-1.596q-.477-1.017-.477-2.324 0-1.33.489-2.347.494-1.023 1.375-1.596.886-.58 2.068-.58a3.9 3.9 0 0 1 1.659.341q.739.341 1.21.954.473.615.585 1.432h-1.34q-.154-.596-.682-1.056-.523-.466-1.409-.466-.784 0-1.375.409-.586.404-.915 1.142-.324.732-.324 1.721 0 1.012.318 1.762.324.75.909 1.165.59.414 1.387.414.522 0 .948-.181.427-.183.722-.523t.421-.819h1.34a3.1 3.1 0 0 1-.562 1.393q-.444.613-1.176.977-.727.358-1.693.358m7.937 0q-1.182 0-2.074-.563-.887-.563-1.386-1.573-.495-1.012-.494-2.364 0-1.365.494-2.38.5-1.018 1.386-1.58.892-.563 2.074-.563t2.068.563q.892.562 1.387 1.58.5 1.015.5 2.38 0 1.352-.5 2.364-.495 1.01-1.387 1.573-.886.563-2.068.563m0-1.205q.898 0 1.477-.46t.858-1.21.279-1.625-.279-1.63a2.74 2.74 0 0 0-.858-1.223q-.579-.465-1.477-.465t-1.477.465a2.74 2.74 0 0 0-.858 1.222 4.7 4.7 0 0 0-.279 1.63q0 .876.279 1.626.278.75.858 1.21t1.477.46M394.634 90v-8.727h1.295v1.363h.114a2.2 2.2 0 0 1 .88-1.085q.608-.392 1.461-.392.862 0 1.437.392.58.387.903 1.085h.091q.336-.675 1.006-1.073.67-.404 1.608-.404 1.17 0 1.915.733.744.727.744 2.267V90h-1.341v-5.84q0-.967-.528-1.382a1.96 1.96 0 0 0-1.245-.414q-.92 0-1.426.556-.505.552-.505 1.398V90h-1.364v-5.977q0-.744-.483-1.2-.483-.46-1.244-.46a1.84 1.84 0 0 0-.978.279 2.1 2.1 0 0 0-.727.773 2.3 2.3 0 0 0-.273 1.13V90zm12.906 0v-8.727h1.295v1.363h.114q.273-.698.881-1.085.608-.392 1.46-.392.864 0 1.437.392.58.387.904 1.085h.091q.335-.675 1.005-1.073.67-.404 1.608-.404 1.171 0 1.915.733.744.727.744 2.267V90h-1.341v-5.84q0-.967-.528-1.382a1.96 1.96 0 0 0-1.244-.414q-.92 0-1.426.556-.507.552-.506 1.398V90h-1.364v-5.977q0-.744-.483-1.2-.482-.46-1.244-.46-.523 0-.977.279-.45.279-.728.773a2.3 2.3 0 0 0-.272 1.13V90zm18.406-3.568v-5.16h1.341V90h-1.341v-1.477h-.091q-.307.665-.954 1.13-.648.46-1.637.46-.818 0-1.454-.357-.637-.364-1-1.091-.364-.733-.364-1.847v-5.545h1.341v5.454q0 .955.534 1.523.54.568 1.375.568.5 0 1.017-.255.523-.256.875-.785.358-.528.358-1.346m4.138-1.682V90h-1.341v-8.727h1.295v1.363h.114q.307-.665.932-1.068.624-.409 1.613-.409.886 0 1.552.364.664.358 1.034 1.09.369.73.369 1.841V90h-1.341v-5.454q0-1.029-.534-1.603-.534-.58-1.466-.58a2.34 2.34 0 0 0-1.148.279 2 2 0 0 0-.789.813q-.29.534-.29 1.295m7.018 5.25v-8.727h1.341V90zm.682-10.182a.95.95 0 0 1-.676-.267.86.86 0 0 1-.278-.642q0-.375.278-.642a.95.95 0 0 1 .676-.267q.392 0 .671.267a.85.85 0 0 1 .284.642q0 .375-.284.642a.94.94 0 0 1-.671.267m5.661 10.364q-1.228 0-2.114-.58a3.8 3.8 0 0 1-1.364-1.596q-.477-1.017-.477-2.324 0-1.33.489-2.347.494-1.023 1.375-1.596.886-.58 2.068-.58a3.9 3.9 0 0 1 1.659.341q.739.341 1.21.954.473.615.585 1.432h-1.34q-.154-.596-.682-1.056-.523-.466-1.409-.466-.784 0-1.375.409-.586.404-.915 1.142-.324.732-.324 1.721 0 1.012.318 1.762.324.75.909 1.165.59.414 1.387.414.522 0 .948-.181.427-.183.722-.523t.421-.819h1.34a3.1 3.1 0 0 1-.562 1.393q-.444.613-1.176.977-.727.358-1.693.358m6.96.022a3.55 3.55 0 0 1-1.506-.312 2.6 2.6 0 0 1-1.074-.915q-.397-.602-.397-1.454 0-.75.295-1.216.295-.472.79-.739a4.1 4.1 0 0 1 1.091-.397q.602-.137 1.21-.217.795-.102 1.29-.153.5-.057.727-.187.233-.132.233-.455v-.045q0-.842-.46-1.307-.455-.466-1.381-.466-.96 0-1.506.42-.545.42-.767.898l-1.272-.455q.34-.795.909-1.238.573-.45 1.25-.625a5.2 5.2 0 0 1 1.341-.182q.42 0 .965.102.552.098 1.063.404.518.306.858.926t.341 1.659V90h-1.341v-1.182h-.068q-.137.285-.455.608-.318.324-.846.551-.53.228-1.29.227m.204-1.204q.797 0 1.341-.312a2.13 2.13 0 0 0 1.114-1.847v-1.227q-.086.102-.375.187a6 6 0 0 1-.659.142 30 30 0 0 1-1.284.17 5 5 0 0 0-.978.222 1.7 1.7 0 0 0-.727.45q-.273.294-.273.806 0 .699.518 1.057.522.352 1.323.352m9.039-7.727v1.136h-4.523v-1.136zm-3.205-2.091h1.341V87.5q0 .569.165.852.17.278.432.375.267.09.562.091.222 0 .364-.022l.227-.046.273 1.204a3 3 0 0 1-.381.103 2.8 2.8 0 0 1-.619.057 2.7 2.7 0 0 1-1.114-.245 2.2 2.2 0 0 1-.898-.744q-.351-.5-.352-1.261zM460.665 90v-8.727h1.341V90zm.682-10.182a.96.96 0 0 1-.677-.267.86.86 0 0 1-.278-.642.86.86 0 0 1 .278-.642.96.96 0 0 1 .677-.267q.391 0 .67.267a.85.85 0 0 1 .284.642q0 .375-.284.642a.93.93 0 0 1-.67.267m5.66 10.364q-1.182 0-2.074-.563-.887-.563-1.386-1.573-.495-1.012-.494-2.364 0-1.365.494-2.38.5-1.018 1.386-1.58.892-.563 2.074-.563t2.068.563q.892.562 1.387 1.58.5 1.015.5 2.38 0 1.352-.5 2.364-.495 1.01-1.387 1.573-.886.563-2.068.563m0-1.205q.898 0 1.477-.46t.858-1.21.279-1.625-.279-1.63a2.74 2.74 0 0 0-.858-1.223q-.579-.465-1.477-.465t-1.477.465a2.74 2.74 0 0 0-.858 1.222 4.7 4.7 0 0 0-.279 1.63q0 .876.279 1.626.278.75.858 1.21t1.477.46m6.342-4.227V90h-1.34v-8.727h1.295v1.363h.114q.307-.665.931-1.068.625-.409 1.614-.409.887 0 1.551.364a2.45 2.45 0 0 1 1.034 1.09q.37.73.37 1.841V90h-1.341v-5.454q0-1.029-.534-1.603-.534-.58-1.466-.58a2.34 2.34 0 0 0-1.148.279 2 2 0 0 0-.79.813q-.29.534-.29 1.295"/></svg>