<svg width="608" height="140" viewBox="0 0 608 140" fill="none" xmlns="http://www.w3.org/2000/svg">
<rect x="0.5" y="0.5" width="607" height="139" rx="23.5" fill="white"/>
<rect x="0.5" y="0.5" width="607" height="139" rx="23.5" stroke="#D4D4D4"/>
<mask id="mask0_117_3479" style="mask-type:alpha" maskUnits="userSpaceOnUse" x="73" y="58" width="24" height="24">
<rect x="73" y="58" width="24" height="24" fill="#D9D9D9"/>
</mask>
<g mask="url(#mask0_117_3479)">
<path d="M83.6 74.6L90.65 67.55L89.25 66.15L83.6 71.8L80.75 68.95L79.35 70.35L83.6 74.6ZM85 80C83.6167 80 82.3167 79.7375 81.1 79.2125C79.8833 78.6875 78.825 77.975 77.925 77.075C77.025 76.175 76.3125 75.1167 75.7875 73.9C75.2625 72.6833 75 71.3833 75 70C75 68.6167 75.2625 67.3167 75.7875 66.1C76.3125 64.8833 77.025 63.825 77.925 62.925C78.825 62.025 79.8833 61.3125 81.1 60.7875C82.3167 60.2625 83.6167 60 85 60C86.3833 60 87.6833 60.2625 88.9 60.7875C90.1167 61.3125 91.175 62.025 92.075 62.925C92.975 63.825 93.6875 64.8833 94.2125 66.1C94.7375 67.3167 95 68.6167 95 70C95 71.3833 94.7375 72.6833 94.2125 73.9C93.6875 75.1167 92.975 76.175 92.075 77.075C91.175 77.975 90.1167 78.6875 88.9 79.2125C87.6833 79.7375 86.3833 80 85 80ZM85 78C87.2333 78 89.125 77.225 90.675 75.675C92.225 74.125 93 72.2333 93 70C93 67.7667 92.225 65.875 90.675 64.325C89.125 62.775 87.2333 62 85 62C82.7667 62 80.875 62.775 79.325 64.325C77.775 65.875 77 67.7667 77 70C77 72.2333 77.775 74.125 79.325 75.675C80.875 77.225 82.7667 78 85 78Z" fill="#2DB246"/>
</g>
<path d="M122.585 63V49.9091H130.486V51.3153H124.17V55.7386H130.077V57.1449H124.17V61.5938H130.588V63H122.585ZM140.167 53.1818L136.536 63H135.002L131.371 53.1818H133.008L135.718 61.0057H135.82L138.531 53.1818H140.167ZM143.748 63.2301C143.126 63.2301 142.562 63.1129 142.055 62.8786C141.547 62.6399 141.145 62.2969 140.846 61.8494C140.548 61.3977 140.399 60.8523 140.399 60.2131C140.399 59.6506 140.51 59.1946 140.731 58.8452C140.953 58.4915 141.249 58.2145 141.62 58.0142C141.991 57.8139 142.4 57.6648 142.847 57.5668C143.299 57.4645 143.753 57.3835 144.209 57.3239C144.805 57.2472 145.289 57.1896 145.66 57.1513C146.035 57.1087 146.307 57.0384 146.478 56.9403C146.653 56.8423 146.74 56.6719 146.74 56.429V56.3778C146.74 55.7472 146.567 55.2571 146.222 54.9077C145.881 54.5582 145.363 54.3835 144.669 54.3835C143.949 54.3835 143.384 54.5412 142.975 54.8565C142.566 55.1719 142.278 55.5085 142.112 55.8665L140.68 55.3551C140.936 54.7585 141.277 54.294 141.703 53.9616C142.133 53.625 142.602 53.3906 143.109 53.2585C143.621 53.1222 144.123 53.054 144.618 53.054C144.933 53.054 145.295 53.0923 145.704 53.169C146.118 53.2415 146.516 53.3928 146.9 53.6229C147.287 53.853 147.609 54.2003 147.865 54.6648C148.121 55.1293 148.248 55.7514 148.248 56.5312V63H146.74V61.6705H146.663C146.561 61.8835 146.39 62.1115 146.152 62.3544C145.913 62.5973 145.596 62.804 145.199 62.9744C144.803 63.1449 144.319 63.2301 143.748 63.2301ZM143.979 61.875C144.575 61.875 145.078 61.7578 145.487 61.5234C145.9 61.2891 146.211 60.9865 146.42 60.6158C146.633 60.245 146.74 59.8551 146.74 59.446V58.0653C146.676 58.142 146.535 58.2124 146.318 58.2763C146.105 58.3359 145.858 58.3892 145.577 58.4361C145.3 58.4787 145.029 58.517 144.765 58.5511C144.505 58.581 144.294 58.6065 144.132 58.6278C143.74 58.679 143.373 58.7621 143.032 58.8771C142.696 58.9879 142.423 59.1562 142.214 59.3821C142.01 59.6037 141.907 59.9062 141.907 60.2898C141.907 60.8139 142.101 61.2102 142.489 61.4787C142.881 61.7429 143.378 61.875 143.979 61.875ZM151.51 49.9091V63H150.002V49.9091H151.51ZM159.461 58.9858V53.1818H160.969V63H159.461V61.3381H159.358C159.128 61.8366 158.77 62.2607 158.285 62.6101C157.799 62.9553 157.185 63.1278 156.444 63.1278C155.83 63.1278 155.285 62.9936 154.807 62.7251C154.33 62.4524 153.955 62.0433 153.682 61.4979C153.41 60.9482 153.273 60.2557 153.273 59.4205V53.1818H154.782V59.3182C154.782 60.0341 154.982 60.6051 155.383 61.0312C155.787 61.4574 156.303 61.6705 156.93 61.6705C157.305 61.6705 157.686 61.5746 158.074 61.3828C158.466 61.1911 158.794 60.897 159.058 60.5007C159.327 60.1044 159.461 59.5994 159.461 58.9858ZM165.621 63.2301C164.999 63.2301 164.435 63.1129 163.928 62.8786C163.42 62.6399 163.018 62.2969 162.719 61.8494C162.421 61.3977 162.272 60.8523 162.272 60.2131C162.272 59.6506 162.383 59.1946 162.604 58.8452C162.826 58.4915 163.122 58.2145 163.493 58.0142C163.864 57.8139 164.273 57.6648 164.72 57.5668C165.172 57.4645 165.626 57.3835 166.082 57.3239C166.678 57.2472 167.162 57.1896 167.533 57.1513C167.908 57.1087 168.18 57.0384 168.351 56.9403C168.526 56.8423 168.613 56.6719 168.613 56.429V56.3778C168.613 55.7472 168.44 55.2571 168.095 54.9077C167.754 54.5582 167.237 54.3835 166.542 54.3835C165.822 54.3835 165.257 54.5412 164.848 54.8565C164.439 55.1719 164.151 55.5085 163.985 55.8665L162.553 55.3551C162.809 54.7585 163.15 54.294 163.576 53.9616C164.006 53.625 164.475 53.3906 164.982 53.2585C165.494 53.1222 165.996 53.054 166.491 53.054C166.806 53.054 167.168 53.0923 167.577 53.169C167.991 53.2415 168.389 53.3928 168.773 53.6229C169.161 53.853 169.482 54.2003 169.738 54.6648C169.994 55.1293 170.121 55.7514 170.121 56.5312V63H168.613V61.6705H168.536C168.434 61.8835 168.263 62.1115 168.025 62.3544C167.786 62.5973 167.469 62.804 167.072 62.9744C166.676 63.1449 166.192 63.2301 165.621 63.2301ZM165.852 61.875C166.448 61.875 166.951 61.7578 167.36 61.5234C167.773 61.2891 168.085 60.9865 168.293 60.6158C168.506 60.245 168.613 59.8551 168.613 59.446V58.0653C168.549 58.142 168.408 58.2124 168.191 58.2763C167.978 58.3359 167.731 58.3892 167.45 58.4361C167.173 58.4787 166.902 58.517 166.638 58.5511C166.378 58.581 166.167 58.6065 166.005 58.6278C165.613 58.679 165.246 58.7621 164.906 58.8771C164.569 58.9879 164.296 59.1562 164.087 59.3821C163.883 59.6037 163.781 59.9062 163.781 60.2898C163.781 60.8139 163.974 61.2102 164.362 61.4787C164.754 61.7429 165.251 61.875 165.852 61.875ZM176.145 53.1818V54.4602H171.057V53.1818H176.145ZM172.54 50.8295H174.048V60.1875C174.048 60.6136 174.11 60.9332 174.233 61.1463C174.361 61.3551 174.523 61.4957 174.719 61.5682C174.92 61.6364 175.131 61.6705 175.352 61.6705C175.518 61.6705 175.655 61.6619 175.761 61.6449C175.868 61.6236 175.953 61.6065 176.017 61.5938L176.324 62.9489C176.221 62.9872 176.079 63.0256 175.895 63.0639C175.712 63.1065 175.48 63.1278 175.199 63.1278C174.773 63.1278 174.355 63.0362 173.946 62.853C173.541 62.6697 173.204 62.3906 172.936 62.0156C172.672 61.6406 172.54 61.1676 172.54 60.5966V50.8295ZM181.425 63.2045C180.479 63.2045 179.663 62.9957 178.977 62.5781C178.295 62.1562 177.769 61.5682 177.398 60.8139C177.031 60.0554 176.848 59.1733 176.848 58.1676C176.848 57.1619 177.031 56.2756 177.398 55.5085C177.769 54.7372 178.284 54.1364 178.945 53.706C179.61 53.2713 180.385 53.054 181.271 53.054C181.783 53.054 182.288 53.1392 182.786 53.3097C183.285 53.4801 183.739 53.7571 184.148 54.1406C184.557 54.5199 184.883 55.0227 185.126 55.6491C185.369 56.2756 185.49 57.0469 185.49 57.9631V58.6023H177.922V57.2983H183.956C183.956 56.7443 183.845 56.25 183.624 55.8153C183.406 55.3807 183.095 55.0376 182.691 54.7862C182.29 54.5348 181.817 54.4091 181.271 54.4091C180.671 54.4091 180.151 54.5582 179.712 54.8565C179.277 55.1506 178.943 55.5341 178.708 56.0071C178.474 56.4801 178.357 56.9872 178.357 57.5284V58.3977C178.357 59.1392 178.485 59.7678 178.74 60.2834C179 60.7947 179.36 61.1847 179.82 61.4531C180.281 61.7173 180.816 61.8494 181.425 61.8494C181.821 61.8494 182.179 61.794 182.499 61.6832C182.823 61.5682 183.102 61.3977 183.336 61.1719C183.57 60.9418 183.752 60.6562 183.879 60.3153L185.337 60.7244C185.183 61.2188 184.926 61.6534 184.563 62.0284C184.201 62.3991 183.754 62.6889 183.221 62.8977C182.688 63.1023 182.09 63.2045 181.425 63.2045ZM193.74 55.3807L192.384 55.7642C192.299 55.5384 192.173 55.3189 192.007 55.1058C191.845 54.8885 191.624 54.7095 191.343 54.5689C191.061 54.4283 190.701 54.358 190.262 54.358C189.661 54.358 189.161 54.4964 188.76 54.7734C188.364 55.0462 188.166 55.3935 188.166 55.8153C188.166 56.1903 188.302 56.4865 188.575 56.7038C188.847 56.9212 189.274 57.1023 189.853 57.2472L191.311 57.6051C192.188 57.8182 192.843 58.1442 193.273 58.5831C193.703 59.0178 193.919 59.5781 193.919 60.2642C193.919 60.8267 193.757 61.3295 193.433 61.7727C193.113 62.2159 192.666 62.5653 192.09 62.821C191.515 63.0767 190.846 63.2045 190.083 63.2045C189.082 63.2045 188.253 62.9872 187.597 62.5526C186.941 62.1179 186.525 61.483 186.35 60.6477L187.782 60.2898C187.919 60.8182 188.176 61.2145 188.556 61.4787C188.939 61.7429 189.44 61.875 190.058 61.875C190.761 61.875 191.319 61.7259 191.732 61.4276C192.15 61.125 192.359 60.7628 192.359 60.3409C192.359 60 192.24 59.7145 192.001 59.4844C191.762 59.25 191.396 59.0753 190.901 58.9602L189.265 58.5767C188.366 58.3636 187.705 58.0334 187.284 57.5859C186.866 57.1342 186.657 56.5696 186.657 55.892C186.657 55.3381 186.813 54.848 187.124 54.4219C187.439 53.9957 187.867 53.6612 188.409 53.4183C188.954 53.1754 189.572 53.054 190.262 53.054C191.234 53.054 191.997 53.267 192.551 53.6932C193.109 54.1193 193.505 54.6818 193.74 55.3807ZM199.456 63V49.9091H201.042V56.4034H201.195L207.076 49.9091H209.147L203.65 55.8153L209.147 63H207.229L202.678 56.9148L201.042 58.7557V63H199.456ZM213.39 63.2045C212.444 63.2045 211.628 62.9957 210.942 62.5781C210.26 62.1562 209.733 61.5682 209.363 60.8139C208.996 60.0554 208.813 59.1733 208.813 58.1676C208.813 57.1619 208.996 56.2756 209.363 55.5085C209.733 54.7372 210.249 54.1364 210.91 53.706C211.574 53.2713 212.35 53.054 213.236 53.054C213.748 53.054 214.253 53.1392 214.751 53.3097C215.25 53.4801 215.704 53.7571 216.113 54.1406C216.522 54.5199 216.848 55.0227 217.091 55.6491C217.334 56.2756 217.455 57.0469 217.455 57.9631V58.6023H209.887V57.2983H215.921C215.921 56.7443 215.81 56.25 215.589 55.8153C215.371 55.3807 215.06 55.0376 214.655 54.7862C214.255 54.5348 213.782 54.4091 213.236 54.4091C212.635 54.4091 212.116 54.5582 211.677 54.8565C211.242 55.1506 210.907 55.5341 210.673 56.0071C210.439 56.4801 210.322 56.9872 210.322 57.5284V58.3977C210.322 59.1392 210.449 59.7678 210.705 60.2834C210.965 60.7947 211.325 61.1847 211.785 61.4531C212.246 61.7173 212.78 61.8494 213.39 61.8494C213.786 61.8494 214.144 61.794 214.464 61.6832C214.787 61.5682 215.067 61.3977 215.301 61.1719C215.535 60.9418 215.716 60.6562 215.844 60.3153L217.302 60.7244C217.148 61.2188 216.89 61.6534 216.528 62.0284C216.166 62.3991 215.719 62.6889 215.186 62.8977C214.653 63.1023 214.055 63.2045 213.39 63.2045ZM219.423 66.6818C219.167 66.6818 218.939 66.6605 218.739 66.6179C218.538 66.5795 218.4 66.5412 218.323 66.5028L218.707 65.1733C219.073 65.267 219.397 65.3011 219.678 65.2756C219.96 65.25 220.209 65.1243 220.426 64.8984C220.648 64.6768 220.85 64.3168 221.033 63.8182L221.315 63.0511L217.684 53.1818H219.32L222.031 61.0057H222.133L224.843 53.1818H226.479L222.312 64.4318C222.124 64.9389 221.892 65.3587 221.615 65.6911C221.338 66.0277 221.016 66.277 220.65 66.4389C220.288 66.6009 219.879 66.6818 219.423 66.6818ZM238.897 53.1818C238.82 52.5341 238.509 52.0312 237.963 51.6733C237.418 51.3153 236.749 51.1364 235.956 51.1364C235.377 51.1364 234.87 51.2301 234.435 51.4176C234.005 51.6051 233.668 51.8629 233.425 52.1911C233.186 52.5192 233.067 52.892 233.067 53.3097C233.067 53.6591 233.15 53.9595 233.316 54.2109C233.487 54.4581 233.704 54.6648 233.968 54.831C234.233 54.9929 234.51 55.1271 234.799 55.2337C235.089 55.3359 235.355 55.419 235.598 55.483L236.928 55.8409C237.269 55.9304 237.648 56.054 238.066 56.2116C238.488 56.3693 238.89 56.5845 239.274 56.8572C239.662 57.1257 239.981 57.4709 240.233 57.8928C240.484 58.3146 240.61 58.8324 240.61 59.446C240.61 60.1534 240.424 60.7926 240.054 61.3636C239.687 61.9347 239.15 62.3885 238.443 62.7251C237.74 63.0618 236.885 63.2301 235.88 63.2301C234.942 63.2301 234.13 63.0788 233.444 62.7763C232.762 62.4737 232.225 62.0518 231.833 61.5107C231.446 60.9695 231.226 60.3409 231.175 59.625H232.811C232.854 60.1193 233.02 60.5284 233.31 60.8523C233.604 61.1719 233.975 61.4105 234.422 61.5682C234.874 61.7216 235.36 61.7983 235.88 61.7983C236.485 61.7983 237.028 61.7003 237.51 61.5043C237.991 61.304 238.373 61.027 238.654 60.6733C238.935 60.3153 239.076 59.8977 239.076 59.4205C239.076 58.9858 238.954 58.6321 238.711 58.3594C238.468 58.0866 238.149 57.8651 237.752 57.6946C237.356 57.5241 236.928 57.375 236.468 57.2472L234.857 56.7869C233.834 56.4929 233.025 56.0732 232.428 55.5277C231.831 54.9822 231.533 54.2685 231.533 53.3864C231.533 52.6534 231.731 52.0142 232.127 51.4688C232.528 50.919 233.065 50.4929 233.738 50.1903C234.416 49.8835 235.172 49.7301 236.007 49.7301C236.851 49.7301 237.601 49.8814 238.257 50.1839C238.914 50.4822 239.434 50.8913 239.817 51.4112C240.205 51.9311 240.409 52.5213 240.431 53.1818H238.897ZM243.418 59.4205L243.392 57.554H243.699L247.994 53.1818H249.861L245.284 57.8097H245.156L243.418 59.4205ZM242.012 63V49.9091H243.52V63H242.012ZM248.25 63L244.415 58.142L245.489 57.0938L250.168 63H248.25ZM250.803 63V53.1818H252.311V63H250.803ZM251.57 51.5455C251.276 51.5455 251.022 51.4453 250.809 51.245C250.6 51.0447 250.496 50.804 250.496 50.5227C250.496 50.2415 250.6 50.0007 250.809 49.8004C251.022 49.6001 251.276 49.5 251.57 49.5C251.864 49.5 252.115 49.6001 252.324 49.8004C252.537 50.0007 252.643 50.2415 252.643 50.5227C252.643 50.804 252.537 51.0447 252.324 51.245C252.115 51.4453 251.864 51.5455 251.57 51.5455ZM255.583 49.9091V63H254.074V49.9091H255.583ZM258.854 49.9091V63H257.346V49.9091H258.854ZM267.572 55.3807L266.216 55.7642C266.131 55.5384 266.006 55.3189 265.839 55.1058C265.677 54.8885 265.456 54.7095 265.175 54.5689C264.893 54.4283 264.533 54.358 264.094 54.358C263.493 54.358 262.993 54.4964 262.592 54.7734C262.196 55.0462 261.998 55.3935 261.998 55.8153C261.998 56.1903 262.134 56.4865 262.407 56.7038C262.68 56.9212 263.106 57.1023 263.685 57.2472L265.143 57.6051C266.02 57.8182 266.675 58.1442 267.105 58.5831C267.535 59.0178 267.751 59.5781 267.751 60.2642C267.751 60.8267 267.589 61.3295 267.265 61.7727C266.945 62.2159 266.498 62.5653 265.922 62.821C265.347 63.0767 264.678 63.2045 263.915 63.2045C262.914 63.2045 262.085 62.9872 261.429 62.5526C260.773 62.1179 260.357 61.483 260.182 60.6477L261.614 60.2898C261.751 60.8182 262.008 61.2145 262.388 61.4787C262.771 61.7429 263.272 61.875 263.89 61.875C264.593 61.875 265.151 61.7259 265.564 61.4276C265.982 61.125 266.191 60.7628 266.191 60.3409C266.191 60 266.072 59.7145 265.833 59.4844C265.594 59.25 265.228 59.0753 264.733 58.9602L263.097 58.5767C262.198 58.3636 261.537 58.0334 261.116 57.5859C260.698 57.1342 260.489 56.5696 260.489 55.892C260.489 55.3381 260.645 54.848 260.956 54.4219C261.271 53.9957 261.699 53.6612 262.241 53.4183C262.786 53.1754 263.404 53.054 264.094 53.054C265.066 53.054 265.829 53.267 266.383 53.6932C266.941 54.1193 267.337 54.6818 267.572 55.3807Z" fill="#0A0A0A"/>
<path d="M122.886 90H121.409L125.682 78.3636H127.136L131.409 90H129.932L126.455 80.2045H126.364L122.886 90ZM123.432 85.4545H129.386V86.7045H123.432V85.4545ZM133.381 84.75V90H132.04V81.2727H133.335V82.6364H133.449C133.653 82.1932 133.964 81.8371 134.381 81.5682C134.797 81.2955 135.335 81.1591 135.994 81.1591C136.585 81.1591 137.102 81.2803 137.545 81.5227C137.989 81.7614 138.333 82.125 138.58 82.6136C138.826 83.0985 138.949 83.7121 138.949 84.4545V90H137.608V84.5455C137.608 83.8598 137.43 83.3258 137.074 82.9432C136.718 82.5568 136.229 82.3636 135.608 82.3636C135.18 82.3636 134.797 82.4564 134.46 82.642C134.127 82.8277 133.864 83.0985 133.67 83.4545C133.477 83.8106 133.381 84.2424 133.381 84.75ZM142.967 90.2045C142.414 90.2045 141.912 90.1004 141.462 89.892C141.011 89.6799 140.653 89.375 140.388 88.9773C140.123 88.5758 139.99 88.0909 139.99 87.5227C139.99 87.0227 140.089 86.6174 140.286 86.3068C140.482 85.9924 140.746 85.7462 141.075 85.5682C141.405 85.3902 141.768 85.2576 142.166 85.1705C142.568 85.0795 142.971 85.0076 143.376 84.9545C143.907 84.8864 144.337 84.8352 144.666 84.8011C145 84.7633 145.242 84.7008 145.393 84.6136C145.549 84.5265 145.626 84.375 145.626 84.1591V84.1136C145.626 83.553 145.473 83.1174 145.166 82.8068C144.863 82.4962 144.403 82.3409 143.786 82.3409C143.145 82.3409 142.643 82.4811 142.28 82.7614C141.916 83.0417 141.661 83.3409 141.513 83.6591L140.24 83.2045C140.467 82.6742 140.77 82.2614 141.149 81.9659C141.532 81.6667 141.948 81.4583 142.399 81.3409C142.854 81.2197 143.301 81.1591 143.74 81.1591C144.02 81.1591 144.342 81.1932 144.706 81.2614C145.073 81.3258 145.428 81.4602 145.768 81.6648C146.113 81.8693 146.399 82.178 146.626 82.5909C146.854 83.0038 146.967 83.5568 146.967 84.25V90H145.626V88.8182H145.558C145.467 89.0076 145.316 89.2102 145.104 89.4261C144.892 89.642 144.609 89.8258 144.257 89.9773C143.905 90.1288 143.475 90.2045 142.967 90.2045ZM143.172 89C143.702 89 144.149 88.8958 144.513 88.6875C144.88 88.4792 145.157 88.2102 145.342 87.8807C145.532 87.5511 145.626 87.2045 145.626 86.8409V85.6136C145.57 85.6818 145.445 85.7443 145.251 85.8011C145.062 85.8542 144.842 85.9015 144.592 85.9432C144.346 85.9811 144.106 86.0152 143.871 86.0455C143.64 86.072 143.452 86.0947 143.308 86.1136C142.96 86.1591 142.634 86.233 142.331 86.3352C142.032 86.4337 141.789 86.5833 141.604 86.7841C141.422 86.9811 141.331 87.25 141.331 87.5909C141.331 88.0568 141.503 88.4091 141.848 88.6477C142.196 88.8826 142.638 89 143.172 89ZM149.756 78.3636V90H148.415V78.3636H149.756ZM152.075 93.2727C151.848 93.2727 151.645 93.2538 151.467 93.2159C151.289 93.1818 151.166 93.1477 151.098 93.1136L151.439 91.9318C151.765 92.0152 152.053 92.0455 152.303 92.0227C152.553 92 152.774 91.8883 152.967 91.6875C153.164 91.4905 153.344 91.1705 153.507 90.7273L153.757 90.0455L150.53 81.2727H151.984L154.393 88.2273H154.484L156.893 81.2727H158.348L154.643 91.2727C154.477 91.7235 154.27 92.0966 154.024 92.392C153.778 92.6913 153.492 92.9129 153.166 93.0568C152.844 93.2008 152.481 93.2727 152.075 93.2727ZM162.913 81.2727V82.4091H158.391V81.2727H162.913ZM159.709 79.1818H161.05V87.5C161.05 87.8788 161.105 88.1629 161.214 88.3523C161.328 88.5379 161.472 88.6629 161.646 88.7273C161.824 88.7879 162.012 88.8182 162.209 88.8182C162.357 88.8182 162.478 88.8106 162.572 88.7955C162.667 88.7765 162.743 88.7614 162.8 88.75L163.072 89.9545C162.982 89.9886 162.855 90.0227 162.692 90.0568C162.529 90.0947 162.322 90.1136 162.072 90.1136C161.694 90.1136 161.322 90.0322 160.959 89.8693C160.599 89.7064 160.3 89.4583 160.061 89.125C159.826 88.7917 159.709 88.3712 159.709 87.8636V79.1818ZM163.93 90V81.2727H165.271V90H163.93ZM164.612 79.8182C164.351 79.8182 164.125 79.7292 163.936 79.5511C163.75 79.3731 163.658 79.1591 163.658 78.9091C163.658 78.6591 163.75 78.4451 163.936 78.267C164.125 78.089 164.351 78 164.612 78C164.874 78 165.097 78.089 165.283 78.267C165.472 78.4451 165.567 78.6591 165.567 78.9091C165.567 79.1591 165.472 79.3731 165.283 79.5511C165.097 79.7292 164.874 79.8182 164.612 79.8182ZM170.273 90.1818C169.455 90.1818 168.75 89.9886 168.159 89.6023C167.568 89.2159 167.114 88.6837 166.795 88.0057C166.477 87.3277 166.318 86.553 166.318 85.6818C166.318 84.7955 166.481 84.0133 166.807 83.3352C167.136 82.6534 167.595 82.1212 168.182 81.7386C168.773 81.3523 169.462 81.1591 170.25 81.1591C170.864 81.1591 171.417 81.2727 171.909 81.5C172.402 81.7273 172.805 82.0455 173.119 82.4545C173.434 82.8636 173.629 83.3409 173.705 83.8864H172.364C172.261 83.4886 172.034 83.1364 171.682 82.8295C171.333 82.5189 170.864 82.3636 170.273 82.3636C169.75 82.3636 169.292 82.5 168.898 82.7727C168.508 83.0417 168.203 83.4223 167.983 83.9148C167.767 84.4034 167.659 84.9773 167.659 85.6364C167.659 86.3106 167.765 86.8977 167.977 87.3977C168.193 87.8977 168.496 88.286 168.886 88.5625C169.28 88.839 169.742 88.9773 170.273 88.9773C170.621 88.9773 170.938 88.9167 171.222 88.7955C171.506 88.6742 171.746 88.5 171.943 88.2727C172.14 88.0455 172.28 87.7727 172.364 87.4545H173.705C173.629 87.9697 173.441 88.4337 173.142 88.8466C172.847 89.2557 172.455 89.5814 171.966 89.8239C171.481 90.0625 170.917 90.1818 170.273 90.1818ZM177.233 90.2045C176.68 90.2045 176.178 90.1004 175.727 89.892C175.277 89.6799 174.919 89.375 174.653 88.9773C174.388 88.5758 174.256 88.0909 174.256 87.5227C174.256 87.0227 174.354 86.6174 174.551 86.3068C174.748 85.9924 175.011 85.7462 175.341 85.5682C175.67 85.3902 176.034 85.2576 176.432 85.1705C176.833 85.0795 177.237 85.0076 177.642 84.9545C178.172 84.8864 178.602 84.8352 178.932 84.8011C179.265 84.7633 179.508 84.7008 179.659 84.6136C179.814 84.5265 179.892 84.375 179.892 84.1591V84.1136C179.892 83.553 179.739 83.1174 179.432 82.8068C179.129 82.4962 178.669 82.3409 178.051 82.3409C177.411 82.3409 176.909 82.4811 176.545 82.7614C176.182 83.0417 175.926 83.3409 175.778 83.6591L174.506 83.2045C174.733 82.6742 175.036 82.2614 175.415 81.9659C175.797 81.6667 176.214 81.4583 176.665 81.3409C177.119 81.2197 177.566 81.1591 178.006 81.1591C178.286 81.1591 178.608 81.1932 178.972 81.2614C179.339 81.3258 179.693 81.4602 180.034 81.6648C180.379 81.8693 180.665 82.178 180.892 82.5909C181.119 83.0038 181.233 83.5568 181.233 84.25V90H179.892V88.8182H179.824C179.733 89.0076 179.581 89.2102 179.369 89.4261C179.157 89.642 178.875 89.8258 178.523 89.9773C178.17 90.1288 177.741 90.2045 177.233 90.2045ZM177.438 89C177.968 89 178.415 88.8958 178.778 88.6875C179.146 88.4792 179.422 88.2102 179.608 87.8807C179.797 87.5511 179.892 87.2045 179.892 86.8409V85.6136C179.835 85.6818 179.71 85.7443 179.517 85.8011C179.328 85.8542 179.108 85.9015 178.858 85.9432C178.612 85.9811 178.371 86.0152 178.136 86.0455C177.905 86.072 177.718 86.0947 177.574 86.1136C177.225 86.1591 176.9 86.233 176.597 86.3352C176.297 86.4337 176.055 86.5833 175.869 86.7841C175.688 86.9811 175.597 87.25 175.597 87.5909C175.597 88.0568 175.769 88.4091 176.114 88.6477C176.462 88.8826 176.903 89 177.438 89ZM184.021 78.3636V90H182.68V78.3636H184.021ZM191.545 90.2045C190.992 90.2045 190.491 90.1004 190.04 89.892C189.589 89.6799 189.231 89.375 188.966 88.9773C188.701 88.5758 188.568 88.0909 188.568 87.5227C188.568 87.0227 188.667 86.6174 188.864 86.3068C189.061 85.9924 189.324 85.7462 189.653 85.5682C189.983 85.3902 190.347 85.2576 190.744 85.1705C191.146 85.0795 191.549 85.0076 191.955 84.9545C192.485 84.8864 192.915 84.8352 193.244 84.8011C193.578 84.7633 193.82 84.7008 193.972 84.6136C194.127 84.5265 194.205 84.375 194.205 84.1591V84.1136C194.205 83.553 194.051 83.1174 193.744 82.8068C193.441 82.4962 192.981 82.3409 192.364 82.3409C191.723 82.3409 191.222 82.4811 190.858 82.7614C190.494 83.0417 190.239 83.3409 190.091 83.6591L188.818 83.2045C189.045 82.6742 189.348 82.2614 189.727 81.9659C190.11 81.6667 190.527 81.4583 190.977 81.3409C191.432 81.2197 191.879 81.1591 192.318 81.1591C192.598 81.1591 192.92 81.1932 193.284 81.2614C193.652 81.3258 194.006 81.4602 194.347 81.6648C194.691 81.8693 194.977 82.178 195.205 82.5909C195.432 83.0038 195.545 83.5568 195.545 84.25V90H194.205V88.8182H194.136C194.045 89.0076 193.894 89.2102 193.682 89.4261C193.47 89.642 193.188 89.8258 192.835 89.9773C192.483 90.1288 192.053 90.2045 191.545 90.2045ZM191.75 89C192.28 89 192.727 88.8958 193.091 88.6875C193.458 88.4792 193.735 88.2102 193.92 87.8807C194.11 87.5511 194.205 87.2045 194.205 86.8409V85.6136C194.148 85.6818 194.023 85.7443 193.83 85.8011C193.64 85.8542 193.42 85.9015 193.17 85.9432C192.924 85.9811 192.684 86.0152 192.449 86.0455C192.218 86.072 192.03 86.0947 191.886 86.1136C191.538 86.1591 191.212 86.233 190.909 86.3352C190.61 86.4337 190.367 86.5833 190.182 86.7841C190 86.9811 189.909 87.25 189.909 87.5909C189.909 88.0568 190.081 88.4091 190.426 88.6477C190.775 88.8826 191.216 89 191.75 89ZM197.175 90V78.3636H198.516V82.6591H198.629C198.728 82.5076 198.864 82.3144 199.038 82.0795C199.216 81.8409 199.47 81.6288 199.8 81.4432C200.133 81.2538 200.584 81.1591 201.152 81.1591C201.887 81.1591 202.535 81.3428 203.095 81.7102C203.656 82.0777 204.093 82.5985 204.408 83.2727C204.722 83.947 204.879 84.7424 204.879 85.6591C204.879 86.5833 204.722 87.3845 204.408 88.0625C204.093 88.7367 203.658 89.2595 203.101 89.6307C202.544 89.9981 201.902 90.1818 201.175 90.1818C200.614 90.1818 200.165 90.089 199.828 89.9034C199.491 89.714 199.232 89.5 199.05 89.2614C198.868 89.0189 198.728 88.8182 198.629 88.6591H198.47V90H197.175ZM198.493 85.6364C198.493 86.2955 198.589 86.8769 198.783 87.3807C198.976 87.8807 199.258 88.2727 199.629 88.5568C200 88.8371 200.455 88.9773 200.993 88.9773C201.554 88.9773 202.021 88.8295 202.396 88.5341C202.775 88.2348 203.059 87.8333 203.249 87.3295C203.442 86.822 203.538 86.2576 203.538 85.6364C203.538 85.0227 203.444 84.4697 203.254 83.9773C203.069 83.4811 202.786 83.089 202.408 82.8011C202.033 82.5095 201.561 82.3636 200.993 82.3636C200.447 82.3636 199.989 82.5019 199.618 82.7784C199.247 83.0511 198.966 83.4337 198.777 83.9261C198.588 84.4148 198.493 84.9848 198.493 85.6364ZM205.93 90V81.2727H207.271V90H205.93ZM206.612 79.8182C206.351 79.8182 206.125 79.7292 205.936 79.5511C205.75 79.3731 205.658 79.1591 205.658 78.9091C205.658 78.6591 205.75 78.4451 205.936 78.267C206.125 78.089 206.351 78 206.612 78C206.874 78 207.097 78.089 207.283 78.267C207.472 78.4451 207.567 78.6591 207.567 78.9091C207.567 79.1591 207.472 79.3731 207.283 79.5511C207.097 79.7292 206.874 79.8182 206.612 79.8182ZM210.068 78.3636V90H208.727V78.3636H210.068ZM211.524 90V81.2727H212.865V90H211.524ZM212.206 79.8182C211.945 79.8182 211.719 79.7292 211.53 79.5511C211.344 79.3731 211.251 79.1591 211.251 78.9091C211.251 78.6591 211.344 78.4451 211.53 78.267C211.719 78.089 211.945 78 212.206 78C212.467 78 212.691 78.089 212.876 78.267C213.066 78.4451 213.161 78.6591 213.161 78.9091C213.161 79.1591 213.066 79.3731 212.876 79.5511C212.691 79.7292 212.467 79.8182 212.206 79.8182ZM218.116 81.2727V82.4091H213.594V81.2727H218.116ZM214.912 79.1818H216.253V87.5C216.253 87.8788 216.308 88.1629 216.418 88.3523C216.531 88.5379 216.675 88.6629 216.849 88.7273C217.027 88.7879 217.215 88.8182 217.412 88.8182C217.56 88.8182 217.681 88.8106 217.776 88.7955C217.87 88.7765 217.946 88.7614 218.003 88.75L218.276 89.9545C218.185 89.9886 218.058 90.0227 217.895 90.0568C217.732 90.0947 217.526 90.1136 217.276 90.1136C216.897 90.1136 216.526 90.0322 216.162 89.8693C215.802 89.7064 215.503 89.4583 215.264 89.125C215.029 88.7917 214.912 88.3712 214.912 87.8636V79.1818ZM219.134 90V81.2727H220.474V90H219.134ZM219.815 79.8182C219.554 79.8182 219.329 79.7292 219.139 79.5511C218.954 79.3731 218.861 79.1591 218.861 78.9091C218.861 78.6591 218.954 78.4451 219.139 78.267C219.329 78.089 219.554 78 219.815 78C220.077 78 220.3 78.089 220.486 78.267C220.675 78.4451 220.77 78.6591 220.77 78.9091C220.77 79.1591 220.675 79.3731 220.486 79.5511C220.3 79.7292 220.077 79.8182 219.815 79.8182ZM225.589 90.1818C224.749 90.1818 224.023 89.9962 223.413 89.625C222.807 89.25 222.339 88.7273 222.01 88.0568C221.684 87.3826 221.521 86.5985 221.521 85.7045C221.521 84.8106 221.684 84.0227 222.01 83.3409C222.339 82.6553 222.798 82.1212 223.385 81.7386C223.976 81.3523 224.665 81.1591 225.453 81.1591C225.908 81.1591 226.357 81.2348 226.8 81.3864C227.243 81.5379 227.646 81.7841 228.01 82.125C228.374 82.4621 228.663 82.9091 228.879 83.4659C229.095 84.0227 229.203 84.7083 229.203 85.5227V86.0909H222.476V84.9318H227.839C227.839 84.4394 227.741 84 227.544 83.6136C227.351 83.2273 227.074 82.9223 226.714 82.6989C226.358 82.4754 225.938 82.3636 225.453 82.3636C224.919 82.3636 224.457 82.4962 224.067 82.7614C223.68 83.0227 223.383 83.3636 223.175 83.7841C222.966 84.2045 222.862 84.6553 222.862 85.1364V85.9091C222.862 86.5682 222.976 87.1269 223.203 87.5852C223.434 88.0398 223.754 88.3864 224.163 88.625C224.572 88.8598 225.048 88.9773 225.589 88.9773C225.942 88.9773 226.26 88.928 226.544 88.8295C226.832 88.7273 227.08 88.5758 227.288 88.375C227.497 88.1705 227.658 87.9167 227.771 87.6136L229.067 87.9773C228.93 88.4167 228.701 88.803 228.379 89.1364C228.057 89.4659 227.66 89.7235 227.186 89.9091C226.713 90.0909 226.18 90.1818 225.589 90.1818ZM236.425 83.2273L235.22 83.5682C235.144 83.3674 235.033 83.1723 234.885 82.983C234.741 82.7898 234.544 82.6307 234.294 82.5057C234.044 82.3807 233.724 82.3182 233.334 82.3182C232.8 82.3182 232.355 82.4413 231.999 82.6875C231.646 82.9299 231.47 83.2386 231.47 83.6136C231.47 83.947 231.591 84.2102 231.834 84.4034C232.076 84.5966 232.455 84.7576 232.97 84.8864L234.266 85.2045C235.046 85.3939 235.627 85.6837 236.01 86.0739C236.393 86.4602 236.584 86.9583 236.584 87.5682C236.584 88.0682 236.44 88.5152 236.152 88.9091C235.868 89.303 235.47 89.6136 234.959 89.8409C234.447 90.0682 233.853 90.1818 233.175 90.1818C232.285 90.1818 231.548 89.9886 230.964 89.6023C230.381 89.2159 230.012 88.6515 229.857 87.9091L231.129 87.5909C231.25 88.0606 231.48 88.4129 231.817 88.6477C232.158 88.8826 232.603 89 233.152 89C233.777 89 234.273 88.8674 234.641 88.6023C235.012 88.3333 235.197 88.0114 235.197 87.6364C235.197 87.3333 235.091 87.0795 234.879 86.875C234.667 86.6667 234.341 86.5114 233.902 86.4091L232.447 86.0682C231.648 85.8788 231.061 85.5852 230.686 85.1875C230.315 84.786 230.129 84.2841 230.129 83.6818C230.129 83.1894 230.268 82.7538 230.544 82.375C230.824 81.9962 231.205 81.6989 231.686 81.483C232.171 81.267 232.72 81.1591 233.334 81.1591C234.197 81.1591 234.875 81.3485 235.368 81.7273C235.864 82.1061 236.216 82.6061 236.425 83.2273ZM239.602 88.4091L239.511 89.0227C239.447 89.4545 239.348 89.9167 239.216 90.4091C239.087 90.9015 238.953 91.3655 238.812 91.8011C238.672 92.2367 238.557 92.5833 238.466 92.8409H237.443C237.492 92.5985 237.557 92.2784 237.636 91.8807C237.716 91.483 237.795 91.0379 237.875 90.5455C237.958 90.0568 238.027 89.5568 238.08 89.0455L238.148 88.4091H239.602ZM248.132 90.1818C247.314 90.1818 246.609 89.9886 246.018 89.6023C245.428 89.2159 244.973 88.6837 244.655 88.0057C244.337 87.3277 244.178 86.553 244.178 85.6818C244.178 84.7955 244.34 84.0133 244.666 83.3352C244.996 82.6534 245.454 82.1212 246.041 81.7386C246.632 81.3523 247.321 81.1591 248.109 81.1591C248.723 81.1591 249.276 81.2727 249.768 81.5C250.261 81.7273 250.664 82.0455 250.979 82.4545C251.293 82.8636 251.488 83.3409 251.564 83.8864H250.223C250.121 83.4886 249.893 83.1364 249.541 82.8295C249.193 82.5189 248.723 82.3636 248.132 82.3636C247.609 82.3636 247.151 82.5 246.757 82.7727C246.367 83.0417 246.062 83.4223 245.842 83.9148C245.626 84.4034 245.518 84.9773 245.518 85.6364C245.518 86.3106 245.625 86.8977 245.837 87.3977C246.053 87.8977 246.356 88.286 246.746 88.5625C247.14 88.839 247.602 88.9773 248.132 88.9773C248.481 88.9773 248.797 88.9167 249.081 88.7955C249.365 88.6742 249.606 88.5 249.803 88.2727C250 88.0455 250.14 87.7727 250.223 87.4545H251.564C251.488 87.9697 251.301 88.4337 251.001 88.8466C250.706 89.2557 250.314 89.5814 249.825 89.8239C249.34 90.0625 248.776 90.1818 248.132 90.1818ZM252.524 90V81.2727H253.82V82.5909H253.911C254.07 82.1591 254.357 81.8087 254.774 81.5398C255.191 81.2708 255.661 81.1364 256.183 81.1364C256.282 81.1364 256.405 81.1383 256.553 81.142C256.7 81.1458 256.812 81.1515 256.888 81.1591V82.5227C256.842 82.5114 256.738 82.4943 256.575 82.4716C256.416 82.4451 256.248 82.4318 256.07 82.4318C255.645 82.4318 255.267 82.5208 254.933 82.6989C254.604 82.8731 254.342 83.1155 254.149 83.4261C253.96 83.733 253.865 84.0833 253.865 84.4773V90H252.524ZM257.477 90V81.2727H258.818V90H257.477ZM258.159 79.8182C257.898 79.8182 257.672 79.7292 257.483 79.5511C257.297 79.3731 257.205 79.1591 257.205 78.9091C257.205 78.6591 257.297 78.4451 257.483 78.267C257.672 78.089 257.898 78 258.159 78C258.42 78 258.644 78.089 258.83 78.267C259.019 78.4451 259.114 78.6591 259.114 78.9091C259.114 79.1591 259.019 79.3731 258.83 79.5511C258.644 79.7292 258.42 79.8182 258.159 79.8182ZM264.07 81.2727V82.4091H259.547V81.2727H264.07ZM260.865 79.1818H262.206V87.5C262.206 87.8788 262.261 88.1629 262.371 88.3523C262.484 88.5379 262.628 88.6629 262.803 88.7273C262.981 88.7879 263.168 88.8182 263.365 88.8182C263.513 88.8182 263.634 88.8106 263.729 88.7955C263.823 88.7765 263.899 88.7614 263.956 88.75L264.229 89.9545C264.138 89.9886 264.011 90.0227 263.848 90.0568C263.685 90.0947 263.479 90.1136 263.229 90.1136C262.85 90.1136 262.479 90.0322 262.115 89.8693C261.755 89.7064 261.456 89.4583 261.217 89.125C260.982 88.7917 260.865 88.3712 260.865 87.8636V79.1818ZM265.087 90V81.2727H266.428V90H265.087ZM265.768 79.8182C265.507 79.8182 265.282 79.7292 265.092 79.5511C264.907 79.3731 264.814 79.1591 264.814 78.9091C264.814 78.6591 264.907 78.4451 265.092 78.267C265.282 78.089 265.507 78 265.768 78C266.03 78 266.253 78.089 266.439 78.267C266.628 78.4451 266.723 78.6591 266.723 78.9091C266.723 79.1591 266.628 79.3731 266.439 79.5511C266.253 79.7292 266.03 79.8182 265.768 79.8182ZM271.429 90.1818C270.611 90.1818 269.906 89.9886 269.315 89.6023C268.724 89.2159 268.27 88.6837 267.952 88.0057C267.634 87.3277 267.474 86.553 267.474 85.6818C267.474 84.7955 267.637 84.0133 267.963 83.3352C268.293 82.6534 268.751 82.1212 269.338 81.7386C269.929 81.3523 270.618 81.1591 271.406 81.1591C272.02 81.1591 272.573 81.2727 273.065 81.5C273.558 81.7273 273.961 82.0455 274.276 82.4545C274.59 82.8636 274.785 83.3409 274.861 83.8864H273.52C273.418 83.4886 273.19 83.1364 272.838 82.8295C272.49 82.5189 272.02 82.3636 271.429 82.3636C270.906 82.3636 270.448 82.5 270.054 82.7727C269.664 83.0417 269.359 83.4223 269.139 83.9148C268.923 84.4034 268.815 84.9773 268.815 85.6364C268.815 86.3106 268.921 86.8977 269.134 87.3977C269.349 87.8977 269.652 88.286 270.043 88.5625C270.437 88.839 270.899 88.9773 271.429 88.9773C271.777 88.9773 272.094 88.9167 272.378 88.7955C272.662 88.6742 272.902 88.5 273.099 88.2727C273.296 88.0455 273.437 87.7727 273.52 87.4545H274.861C274.785 87.9697 274.598 88.4337 274.298 88.8466C274.003 89.2557 273.611 89.5814 273.122 89.8239C272.637 90.0625 272.073 90.1818 271.429 90.1818ZM278.389 90.2045C277.836 90.2045 277.334 90.1004 276.884 89.892C276.433 89.6799 276.075 89.375 275.81 88.9773C275.545 88.5758 275.412 88.0909 275.412 87.5227C275.412 87.0227 275.51 86.6174 275.707 86.3068C275.904 85.9924 276.168 85.7462 276.497 85.5682C276.827 85.3902 277.19 85.2576 277.588 85.1705C277.99 85.0795 278.393 85.0076 278.798 84.9545C279.329 84.8864 279.759 84.8352 280.088 84.8011C280.421 84.7633 280.664 84.7008 280.815 84.6136C280.971 84.5265 281.048 84.375 281.048 84.1591V84.1136C281.048 83.553 280.895 83.1174 280.588 82.8068C280.285 82.4962 279.825 82.3409 279.207 82.3409C278.567 82.3409 278.065 82.4811 277.702 82.7614C277.338 83.0417 277.082 83.3409 276.935 83.6591L275.662 83.2045C275.889 82.6742 276.192 82.2614 276.571 81.9659C276.954 81.6667 277.37 81.4583 277.821 81.3409C278.276 81.2197 278.723 81.1591 279.162 81.1591C279.442 81.1591 279.764 81.1932 280.128 81.2614C280.495 81.3258 280.849 81.4602 281.19 81.6648C281.535 81.8693 281.821 82.178 282.048 82.5909C282.276 83.0038 282.389 83.5568 282.389 84.25V90H281.048V88.8182H280.98C280.889 89.0076 280.738 89.2102 280.526 89.4261C280.313 89.642 280.031 89.8258 279.679 89.9773C279.327 90.1288 278.897 90.2045 278.389 90.2045ZM278.594 89C279.124 89 279.571 88.8958 279.935 88.6875C280.302 88.4792 280.579 88.2102 280.764 87.8807C280.954 87.5511 281.048 87.2045 281.048 86.8409V85.6136C280.991 85.6818 280.866 85.7443 280.673 85.8011C280.484 85.8542 280.264 85.9015 280.014 85.9432C279.768 85.9811 279.527 86.0152 279.293 86.0455C279.062 86.072 278.874 86.0947 278.73 86.1136C278.382 86.1591 278.056 86.233 277.753 86.3352C277.454 86.4337 277.211 86.5833 277.026 86.7841C276.844 86.9811 276.753 87.25 276.753 87.5909C276.753 88.0568 276.925 88.4091 277.27 88.6477C277.618 88.8826 278.06 89 278.594 89ZM285.178 78.3636V90H283.837V78.3636H285.178ZM293.929 81.2727V82.4091H289.406V81.2727H293.929ZM290.724 79.1818H292.065V87.5C292.065 87.8788 292.12 88.1629 292.23 88.3523C292.344 88.5379 292.488 88.6629 292.662 88.7273C292.84 88.7879 293.027 88.8182 293.224 88.8182C293.372 88.8182 293.493 88.8106 293.588 88.7955C293.683 88.7765 293.759 88.7614 293.815 88.75L294.088 89.9545C293.997 89.9886 293.87 90.0227 293.707 90.0568C293.545 90.0947 293.338 90.1136 293.088 90.1136C292.709 90.1136 292.338 90.0322 291.974 89.8693C291.615 89.7064 291.315 89.4583 291.077 89.125C290.842 88.7917 290.724 88.3712 290.724 87.8636V79.1818ZM296.474 84.75V90H295.134V78.3636H296.474V82.6364H296.588C296.793 82.1856 297.099 81.8277 297.509 81.5625C297.921 81.2936 298.471 81.1591 299.156 81.1591C299.751 81.1591 300.272 81.2784 300.719 81.517C301.166 81.7519 301.512 82.1136 301.759 82.6023C302.009 83.0871 302.134 83.7045 302.134 84.4545V90H300.793V84.5455C300.793 83.8523 300.613 83.3163 300.253 82.9375C299.897 82.5549 299.402 82.3636 298.77 82.3636C298.33 82.3636 297.937 82.4564 297.588 82.642C297.243 82.8277 296.971 83.0985 296.77 83.4545C296.573 83.8106 296.474 84.2424 296.474 84.75ZM303.587 90V81.2727H304.928V90H303.587ZM304.268 79.8182C304.007 79.8182 303.782 79.7292 303.592 79.5511C303.407 79.3731 303.314 79.1591 303.314 78.9091C303.314 78.6591 303.407 78.4451 303.592 78.267C303.782 78.089 304.007 78 304.268 78C304.53 78 304.753 78.089 304.939 78.267C305.128 78.4451 305.223 78.6591 305.223 78.9091C305.223 79.1591 305.128 79.3731 304.939 79.5511C304.753 79.7292 304.53 79.8182 304.268 79.8182ZM307.724 84.75V90H306.384V81.2727H307.679V82.6364H307.793C307.997 82.1932 308.308 81.8371 308.724 81.5682C309.141 81.2955 309.679 81.1591 310.338 81.1591C310.929 81.1591 311.446 81.2803 311.889 81.5227C312.332 81.7614 312.677 82.125 312.923 82.6136C313.17 83.0985 313.293 83.7121 313.293 84.4545V90H311.952V84.5455C311.952 83.8598 311.774 83.3258 311.418 82.9432C311.062 82.5568 310.573 82.3636 309.952 82.3636C309.524 82.3636 309.141 82.4564 308.804 82.642C308.471 82.8277 308.207 83.0985 308.014 83.4545C307.821 83.8106 307.724 84.2424 307.724 84.75ZM315.993 86.8182L315.97 85.1591H316.243L320.061 81.2727H321.72L317.652 85.3864H317.538L315.993 86.8182ZM314.743 90V78.3636H316.084V90H314.743ZM320.288 90L316.879 85.6818L317.834 84.75L321.993 90H320.288ZM322.446 90V81.2727H323.787V90H322.446ZM323.128 79.8182C322.866 79.8182 322.641 79.7292 322.452 79.5511C322.266 79.3731 322.173 79.1591 322.173 78.9091C322.173 78.6591 322.266 78.4451 322.452 78.267C322.641 78.089 322.866 78 323.128 78C323.389 78 323.613 78.089 323.798 78.267C323.988 78.4451 324.082 78.6591 324.082 78.9091C324.082 79.1591 323.988 79.3731 323.798 79.5511C323.613 79.7292 323.389 79.8182 323.128 79.8182ZM326.584 84.75V90H325.243V81.2727H326.538V82.6364H326.652C326.857 82.1932 327.167 81.8371 327.584 81.5682C328 81.2955 328.538 81.1591 329.197 81.1591C329.788 81.1591 330.305 81.2803 330.749 81.5227C331.192 81.7614 331.536 82.125 331.783 82.6136C332.029 83.0985 332.152 83.7121 332.152 84.4545V90H330.811V84.5455C330.811 83.8598 330.633 83.3258 330.277 82.9432C329.921 82.5568 329.432 82.3636 328.811 82.3636C328.383 82.3636 328 82.4564 327.663 82.642C327.33 82.8277 327.067 83.0985 326.874 83.4545C326.68 83.8106 326.584 84.2424 326.584 84.75ZM337.125 93.4545C336.477 93.4545 335.92 93.3712 335.455 93.2045C334.989 93.0417 334.6 92.8258 334.29 92.5568C333.983 92.2917 333.739 92.0076 333.557 91.7045L334.625 90.9545C334.746 91.1136 334.9 91.2955 335.085 91.5C335.271 91.7083 335.525 91.8883 335.847 92.0398C336.172 92.1951 336.598 92.2727 337.125 92.2727C337.83 92.2727 338.411 92.1023 338.869 91.7614C339.328 91.4205 339.557 90.8864 339.557 90.1591V88.3864H339.443C339.345 88.5455 339.205 88.7424 339.023 88.9773C338.845 89.2083 338.587 89.4148 338.25 89.5966C337.917 89.7746 337.466 89.8636 336.898 89.8636C336.193 89.8636 335.561 89.697 335 89.3636C334.443 89.0303 334.002 88.5455 333.676 87.9091C333.354 87.2727 333.193 86.5 333.193 85.5909C333.193 84.697 333.35 83.9186 333.665 83.2557C333.979 82.589 334.417 82.0739 334.977 81.7102C335.538 81.3428 336.186 81.1591 336.92 81.1591C337.489 81.1591 337.939 81.2538 338.273 81.4432C338.61 81.6288 338.867 81.8409 339.045 82.0795C339.227 82.3144 339.367 82.5076 339.466 82.6591H339.602V81.2727H340.898V90.25C340.898 91 340.727 91.6098 340.386 92.0795C340.049 92.553 339.595 92.8996 339.023 93.1193C338.455 93.3428 337.822 93.4545 337.125 93.4545ZM337.08 88.6591C337.617 88.6591 338.072 88.536 338.443 88.2898C338.814 88.0436 339.097 87.6894 339.29 87.2273C339.483 86.7652 339.58 86.2121 339.58 85.5682C339.58 84.9394 339.485 84.3845 339.295 83.9034C339.106 83.4223 338.826 83.0455 338.455 82.7727C338.083 82.5 337.625 82.3636 337.08 82.3636C336.511 82.3636 336.038 82.5076 335.659 82.7955C335.284 83.0833 335.002 83.4697 334.812 83.9545C334.627 84.4394 334.534 84.9773 334.534 85.5682C334.534 86.1742 334.629 86.7102 334.818 87.1761C335.011 87.6383 335.295 88.0019 335.67 88.267C336.049 88.5284 336.519 88.6591 337.08 88.6591ZM344.352 88.4091L344.261 89.0227C344.197 89.4545 344.098 89.9167 343.966 90.4091C343.837 90.9015 343.703 91.3655 343.562 91.8011C343.422 92.2367 343.307 92.5833 343.216 92.8409H342.193C342.242 92.5985 342.307 92.2784 342.386 91.8807C342.466 91.483 342.545 91.0379 342.625 90.5455C342.708 90.0568 342.777 89.5568 342.83 89.0455L342.898 88.4091H344.352ZM351.905 90.2045C351.352 90.2045 350.85 90.1004 350.399 89.892C349.948 89.6799 349.59 89.375 349.325 88.9773C349.06 88.5758 348.928 88.0909 348.928 87.5227C348.928 87.0227 349.026 86.6174 349.223 86.3068C349.42 85.9924 349.683 85.7462 350.013 85.5682C350.342 85.3902 350.706 85.2576 351.104 85.1705C351.505 85.0795 351.909 85.0076 352.314 84.9545C352.844 84.8864 353.274 84.8352 353.604 84.8011C353.937 84.7633 354.179 84.7008 354.331 84.6136C354.486 84.5265 354.564 84.375 354.564 84.1591V84.1136C354.564 83.553 354.411 83.1174 354.104 82.8068C353.801 82.4962 353.34 82.3409 352.723 82.3409C352.083 82.3409 351.581 82.4811 351.217 82.7614C350.854 83.0417 350.598 83.3409 350.45 83.6591L349.178 83.2045C349.405 82.6742 349.708 82.2614 350.087 81.9659C350.469 81.6667 350.886 81.4583 351.337 81.3409C351.791 81.2197 352.238 81.1591 352.678 81.1591C352.958 81.1591 353.28 81.1932 353.643 81.2614C354.011 81.3258 354.365 81.4602 354.706 81.6648C355.051 81.8693 355.337 82.178 355.564 82.5909C355.791 83.0038 355.905 83.5568 355.905 84.25V90H354.564V88.8182H354.496C354.405 89.0076 354.253 89.2102 354.041 89.4261C353.829 89.642 353.547 89.8258 353.195 89.9773C352.842 90.1288 352.412 90.2045 351.905 90.2045ZM352.109 89C352.64 89 353.087 88.8958 353.45 88.6875C353.818 88.4792 354.094 88.2102 354.28 87.8807C354.469 87.5511 354.564 87.2045 354.564 86.8409V85.6136C354.507 85.6818 354.382 85.7443 354.189 85.8011C354 85.8542 353.78 85.9015 353.53 85.9432C353.284 85.9811 353.043 86.0152 352.808 86.0455C352.577 86.072 352.39 86.0947 352.246 86.1136C351.897 86.1591 351.571 86.233 351.268 86.3352C350.969 86.4337 350.727 86.5833 350.541 86.7841C350.359 86.9811 350.268 87.25 350.268 87.5909C350.268 88.0568 350.441 88.4091 350.786 88.6477C351.134 88.8826 351.575 89 352.109 89ZM358.693 84.75V90H357.352V81.2727H358.648V82.6364H358.761C358.966 82.1932 359.277 81.8371 359.693 81.5682C360.11 81.2955 360.648 81.1591 361.307 81.1591C361.898 81.1591 362.415 81.2803 362.858 81.5227C363.301 81.7614 363.646 82.125 363.892 82.6136C364.138 83.0985 364.261 83.7121 364.261 84.4545V90H362.92V84.5455C362.92 83.8598 362.742 83.3258 362.386 82.9432C362.03 82.5568 361.542 82.3636 360.92 82.3636C360.492 82.3636 360.11 82.4564 359.773 82.642C359.439 82.8277 359.176 83.0985 358.983 83.4545C358.79 83.8106 358.693 84.2424 358.693 84.75ZM369.007 90.1818C368.28 90.1818 367.638 89.9981 367.081 89.6307C366.524 89.2595 366.089 88.7367 365.774 88.0625C365.46 87.3845 365.303 86.5833 365.303 85.6591C365.303 84.7424 365.46 83.947 365.774 83.2727C366.089 82.5985 366.526 82.0777 367.087 81.7102C367.647 81.3428 368.295 81.1591 369.03 81.1591C369.598 81.1591 370.047 81.2538 370.376 81.4432C370.71 81.6288 370.964 81.8409 371.138 82.0795C371.316 82.3144 371.454 82.5076 371.553 82.6591H371.666V78.3636H373.007V90H371.712V88.6591H371.553C371.454 88.8182 371.314 89.0189 371.132 89.2614C370.95 89.5 370.691 89.714 370.354 89.9034C370.017 90.089 369.568 90.1818 369.007 90.1818ZM369.189 88.9773C369.727 88.9773 370.181 88.8371 370.553 88.5568C370.924 88.2727 371.206 87.8807 371.399 87.3807C371.592 86.8769 371.689 86.2955 371.689 85.6364C371.689 84.9848 371.594 84.4148 371.405 83.9261C371.215 83.4337 370.935 83.0511 370.564 82.7784C370.193 82.5019 369.734 82.3636 369.189 82.3636C368.621 82.3636 368.147 82.5095 367.768 82.8011C367.393 83.089 367.111 83.4811 366.922 83.9773C366.736 84.4697 366.643 85.0227 366.643 85.6364C366.643 86.2576 366.738 86.822 366.928 87.3295C367.121 87.8333 367.405 88.2348 367.78 88.5341C368.159 88.8295 368.628 88.9773 369.189 88.9773ZM381.695 90.1818C380.876 90.1818 380.172 89.9886 379.581 89.6023C378.99 89.2159 378.536 88.6837 378.217 88.0057C377.899 87.3277 377.74 86.553 377.74 85.6818C377.74 84.7955 377.903 84.0133 378.229 83.3352C378.558 82.6534 379.017 82.1212 379.604 81.7386C380.195 81.3523 380.884 81.1591 381.672 81.1591C382.286 81.1591 382.839 81.2727 383.331 81.5C383.823 81.7273 384.227 82.0455 384.541 82.4545C384.856 82.8636 385.051 83.3409 385.126 83.8864H383.786C383.683 83.4886 383.456 83.1364 383.104 82.8295C382.755 82.5189 382.286 82.3636 381.695 82.3636C381.172 82.3636 380.714 82.5 380.32 82.7727C379.929 83.0417 379.625 83.4223 379.405 83.9148C379.189 84.4034 379.081 84.9773 379.081 85.6364C379.081 86.3106 379.187 86.8977 379.399 87.3977C379.615 87.8977 379.918 88.286 380.308 88.5625C380.702 88.839 381.164 88.9773 381.695 88.9773C382.043 88.9773 382.359 88.9167 382.643 88.7955C382.928 88.6742 383.168 88.5 383.365 88.2727C383.562 88.0455 383.702 87.7727 383.786 87.4545H385.126C385.051 87.9697 384.863 88.4337 384.564 88.8466C384.268 89.2557 383.876 89.5814 383.388 89.8239C382.903 90.0625 382.339 90.1818 381.695 90.1818ZM389.632 90.1818C388.844 90.1818 388.153 89.9943 387.558 89.6193C386.967 89.2443 386.505 88.7197 386.172 88.0455C385.842 87.3712 385.678 86.5833 385.678 85.6818C385.678 84.7727 385.842 83.9792 386.172 83.3011C386.505 82.6231 386.967 82.0966 387.558 81.7216C388.153 81.3466 388.844 81.1591 389.632 81.1591C390.42 81.1591 391.109 81.3466 391.7 81.7216C392.295 82.0966 392.757 82.6231 393.087 83.3011C393.42 83.9792 393.587 84.7727 393.587 85.6818C393.587 86.5833 393.42 87.3712 393.087 88.0455C392.757 88.7197 392.295 89.2443 391.7 89.6193C391.109 89.9943 390.42 90.1818 389.632 90.1818ZM389.632 88.9773C390.231 88.9773 390.723 88.8239 391.109 88.517C391.496 88.2102 391.782 87.8068 391.967 87.3068C392.153 86.8068 392.246 86.2652 392.246 85.6818C392.246 85.0985 392.153 84.5549 391.967 84.0511C391.782 83.5473 391.496 83.1402 391.109 82.8295C390.723 82.5189 390.231 82.3636 389.632 82.3636C389.034 82.3636 388.541 82.5189 388.155 82.8295C387.768 83.1402 387.482 83.5473 387.297 84.0511C387.111 84.5549 387.018 85.0985 387.018 85.6818C387.018 86.2652 387.111 86.8068 387.297 87.3068C387.482 87.8068 387.768 88.2102 388.155 88.517C388.541 88.8239 389.034 88.9773 389.632 88.9773ZM394.634 90V81.2727H395.929V82.6364H396.043C396.224 82.1705 396.518 81.8087 396.923 81.5511C397.329 81.2898 397.815 81.1591 398.384 81.1591C398.959 81.1591 399.438 81.2898 399.821 81.5511C400.207 81.8087 400.509 82.1705 400.724 82.6364H400.815C401.039 82.1856 401.374 81.8277 401.821 81.5625C402.268 81.2936 402.804 81.1591 403.429 81.1591C404.209 81.1591 404.848 81.4034 405.344 81.892C405.84 82.3769 406.088 83.1326 406.088 84.1591V90H404.747V84.1591C404.747 83.5152 404.571 83.0549 404.219 82.7784C403.866 82.5019 403.452 82.3636 402.974 82.3636C402.361 82.3636 401.885 82.5492 401.548 82.9205C401.211 83.2879 401.043 83.7538 401.043 84.3182V90H399.679V84.0227C399.679 83.5265 399.518 83.1269 399.196 82.8239C398.874 82.517 398.459 82.3636 397.952 82.3636C397.603 82.3636 397.277 82.4564 396.974 82.642C396.675 82.8277 396.433 83.0852 396.247 83.4148C396.065 83.7405 395.974 84.1174 395.974 84.5455V90H394.634ZM407.54 90V81.2727H408.835V82.6364H408.949C409.131 82.1705 409.424 81.8087 409.83 81.5511C410.235 81.2898 410.722 81.1591 411.29 81.1591C411.866 81.1591 412.345 81.2898 412.727 81.5511C413.114 81.8087 413.415 82.1705 413.631 82.6364H413.722C413.945 82.1856 414.28 81.8277 414.727 81.5625C415.174 81.2936 415.71 81.1591 416.335 81.1591C417.116 81.1591 417.754 81.4034 418.25 81.892C418.746 82.3769 418.994 83.1326 418.994 84.1591V90H417.653V84.1591C417.653 83.5152 417.477 83.0549 417.125 82.7784C416.773 82.5019 416.358 82.3636 415.881 82.3636C415.267 82.3636 414.792 82.5492 414.455 82.9205C414.117 83.2879 413.949 83.7538 413.949 84.3182V90H412.585V84.0227C412.585 83.5265 412.424 83.1269 412.102 82.8239C411.78 82.517 411.366 82.3636 410.858 82.3636C410.509 82.3636 410.184 82.4564 409.881 82.642C409.581 82.8277 409.339 83.0852 409.153 83.4148C408.972 83.7405 408.881 84.1174 408.881 84.5455V90H407.54ZM425.946 86.4318V81.2727H427.287V90H425.946V88.5227H425.855C425.651 88.9659 425.332 89.3428 424.901 89.6534C424.469 89.9602 423.923 90.1136 423.264 90.1136C422.719 90.1136 422.234 89.9943 421.81 89.7557C421.385 89.5133 421.052 89.1496 420.81 88.6648C420.567 88.1761 420.446 87.5606 420.446 86.8182V81.2727H421.787V86.7273C421.787 87.3636 421.965 87.8712 422.321 88.25C422.681 88.6288 423.139 88.8182 423.696 88.8182C424.029 88.8182 424.368 88.733 424.713 88.5625C425.062 88.392 425.353 88.1307 425.588 87.7784C425.827 87.4261 425.946 86.9773 425.946 86.4318ZM430.084 84.75V90H428.743V81.2727H430.038V82.6364H430.152C430.357 82.1932 430.667 81.8371 431.084 81.5682C431.5 81.2955 432.038 81.1591 432.697 81.1591C433.288 81.1591 433.805 81.2803 434.249 81.5227C434.692 81.7614 435.036 82.125 435.283 82.6136C435.529 83.0985 435.652 83.7121 435.652 84.4545V90H434.311V84.5455C434.311 83.8598 434.133 83.3258 433.777 82.9432C433.421 82.5568 432.932 82.3636 432.311 82.3636C431.883 82.3636 431.5 82.4564 431.163 82.642C430.83 82.8277 430.567 83.0985 430.374 83.4545C430.18 83.8106 430.084 84.2424 430.084 84.75ZM437.102 90V81.2727H438.443V90H437.102ZM437.784 79.8182C437.523 79.8182 437.297 79.7292 437.108 79.5511C436.922 79.3731 436.83 79.1591 436.83 78.9091C436.83 78.6591 436.922 78.4451 437.108 78.267C437.297 78.089 437.523 78 437.784 78C438.045 78 438.269 78.089 438.455 78.267C438.644 78.4451 438.739 78.6591 438.739 78.9091C438.739 79.1591 438.644 79.3731 438.455 79.5511C438.269 79.7292 438.045 79.8182 437.784 79.8182ZM443.445 90.1818C442.626 90.1818 441.922 89.9886 441.331 89.6023C440.74 89.2159 440.286 88.6837 439.967 88.0057C439.649 87.3277 439.49 86.553 439.49 85.6818C439.49 84.7955 439.653 84.0133 439.979 83.3352C440.308 82.6534 440.767 82.1212 441.354 81.7386C441.945 81.3523 442.634 81.1591 443.422 81.1591C444.036 81.1591 444.589 81.2727 445.081 81.5C445.573 81.7273 445.977 82.0455 446.291 82.4545C446.606 82.8636 446.801 83.3409 446.876 83.8864H445.536C445.433 83.4886 445.206 83.1364 444.854 82.8295C444.505 82.5189 444.036 82.3636 443.445 82.3636C442.922 82.3636 442.464 82.5 442.07 82.7727C441.679 83.0417 441.375 83.4223 441.155 83.9148C440.939 84.4034 440.831 84.9773 440.831 85.6364C440.831 86.3106 440.937 86.8977 441.149 87.3977C441.365 87.8977 441.668 88.286 442.058 88.5625C442.452 88.839 442.914 88.9773 443.445 88.9773C443.793 88.9773 444.109 88.9167 444.393 88.7955C444.678 88.6742 444.918 88.5 445.115 88.2727C445.312 88.0455 445.452 87.7727 445.536 87.4545H446.876C446.801 87.9697 446.613 88.4337 446.314 88.8466C446.018 89.2557 445.626 89.5814 445.138 89.8239C444.653 90.0625 444.089 90.1818 443.445 90.1818ZM450.405 90.2045C449.852 90.2045 449.35 90.1004 448.899 89.892C448.448 89.6799 448.09 89.375 447.825 88.9773C447.56 88.5758 447.428 88.0909 447.428 87.5227C447.428 87.0227 447.526 86.6174 447.723 86.3068C447.92 85.9924 448.183 85.7462 448.513 85.5682C448.842 85.3902 449.206 85.2576 449.604 85.1705C450.005 85.0795 450.409 85.0076 450.814 84.9545C451.344 84.8864 451.774 84.8352 452.104 84.8011C452.437 84.7633 452.679 84.7008 452.831 84.6136C452.986 84.5265 453.064 84.375 453.064 84.1591V84.1136C453.064 83.553 452.911 83.1174 452.604 82.8068C452.301 82.4962 451.84 82.3409 451.223 82.3409C450.583 82.3409 450.081 82.4811 449.717 82.7614C449.354 83.0417 449.098 83.3409 448.95 83.6591L447.678 83.2045C447.905 82.6742 448.208 82.2614 448.587 81.9659C448.969 81.6667 449.386 81.4583 449.837 81.3409C450.291 81.2197 450.738 81.1591 451.178 81.1591C451.458 81.1591 451.78 81.1932 452.143 81.2614C452.511 81.3258 452.865 81.4602 453.206 81.6648C453.551 81.8693 453.837 82.178 454.064 82.5909C454.291 83.0038 454.405 83.5568 454.405 84.25V90H453.064V88.8182H452.996C452.905 89.0076 452.753 89.2102 452.541 89.4261C452.329 89.642 452.047 89.8258 451.695 89.9773C451.342 90.1288 450.912 90.2045 450.405 90.2045ZM450.609 89C451.14 89 451.587 88.8958 451.95 88.6875C452.318 88.4792 452.594 88.2102 452.78 87.8807C452.969 87.5511 453.064 87.2045 453.064 86.8409V85.6136C453.007 85.6818 452.882 85.7443 452.689 85.8011C452.5 85.8542 452.28 85.9015 452.03 85.9432C451.784 85.9811 451.543 86.0152 451.308 86.0455C451.077 86.072 450.89 86.0947 450.746 86.1136C450.397 86.1591 450.071 86.233 449.768 86.3352C449.469 86.4337 449.227 86.5833 449.041 86.7841C448.859 86.9811 448.768 87.25 448.768 87.5909C448.768 88.0568 448.941 88.4091 449.286 88.6477C449.634 88.8826 450.075 89 450.609 89ZM459.648 81.2727V82.4091H455.125V81.2727H459.648ZM456.443 79.1818H457.784V87.5C457.784 87.8788 457.839 88.1629 457.949 88.3523C458.063 88.5379 458.206 88.6629 458.381 88.7273C458.559 88.7879 458.746 88.8182 458.943 88.8182C459.091 88.8182 459.212 88.8106 459.307 88.7955C459.402 88.7765 459.477 88.7614 459.534 88.75L459.807 89.9545C459.716 89.9886 459.589 90.0227 459.426 90.0568C459.263 90.0947 459.057 90.1136 458.807 90.1136C458.428 90.1136 458.057 90.0322 457.693 89.8693C457.333 89.7064 457.034 89.4583 456.795 89.125C456.561 88.7917 456.443 88.3712 456.443 87.8636V79.1818ZM460.665 90V81.2727H462.006V90H460.665ZM461.347 79.8182C461.085 79.8182 460.86 79.7292 460.67 79.5511C460.485 79.3731 460.392 79.1591 460.392 78.9091C460.392 78.6591 460.485 78.4451 460.67 78.267C460.86 78.089 461.085 78 461.347 78C461.608 78 461.831 78.089 462.017 78.267C462.206 78.4451 462.301 78.6591 462.301 78.9091C462.301 79.1591 462.206 79.3731 462.017 79.5511C461.831 79.7292 461.608 79.8182 461.347 79.8182ZM467.007 90.1818C466.219 90.1818 465.528 89.9943 464.933 89.6193C464.342 89.2443 463.88 88.7197 463.547 88.0455C463.217 87.3712 463.053 86.5833 463.053 85.6818C463.053 84.7727 463.217 83.9792 463.547 83.3011C463.88 82.6231 464.342 82.0966 464.933 81.7216C465.528 81.3466 466.219 81.1591 467.007 81.1591C467.795 81.1591 468.484 81.3466 469.075 81.7216C469.67 82.0966 470.132 82.6231 470.462 83.3011C470.795 83.9792 470.962 84.7727 470.962 85.6818C470.962 86.5833 470.795 87.3712 470.462 88.0455C470.132 88.7197 469.67 89.2443 469.075 89.6193C468.484 89.9943 467.795 90.1818 467.007 90.1818ZM467.007 88.9773C467.606 88.9773 468.098 88.8239 468.484 88.517C468.871 88.2102 469.157 87.8068 469.342 87.3068C469.528 86.8068 469.621 86.2652 469.621 85.6818C469.621 85.0985 469.528 84.5549 469.342 84.0511C469.157 83.5473 468.871 83.1402 468.484 82.8295C468.098 82.5189 467.606 82.3636 467.007 82.3636C466.409 82.3636 465.916 82.5189 465.53 82.8295C465.143 83.1402 464.857 83.5473 464.672 84.0511C464.486 84.5549 464.393 85.0985 464.393 85.6818C464.393 86.2652 464.486 86.8068 464.672 87.3068C464.857 87.8068 465.143 88.2102 465.53 88.517C465.916 88.8239 466.409 88.9773 467.007 88.9773ZM473.349 84.75V90H472.009V81.2727H473.304V82.6364H473.418C473.622 82.1932 473.933 81.8371 474.349 81.5682C474.766 81.2955 475.304 81.1591 475.963 81.1591C476.554 81.1591 477.071 81.2803 477.514 81.5227C477.957 81.7614 478.302 82.125 478.548 82.6136C478.795 83.0985 478.918 83.7121 478.918 84.4545V90H477.577V84.5455C477.577 83.8598 477.399 83.3258 477.043 82.9432C476.687 82.5568 476.198 82.3636 475.577 82.3636C475.149 82.3636 474.766 82.4564 474.429 82.642C474.096 82.8277 473.832 83.0985 473.639 83.4545C473.446 83.8106 473.349 84.2424 473.349 84.75Z" fill="#4A5565"/>
</svg>
