<svg width="285" height="44" viewBox="0 0 285 44" fill="none" xmlns="http://www.w3.org/2000/svg">
<rect width="285" height="44" rx="11" fill="#262626"/>
<path d="M88.5 22C88.5 23.1867 88.8519 24.3467 89.5112 25.3334C90.1705 26.3201 91.1075 27.0892 92.2039 27.5433C93.3003 27.9974 94.5067 28.1162 95.6705 27.8847C96.8344 27.6532 97.9035 27.0818 98.7426 26.2426C99.5818 25.4035 100.153 24.3344 100.385 23.1705C100.616 22.0067 100.497 20.8003 100.043 19.7039C99.5892 18.6075 98.8201 17.6705 97.8334 17.0112C96.8467 16.3519 95.6867 16 94.5 16C92.8226 16.0063 91.2126 16.6608 90.0067 17.8267L88.5 19.3333" stroke="white" stroke-width="1.33333" stroke-linecap="round" stroke-linejoin="round"/>
<path d="M88.5 16V19.3333H91.8333" stroke="white" stroke-width="1.33333" stroke-linecap="round" stroke-linejoin="round"/>
<path d="M112.795 16.3636L116.034 25.8409H116.165L119.403 16.3636H121.301L117.114 28H115.085L110.898 16.3636H112.795ZM121.885 28V19.2727H123.584V28H121.885ZM122.743 17.9261C122.448 17.9261 122.194 17.8277 121.982 17.6307C121.773 17.4299 121.669 17.1913 121.669 16.9148C121.669 16.6345 121.773 16.3958 121.982 16.1989C122.194 15.9981 122.448 15.8977 122.743 15.8977C123.039 15.8977 123.29 15.9981 123.499 16.1989C123.711 16.3958 123.817 16.6345 123.817 16.9148C123.817 17.1913 123.711 17.4299 123.499 17.6307C123.29 17.8277 123.039 17.9261 122.743 17.9261ZM128.671 28.1761C127.811 28.1761 127.071 27.9924 126.449 27.625C125.832 27.2538 125.355 26.733 125.017 26.0625C124.684 25.3883 124.517 24.5985 124.517 23.6932C124.517 22.7992 124.684 22.0114 125.017 21.3295C125.355 20.6477 125.824 20.1155 126.427 19.733C127.033 19.3504 127.741 19.1591 128.552 19.1591C129.044 19.1591 129.521 19.2405 129.983 19.4034C130.446 19.5663 130.86 19.822 131.228 20.1705C131.595 20.5189 131.885 20.9716 132.097 21.5284C132.309 22.0814 132.415 22.7538 132.415 23.5455V24.1477H125.478V22.875H130.75C130.75 22.428 130.66 22.0322 130.478 21.6875C130.296 21.339 130.04 21.0644 129.711 20.8636C129.385 20.6629 129.002 20.5625 128.563 20.5625C128.086 20.5625 127.669 20.6799 127.313 20.9148C126.961 21.1458 126.688 21.4489 126.495 21.8239C126.305 22.1951 126.211 22.5985 126.211 23.0341V24.0284C126.211 24.6117 126.313 25.108 126.517 25.517C126.726 25.9261 127.016 26.2386 127.387 26.4545C127.758 26.6667 128.192 26.7727 128.688 26.7727C129.01 26.7727 129.303 26.7273 129.569 26.6364C129.834 26.5417 130.063 26.4015 130.256 26.2159C130.449 26.0303 130.597 25.8011 130.699 25.5284L132.307 25.8182C132.178 26.2917 131.947 26.7064 131.614 27.0625C131.285 27.4148 130.87 27.6894 130.37 27.8864C129.874 28.0795 129.307 28.1761 128.671 28.1761ZM135.217 28L132.648 19.2727H134.404L136.114 25.6818H136.2L137.915 19.2727H139.671L141.376 25.6534H141.461L143.16 19.2727H144.915L142.353 28H140.62L138.847 21.6989H138.717L136.944 28H135.217ZM148.978 28V16.3636H153.126C154.028 16.3636 154.776 16.5189 155.37 16.8295C155.969 17.1402 156.416 17.5701 156.711 18.1193C157.007 18.6648 157.155 19.2955 157.155 20.0114C157.155 20.7235 157.005 21.3504 156.706 21.892C156.41 22.4299 155.963 22.8485 155.365 23.1477C154.77 23.447 154.022 23.5966 153.12 23.5966H149.978V22.0852H152.961C153.53 22.0852 153.992 22.0038 154.348 21.8409C154.708 21.678 154.971 21.4413 155.138 21.1307C155.304 20.8201 155.388 20.447 155.388 20.0114C155.388 19.572 155.302 19.1913 155.132 18.8693C154.965 18.5473 154.702 18.3011 154.342 18.1307C153.986 17.9564 153.518 17.8693 152.939 17.8693H150.734V28H148.978ZM154.723 22.75L157.598 28H155.598L152.78 22.75H154.723ZM161.847 28.1761C160.987 28.1761 160.246 27.9924 159.625 27.625C159.008 27.2538 158.53 26.733 158.193 26.0625C157.86 25.3883 157.693 24.5985 157.693 23.6932C157.693 22.7992 157.86 22.0114 158.193 21.3295C158.53 20.6477 159 20.1155 159.602 19.733C160.208 19.3504 160.917 19.1591 161.727 19.1591C162.22 19.1591 162.697 19.2405 163.159 19.4034C163.621 19.5663 164.036 19.822 164.403 20.1705C164.771 20.5189 165.061 20.9716 165.273 21.5284C165.485 22.0814 165.591 22.7538 165.591 23.5455V24.1477H158.653V22.875H163.926C163.926 22.428 163.835 22.0322 163.653 21.6875C163.472 21.339 163.216 21.0644 162.886 20.8636C162.561 20.6629 162.178 20.5625 161.739 20.5625C161.261 20.5625 160.845 20.6799 160.489 20.9148C160.136 21.1458 159.864 21.4489 159.67 21.8239C159.481 22.1951 159.386 22.5985 159.386 23.0341V24.0284C159.386 24.6117 159.489 25.108 159.693 25.517C159.901 25.9261 160.191 26.2386 160.562 26.4545C160.934 26.6667 161.367 26.7727 161.864 26.7727C162.186 26.7727 162.479 26.7273 162.744 26.6364C163.009 26.5417 163.239 26.4015 163.432 26.2159C163.625 26.0303 163.773 25.8011 163.875 25.5284L165.483 25.8182C165.354 26.2917 165.123 26.7064 164.79 27.0625C164.46 27.4148 164.045 27.6894 163.545 27.8864C163.049 28.0795 162.483 28.1761 161.847 28.1761ZM173.056 21.4034L171.516 21.6761C171.451 21.4792 171.349 21.2917 171.209 21.1136C171.073 20.9356 170.887 20.7898 170.652 20.6761C170.417 20.5625 170.124 20.5057 169.771 20.5057C169.29 20.5057 168.889 20.6136 168.567 20.8295C168.245 21.0417 168.084 21.3163 168.084 21.6534C168.084 21.9451 168.192 22.1799 168.408 22.358C168.624 22.536 168.972 22.6818 169.453 22.7955L170.84 23.1136C171.643 23.2992 172.241 23.5852 172.635 23.9716C173.029 24.358 173.226 24.8598 173.226 25.4773C173.226 26 173.075 26.4659 172.771 26.875C172.472 27.2803 172.054 27.5985 171.516 27.8295C170.982 28.0606 170.362 28.1761 169.658 28.1761C168.681 28.1761 167.883 27.9678 167.266 27.5511C166.648 27.1307 166.27 26.5341 166.129 25.7614L167.771 25.5114C167.874 25.9394 168.084 26.2633 168.402 26.483C168.72 26.6989 169.135 26.8068 169.646 26.8068C170.203 26.8068 170.648 26.6913 170.982 26.4602C171.315 26.2254 171.482 25.9394 171.482 25.6023C171.482 25.3295 171.379 25.1004 171.175 24.9148C170.974 24.7292 170.665 24.589 170.249 24.4943L168.771 24.1705C167.957 23.9848 167.355 23.6894 166.965 23.2841C166.578 22.8788 166.385 22.3655 166.385 21.7443C166.385 21.2292 166.529 20.7784 166.817 20.392C167.105 20.0057 167.503 19.7045 168.01 19.4886C168.518 19.2689 169.099 19.1591 169.754 19.1591C170.698 19.1591 171.44 19.3636 171.982 19.7727C172.523 20.178 172.881 20.7216 173.056 21.4034ZM179.662 24.3807V19.2727H181.367V28H179.696V26.4886H179.606C179.405 26.9545 179.083 27.3428 178.64 27.6534C178.2 27.9602 177.653 28.1136 176.998 28.1136C176.437 28.1136 175.941 27.9905 175.509 27.7443C175.081 27.4943 174.744 27.125 174.498 26.6364C174.255 26.1477 174.134 25.5436 174.134 24.8239V19.2727H175.833V24.6193C175.833 25.214 175.998 25.6875 176.327 26.0398C176.657 26.392 177.085 26.5682 177.611 26.5682C177.929 26.5682 178.246 26.4886 178.56 26.3295C178.878 26.1705 179.141 25.9299 179.35 25.608C179.562 25.286 179.666 24.8769 179.662 24.3807ZM184.388 16.3636V28H182.69V16.3636H184.388ZM189.788 19.2727V20.6364H185.021V19.2727H189.788ZM186.299 17.1818H187.998V25.4375C187.998 25.767 188.047 26.0152 188.146 26.1818C188.244 26.3447 188.371 26.4564 188.526 26.517C188.686 26.5739 188.858 26.6023 189.043 26.6023C189.18 26.6023 189.299 26.5928 189.401 26.5739C189.504 26.5549 189.583 26.5398 189.64 26.5284L189.947 27.9318C189.848 27.9697 189.708 28.0076 189.526 28.0455C189.345 28.0871 189.117 28.1098 188.845 28.1136C188.398 28.1212 187.981 28.0417 187.595 27.875C187.208 27.7083 186.896 27.4508 186.657 27.1023C186.418 26.7538 186.299 26.3163 186.299 25.7898V17.1818ZM197.106 21.4034L195.566 21.6761C195.502 21.4792 195.4 21.2917 195.26 21.1136C195.123 20.9356 194.938 20.7898 194.703 20.6761C194.468 20.5625 194.174 20.5057 193.822 20.5057C193.341 20.5057 192.94 20.6136 192.618 20.8295C192.296 21.0417 192.135 21.3163 192.135 21.6534C192.135 21.9451 192.243 22.1799 192.458 22.358C192.674 22.536 193.023 22.6818 193.504 22.7955L194.89 23.1136C195.693 23.2992 196.292 23.5852 196.686 23.9716C197.08 24.358 197.277 24.8598 197.277 25.4773C197.277 26 197.125 26.4659 196.822 26.875C196.523 27.2803 196.104 27.5985 195.566 27.8295C195.032 28.0606 194.413 28.1761 193.708 28.1761C192.731 28.1761 191.934 27.9678 191.316 27.5511C190.699 27.1307 190.32 26.5341 190.18 25.7614L191.822 25.5114C191.924 25.9394 192.135 26.2633 192.453 26.483C192.771 26.6989 193.186 26.8068 193.697 26.8068C194.254 26.8068 194.699 26.6913 195.032 26.4602C195.366 26.2254 195.532 25.9394 195.532 25.6023C195.532 25.3295 195.43 25.1004 195.226 24.9148C195.025 24.7292 194.716 24.589 194.299 24.4943L192.822 24.1705C192.008 23.9848 191.405 23.6894 191.015 23.2841C190.629 22.8788 190.436 22.3655 190.436 21.7443C190.436 21.2292 190.58 20.7784 190.868 20.392C191.155 20.0057 191.553 19.7045 192.061 19.4886C192.568 19.2689 193.15 19.1591 193.805 19.1591C194.748 19.1591 195.491 19.3636 196.032 19.7727C196.574 20.178 196.932 20.7216 197.106 21.4034Z" fill="#F3F4F6"/>
</svg>
