<svg width="24" height="24" viewBox="0 0 24 24" fill="none" xmlns="http://www.w3.org/2000/svg">
<g clip-path="url(#clip0_600_1924)">
<path fill-rule="evenodd" clip-rule="evenodd" d="M20.4631 3.488C18.2171 1.24 15.2311 0.001 12.0501 0C5.49513 0 0.160129 5.334 0.157129 11.892C0.156129 13.988 0.704129 16.034 1.74513 17.838L0.0571289 24L6.36113 22.346C8.09813 23.294 10.0541 23.793 12.0441 23.794H12.0491C18.6031 23.794 23.9391 18.459 23.9421 11.901C23.9441 8.724 22.7081 5.735 20.4631 3.488ZM12.0501 21.785H12.0461C10.2721 21.785 8.53313 21.308 7.01513 20.407L6.65413 20.193L2.91313 21.174L3.91213 17.526L3.67713 17.152C2.68713 15.578 2.16513 13.759 2.16613 11.892C2.16813 6.442 6.60313 2.008 12.0551 2.008C14.6951 2.008 17.1771 3.038 19.0431 4.906C20.9091 6.775 21.9361 9.258 21.9351 11.899C21.9321 17.351 17.4981 21.785 12.0501 21.785ZM17.4721 14.382C17.1751 14.233 15.7141 13.514 15.4411 13.415C15.1691 13.316 14.9711 13.266 14.7721 13.563C14.5731 13.86 14.0051 14.53 13.8311 14.729C13.6581 14.927 13.4841 14.952 13.1871 14.803C12.8901 14.654 11.9321 14.341 10.7971 13.328C9.91413 12.54 9.31713 11.567 9.14413 11.269C8.97113 10.971 9.12613 10.811 9.27413 10.663C9.40813 10.53 9.57113 10.316 9.72013 10.142C9.87013 9.97 9.91913 9.846 10.0191 9.647C10.1181 9.449 10.0691 9.275 9.99413 9.126C9.91913 8.978 9.32513 7.515 9.07813 6.92C8.83713 6.34 8.59213 6.419 8.40913 6.41C8.23613 6.401 8.03813 6.4 7.83913 6.4C7.64113 6.4 7.31913 6.474 7.04713 6.772C6.77513 7.07 6.00713 7.789 6.00713 9.251C6.00713 10.714 7.07213 12.127 7.22013 12.325C7.36813 12.523 9.31513 15.525 12.2961 16.812C13.0051 17.118 13.5591 17.301 13.9901 17.438C14.7021 17.664 15.3501 17.632 15.8621 17.556C16.4331 17.471 17.6201 16.837 17.8681 16.143C18.1161 15.449 18.1161 14.853 18.0411 14.73C17.9671 14.605 17.7691 14.531 17.4721 14.382Z" fill="#8D191C"/>
</g>
<defs>
<clipPath id="clip0_600_1924">
<rect width="24" height="24" fill="white"/>
</clipPath>
</defs>
</svg>
