<svg width="93" height="93" viewBox="0 0 93 93" fill="none" xmlns="http://www.w3.org/2000/svg">
<g opacity="0.07">
<path d="M59.9727 49.9488L65.8433 82.9871C65.909 83.3761 65.8544 83.7759 65.6868 84.1331C65.5192 84.4903 65.2465 84.7878 64.9053 84.9858C64.564 85.1838 64.1704 85.2729 63.7771 85.2412C63.3839 85.2095 63.0097 85.0585 62.7045 84.8083L48.832 74.3962C48.1623 73.8959 47.3488 73.6255 46.5128 73.6255C45.6769 73.6255 44.8634 73.8959 44.1937 74.3962L30.2979 84.8044C29.993 85.0541 29.6192 85.2049 29.2265 85.2367C28.8337 85.2684 28.4405 85.1797 28.0995 84.9822C27.7584 84.7847 27.4857 84.488 27.3177 84.1315C27.1497 83.775 27.0944 83.3758 27.1592 82.9871L33.0259 49.9488" stroke="#737373" stroke-width="7.75" stroke-linecap="round" stroke-linejoin="round"/>
<path d="M46.5 54.25C59.3406 54.25 69.75 43.8406 69.75 31C69.75 18.1594 59.3406 7.75 46.5 7.75C33.6594 7.75 23.25 18.1594 23.25 31C23.25 43.8406 33.6594 54.25 46.5 54.25Z" stroke="#737373" stroke-width="7.75" stroke-linecap="round" stroke-linejoin="round"/>
</g>
</svg>
