<svg width="341" height="500" viewBox="0 0 341 500" fill="none" xmlns="http://www.w3.org/2000/svg">
<path d="M267.573 214.826C272.667 212.578 276.99 208.886 280.007 204.205C283.023 199.525 284.601 194.062 284.543 188.494C284.485 182.926 282.796 177.498 279.683 172.881C276.571 168.264 272.172 164.661 267.032 162.519L23.1155 51.4181C15.7003 48.0357 7.64525 46.2854 -0.504893 46.2854C-8.65504 46.2854 -16.7101 48.0357 -24.1253 51.4181L-268.013 162.406C-273.08 164.625 -277.39 168.272 -280.416 172.901C-283.443 177.531 -285.055 182.942 -285.055 188.473C-285.055 194.005 -283.443 199.416 -280.416 204.045C-277.39 208.675 -273.08 212.322 -268.013 214.541L-24.1253 325.756C-16.7101 329.139 -8.65504 330.889 -0.504893 330.889C7.64525 330.889 15.7003 329.139 23.1155 325.756L267.573 214.826Z" stroke="#962B2E" stroke-width="56.9167" stroke-linecap="round" stroke-linejoin="round"/>
<path d="M284.089 188.59V359.34" stroke="#962B2E" stroke-width="56.9167" stroke-linecap="round" stroke-linejoin="round"/>
<path d="M-171.25 259.723V359.327C-171.25 381.97 -153.26 403.685 -121.238 419.696C-89.2166 435.707 -45.7857 444.702 -0.499996 444.702C44.7857 444.702 88.2167 435.707 120.239 419.696C152.26 403.685 170.25 381.97 170.25 359.327V259.723" stroke="#962B2E" stroke-width="56.9167" stroke-linecap="round" stroke-linejoin="round"/>
</svg>
