<svg width="160" height="138" viewBox="0 0 160 138" fill="none" xmlns="http://www.w3.org/2000/svg">
<g opacity="0.05" clip-path="url(#clip0_188_3226)">
<path d="M36.7342 113.054L32.1404 122.46C31.1505 124.431 29.6709 126.115 27.8433 127.35C26.0157 128.585 23.9014 129.329 21.7032 129.513C16.7812 130.424 12.1397 132.471 8.14756 135.491C4.15538 138.511 0.92257 142.421 -1.29398 146.909" stroke="#FFF6E2" stroke-width="12.875" stroke-linecap="round" stroke-linejoin="round"/>
<path d="M59.8652 124.352L55.2715 133.758C54.3253 135.75 53.907 137.952 54.0565 140.153C54.2061 142.354 54.9185 144.479 56.1255 146.325C58.4324 150.768 59.6714 155.687 59.744 160.692C59.8166 165.698 58.7208 170.651 56.5437 175.158" stroke="#FFF6E2" stroke-width="12.875" stroke-linecap="round" stroke-linejoin="round"/>
<path d="M99.0009 102.908L107.678 107.146C111.513 109.019 115.935 109.292 119.972 107.904C124.008 106.517 127.328 103.583 129.202 99.7476C131.075 95.9123 131.348 91.4899 129.96 87.4534C128.573 83.4168 125.639 80.0967 121.804 78.2235L113.127 73.9857" stroke="#FFF6E2" stroke-width="12.875" stroke-linecap="round" stroke-linejoin="round"/>
<path d="M-18.707 138.554L73.8439 183.757" stroke="#FFF6E2" stroke-width="12.875" stroke-linecap="round" stroke-linejoin="round"/>
<path d="M29.581 69.0167C25.0853 78.2215 24.4302 88.8352 27.76 98.5229C31.0898 108.211 38.1316 116.179 47.3364 120.675C56.5411 125.17 67.1548 125.825 76.8425 122.496C86.5302 119.166 94.4984 112.124 98.9942 102.919L115.945 68.2126C116.695 66.6785 116.804 64.9095 116.249 63.2949C115.694 61.6803 114.52 60.3522 112.986 59.603L55.1419 31.3509C53.6077 30.6016 51.8388 30.4925 50.2242 31.0474C48.6095 31.6024 47.2815 32.776 46.5322 34.3102L29.581 69.0167Z" stroke="#FFF6E2" stroke-width="12.875" stroke-linecap="round" stroke-linejoin="round"/>
<path d="M29.584 69.0041L20.9073 64.7663C17.072 62.893 14.1379 59.573 12.7505 55.5364C11.3631 51.4999 11.636 47.0775 13.5093 43.2422C15.3825 39.4069 18.7026 36.4728 22.7391 35.0854C26.7757 33.6979 31.198 33.9709 35.0333 35.8441L43.71 40.0819" stroke="#FFF6E2" stroke-width="12.875" stroke-linecap="round" stroke-linejoin="round"/>
</g>
<defs>
<clipPath id="clip0_188_3226">
<rect width="154.5" height="154.5" fill="white" transform="translate(20.3047) rotate(26.0316)"/>
</clipPath>
</defs>
</svg>
