<svg width="1208" height="505" viewBox="0 0 1208 505" fill="none" xmlns="http://www.w3.org/2000/svg">
<g opacity="0.12">
<path fill-rule="evenodd" clip-rule="evenodd" d="M10 0H1208V613H924V567L926.75 565.89C928.26 565.27 934.45 564.78 940.5 564.78C948.99 564.79 953.1 565.3 958.5 566.98C962.35 568.19 968.88 570.99 973 573.21C977.13 575.43 981.96 578.43 983.75 579.87C985.54 581.32 987 582.84 987 583.25C987 583.66 975.98 584 962.5 584C941.39 584 938 584.21 938 585.5C938 586.81 943.94 587 985.5 587C1027.06 587 1033 586.81 1033 585.5C1033 584.22 1030.07 584 992.5 583.93L988 579.66C985.52 577.31 980.35 573.54 976.5 571.28C972.65 569.02 965.9 566 961.5 564.57C957.1 563.13 952.94 561.97 952.25 561.98C951.49 561.99 951.24 561.31 951.61 560.25C951.94 559.29 956.92 544.55 962.67 527.5C972.76 497.56 973.25 496.39 977.06 493.25C979.46 491.27 981.44 488.53 982.13 486.25C982.75 484.19 983 480.48 982.69 478C982.38 475.52 981.26 472.37 980.21 471C979.15 469.62 976.76 467.62 974.9 466.53C973.03 465.45 970.09 464.33 968.38 464.03C965.99 463.63 958.96 457.48 938.59 438C923.92 423.98 911.94 411.94 911.96 411.25C911.98 410.56 910.87 408.65 909.5 407C908.06 405.27 905.62 403.74 903.75 403.4C901.96 403.06 899.37 403.14 898 403.57C896.62 403.99 893.59 406.06 887 412L881.75 410.35C877.93 409.15 874.05 408.81 867.5 409.11C859.91 409.46 857.48 410.03 852 412.71C848.1 414.63 843.3 418.14 834.5 427.11L838.51 430.8C840.72 432.84 845.04 436.75 848.1 439.5C852.6 443.54 853.52 444.88 852.91 446.5C852.49 447.6 852.11 449.85 852.07 451.5C852.04 453.15 852.91 455.96 854 457.75C855.1 459.54 857.46 461.73 859.25 462.61C861.24 463.6 863.86 464.03 866 463.73C867.92 463.45 870.4 462.94 871.5 462.58C873.06 462.08 875.88 464.05 884.25 471.47C890.16 476.71 895.45 481 896 481C896.55 481 898.54 479.09 900.42 476.75C902.31 474.41 905 470.02 906.4 467C907.81 463.98 909.45 459.02 910.06 456C910.87 451.95 910.86 448.65 910.02 443.5C909.39 439.65 907.89 434.36 906.69 431.74C905.48 429.13 904.73 426.79 905 426.54C905.27 426.3 915.98 436.32 952.09 471.5L951.04 475C950.47 476.93 950 479.74 950 481.25C950 482.76 950.9 485.8 952 488C953.1 490.2 955.01 492.68 958.5 495.01L947.5 527.58C941.2 546.25 935.86 560.49 935 560.94C934.17 561.37 931.36 562.01 924 563V526L904.75 525.44C894.16 525.13 866.6 525.02 801.5 525.5L801 613H10L10 0ZM804 529H921V613H910V581L904.75 580.45C901.86 580.15 880.83 580.04 816.5 580.5L816 613H804V529ZM889 584H907V613H889V584ZM838 605V613H820V609.5C820 606.43 820.34 605.96 822.75 605.65C824.26 605.46 828.31 605.23 838 605ZM861.5 605.5L862 613H841L840.83 609.67C840.74 607.83 841.06 606.02 841.53 605.63C842.01 605.25 846.7 605.06 861.5 605.5ZM868.75 604.99C870.81 604.99 875.32 605.33 878.76 605.74C885.01 606.5 885.02 606.51 885 613H865V609C865 605.05 865.04 605 868.75 604.99Z" fill="#FFF6E2"/>
<path fill-rule="evenodd" clip-rule="evenodd" d="M1064.5 24.5901C1060.1 25.3601 1052.9 27.1101 1048.5 28.4601C1044.1 29.8201 1036.9 32.6601 1032.5 34.7901C1028.1 36.9101 1021.12 40.9201 1017 43.6901C1012.87 46.4701 1006.35 51.6601 1002.5 55.2201C998.65 58.7801 993.48 64.2601 991 67.3901C987.38 71.9801 986.75 73.3201 987.79 74.2901C988.81 75.2501 989.63 74.7801 991.75 72.0001C993.22 70.0801 997.43 65.3501 1001.12 61.5001C1004.8 57.6501 1011.34 51.9501 1015.66 48.8401C1019.97 45.7201 1027.1 41.3901 1031.5 39.2001C1035.9 37.0201 1042.65 34.1101 1046.5 32.7301C1050.35 31.3501 1057.55 29.4601 1062.5 28.5401C1067.45 27.6101 1075.1 26.6101 1079.5 26.3001C1084.6 25.9501 1091.67 26.3601 1099 27.4301C1105.33 28.3501 1112.64 29.7601 1115.25 30.5501C1119 31.7001 1120.13 31.7401 1120.61 30.7501C1120.94 30.0601 1120.83 29.2301 1120.36 28.9001C1119.89 28.5701 1116.8 27.5901 1113.5 26.7201C1110.2 25.8501 1104.24 24.6601 1100.25 24.0701C1096.26 23.4801 1088.39 23.0401 1082.75 23.0901C1077.11 23.1401 1068.9 23.8101 1064.5 24.5901ZM1132.5 29.5601C1130.3 30.4001 1127.43 32.0801 1126.12 33.2901C1124.81 34.5101 1122.91 37.3001 1121.89 39.5001C1120.87 41.7001 1120.02 44.8501 1120 46.5001C1119.98 48.1501 1120.67 51.5201 1121.53 54.0001C1122.39 56.4801 1124.51 60.7501 1126.24 63.5001C1127.97 66.2501 1130.65 70.1901 1132.19 72.2501C1134.65 75.5301 1134.84 76.2801 1133.75 78.2501C1133.06 79.4901 1131.94 81.2901 1131.25 82.2501C1130.56 83.2101 1130.22 84.4501 1130.5 85.0001C1130.78 85.5501 1131.56 85.8001 1132.25 85.5601C1132.94 85.3201 1134.51 85.7701 1135.75 86.5601C1136.99 87.3501 1139.13 87.7801 1140.5 87.5001C1141.88 87.2201 1143.79 85.8201 1144.75 84.3801C1146.23 82.1601 1146.32 81.2801 1145.29 78.6301C1144.14 75.6501 1144.36 75.1001 1149.86 67.0001C1153.04 62.3301 1156.23 56.7001 1156.95 54.5001C1157.67 52.3001 1158.09 47.9901 1157.88 44.9301C1157.61 40.9101 1156.78 38.4101 1154.92 35.9301C1153.51 34.0401 1150.81 31.7301 1148.92 30.7901C1147.04 29.8501 1143.47 28.8501 1141 28.5601C1138.18 28.2301 1135 28.6101 1132.5 29.5601ZM1029.48 55.5001C1029.21 56.3301 1030.69 59.4701 1032.75 62.4901C1035.71 66.8201 1037.18 68.0901 1039.75 68.4901C1041.54 68.7701 1044.35 70.1301 1046 71.5001C1048.56 73.6401 1049 74.6901 1048.99 78.7501C1048.99 81.3601 1048.26 84.8501 1047.38 86.5001C1046.49 88.1501 1045.68 91.9701 1045.58 95.0001C1045.48 98.0301 1044.9 101.4 1044.3 102.5C1043.7 103.6 1042.26 105.4 1041.12 106.5C1039.97 107.6 1039.25 108.84 1039.52 109.25C1039.78 109.66 1040.67 110 1041.5 110C1042.33 110 1044.36 108.09 1046.03 105.75C1048.49 102.29 1049.05 100.52 1049.03 96.2501C1049.01 93.3601 1049.67 89.6501 1050.5 88.0001C1051.33 86.3501 1052.27 83.3101 1052.6 81.2501C1052.99 78.8201 1052.64 76.1801 1051.6 73.7501C1050.72 71.6901 1048.54 69.0801 1046.75 67.9601C1044.96 66.8401 1042.24 65.6001 1040.69 65.2101C1038.81 64.7301 1036.75 62.7701 1034.44 59.2501C1032.55 56.3601 1030.76 54.0001 1030.48 54.0001C1030.19 54.0001 1029.74 54.6701 1029.48 55.5001ZM1164.74 56.3301C1164.2 57.5501 1165.57 59.7001 1169.77 64.2501C1172.94 67.6901 1177.38 73.2001 1179.64 76.5001C1181.91 79.8001 1185.58 86.1001 1187.8 90.5001C1190.03 94.9001 1193.02 102.1 1194.45 106.5C1195.88 110.9 1197.71 118.33 1198.52 123C1199.33 127.68 1199.99 136.22 1200 142C1200 147.78 1199.37 156.1 1198.59 160.5C1197.82 164.9 1196.41 171.2 1195.46 174.5C1194.51 177.8 1191.96 184.55 1189.81 189.5C1187.66 194.45 1183.34 202.32 1180.21 207C1177.09 211.68 1170.7 219.33 1166.02 224.01C1161.33 228.7 1153.9 234.98 1149.5 237.97C1145.1 240.96 1137.9 245.09 1133.5 247.14C1129.1 249.19 1121.67 251.97 1117 253.33C1112.33 254.69 1104.67 256.36 1100 257.05C1094.55 257.85 1086.84 258.07 1078.5 257.68C1069.83 257.273 1062.33 256.267 1056 254.66C1050.78 253.34 1043.13 250.85 1039 249.13C1034.88 247.41 1028.58 244.24 1025 242.07C1021.04 239.68 1018.11 238.49 1017.5 239.03C1016.85 239.61 1017.02 240.48 1018 241.54C1018.83 242.44 1024.9 245.82 1031.5 249.07C1038.38 252.44 1047.77 256.1 1053.5 257.63C1061.87 259.88 1066.19 260.38 1080 260.75C1092.96 261.09 1098.43 260.81 1105.5 259.45C1110.45 258.49 1118.33 256.38 1123 254.76C1127.67 253.13 1135.1 249.94 1139.5 247.66C1143.9 245.38 1150.88 240.99 1155 237.91C1159.13 234.84 1166.11 228.53 1170.53 223.91C1174.95 219.28 1179.96 213.47 1181.66 211C1183.36 208.53 1186.82 202.68 1189.34 198C1191.85 193.32 1195.07 186.12 1196.49 182C1197.9 177.87 1199.94 170.11 1201.03 164.75C1202.35 158.19 1203 150.99 1203 142.75C1203 136.01 1202.33 126.67 1201.52 122C1200.71 117.33 1198.88 109.9 1197.46 105.5C1196.04 101.1 1192.87 93.4501 1190.42 88.5001C1187.98 83.5501 1183.1 75.6701 1179.58 71.0001C1176.06 66.3301 1171.45 60.7401 1169.33 58.5801C1166.08 55.2701 1165.37 54.9201 1164.74 56.3301ZM1110.71 60.7501C1110.37 61.1601 1110.56 62.6201 1111.13 64.0001C1111.71 65.3701 1113.49 67.9601 1115.09 69.7501C1116.69 71.5401 1117.99 73.3401 1117.98 73.7501C1117.96 74.1601 1116.5 77.3001 1114.73 80.7201C1111.86 86.2601 1111.61 87.3601 1112.5 90.7001C1113.13 93.0801 1114.41 94.91 1116 95.7101C1117.38 96.4001 1120.3 96.9901 1122.5 97.0101C1125.73 97.0401 1127.07 97.6801 1129.5 100.37C1131.98 103.12 1133.71 103.91 1139.5 105C1145.2 106.07 1147.1 106.94 1149.75 109.66C1151.95 111.92 1153 113.97 1153 116C1153 118 1152.25 119.497 1150.75 120.49C1149.51 121.31 1146.92 122.26 1145 122.6C1143.08 122.94 1138.8 122.67 1135.5 122.01C1130.13 120.93 1128.95 120.21 1124.22 115.15L1118.95 109.5C1112.4 111.36 1106.22 113.29 1101 114.99C1095.78 116.68 1090.38 118.62 1089 119.3C1087.63 119.98 1085.71 122.11 1084.74 124.02C1083.77 125.93 1081.38 129.07 1079.43 131C1076.01 134.37 1075.86 134.82 1075.32 143.5C1074.97 149.3 1075.21 154.1 1076.02 157C1076.85 160.02 1078.95 163.27 1082.38 166.86L1087.5 172.23C1097.58 171.26 1103.42 170.71 1107 170.38C1112.62 169.87 1113.67 170.04 1114.77 171.64C1115.46 172.66 1116.01 174.62 1115.99 176C1115.97 177.37 1116.97 179.45 1118.22 180.6C1119.48 181.76 1121.29 182.99 1122.25 183.35C1123.74 183.9 1123.91 184.87 1123.43 189.75C1123.1 193.04 1123.34 196.78 1123.98 198.5C1124.6 200.15 1126.31 202.78 1127.8 204.33C1129.28 205.89 1131.85 208.5 1133.5 210.13C1135.18 211.79 1138.04 213.35 1140 213.67C1141.92 213.99 1145.3 213.67 1147.5 212.98C1150.29 212.1 1153.71 209.41 1158.81 204.11C1162.84 199.92 1166.32 195.71 1166.56 194.75C1166.8 193.79 1166.55 191.31 1166.01 189.25C1165.46 187.19 1165.01 185.05 1165.01 184.5C1165 183.95 1167.7 180.57 1171 177C1174.3 173.43 1177.68 169.04 1178.5 167.25C1179.33 165.46 1180.02 163.44 1180.03 162.75C1180.05 162.06 1179.15 160.26 1178.03 158.75C1176.71 156.96 1174.04 155.39 1170.41 154.25C1167.33 153.29 1164.07 151.67 1163.16 150.65C1162.03 149.39 1161.53 147.14 1161.6 143.65C1161.65 140.82 1162.21 137.49 1162.85 136.25C1163.48 135.01 1164.9 134 1166 134C1167.1 134 1168.34 134.56 1168.75 135.25C1169.16 135.94 1170.19 138.3 1171.03 140.5C1171.88 142.7 1173.68 145.08 1175.03 145.8C1176.56 146.6 1179.59 146.93 1183 146.66C1186.03 146.41 1189.75 145.6 1191.28 144.86C1192.81 144.11 1193.89 143.05 1193.67 142.5C1193.46 141.95 1192.2 141.7 1190.89 141.94C1189.58 142.19 1185.58 142.41 1182.01 142.44L1175.52 142.5C1173.47 136.3 1172.12 133.7 1171.19 132.72C1170.22 131.7 1168.11 130.95 1166.25 130.97C1164.17 130.99 1162.28 131.81 1161 133.25C1159.89 134.49 1158.71 137.53 1158.37 140C1158.04 142.47 1158.02 146.07 1158.35 148C1158.67 149.93 1160.07 152.51 1161.47 153.75C1162.86 154.99 1165.91 156.49 1168.25 157.09C1170.59 157.69 1173.3 158.93 1174.28 159.84C1175.26 160.75 1176.07 162.4 1176.07 163.5C1176.07 164.6 1175.07 166.85 1173.85 168.5C1172.63 170.15 1169.38 173.97 1166.64 177C1162.01 182.11 1161.7 182.78 1162.22 186.5C1162.53 188.7 1163.05 191.29 1163.39 192.25C1163.82 193.49 1162.19 195.92 1157.75 200.62C1154.31 204.26 1149.7 208.14 1147.5 209.23C1144.1 210.93 1142.94 211.06 1139.75 210.11C1137.69 209.5 1135.21 207.84 1134.25 206.42C1133.29 205 1131.25 202.63 1129.72 201.17C1127.18 198.72 1126.94 197.89 1126.97 191.25C1126.99 187.26 1126.55 183.1 1126 182C1125.45 180.9 1124.33 180 1123.5 180C1122.67 180 1121.42 179.44 1120.72 178.75C1120.02 178.06 1119.15 175.7 1118.79 173.5C1118.42 171.3 1117.36 168.82 1116.42 168C1115.21 166.95 1112.88 166.57 1108.6 166.75C1105.25 166.88 1100.92 167.44 1099 168C1097.08 168.55 1094.15 169.01 1092.5 169.01C1090.21 169.02 1088.31 167.82 1084.5 163.98L1079.5 158.93L1078.95 136.5C1085.19 129.91 1087 127.32 1087 126.5C1087 125.67 1087.58 124.44 1088.28 123.75C1088.99 123.06 1092.93 121.43 1097.03 120.12C1101.14 118.81 1106.64 116.9 1109.25 115.87C1111.86 114.84 1114.9 114 1116 114C1117.1 114 1120.14 116.2 1122.75 118.89C1126.6 122.85 1128.49 123.99 1132.75 124.89C1135.64 125.5 1139.69 126 1141.75 125.99C1143.81 125.99 1147.19 125.54 1149.25 124.99C1151.31 124.45 1153.68 122.99 1154.51 121.75C1155.34 120.51 1156.01 117.81 1156.01 115.75C1156 113.48 1155.11 110.74 1153.75 108.81C1152.51 107.05 1149.7 104.85 1147.5 103.91C1145.3 102.97 1141.47 101.86 1139 101.44C1135.94 100.92 1133.53 99.6901 1131.46 97.5901C1129.34 95.4201 1126.58 94.0501 1122.24 93.0001C1117.61 91.8801 1115.91 90.9901 1115.53 89.5001C1115.23 88.3601 1116.29 85.0401 1118.01 81.7501C1119.65 78.5901 1121 75.1001 1121 74.0001C1121 72.9001 1119.52 70.0901 1117.7 67.7501C1115.89 65.4101 1114.09 62.7101 1113.7 61.7501C1113.32 60.7901 1112.63 60.0001 1112.17 60.0001C1111.71 60.0001 1111.05 60.3401 1110.71 60.7501ZM943.5 90.5801C942.4 90.8501 938.8 91.7701 935.5 92.6301C932.2 93.5001 925.9 96.0401 921.5 98.2901C915.35 101.44 911.42 104.47 904.49 111.44C898.51 117.45 894.21 122.85 891.69 127.5C889.61 131.35 886.96 137.43 885.82 141C884.41 145.41 883.59 151.2 883.28 159C882.96 167.01 883.27 172.62 884.32 177.5C885.14 181.35 886.74 186.97 887.88 190C889.01 193.03 892.02 198.65 894.57 202.5C897.12 206.35 900.85 211.23 902.85 213.34C904.86 215.46 909.2 219.12 912.5 221.47C915.8 223.83 920.86 226.94 923.75 228.38C926.64 229.82 932.04 231.85 935.75 232.88C939.46 233.91 945.88 235.08 950 235.48C954.61 235.92 960.58 235.73 965.5 234.99C969.9 234.33 976.65 232.64 980.5 231.24C984.35 229.83 990.2 227.11 993.5 225.19C996.8 223.27 1003.11 218.05 1007.52 213.6C1013.31 207.75 1016.7 203.27 1019.67 197.5C1021.94 193.1 1024.75 186.35 1025.92 182.5C1027.09 178.65 1028.37 171.29 1028.77 166.15C1029.17 161 1029.84 156.61 1030.25 156.4C1030.66 156.18 1031 155.32 1031 154.5C1031 153.68 1030.33 153 1029.5 153C1028.5 153 1027.79 151.583 1027.38 148.75C1027.04 146.41 1025.8 141.8 1024.62 138.5C1023.44 135.2 1020.63 129.35 1018.37 125.5C1016.12 121.65 1011.4 115.56 1007.88 111.98C1004.37 108.39 998.13 103.35 994 100.79C989.88 98.2301 982.9 94.9101 978.5 93.4201C971.83 91.1601 968.43 90.6701 958 90.4101C951.13 90.2401 944.6 90.3201 943.5 90.5801ZM1101.11 103.5C1100.26 104.65 1100.35 105.12 1101.5 105.5C1102.33 105.78 1103.45 105.78 1104 105.5C1104.55 105.22 1105 104.33 1105 103.5C1105 102.67 1104.38 102 1103.61 102C1102.85 102 1101.72 102.67 1101.11 103.5ZM1094.17 108.25C1093.59 108.94 1093.43 110.06 1093.81 110.75C1094.36 111.75 1094.88 111.75 1096.4 110.75C1097.45 110.06 1098.01 108.94 1097.65 108.25C1097.29 107.56 1096.6 107 1096.11 107C1095.62 107 1094.75 107.56 1094.17 108.25ZM1086.86 113.54C1085.96 114.567 1085.84 115.4 1086.5 116.04C1087.14 116.66 1088.18 116.56 1089.4 115.75C1090.45 115.06 1091.01 113.94 1090.65 113.25C1090.29 112.56 1089.6 112 1089.11 112C1088.62 112 1087.61 112.69 1086.86 113.54ZM1079.72 118.25C1078.53 119.13 1078.32 119.94 1078.98 121C1079.81 122.31 1080.15 122.28 1081.71 120.76C1082.95 119.55 1083.18 118.7 1082.45 118C1081.75 117.32 1080.86 117.4 1079.72 118.25ZM1071.86 123.54C1070.96 124.567 1070.84 125.4 1071.5 126.04C1072.14 126.66 1073.18 126.56 1074.4 125.75C1075.45 125.06 1076.01 123.94 1075.65 123.25C1075.29 122.56 1074.6 122 1074.11 122C1073.62 122 1072.61 122.69 1071.86 123.54ZM1064.95 128.22C1064.21 128.87 1063.69 129.99 1063.8 130.7C1063.91 131.41 1064.34 132.01 1064.75 132.02C1065.16 132.03 1066.33 131.46 1067.34 130.77C1068.93 129.68 1068.98 129.33 1067.74 128.27C1066.64 127.33 1065.99 127.32 1064.95 128.22ZM1057.45 133.43C1055.87 134.59 1055.74 135.12 1056.76 136.18C1057.79 137.27 1058.32 137.19 1059.76 135.76C1060.96 134.55 1061.18 133.7 1060.45 133C1059.75 132.32 1058.78 132.46 1057.45 133.43ZM1049.44 139.25C1049.08 139.94 1049.27 140.95 1049.85 141.5C1050.56 142.173 1051.43 142.09 1052.46 141.25C1053.31 140.56 1053.78 139.55 1053.5 139C1053.22 138.45 1052.35 138 1051.55 138C1050.75 138 1049.8 138.56 1049.44 139.25ZM1035 148.97C1033.82 149.71 1033.76 150.19 1034.71 151.21C1035.68 152.24 1036.22 152.25 1037.46 151.25C1038.31 150.56 1038.78 149.55 1038.5 149C1038.22 148.45 1037.66 148.01 1037.25 148.02C1036.84 148.02 1035.83 148.45 1035 148.97ZM583.66 177.75C583.9 180.91 583.74 184.11 583.3 184.85C582.65 185.95 581.16 185.69 575.5 183.49C571.65 181.99 565.12 179.91 561 178.87C556.37 177.7 550.05 176.98 544.5 176.99C538.49 176.99 533.01 177.68 528 179.07C523.87 180.21 518.02 182.46 515 184.07C511.97 185.68 507.14 189.02 504.25 191.5C499.12 195.9 499.01 196.1 499.61 200.25C500.08 203.45 499.53 206.6 497.42 213C494.74 221.1 494.66 221.87 495.72 229.5C496.33 233.9 498.1 241.23 499.66 245.78C501.22 250.34 502.72 254.04 503 254.02C503.27 253.99 504.1 253.64 504.84 253.23C505.91 252.65 505.64 250.92 503.48 244.5C501.73 239.27 500.61 233.39 500.26 227.5C499.8 219.88 500.04 217.62 501.86 212.75C503.04 209.59 504 204.75 504 202C504 197.32 504.27 196.78 508.25 193.58C510.59 191.7 515.31 188.77 518.75 187.08C522.19 185.39 528.04 183.28 531.75 182.39C536.55 181.25 541.25 180.93 548 181.28C555.19 181.66 559.69 182.55 566.5 184.94C571.45 186.68 577.2 188.64 579.27 189.3C582.06 190.19 583.5 190.21 584.77 189.39C585.72 188.78 586.95 186.63 587.5 184.62L588.5 180.96C599.86 192.29 600.1 192.76 601 199.5C601.51 203.35 601.96 210.1 601.98 214.5C602.02 219.46 601.55 223.16 600.77 224.23C599.59 225.84 598.3 225.61 582 220.92C572.37 218.16 562.73 215.8 560.57 215.7C556.8 215.51 556.46 215.76 552.32 221.75C549.94 225.19 547.55 228 547 228C546.45 228 546 227.32 546 226.5C546 225.42 544.89 225 542 225C539.8 225 536.42 225.68 534.5 226.5C532.58 227.32 530.1 229.46 529 231.25C527.91 233.04 527 236.07 526.99 238C526.98 239.93 527.65 243.75 528.48 246.5C529.3 249.25 529.98 251.84 529.99 252.25C530 252.66 526.74 253.93 522.75 255.06C518.76 256.19 513.36 257.77 510.75 258.56C508.14 259.35 506.01 260.34 506.02 260.75C506.02 261.16 506.36 262.04 506.77 262.69C507.3 263.56 511.23 262.75 521.5 259.62C531.43 256.6 535.45 254.95 535.31 253.93C535.21 253.14 534.4 250.47 533.5 248C532.6 245.53 531.62 241.7 531.31 239.5C530.85 236.23 531.18 235 533.12 232.76C534.72 230.92 536.64 229.93 538.97 229.76C542.29 229.51 542.48 229.68 543.47 233.77C544.04 236.12 544.84 238.03 545.25 238.02C545.66 238.01 548.92 233.72 552.5 228.5C557.28 221.52 559.46 219.11 560.75 219.41C561.71 219.64 567.67 221.24 574 222.97C580.33 224.7 587.64 226.77 590.25 227.56L595 229C595.05 242.3 594.55 244.58 591.99 250L588.92 256.5C592.32 275.68 592.52 278.69 591.66 279.23C591.02 279.64 589.49 279.98 588.25 279.98C587.01 279.99 584.99 280.38 583.75 280.85C582.51 281.32 580.83 283.14 580 284.89C579.17 286.65 578.27 288.05 578 288.02C577.72 287.98 575.58 286.95 573.24 285.73C569.76 283.9 568.76 283.74 567.74 284.8C566.74 285.85 566.99 286.49 569 288.06C570.37 289.13 572.51 290.23 573.75 290.5C574.99 290.78 576 291.34 575.99 291.75C575.99 292.16 575.52 295.43 574.95 299C574.31 303.02 573.27 305.98 572.21 306.77C571.27 307.46 569.6 308.02 568.5 308C567.4 307.97 561.1 305.21 554.5 301.85C547.9 298.5 541.44 294.8 540.15 293.63C538.87 292.46 537.12 290.15 536.27 288.5C535.42 286.85 534.45 283.48 534.1 281C533.68 277.96 532.99 276.5 531.99 276.5C530.85 276.5 530.53 277.69 530.61 281.5C530.67 284.29 531.61 288.26 532.73 290.5C533.83 292.7 536.08 295.63 537.74 297C539.39 298.38 542.15 300.29 543.87 301.25C546.29 302.6 547 303.68 547 306C547 307.65 545.76 311.03 544.25 313.5C542.74 315.98 541.16 318 540.75 318C540.34 318 530.89 312.97 519.75 306.82C508.61 300.67 498.93 295.16 498.24 294.57C497.25 293.73 498.15 290.81 502.42 281C505.42 274.13 507.67 268.16 507.43 267.75C507.2 267.34 506.31 267.11 505.46 267.25C504.55 267.4 501.69 272.45 498.52 279.5C494.913 287.507 492.583 291.507 491.53 291.5C490.66 291.5 486.36 294.31 481.97 297.75C477.39 301.34 474.22 304.53 474.51 305.25C474.8 305.97 468.25 312.41 458.98 320.5C444.67 332.98 443.1 334.66 444.45 336C445.81 337.33 446.28 337.22 448.74 334.92C450.26 333.5 456.9 327.67 463.5 321.97C470.1 316.27 476.27 310.91 477.22 310.05C478.8 308.62 480.86 310.12 503.72 329.28C517.35 340.72 528.84 350.05 529.25 350.03C529.66 350.02 532.92 346.4 536.5 342C540.08 337.6 543.23 333.89 543.51 333.75C543.78 333.61 549.42 342.73 556.04 354L568.06 374.5C580.98 415.5 583.25 424.43 584.38 433C585.21 439.32 586.25 449.86 586.69 456.4C587.48 468.03 587.45 468.29 585.5 467.66C584.4 467.31 572.47 463.9 559 460.09C541.34 455.1 534.29 453.49 533.77 454.33C533.36 454.97 533.02 455.84 533.02 456.25C533.01 456.66 533.56 457.2 534.25 457.44C534.94 457.68 551.82 462.51 571.78 468.19C591.73 473.86 608.01 478.95 607.95 479.5C607.9 480.05 605.97 485.9 603.66 492.5L599.46 504.5C592.52 504.13 575.87 502.92 558 501.58C540.12 500.24 520.1 498.88 513.5 498.56C502.15 498 501.17 497.78 495.5 494.51L489.5 491.06L443.82 392.5C444.68 370.92 445.3 367.04 447.39 361.25C449.66 354.94 449.81 353.87 448.5 353C447.33 352.22 446.64 352.71 445.36 355.25C444.46 357.04 443.07 360.52 442.28 363C441.48 365.48 440.59 373.35 440.3 380.5L439.77 393.5L485.87 493.5L499.5 501.73C527.4 503.5 538.54 504.35 542.26 504.76C546.62 505.24 549.02 505.94 549.01 506.75C549 507.73 540.87 508 511.75 508.01L474.5 508.03C471.65 495.99 469.32 488 467.48 482.5C465.64 477 457.76 453.82 449.97 431L435.82 389.5C436.73 374 437.55 364.23 438.25 357.78C439.25 348.41 439.25 345.81 438.25 344.78C437.417 343.933 436.7 343.84 436.1 344.5C435.6 345.05 434.7 351.35 434.1 358.5C433.49 365.65 432.57 375.32 432.05 380C431.19 387.75 431.31 389.12 433.48 395.5C434.78 399.35 442.68 422.52 451.02 447C459.36 471.48 467.05 494.99 468.09 499.25C469.14 503.51 470 507.23 470 507.5C470 507.77 459.2 508 446 508H422C422 571.33 422.04 572 424 572C425.95 572 426.01 571.25 426.25 542.25L426.5 512.5L549 512C549.01 516.26 549.46 519.19 550.01 521.25C550.55 523.31 552.24 526.43 553.75 528.17C555.26 529.91 557.96 531.93 559.75 532.67C562.39 533.75 583.05 533.99 669.75 533.97L776.5 533.94C786.58 524.69 789.95 522.02 790.5 522.03C791.05 522.04 792.51 521.03 793.76 519.78C795.13 518.39 798.51 510.28 802.43 499C805.95 488.82 812.21 470.82 816.33 459C820.45 447.18 827.08 428.27 831.06 417C835.05 405.73 838.48 394.48 838.7 392C838.967 389 838.583 386.75 837.55 385.25C836.7 384.01 834.42 382.32 832.5 381.5C829.47 380.2 818.5 380.03 751.02 380.25L673.04 380.5C668.75 384.74 665.21 393.14 658.94 410.5C653.97 424.25 649.7 435.61 649.45 435.75C649.2 435.89 646.48 431.39 643.39 425.75C640.3 420.11 632.61 406.05 626.29 394.5C619.98 382.95 612.49 369.23 609.65 364C605.59 356.51 602.57 352.6 595.4 345.5C590.39 340.55 583.87 334.87 580.9 332.87C577.93 330.88 572.46 327.61 568.75 325.62C565.03 323.62 562 321.33 562 320.5C562 319.68 559.52 316.75 556.5 314C553.48 311.25 551 308.32 551 307.5C551 306.68 551.56 306.01 552.25 306.01C552.94 306.02 556.65 307.68 560.5 309.7L567.5 313.37L577.5 309.35C579.29 298.62 580.86 293.25 582.15 290.5C583.43 287.75 584.93 285.2 585.49 284.82C586.05 284.45 589.09 283.89 592.25 283.57C597.56 283.04 597.96 282.83 597.54 280.75C597.29 279.51 596.17 273.89 595.04 268.25L593 258C598.49 246.11 599 243.72 599 237.5C599 230.83 599.22 229.94 601 229.5C602.1 229.23 603.67 227.43 604.5 225.5C605.45 223.29 605.98 218.95 605.96 213.75C605.93 209.21 605.53 202.13 605.06 198L604.21 190.5C588.93 176.15 584.21 171.98 583.85 171.99C583.5 172 583.41 174.59 583.66 177.75ZM1042.5 172.67C1042.04 173.03 1041.74 173.71 1041.83 174.17C1041.92 174.63 1042.79 174.99 1043.75 174.97C1044.71 174.95 1046.29 175.74 1047.25 176.72C1048.79 178.28 1048.9 179.42 1048.09 186C1047.28 192.66 1047.39 193.81 1049.09 196.25C1050.98 198.98 1050.98 199.04 1048.75 203.54C1046.88 207.3 1046.71 208.36 1047.76 209.79C1048.46 210.73 1049.92 212.85 1051.01 214.5C1052.1 216.15 1052.99 218.96 1053 220.75C1053 222.54 1053.45 225.13 1054 226.5C1054.75 228.37 1056.32 229.37 1060.25 230.47C1063.14 231.28 1068.65 233.79 1072.5 236.04C1076.35 238.29 1080.97 241.57 1082.77 243.32C1084.57 245.07 1086.03 247.06 1086.02 247.75C1086.01 248.44 1086.67 249 1087.5 249C1088.33 249 1089 248.11 1089 247C1089 245.9 1087.54 243.37 1085.75 241.39C1083.96 239.4 1078.9 235.77 1074.5 233.33C1070.1 230.88 1064.47 228.3 1062 227.58C1057.52 226.29 1057.49 226.25 1056.25 220.14C1055.56 216.76 1053.99 212.65 1052.75 210.99C1050.55 208.05 1050.54 207.91 1052.25 204.49C1053.21 202.57 1054.02 199.99 1054.04 198.75C1054.07 197.51 1053.35 195.82 1052.44 195C1051.04 193.73 1050.89 192.21 1051.48 185L1052.17 176.5C1047.39 173.01 1045.4 172 1044.67 172C1043.93 172 1042.96 172.3 1042.5 172.67ZM539.5 186.48C539.23 187.31 537.31 188.28 535.25 188.62C533.19 188.96 528.69 190.53 525.25 192.12C521.81 193.7 516.3 197.48 513 200.5C509.7 203.53 507 206.68 507 207.5C507 208.32 507.45 209.23 508 209.5C508.55 209.78 511.36 207.75 514.25 205C517.14 202.24 520.85 199.17 522.5 198.16C524.15 197.16 528.09 195.36 531.25 194.17C534.41 192.97 539.25 192 542 192C546.1 192 547 191.69 546.98 190.25C546.98 189.29 546.64 188.01 546.23 187.4C545.83 186.8 544.26 186 542.75 185.63C540.74 185.13 539.87 185.36 539.5 186.48ZM712 283C712 374.33 712.01 375 714 375C715.99 375 716 374.33 716 284.5V194H846V225H878L877.5 393.5C845.24 393.94 841.08 394.29 841.33 395.25C841.58 396.19 846.61 396.56 861.33 396.75L881 397L881.04 222.5L848 191H712V283ZM745 232V247H775C775 240.11 774.58 239 773.5 239C772.57 239 772 239.94 772 241.5V244H748V220C770 220 772 220.25 772 221.5C772 222.33 772.67 223 773.5 223C774.5 223 775 222 775 220V217H745V232ZM794 224.5C794 225.79 797.06 226 815.5 226C833.94 226 837 225.79 837 224.5C837 223.21 833.94 223 815.5 223C797.06 223 794 223.21 794 224.5ZM769.47 231.01C765.64 234.86 762.05 238.02 761.5 238.03C760.95 238.04 759.15 236.67 757.5 235C755.85 233.33 754.16 231.97 753.75 231.98C753.34 231.99 752.99 232.56 752.99 233.25C752.98 233.94 754.89 236.41 757.24 238.74L761.5 242.98C775.11 229.43 778.71 225.15 778.28 224.72C777.85 224.29 777.26 223.96 776.97 223.97C776.68 223.99 773.31 227.15 769.47 231.01ZM682 233C682 236.78 682.37 238 683.5 238C684.63 238 685 236.78 685 233C685 229.22 684.63 228 683.5 228C682.37 228 682 229.22 682 233ZM794 238C794 239.94 794.67 240 815.5 240C836.33 240 837 239.94 837 238C837 236.06 836.33 236 815.5 236C794.67 236 794 236.06 794 238ZM571.25 241.64C569.77 241.87 569.17 242.52 569.5 243.5C569.77 244.33 570 245.23 570 245.5C570 245.78 572.36 245.71 575.25 245.36C578.35 244.97 581.93 245.18 584 245.86C586.84 246.8 587.78 246.75 589 245.59C590.32 244.33 590.11 243.97 587.25 242.58C585.38 241.67 581.77 241.06 578.75 241.14C575.86 241.21 572.49 241.44 571.25 241.64ZM669 242.5C669 243.61 670.17 244 673.5 244C676.83 244 678 243.61 678 242.5C678 241.39 676.83 241 673.5 241C670.17 241 669 241.39 669 242.5ZM689 242.5C689 243.61 690.17 244 693.5 244C696.83 244 698 243.61 698 242.5C698 241.39 696.83 241 693.5 241C690.17 241 689 241.39 689 242.5ZM682 253.5C682 256.83 682.39 258 683.5 258C684.61 258 685 256.83 685 253.5C685 250.17 684.61 249 683.5 249C682.39 249 682 250.17 682 253.5ZM571.25 251.06C569.36 251.85 569.2 252.26 570.25 253.59C570.94 254.47 572.49 255.03 573.69 254.84C575.26 254.6 575.98 255.07 576.19 256.49C576.36 257.58 577.29 258.6 578.25 258.74C579.21 258.88 579.98 258.44 579.96 257.75C579.93 257.06 580.63 255.83 581.5 255C582.37 254.18 583.07 252.71 583.04 251.75C583.01 250.33 582.12 250.01 578.25 250.06C575.64 250.1 572.49 250.55 571.25 251.06ZM745 271.5V287H775C775 279.17 774.61 278 773.5 278C772.57 278 772 278.94 772 280.5C772 282.85 771.68 283 766.75 283.01H761.5C778.13 266.43 779.22 264.95 777.69 264.28C776.28 263.67 774.28 265.12 768.46 271L761.03 278.5C755.97 273.49 754.16 272.02 753.75 272.02C753.34 272.01 753.01 272.56 753.01 273.25C753.02 273.94 754.93 276.42 757.26 278.76L761.5 283.03L748 283V259C770.17 259 771.04 259.14 771.5 261C771.77 262.1 772.67 263 773.5 263C774.55 263 775 261.94 775 259.5V256H745V271.5ZM794 265.5C794 266.79 797.06 267 815.5 267C833.94 267 837 266.79 837 265.5C837 264.21 833.94 264 815.5 264C797.06 264 794 264.21 794 265.5ZM893 268C893 269.99 893.67 270 991.5 270H1090C1090 279.72 1090.35 281 1091.5 281C1092.7 281 1093 279.5 1093 273.5V266C893.67 266 893 266.01 893 268ZM639 278.58C635.42 279.37 629.8 281.29 626.5 282.86C623.2 284.43 617.69 287.8 614.25 290.36C609.3 294.03 608.21 295.31 609 296.5C609.84 297.76 610.93 297.28 615.75 293.56C618.91 291.11 624.31 287.74 627.75 286.06C631.19 284.38 637.15 282.33 641 281.5C644.85 280.68 650.81 280.02 654.25 280.04C657.69 280.05 663.2 280.65 666.5 281.36C669.8 282.07 675.42 283.97 679 285.57C682.58 287.17 688.31 290.62 691.75 293.24C696.99 297.23 698.16 297.76 699 296.5C699.79 295.31 698.7 294.03 693.75 290.36C690.31 287.8 684.8 284.43 681.5 282.87C678.2 281.3 672.35 279.35 668.5 278.53C664.65 277.71 657.9 277.06 653.5 277.1C649.1 277.13 642.58 277.8 639 278.58ZM794 279C794 280.94 794.67 281 815.5 281C836.33 281 837 280.94 837 279C837 277.06 836.33 277 815.5 277C794.67 277 794 277.06 794 279ZM1086.45 286.25C1084.45 288.04 1081.75 291.75 1080.44 294.5C1079.12 297.25 1077.29 302.43 1076.35 306C1075.17 310.52 1074.63 316.77 1074.58 326.5C1074.51 338.56 1074.83 341.54 1076.86 348C1078.15 352.13 1080.58 358.2 1082.24 361.5C1083.91 364.8 1087.09 370.2 1089.31 373.5C1091.54 376.8 1099.56 385.8 1107.15 393.5C1116.55 403.03 1120.96 408.22 1120.98 409.75C1121 411.89 1120.62 412 1113.5 412C1107 412 1105.87 412.27 1105 414C1104.45 415.1 1104 417.13 1104 418.5C1104 420.89 1103.73 421 1098 421H1092C1092.46 449.03 1092.74 451.5 1094 451.5C1095.25 451.5 1095.54 449.19 1095.75 437.75L1096 424C1183.17 424 1189 423.81 1189 422.5C1189 421.24 1186.89 421 1176 421H1163C1163.03 415.96 1162.46 413.93 1161.77 413.23C1161.06 412.53 1158.18 411.97 1155.25 411.98L1150 412C1150.05 405.94 1151.79 403.73 1162.83 392.5C1170.26 384.95 1177.8 376.15 1180.83 371.5C1183.69 367.1 1187.43 360.13 1189.14 356C1190.84 351.88 1192.9 345.35 1193.72 341.5C1194.77 336.52 1195.05 331.18 1194.66 323C1194.36 316.68 1193.4 308.8 1192.53 305.5C1191.65 302.2 1189.71 297.08 1188.22 294.12C1186.72 291.16 1183.92 287.39 1182 285.74C1178.99 283.16 1177.94 282.82 1174.5 283.31C1171.96 283.67 1169.68 284.81 1168.25 286.44C1166.92 287.95 1165.99 290.33 1165.98 292.25C1165.97 294.04 1166.66 297.52 1167.51 300C1168.37 302.48 1168.83 305.74 1168.53 307.25C1168.21 308.93 1166.74 310.78 1164.75 312C1162.96 313.09 1160.49 313.99 1159.25 314C1157.44 314 1157.1 313.56 1157.49 311.75C1157.76 310.51 1158.43 307.48 1158.97 305C1159.51 302.52 1159.96 299.71 1159.98 298.75C1160 297.13 1158.13 297 1134.5 297C1120.47 297 1108.8 297.34 1108.56 297.75C1108.32 298.16 1108.75 301.2 1109.52 304.5C1110.3 307.8 1110.94 311.29 1110.96 312.25C1110.99 313.26 1110.26 314 1109.25 314C1108.29 313.99 1106.04 313.09 1104.25 312C1102.46 310.9 1100.73 308.99 1100.39 307.75C1100.05 306.51 1100.51 303.25 1101.4 300.5C1102.29 297.75 1103.02 294.26 1103.01 292.75C1103.01 291.24 1102.55 289.1 1102 288C1101.45 286.9 1099.65 285.33 1098 284.5C1096.35 283.68 1093.89 283 1092.54 283C1091.17 283 1088.46 284.44 1086.45 286.25ZM963.76 341.75L963.5 392.5L957 393L956.5 319.5L937 319V309H905V393C894.33 393 893 393.33 893 394.5C893 395.82 904.19 395.97 988.75 395.75C1051.95 395.58 1084.42 395.16 1084.26 394.5C1084.13 393.95 1080.08 393.27 1075.26 393L1066.5 392.5L1066 324L1043.5 323.5L1043 314H1027V296H994V291H964.02L963.76 341.75ZM745 310.5V326H775C775 319.11 774.58 318 773.5 318C772.57 318 772 318.94 772 320.5V323H748V299C770 299 772 299.25 772 300.5C772 301.33 772.67 302 773.5 302C774.55 302 775 300.94 775 298.5V295H745V310.5ZM640.5 300.82C637.75 301.85 634.15 303.42 632.5 304.32C630.85 305.23 628.15 307.09 626.5 308.45C624.42 310.17 623.81 311.28 624.5 312.05C625.21 312.84 626.92 312.19 630.5 309.77C633.25 307.9 637.51 305.5 639.97 304.44C643.35 302.97 646.75 302.5 654 302.5C661.25 302.5 664.64 302.97 668.03 304.44C670.49 305.5 674.75 307.9 677.5 309.77C681.17 312.26 682.77 312.85 683.5 312.01C684.2 311.2 683.6 310.12 681.5 308.39C679.85 307.04 675.57 304.51 672 302.76C666.25 299.96 664.34 299.55 655.5 299.28C647.64 299.03 644.43 299.36 640.5 300.82ZM769.47 310.01C765.64 313.86 762.05 317.02 761.5 317.03C760.95 317.04 759.15 315.67 757.5 314C755.85 312.33 754.16 310.97 753.75 310.98C753.34 310.99 752.99 311.56 752.99 312.25C752.98 312.94 754.89 315.41 757.24 317.74L761.5 321.98C775.11 308.43 778.71 304.15 778.28 303.72C777.85 303.29 777.26 302.96 776.97 302.97C776.68 302.99 773.31 306.15 769.47 310.01ZM794 306.5C794 307.79 797.05 308 815.5 308C833.94 308 837 307.79 837 306.5C837 305.21 833.94 305 815.5 305C797.05 305 794 305.21 794 306.5ZM794 320C794 321.94 794.67 322 815.5 322C836.33 322 837 321.94 837 320C837 318.06 836.33 318 815.5 318C794.67 318 794 318.06 794 320ZM649.44 323.25C648.44 324.66 648.06 326.52 648.42 328.25C648.75 329.81 650.08 331.54 651.5 332.25C653.5 333.25 654.5 333.25 656.5 332.25C657.92 331.54 659.25 329.81 659.58 328.25C659.94 326.53 659.56 324.65 658.58 323.25C657.54 321.77 655.98 321 654.02 321C652.07 321 650.49 321.78 649.44 323.25ZM745 348V363H775V333H745V348ZM461 341.07C458.52 341.61 456.31 342.19 456.08 342.38C455.84 342.56 455.95 343.45 456.33 344.36C456.87 345.67 457.74 345.85 460.75 345.25C462.81 344.84 467.2 344.57 470.5 344.65C473.8 344.74 478.52 345.56 481 346.47C483.47 347.39 487.73 349.79 490.45 351.82C493.17 353.84 497.12 358.2 499.23 361.5C501.34 364.8 504.37 370.65 505.96 374.5C507.56 378.35 510.21 386.23 511.87 392C513.53 397.77 515.83 407.45 516.99 413.5C518.14 419.55 520.2 428.55 521.56 433.5C522.92 438.45 524.74 444.98 525.61 448C526.47 451.02 526.81 453.78 526.34 454.11C525.88 454.45 521.9 457.55 517.5 461.01C513.1 464.46 509.5 467.98 509.5 468.81C509.5 469.65 509.95 470.48 510.5 470.67C511.05 470.85 516.11 467.4 521.75 463C527.44 458.56 531.8 454.44 531.56 453.75C531.32 453.06 529.11 445.08 526.66 436C524.2 426.93 521.42 415.23 520.48 410C519.54 404.77 517.21 395.33 515.31 389C513.42 382.68 510.69 374.8 509.25 371.5C507.82 368.2 504.76 362.58 502.46 359C499.92 355.07 496.14 350.93 492.88 348.53C489.92 346.34 485.25 343.72 482.5 342.7C479.75 341.68 474.8 340.68 471.5 340.47C468.2 340.27 463.47 340.54 461 341.07ZM794 347.5C794 348.79 797.05 349 815.5 349C833.94 349 837 348.79 837 347.5C837 346.21 833.94 346 815.5 346C797.05 346 794 346.21 794 347.5ZM421.35 353.84C419.23 355.39 416.1 357.97 414.38 359.58C412.67 361.18 409.82 364.52 408.05 367C406.28 369.48 404.16 373.08 403.34 375C402.52 376.93 401.11 380.52 400.2 383C399.03 386.18 398.57 390.59 398.61 398C398.67 407.48 399.01 409.37 402.13 417.5C404.03 422.45 412.31 443.48 420.54 464.24C429.03 485.66 436.04 501.98 436.75 501.99C437.44 501.99 438.24 501.44 438.54 500.75C438.83 500.06 431.47 480.38 422.17 457C412.88 433.63 404.66 412.7 403.91 410.5C403.14 408.23 402.57 402.6 402.6 397.5C402.63 391.76 403.26 386.78 404.33 383.75C405.25 381.14 406.97 377.09 408.15 374.75C409.33 372.41 412.14 368.31 414.4 365.63C416.65 362.95 420.41 359.47 422.75 357.88C425.09 356.3 427.04 354.35 427.1 353.56C427.16 352.77 426.75 351.87 426.21 351.58C425.66 351.28 423.47 352.3 421.35 353.84ZM652.52 352.65C652.05 353.02 651.74 354.16 651.83 355.17C651.93 356.28 652.79 357 654 357C655.46 357 655.93 356.42 655.75 354.83C655.61 353.63 655.02 352.5 654.43 352.31C653.85 352.12 652.98 352.27 652.52 352.65ZM794 360.5C794 361.79 797.05 362 815.5 362C833.94 362 837 361.79 837 360.5C837 359.21 833.94 359 815.5 359C797.05 359 794 359.21 794 360.5ZM652.52 361.65C652.05 362.02 651.74 363.16 651.83 364.17C651.93 365.28 652.79 366 654 366C655.46 366 655.93 365.42 655.75 363.83C655.61 362.63 655.02 361.5 654.43 361.31C653.85 361.12 652.98 361.27 652.52 361.65ZM652.52 370.65C652.05 371.02 651.74 372.16 651.83 373.17C651.93 374.28 652.79 375 654 375C655.46 375 655.93 374.42 655.75 372.83C655.61 371.63 655.02 370.5 654.43 370.31C653.85 370.12 652.98 370.27 652.52 370.65ZM652.52 379.65C652.05 380.02 651.74 381.16 651.83 382.17C651.93 383.28 652.79 384 654 384C655.46 384 655.93 383.42 655.75 381.83C655.61 380.63 655.02 379.5 654.43 379.31C653.85 379.12 652.98 379.27 652.52 379.65ZM652.52 388.65C652.05 389.02 651.74 390.16 651.83 391.17C651.93 392.28 652.79 393 654 393C655.46 393 655.93 392.42 655.75 390.83C655.61 389.63 655.02 388.5 654.43 388.31C653.85 388.12 652.98 388.27 652.52 388.65ZM260 411.5V419H273C273.44 484.89 273.78 493.41 274.75 493.67C275.73 493.93 276 486.01 276 456.5V419C383 419 390 418.82 390 417.5C390 416.18 382.33 416 327 416H264V407C385.17 407 393 406.82 393 405.5C393 404.18 384.94 404 326.5 404H260V411.5ZM952 414.5C952 415.81 958.55 416 1005 416C1051.44 416 1058 415.81 1058 414.5C1058 413.19 1051.44 413 1005 413C958.55 413 952 413.19 952 414.5ZM396.12 455.42C396.02 485.84 396.26 493.93 397.25 493.67C398.22 493.41 398.5 484.92 398.5 455.5C398.5 428.22 398.18 417.55 397.37 417.25C396.54 416.94 396.2 427.13 396.12 455.42ZM380.71 438.75C380.32 448.76 379.61 454.27 378.09 459C376.94 462.58 374.54 468.11 372.75 471.31C370.96 474.5 367.73 479.22 365.57 481.81C363.41 484.39 359.4 488.3 356.65 490.5C353.91 492.7 350.16 495.96 348.33 497.75C345.47 500.54 345 501.68 345.01 505.75C345.03 510.22 345.33 510.77 350.21 515C353.06 517.48 358.56 522.66 362.44 526.52C366.64 530.7 370.89 536.17 372.93 540.02C374.81 543.58 377.22 549.2 378.28 552.5C379.7 556.94 380.3 562.34 380.6 573.25C380.93 585.52 381.25 588 382.5 588C383.78 588 383.95 585.79 383.66 572.75C383.35 559.08 383.01 556.62 380.42 549C378.83 544.33 375.83 537.91 373.76 534.75C371.69 531.59 368.09 526.92 365.75 524.37C363.41 521.82 358.69 517.77 355.25 515.37C350.34 511.93 348.87 510.3 348.39 507.75C348.05 505.96 348.28 503.49 348.89 502.25C349.5 501.01 352.59 498.04 355.75 495.65C358.91 493.26 364.12 488.43 367.33 484.9C370.89 481 374.66 475.38 376.99 470.5C379.1 466.1 381.53 459.24 382.41 455.25C383.35 450.96 384 443.31 384 436.5C384 427.41 383.71 425 382.62 425C381.55 425 381.13 428.01 380.71 438.75ZM287 437C287 443.05 287.67 451.15 288.5 455C289.32 458.85 291.61 465.49 293.58 469.75C295.54 474.01 299.3 480.2 301.93 483.5C304.55 486.8 310.03 492.01 314.1 495.08C318.77 498.6 321.78 501.65 322.25 503.33C322.66 504.8 322.66 507.2 322.25 508.67C321.78 510.36 318.77 513.39 314.08 516.92C310 519.99 304.92 524.52 302.79 527C300.66 529.48 296.9 535.55 294.44 540.5C291.97 545.45 289.3 552.65 288.49 556.5C287.69 560.35 287.03 568.79 287.02 575.25C287 585.04 287.25 587 288.5 587C289.74 587 290 585.08 290.02 575.75C290.03 569.56 290.71 561.35 291.53 557.5C292.36 553.65 294.79 546.9 296.93 542.5C299.1 538.05 303.24 531.84 306.26 528.5C309.24 525.2 314.25 520.7 317.38 518.5C320.65 516.2 323.7 513.12 324.54 511.25C325.34 509.46 326 506.88 326 505.5C326 504.13 325.44 501.84 324.75 500.42C324.06 499 320.57 495.69 317 493.07C313.42 490.44 308.7 486.25 306.5 483.76C304.3 481.27 301.04 476.81 299.26 473.86C297.47 470.91 294.81 465.13 293.35 461C291.09 454.64 290.62 451.41 290.26 439.75C289.92 428.75 289.55 426 288.42 426C287.28 426 287 428.18 287 437ZM968.22 439.75C968.45 449.4 968.77 451.5 970 451.5C971.21 451.5 971.55 449.64 971.75 441.75L972 432H997V528C969.33 528 967 528.23 967 529.5C967 530.8 971.33 531 1000 531C1028.67 531 1033 530.8 1033 529.5C1033 528.25 1031.05 528 1021.5 528H1010V450H1028C1028 470.11 1028.26 472 1029.5 472C1030.7 472 1031 470.5 1031 464.5V457H1052C1052 464.83 1052.39 466 1053.5 466C1054.67 466 1055 464.67 1055 460V454H1031V446H1007V528H1000V428H967.94L968.22 439.75ZM1183 439C1183 442.78 1183.36 444 1184.5 444C1185.63 444 1186 442.78 1186 439C1186 435.22 1185.63 434 1184.5 434C1183.36 434 1183 435.22 1183 439ZM35 455.5V464L21.5 464.5L21 598H113C118.03 601.78 121.18 603.58 123.25 604.44C125.34 605.31 129.87 606 133.5 606C137.12 606 141.66 605.31 143.75 604.44C145.81 603.58 148.96 601.78 150.75 600.44L154 598C224.16 598 229 597.81 229 596.5C229 595.19 224.05 595 190.5 595H152C147.22 599.26 144.41 601.03 142.67 601.67C140.92 602.32 137.25 602.88 134.5 602.92C131.75 602.97 127.92 602.54 126 601.99C124.07 601.43 120.81 599.63 118.75 597.99L115 595H25V468H35V576L113.54 576.5C124.26 581.68 128.12 584.43 129.75 586.5C131.26 588.42 133.06 590 133.75 590C134.43 590 135 589.33 135 588.5C135 587.67 137.13 585.45 139.75 583.55C142.36 581.65 147.08 579.18 150.25 578.05C155.65 576.12 158.24 576 193.5 576H231V468H243C243 588.22 243.18 596 244.5 596C245.82 596 246 588 246 530V464H231V447C155.98 447.49 153.18 447.63 148.5 449.53C145.75 450.64 141.13 453.23 138.25 455.28L133 459C127.18 454.56 123.7 452.36 121.5 451.26C119.3 450.15 115.13 448.74 112.25 448.12C108.91 447.41 93.85 447 71 447H35V455.5ZM1169 448.5C1169 449.63 1170.22 450 1174 450C1177.77 450 1179 449.63 1179 448.5C1179 447.37 1177.77 447 1174 447C1170.22 447 1169 447.37 1169 448.5ZM1189.69 447.75C1189.33 448.16 1189.26 448.84 1189.52 449.25C1189.78 449.66 1192.02 450 1194.5 450C1197.83 450 1199 449.61 1199 448.5C1199 447.4 1197.85 447 1194.66 447C1192.28 447 1190.04 447.34 1189.69 447.75ZM1101 452.33C1096.32 454.65 1087.32 458.95 1081 461.89C1074.67 464.83 1063.23 470.18 1055.58 473.77C1047.92 477.36 1041.74 480.68 1041.83 481.15C1041.92 481.62 1046.83 484.3 1052.75 487.12C1058.66 489.93 1066.65 493.71 1070.5 495.5C1074.35 497.3 1085.15 502.43 1094.5 506.91C1103.85 511.39 1111.61 515.04 1111.75 515.03C1111.88 515.01 1116.83 512.7 1122.75 509.89C1128.66 507.07 1136.65 503.3 1140.5 501.49C1144.35 499.69 1154.25 494.97 1162.5 491.01C1170.75 487.06 1178.51 483.41 1179.75 482.91C1181.15 482.34 1181.71 481.55 1181.25 480.79C1180.83 480.13 1177.35 478.17 1173.5 476.43C1169.65 474.69 1154.46 467.58 1139.75 460.63C1125.03 453.68 1112.21 448.03 1111.25 448.06C1110.28 448.1 1105.67 450.02 1101 452.33ZM828 455.5C828 456.63 829.22 457 833 457C836.77 457 838 456.63 838 455.5C838 454.37 836.77 454 833 454C829.22 454 828 454.37 828 455.5ZM1183 459.5C1183 462.83 1183.39 464 1184.5 464C1185.61 464 1186 462.83 1186 459.5C1186 456.17 1185.61 455 1184.5 455C1183.39 455 1183 456.17 1183 459.5ZM349 461.71C347.62 461.95 340.98 463.24 334.25 464.57C327.51 465.91 319.18 466.98 315.75 466.96C311.21 466.92 309.09 467.36 308 468.54C306.66 469.99 306.71 470.55 308.5 473.72C309.6 475.67 313.35 479.8 316.84 482.89C320.33 485.97 325.37 490.52 328.04 493C330.97 495.72 333.21 498.8 333.69 500.77C334.14 502.57 334.95 504.05 335.5 504.05C336.05 504.05 336.8 502.8 337.17 501.27C337.55 499.75 338.9 496.95 340.17 495.06C341.45 493.16 345.83 488.89 349.91 485.56C353.98 482.23 359.07 477.02 361.21 474C363.35 470.98 365.36 467.38 365.68 466C366.09 464.22 365.71 463.13 364.38 462.23C363.34 461.53 360.04 461.03 357 461.12C353.97 461.2 350.37 461.47 349 461.71ZM842.15 472.25C839.53 474.88 839.16 475.73 840.21 476.73C841.24 477.71 842.17 477.31 844.85 474.73C846.7 472.95 847.94 470.94 847.6 470.25C847.27 469.56 846.63 469 846.19 469C845.75 469 843.93 470.46 842.15 472.25ZM862 483C862 486.78 862.36 488 863.5 488C864.63 488 865 486.78 865 483C865 479.22 864.63 478 863.5 478C862.36 478 862 479.22 862 483ZM1041.96 508.75C1041.92 527.37 1041.9 527.52 1039.46 529.75C1038.01 531.08 1036.99 533.13 1036.97 534.75C1036.95 536.46 1038.24 539.01 1040.36 541.5L1043.78 545.5C1047.21 542.4 1048.83 540.26 1049.6 538.75C1050.37 537.24 1051 535.1 1051 534C1051 532.9 1049.89 530.99 1048.54 529.75C1046.09 527.52 1046.08 527.37 1046.04 508.75C1046 490.68 1045.92 490 1044 490C1042.07 490 1042 490.68 1041.96 508.75ZM268.25 498.95C266.46 500.08 264.55 502.13 264 503.5C263.45 504.88 263 507.35 263 509C263 510.65 263.67 513.35 264.5 515C265.32 516.65 267.46 518.73 269.25 519.62C271.46 520.73 273.77 521.05 276.5 520.64C278.7 520.31 281.52 519.02 282.78 517.77C284.03 516.52 285.49 514.04 286.03 512.25C286.65 510.15 286.65 507.85 286.03 505.75C285.49 503.96 284.03 501.47 282.78 500.21C281.33 498.76 278.85 497.73 276 497.4C272.55 497.01 270.74 497.37 268.25 498.95ZM393 497.7C392.17 498 390.26 499.43 388.76 500.87C387.25 502.32 385.74 505.08 385.41 507C385.03 509.21 385.36 511.6 386.3 513.5C387.12 515.15 388.62 517.29 389.64 518.26C390.66 519.23 393.3 520.3 395.5 520.64C398.23 521.05 400.53 520.73 402.75 519.62C404.53 518.73 406.67 516.65 407.5 515C408.32 513.35 409 510.65 409 509C409 507.35 408.32 504.65 407.5 503C406.67 501.35 404.65 499.33 403 498.5C401.35 497.68 398.76 497.04 397.25 497.08C395.73 497.12 393.82 497.4 393 497.7ZM1157.96 513.25C1157.92 524.56 1157.67 526.69 1156.21 527.78C1155.27 528.48 1151.57 530.55 1148 532.39C1144.42 534.22 1138.35 536.79 1134.5 538.11C1128.23 540.25 1125.83 540.49 1111.5 540.45C1097.02 540.4 1094.88 540.16 1089 537.94L1082.5 535.49C1081.59 510.89 1081.23 508.5 1080 508.5C1078.77 508.5 1078.41 510.75 1078 520.79L1077.5 533.08L1068 527C1068 504.06 1067.75 502 1066.5 502C1065.24 502 1064.99 504.15 1064.98 515.25L1064.97 528.5C1076.54 536.16 1082.75 539.14 1087.5 540.62C1091.9 542 1098.87 543.55 1103 544.08C1107.91 544.71 1113.6 544.69 1119.5 544.02C1124.45 543.45 1130.75 542.38 1133.5 541.62C1136.25 540.86 1140.97 539.25 1144 538.04C1147.02 536.83 1151.07 534.9 1153 533.76C1154.92 532.61 1157.52 530.74 1158.77 529.59C1160.93 527.61 1161.05 526.79 1161.02 513.75C1161 502.21 1160.76 500 1159.5 500C1158.24 500 1157.99 502.16 1157.96 513.25ZM839 510C839 511.97 839.66 512 879.5 512C919.33 512 920 511.97 920 510C920 508.03 919.33 508 879.5 508C839.66 508 839 508.03 839 510ZM273 558V592L260.5 592.5L260 608H414V593H399C399 527.92 398.82 524 397.44 524C396.06 524 395.86 527.98 395.69 558.25L395.5 592.5H276.5C276.01 528.71 275.77 524 274.49 524C273.2 524 273 528.56 273 558ZM816.59 540.49C816.26 541.32 816 544.36 815.99 547.25C815.99 550.14 816.33 555.99 816.74 560.26L817.5 568.02L910 568L909.5 539.5C822.95 539.01 817.11 539.17 816.59 540.49ZM334 546C334 547.333 334.667 548 336 548C337.333 548 337.833 547.5 337.5 546.5C337.22 545.67 337 544.77 337 544.5C337 544.23 336.32 544 335.5 544C334.66 544 334 544.89 334 546ZM440.94 562.09L440.5 578.5L425 579L425.5 595.5H526.9C532.79 601.24 536.18 603.6 538.25 604.45C540.31 605.3 544.58 606 547.75 606C551.66 606.01 554.77 605.34 557.5 603.9C559.7 602.75 562.85 600.53 564.5 598.98L567.5 596.17C636.73 595.65 657.09 595.16 657.41 594.75C657.73 594.34 657.77 593.55 657.5 593C657.18 592.36 640.9 591.99 611.75 591.98L566.5 591.96C561.07 597.55 557.81 600.04 555.75 601.09C553.59 602.19 549.98 602.99 547.25 602.99C544.34 602.98 540.77 602.1 538.06 600.74C535.62 599.51 532.47 597.02 531.06 595.21L528.5 591.92L428.5 591.5V582.5L536 582C536.69 585.49 538.16 587.7 539.7 589.17C541.24 590.64 544.07 592.12 546 592.45C548.57 592.9 550.36 592.53 552.75 591.03C554.53 589.91 556.78 587.42 557.75 585.48L559.5 581.96L668 582C668 592.67 668.33 594 669.5 594C670.7 594 671 592.5 671 586.5V579C652.46 579 651.97 578.89 651.51 576.75C651.24 575.51 651.02 567.98 651.01 560L651 545.5C608.96 546.54 593.91 547.46 587 548.47C580.67 549.39 572.35 551.02 568.5 552.09C564.65 553.16 559.48 555.04 557.02 556.27C554.55 557.5 551.18 559.96 549.52 561.75C546.66 564.82 546.41 564.9 544.85 563.25C543.94 562.29 541.01 560.28 538.35 558.79C535.68 557.29 529 554.92 523.5 553.5C518 552.09 506.63 550.05 498.25 548.97C489.86 547.88 473.63 546.7 462.19 546.34L441.37 545.68L440.94 562.09ZM984.01 550.5C984.01 551.78 986.62 552 1001.51 552C1016.39 552 1019.01 551.78 1019.01 550.5C1019.01 549.23 1016.39 549 1001.51 549C986.62 549 984.01 549.23 984.01 550.5ZM323.58 555.25C318.69 558.14 311.66 563.43 307.96 567C302.44 572.34 300.94 574.49 299.61 579C298.72 582.03 297.99 585.29 298 586.25C298 587.21 298.68 588 299.51 588C300.51 588 301.36 586.28 302.08 582.75C302.67 579.86 304.08 576.15 305.22 574.5C306.36 572.85 308.69 570.23 310.4 568.69C312.11 567.14 317.56 563.17 322.51 559.87C327.46 556.57 332.63 553.63 334.01 553.33C335.43 553.02 338.22 553.58 340.49 554.64C342.68 555.67 347.86 558.91 351.99 561.85C356.12 564.79 360.78 568.39 362.35 569.85C363.91 571.31 366.05 574.19 367.1 576.25C368.15 578.31 369.34 581.81 369.76 584.02C370.17 586.23 371.07 588.03 371.76 588.02C372.45 588.01 373 586.78 372.99 585.25C372.98 583.74 372.42 580.71 371.74 578.52C371.06 576.33 368.21 572.07 365.4 569.02C362.59 565.99 357.19 561.42 353.4 558.88C349.61 556.34 344.59 553.3 342.26 552.13C339.92 550.96 336.76 550 335.24 550C333.71 550 328.53 552.33 323.58 555.25ZM666.01 555.5C666.01 556.82 673.45 557 727.01 557C780.56 557 788.01 556.82 788.01 555.5C788.01 554.18 780.56 554 727.01 554C673.45 554 666.01 554.18 666.01 555.5ZM1058.01 556.92C1056.63 557.33 1054.25 558.53 1052.71 559.58C1051.17 560.64 1049.22 563.3 1048.38 565.5C1047.39 568.09 1047.09 570.73 1047.54 573C1047.92 574.93 1048.97 577.57 1049.87 578.89C1050.77 580.2 1053.19 582.11 1055.26 583.14C1058.47 584.74 1061.42 585 1076.01 585H1093.01C1093.01 605.15 1093.23 611 1093.51 611C1093.78 611 1096.82 608.56 1100.26 605.58L1106.51 600.16L1118.51 611.15L1119.01 585H1169.01C1172.88 580.35 1174.29 577.31 1174.64 575.25C1174.98 573.19 1175.08 569.7 1174.85 567.5C1174.62 565.29 1173.22 561.82 1171.72 559.75L1169.01 556C1084.92 556.13 1059.38 556.51 1058.01 556.92ZM730.01 575C730.01 578.78 730.37 580 731.51 580C732.64 580 733.01 578.78 733.01 575C733.01 571.22 732.64 570 731.51 570C730.37 570 730.01 571.22 730.01 575ZM717.01 584.5C717.01 585.39 717.93 586.01 719.26 586.02C720.49 586.02 722.52 586.25 723.76 586.52C725.5 586.89 726.01 586.55 726.01 585C726.01 583.3 725.34 583 721.51 583C718.17 583 717.01 583.39 717.01 584.5ZM737.01 584.75C737.02 586.16 737.9 586.5 741.51 586.5C745.11 586.5 745.99 586.16 746 584.75C746 583.34 745.13 583 741.51 583C737.88 583 737.01 583.34 737.01 584.75ZM37.05 585.46C37.01 586.82 41.23 587 73.26 587.02C108.29 587.04 109.72 587.12 116.01 589.3C120.03 590.7 124.5 593.27 127.74 596.03L132.97 600.5C141.13 594.01 145.76 591.08 148.51 589.81C153.42 587.54 154.18 587.5 191.26 587.25C224.03 587.03 229.01 586.8 229.01 585.5C229.01 584.19 224.15 584.03 190.26 584.26C153.25 584.51 151.3 584.61 147.01 586.62C144.53 587.78 140.37 590.36 137.76 592.36L133.01 596C127.19 591.14 123.03 588.55 120.01 587.12L114.51 584.5C41.46 583.95 37.09 584.09 37.05 585.46ZM730.01 595.5C730.01 598.84 730.39 600 731.51 600C732.62 600 733.01 598.84 733.01 595.5C733.01 592.17 732.62 591 731.51 591C730.39 591 730.01 592.17 730.01 595.5Z" fill="#0A0A0A"/>
<path fill-rule="evenodd" clip-rule="evenodd" d="M901.75 406.06C902.44 406.03 904.35 407.12 906 408.5C908.11 410.26 909 411.89 909 414C909 415.89 907.89 418.3 903 424L899.25 420.73C897.19 418.93 894.37 416.69 890.5 414.03L893.37 410.86C894.95 409.11 897.2 407.33 898.37 406.91C899.54 406.48 901.06 406.1 901.75 406.06ZM871.5 412.37C877.49 412.56 880.88 413.24 885 415.11C888.02 416.48 892.52 419.43 895 421.66C897.48 423.9 900.93 428.38 902.68 431.62C904.5 434.98 906.31 440.29 906.91 444C907.49 447.57 907.67 452.3 907.32 454.5C906.96 456.7 906.07 459.96 904 465L897.75 459.7C894.31 456.78 882.14 446.32 870.71 436.45C859.27 426.58 849.92 418.27 849.93 418C849.94 417.73 852.1 416.51 854.72 415.29C857.35 414.08 860.4 412.86 861.5 412.6C862.6 412.33 867.1 412.23 871.5 412.37ZM913.85 419.04C914.76 419.56 925.8 430 961.28 464.5L954.5 468.72L944.49 459.11C938.98 453.83 928.52 443.76 908 424L910.1 421.05C911.73 418.76 912.58 418.31 913.85 419.04ZM846.18 419.85L849.34 422.57C851.08 424.06 861.48 432.99 872.46 442.39C883.43 451.8 894.68 461.58 902.5 468.75L899 472.93C895.55 477.05 895.47 477.08 893.5 475.22C892.4 474.19 879.91 463.14 865.75 450.67C851.59 438.2 840.03 427.65 840.06 427.22C840.1 426.8 841.49 424.96 843.16 423.15L846.18 419.85ZM859.87 449.88C861.87 451.5 864.84 454.23 866.49 455.96C869.02 458.6 869.26 459.25 867.99 460.08C867.17 460.61 865.14 460.8 863.49 460.49C861.84 460.18 859.48 458.93 858.25 457.71C857.01 456.5 855.76 454.37 855.46 453C855.17 451.62 855.22 449.7 855.59 448.73C856.19 447.13 856.62 447.24 859.87 449.88ZM967.99 467.5C969.92 467.78 972.51 468.69 973.74 469.51C974.98 470.33 976.92 472.46 978.05 474.25C979.61 476.73 979.99 478.57 979.61 482C979.22 485.48 978.29 487.3 975.53 490C972.43 493.04 971.31 493.5 967.05 493.5C963.67 493.5 961.26 492.86 959.32 491.44C957.77 490.3 955.69 487.82 954.71 485.94C953.37 483.35 953.11 481.5 953.68 478.5C954.09 476.3 955.2 473.43 956.15 472.13C957.11 470.83 959.37 469.14 961.19 468.37C963.02 467.6 966.05 467.21 967.99 467.5ZM965.03 497C967.21 497 968.99 497.45 968.99 498C968.99 498.55 964.27 512.84 958.49 529.75C952.71 546.66 947.98 560.61 947.99 560.75C947.99 560.89 946.19 561 943.99 561C941.79 561 939.99 560.89 939.98 560.75C939.97 560.61 944.05 548.35 949.05 533.5C954.05 518.65 958.8 504.36 959.6 501.75C961.02 497.13 961.16 497 965.03 497ZM819.99 584H837.99V602H819.99V584ZM861.99 584V602H840.99L840.83 593.67C840.74 589.08 841.04 585.03 841.49 584.67C841.95 584.3 846.75 584 861.99 584ZM864.99 584H884.99V602H864.99V584Z" fill="#FFF6E2"/>
<path d="M961.76 480.45C961.67 479.32 962.23 477.86 963 477.2C963.77 476.54 965.32 475.98 966.45 475.96C967.58 475.93 969.07 476.49 969.77 477.21C970.48 477.92 970.93 479.85 970.77 481.5C970.54 484.03 970.03 484.54 967.5 484.77C965.85 484.93 963.92 484.48 963.21 483.77C962.49 483.07 961.84 481.58 961.76 480.45Z" fill="#0A0A0A"/>
<path fill-rule="evenodd" clip-rule="evenodd" d="M1131.97 33.29C1128.77 34.93 1126.84 36.86 1125.19 40.04C1123.47 43.36 1123.01 45.53 1123.4 48.5C1123.69 50.7 1125.1 54.75 1126.53 57.5C1127.97 60.25 1131.48 65.53 1134.32 69.24L1139.5 75.97C1143.65 70.96 1147.01 65.9 1149.66 61.5C1153.27 55.48 1154.56 52.26 1154.86 48.5C1155.11 45.28 1154.71 42.43 1153.72 40.5C1152.88 38.85 1151.13 36.55 1149.85 35.39C1148.56 34.23 1145.92 32.76 1144 32.12C1142.08 31.49 1139.58 30.97 1138.47 30.98C1137.35 30.99 1134.42 32.03 1131.97 33.29ZM1136.25 80.71C1136.11 81.42 1136.22 82.45 1136.5 83C1136.78 83.55 1137.79 84.02 1138.75 84.04C1139.71 84.07 1141.17 83.38 1142 82.52C1142.83 81.66 1143.12 80.63 1142.66 80.23C1142.2 79.83 1140.63 79.48 1139.16 79.46C1137.7 79.44 1136.39 80 1136.25 80.71ZM939 95.01C934.88 96.04 928.35 98.47 924.5 100.4C920.65 102.34 914.91 105.97 911.75 108.46C908.59 110.96 903.96 115.59 901.46 118.75C898.96 121.91 895.13 128.1 892.94 132.5C890.75 136.9 888.3 143.65 887.5 147.5C886.69 151.35 886.03 158.32 886.03 163C886.03 167.68 886.7 174.31 887.51 177.75C888.33 181.19 890.17 186.81 891.61 190.25C893.04 193.69 896.15 199.2 898.51 202.5C900.87 205.8 904.43 210.07 906.42 212L910.04 215.5C910 170.35 910.21 167 911.5 167C912.79 167 913 170.5 913 192.5V218C922.69 224.26 927.86 226.96 930.75 228.04C933.64 229.12 938.14 230.51 940.75 231.14C943.36 231.76 950 232.28 955.5 232.28C961.63 232.29 968.01 231.64 972 230.61C975.58 229.69 981.2 227.68 984.5 226.16C987.8 224.63 992.64 221.95 995.25 220.19L1000 217C1000 170.44 1000.21 167 1001.5 167C1002.79 167 1003 170.22 1003 190C1003 204.67 1003.36 213 1004 213C1004.55 213 1007.21 210.19 1009.91 206.75C1012.61 203.31 1016.43 197.12 1018.39 193C1020.34 188.87 1022.69 182.57 1023.6 179C1024.87 173.99 1025.14 169.52 1024.77 159.5C1024.35 147.88 1023.97 145.65 1021.14 138.5C1019.39 134.1 1016.06 127.61 1013.74 124.09C1011.41 120.56 1006.55 114.94 1002.94 111.59C999.33 108.24 992.8 103.61 988.44 101.3C984.07 98.99 976.9 96.17 972.5 95.04C967.1 93.65 961.58 93.01 955.5 93.06C950.35 93.11 943.29 93.95 939 95.01ZM849.18 209.41L849 222L875.5 222.01C862.33 208.71 856.44 203.04 853.93 200.83L849.35 196.81L849.18 209.41ZM1088.66 288.51C1087.2 289.88 1084.88 293.26 1083.51 296.01C1082.13 298.76 1080.37 303.82 1079.59 307.26C1078.81 310.69 1077.87 317.11 1077.5 321.51C1077.12 326.07 1077.32 332.95 1077.97 337.51C1078.59 341.91 1080.26 348.43 1081.69 352.01C1083.12 355.58 1085.97 361.43 1088.03 365.01C1090.09 368.58 1093.86 374.09 1096.39 377.26C1098.93 380.42 1101.25 382.89 1101.55 382.76C1101.84 382.62 1100.93 379.58 1099.51 376.01C1098.09 372.43 1096 365.91 1094.86 361.51C1093.72 357.11 1092.55 348.78 1092.26 343.01L1091.74 332.51C1105.04 321.66 1108.93 318.17 1108.96 317.76C1108.98 317.34 1108.11 317.01 1107.01 317.01C1105.91 317.01 1103.22 315.32 1101.04 313.26C1097.9 310.29 1097.07 308.78 1097.05 306.01C1097.05 304.08 1097.69 300.71 1098.48 298.51C1099.27 296.31 1099.94 293.72 1099.96 292.76C1099.99 291.79 1098.88 289.88 1097.51 288.51C1096.13 287.13 1094.18 286.01 1093.16 286.01C1092.14 286.01 1090.12 287.13 1088.66 288.51ZM1171.56 288.08C1169.93 289.31 1168.86 291.04 1168.93 292.33C1168.99 293.53 1169.69 296.31 1170.48 298.51C1171.27 300.71 1171.94 303.97 1171.96 305.76C1171.99 308.07 1171.07 310.03 1168.76 312.54C1166.97 314.49 1164.27 316.29 1162.76 316.54C1161.24 316.8 1160.12 317.41 1160.26 317.89C1160.39 318.38 1164.22 321.76 1168.76 325.39L1177.01 332.01C1177.01 343.63 1176.16 351.39 1175.12 356.76C1174.09 362.12 1171.84 369.99 1170.12 374.26C1168.41 378.52 1166.99 382.34 1166.97 382.76C1166.96 383.17 1167.91 382.61 1169.09 381.51C1170.28 380.41 1173.18 376.81 1175.55 373.51C1177.92 370.21 1181.64 363.91 1183.82 359.51C1186.01 355.11 1188.61 348.81 1189.61 345.51C1190.98 340.99 1191.41 336.41 1191.34 327.01C1191.29 319.01 1190.65 311.99 1189.58 307.51C1188.65 303.66 1186.46 297.86 1184.7 294.63C1182.83 291.18 1180.37 288.19 1178.76 287.38C1177.24 286.63 1175.63 286.01 1175.16 286.01C1174.69 286.01 1173.08 286.94 1171.56 288.08ZM967.04 304.98L967.01 316.01L990.51 315.51V294.51L967.07 293.94L967.04 304.98ZM485.51 300.36L480.51 304.66C516.93 335.15 527.96 343.99 528.51 343.97C529.06 343.96 532.21 340.55 535.51 336.4C538.81 332.24 542.07 328.44 542.76 327.93C543.61 327.31 545.85 328.3 549.76 331.03C553.97 333.97 555.71 334.71 556.24 333.78C556.65 333.08 556.99 329.82 557.01 326.52C557.04 321.04 556.76 320.23 553.78 317.28C551.98 315.5 550.17 314.04 549.76 314.03C549.35 314.02 547.66 316.27 546.01 319.02C544.36 321.77 542.78 324.02 542.51 324.02C542.23 324.02 536.5 320.94 529.76 317.19C523.02 313.43 511.77 307.13 504.76 303.19C497.75 299.24 491.67 296.02 491.26 296.04C490.85 296.05 488.26 297.99 485.51 300.36ZM994.04 345.99L994.01 393.02L1023.51 392.52V299.52L994.06 298.96L994.04 345.99ZM1113.6 306.77C1114.34 309.93 1114.96 312.86 1114.98 313.27C1115 313.68 1123.57 314.02 1134.02 314.02C1152.8 314.02 1153.03 313.99 1153.87 311.77C1154.34 310.53 1155.02 307.61 1155.37 305.27L1156.02 301.02H1112.25L1113.6 306.77ZM908.58 313.29C908.37 313.99 908.27 325.57 908.36 339.04L908.52 363.52L933.02 364.02V312.02C912.14 312.02 908.87 312.35 908.58 313.29ZM1027.02 329.02V341.02H1040.02V317.02H1027.02V329.02ZM1105.7 325.29C1100.85 329.27 1097.25 332.86 1097.7 333.28C1098.15 333.7 1100.32 334.48 1102.52 335.01C1104.72 335.54 1107.75 335.98 1109.27 335.99C1111.64 336.02 1112.52 335.1 1115.68 329.27C1117.7 325.56 1119.95 321.51 1120.68 320.27C1121.97 318.1 1121.89 318.02 1118.27 318.04C1115.11 318.06 1113.12 319.21 1105.7 325.29ZM1120.67 327.27C1116.97 333.56 1115.59 336.75 1116.37 337.25C1117 337.66 1124.15 337.99 1132.27 338C1142.64 338.01 1150.5 337.42 1158.77 335.98C1165.23 334.87 1170.86 333.63 1171.29 333.23C1171.71 332.84 1168.11 329.27 1163.29 325.3L1154.52 318.09L1126.12 318.02L1120.67 327.27ZM967.01 322.52V326.02H990.01V319.02H967.01V322.52ZM937.01 358.02V393.02H953.01V323.02H937.01V358.02ZM560.43 335.01L559.51 343.12C554.09 339.19 552.38 338.15 552.22 338.28C552.06 338.41 554.57 343.02 557.81 348.52C561.05 354.02 565.51 361.67 567.72 365.52C570.47 370.31 574.13 380.1 579.29 396.52C583.44 409.72 587.33 423.89 587.93 428.02C588.53 432.14 589.7 443.17 590.53 452.52C591.36 461.87 592.14 469.55 592.27 469.6C592.4 469.64 597.12 470.99 602.76 472.6C609.96 474.65 613.01 475.97 612.99 477.02C612.963 478.02 615.377 479.257 620.23 480.73C624.24 481.95 628.64 483.22 630.01 483.57C632.31 484.14 632.68 483.73 634.66 478.36C635.84 475.15 639.3 465.54 642.34 457.02C647.17 443.47 647.7 441.27 646.55 439.52C645.82 438.42 641.22 430.32 636.32 421.52C631.42 412.72 621.59 394.72 614.49 381.52L601.58 357.52C582.77 339.04 578.21 335.44 571.86 332.02C567.27 329.54 563.03 327.38 562.43 327.22C561.78 327.03 561 330.09 560.43 335.01ZM1043.7 327.77C1043.47 328.18 1043.34 342.92 1043.4 360.52L1043.51 392.52L1063.01 393.02V327.02C1048.36 327.02 1043.92 327.36 1043.7 327.77ZM967.01 361.02V393.02H990.01C990.42 388.76 990.43 374.36 990.3 358.27L990.07 329.02H967.01V361.02ZM748.01 348.02V360.02H772.01V336.02H748.01V348.02ZM1094.97 339.54C1094.99 341.45 1095.49 346.28 1096.08 350.27C1096.66 354.26 1098.28 361.34 1099.67 366.02C1101.06 370.69 1103.94 377.89 1106.08 382.02C1108.21 386.14 1112.13 392.22 1114.78 395.52C1117.43 398.82 1120.71 402.07 1122.06 402.75C1123.56 403.51 1128.85 403.99 1135.76 404L1147.01 404.02C1154.94 395.11 1158.87 389.59 1160.85 386.02C1162.83 382.44 1165.63 376.59 1167.08 373.02C1168.53 369.44 1170.45 363.14 1171.36 359.02C1172.27 354.89 1173.35 348.07 1173.76 343.85L1174.51 336.18C1169.93 337.24 1168.37 338.45 1167.87 339.77C1167.4 341.01 1166.56 342.02 1166.01 342.02C1165.46 342.02 1164.67 341.29 1164.26 340.4C1163.59 338.95 1162.66 338.92 1155.01 340.09C1150.34 340.81 1140.21 341.37 1132.51 341.34C1123.85 341.3 1114.88 340.62 1109.01 339.55C1103.79 338.6 1098.48 337.43 1097.22 336.95C1095.11 336.13 1094.94 336.33 1094.97 339.54ZM1027.01 360.02V376.02H1040.01V344.02H1027.01V360.02ZM908.36 369.38C908.02 370.13 907.92 373.39 908.13 376.63C908.5 382.33 908.61 382.53 911.51 382.86C913.16 383.05 918.67 382.94 923.76 382.61L933.01 382.02V368.02C911.8 368.02 908.82 368.34 908.36 369.38ZM1027.01 386.02V393.02H1040.01V379.02H1027.01V386.02ZM679.76 384.71C673.54 384.99 672.9 385.23 671.62 387.77C670.85 389.28 667.43 398.39 664.01 408.02C660.59 417.64 654.97 433.39 651.52 443.02C648.07 452.64 641.4 471.32 636.68 484.52C631.97 497.72 627.83 509.64 627.49 511.02C627.06 512.72 627.5 514.31 628.85 516.02L630.83 518.52C783.97 519.04 788.75 518.95 790.62 517.29C791.71 516.31 794.23 510.79 796.21 505.02C798.19 499.24 803.64 483.49 808.31 470.02C812.98 456.54 820.27 435.62 824.5 423.52C828.73 411.42 832.88 399.27 833.72 396.52C834.56 393.77 835 390.39 834.7 389.02C834.39 387.64 832.99 385.96 831.58 385.27C829.59 384.3 813.05 384.06 757.76 384.21C718.57 384.32 683.47 384.55 679.76 384.71ZM908.19 389.27L908.51 392.52L933.01 393.02V386.02H907.87L908.19 389.27ZM1124.04 409.49L1124.01 412.02C1146.85 412.02 1147.01 411.99 1146.76 409.77C1146.52 407.6 1146.09 407.51 1135.29 407.24L1124.08 406.95L1124.04 409.49ZM1110.25 415.65C1108.62 415.92 1108 416.71 1108 418.53V421.03L1159.5 420.53V415.53C1123.08 415.34 1111.49 415.45 1110.25 415.65ZM39.07 510.96L39 572.03C107.42 572.61 112.07 572.86 116.5 574.48C119.25 575.49 123.42 577.6 125.75 579.17C128.09 580.74 130.23 582.03 130.5 582.03C130.78 582.03 131 555.03 131 522.03V462.03C124.42 456.66 119.8 454.08 116.5 452.83C110.74 450.65 109.09 450.55 74.82 450.22L39.14 449.89L39.07 510.96ZM155 451.42C151.98 452.09 147.93 453.46 146 454.47C144.08 455.48 140.82 457.59 138.75 459.16L135 462.03V583.03C141.59 578.31 145.98 575.96 149 574.77C154.24 572.7 156.24 572.58 191.25 572.31L228 572.03V450.03C171.67 450.17 158.68 450.6 155 451.42ZM1086.24 462.86C1072.9 469.28 1062.32 474.85 1062.74 475.24C1063.16 475.62 1074.08 480.96 1087 487.1C1099.93 493.23 1113.88 499.8 1118 501.7L1125.5 505.16C1147.2 494.89 1158.45 489.52 1164.5 486.59L1175.5 481.28C1149.15 468.53 1138.13 463.24 1134 461.31C1129.88 459.38 1123.24 456.27 1119.25 454.41C1115.27 452.55 1111.67 451.07 1111.25 451.11C1110.84 451.16 1099.59 456.45 1086.24 462.86ZM350 464.74C348.63 464.98 341.99 466.27 335.25 467.6C328.52 468.94 320.08 470.03 316.5 470.03H310C315.04 477.2 318.98 481.14 322 483.41C325.02 485.67 329.41 489.44 331.75 491.78L336 496.03C338.78 490.99 341.33 488.18 343.45 486.53C345.58 484.88 349.33 481.73 351.79 479.53C354.25 477.33 357.55 473.62 359.13 471.28C360.71 468.94 361.78 466.35 361.5 465.53C361.15 464.48 359.73 464.07 356.75 464.16C354.42 464.24 351.38 464.5 350 464.74ZM1052.59 478.69C1050.43 479.54 1048.73 480.53 1048.8 480.88C1048.87 481.24 1051.76 482.96 1055.22 484.71C1058.67 486.45 1072.53 493.1 1086 499.48C1099.48 505.85 1111.07 511.06 1111.75 511.05C1112.44 511.04 1114.59 510.24 1116.52 509.28C1118.46 508.32 1120.05 507.3 1120.05 507.03C1120.05 506.75 1115.65 504.42 1110.28 501.85C1104.9 499.27 1090.94 492.64 1079.25 487.1C1067.57 481.56 1057.67 477.05 1057.25 477.08C1056.84 477.11 1054.74 477.83 1052.59 478.69ZM608.09 492.28C605.2 501.06 605.13 501.62 606.77 503.32C607.72 504.3 609.85 505.51 611.5 506.01C613.15 506.5 616.7 507.05 619.37 507.22L624.25 507.53C629.79 492.92 631.19 488.56 630.95 488.41C630.7 488.26 626.57 486.99 621.75 485.58C616.94 484.18 612.59 483.03 612.07 483.03C611.56 483.03 609.77 487.19 608.09 492.28ZM269 502.95C267.19 504.81 266.13 506.99 266.08 508.95C266.03 510.86 266.92 513.07 268.42 514.78C270.19 516.8 271.76 517.53 274.34 517.53C276.71 517.53 278.68 516.72 280.45 515.03C282.23 513.32 283.05 511.5 283.03 509.28C283.01 507.49 282.67 505.29 282.25 504.39C281.84 503.48 280.27 502.13 278.75 501.39C277.24 500.64 275.07 500.03 273.93 500.03C272.78 500.03 270.57 501.34 269 502.95ZM392.75 501.57C391.24 502.37 389.55 504.38 389 506.03C388.333 508.03 388.333 510.03 389 512.03C389.58 513.76 391.27 515.66 393 516.53C394.67 517.36 397.34 517.81 399 517.53C400.71 517.24 402.88 515.84 404.04 514.28C405.16 512.77 406.06 510.29 406.04 508.78C406.02 507.09 404.85 504.87 403 503.03C401.35 501.38 398.99 500.05 397.75 500.07C396.52 500.09 394.27 500.76 392.75 501.57ZM554 510.53V515.03C611.03 515.03 612.99 515.14 612.74 516.78C612.5 518.39 610.21 518.55 583.24 518.78C560.67 518.97 554 519.31 553.97 520.28C553.95 520.97 554.85 522.77 555.97 524.28C557.09 525.79 559.35 527.7 561 528.53C563.61 529.83 577.78 530.03 669.75 530.05L775.5 530.07C779.74 525.77 780.98 524.19 780.99 523.78C780.99 523.37 747.7 523.03 707 523.03C643.45 523.03 632.51 522.82 629.5 521.53C627.15 520.52 625.44 518.8 624.28 516.28C623.34 514.22 622.55 512.45 622.53 512.35C622.52 512.25 619.58 511.68 616 511.08C612.43 510.49 608.15 509.17 606.5 508.14C603.98 506.58 603.35 506.51 602.5 507.68C601.65 508.88 598.84 508.87 583 507.56C572.83 506.73 562.14 506.04 559.25 506.03H554V510.53ZM1040.87 532.63C1039.71 533.98 1039.74 534.63 1041.04 536.88C1041.89 538.34 1043.15 539.53 1043.85 539.53C1044.56 539.53 1045.89 538.33 1046.82 536.86C1048.32 534.48 1048.34 534.01 1047 532.56C1046.18 531.67 1044.77 530.96 1043.87 530.98C1042.96 531.01 1041.61 531.75 1040.87 532.63ZM827.75 542.73L820 543.03V565.03H907C907 543.43 906.92 543.01 904.75 542.54C903.52 542.27 887.43 542.14 869 542.24C850.58 542.35 832.02 542.56 827.75 542.73ZM444.16 552.87L444 557.03C494.14 557.73 502.19 558.2 508 559.52C512.13 560.46 517.87 562.08 520.75 563.13C523.86 564.25 527.45 566.56 529.54 568.78C531.49 570.84 533.51 573.99 534.04 575.78C534.71 578.04 535.61 579.03 537 579.03C538.333 579.03 539 579.697 539 581.03C539 582.13 539.9 584.38 541 586.03C542.62 588.46 543.71 589.03 546.75 589.05C549.37 589.07 551.16 588.39 552.68 586.8C553.88 585.55 555.12 583.4 555.44 582.03C555.76 580.65 556.92 579.19 558.01 578.78C559.26 578.31 560.42 576.43 561.12 573.78C561.75 571.34 563.58 568.25 565.4 566.53C567.14 564.88 570.12 562.76 572.03 561.82C573.94 560.89 579.1 559.13 583.5 557.92C590.68 555.95 594.42 555.69 619.75 555.38L648 555.03L647.5 549.53C609.91 549.81 597.12 550.46 589.5 551.49C582.9 552.38 574.13 554.02 570 555.14C565.88 556.25 560.29 558.37 557.59 559.85C554.88 561.32 551.85 563.88 550.84 565.53C549.75 567.32 549.01 570.44 549.01 573.28C549 576.4 548.58 578.03 547.75 578.04C547.02 578.05 546.21 576.07 545.8 573.29C545.28 569.79 544.23 567.67 541.8 565.27C539.88 563.38 535.58 560.95 531.5 559.45C527.65 558.04 520.45 556.05 515.5 555.03C510.55 554 500.2 552.48 492.5 551.63C484.8 550.79 470.81 549.79 461.41 549.41L444.32 548.72L444.16 552.87ZM596 559.04C592.43 559.46 586.58 560.54 583 561.46C579.43 562.37 574.59 564.22 572.25 565.57C569.91 566.92 567.1 569.49 566.01 571.27C564.91 573.06 564.01 575.54 564.01 576.77L564 579.02H648V568.02C631.67 568.02 630 567.75 630 566.52C630 565.32 631.75 564.97 638.75 564.77C647.26 564.53 647.51 564.46 647.81 562.02C648.09 559.75 647.69 559.46 643.31 558.77C640.67 558.35 630.4 558.07 620.5 558.15C610.6 558.23 599.58 558.63 596 559.04ZM444.48 561.52C444.22 562.35 444.23 563.47 444.5 564.02C444.78 564.57 448.15 565.02 452 565.02C457.56 565.02 459 565.33 459 566.52C459 567.72 457.5 568.02 451.5 568.02H444L444.5 578.52C521.82 578.97 531 578.76 531 577.77C531 577.09 530.17 575.17 529.17 573.52C528.16 571.87 525.12 569.33 522.42 567.86C519.71 566.39 514.8 564.5 511.5 563.66C508.2 562.82 500.78 561.65 495 561.07C489.23 560.49 475.6 560.01 464.73 560.02C448.03 560.02 444.88 560.26 444.48 561.52ZM1055.75 561.57C1054.24 562.37 1052.55 563.92 1052 565.02C1051.45 566.12 1051 568.82 1051 571.02C1051 574.14 1051.67 575.69 1054 578.02C1056.41 580.43 1057.84 581.02 1061.25 580.99C1063.59 580.98 1066.2 580.41 1067.05 579.74C1067.9 579.07 1069.36 577.4 1070.31 576.02C1071.25 574.65 1072.01 572.06 1072.01 570.27C1072 567.9 1071.06 566.08 1068.5 563.52C1065.9 560.93 1064.16 560.04 1061.75 560.07C1059.96 560.09 1057.26 560.76 1055.75 561.57ZM1073.04 563.27C1074.89 565.91 1075.24 567.5 1074.91 571.66C1074.65 574.96 1073.79 577.55 1072.5 578.94L1070.5 581.09L1130 581.02V560.02H1111C1111 571.36 1110.78 572.02 1109 572.02C1107.22 572.02 1107 571.36 1107 566.02V560.02H1070.76L1073.04 563.27ZM1133 570.52V581.02H1168C1171.54 575.42 1172.02 573.28 1171.77 570.02C1171.58 567.55 1170.66 564.29 1169.71 562.77L1168 560.02H1133V570.52ZM1097 594.02V603.02C1101.26 600.12 1103.17 598.53 1104 597.61C1104.82 596.69 1105.84 595.96 1106.25 595.98C1106.66 596 1109.04 597.94 1111.54 600.27L1116.08 604.52L1116 585.02H1097V594.02ZM264 600.52V605.02H411V596.02H264V600.52Z" fill="#FFF6E2"/>
<path fill-rule="evenodd" clip-rule="evenodd" d="M1132.96 42.63C1131.77 44.08 1130.84 46.33 1130.9 47.63C1130.95 48.94 1132.35 51.35 1134 53C1135.65 54.65 1138.01 56.02 1139.25 56.03C1140.49 56.05 1142.74 55.15 1144.25 54.03C1146.54 52.34 1147 51.25 1147 47.5C1147 43.95 1146.53 42.68 1144.75 41.49C1143.51 40.66 1140.84 39.99 1138.82 39.99C1136.06 40 1134.59 40.66 1132.96 42.63ZM956 111.5C956 117.28 955.77 122.67 955.5 123.5C955.09 124.74 952.44 125 940 125H925C925.75 128.49 925.98 134.11 925.99 139.75C926 149.33 926.13 150 928 150C929.88 150 930 149.33 930 139V128H983C983 149.33 983.12 150 985 150C986.88 150 987 149.33 987 139C987 132.33 987.39 128 988 128C988.55 128 989 127.32 989 126.5C989 125.23 986.67 125 974 125H959V115C969.85 115 973 114.78 973 114.5C973 114.22 972.33 112.87 971.5 111.5C970.17 109.28 970.17 108.67 971.5 106L973 103C962 103 959 102.57 959 102C959 101.45 958.33 101 957.5 101C956.26 101 956 102.83 956 111.5ZM936.06 140.45C936.01 146.52 936.29 148 937.5 148C938.63 148 939.06 146.59 939.25 142.33C939.4 138.81 939.98 136.53 940.75 136.33C941.64 136.1 942 137.59 942 141.5C942 146.33 942.24 147 944 147C945.83 147 945.98 146.42 945.75 140.25L945.5 133.5L936.11 132.89L936.06 140.45ZM953.21 139.26C953.37 142.69 953.96 145.51 954.51 145.51C955.06 145.51 955.62 143.37 955.76 140.76C955.94 137.31 956.42 136.01 957.51 136.01C958.59 136.01 959.08 137.3 959.26 140.68C959.4 143.39 960.03 145.49 960.76 145.68C961.66 145.91 962.01 144.21 962.01 139.51V133.01H952.91L953.21 139.26ZM969.01 140.01C969.01 146.34 969.2 147.01 971.01 147.01C972.79 147.01 972.98 146.42 972.76 141.76C972.56 137.64 972.83 136.51 974.01 136.51C975.14 136.51 975.57 137.92 975.76 142.26C975.95 146.59 976.38 148.01 977.51 148.01C978.71 148.01 979.01 146.51 979.01 140.51V133.01H969.01V140.01ZM937.51 150.56C929.26 151.82 918.8 153.34 914.26 153.93L906.01 155.01V165.01H1009.01C1009.01 157.84 1008.5 155.8 1007.76 155.51C1007.07 155.24 995.48 153.43 982.01 151.5C968.53 149.57 956.38 148.05 955.01 148.13C953.63 148.21 945.76 149.3 937.51 150.56ZM919.48 176.83C917.82 178.49 917.66 180.47 917.83 198.33C917.98 215.07 918.23 218.01 919.51 218.01C920.79 218.01 921.01 215.17 921.01 198.51C921.01 186.51 921.39 178.81 922.01 178.51C922.56 178.23 923.7 178.57 924.55 179.26C925.85 180.3 926.09 183.52 926.05 199.26C926.02 213.78 926.29 217.93 927.26 217.67C928.19 217.42 928.57 212.49 928.76 198.17C928.99 180.16 928.89 178.89 927.01 177.01C925.91 175.91 924.17 175.01 923.16 175.01C922.14 175.01 920.48 175.83 919.48 176.83ZM986.48 176.42C984.64 177.74 984.49 179.23 984.26 197.92C984.02 217.42 984.07 218.01 986.01 218.01C987.93 218.01 988.02 217.26 988.26 198.26C988.47 181.48 988.73 178.51 990.01 178.51C991.28 178.51 991.55 181.48 991.76 198.26C991.99 216.42 992.15 217.98 993.76 217.74C995.36 217.49 995.51 215.76 995.51 197.66C995.51 178.99 995.39 177.76 993.51 176.41C992.41 175.62 990.82 174.98 989.98 174.99C989.14 175 987.57 175.64 986.48 176.42ZM941.01 180.01C941.01 182.67 941.34 183.01 944.01 183.01C946.17 183.01 947.15 182.45 947.51 181.01C947.78 179.91 947.78 178.56 947.51 178.01C947.23 177.46 945.66 177.01 944.01 177.01C941.34 177.01 941.01 177.34 941.01 180.01ZM954.01 180.01C954.01 182.67 954.34 183.01 957.01 183.01C959.67 183.01 960.01 182.67 960.01 180.01C960.01 177.34 959.67 177.01 957.01 177.01C954.34 177.01 954.01 177.34 954.01 180.01ZM967.01 180.01C967.01 182.67 967.34 183.01 970.01 183.01C972.67 183.01 973.01 182.67 973.01 180.01C973.01 177.34 972.67 177.01 970.01 177.01C967.34 177.01 967.01 177.34 967.01 180.01ZM951.01 189.08C949.63 189.66 947.67 190.89 946.65 191.82C945.63 192.75 943.94 195.19 942.9 197.26C941.49 200.06 941.01 203.15 941.01 209.51C941.01 216.39 941.29 218.01 942.51 218.01C943.72 218.01 944.06 216.18 944.26 208.57C944.5 199.6 944.66 198.98 947.51 196.02C949.16 194.31 952.08 192.42 954.01 191.82C956.92 190.91 958.17 191.05 961.44 192.62C963.61 193.66 966.31 195.78 967.44 197.34C969.1 199.61 969.56 201.92 969.76 209.09C969.96 216.24 970.31 218.01 971.51 218.01C972.72 218.01 973 216.45 972.95 209.76C972.92 205.22 972.36 199.97 971.7 198.1C971.05 196.23 968.93 193.41 967.01 191.85C964.55 189.85 962.02 188.86 958.51 188.51C955.76 188.24 952.38 188.49 951.01 189.08ZM943.51 335.67C943.05 336.04 942.75 343.91 942.84 353.17C943 369.28 943.09 370.01 945.01 370.01C946.93 370.01 947.01 369.34 947.01 352.51C947.01 338.59 946.74 335.01 945.67 335.01C944.94 335.01 943.97 335.31 943.51 335.67ZM1126.94 349.29C1124.82 350.7 1122.96 353.09 1122.08 355.54C1120.83 359 1120.83 360.02 1122.12 363.51C1123.04 365.98 1124.92 368.38 1127.05 369.78C1128.95 371.04 1131.75 372.05 1133.26 372.03C1134.77 372.02 1137.36 371.33 1139.01 370.51C1140.66 369.68 1142.91 367.54 1144 365.76C1145.1 363.97 1146 361.16 1146 359.51C1146 357.86 1145.1 355.04 1144 353.26C1142.91 351.47 1140.66 349.33 1139.01 348.51C1137.36 347.68 1134.74 347.01 1133.19 347.01C1131.64 347.01 1128.83 348.03 1126.94 349.29ZM595.02 357.26C595.02 357.94 598.83 370.43 603.48 385.01L611.94 411.51C615.87 454.13 617.23 468.42 617.51 470.76C617.85 473.64 618.49 475.01 619.51 475.01C620.33 475.01 621.21 474.67 621.45 474.26C621.7 473.84 621.04 464.28 619.99 453.01C618.94 441.73 617.6 427.56 617.02 421.51C616.12 412.07 614.73 406.62 607.24 383.23C600.18 361.19 598.17 355.97 596.76 355.98C595.8 356 595.01 356.57 595.02 357.26ZM974.51 361.34C973.41 362.09 971.87 364.23 971.09 366.1C970.12 368.45 969.88 371.21 970.33 375.01C970.78 378.75 971.71 381.23 973.25 382.78C974.69 384.24 976.68 385.05 978.76 385.03C981.22 385.01 982.63 384.21 984.56 381.76C986.81 378.89 987.08 377.72 986.81 371.84C986.56 366.34 986.07 364.72 984.01 362.57C982.6 361.09 980.42 359.96 979.01 359.97C977.63 359.98 975.61 360.6 974.51 361.34ZM1004.51 361.34C1003.41 362.09 1001.87 364.23 1001.1 366.1C1000.18 368.33 999.88 371.41 1000.23 375.01C1000.67 379.55 1001.31 380.98 1003.89 383.26C1005.6 384.77 1007.8 386.02 1008.76 386.05C1009.72 386.07 1011.54 385.28 1012.8 384.3C1014.05 383.31 1015.68 380.71 1016.4 378.51C1017.32 375.73 1017.47 372.97 1016.9 369.51C1016.34 366.11 1015.26 363.78 1013.54 362.26C1012.15 361.02 1010 360 1008.76 360C1007.52 359.99 1005.61 360.6 1004.51 361.34ZM1159.6 365.01C1159.26 366.15 1159.54 367.26 1160.26 367.61C1160.95 367.94 1161.96 367.74 1162.51 367.15C1163.06 366.56 1163.17 365.39 1162.76 364.54C1162.35 363.7 1161.6 363.01 1161.1 363.01C1160.61 363.01 1159.93 363.91 1159.6 365.01ZM1156.58 373.76C1156.25 374.72 1156.21 375.73 1156.49 376.01C1156.76 376.28 1157.67 376.17 1158.5 375.76C1159.33 375.34 1160.01 374.33 1160.01 373.51C1160.01 372.68 1159.37 372.01 1158.59 372.01C1157.81 372.01 1156.91 372.79 1156.58 373.76ZM1152.58 381.76C1152.25 382.72 1152.21 383.73 1152.49 384.01C1152.76 384.28 1153.67 384.17 1154.5 383.76C1155.33 383.34 1156.01 382.33 1156.01 381.51C1156.01 380.68 1155.37 380.01 1154.59 380.01C1153.81 380.01 1152.91 380.79 1152.58 381.76ZM1148.21 388.46C1147.55 389.31 1147.23 390.46 1147.51 391.01C1147.78 391.56 1148.46 392.01 1149.01 392.01C1149.56 392.01 1150.24 391.22 1150.53 390.26C1150.82 389.29 1150.68 388.15 1150.23 387.71C1149.78 387.28 1148.87 387.61 1148.21 388.46ZM1142.12 395.51C1141.51 396.33 1141.23 397.46 1141.51 398.01C1141.8 398.58 1142.84 398.27 1143.99 397.26C1145.08 396.29 1145.75 395.17 1145.49 394.76C1145.22 394.34 1144.61 394.01 1144.12 394.01C1143.63 394.01 1142.73 394.68 1142.12 395.51ZM737.01 436.81C734.53 437.71 731.27 439.7 729.76 441.23C727.77 443.24 727 445.04 726.96 447.76C726.92 450.84 727.59 452.13 730.71 455.04C733 457.18 736.49 459.13 739.51 459.95C742.62 460.8 747.16 461.13 751.51 460.82C755.85 460.51 760.12 459.5 762.76 458.16C765.1 456.98 767.93 454.54 769.05 452.76C770.42 450.57 770.91 448.52 770.56 446.51C770.26 444.83 768.54 442.18 766.67 440.51C764.82 438.86 761.56 436.95 759.41 436.27C757.26 435.59 752.36 435.07 748.51 435.1C744.66 435.14 739.48 435.9 737.01 436.81ZM53.01 488.51V509.01L121.51 508.51L121.83 468.01H53.01V488.51ZM148.01 477.51C148.01 478.81 152.45 479.01 182.01 479.01C211.56 479.01 216.01 478.81 216.01 477.51C216.01 476.2 211.56 476.01 182.01 476.01C152.45 476.01 148.01 476.2 148.01 477.51ZM49.46 522.24C49.1 522.94 49.18 523.84 49.65 524.25C50.12 524.66 66.71 524.88 86.51 524.75C117.73 524.54 122.51 524.31 122.51 523.01C122.51 521.7 117.7 521.47 86.32 521.24C57.98 521.04 49.99 521.25 49.46 522.24ZM148.01 522.51C148.01 523.81 152.45 524.01 182.01 524.01C211.56 524.01 216.01 523.81 216.01 522.51C216.01 521.2 211.56 521.01 182.01 521.01C152.45 521.01 148.01 521.2 148.01 522.51ZM149.01 536.51C149.01 537.44 149.95 538.01 151.51 538.01C153.06 538.01 154.01 537.44 154.01 536.51C154.01 535.57 153.06 535.01 151.51 535.01C149.95 535.01 149.01 535.57 149.01 536.51ZM158.01 536.51C158.01 537.45 158.8 537.91 160.18 537.76C161.37 537.62 162.5 536.94 162.68 536.26C162.88 535.5 162.02 535.01 160.51 535.01C158.95 535.01 158.01 535.57 158.01 536.51ZM167.09 536.44C167.03 537.487 167.753 537.927 169.26 537.76C170.5 537.62 171.51 537.06 171.51 536.51C171.51 535.96 170.53 535.36 169.34 535.19C167.92 534.98 167.14 535.41 167.09 536.44ZM176.01 536.51C176.01 537.45 176.8 537.91 178.18 537.76C179.37 537.62 180.5 536.94 180.68 536.26C180.88 535.5 180.02 535.01 178.51 535.01C176.95 535.01 176.01 535.57 176.01 536.51ZM49.01 545.01V554.01H120.01V536.01H49.01V545.01ZM148.01 550.51C148.01 551.81 152.45 552.01 182.01 552.01C211.56 552.01 216.01 551.81 216.01 550.51C216.01 549.2 211.56 549.01 182.01 549.01C152.45 549.01 148.01 549.2 148.01 550.51ZM863.01 554.51C863.01 555.51 864.01 556.01 866.01 556.01C868.01 556.01 869.01 555.51 869.01 554.51C869.01 553.51 868.01 553.01 866.01 553.01C864.01 553.01 863.01 553.51 863.01 554.51ZM470.49 566.19C470.15 566.91 470.02 568.41 470.2 569.51C470.43 570.88 471.31 571.51 473.02 571.51C475.12 571.51 475.51 571.03 475.51 568.51C475.51 566.18 475.01 565.43 473.31 565.19C472.1 565.01 470.83 565.46 470.49 566.19Z" fill="#0A0A0A"/>
<path d="M554.5 26.9999C554.23 26.4499 554.21 25.3199 554.48 24.4999C554.74 23.6799 555.3 22.9799 555.73 22.9599C556.15 22.9299 557.06 23.6099 557.75 24.4599C558.44 25.2999 558.77 26.4499 558.5 26.9999C558.23 27.5499 557.33 27.9999 556.5 27.9999C555.67 27.9999 554.77 27.5499 554.5 26.9999Z" fill="#FFF6E2"/>
<path d="M661.14 27.7999C660.39 27.0799 660.07 25.9399 660.44 25.2499C660.8 24.5599 661.75 23.9999 662.55 23.9999C663.35 23.9999 664.23 24.4499 664.5 24.9999C664.77 25.5499 664.44 26.6999 663.75 27.5499C662.72 28.8199 662.26 28.8699 661.14 27.7999Z" fill="#FFF6E2"/>
<path d="M1134.8 48.1999C1134.69 46.6599 1135.23 44.8599 1136 44.1999C1136.77 43.5399 1138.32 42.9899 1139.45 42.9799C1140.58 42.9699 1142.07 43.5399 1142.77 44.2299C1143.46 44.9299 1144.04 46.3999 1144.05 47.4999C1144.06 48.5999 1143.14 50.3999 1142.01 51.4999C1140.23 53.2299 1139.62 53.3299 1137.48 52.2499C1135.83 51.4166 1134.94 50.0666 1134.8 48.1999Z" fill="#FFF6E2"/>
<path d="M962.75 112C959.25 112 959 111.8 959 109C959 106.19 959.24 106 962.83 106C966.44 106 966.66 106.17 966.58 109C966.51 111.79 966.23 112 962.75 112Z" fill="#FFF6E2"/>
<path d="M913.09 157.5C915.51 157.15 925.83 155.61 936 154.07C946.17 152.53 954.95 151.21 955.5 151.14C956.05 151.08 967.19 152.59 980.25 154.51C993.31 156.43 1004.23 158 1004.5 158C1004.77 158 1005 158.9 1005 160C1005 161.97 1004.33 162 957 162C910.23 162 909 161.95 908.84 160.06C908.7 158.49 909.52 158 913.09 157.5Z" fill="#FFF6E2"/>
<path d="M1124.43 358.5C1124.78 356.85 1126.26 354.26 1127.72 352.75C1129.26 351.15 1131.44 350 1132.93 350C1134.34 350.01 1136.96 350.91 1138.75 352C1140.99 353.38 1142.18 355.01 1142.58 357.25C1142.91 359.09 1142.58 361.75 1141.83 363.39C1141.1 364.97 1139.26 366.89 1137.75 367.64C1136.24 368.39 1133.65 368.77 1132 368.5C1130.21 368.2 1127.95 366.69 1126.4 364.75C1124.37 362.22 1123.94 360.84 1124.43 358.5Z" fill="#FFF6E2"/>
<path d="M973.5 373C973.5 368.73 974 366.66 975.4 365.11C976.44 363.95 978.13 363 979.15 363C980.17 363 981.67 364.12 982.5 365.5C983.33 366.87 984.02 370.14 984.03 372.75C984.06 376 983.43 378.37 982.03 380.25C980.92 381.76 979.44 383.01 978.75 383.03C978.06 383.05 976.6 382.1 975.5 380.93C973.98 379.3 973.5 377.41 973.5 373Z" fill="#FFF6E2"/>
<path d="M1002.93 372.2C1002.89 370.39 1003.58 367.57 1004.45 365.95C1005.55 363.9 1006.8 363 1008.52 363C1010.16 363 1011.55 363.93 1012.64 365.75C1013.84 367.77 1014.14 369.96 1013.76 374C1013.36 378.25 1012.7 379.91 1010.87 381.3C1009.57 382.28 1008.05 382.93 1007.5 382.74C1006.95 382.54 1005.71 380.83 1004.75 378.94C1003.79 377.05 1002.97 374.02 1002.93 372.2Z" fill="#FFF6E2"/>
<path d="M732.71 444.21C733.69 442.95 736.3 441.26 738.5 440.45C741.13 439.47 745.06 439.09 750 439.32C754.39 439.52 758.85 440.35 760.75 441.33C762.54 442.25 764.67 444.12 765.5 445.5C766.83 447.72 766.83 448.28 765.5 450.5C764.67 451.87 762.54 453.74 760.75 454.65C758.96 455.56 754.58 456.52 751 456.79C747.16 457.08 742.86 456.76 740.5 456.02C738.3 455.32 735.25 453.58 733.73 452.13C732.2 450.68 730.95 448.82 730.94 448C730.92 447.18 731.72 445.47 732.71 444.21Z" fill="#FFF6E2"/>
<path d="M56.5 505.5L56.23 488.25L55.95 471H118.78L118.5 505.5H56.5Z" fill="#FFF6E2"/>
<path d="M53.01 551V545V539H116.01V551H53.01Z" fill="#FFF6E2"/>
</g>
</svg>
