<svg xmlns="http://www.w3.org/2000/svg" width="1208" height="505" fill="none" viewBox="0 0 1208 505"><g opacity=".12"><path fill="#fff6e2" fill-rule="evenodd" d="M10 0h1198v613H924v-46l2.75-1.11c1.51-.62 7.7-1.11 13.75-1.11 8.49.01 12.6.52 18 2.2 3.85 1.21 10.38 4.01 14.5 6.23 4.13 2.22 8.96 5.22 10.75 6.66 1.79 1.45 3.25 2.97 3.25 3.38s-11.02.75-24.5.75c-21.11 0-24.5.21-24.5 1.5 0 1.31 5.94 1.5 47.5 1.5s47.5-.19 47.5-1.5c0-1.28-2.93-1.5-40.5-1.57l-4.5-4.27c-2.48-2.35-7.65-6.12-11.5-8.38s-10.6-5.28-15-6.71c-4.4-1.44-8.56-2.6-9.25-2.59-.76.01-1.01-.67-.64-1.73.33-.96 5.31-15.7 11.06-32.75 10.09-29.94 10.58-31.11 14.39-34.25 2.4-1.98 4.38-4.72 5.07-7 .62-2.06.87-5.77.56-8.25s-1.43-5.63-2.48-7c-1.06-1.38-3.45-3.38-5.31-4.47-1.87-1.08-4.81-2.2-6.52-2.5-2.39-.4-9.42-6.55-29.79-26.03-14.67-14.02-26.65-26.06-26.63-26.75s-1.09-2.6-2.46-4.25c-1.44-1.73-3.88-3.26-5.75-3.6-1.79-.34-4.38-.26-5.75.17-1.38.42-4.41 2.49-11 8.43l-5.25-1.65c-3.82-1.2-7.7-1.54-14.25-1.24-7.59.35-10.02.92-15.5 3.6-3.9 1.92-8.7 5.43-17.5 14.4l4.01 3.69c2.21 2.04 6.53 5.95 9.59 8.7 4.5 4.04 5.42 5.38 4.81 7-.42 1.1-.8 3.35-.84 5-.03 1.65.84 4.46 1.93 6.25 1.1 1.79 3.46 3.98 5.25 4.86 1.99.99 4.61 1.42 6.75 1.12 1.92-.28 4.4-.79 5.5-1.15 1.56-.5 4.38 1.47 12.75 8.89 5.91 5.24 11.2 9.53 11.75 9.53s2.54-1.91 4.42-4.25c1.89-2.34 4.58-6.73 5.98-9.75 1.41-3.02 3.05-7.98 3.66-11 .81-4.05.8-7.35-.04-12.5-.63-3.85-2.13-9.14-3.33-11.76-1.21-2.61-1.96-4.95-1.69-5.2.27-.24 10.98 9.78 47.09 44.96l-1.05 3.5c-.57 1.93-1.04 4.74-1.04 6.25s.9 4.55 2 6.75 3.01 4.68 6.5 7.01l-11 32.57c-6.3 18.67-11.64 32.91-12.5 33.36-.83.43-3.64 1.07-11 2.06v-37l-19.25-.56c-10.59-.31-38.15-.42-103.25.06L801 613H10zm794 529h117v84h-11v-32l-5.25-.55c-2.89-.3-23.92-.41-88.25.05L816 613h-12zm85 55h18v29h-18zm-51 21v8h-18v-3.5c0-3.07.34-3.54 2.75-3.85 1.51-.19 5.56-.42 15.25-.65m23.5.5.5 7.5h-21l-.17-3.33c-.09-1.84.23-3.65.7-4.04.48-.38 5.17-.57 19.97-.13m7.25-.51c2.06 0 6.57.34 10.01.75 6.25.76 6.26.77 6.24 7.26h-20v-4c0-3.95.04-4 3.75-4.01" clip-rule="evenodd"/><path fill="#0a0a0a" fill-rule="evenodd" d="M1064.5 24.59c-4.4.77-11.6 2.52-16 3.87-4.4 1.36-11.6 4.2-16 6.33-4.4 2.12-11.38 6.13-15.5 8.9-4.13 2.78-10.65 7.97-14.5 11.53s-9.02 9.04-11.5 12.17c-3.62 4.59-4.25 5.93-3.21 6.9 1.02.96 1.84.49 3.96-2.29 1.47-1.92 5.68-6.65 9.37-10.5 3.68-3.85 10.22-9.55 14.54-12.66 4.31-3.12 11.44-7.45 15.84-9.64 4.4-2.18 11.15-5.09 15-6.47s11.05-3.27 16-4.19c4.95-.93 12.6-1.93 17-2.24 5.1-.35 12.17.06 19.5 1.13 6.33.92 13.64 2.33 16.25 3.12 3.75 1.15 4.88 1.19 5.36.2.33-.69.22-1.52-.25-1.85s-3.56-1.31-6.86-2.18-9.26-2.06-13.25-2.65-11.86-1.03-17.5-.98-13.85.72-18.25 1.5m68 4.97c-2.2.84-5.07 2.52-6.38 3.73-1.31 1.22-3.21 4.01-4.23 6.21s-1.87 5.35-1.89 7 .67 5.02 1.53 7.5 2.98 6.75 4.71 9.5 4.41 6.69 5.95 8.75c2.46 3.28 2.65 4.03 1.56 6-.69 1.24-1.81 3.04-2.5 4s-1.03 2.2-.75 2.75 1.06.8 1.75.56 2.26.21 3.5 1 3.38 1.22 4.75.94c1.38-.28 3.29-1.68 4.25-3.12 1.48-2.22 1.57-3.1.54-5.75-1.15-2.98-.93-3.53 4.57-11.63 3.18-4.67 6.37-10.3 7.09-12.5s1.14-6.51.93-9.57c-.27-4.02-1.1-6.52-2.96-9-1.41-1.89-4.11-4.2-6-5.14-1.88-.94-5.45-1.94-7.92-2.23-2.82-.33-6 .05-8.5 1M1029.48 55.5c-.27.83 1.21 3.97 3.27 6.99 2.96 4.33 4.43 5.6 7 6 1.79.28 4.6 1.64 6.25 3.01 2.56 2.14 3 3.19 2.99 7.25 0 2.61-.73 6.1-1.61 7.75-.89 1.65-1.7 5.47-1.8 8.5s-.68 6.4-1.28 7.5-2.04 2.9-3.18 4c-1.15 1.1-1.87 2.34-1.6 2.75.26.41 1.15.75 1.98.75s2.86-1.91 4.53-4.25c2.46-3.46 3.02-5.23 3-9.5-.02-2.89.64-6.6 1.47-8.25s1.77-4.69 2.1-6.75c.39-2.43.04-5.07-1-7.5-.88-2.06-3.06-4.67-4.85-5.79s-4.51-2.36-6.06-2.75c-1.88-.48-3.94-2.44-6.25-5.96-1.89-2.89-3.68-5.25-3.96-5.25-.29 0-.74.67-1 1.5m135.26.83c-.54 1.22.83 3.37 5.03 7.92 3.17 3.44 7.61 8.95 9.87 12.25 2.27 3.3 5.94 9.6 8.16 14 2.23 4.4 5.22 11.6 6.65 16s3.26 11.83 4.07 16.5c.81 4.68 1.47 13.22 1.48 19 0 5.78-.63 14.1-1.41 18.5-.77 4.4-2.18 10.7-3.13 14s-3.5 10.05-5.65 15-6.47 12.82-9.6 17.5c-3.12 4.68-9.51 12.33-14.19 17.01-4.69 4.69-12.12 10.97-16.52 13.96s-11.6 7.12-16 9.17-11.83 4.83-16.5 6.19-12.33 3.03-17 3.72c-5.45.8-13.16 1.02-21.5.63q-13.005-.61-22.5-3.02c-5.22-1.32-12.87-3.81-17-5.53-4.12-1.72-10.42-4.89-14-7.06-3.96-2.39-6.89-3.58-7.5-3.04-.65.58-.48 1.45.5 2.51.83.9 6.9 4.28 13.5 7.53 6.88 3.37 16.27 7.03 22 8.56 8.37 2.25 12.69 2.75 26.5 3.12 12.96.34 18.43.06 25.5-1.3 4.95-.96 12.83-3.07 17.5-4.69 4.67-1.63 12.1-4.82 16.5-7.1s11.38-6.67 15.5-9.75c4.13-3.07 11.11-9.38 15.53-14 4.42-4.63 9.43-10.44 11.13-12.91s5.16-8.32 7.68-13c2.51-4.68 5.73-11.88 7.15-16 1.41-4.13 3.45-11.89 4.54-17.25 1.32-6.56 1.97-13.76 1.97-22 0-6.74-.67-16.08-1.48-20.75s-2.64-12.1-4.06-16.5-4.59-12.05-7.04-17c-2.44-4.95-7.32-12.83-10.84-17.5s-8.13-10.26-10.25-12.42c-3.25-3.31-3.96-3.66-4.59-2.25m-54.03 4.42c-.34.41-.15 1.87.42 3.25.58 1.37 2.36 3.96 3.96 5.75s2.9 3.59 2.89 4c-.02.41-1.48 3.55-3.25 6.97-2.87 5.54-3.12 6.64-2.23 9.98.63 2.38 1.91 4.21 3.5 5.01 1.38.69 4.3 1.28 6.5 1.3 3.23.03 4.57.67 7 3.36 2.48 2.75 4.21 3.54 10 4.63 5.7 1.07 7.6 1.94 10.25 4.66 2.2 2.26 3.25 4.31 3.25 6.34q0 3-2.25 4.49c-1.24.82-3.83 1.77-5.75 2.11s-6.2.07-9.5-.59c-5.37-1.08-6.55-1.8-11.28-6.86l-5.27-5.65c-6.55 1.86-12.73 3.79-17.95 5.49-5.22 1.69-10.62 3.63-12 4.31-1.37.68-3.29 2.81-4.26 4.72s-3.36 5.05-5.31 6.98c-3.42 3.37-3.57 3.82-4.11 12.5-.35 5.8-.11 10.6.7 13.5.83 3.02 2.93 6.27 6.36 9.86l5.12 5.37c10.08-.97 15.92-1.52 19.5-1.85 5.62-.51 6.67-.34 7.77 1.26.69 1.02 1.24 2.98 1.22 4.36-.02 1.37.98 3.45 2.23 4.6 1.26 1.16 3.07 2.39 4.03 2.75 1.49.55 1.66 1.52 1.18 6.4-.33 3.29-.09 7.03.55 8.75.62 1.65 2.33 4.28 3.82 5.83 1.48 1.56 4.05 4.17 5.7 5.8 1.68 1.66 4.54 3.22 6.5 3.54 1.92.32 5.3 0 7.5-.69 2.79-.88 6.21-3.57 11.31-8.87 4.03-4.19 7.51-8.4 7.75-9.36s-.01-3.44-.55-5.5c-.55-2.06-1-4.2-1-4.75-.01-.55 2.69-3.93 5.99-7.5s6.68-7.96 7.5-9.75c.83-1.79 1.52-3.81 1.53-4.5.02-.69-.88-2.49-2-4-1.32-1.79-3.99-3.36-7.62-4.5-3.08-.96-6.34-2.58-7.25-3.6-1.13-1.26-1.63-3.51-1.56-7 .05-2.83.61-6.16 1.25-7.4.63-1.24 2.05-2.25 3.15-2.25s2.34.56 2.75 1.25 1.44 3.05 2.28 5.25c.85 2.2 2.65 4.58 4 5.3 1.53.8 4.56 1.13 7.97.86 3.03-.25 6.75-1.06 8.28-1.8 1.53-.75 2.61-1.81 2.39-2.36-.21-.55-1.47-.8-2.78-.56-1.31.25-5.31.47-8.88.5l-6.49.06c-2.05-6.2-3.4-8.8-4.33-9.78-.97-1.02-3.08-1.77-4.94-1.75-2.08.02-3.97.84-5.25 2.28-1.11 1.24-2.29 4.28-2.63 6.75-.33 2.47-.35 6.07-.02 8 .32 1.93 1.72 4.51 3.12 5.75 1.39 1.24 4.44 2.74 6.78 3.34s5.05 1.84 6.03 2.75 1.79 2.56 1.79 3.66-1 3.35-2.22 5-4.47 5.47-7.21 8.5c-4.63 5.11-4.94 5.78-4.42 9.5.31 2.2.83 4.79 1.17 5.75.43 1.24-1.2 3.67-5.64 8.37-3.44 3.64-8.05 7.52-10.25 8.61-3.4 1.7-4.56 1.83-7.75.88-2.06-.61-4.54-2.27-5.5-3.69s-3-3.79-4.53-5.25c-2.54-2.45-2.78-3.28-2.75-9.92.02-3.99-.42-8.15-.97-9.25s-1.67-2-2.5-2-2.08-.56-2.78-1.25-1.57-3.05-1.93-5.25c-.37-2.2-1.43-4.68-2.37-5.5-1.21-1.05-3.54-1.43-7.82-1.25-3.35.13-7.68.69-9.6 1.25-1.92.55-4.85 1.01-6.5 1.01-2.29.01-4.19-1.19-8-5.03l-5-5.05-.55-22.43c6.24-6.59 8.05-9.18 8.05-10 0-.83.58-2.06 1.28-2.75.71-.69 4.65-2.32 8.75-3.63 4.11-1.31 9.61-3.22 12.22-4.25s5.65-1.87 6.75-1.87 4.14 2.2 6.75 4.89c3.85 3.96 5.74 5.1 10 6 2.89.61 6.94 1.11 9 1.1 2.06 0 5.44-.45 7.5-1 2.06-.54 4.43-2 5.26-3.24s1.5-3.94 1.5-6c-.01-2.27-.9-5.01-2.26-6.94-1.24-1.76-4.05-3.96-6.25-4.9s-6.03-2.05-8.5-2.47c-3.06-.52-5.47-1.75-7.54-3.85-2.12-2.17-4.88-3.54-9.22-4.59-4.63-1.12-6.33-2.01-6.71-3.5-.3-1.14.76-4.46 2.48-7.75 1.64-3.16 2.99-6.65 2.99-7.75s-1.48-3.91-3.3-6.25c-1.81-2.34-3.61-5.04-4-6-.38-.96-1.07-1.75-1.53-1.75s-1.12.34-1.46.75M943.5 90.58c-1.1.27-4.7 1.19-8 2.05-3.3.87-9.6 3.41-14 5.66-6.15 3.15-10.08 6.18-17.01 13.15-5.98 6.01-10.28 11.41-12.8 16.06-2.08 3.85-4.73 9.93-5.87 13.5-1.41 4.41-2.23 10.2-2.54 18-.32 8.01-.01 13.62 1.04 18.5.82 3.85 2.42 9.47 3.56 12.5 1.13 3.03 4.14 8.65 6.69 12.5s6.28 8.73 8.28 10.84c2.01 2.12 6.35 5.78 9.65 8.13 3.3 2.36 8.36 5.47 11.25 6.91s8.29 3.47 12 4.5 10.13 2.2 14.25 2.6c4.61.44 10.58.25 15.5-.49 4.4-.66 11.15-2.35 15-3.75 3.85-1.41 9.7-4.13 13-6.05s9.61-7.14 14.02-11.59c5.79-5.85 9.18-10.33 12.15-16.1 2.27-4.4 5.08-11.15 6.25-15s2.45-11.21 2.85-16.35c.4-5.15 1.07-9.54 1.48-9.75.41-.22.75-1.08.75-1.9s-.67-1.5-1.5-1.5c-1 0-1.71-1.417-2.12-4.25-.34-2.34-1.58-6.95-2.76-10.25s-3.99-9.15-6.25-13c-2.25-3.85-6.97-9.94-10.49-13.52-3.51-3.59-9.75-8.63-13.88-11.19-4.12-2.56-11.1-5.88-15.5-7.37-6.67-2.26-10.07-2.75-20.5-3.01-6.87-.17-13.4-.09-14.5.17m157.61 12.92c-.85 1.15-.76 1.62.39 2 .83.28 1.95.28 2.5 0s1-1.17 1-2-.62-1.5-1.39-1.5c-.76 0-1.89.67-2.5 1.5m-6.94 4.75c-.58.69-.74 1.81-.36 2.5.55 1 1.07 1 2.59 0 1.05-.69 1.61-1.81 1.25-2.5s-1.05-1.25-1.54-1.25-1.36.56-1.94 1.25m-7.31 5.29q-1.35 1.54-.36 2.5c.64.62 1.68.52 2.9-.29 1.05-.69 1.61-1.81 1.25-2.5s-1.05-1.25-1.54-1.25-1.5.69-2.25 1.54m-7.14 4.71c-1.19.88-1.4 1.69-.74 2.75.83 1.31 1.17 1.28 2.73-.24 1.24-1.21 1.47-2.06.74-2.76-.7-.68-1.59-.6-2.73.25m-7.86 5.29q-1.35 1.54-.36 2.5c.64.62 1.68.52 2.9-.29 1.05-.69 1.61-1.81 1.25-2.5s-1.05-1.25-1.54-1.25-1.5.69-2.25 1.54m-6.91 4.68c-.74.65-1.26 1.77-1.15 2.48s.54 1.31.95 1.32 1.58-.56 2.59-1.25c1.59-1.09 1.64-1.44.4-2.5-1.1-.94-1.75-.95-2.79-.05m-7.5 5.21c-1.58 1.16-1.71 1.69-.69 2.75 1.03 1.09 1.56 1.01 3-.42 1.2-1.21 1.42-2.06.69-2.76-.7-.68-1.67-.54-3 .43m-8.01 5.82c-.36.69-.17 1.7.41 2.25q1.065 1.01 2.61-.25c.85-.69 1.32-1.7 1.04-2.25s-1.15-1-1.95-1-1.75.56-2.11 1.25m-14.44 9.72c-1.18.74-1.24 1.22-.29 2.24.97 1.03 1.51 1.04 2.75.04.85-.69 1.32-1.7 1.04-2.25s-.84-.99-1.25-.98c-.41 0-1.42.43-2.25.95m-451.34 28.78c.24 3.16.08 6.36-.36 7.1-.65 1.1-2.14.84-7.8-1.36-3.85-1.5-10.38-3.58-14.5-4.62-4.63-1.17-10.95-1.89-16.5-1.88-6.01 0-11.49.69-16.5 2.08-4.13 1.14-9.98 3.39-13 5-3.03 1.61-7.86 4.95-10.75 7.43-5.13 4.4-5.24 4.6-4.64 8.75.47 3.2-.08 6.35-2.19 12.75-2.68 8.1-2.76 8.87-1.7 16.5.61 4.4 2.38 11.73 3.94 16.28 1.56 4.56 3.06 8.26 3.34 8.24.27-.03 1.1-.38 1.84-.79 1.07-.58.8-2.31-1.36-8.73-1.75-5.23-2.87-11.11-3.22-17-.46-7.62-.22-9.88 1.6-14.75 1.18-3.16 2.14-8 2.14-10.75 0-4.68.27-5.22 4.25-8.42 2.34-1.88 7.06-4.81 10.5-6.5s9.29-3.8 13-4.69c4.8-1.14 9.5-1.46 16.25-1.11 7.19.38 11.69 1.27 18.5 3.66 4.95 1.74 10.7 3.7 12.77 4.36 2.79.89 4.23.91 5.5.09.95-.61 2.18-2.76 2.73-4.77l1-3.66c11.36 11.33 11.6 11.8 12.5 18.54.51 3.85.96 10.6.98 15 .04 4.96-.43 8.66-1.21 9.73-1.18 1.61-2.47 1.38-18.77-3.31-9.63-2.76-19.27-5.12-21.43-5.22-3.77-.19-4.11.06-8.25 6.05-2.38 3.44-4.77 6.25-5.32 6.25s-1-.68-1-1.5c0-1.08-1.11-1.5-4-1.5-2.2 0-5.58.68-7.5 1.5s-4.4 2.96-5.5 4.75c-1.09 1.79-2 4.82-2.01 6.75s.66 5.75 1.49 8.5c.82 2.75 1.5 5.34 1.51 5.75s-3.25 1.68-7.24 2.81-9.39 2.71-12 3.5-4.74 1.78-4.73 2.19c0 .41.34 1.29.75 1.94.53.87 4.46.06 14.73-3.07 9.93-3.02 13.95-4.67 13.81-5.69-.1-.79-.91-3.46-1.81-5.93s-1.88-6.3-2.19-8.5c-.46-3.27-.13-4.5 1.81-6.74 1.6-1.84 3.52-2.83 5.85-3 3.32-.25 3.51-.08 4.5 4.01.57 2.35 1.37 4.26 1.78 4.25s3.67-4.3 7.25-9.52c4.78-6.98 6.96-9.39 8.25-9.09.96.23 6.92 1.83 13.25 3.56s13.64 3.8 16.25 4.59L595 229c.05 13.3-.45 15.58-3.01 21l-3.07 6.5c3.4 19.18 3.6 22.19 2.74 22.73-.64.41-2.17.75-3.41.75-1.24.01-3.26.4-4.5.87s-2.92 2.29-3.75 4.04c-.83 1.76-1.73 3.16-2 3.13-.28-.04-2.42-1.07-4.76-2.29-3.48-1.83-4.48-1.99-5.5-.93-1 1.05-.75 1.69 1.26 3.26 1.37 1.07 3.51 2.17 4.75 2.44 1.24.28 2.25.84 2.24 1.25 0 .41-.47 3.68-1.04 7.25-.64 4.02-1.68 6.98-2.74 7.77-.94.69-2.61 1.25-3.71 1.23-1.1-.03-7.4-2.79-14-6.15-6.6-3.35-13.06-7.05-14.35-8.22-1.28-1.17-3.03-3.48-3.88-5.13s-1.82-5.02-2.17-7.5c-.42-3.04-1.11-4.5-2.11-4.5-1.14 0-1.46 1.19-1.38 5 .06 2.79 1 6.76 2.12 9 1.1 2.2 3.35 5.13 5.01 6.5 1.65 1.38 4.41 3.29 6.13 4.25 2.42 1.35 3.13 2.43 3.13 4.75 0 1.65-1.24 5.03-2.75 7.5-1.51 2.48-3.09 4.5-3.5 4.5s-9.86-5.03-21-11.18-20.82-11.66-21.51-12.25c-.99-.84-.09-3.76 4.18-13.57 3-6.87 5.25-12.84 5.01-13.25-.23-.41-1.12-.64-1.97-.5-.91.15-3.77 5.2-6.94 12.25q-5.41 12.01-6.99 12c-.87 0-5.17 2.81-9.56 6.25-4.58 3.59-7.75 6.78-7.46 7.5s-6.26 7.16-15.53 15.25c-14.31 12.48-15.88 14.16-14.53 15.5 1.36 1.33 1.83 1.22 4.29-1.08 1.52-1.42 8.16-7.25 14.76-12.95s12.77-11.06 13.72-11.92c1.58-1.43 3.64.07 26.5 19.23 13.63 11.44 25.12 20.77 25.53 20.75.41-.01 3.67-3.63 7.25-8.03s6.73-8.11 7.01-8.25c.27-.14 5.91 8.98 12.53 20.25l12.02 20.5c12.92 41 15.19 49.93 16.32 58.5.83 6.32 1.87 16.86 2.31 23.4.79 11.63.76 11.89-1.19 11.26-1.1-.35-13.03-3.76-26.5-7.57-17.66-4.99-24.71-6.6-25.23-5.76-.41.64-.75 1.51-.75 1.92-.01.41.54.95 1.23 1.19s17.57 5.07 37.53 10.75c19.95 5.67 36.23 10.76 36.17 11.31-.05.55-1.98 6.4-4.29 13l-4.2 12c-6.94-.37-23.59-1.58-41.46-2.92-17.88-1.34-37.9-2.7-44.5-3.02-11.35-.56-12.33-.78-18-4.05l-6-3.45-45.68-98.56c.86-21.58 1.48-25.46 3.57-31.25 2.27-6.31 2.42-7.38 1.11-8.25-1.17-.78-1.86-.29-3.14 2.25-.9 1.79-2.29 5.27-3.08 7.75-.8 2.48-1.69 10.35-1.98 17.5l-.53 13 46.1 100 13.63 8.23c27.9 1.77 39.04 2.62 42.76 3.03 4.36.48 6.76 1.18 6.75 1.99-.01.98-8.14 1.25-37.26 1.26l-37.25.02c-2.85-12.04-5.18-20.03-7.02-25.53s-9.72-28.68-17.51-51.5l-14.15-41.5c.91-15.5 1.73-25.27 2.43-31.72 1-9.37 1-11.97 0-13q-1.25-1.27-2.15-.28c-.5.55-1.4 6.85-2 14-.61 7.15-1.53 16.82-2.05 21.5-.86 7.75-.74 9.12 1.43 15.5 1.3 3.85 9.2 27.02 17.54 51.5s16.03 47.99 17.07 52.25c1.05 4.26 1.91 7.98 1.91 8.25s-10.8.5-24 .5h-24c0 63.33.04 64 2 64 1.95 0 2.01-.75 2.25-29.75l.25-29.75L549 512c.01 4.26.46 7.19 1.01 9.25.54 2.06 2.23 5.18 3.74 6.92s4.21 3.76 6 4.5c2.64 1.08 23.3 1.32 110 1.3l106.75-.03c10.08-9.25 13.45-11.92 14-11.91s2.01-1 3.26-2.25c1.37-1.39 4.75-9.5 8.67-20.78 3.52-10.18 9.78-28.18 13.9-40s10.75-30.73 14.73-42c3.99-11.27 7.42-22.52 7.64-25q.4-4.5-1.15-6.75c-.85-1.24-3.13-2.93-5.05-3.75-3.03-1.3-14-1.47-81.48-1.25l-77.98.25c-4.29 4.24-7.83 12.64-14.1 30-4.97 13.75-9.24 25.11-9.49 25.25s-2.97-4.36-6.06-10-10.78-19.7-17.1-31.25c-6.31-11.55-13.8-25.27-16.64-30.5-4.06-7.49-7.08-11.4-14.25-18.5-5.01-4.95-11.53-10.63-14.5-12.63-2.97-1.99-8.44-5.26-12.15-7.25-3.72-2-6.75-4.29-6.75-5.12 0-.82-2.48-3.75-5.5-6.5s-5.5-5.68-5.5-6.5.56-1.49 1.25-1.49c.69.01 4.4 1.67 8.25 3.69l7 3.67 10-4.02c1.79-10.73 3.36-16.1 4.65-18.85 1.28-2.75 2.78-5.3 3.34-5.68.56-.37 3.6-.93 6.76-1.25 5.31-.53 5.71-.74 5.29-2.82-.25-1.24-1.37-6.86-2.5-12.5L593 258c5.49-11.89 6-14.28 6-20.5 0-6.67.22-7.56 2-8 1.1-.27 2.67-2.07 3.5-4 .95-2.21 1.48-6.55 1.46-11.75-.03-4.54-.43-11.62-.9-15.75l-.85-7.5c-15.28-14.35-20-18.52-20.36-18.51-.35.01-.44 2.6-.19 5.76m458.84-5.08c-.46.36-.76 1.04-.67 1.5s.96.82 1.92.8 2.54.77 3.5 1.75c1.54 1.56 1.65 2.7.84 9.28-.81 6.66-.7 7.81 1 10.25 1.89 2.73 1.89 2.79-.34 7.29-1.87 3.76-2.04 4.82-.99 6.25.7.94 2.16 3.06 3.25 4.71s1.98 4.46 1.99 6.25c0 1.79.45 4.38 1 5.75.75 1.87 2.32 2.87 6.25 3.97 2.89.81 8.4 3.32 12.25 5.57s8.47 5.53 10.27 7.28 3.26 3.74 3.25 4.43.65 1.25 1.48 1.25 1.5-.89 1.5-2c0-1.1-1.46-3.63-3.25-5.61-1.79-1.99-6.85-5.62-11.25-8.06-4.4-2.45-10.03-5.03-12.5-5.75-4.48-1.29-4.51-1.33-5.75-7.44-.69-3.38-2.26-7.49-3.5-9.15-2.2-2.94-2.21-3.08-.5-6.5.96-1.92 1.77-4.5 1.79-5.74.03-1.24-.69-2.93-1.6-3.75-1.4-1.27-1.55-2.79-.96-10l.69-8.5c-4.78-3.49-6.77-4.5-7.5-4.5-.74 0-1.71.3-2.17.67m-503 13.81c-.27.83-2.19 1.8-4.25 2.14s-6.56 1.91-10 3.5c-3.44 1.58-8.95 5.36-12.25 8.38-3.3 3.03-6 6.18-6 7s.45 1.73 1 2c.55.28 3.36-1.75 6.25-4.5 2.89-2.76 6.6-5.83 8.25-6.84 1.65-1 5.59-2.8 8.75-3.99 3.16-1.2 8-2.17 10.75-2.17 4.1 0 5-.31 4.98-1.75 0-.96-.34-2.24-.75-2.85-.4-.6-1.97-1.4-3.48-1.77-2.01-.5-2.88-.27-3.25.85M712 283c0 91.33.01 92 2 92s2-.67 2-90.5V194h130v31h32l-.5 168.5c-32.26.44-36.42.79-36.17 1.75.25.94 5.28 1.31 20 1.5L881 397l.04-174.5L848 191H712zm33-51v15h30c0-6.89-.42-8-1.5-8-.93 0-1.5.94-1.5 2.5v2.5h-24v-24c22 0 24 .25 24 1.5 0 .83.67 1.5 1.5 1.5q1.5 0 1.5-3v-3h-30zm49-7.5c0 1.29 3.06 1.5 21.5 1.5s21.5-.21 21.5-1.5-3.06-1.5-21.5-1.5-21.5.21-21.5 1.5m-24.53 6.51c-3.83 3.85-7.42 7.01-7.97 7.02s-2.35-1.36-4-3.03-3.34-3.03-3.75-3.02-.76.58-.76 1.27c-.01.69 1.9 3.16 4.25 5.49l4.26 4.24c13.61-13.55 17.21-17.83 16.78-18.26s-1.02-.76-1.31-.75c-.29.02-3.66 3.18-7.5 7.04M682 233c0 3.78.37 5 1.5 5s1.5-1.22 1.5-5-.37-5-1.5-5-1.5 1.22-1.5 5m112 5c0 1.94.67 2 21.5 2s21.5-.06 21.5-2-.67-2-21.5-2-21.5.06-21.5 2m-222.75 3.64c-1.48.23-2.08.88-1.75 1.86.27.83.5 1.73.5 2 0 .28 2.36.21 5.25-.14 3.1-.39 6.68-.18 8.75.5 2.84.94 3.78.89 5-.27 1.32-1.26 1.11-1.62-1.75-3.01-1.87-.91-5.48-1.52-8.5-1.44-2.89.07-6.26.3-7.5.5m97.75.86c0 1.11 1.17 1.5 4.5 1.5s4.5-.39 4.5-1.5-1.17-1.5-4.5-1.5-4.5.39-4.5 1.5m20 0c0 1.11 1.17 1.5 4.5 1.5s4.5-.39 4.5-1.5-1.17-1.5-4.5-1.5-4.5.39-4.5 1.5m-7 11c0 3.33.39 4.5 1.5 4.5s1.5-1.17 1.5-4.5-.39-4.5-1.5-4.5-1.5 1.17-1.5 4.5m-110.75-2.44c-1.89.79-2.05 1.2-1 2.53.69.88 2.24 1.44 3.44 1.25 1.57-.24 2.29.23 2.5 1.65.17 1.09 1.1 2.11 2.06 2.25s1.73-.3 1.71-.99c-.03-.69.67-1.92 1.54-2.75.87-.82 1.57-2.29 1.54-3.25-.03-1.42-.92-1.74-4.79-1.69-2.61.04-5.76.49-7 1M745 271.5V287h30c0-7.83-.39-9-1.5-9-.93 0-1.5.94-1.5 2.5 0 2.35-.32 2.5-5.25 2.51h-5.25c16.63-16.58 17.72-18.06 16.19-18.73-1.41-.61-3.41.84-9.23 6.72l-7.43 7.5c-5.06-5.01-6.87-6.48-7.28-6.48-.41-.01-.74.54-.74 1.23.01.69 1.92 3.17 4.25 5.51l4.24 4.27L748 283v-24c22.17 0 23.04.14 23.5 2 .27 1.1 1.17 2 2 2 1.05 0 1.5-1.06 1.5-3.5V256h-30zm49-6c0 1.29 3.06 1.5 21.5 1.5s21.5-.21 21.5-1.5-3.06-1.5-21.5-1.5-21.5.21-21.5 1.5m99 2.5c0 1.99.67 2 98.5 2h98.5c0 9.72.35 11 1.5 11 1.2 0 1.5-1.5 1.5-7.5V266c-199.33 0-200 .01-200 2m-254 10.58c-3.58.79-9.2 2.71-12.5 4.28s-8.81 4.94-12.25 7.5c-4.95 3.67-6.04 4.95-5.25 6.14.84 1.26 1.93.78 6.75-2.94 3.16-2.45 8.56-5.82 12-7.5s9.4-3.73 13.25-4.56c3.85-.82 9.81-1.48 13.25-1.46 3.44.01 8.95.61 12.25 1.32s8.92 2.61 12.5 4.21 9.31 5.05 12.75 7.67c5.24 3.99 6.41 4.52 7.25 3.26.79-1.19-.3-2.47-5.25-6.14-3.44-2.56-8.95-5.93-12.25-7.49-3.3-1.57-9.15-3.52-13-4.34s-10.6-1.47-15-1.43c-4.4.03-10.92.7-14.5 1.48m155 .42c0 1.94.67 2 21.5 2s21.5-.06 21.5-2-.67-2-21.5-2-21.5.06-21.5 2m292.45 7.25c-2 1.79-4.7 5.5-6.01 8.25-1.32 2.75-3.15 7.93-4.09 11.5-1.18 4.52-1.72 10.77-1.77 20.5-.07 12.06.25 15.04 2.28 21.5 1.29 4.13 3.72 10.2 5.38 13.5 1.67 3.3 4.85 8.7 7.07 12 2.23 3.3 10.25 12.3 17.84 20 9.4 9.53 13.81 14.72 13.83 16.25.02 2.14-.36 2.25-7.48 2.25-6.5 0-7.63.27-8.5 2-.55 1.1-1 3.13-1 4.5 0 2.39-.27 2.5-6 2.5h-6c.46 28.03.74 30.5 2 30.5 1.25 0 1.54-2.31 1.75-13.75L1096 424c87.17 0 93-.19 93-1.5 0-1.26-2.11-1.5-13-1.5h-13c.03-5.04-.54-7.07-1.23-7.77-.71-.7-3.59-1.26-6.52-1.25l-5.25.02c.05-6.06 1.79-8.27 12.83-19.5 7.43-7.55 14.97-16.35 18-21 2.86-4.4 6.6-11.37 8.31-15.5 1.7-4.12 3.76-10.65 4.58-14.5 1.05-4.98 1.33-10.32.94-18.5-.3-6.32-1.26-14.2-2.13-17.5-.88-3.3-2.82-8.42-4.31-11.38-1.5-2.96-4.3-6.73-6.22-8.38-3.01-2.58-4.06-2.92-7.5-2.43-2.54.36-4.82 1.5-6.25 3.13-1.33 1.51-2.26 3.89-2.27 5.81-.01 1.79.68 5.27 1.53 7.75.86 2.48 1.32 5.74 1.02 7.25-.32 1.68-1.79 3.53-3.78 4.75-1.79 1.09-4.26 1.99-5.5 2-1.81 0-2.15-.44-1.76-2.25.27-1.24.94-4.27 1.48-6.75s.99-5.29 1.01-6.25c.02-1.62-1.85-1.75-25.48-1.75-14.03 0-25.7.34-25.94.75s.19 3.45.96 6.75c.78 3.3 1.42 6.79 1.44 7.75.03 1.01-.7 1.75-1.71 1.75-.96-.01-3.21-.91-5-2-1.79-1.1-3.52-3.01-3.86-4.25s.12-4.5 1.01-7.25 1.62-6.24 1.61-7.75c0-1.51-.46-3.65-1.01-4.75s-2.35-2.67-4-3.5c-1.65-.82-4.11-1.5-5.46-1.5-1.37 0-4.08 1.44-6.09 3.25m-122.69 55.5-.26 50.75-6.5.5-.5-73.5-19.5-.5v-10h-32v84c-10.67 0-12 .33-12 1.5 0 1.32 11.19 1.47 95.75 1.25 63.2-.17 95.67-.59 95.51-1.25-.13-.55-4.18-1.23-9-1.5l-8.76-.5-.5-68.5-22.5-.5-.5-9.5h-16v-18h-33v-5h-29.98zM745 310.5V326h30c0-6.89-.42-8-1.5-8-.93 0-1.5.94-1.5 2.5v2.5h-24v-24c22 0 24 .25 24 1.5 0 .83.67 1.5 1.5 1.5 1.05 0 1.5-1.06 1.5-3.5V295h-30zm-104.5-9.68c-2.75 1.03-6.35 2.6-8 3.5-1.65.91-4.35 2.77-6 4.13-2.08 1.72-2.69 2.83-2 3.6.71.79 2.42.14 6-2.28 2.75-1.87 7.01-4.27 9.47-5.33 3.38-1.47 6.78-1.94 14.03-1.94s10.64.47 14.03 1.94c2.46 1.06 6.72 3.46 9.47 5.33 3.67 2.49 5.27 3.08 6 2.24.7-.81.1-1.89-2-3.62-1.65-1.35-5.93-3.88-9.5-5.63-5.75-2.8-7.66-3.21-16.5-3.48-7.86-.25-11.07.08-15 1.54m128.97 9.19c-3.83 3.85-7.42 7.01-7.97 7.02s-2.35-1.36-4-3.03-3.34-3.03-3.75-3.02-.76.58-.76 1.27c-.01.69 1.9 3.16 4.25 5.49l4.26 4.24c13.61-13.55 17.21-17.83 16.78-18.26s-1.02-.76-1.31-.75c-.29.02-3.66 3.18-7.5 7.04M794 306.5c0 1.29 3.05 1.5 21.5 1.5 18.44 0 21.5-.21 21.5-1.5s-3.06-1.5-21.5-1.5c-18.45 0-21.5.21-21.5 1.5m0 13.5c0 1.94.67 2 21.5 2s21.5-.06 21.5-2-.67-2-21.5-2-21.5.06-21.5 2m-144.56 3.25c-1 1.41-1.38 3.27-1.02 5 .33 1.56 1.66 3.29 3.08 4 2 1 3 1 5 0 1.42-.71 2.75-2.44 3.08-4 .36-1.72-.02-3.6-1-5-1.04-1.48-2.6-2.25-4.56-2.25-1.95 0-3.53.78-4.58 2.25M745 348v15h30v-30h-30zm-284-6.93c-2.48.54-4.69 1.12-4.92 1.31-.24.18-.13 1.07.25 1.98.54 1.31 1.41 1.49 4.42.89 2.06-.41 6.45-.68 9.75-.6 3.3.09 8.02.91 10.5 1.82 2.47.92 6.73 3.32 9.45 5.35 2.72 2.02 6.67 6.38 8.78 9.68s5.14 9.15 6.73 13c1.6 3.85 4.25 11.73 5.91 17.5s3.96 15.45 5.12 21.5c1.15 6.05 3.21 15.05 4.57 20s3.18 11.48 4.05 14.5c.86 3.02 1.2 5.78.73 6.11-.46.34-4.44 3.44-8.84 6.9-4.4 3.45-8 6.97-8 7.8 0 .84.45 1.67 1 1.86.55.18 5.61-3.27 11.25-7.67 5.69-4.44 10.05-8.56 9.81-9.25s-2.45-8.67-4.9-17.75c-2.46-9.07-5.24-20.77-6.18-26s-3.27-14.67-5.17-21c-1.89-6.32-4.62-14.2-6.06-17.5-1.43-3.3-4.49-8.92-6.79-12.5-2.54-3.93-6.32-8.07-9.58-10.47-2.96-2.19-7.63-4.81-10.38-5.83s-7.7-2.02-11-2.23c-3.3-.2-8.03.07-10.5.6m333 6.43c0 1.29 3.05 1.5 21.5 1.5 18.44 0 21.5-.21 21.5-1.5s-3.06-1.5-21.5-1.5c-18.45 0-21.5.21-21.5 1.5m-372.65 6.34c-2.12 1.55-5.25 4.13-6.97 5.74-1.71 1.6-4.56 4.94-6.33 7.42s-3.89 6.08-4.71 8c-.82 1.93-2.23 5.52-3.14 8-1.17 3.18-1.63 7.59-1.59 15 .06 9.48.4 11.37 3.52 19.5 1.9 4.95 10.18 25.98 18.41 46.74 8.49 21.42 15.5 37.74 16.21 37.75.69 0 1.49-.55 1.79-1.24.29-.69-7.07-20.37-16.37-43.75-9.29-23.37-17.51-44.3-18.26-46.5-.77-2.27-1.34-7.9-1.31-13 .03-5.74.66-10.72 1.73-13.75.92-2.61 2.64-6.66 3.82-9s3.99-6.44 6.25-9.12c2.25-2.68 6.01-6.16 8.35-7.75 2.34-1.58 4.29-3.53 4.35-4.32s-.35-1.69-.89-1.98c-.55-.3-2.74.72-4.86 2.26m231.17-1.19c-.47.37-.78 1.51-.69 2.52.1 1.11.96 1.83 2.17 1.83 1.46 0 1.93-.58 1.75-2.17-.14-1.2-.73-2.33-1.32-2.52-.58-.19-1.45-.04-1.91.34M794 360.5c0 1.29 3.05 1.5 21.5 1.5 18.44 0 21.5-.21 21.5-1.5s-3.06-1.5-21.5-1.5c-18.45 0-21.5.21-21.5 1.5m-141.48 1.15c-.47.37-.78 1.51-.69 2.52.1 1.11.96 1.83 2.17 1.83 1.46 0 1.93-.58 1.75-2.17-.14-1.2-.73-2.33-1.32-2.52-.58-.19-1.45-.04-1.91.34m0 9c-.47.37-.78 1.51-.69 2.52.1 1.11.96 1.83 2.17 1.83 1.46 0 1.93-.58 1.75-2.17-.14-1.2-.73-2.33-1.32-2.52-.58-.19-1.45-.04-1.91.34m0 9c-.47.37-.78 1.51-.69 2.52.1 1.11.96 1.83 2.17 1.83 1.46 0 1.93-.58 1.75-2.17-.14-1.2-.73-2.33-1.32-2.52-.58-.19-1.45-.04-1.91.34m0 9c-.47.37-.78 1.51-.69 2.52.1 1.11.96 1.83 2.17 1.83 1.46 0 1.93-.58 1.75-2.17-.14-1.2-.73-2.33-1.32-2.52-.58-.19-1.45-.04-1.91.34M260 411.5v7.5h13c.44 65.89.78 74.41 1.75 74.67.98.26 1.25-7.66 1.25-37.17V419c107 0 114-.18 114-1.5s-7.67-1.5-63-1.5h-63v-9c121.17 0 129-.18 129-1.5s-8.06-1.5-66.5-1.5H260zm692 3c0 1.31 6.55 1.5 53 1.5 46.44 0 53-.19 53-1.5s-6.56-1.5-53-1.5c-46.45 0-53 .19-53 1.5m-555.88 40.92c-.1 30.42.14 38.51 1.13 38.25.97-.26 1.25-8.75 1.25-38.17 0-27.28-.32-37.95-1.13-38.25-.83-.31-1.17 9.88-1.25 38.17m-15.41-16.67c-.39 10.01-1.1 15.52-2.62 20.25-1.15 3.58-3.55 9.11-5.34 12.31-1.79 3.19-5.02 7.91-7.18 10.5-2.16 2.58-6.17 6.49-8.92 8.69-2.74 2.2-6.49 5.46-8.32 7.25-2.86 2.79-3.33 3.93-3.32 8 .02 4.47.32 5.02 5.2 9.25 2.85 2.48 8.35 7.66 12.23 11.52 4.2 4.18 8.45 9.65 10.49 13.5 1.88 3.56 4.29 9.18 5.35 12.48 1.42 4.44 2.02 9.84 2.32 20.75.33 12.27.65 14.75 1.9 14.75 1.28 0 1.45-2.21 1.16-15.25-.31-13.67-.65-16.13-3.24-23.75-1.59-4.67-4.59-11.09-6.66-14.25s-5.67-7.83-8.01-10.38-7.06-6.6-10.5-9c-4.91-3.44-6.38-5.07-6.86-7.62-.34-1.79-.11-4.26.5-5.5s3.7-4.21 6.86-6.6 8.37-7.22 11.58-10.75c3.56-3.9 7.33-9.52 9.66-14.4 2.11-4.4 4.54-11.26 5.42-15.25.94-4.29 1.59-11.94 1.59-18.75 0-9.09-.29-11.5-1.38-11.5-1.07 0-1.49 3.01-1.91 13.75M287 437c0 6.05.67 14.15 1.5 18 .82 3.85 3.11 10.49 5.08 14.75 1.96 4.26 5.72 10.45 8.35 13.75 2.62 3.3 8.1 8.51 12.17 11.58 4.67 3.52 7.68 6.57 8.15 8.25.41 1.47.41 3.87 0 5.34-.47 1.69-3.48 4.72-8.17 8.25-4.08 3.07-9.16 7.6-11.29 10.08s-5.89 8.55-8.35 13.5c-2.47 4.95-5.14 12.15-5.95 16-.8 3.85-1.46 12.29-1.47 18.75-.02 9.79.23 11.75 1.48 11.75 1.24 0 1.5-1.92 1.52-11.25.01-6.19.69-14.4 1.51-18.25.83-3.85 3.26-10.6 5.4-15 2.17-4.45 6.31-10.66 9.33-14 2.98-3.3 7.99-7.8 11.12-10 3.27-2.3 6.32-5.38 7.16-7.25.8-1.79 1.46-4.37 1.46-5.75 0-1.37-.56-3.66-1.25-5.08s-4.18-4.73-7.75-7.35c-3.58-2.63-8.3-6.82-10.5-9.31s-5.46-6.95-7.24-9.9c-1.79-2.95-4.45-8.73-5.91-12.86-2.26-6.36-2.73-9.59-3.09-21.25-.34-11-.71-13.75-1.84-13.75-1.14 0-1.42 2.18-1.42 11m681.22 2.75c.23 9.65.55 11.75 1.78 11.75 1.21 0 1.55-1.86 1.75-9.75L972 432h25v96c-27.67 0-30 .23-30 1.5 0 1.3 4.33 1.5 33 1.5s33-.2 33-1.5c0-1.25-1.95-1.5-11.5-1.5H1010v-78h18c0 20.11.26 22 1.5 22 1.2 0 1.5-1.5 1.5-7.5V457h21c0 7.83.39 9 1.5 9 1.17 0 1.5-1.33 1.5-6v-6h-24v-8h-24v82h-7V428h-32.06zM1183 439c0 3.78.36 5 1.5 5 1.13 0 1.5-1.22 1.5-5s-.37-5-1.5-5c-1.14 0-1.5 1.22-1.5 5M35 455.5v8.5l-13.5.5L21 598h92c5.03 3.78 8.18 5.58 10.25 6.44 2.09.87 6.62 1.56 10.25 1.56 3.62 0 8.16-.69 10.25-1.56 2.06-.86 5.21-2.66 7-4L154 598c70.16 0 75-.19 75-1.5s-4.95-1.5-38.5-1.5H152c-4.78 4.26-7.59 6.03-9.33 6.67-1.75.65-5.42 1.21-8.17 1.25-2.75.05-6.58-.38-8.5-.93-1.93-.56-5.19-2.36-7.25-4L115 595H25V468h10v108l78.54.5c10.72 5.18 14.58 7.93 16.21 10 1.51 1.92 3.31 3.5 4 3.5.68 0 1.25-.67 1.25-1.5s2.13-3.05 4.75-4.95c2.61-1.9 7.33-4.37 10.5-5.5 5.4-1.93 7.99-2.05 43.25-2.05H231V468h12c0 120.22.18 128 1.5 128s1.5-8 1.5-66v-66h-15v-17c-75.02.49-77.82.63-82.5 2.53-2.75 1.11-7.37 3.7-10.25 5.75L133 459c-5.82-4.44-9.3-6.64-11.5-7.74-2.2-1.11-6.37-2.52-9.25-3.14-3.34-.71-18.4-1.12-41.25-1.12H35zm1134-7c0 1.13 1.22 1.5 5 1.5 3.77 0 5-.37 5-1.5s-1.23-1.5-5-1.5c-3.78 0-5 .37-5 1.5m20.69-.75c-.36.41-.43 1.09-.17 1.5s2.5.75 4.98.75c3.33 0 4.5-.39 4.5-1.5 0-1.1-1.15-1.5-4.34-1.5-2.38 0-4.62.34-4.97.75m-88.69 4.58c-4.68 2.32-13.68 6.62-20 9.56-6.33 2.94-17.77 8.29-25.42 11.88-7.66 3.59-13.84 6.91-13.75 7.38s5 3.15 10.92 5.97c5.91 2.81 13.9 6.59 17.75 8.38 3.85 1.8 14.65 6.93 24 11.41s17.11 8.13 17.25 8.12c.13-.02 5.08-2.33 11-5.14 5.91-2.82 13.9-6.59 17.75-8.4 3.85-1.8 13.75-6.52 22-10.48 8.25-3.95 16.01-7.6 17.25-8.1 1.4-.57 1.96-1.36 1.5-2.12-.42-.66-3.9-2.62-7.75-4.36s-19.04-8.85-33.75-15.8c-14.72-6.95-27.54-12.6-28.5-12.57-.97.04-5.58 1.96-10.25 4.27m-273 3.17c0 1.13 1.22 1.5 5 1.5 3.77 0 5-.37 5-1.5s-1.23-1.5-5-1.5c-3.78 0-5 .37-5 1.5m355 4c0 3.33.39 4.5 1.5 4.5s1.5-1.17 1.5-4.5-.39-4.5-1.5-4.5-1.5 1.17-1.5 4.5m-834 2.21c-1.38.24-8.02 1.53-14.75 2.86-6.74 1.34-15.07 2.41-18.5 2.39-4.54-.04-6.66.4-7.75 1.58-1.34 1.45-1.29 2.01.5 5.18 1.1 1.95 4.85 6.08 8.34 9.17 3.49 3.08 8.53 7.63 11.2 10.11 2.93 2.72 5.17 5.8 5.65 7.77.45 1.8 1.26 3.28 1.81 3.28s1.3-1.25 1.67-2.78c.38-1.52 1.73-4.32 3-6.21 1.28-1.9 5.66-6.17 9.74-9.5 4.07-3.33 9.16-8.54 11.3-11.56s4.15-6.62 4.47-8c.41-1.78.03-2.87-1.3-3.77-1.04-.7-4.34-1.2-7.38-1.11-3.03.08-6.63.35-8 .59m493.15 10.54c-2.62 2.63-2.99 3.48-1.94 4.48 1.03.98 1.96.58 4.64-2 1.85-1.78 3.09-3.79 2.75-4.48-.33-.69-.97-1.25-1.41-1.25s-2.26 1.46-4.04 3.25M862 483c0 3.78.36 5 1.5 5 1.13 0 1.5-1.22 1.5-5s-.37-5-1.5-5c-1.14 0-1.5 1.22-1.5 5m179.96 25.75c-.04 18.62-.06 18.77-2.5 21-1.45 1.33-2.47 3.38-2.49 5-.02 1.71 1.27 4.26 3.39 6.75l3.42 4c3.43-3.1 5.05-5.24 5.82-6.75s1.4-3.65 1.4-4.75-1.11-3.01-2.46-4.25c-2.45-2.23-2.46-2.38-2.5-21-.04-18.07-.12-18.75-2.04-18.75-1.93 0-2 .68-2.04 18.75m-773.71-9.8c-1.79 1.13-3.7 3.18-4.25 4.55-.55 1.38-1 3.85-1 5.5s.67 4.35 1.5 6c.82 1.65 2.96 3.73 4.75 4.62 2.21 1.11 4.52 1.43 7.25 1.02 2.2-.33 5.02-1.62 6.28-2.87 1.25-1.25 2.71-3.73 3.25-5.52.62-2.1.62-4.4 0-6.5-.54-1.79-2-4.28-3.25-5.54-1.45-1.45-3.93-2.48-6.78-2.81-3.45-.39-5.26-.03-7.75 1.55M393 497.7c-.83.3-2.74 1.73-4.24 3.17-1.51 1.45-3.02 4.21-3.35 6.13-.38 2.21-.05 4.6.89 6.5.82 1.65 2.32 3.79 3.34 4.76s3.66 2.04 5.86 2.38c2.73.41 5.03.09 7.25-1.02 1.78-.89 3.92-2.97 4.75-4.62.82-1.65 1.5-4.35 1.5-6s-.68-4.35-1.5-6c-.83-1.65-2.85-3.67-4.5-4.5-1.65-.82-4.24-1.46-5.75-1.42-1.52.04-3.43.32-4.25.62m764.96 15.55c-.04 11.31-.29 13.44-1.75 14.53-.94.7-4.64 2.77-8.21 4.61-3.58 1.83-9.65 4.4-13.5 5.72-6.27 2.14-8.67 2.38-23 2.34-14.48-.05-16.62-.29-22.5-2.51l-6.5-2.45c-.91-24.6-1.27-26.99-2.5-26.99s-1.59 2.25-2 12.29l-.5 12.29-9.5-6.08c0-22.94-.25-25-1.5-25-1.26 0-1.51 2.15-1.52 13.25l-.01 13.25c11.57 7.66 17.78 10.64 22.53 12.12 4.4 1.38 11.37 2.93 15.5 3.46 4.91.63 10.6.61 16.5-.06 4.95-.57 11.25-1.64 14-2.4s7.47-2.37 10.5-3.58c3.02-1.21 7.07-3.14 9-4.28 1.92-1.15 4.52-3.02 5.77-4.17 2.16-1.98 2.28-2.8 2.25-15.84-.02-11.54-.26-13.75-1.52-13.75s-1.51 2.16-1.54 13.25M839 510c0 1.97.66 2 40.5 2 39.83 0 40.5-.03 40.5-2s-.67-2-40.5-2c-39.84 0-40.5.03-40.5 2m-566 48v34l-12.5.5-.5 15.5h154v-15h-15c0-65.08-.18-69-1.56-69s-1.58 3.98-1.75 34.25l-.19 34.25h-119c-.49-63.79-.73-68.5-2.01-68.5-1.29 0-1.49 4.56-1.49 34m543.59-17.51c-.33.83-.59 3.87-.6 6.76 0 2.89.34 8.74.75 13.01l.76 7.76L910 568l-.5-28.5c-86.55-.49-92.39-.33-92.91.99M334 546q0 2 2 2t1.5-1.5c-.28-.83-.5-1.73-.5-2s-.68-.5-1.5-.5c-.84 0-1.5.89-1.5 2m106.94 16.09-.44 16.41-15.5.5.5 16.5h101.4c5.89 5.74 9.28 8.1 11.35 8.95 2.06.85 6.33 1.55 9.5 1.55 3.91.01 7.02-.66 9.75-2.1 2.2-1.15 5.35-3.37 7-4.92l3-2.81c69.23-.52 89.59-1.01 89.91-1.42s.36-1.2.09-1.75c-.32-.64-16.6-1.01-45.75-1.02l-45.25-.02c-5.43 5.59-8.69 8.08-10.75 9.13-2.16 1.1-5.77 1.9-8.5 1.9-2.91-.01-6.48-.89-9.19-2.25-2.44-1.23-5.59-3.72-7-5.53l-2.56-3.29-100-.42v-9L536 582c.69 3.49 2.16 5.7 3.7 7.17s4.37 2.95 6.3 3.28c2.57.45 4.36.08 6.75-1.42 1.78-1.12 4.03-3.61 5-5.55l1.75-3.52L668 582c0 10.67.33 12 1.5 12 1.2 0 1.5-1.5 1.5-7.5V579c-18.54 0-19.03-.11-19.49-2.25-.27-1.24-.49-8.77-.5-16.75l-.01-14.5c-42.04 1.04-57.09 1.96-64 2.97-6.33.92-14.65 2.55-18.5 3.62s-9.02 2.95-11.48 4.18c-2.47 1.23-5.84 3.69-7.5 5.48-2.86 3.07-3.11 3.15-4.67 1.5-.91-.96-3.84-2.97-6.5-4.46-2.67-1.5-9.35-3.87-14.85-5.29-5.5-1.41-16.87-3.45-25.25-4.53-8.39-1.09-24.62-2.27-36.06-2.63l-20.82-.66zm543.07-11.59c0 1.28 2.61 1.5 17.5 1.5 14.88 0 17.5-.22 17.5-1.5 0-1.27-2.62-1.5-17.5-1.5-14.89 0-17.5.23-17.5 1.5m-660.43 4.75c-4.89 2.89-11.92 8.18-15.62 11.75-5.52 5.34-7.02 7.49-8.35 12-.89 3.03-1.62 6.29-1.61 7.25 0 .96.68 1.75 1.51 1.75 1 0 1.85-1.72 2.57-5.25.59-2.89 2-6.6 3.14-8.25s3.47-4.27 5.18-5.81c1.71-1.55 7.16-5.52 12.11-8.82s10.12-6.24 11.5-6.54c1.42-.31 4.21.25 6.48 1.31 2.19 1.03 7.37 4.27 11.5 7.21s8.79 6.54 10.36 8c1.56 1.46 3.7 4.34 4.75 6.4s2.24 5.56 2.66 7.77c.41 2.21 1.31 4.01 2 4s1.24-1.24 1.23-2.77c-.01-1.51-.57-4.54-1.25-6.73s-3.53-6.45-6.34-9.5c-2.81-3.03-8.21-7.6-12-10.14s-8.81-5.58-11.14-6.75c-2.34-1.17-5.5-2.13-7.02-2.13-1.53 0-6.71 2.33-11.66 5.25m342.43.25c0 1.32 7.44 1.5 61 1.5 53.55 0 61-.18 61-1.5s-7.45-1.5-61-1.5c-53.56 0-61 .18-61 1.5m392 1.42c-1.38.41-3.76 1.61-5.3 2.66-1.54 1.06-3.49 3.72-4.33 5.92-.99 2.59-1.29 5.23-.84 7.5.38 1.93 1.43 4.57 2.33 5.89.9 1.31 3.32 3.22 5.39 4.25 3.21 1.6 6.16 1.86 20.75 1.86h17c0 20.15.22 26 .5 26 .27 0 3.31-2.44 6.75-5.42l6.25-5.42 12 10.99.5-26.15h50c3.87-4.65 5.28-7.69 5.63-9.75.34-2.06.44-5.55.21-7.75-.23-2.21-1.63-5.68-3.13-7.75l-2.71-3.75c-84.09.13-109.63.51-111 .92m-328 18.08c0 3.78.36 5 1.5 5 1.13 0 1.5-1.22 1.5-5s-.37-5-1.5-5c-1.14 0-1.5 1.22-1.5 5m-13 9.5c0 .89.92 1.51 2.25 1.52 1.23 0 3.26.23 4.5.5 1.74.37 2.25.03 2.25-1.52 0-1.7-.67-2-4.5-2-3.34 0-4.5.39-4.5 1.5m20 .25c.01 1.41.89 1.75 4.5 1.75 3.6 0 4.48-.34 4.49-1.75 0-1.41-.87-1.75-4.49-1.75-3.63 0-4.5.34-4.5 1.75m-699.96.71c-.04 1.36 4.18 1.54 36.21 1.56 35.03.02 36.46.1 42.75 2.28 4.02 1.4 8.49 3.97 11.73 6.73l5.23 4.47c8.16-6.49 12.79-9.42 15.54-10.69 4.91-2.27 5.67-2.31 42.75-2.56 32.77-.22 37.75-.45 37.75-1.75 0-1.31-4.86-1.47-38.75-1.24-37.01.25-38.96.35-43.25 2.36-2.48 1.16-6.64 3.74-9.25 5.74l-4.75 3.64c-5.82-4.86-9.98-7.45-13-8.88l-5.5-2.62c-73.05-.55-77.42-.41-77.46.96m692.96 10.04c0 3.34.38 4.5 1.5 4.5 1.11 0 1.5-1.16 1.5-4.5 0-3.33-.39-4.5-1.5-4.5-1.12 0-1.5 1.17-1.5 4.5" clip-rule="evenodd"/><path fill="#fff6e2" fill-rule="evenodd" d="M901.75 406.06c.69-.03 2.6 1.06 4.25 2.44 2.11 1.76 3 3.39 3 5.5 0 1.89-1.11 4.3-6 10l-3.75-3.27c-2.06-1.8-4.88-4.04-8.75-6.7l2.87-3.17c1.58-1.75 3.83-3.53 5-3.95 1.17-.43 2.69-.81 3.38-.85m-30.25 6.31c5.99.19 9.38.87 13.5 2.74 3.02 1.37 7.52 4.32 10 6.55 2.48 2.24 5.93 6.72 7.68 9.96 1.82 3.36 3.63 8.67 4.23 12.38.58 3.57.76 8.3.41 10.5-.36 2.2-1.25 5.46-3.32 10.5l-6.25-5.3c-3.44-2.92-15.61-13.38-27.04-23.25-11.44-9.87-20.79-18.18-20.78-18.45s2.17-1.49 4.79-2.71c2.63-1.21 5.68-2.43 6.78-2.69 1.1-.27 5.6-.37 10-.23m42.35 6.67c.91.52 11.95 10.96 47.43 45.46l-6.78 4.22-10.01-9.61c-5.51-5.28-15.97-15.35-36.49-35.11l2.1-2.95c1.63-2.29 2.48-2.74 3.75-2.01m-67.67.81 3.16 2.72c1.74 1.49 12.14 10.42 23.12 19.82 10.97 9.41 22.22 19.19 30.04 26.36l-3.5 4.18c-3.45 4.12-3.53 4.15-5.5 2.29-1.1-1.03-13.59-12.08-27.75-24.55s-25.72-23.02-25.69-23.45c.04-.42 1.43-2.26 3.1-4.07zm13.69 30.03c2 1.62 4.97 4.35 6.62 6.08 2.53 2.64 2.77 3.29 1.5 4.12-.82.53-2.85.72-4.5.41s-4.01-1.56-5.24-2.78c-1.24-1.21-2.49-3.34-2.79-4.71-.29-1.38-.24-3.3.13-4.27.6-1.6 1.03-1.49 4.28 1.15m108.12 17.62c1.93.28 4.52 1.19 5.75 2.01 1.24.82 3.18 2.95 4.31 4.74 1.56 2.48 1.94 4.32 1.56 7.75-.39 3.48-1.32 5.3-4.08 8-3.1 3.04-4.22 3.5-8.48 3.5-3.38 0-5.79-.64-7.73-2.06-1.55-1.14-3.63-3.62-4.61-5.5-1.34-2.59-1.6-4.44-1.03-7.44.41-2.2 1.52-5.07 2.47-6.37.96-1.3 3.22-2.99 5.04-3.76 1.83-.77 4.86-1.16 6.8-.87m-2.96 29.5c2.18 0 3.96.45 3.96 1s-4.72 14.84-10.5 31.75-10.51 30.86-10.5 31c0 .14-1.8.25-4 .25s-4-.11-4.01-.25 4.07-12.4 9.07-27.25 9.75-29.14 10.55-31.75c1.42-4.62 1.56-4.75 5.43-4.75m-145.04 87h18v18h-18zm42 0v18h-21l-.16-8.33c-.09-4.59.21-8.64.66-9 .46-.37 5.26-.67 20.5-.67m3 0h20v18h-20z" clip-rule="evenodd"/><path fill="#0a0a0a" d="M961.76 480.45c-.09-1.13.47-2.59 1.24-3.25s2.32-1.22 3.45-1.24c1.13-.03 2.62.53 3.32 1.25.71.71 1.16 2.64 1 4.29-.23 2.53-.74 3.04-3.27 3.27-1.65.16-3.58-.29-4.29-1-.72-.7-1.37-2.19-1.45-3.32"/><path fill="#fff6e2" fill-rule="evenodd" d="M1131.97 33.29c-3.2 1.64-5.13 3.57-6.78 6.75-1.72 3.32-2.18 5.49-1.79 8.46.29 2.2 1.7 6.25 3.13 9 1.44 2.75 4.95 8.03 7.79 11.74l5.18 6.73c4.15-5.01 7.51-10.07 10.16-14.47 3.61-6.02 4.9-9.24 5.2-13 .25-3.22-.15-6.07-1.14-8-.84-1.65-2.59-3.95-3.87-5.11-1.29-1.16-3.93-2.63-5.85-3.27-1.92-.63-4.42-1.15-5.53-1.14-1.12.01-4.05 1.05-6.5 2.31m4.28 47.42c-.14.71-.03 1.74.25 2.29s1.29 1.02 2.25 1.04c.96.03 2.42-.66 3.25-1.52s1.12-1.89.66-2.29-2.03-.75-3.5-.77c-1.46-.02-2.77.54-2.91 1.25M939 95.01c-4.12 1.03-10.65 3.46-14.5 5.39-3.85 1.94-9.59 5.57-12.75 8.06-3.16 2.5-7.79 7.13-10.29 10.29s-6.33 9.35-8.52 13.75-4.64 11.15-5.44 15c-.81 3.85-1.47 10.82-1.47 15.5s.67 11.31 1.48 14.75c.82 3.44 2.66 9.06 4.1 12.5 1.43 3.44 4.54 8.95 6.9 12.25s5.92 7.57 7.91 9.5l3.62 3.5c-.04-45.15.17-48.5 1.46-48.5s1.5 3.5 1.5 25.5V218c9.69 6.26 14.86 8.96 17.75 10.04s7.39 2.47 10 3.1c2.61.62 9.25 1.14 14.75 1.14 6.13.01 12.51-.64 16.5-1.67 3.58-.92 9.2-2.93 12.5-4.45 3.3-1.53 8.14-4.21 10.75-5.97L1000 217c0-46.56.21-50 1.5-50s1.5 3.22 1.5 23c0 14.67.36 23 1 23 .55 0 3.21-2.81 5.91-6.25s6.52-9.63 8.48-13.75c1.95-4.13 4.3-10.43 5.21-14 1.27-5.01 1.54-9.48 1.17-19.5-.42-11.62-.8-13.85-3.63-21-1.75-4.4-5.08-10.89-7.4-14.41-2.33-3.53-7.19-9.15-10.8-12.5s-10.14-7.98-14.5-10.29c-4.37-2.31-11.54-5.13-15.94-6.26-5.4-1.39-10.92-2.03-17-1.98-5.15.05-12.21.89-16.5 1.95m-89.82 114.4L849 222l26.5.01c-13.17-13.3-19.06-18.97-21.57-21.18l-4.58-4.02zm239.48 79.1c-1.46 1.37-3.78 4.75-5.15 7.5-1.38 2.75-3.14 7.81-3.92 11.25-.78 3.43-1.72 9.85-2.09 14.25-.38 4.56-.18 11.44.47 16 .62 4.4 2.29 10.92 3.72 14.5 1.43 3.57 4.28 9.42 6.34 13 2.06 3.57 5.83 9.08 8.36 12.25 2.54 3.16 4.86 5.63 5.16 5.5.29-.14-.62-3.18-2.04-6.75-1.42-3.58-3.51-10.1-4.65-14.5s-2.31-12.73-2.6-18.5l-.52-10.5c13.3-10.85 17.19-14.34 17.22-14.75.02-.42-.85-.75-1.95-.75s-3.79-1.69-5.97-3.75c-3.14-2.97-3.97-4.48-3.99-7.25 0-1.93.64-5.3 1.43-7.5s1.46-4.79 1.48-5.75c.03-.97-1.08-2.88-2.45-4.25-1.38-1.38-3.33-2.5-4.35-2.5s-3.04 1.12-4.5 2.5m82.9-.43c-1.63 1.23-2.7 2.96-2.63 4.25.06 1.2.76 3.98 1.55 6.18s1.46 5.46 1.48 7.25c.03 2.31-.89 4.27-3.2 6.78-1.79 1.95-4.49 3.75-6 4-1.52.26-2.64.87-2.5 1.35.13.49 3.96 3.87 8.5 7.5l8.25 6.62c0 11.62-.85 19.38-1.89 24.75-1.03 5.36-3.28 13.23-5 17.5-1.71 4.26-3.13 8.08-3.15 8.5-.01.41.94-.15 2.12-1.25 1.19-1.1 4.09-4.7 6.46-8s6.09-9.6 8.27-14c2.19-4.4 4.79-10.7 5.79-14 1.37-4.52 1.8-9.1 1.73-18.5-.05-8-.69-15.02-1.76-19.5-.93-3.85-3.12-9.65-4.88-12.88-1.87-3.45-4.33-6.44-5.94-7.25-1.52-.75-3.13-1.37-3.6-1.37s-2.08.93-3.6 2.07m-204.52 16.9-.03 11.03 23.5-.5v-21l-23.44-.57zm-481.53-4.62-5 4.3c36.42 30.49 47.45 39.33 48 39.31.55-.01 3.7-3.42 7-7.57 3.3-4.16 6.56-7.96 7.25-8.47.85-.62 3.09.37 7 3.1 4.21 2.94 5.95 3.68 6.48 2.75.41-.7.75-3.96.77-7.26.03-5.48-.25-6.29-3.23-9.24-1.8-1.78-3.61-3.24-4.02-3.25s-2.1 2.24-3.75 4.99-3.23 5-3.5 5c-.28 0-6.01-3.08-12.75-6.83-6.74-3.76-17.99-10.06-25-14-7.01-3.95-13.09-7.17-13.5-7.15-.41.01-3 1.95-5.75 4.32m508.53 45.63-.03 47.03 29.5-.5v-93l-29.45-.56zm119.56-39.22c.74 3.16 1.36 6.09 1.38 6.5s8.59.75 19.04.75c18.78 0 19.01-.03 19.85-2.25.47-1.24 1.15-4.16 1.5-6.5l.65-4.25h-43.77zm-205.02 6.52c-.21.7-.31 12.28-.22 25.75l.16 24.48 24.5.5v-52c-20.88 0-24.15.33-24.44 1.27m118.44 15.73v12h13v-24h-13zm78.68-3.73c-4.85 3.98-8.45 7.57-8 7.99s2.62 1.2 4.82 1.73 5.23.97 6.75.98c2.37.03 3.25-.89 6.41-6.72 2.02-3.71 4.27-7.76 5-9 1.29-2.17 1.21-2.25-2.41-2.23-3.16.02-5.15 1.17-12.57 7.25m14.97 1.98c-3.7 6.29-5.08 9.48-4.3 9.98.63.41 7.78.74 15.9.75 10.37.01 18.23-.58 26.5-2.02 6.46-1.11 12.09-2.35 12.52-2.75.42-.39-3.18-3.96-8-7.93l-8.77-7.21-28.4-.07zm-153.66-4.75v3.5h23v-7h-23zm-30 35.5v35h16v-70h-16zm-376.58-23.01-.92 8.11c-5.42-3.93-7.13-4.97-7.29-4.84s2.35 4.74 5.59 10.24 7.7 13.15 9.91 17c2.75 4.79 6.41 14.58 11.57 31 4.15 13.2 8.04 27.37 8.64 31.5.6 4.12 1.77 15.15 2.6 24.5s1.61 17.03 1.74 17.08c.13.04 4.85 1.39 10.49 3 7.2 2.05 10.25 3.37 10.23 4.42q-.04 1.5 7.24 3.71c4.01 1.22 8.41 2.49 9.78 2.84 2.3.57 2.67.16 4.65-5.21 1.18-3.21 4.64-12.82 7.68-21.34 4.83-13.55 5.36-15.75 4.21-17.5-.73-1.1-5.33-9.2-10.23-18s-14.73-26.8-21.83-40l-12.91-24c-18.81-18.48-23.37-22.08-29.72-25.5-4.59-2.48-8.83-4.64-9.43-4.8-.65-.19-1.43 2.87-2 7.79m483.27-7.24c-.23.41-.36 15.15-.3 32.75l.11 32 19.5.5v-66c-14.65 0-19.09.34-19.31.75m-76.69 33.25v32h23c.41-4.26.42-18.66.29-34.75l-.23-29.25h-23.06zm-219-13v12h24v-24h-24zm346.96-8.48c.02 1.91.52 6.74 1.11 10.73.58 3.99 2.2 11.07 3.59 15.75 1.39 4.67 4.27 11.87 6.41 16 2.13 4.12 6.05 10.2 8.7 13.5s5.93 6.55 7.28 7.23c1.5.76 6.79 1.24 13.7 1.25l11.25.02c7.93-8.91 11.86-14.43 13.84-18 1.98-3.58 4.78-9.43 6.23-13 1.45-3.58 3.37-9.88 4.28-14 .91-4.13 1.99-10.95 2.4-15.17l.75-7.67c-4.58 1.06-6.14 2.27-6.64 3.59-.47 1.24-1.31 2.25-1.86 2.25s-1.34-.73-1.75-1.62c-.67-1.45-1.6-1.48-9.25-.31-4.67.72-14.8 1.28-22.5 1.25-8.66-.04-17.63-.72-23.5-1.79-5.22-.95-10.53-2.12-11.79-2.6-2.11-.82-2.28-.62-2.25 2.59m-67.96 20.48v16h13v-32h-13zm-118.65 9.36c-.34.75-.44 4.01-.23 7.25.37 5.7.48 5.9 3.38 6.23 1.65.19 7.16.08 12.25-.25l9.25-.59v-14c-21.21 0-24.19.32-24.65 1.36m118.65 16.64v7h13v-14h-13zm-347.25-1.31c-6.22.28-6.86.52-8.14 3.06-.77 1.51-4.19 10.62-7.61 20.25-3.42 9.62-9.04 25.37-12.49 35-3.45 9.62-10.12 28.3-14.84 41.5-4.71 13.2-8.85 25.12-9.19 26.5-.43 1.7.01 3.29 1.36 5l1.98 2.5c153.14.52 157.92.43 159.79-1.23 1.09-.98 3.61-6.5 5.59-12.27 1.98-5.78 7.43-21.53 12.1-35 4.67-13.48 11.96-34.4 16.19-46.5s8.38-24.25 9.22-27 1.28-6.13.98-7.5c-.31-1.38-1.71-3.06-3.12-3.75-1.99-.97-18.53-1.21-73.82-1.06-39.19.11-74.29.34-78 .5m228.43 4.56.32 3.25 24.5.5v-7h-25.14zm215.85 20.22-.03 2.53c22.84 0 23-.03 22.75-2.25-.24-2.17-.67-2.26-11.47-2.53l-11.21-.29zm-13.79 6.16c-1.63.27-2.25 1.06-2.25 2.88v2.5l51.5-.5v-5c-36.42-.19-48.01-.08-49.25.12M39.07 510.96 39 572.03c68.42.58 73.07.83 77.5 2.45 2.75 1.01 6.92 3.12 9.25 4.69 2.34 1.57 4.48 2.86 4.75 2.86.28 0 .5-27 .5-60v-60c-6.58-5.37-11.2-7.95-14.5-9.2-5.76-2.18-7.41-2.28-41.68-2.61l-35.68-.33zM155 451.42c-3.02.67-7.07 2.04-9 3.05-1.92 1.01-5.18 3.12-7.25 4.69l-3.75 2.87v121c6.59-4.72 10.98-7.07 14-8.26 5.24-2.07 7.24-2.19 42.25-2.46l36.75-.28v-122c-56.33.14-69.32.57-73 1.39m931.24 11.44c-13.34 6.42-23.92 11.99-23.5 12.38.42.38 11.34 5.72 24.26 11.86 12.93 6.13 26.88 12.7 31 14.6l7.5 3.46c21.7-10.27 32.95-15.64 39-18.57l11-5.31c-26.35-12.75-37.37-18.04-41.5-19.97-4.12-1.93-10.76-5.04-14.75-6.9-3.98-1.86-7.58-3.34-8-3.3-.41.05-11.66 5.34-25.01 11.75M350 464.74c-1.37.24-8.01 1.53-14.75 2.86-6.73 1.34-15.17 2.43-18.75 2.43H310c5.04 7.17 8.98 11.11 12 13.38 3.02 2.26 7.41 6.03 9.75 8.37l4.25 4.25c2.78-5.04 5.33-7.85 7.45-9.5 2.13-1.65 5.88-4.8 8.34-7s5.76-5.91 7.34-8.25 2.65-4.93 2.37-5.75c-.35-1.05-1.77-1.46-4.75-1.37-2.33.08-5.37.34-6.75.58m702.59 13.95c-2.16.85-3.86 1.84-3.79 2.19.07.36 2.96 2.08 6.42 3.83 3.45 1.74 17.31 8.39 30.78 14.77 13.48 6.37 25.07 11.58 25.75 11.57.69-.01 2.84-.81 4.77-1.77 1.94-.96 3.53-1.98 3.53-2.25 0-.28-4.4-2.61-9.77-5.18-5.38-2.58-19.34-9.21-31.03-14.75-11.68-5.54-21.58-10.05-22-10.02-.41.03-2.51.75-4.66 1.61m-444.5 13.59c-2.89 8.78-2.96 9.34-1.32 11.04.95.98 3.08 2.19 4.73 2.69 1.65.49 5.2 1.04 7.87 1.21l4.88.31c5.54-14.61 6.94-18.97 6.7-19.12-.25-.15-4.38-1.42-9.2-2.83-4.81-1.4-9.16-2.55-9.68-2.55-.51 0-2.3 4.16-3.98 9.25M269 502.95c-1.81 1.86-2.87 4.04-2.92 6-.05 1.91.84 4.12 2.34 5.83 1.77 2.02 3.34 2.75 5.92 2.75 2.37 0 4.34-.81 6.11-2.5 1.78-1.71 2.6-3.53 2.58-5.75-.02-1.79-.36-3.99-.78-4.89-.41-.91-1.98-2.26-3.5-3-1.51-.75-3.68-1.36-4.82-1.36-1.15 0-3.36 1.31-4.93 2.92m123.75-1.38c-1.51.8-3.2 2.81-3.75 4.46q-1 3 0 6c.58 1.73 2.27 3.63 4 4.5 1.67.83 4.34 1.28 6 1 1.71-.29 3.88-1.69 5.04-3.25 1.12-1.51 2.02-3.99 2-5.5-.02-1.69-1.19-3.91-3.04-5.75-1.65-1.65-4.01-2.98-5.25-2.96-1.23.02-3.48.69-5 1.5M554 510.53v4.5c57.03 0 58.99.11 58.74 1.75-.24 1.61-2.53 1.77-29.5 2-22.57.19-29.24.53-29.27 1.5-.02.69.88 2.49 2 4s3.38 3.42 5.03 4.25c2.61 1.3 16.78 1.5 108.75 1.52l105.75.02c4.24-4.3 5.48-5.88 5.49-6.29 0-.41-33.29-.75-73.99-.75-63.55 0-74.49-.21-77.5-1.5-2.35-1.01-4.06-2.73-5.22-5.25-.94-2.06-1.73-3.83-1.75-3.93-.01-.1-2.95-.67-6.53-1.27-3.57-.59-7.85-1.91-9.5-2.94-2.52-1.56-3.15-1.63-4-.46-.85 1.2-3.66 1.19-19.5-.12-10.17-.83-20.86-1.52-23.75-1.53H554zm486.87 22.1c-1.16 1.35-1.13 2 .17 4.25.85 1.46 2.11 2.65 2.81 2.65.71 0 2.04-1.2 2.97-2.67 1.5-2.38 1.52-2.85.18-4.3-.82-.89-2.23-1.6-3.13-1.58-.91.03-2.26.77-3 1.65m-213.12 10.1-7.75.3v22h87c0-21.6-.08-22.02-2.25-22.49-1.23-.27-17.32-.4-35.75-.3-18.42.11-36.98.32-41.25.49m-383.59 10.14-.16 4.16c50.14.7 58.19 1.17 64 2.49 4.13.94 9.87 2.56 12.75 3.61 3.11 1.12 6.7 3.43 8.79 5.65 1.95 2.06 3.97 5.21 4.5 7 .67 2.26 1.57 3.25 2.96 3.25q2 0 2 2c0 1.1.9 3.35 2 5 1.62 2.43 2.71 3 5.75 3.02 2.62.02 4.41-.66 5.93-2.25 1.2-1.25 2.44-3.4 2.76-4.77.32-1.38 1.48-2.84 2.57-3.25 1.25-.47 2.41-2.35 3.11-5 .63-2.44 2.46-5.53 4.28-7.25 1.74-1.65 4.72-3.77 6.63-4.71 1.91-.93 7.07-2.69 11.47-3.9 7.18-1.97 10.92-2.23 36.25-2.54l28.25-.35-.5-5.5c-37.59.28-50.38.93-58 1.96-6.6.89-15.37 2.53-19.5 3.65-4.12 1.11-9.71 3.23-12.41 4.71-2.71 1.47-5.74 4.03-6.75 5.68-1.09 1.79-1.83 4.91-1.83 7.75-.01 3.12-.43 4.75-1.26 4.76-.73.01-1.54-1.97-1.95-4.75-.52-3.5-1.57-5.62-4-8.02-1.92-1.89-6.22-4.32-10.3-5.82-3.85-1.41-11.05-3.4-16-4.42-4.95-1.03-15.3-2.55-23-3.4-7.7-.84-21.69-1.84-31.09-2.22l-17.09-.69zM596 559.04c-3.57.42-9.42 1.5-13 2.42-3.57.91-8.41 2.76-10.75 4.11s-5.15 3.92-6.24 5.7c-1.1 1.79-2 4.27-2 5.5l-.01 2.25h84v-11c-16.33 0-18-.27-18-1.5 0-1.2 1.75-1.55 8.75-1.75 8.51-.24 8.76-.31 9.06-2.75.28-2.27-.12-2.56-4.5-3.25-2.64-.42-12.91-.7-22.81-.62s-20.92.48-24.5.89m-151.52 2.48c-.26.83-.25 1.95.02 2.5.28.55 3.65 1 7.5 1 5.56 0 7 .31 7 1.5 0 1.2-1.5 1.5-7.5 1.5H444l.5 10.5c77.32.45 86.5.24 86.5-.75 0-.68-.83-2.6-1.83-4.25-1.01-1.65-4.05-4.19-6.75-5.66-2.71-1.47-7.62-3.36-10.92-4.2s-10.72-2.01-16.5-2.59c-5.77-.58-19.4-1.06-30.27-1.05-16.7 0-19.85.24-20.25 1.5m611.27.05c-1.51.8-3.2 2.35-3.75 3.45s-1 3.8-1 6c0 3.12.67 4.67 3 7 2.41 2.41 3.84 3 7.25 2.97 2.34-.01 4.95-.58 5.8-1.25s2.31-2.34 3.26-3.72c.94-1.37 1.7-3.96 1.7-5.75-.01-2.37-.95-4.19-3.51-6.75-2.6-2.59-4.34-3.48-6.75-3.45-1.79.02-4.49.69-6 1.5m17.29 1.7c1.85 2.64 2.2 4.23 1.87 8.39-.26 3.3-1.12 5.89-2.41 7.28l-2 2.15 59.5-.07v-21h-19c0 11.34-.22 12-2 12s-2-.66-2-6v-6h-36.24zm59.96 7.25v10.5h35c3.54-5.6 4.02-7.74 3.77-11-.19-2.47-1.11-5.73-2.06-7.25l-1.71-2.75h-35zm-36 23.5v9c4.26-2.9 6.17-4.49 7-5.41.82-.92 1.84-1.65 2.25-1.63s2.79 1.96 5.29 4.29l4.54 4.25-.08-19.5h-19zm-833 6.5v4.5h147v-9H264z" clip-rule="evenodd"/><path fill="#0a0a0a" fill-rule="evenodd" d="M1132.96 42.63c-1.19 1.45-2.12 3.7-2.06 5 .05 1.31 1.45 3.72 3.1 5.37s4.01 3.02 5.25 3.03c1.24.02 3.49-.88 5-2 2.29-1.69 2.75-2.78 2.75-6.53 0-3.55-.47-4.82-2.25-6.01-1.24-.83-3.91-1.5-5.93-1.5-2.76.01-4.23.67-5.86 2.64M956 111.5c0 5.78-.23 11.17-.5 12-.41 1.24-3.06 1.5-15.5 1.5h-15c.75 3.49.98 9.11.99 14.75.01 9.58.14 10.25 2.01 10.25 1.88 0 2-.67 2-11v-11h53c0 21.33.12 22 2 22s2-.67 2-11c0-6.67.39-11 1-11 .55 0 1-.68 1-1.5 0-1.27-2.33-1.5-15-1.5h-15v-10c10.85 0 14-.22 14-.5s-.67-1.63-1.5-3c-1.33-2.22-1.33-2.83 0-5.5l1.5-3c-11 0-14-.43-14-1 0-.55-.67-1-1.5-1-1.24 0-1.5 1.83-1.5 10.5m-19.94 28.95c-.05 6.07.23 7.55 1.44 7.55 1.13 0 1.56-1.41 1.75-5.67.15-3.52.73-5.8 1.5-6 .89-.23 1.25 1.26 1.25 5.17 0 4.83.24 5.5 2 5.5 1.83 0 1.98-.58 1.75-6.75l-.25-6.75-9.39-.61zm17.15-1.19c.16 3.43.75 6.25 1.3 6.25s1.11-2.14 1.25-4.75c.18-3.45.66-4.75 1.75-4.75 1.08 0 1.57 1.29 1.75 4.67.14 2.71.77 4.81 1.5 5 .9.23 1.25-1.47 1.25-6.17v-6.5h-9.1zm15.8.75c0 6.33.19 7 2 7 1.78 0 1.97-.59 1.75-5.25-.2-4.12.07-5.25 1.25-5.25 1.13 0 1.56 1.41 1.75 5.75.19 4.33.62 5.75 1.75 5.75 1.2 0 1.5-1.5 1.5-7.5v-7.5h-10zm-31.5 10.55c-8.25 1.26-18.71 2.78-23.25 3.37l-8.25 1.08v10h103c0-7.17-.51-9.21-1.25-9.5-.69-.27-12.28-2.08-25.75-4.01-13.48-1.93-25.63-3.45-27-3.37-1.38.08-9.25 1.17-17.5 2.43m-18.03 26.27c-1.66 1.66-1.82 3.64-1.65 21.5.15 16.74.4 19.68 1.68 19.68s1.5-2.84 1.5-19.5c0-12 .38-19.7 1-20 .55-.28 1.69.06 2.54.75 1.3 1.04 1.54 4.26 1.5 20-.03 14.52.24 18.67 1.21 18.41.93-.25 1.31-5.18 1.5-19.5.23-18.01.13-19.28-1.75-21.16-1.1-1.1-2.84-2-3.85-2-1.02 0-2.68.82-3.68 1.82m67-.41c-1.84 1.32-1.99 2.81-2.22 21.5-.24 19.5-.19 20.09 1.75 20.09 1.92 0 2.01-.75 2.25-19.75.21-16.78.47-19.75 1.75-19.75 1.27 0 1.54 2.97 1.75 19.75.23 18.16.39 19.72 2 19.48 1.6-.25 1.75-1.98 1.75-20.08 0-18.67-.12-19.9-2-21.25-1.1-.79-2.69-1.43-3.53-1.42s-2.41.65-3.5 1.43m-45.47 3.59c0 2.66.33 3 3 3 2.16 0 3.14-.56 3.5-2 .27-1.1.27-2.45 0-3-.28-.55-1.85-1-3.5-1-2.67 0-3 .33-3 3m13 0c0 2.66.33 3 3 3 2.66 0 3-.34 3-3 0-2.67-.34-3-3-3-2.67 0-3 .33-3 3m13 0c0 2.66.33 3 3 3 2.66 0 3-.34 3-3 0-2.67-.34-3-3-3-2.67 0-3 .33-3 3m-16 9.07c-1.38.58-3.34 1.81-4.36 2.74s-2.71 3.37-3.75 5.44c-1.41 2.8-1.89 5.89-1.89 12.25 0 6.88.28 8.5 1.5 8.5 1.21 0 1.55-1.83 1.75-9.44.24-8.97.4-9.59 3.25-12.55 1.65-1.71 4.57-3.6 6.5-4.2 2.91-.91 4.16-.77 7.43.8 2.17 1.04 4.87 3.16 6 4.72 1.66 2.27 2.12 4.58 2.32 11.75.2 7.15.55 8.92 1.75 8.92 1.21 0 1.49-1.56 1.44-8.25-.03-4.54-.59-9.79-1.25-11.66-.65-1.87-2.77-4.69-4.69-6.25-2.46-2-4.99-2.99-8.5-3.34-2.75-.27-6.13-.02-7.5.57m-7.5 146.59c-.46.37-.76 8.24-.67 17.5.16 16.11.25 16.84 2.17 16.84s2-.67 2-17.5c0-13.92-.27-17.5-1.34-17.5-.73 0-1.7.3-2.16.66m183.43 13.62c-2.12 1.41-3.98 3.8-4.86 6.25-1.25 3.46-1.25 4.48.04 7.97.92 2.47 2.8 4.87 4.93 6.27 1.9 1.26 4.7 2.27 6.21 2.25 1.51-.01 4.1-.7 5.75-1.52 1.65-.83 3.9-2.97 4.99-4.75 1.1-1.79 2-4.6 2-6.25s-.9-4.47-2-6.25c-1.09-1.79-3.34-3.93-4.99-4.75-1.65-.83-4.27-1.5-5.82-1.5s-4.36 1.02-6.25 2.28m-531.92 7.97c0 .68 3.81 13.17 8.46 27.75l8.46 26.5c3.93 42.62 5.29 56.91 5.57 59.25.34 2.88.98 4.25 2 4.25.82 0 1.7-.34 1.94-.75.25-.42-.41-9.98-1.46-21.25-1.05-11.28-2.39-25.45-2.97-31.5-.9-9.44-2.29-14.89-9.78-38.28-7.06-22.04-9.07-27.26-10.48-27.25-.96.02-1.75.59-1.74 1.28m379.49 4.08c-1.1.75-2.64 2.89-3.42 4.76-.97 2.35-1.21 5.11-.76 8.91.45 3.74 1.38 6.22 2.92 7.77a7.63 7.63 0 0 0 5.51 2.25c2.46-.02 3.87-.82 5.8-3.27 2.25-2.87 2.52-4.04 2.25-9.92-.25-5.5-.74-7.12-2.8-9.27-1.41-1.48-3.59-2.61-5-2.6-1.38.01-3.4.63-4.5 1.37m30 0c-1.1.75-2.64 2.89-3.41 4.76-.92 2.23-1.22 5.31-.87 8.91.44 4.54 1.08 5.97 3.66 8.25 1.71 1.51 3.91 2.76 4.87 2.79.96.02 2.78-.77 4.04-1.75 1.25-.99 2.88-3.59 3.6-5.79.92-2.78 1.07-5.54.5-9-.56-3.4-1.64-5.73-3.36-7.25-1.39-1.24-3.54-2.26-4.78-2.26-1.24-.01-3.15.6-4.25 1.34m155.09 3.67c-.34 1.14-.06 2.25.66 2.6.69.33 1.7.13 2.25-.46s.66-1.76.25-2.61c-.41-.84-1.16-1.53-1.66-1.53-.49 0-1.17.9-1.5 2m-3.02 8.75c-.33.96-.37 1.97-.09 2.25.27.27 1.18.16 2.01-.25.83-.42 1.51-1.43 1.51-2.25 0-.83-.64-1.5-1.42-1.5s-1.68.78-2.01 1.75m-4 8c-.33.96-.37 1.97-.09 2.25.27.27 1.18.16 2.01-.25.83-.42 1.51-1.43 1.51-2.25 0-.83-.64-1.5-1.42-1.5s-1.68.78-2.01 1.75m-4.37 6.7c-.66.85-.98 2-.7 2.55.27.55.95 1 1.5 1s1.23-.79 1.52-1.75c.29-.97.15-2.11-.3-2.55-.45-.43-1.36-.1-2.02.75m-6.09 7.05c-.61.82-.89 1.95-.61 2.5.29.57 1.33.26 2.48-.75 1.09-.97 1.76-2.09 1.5-2.5-.27-.42-.88-.75-1.37-.75s-1.39.67-2 1.5m-405.11 41.3c-2.48.9-5.74 2.89-7.25 4.42-1.99 2.01-2.76 3.81-2.8 6.53-.04 3.08.63 4.37 3.75 7.28 2.29 2.14 5.78 4.09 8.8 4.91 3.11.85 7.65 1.18 12 .87 4.34-.31 8.61-1.32 11.25-2.66 2.34-1.18 5.17-3.62 6.29-5.4 1.37-2.19 1.86-4.24 1.51-6.25-.3-1.68-2.02-4.33-3.89-6-1.85-1.65-5.11-3.56-7.26-4.24s-7.05-1.2-10.9-1.17c-3.85.04-9.03.8-11.5 1.71m-684 51.7v20.5l68.5-.5.32-40.5H53.01zm95-11c0 1.3 4.44 1.5 34 1.5 29.55 0 34-.2 34-1.5 0-1.31-4.45-1.5-34-1.5-29.56 0-34 .19-34 1.5m-98.55 44.73c-.36.7-.28 1.6.19 2.01s17.06.63 36.86.5c31.22-.21 36-.44 36-1.74 0-1.31-4.81-1.54-36.19-1.77-28.34-.2-36.33.01-36.86 1m98.55.27c0 1.3 4.44 1.5 34 1.5 29.55 0 34-.2 34-1.5 0-1.31-4.45-1.5-34-1.5-29.56 0-34 .19-34 1.5m1 14c0 .93.94 1.5 2.5 1.5 1.55 0 2.5-.57 2.5-1.5 0-.94-.95-1.5-2.5-1.5-1.56 0-2.5.56-2.5 1.5m9 0c0 .94.79 1.4 2.17 1.25 1.19-.14 2.32-.82 2.5-1.5.2-.76-.66-1.25-2.17-1.25-1.56 0-2.5.56-2.5 1.5m9.08-.07q-.09 1.57 2.17 1.32c1.24-.14 2.25-.7 2.25-1.25s-.98-1.15-2.17-1.32c-1.42-.21-2.2.22-2.25 1.25m8.92.07c0 .94.79 1.4 2.17 1.25 1.19-.14 2.32-.82 2.5-1.5.2-.76-.66-1.25-2.17-1.25-1.56 0-2.5.56-2.5 1.5m-127 8.5v9h71v-18h-71zm99 5.5c0 1.3 4.44 1.5 34 1.5 29.55 0 34-.2 34-1.5 0-1.31-4.45-1.5-34-1.5-29.56 0-34 .19-34 1.5m715 4q0 1.5 3 1.5t3-1.5-3-1.5-3 1.5m-392.52 11.68c-.34.72-.47 2.22-.29 3.32.23 1.37 1.11 2 2.82 2 2.1 0 2.49-.48 2.49-3 0-2.33-.5-3.08-2.2-3.32-1.21-.18-2.48.27-2.82 1" clip-rule="evenodd"/><path fill="#fff6e2" d="M554.5 27c-.27-.55-.29-1.68-.02-2.5.26-.82.82-1.52 1.25-1.54.42-.03 1.33.65 2.02 1.5.69.84 1.02 1.99.75 2.54s-1.17 1-2 1-1.73-.45-2-1m106.64.8c-.75-.72-1.07-1.86-.7-2.55.36-.69 1.31-1.25 2.11-1.25s1.68.45 1.95 1-.06 1.7-.75 2.55c-1.03 1.27-1.49 1.32-2.61.25m473.66 20.4c-.11-1.54.43-3.34 1.2-4s2.32-1.21 3.45-1.22 2.62.56 3.32 1.25c.69.7 1.27 2.17 1.28 3.27s-.91 2.9-2.04 4c-1.78 1.73-2.39 1.83-4.53.75-1.65-.833-2.54-2.183-2.68-4.05M962.75 112c-3.5 0-3.75-.2-3.75-3 0-2.81.24-3 3.83-3 3.61 0 3.83.17 3.75 3-.07 2.79-.35 3-3.83 3m-49.66 45.5c2.42-.35 12.74-1.89 22.91-3.43s18.95-2.86 19.5-2.93c.55-.06 11.69 1.45 24.75 3.37s23.98 3.49 24.25 3.49.5.9.5 2c0 1.97-.67 2-48 2-46.77 0-48-.05-48.16-1.94-.14-1.57.68-2.06 4.25-2.56m211.34 201c.35-1.65 1.83-4.24 3.29-5.75 1.54-1.6 3.72-2.75 5.21-2.75 1.41.01 4.03.91 5.82 2 2.24 1.38 3.43 3.01 3.83 5.25.33 1.84 0 4.5-.75 6.14-.73 1.58-2.57 3.5-4.08 4.25s-4.1 1.13-5.75.86c-1.79-.3-4.05-1.81-5.6-3.75-2.03-2.53-2.46-3.91-1.97-6.25M973.5 373c0-4.27.5-6.34 1.9-7.89 1.04-1.16 2.73-2.11 3.75-2.11s2.52 1.12 3.35 2.5c.83 1.37 1.52 4.64 1.53 7.25.03 3.25-.6 5.62-2 7.5-1.11 1.51-2.59 2.76-3.28 2.78s-2.15-.93-3.25-2.1c-1.52-1.63-2-3.52-2-7.93m29.43-.8c-.04-1.81.65-4.63 1.52-6.25 1.1-2.05 2.35-2.95 4.07-2.95 1.64 0 3.03.93 4.12 2.75 1.2 2.02 1.5 4.21 1.12 8.25-.4 4.25-1.06 5.91-2.89 7.3-1.3.98-2.82 1.63-3.37 1.44-.55-.2-1.79-1.91-2.75-3.8s-1.78-4.92-1.82-6.74m-270.22 72.01c.98-1.26 3.59-2.95 5.79-3.76 2.63-.98 6.56-1.36 11.5-1.13 4.39.2 8.85 1.03 10.75 2.01 1.79.92 3.92 2.79 4.75 4.17 1.33 2.22 1.33 2.78 0 5-.83 1.37-2.96 3.24-4.75 4.15s-6.17 1.87-9.75 2.14c-3.84.29-8.14-.03-10.5-.77-2.2-.7-5.25-2.44-6.77-3.89-1.53-1.45-2.78-3.31-2.79-4.13-.02-.82.78-2.53 1.77-3.79M56.5 505.5l-.27-17.25-.28-17.25h62.83l-.28 34.5zM53.01 551v-12h63v12z"/></g></svg>