<svg width="20" height="20" viewBox="0 0 20 20" fill="none" xmlns="http://www.w3.org/2000/svg">
<path d="M17.85 9.10156C17.9991 9.03575 18.1257 8.92762 18.2141 8.79056C18.3024 8.65351 18.3486 8.49355 18.3469 8.33051C18.3452 8.16746 18.2957 8.00849 18.2046 7.87329C18.1134 7.73809 17.9846 7.6326 17.8341 7.56989L10.6916 4.31656C10.4745 4.21751 10.2386 4.16626 9.99995 4.16626C9.7613 4.16626 9.52542 4.21751 9.30829 4.31656L2.16662 7.56656C2.01826 7.63153 1.89205 7.73834 1.80343 7.8739C1.7148 8.00947 1.6676 8.16793 1.6676 8.32989C1.6676 8.49186 1.7148 8.65031 1.80343 8.78588C1.89205 8.92144 2.01826 9.02825 2.16662 9.09322L9.30829 12.3499C9.52542 12.4489 9.7613 12.5002 9.99995 12.5002C10.2386 12.5002 10.4745 12.4489 10.6916 12.3499L17.85 9.10156Z" stroke="#F3F4F6" stroke-width="1.25" stroke-linecap="round" stroke-linejoin="round"/>
<path d="M18.3334 8.33325V13.3333" stroke="#F3F4F6" stroke-width="1.25" stroke-linecap="round" stroke-linejoin="round"/>
<path d="M5 10.4167V13.3334C5 13.9965 5.52678 14.6323 6.46447 15.1012C7.40215 15.57 8.67392 15.8334 10 15.8334C11.3261 15.8334 12.5979 15.57 13.5355 15.1012C14.4732 14.6323 15 13.9965 15 13.3334V10.4167" stroke="#F3F4F6" stroke-width="1.25" stroke-linecap="round" stroke-linejoin="round"/>
</svg>
