<svg width="18" height="18" viewBox="0 0 18 18" fill="none" xmlns="http://www.w3.org/2000/svg">
<g clip-path="url(#clip0_96_3050)">
<path d="M15.75 4.87493C15.75 5.49743 15.2475 5.99993 14.625 5.99993H13.485C13.29 8.92493 10.845 11.2499 7.87498 11.2499H6.52498L12.3375 16.0049C12.8175 16.3949 12.8925 17.1074 12.495 17.5874C12.27 17.8574 11.9475 17.9999 11.625 17.9999C11.3775 17.9999 11.1225 17.9174 10.9125 17.7449L2.66248 10.9949C2.29498 10.6949 2.15248 10.1924 2.31748 9.74243C2.47498 9.29243 2.90248 8.99243 3.37498 8.99243H7.87498C9.60748 8.99243 11.04 7.67993 11.2275 5.99243H3.37498C2.75248 5.99243 2.24998 5.48993 2.24998 4.86743C2.24998 4.24493 2.75248 3.74243 3.37498 3.74243H10.68C10.0725 2.83493 9.04498 2.24243 7.87498 2.24243H3.37498C2.75248 2.24243 2.24998 1.73993 2.24998 1.11743C2.24998 0.494932 2.75248 -0.00756836 3.37498 -0.00756836H14.625C15.2475 -0.00756836 15.75 0.494932 15.75 1.11743C15.75 1.73993 15.2475 2.24243 14.625 2.24243H12.375C12.7125 2.69243 12.99 3.20243 13.185 3.74243H14.6325C15.255 3.74243 15.7575 4.24493 15.7575 4.86743L15.75 4.87493Z" fill="#8D191C"/>
</g>
<defs>
<clipPath id="clip0_96_3050">
<rect width="18" height="18" fill="white"/>
</clipPath>
</defs>
</svg>
