<svg width="87" height="87" viewBox="0 0 87 87" fill="none" xmlns="http://www.w3.org/2000/svg">
<path d="M43.5 79.7463C63.5203 79.7463 79.75 63.5166 79.75 43.4963C79.75 23.476 63.5203 7.24628 43.5 7.24628C23.4797 7.24628 7.25 23.476 7.25 43.4963C7.25 63.5166 23.4797 79.7463 43.5 79.7463Z" stroke="#F3F4F6" stroke-width="7.25" stroke-linecap="round" stroke-linejoin="round"/>
<path d="M43.5 65.25C55.5122 65.25 65.25 55.5122 65.25 43.5C65.25 31.4878 55.5122 21.75 43.5 21.75C31.4878 21.75 21.75 31.4878 21.75 43.5C21.75 55.5122 31.4878 65.25 43.5 65.25Z" stroke="#F3F4F6" stroke-width="7.25" stroke-linecap="round" stroke-linejoin="round"/>
<path d="M43.5 50.7537C47.5041 50.7537 50.75 47.5078 50.75 43.5037C50.75 39.4997 47.5041 36.2537 43.5 36.2537C39.4959 36.2537 36.25 39.4997 36.25 43.5037C36.25 47.5078 39.4959 50.7537 43.5 50.7537Z" stroke="#F3F4F6" stroke-width="7.25" stroke-linecap="round" stroke-linejoin="round"/>
</svg>
