<svg width="92" height="39" viewBox="0 0 92 39" fill="none" xmlns="http://www.w3.org/2000/svg">
<path d="M12.1509 12.5141C11.7458 11.4643 11.2761 10.3409 10.742 9.14375C10.2079 7.92822 9.58173 6.51009 8.86345 4.88937L8.39381 3.86721L8.31094 3.70145C8.01626 2.98318 7.70317 2.41224 7.37166 1.98865C7.05856 1.54663 6.54288 1.14145 5.8246 0.773108L5.74173 0.386346L6.54288 0.469222C7.8505 0.579727 8.76216 0.634979 9.27784 0.634979C9.92245 0.634979 11.0275 0.588935 12.5929 0.496848L12.7863 0.855985C12.3812 1.11383 12.1786 1.59268 12.1786 2.29253C12.1786 2.9003 12.2706 3.45282 12.4548 3.95009C12.8968 5.12879 13.4125 6.46404 14.0019 7.95584C14.6096 9.44764 15.1898 10.8842 15.7423 12.2655C16.2212 13.4994 16.9947 15.3504 18.0629 17.8183L18.1734 18.0393C18.7627 16.5475 19.4258 14.9084 20.1624 13.1219C20.5308 12.1642 20.936 11.0776 21.378 9.86203C21.8384 8.62807 22.3725 7.14548 22.9803 5.41426C23.1276 5.00908 23.2842 4.55786 23.4499 4.06059C23.7078 3.4344 23.8367 2.85426 23.8367 2.32016C23.8367 1.91498 23.7446 1.59268 23.5604 1.35325C23.3763 1.11383 23.0263 0.938863 22.5106 0.828359L22.704 0.386346C24.1222 0.533683 25.2088 0.607352 25.9639 0.607352C26.3322 0.607352 26.9492 0.579726 27.8148 0.524475C28.5515 0.469223 29.1317 0.432388 29.5553 0.413971L29.3895 0.773108C28.7817 1.03095 28.2568 1.43613 27.8148 1.98865C27.3728 2.54117 26.9492 3.2134 26.544 4.00534C26.1204 4.9262 25.6968 5.90232 25.2732 6.93368C24.8496 7.94663 24.3524 9.1898 23.7814 10.6632C23.4868 11.4367 23.2658 11.9984 23.1184 12.3484C22.879 12.9377 22.483 13.8678 21.9305 15.1386C21.3412 16.483 20.7794 17.7907 20.2453 19.0615C19.7296 20.3138 19.1495 21.7504 18.5049 23.3711C18.4681 23.4448 18.376 23.5276 18.2286 23.6197C18.0813 23.7118 17.8971 23.7579 17.6761 23.7579C17.4551 23.7579 17.2617 23.7026 17.096 23.5921C16.9302 23.4816 16.8197 23.3711 16.7645 23.2606C16.4698 22.4871 16.1014 21.5846 15.6594 20.5533C15.2174 19.5035 14.6096 18.1038 13.8361 16.3541C13.4125 15.4148 13.081 14.6689 12.8416 14.1164C12.6022 13.5639 12.3719 13.0298 12.1509 12.5141ZM34.9242 23.2053C34.2612 23.2053 33.0364 23.2882 31.2499 23.454L31.2223 22.9843C31.4433 22.8738 31.6643 22.6989 31.8853 22.4594C32.1063 22.22 32.3089 21.9345 32.4931 21.603C32.6957 21.2715 32.8522 20.9308 32.9627 20.5809C33.0917 20.2309 33.1561 19.9179 33.1561 19.6416C33.193 18.2419 33.2114 17.0908 33.2114 16.1884C33.2114 15.2675 33.2114 13.9691 33.2114 12.2931C33.2114 10.8934 33.193 9.46606 33.1561 8.01109C33.1193 6.55613 33.064 5.14721 32.9904 3.78433C32.9535 3.10289 32.8246 2.51354 32.6036 2.01627C32.401 1.50059 31.9958 1.04016 31.3881 0.634979V0.303468C32.2537 0.377137 32.9351 0.432388 33.4324 0.469222C33.9296 0.506058 34.4085 0.524475 34.8689 0.524475C35.2373 0.524475 35.8358 0.496849 36.6646 0.441597C37.3829 0.386345 37.9262 0.34951 38.2945 0.331093V0.662605C37.7973 0.920446 37.4381 1.34404 37.2171 1.9334C36.9961 2.50433 36.858 3.14893 36.8027 3.86721C36.7475 4.56706 36.7106 5.29455 36.6922 6.04965C36.6922 6.80476 36.6922 7.76246 36.6922 8.92275V12.2102C36.6922 13.5179 36.7106 14.6966 36.7475 15.7463C36.7843 16.7777 36.8396 18.0669 36.9132 19.614C36.9685 20.5348 37.2816 21.1702 37.8525 21.5202C38.4419 21.8517 39.243 22.0174 40.256 22.0174C40.9374 22.0174 41.6281 21.9161 42.3279 21.7135C43.0278 21.5109 43.6447 21.1979 44.1788 20.7743C44.4919 20.5348 44.8787 20.056 45.3391 19.3377C45.6154 18.9141 45.8456 18.601 46.0298 18.3984C46.2324 18.1774 46.4534 18.0669 46.6928 18.0669C46.9875 18.0669 47.1809 18.1222 47.2729 18.2327C47.365 18.3432 47.4111 18.4537 47.4111 18.5642C47.4111 18.7115 47.365 18.9049 47.2729 19.1443C47.1993 19.3838 47.0612 19.7245 46.8586 20.1665C46.4902 20.9953 46.2508 21.6122 46.1403 22.0174C46.0666 22.2937 45.9009 22.5607 45.643 22.8186C45.4036 23.0764 45.0445 23.2145 44.5656 23.233C44.4919 23.233 44.1328 23.2514 43.4882 23.2882C42.3832 23.3619 41.5544 23.3987 41.0019 23.3987C40.3573 23.3987 39.7955 23.3895 39.3167 23.3711C38.8563 23.3527 38.2669 23.3251 37.5486 23.2882C36.4436 23.233 35.5688 23.2053 34.9242 23.2053ZM61.8642 3.78433L68.4391 20.2494C68.7154 20.9676 69.0469 21.5478 69.4337 21.9898C69.8388 22.4318 70.3361 22.7817 70.9255 23.0396V23.4816C70.1704 23.3527 69.5073 23.2606 68.9364 23.2053C68.3839 23.1501 67.8682 23.1225 67.3894 23.1225C66.8184 23.1225 66.2475 23.1501 65.6765 23.2053C65.1056 23.2422 64.415 23.3251 63.6046 23.454V23.0672C63.6046 22.9383 63.7243 22.7173 63.9637 22.4042C64.3137 21.9438 64.4886 21.5754 64.4886 21.2992C64.4886 21.115 64.461 20.9216 64.4058 20.719C64.3689 20.498 64.3321 20.3507 64.2953 20.277L62.1681 14.4756C61.0078 14.3835 59.9764 14.3374 59.074 14.3374C57.8032 14.3374 56.7165 14.3835 55.8141 14.4756L53.383 20.7743V20.8019C53.2541 21.0966 53.1712 21.3268 53.1344 21.4925C53.0976 21.6399 53.0791 21.8148 53.0791 22.0174C53.0791 22.441 53.2449 22.8094 53.5764 23.1225V23.454C52.9502 23.3619 52.4253 23.2974 52.0017 23.2606C51.5781 23.2238 51.1822 23.2053 50.8138 23.2053C50.3902 23.2053 49.9482 23.2238 49.4878 23.2606C49.0273 23.2974 48.4288 23.3711 47.6921 23.4816L48.0512 23.0396C48.7327 22.8002 49.3128 22.4502 49.7917 21.9898C50.2889 21.5294 50.7033 20.9032 51.0348 20.1112L57.6098 4.14347C57.6466 4.0698 57.665 3.94088 57.665 3.7567C57.665 3.20419 57.4717 2.66088 57.0849 2.12678C56.7165 1.57426 56.2193 1.07699 55.5931 0.634979L55.4826 0.303468C56.9007 0.432388 58.1899 0.496848 59.3502 0.496848H60.5381L61.8642 3.78433ZM59.0187 13.039C59.5712 13.039 60.4184 13.0206 61.5603 12.9838V12.9009L59.1292 6.49167L56.5324 12.9009V12.9838C57.6374 13.0206 58.4662 13.039 59.0187 13.039ZM86.2591 -0.000416698C86.2039 0.349511 85.9552 0.957281 85.5132 1.82289C85.0712 2.72534 84.8042 3.37915 84.7121 3.78433C84.6937 3.89483 84.574 3.99613 84.3529 4.08822C84.1504 4.16189 83.9846 4.19872 83.8557 4.19872C83.5978 4.19872 83.4229 4.11584 83.3308 3.95009C83.2387 3.78433 83.1742 3.54491 83.1374 3.23181C83.119 3.06606 83.1006 2.96476 83.0822 2.92793C83.0269 2.67009 82.9164 2.48591 82.7506 2.37541C82.6033 2.24649 82.4375 2.17282 82.2534 2.1544C81.8114 2.13599 81.1115 2.12678 80.1538 2.12678H77.9714L77.8332 3.92246C77.7411 5.11958 77.6951 6.6298 77.6951 8.45311C77.6951 9.06088 77.7043 9.73311 77.7227 10.4698C77.7227 11.5012 77.7227 12.0997 77.7227 12.2655C77.7227 14.8071 77.7964 17.5328 77.9437 20.4427C77.999 21.6951 78.5423 22.5699 79.5737 23.0672V23.454C78.7081 23.3803 78.0082 23.3343 77.4741 23.3158C76.9584 23.279 76.4519 23.2606 75.9547 23.2606C75.4942 23.2606 75.0062 23.279 74.4905 23.3158C73.9932 23.3343 73.3578 23.3803 72.5843 23.454V23.0672C73.0816 22.8094 73.4683 22.4871 73.7446 22.1003C74.0209 21.6951 74.1682 21.1979 74.1866 20.6085C74.2234 18.7668 74.2419 16.0134 74.2419 12.3484C74.2419 10.4145 74.2419 8.79383 74.2419 7.4862C74.2419 6.17858 74.2234 4.85253 74.1866 3.50807L74.159 2.12678C73.2013 2.12678 72.3449 2.1544 71.5898 2.20965C70.8347 2.26491 70.0888 2.37541 69.3521 2.54117C69.1311 2.59642 68.864 2.69771 68.5509 2.84505C68.2563 2.99239 67.9432 3.20419 67.6117 3.48045C67.5748 3.49886 67.5104 3.55411 67.4183 3.6462C67.2157 3.83037 67.0223 3.97771 66.8381 4.08822C66.654 4.19872 66.4422 4.25397 66.2027 4.25397C66.037 4.25397 65.8712 4.21714 65.7055 4.14347C65.5397 4.05138 65.4568 3.98692 65.4568 3.95009C65.4752 3.80275 65.641 3.50807 65.9541 3.06606C66.2856 2.60563 66.5066 2.2557 66.6171 2.01627C66.6355 1.96102 66.7 1.82289 66.8105 1.60188C67.1236 1.01253 67.3262 0.524475 67.4183 0.137713H68.5786C68.7627 0.340302 68.9285 0.469223 69.0758 0.524475C69.2232 0.579726 69.481 0.616561 69.8493 0.634979C71.3596 0.653396 73.6157 0.662605 76.6177 0.662605C77.6122 0.662605 79.1685 0.62577 81.2865 0.552101C82.0416 0.533684 82.8059 0.515266 83.5794 0.496848C83.8741 0.478431 84.2701 0.377136 84.7673 0.192964C85.0068 0.100878 85.1909 0.0364174 85.3199 -0.000416698H86.2591Z" fill="#8D191C"/>
<path d="M1.87186 32.3482L3.36303 36.5765H3.42189L4.91306 32.3482H5.55073L3.70639 37.3711H3.07853L1.23419 32.3482H1.87186ZM6.05685 32.3482H6.78281L8.48981 36.5176H8.54867L10.2557 32.3482H10.9816V37.3711H10.4126V33.5549H10.3636L8.79393 37.3711H8.24455L6.6749 33.5549H6.62585V37.3711H6.05685V32.3482ZM11.9249 37.3711V32.3482H13.6221C14.0145 32.3482 14.3366 32.4152 14.5884 32.5493C14.8402 32.6818 15.0266 32.8641 15.1476 33.0962C15.2686 33.3284 15.3291 33.5925 15.3291 33.8884C15.3291 34.1844 15.2686 34.4468 15.1476 34.6757C15.0266 34.9046 14.841 35.0845 14.5909 35.2153C14.3407 35.3444 14.0211 35.409 13.6319 35.409H12.2585V34.8596H13.6123C13.8805 34.8596 14.0963 34.8204 14.2598 34.7419C14.4249 34.6634 14.5443 34.5523 14.6179 34.4084C14.6931 34.2629 14.7307 34.0895 14.7307 33.8884C14.7307 33.6873 14.6931 33.5115 14.6179 33.3611C14.5426 33.2107 14.4225 33.0946 14.2573 33.0129C14.0922 32.9295 13.8739 32.8878 13.6025 32.8878H12.5332V37.3711H11.9249ZM14.2892 35.1147L15.5253 37.3711H14.819L13.6025 35.1147H14.2892ZM16.0664 37.3711V32.3482H19.0782V32.8878H16.6746V34.585H18.8525V35.1245H16.6746V37.3711H16.0664ZM21.5098 37.3711V32.3482H22.1181V36.8315H24.4529V37.3711H21.5098ZM25.6415 37.3711H25.0038L26.8481 32.3482H27.476L29.3203 37.3711H28.6827L27.1817 33.1428H27.1424L25.6415 37.3711ZM25.8769 35.409H28.4472V35.9486H25.8769V35.409ZM30.3476 37.3711L28.9742 32.3482H29.5922L30.6419 36.4391H30.691L31.7603 32.3482H32.447L33.5164 36.4391H33.5654L34.6151 32.3482H35.2332L33.8597 37.3711H33.2319L32.1233 33.3685H32.0841L30.9755 37.3711H30.3476ZM37.587 37.3711H36.9493L38.7936 32.3482H39.4215L41.2658 37.3711H40.6282L39.1272 33.1428H39.0879L37.587 37.3711ZM37.8224 35.409H40.3927V35.9486H37.8224V35.409ZM43.322 37.3711H41.772V32.3482H43.3907C43.8779 32.3482 44.2948 32.4488 44.6415 32.6499C44.9881 32.8493 45.2538 33.1363 45.4386 33.5107C45.6233 33.8835 45.7157 34.3299 45.7157 34.8498C45.7157 35.3731 45.6225 35.8235 45.4361 36.2012C45.2497 36.5773 44.9783 36.8667 44.6219 37.0694C44.2654 37.2705 43.8321 37.3711 43.322 37.3711ZM42.3802 36.8315H43.2827C43.6981 36.8315 44.0422 36.7514 44.3153 36.5912C44.5883 36.4309 44.7919 36.2028 44.926 35.9069C45.0601 35.611 45.1271 35.2586 45.1271 34.8498C45.1271 34.4443 45.0609 34.0953 44.9284 33.8026C44.796 33.5083 44.5981 33.2826 44.3349 33.1257C44.0717 32.9671 43.7438 32.8878 43.3514 32.8878H42.3802V36.8315ZM46.4597 32.3482H47.1857L48.8927 36.5176H48.9516L50.6585 32.3482H51.3845V37.3711H50.8155V33.5549H50.7665L49.1968 37.3711H48.6474L47.0778 33.5549H47.0287V37.3711H46.4597V32.3482ZM52.936 32.3482V37.3711H52.3278V32.3482H52.936ZM56.6262 33.6039C56.5968 33.3554 56.4774 33.1625 56.2681 33.0251C56.0589 32.8878 55.8022 32.8191 55.498 32.8191C55.2757 32.8191 55.0811 32.8551 54.9143 32.927C54.7492 32.999 54.62 33.0979 54.5268 33.2238C54.4352 33.3497 54.3895 33.4927 54.3895 33.653C54.3895 33.7871 54.4213 33.9023 54.4851 33.9988C54.5505 34.0936 54.6339 34.1729 54.7353 34.2367C54.8367 34.2988 54.9429 34.3503 55.0541 34.3912C55.1653 34.4304 55.2675 34.4623 55.3607 34.4869L55.8708 34.6242C56.0016 34.6585 56.1472 34.706 56.3074 34.7665C56.4693 34.8269 56.6238 34.9095 56.7709 35.0142C56.9197 35.1172 57.0423 35.2496 57.1388 35.4115C57.2353 35.5734 57.2835 35.772 57.2835 36.0075C57.2835 36.2789 57.2124 36.5241 57.0701 36.7432C56.9295 36.9623 56.7235 37.1365 56.4521 37.2656C56.1823 37.3948 55.8545 37.4594 55.4686 37.4594C55.1089 37.4594 54.7974 37.4013 54.5342 37.2853C54.2726 37.1692 54.0665 37.0073 53.9161 36.7996C53.7673 36.592 53.6831 36.3508 53.6635 36.0761H54.2914C54.3077 36.2658 54.3715 36.4228 54.4827 36.547C54.5955 36.6697 54.7377 36.7612 54.9094 36.8217C55.0827 36.8806 55.2691 36.91 55.4686 36.91C55.7008 36.91 55.9092 36.8724 56.094 36.7972C56.2788 36.7203 56.4251 36.6141 56.533 36.4784C56.6409 36.341 56.6949 36.1808 56.6949 35.9976C56.6949 35.8309 56.6483 35.6952 56.5551 35.5905C56.4619 35.4859 56.3393 35.4009 56.1872 35.3354C56.0351 35.27 55.8708 35.2128 55.6942 35.1638L55.0762 34.9872C54.6838 34.8744 54.3731 34.7133 54.1442 34.504C53.9153 34.2947 53.8008 34.0209 53.8008 33.6824C53.8008 33.4012 53.8769 33.1559 54.0289 32.9466C54.1826 32.7357 54.3886 32.5722 54.647 32.4561C54.907 32.3384 55.1972 32.2795 55.5177 32.2795C55.8414 32.2795 56.1292 32.3376 56.381 32.4537C56.6328 32.5681 56.8322 32.7251 56.9794 32.9246C57.1282 33.124 57.2067 33.3505 57.2148 33.6039H56.6262ZM60.7542 33.6039C60.7248 33.3554 60.6054 33.1625 60.3961 33.0251C60.1868 32.8878 59.9301 32.8191 59.626 32.8191C59.4036 32.8191 59.2091 32.8551 59.0423 32.927C58.8771 32.999 58.748 33.0979 58.6548 33.2238C58.5632 33.3497 58.5174 33.4927 58.5174 33.653C58.5174 33.7871 58.5493 33.9023 58.6131 33.9988C58.6785 34.0936 58.7619 34.1729 58.8632 34.2367C58.9646 34.2988 59.0709 34.3503 59.1821 34.3912C59.2933 34.4304 59.3955 34.4623 59.4887 34.4869L59.9988 34.6242C60.1296 34.6585 60.2751 34.706 60.4354 34.7665C60.5972 34.8269 60.7517 34.9095 60.8989 35.0142C61.0477 35.1172 61.1703 35.2496 61.2668 35.4115C61.3632 35.5734 61.4115 35.772 61.4115 36.0075C61.4115 36.2789 61.3404 36.5241 61.1981 36.7432C61.0575 36.9623 60.8515 37.1365 60.5801 37.2656C60.3103 37.3948 59.9824 37.4594 59.5966 37.4594C59.2369 37.4594 58.9254 37.4013 58.6621 37.2853C58.4005 37.1692 58.1945 37.0073 58.0441 36.7996C57.8953 36.592 57.8111 36.3508 57.7915 36.0761H58.4193C58.4357 36.2658 58.4994 36.4228 58.6106 36.547C58.7235 36.6697 58.8657 36.7612 59.0374 36.8217C59.2107 36.8806 59.3971 36.91 59.5966 36.91C59.8287 36.91 60.0372 36.8724 60.222 36.7972C60.4067 36.7203 60.5531 36.6141 60.661 36.4784C60.7689 36.341 60.8229 36.1808 60.8229 35.9976C60.8229 35.8309 60.7763 35.6952 60.6831 35.5905C60.5899 35.4859 60.4672 35.4009 60.3152 35.3354C60.1631 35.27 59.9988 35.2128 59.8222 35.1638L59.2042 34.9872C58.8117 34.8744 58.5011 34.7133 58.2722 34.504C58.0433 34.2947 57.9288 34.0209 57.9288 33.6824C57.9288 33.4012 58.0048 33.1559 58.1569 32.9466C58.3106 32.7357 58.5166 32.5722 58.775 32.4561C59.0349 32.3384 59.3252 32.2795 59.6456 32.2795C59.9694 32.2795 60.2571 32.3376 60.5089 32.4537C60.7607 32.5681 60.9602 32.7251 61.1074 32.9246C61.2562 33.124 61.3346 33.3505 61.3428 33.6039H60.7542ZM62.7435 32.3482V37.3711H62.1353V32.3482H62.7435ZM67.9249 34.8596C67.9249 35.3894 67.8292 35.8472 67.6379 36.2331C67.4466 36.619 67.1842 36.9165 66.8506 37.1258C66.5171 37.3351 66.1361 37.4398 65.7077 37.4398C65.2793 37.4398 64.8984 37.3351 64.5648 37.1258C64.2313 36.9165 63.9688 36.619 63.7775 36.2331C63.5862 35.8472 63.4906 35.3894 63.4906 34.8596C63.4906 34.3299 63.5862 33.8721 63.7775 33.4862C63.9688 33.1003 64.2313 32.8027 64.5648 32.5935C64.8984 32.3842 65.2793 32.2795 65.7077 32.2795C66.1361 32.2795 66.5171 32.3842 66.8506 32.5935C67.1842 32.8027 67.4466 33.1003 67.6379 33.4862C67.8292 33.8721 67.9249 34.3299 67.9249 34.8596ZM67.3362 34.8596C67.3362 34.4247 67.2635 34.0577 67.118 33.7584C66.9741 33.4592 66.7787 33.2328 66.5318 33.0791C66.2865 32.9254 66.0118 32.8485 65.7077 32.8485C65.4036 32.8485 65.1281 32.9254 64.8812 33.0791C64.6359 33.2328 64.4406 33.4592 64.295 33.7584C64.1511 34.0577 64.0792 34.4247 64.0792 34.8596C64.0792 35.2946 64.1511 35.6616 64.295 35.9609C64.4406 36.2601 64.6359 36.4865 64.8812 36.6402C65.1281 36.7939 65.4036 36.8708 65.7077 36.8708C66.0118 36.8708 66.2865 36.7939 66.5318 36.6402C66.7787 36.4865 66.9741 36.2601 67.118 35.9609C67.2635 35.6616 67.3362 35.2946 67.3362 34.8596ZM72.6543 32.3482V37.3711H72.0657L69.3286 33.4273H69.2796V37.3711H68.6713V32.3482H69.2599L72.0068 36.3018H72.0559V32.3482H72.6543ZM74.9867 32.8878V32.3482H78.7538V32.8878H77.1744V37.3711H76.5661V32.8878H74.9867ZM79.4163 37.3711V32.3482H82.4477V32.8878H80.0245V34.585H82.2907V35.1245H80.0245V36.8315H82.4869V37.3711H79.4163ZM86.0146 33.6039C85.9852 33.3554 85.8658 33.1625 85.6565 33.0251C85.4473 32.8878 85.1906 32.8191 84.8864 32.8191C84.6641 32.8191 84.4695 32.8551 84.3027 32.927C84.1376 32.999 84.0084 33.0979 83.9152 33.2238C83.8236 33.3497 83.7779 33.4927 83.7779 33.653C83.7779 33.7871 83.8097 33.9023 83.8735 33.9988C83.9389 34.0936 84.0223 34.1729 84.1237 34.2367C84.2251 34.2988 84.3313 34.3503 84.4425 34.3912C84.5537 34.4304 84.6559 34.4623 84.7491 34.4869L85.2592 34.6242C85.39 34.6585 85.5355 34.706 85.6958 34.7665C85.8577 34.8269 86.0122 34.9095 86.1593 35.0142C86.3081 35.1172 86.4307 35.2496 86.5272 35.4115C86.6237 35.5734 86.6719 35.772 86.6719 36.0075C86.6719 36.2789 86.6008 36.5241 86.4585 36.7432C86.3179 36.9623 86.1119 37.1365 85.8405 37.2656C85.5707 37.3948 85.2429 37.4594 84.857 37.4594C84.4973 37.4594 84.1858 37.4013 83.9226 37.2853C83.661 37.1692 83.4549 37.0073 83.3045 36.7996C83.1557 36.592 83.0715 36.3508 83.0519 36.0761H83.6798C83.6961 36.2658 83.7599 36.4228 83.8711 36.547C83.9839 36.6697 84.1261 36.7612 84.2978 36.8217C84.4711 36.8806 84.6575 36.91 84.857 36.91C85.0892 36.91 85.2976 36.8724 85.4824 36.7972C85.6672 36.7203 85.8135 36.6141 85.9214 36.4784C86.0293 36.341 86.0833 36.1808 86.0833 35.9976C86.0833 35.8309 86.0367 35.6952 85.9435 35.5905C85.8503 35.4859 85.7277 35.4009 85.5756 35.3354C85.4235 35.27 85.2592 35.2128 85.0826 35.1638L84.4646 34.9872C84.0722 34.8744 83.7615 34.7133 83.5326 34.504C83.3037 34.2947 83.1892 34.0209 83.1892 33.6824C83.1892 33.4012 83.2653 33.1559 83.4173 32.9466C83.571 32.7357 83.777 32.5722 84.0354 32.4561C84.2954 32.3384 84.5856 32.2795 84.9061 32.2795C85.2298 32.2795 85.5176 32.3376 85.7694 32.4537C86.0212 32.5681 86.2206 32.7251 86.3678 32.9246C86.5166 33.124 86.5951 33.3505 86.6032 33.6039H86.0146ZM87.121 32.8878V32.3482H90.8882V32.8878H89.3087V37.3711H88.7005V32.8878H87.121Z" fill="#8D191C"/>
</svg>
