<svg width="93" height="55" viewBox="0 0 93 55" fill="none" xmlns="http://www.w3.org/2000/svg">
<mask id="mask0_1213_5086" style="mask-type:luminance" maskUnits="userSpaceOnUse" x="2" y="10" width="89" height="26">
<path d="M90.3099 10H2V35.7728H90.3099V10Z" fill="white"/>
</mask>
<g mask="url(#mask0_1213_5086)">
<path d="M9.3901 23.5446C9.67732 24.2123 9.98823 24.9334 10.3199 25.7062C10.6545 26.4805 11.0335 27.3347 11.4569 28.2704C12.2386 30.0471 12.8279 31.4077 13.2276 32.3507C13.6303 33.2953 13.9738 34.12 14.258 34.8262C14.372 35.1134 14.5068 35.2585 14.6607 35.2585C14.794 35.2585 14.9095 35.1534 15.0042 34.9446C15.6157 33.3782 16.1738 31.9939 16.6802 30.7932C17.185 29.5896 17.7432 28.2704 18.3561 26.8373C19.0223 25.2739 19.508 24.1191 19.8129 23.3729L20.5591 21.543C21.1706 19.9958 21.6902 18.7033 22.1166 17.664C22.546 16.6217 22.9901 15.6135 23.4491 14.6378C23.8311 13.8561 24.256 13.1692 24.7223 12.577C25.1917 11.9847 25.7498 11.5569 26.3983 11.2919L26.4871 11.0905C26.2384 11.1112 25.8742 11.1305 25.3975 11.1497C24.5003 11.2252 23.8237 11.2623 23.3662 11.2623C22.5637 11.2623 21.5718 11.206 20.3874 11.0905L20.3045 11.2919C20.8167 11.4073 21.178 11.6028 21.3882 11.8782C21.597 12.155 21.7021 12.5029 21.7021 12.9204C21.7021 13.2284 21.6577 13.5452 21.5718 13.868C21.4889 14.1922 21.3897 14.5061 21.2757 14.8096C21.0862 15.3662 20.8197 16.1302 20.4762 17.1014C19.884 18.764 19.3821 20.1498 18.972 21.2587C18.5604 22.3647 18.174 23.3758 17.8113 24.2908L17.2072 25.8069C16.35 27.9077 15.7297 29.4356 15.3477 30.3905H15.0634C14.948 30.1033 14.7673 29.6828 14.5186 29.1291C13.429 26.63 12.6176 24.7216 12.0846 23.4025L11.8241 22.7984C11.1756 21.161 10.5997 19.7071 10.0948 18.4398C9.58849 17.1695 9.10732 15.9111 8.64984 14.6674C8.43961 14.0752 8.33597 13.486 8.33597 12.8967C8.33597 12.1905 8.55509 11.6931 8.99332 11.4044L8.87488 11.1734C7.53946 11.2534 6.52974 11.2919 5.84278 11.2919C5.3098 11.2919 4.4511 11.2445 3.26668 11.1497C3.1512 11.1305 2.97946 11.1112 2.75146 11.0905L2.80476 11.3215C3.55094 11.7005 4.08541 12.1121 4.40964 12.5533C4.7324 12.9915 5.04923 13.5541 5.35717 14.2411L5.44008 14.4661C5.45933 14.4868 5.53632 14.66 5.67104 14.9872C6.56676 16.9889 7.30109 18.6397 7.87405 19.9381C8.44553 21.238 8.95187 22.4402 9.3901 23.5446Z" fill="#8A1313"/>
<path d="M30.9558 34.684C31.7168 34.684 32.6806 34.7121 33.8458 34.7669C34.4735 34.8069 35.0495 34.8365 35.575 34.8557C36.0991 34.875 36.6884 34.8853 37.3398 34.8853C37.8728 34.8853 38.7315 34.8469 39.9159 34.7669C40.5821 34.7314 40.9538 34.7136 41.0293 34.7136C41.3372 34.6944 41.5859 34.5759 41.7754 34.3583C41.9679 34.1377 42.1026 33.8653 42.1781 33.541C42.2729 33.1976 42.5009 32.6054 42.8651 31.7644C43.0739 31.3262 43.2293 30.9649 43.3329 30.6807C43.4395 30.3935 43.4928 30.1521 43.4928 29.9582C43.4928 29.8634 43.478 29.779 43.4514 29.7035C43.4233 29.6251 43.37 29.5851 43.2915 29.5851C43.1612 29.5851 42.9421 29.8546 42.6341 30.3905C42.3691 30.8287 42.116 31.2063 41.8761 31.5216C41.6392 31.834 41.3565 32.1242 41.0293 32.3922C40.4963 32.8304 39.8049 33.1605 38.9565 33.3811C38.1067 33.6032 37.2998 33.7128 36.5344 33.7128C36.0014 33.7128 35.4995 33.6698 35.0302 33.5825C34.5638 33.4966 34.1449 33.3575 33.7747 33.1679C33.4031 32.9755 33.0967 32.7031 32.8568 32.3507C32.6199 31.9954 32.4911 31.5616 32.4719 31.0478C32.3919 29.4252 32.3327 28.0661 32.2942 26.9675C32.2587 25.8705 32.2409 24.6446 32.2409 23.2899C32.2409 20.3689 32.2498 18.4605 32.2705 17.5633C32.2705 16.7979 32.2794 16.2057 32.3001 15.7867C32.3194 15.3692 32.3371 14.9576 32.3534 14.5549C32.4127 13.7939 32.5563 13.1129 32.7857 12.5118C33.0137 11.9077 33.3957 11.4725 33.9287 11.203V11.0016C33.6829 11.0224 33.3321 11.0416 32.8746 11.0609C32.0129 11.1364 31.3541 11.1734 30.8966 11.1734C30.1149 11.1734 29.0933 11.1171 27.8349 11.0016V11.203C28.4626 11.6264 28.8846 12.1002 29.1022 12.6243C29.3228 13.1499 29.4531 13.7554 29.4931 14.4424C29.5671 15.8725 29.6248 17.3501 29.6648 18.878C29.7033 20.4059 29.724 21.9042 29.724 23.3728C29.724 25.1302 29.724 26.4864 29.724 27.4413C29.724 28.3933 29.7033 29.6058 29.6648 31.0775C29.6648 31.3617 29.6012 31.6815 29.4753 32.0368C29.3524 32.3892 29.191 32.7416 28.9897 33.0969C28.7913 33.4492 28.5722 33.7542 28.3323 34.0148C28.0955 34.2724 27.8615 34.4575 27.6335 34.5715L27.6632 34.8853C28.2509 34.8261 28.8313 34.7788 29.4042 34.7432C29.9802 34.7047 30.4969 34.684 30.9558 34.684Z" fill="#8A1313"/>
<path d="M58.2387 14.4957L56.924 11.1497H56.1482C55.6153 11.1497 55.0186 11.1364 54.3598 11.1082C53.6995 11.0772 53.1517 11.0416 52.7134 11.0016L52.7727 11.203C53.4004 11.6264 53.9186 12.1298 54.3302 12.7131C54.7403 13.2935 54.9461 13.8605 54.9461 14.4128C54.9461 14.5638 54.9179 14.7251 54.8632 14.8984L47.9343 31.646C47.2829 33.2138 46.2317 34.2265 44.7838 34.684L44.6417 34.8557C45.4782 34.7417 46.3265 34.684 47.1882 34.684C47.9699 34.684 48.7427 34.7417 49.5096 34.8557V34.684C49.1661 34.3405 48.9944 33.9674 48.9944 33.5647C48.9944 33.2612 49.1084 32.8126 49.3379 32.2204L51.8844 25.5759C53.1043 25.4456 54.4308 25.3804 55.864 25.3804C56.9137 25.3804 58.1736 25.4456 59.6423 25.5759L61.8749 31.7052C61.9341 31.8592 61.9874 32.0413 62.0348 32.25C62.0822 32.4603 62.1058 32.6513 62.1058 32.8245C62.1058 33.0732 61.9341 33.4344 61.5906 33.9082C61.3212 34.2724 61.1879 34.53 61.1879 34.684V34.8557C62.3161 34.6825 63.4442 34.5952 64.5694 34.5952C65.6191 34.5952 66.6688 34.6825 67.72 34.8557V34.6544C66.574 34.1969 65.7153 33.2435 65.1439 31.794L58.2387 14.4957ZM59.0441 24.2019C57.993 24.2612 56.9137 24.2908 55.8048 24.2908C54.7181 24.2908 53.661 24.2612 52.6305 24.2019V24.0598L55.9232 15.988H56.0061L59.0441 24.0598V24.2019Z" fill="#8A1313"/>
<path d="M89.48 10.6345H89.249C89.1335 10.67 88.9914 10.7174 88.8226 10.7766C88.2496 11.0061 87.7418 11.1304 87.3006 11.1497C86.4982 11.166 85.6972 11.1837 84.8963 11.203C82.6651 11.2829 81.0247 11.3214 79.975 11.3214C76.8245 11.3214 74.4571 11.3125 72.8745 11.2918C72.0335 11.2726 71.468 11.1008 71.1808 10.7766H70.8373C70.7618 11.0608 70.5619 11.5465 70.2392 12.2334L70.0082 12.6657C69.9327 12.8552 69.7417 13.1617 69.4338 13.5837C69.074 14.0974 68.8845 14.4483 68.8652 14.6378C68.8652 14.7533 68.9319 14.8095 69.0666 14.8095C69.2161 14.8095 69.4634 14.6481 69.8068 14.3239C69.9608 14.1907 70.0852 14.0855 70.1799 14.01C70.4834 13.7613 70.8269 13.5466 71.2104 13.3645C71.5923 13.1839 71.9358 13.0655 72.2408 13.0092C73.101 12.8197 73.9656 12.7013 74.8347 12.6539C75.7023 12.6035 76.7475 12.5769 77.9675 12.5769L77.9971 14.1522C78.0356 15.5661 78.0563 16.9592 78.0563 18.3331C78.0563 19.7071 78.0563 21.4067 78.0563 23.432C78.0563 27.2903 78.0356 30.1817 77.9971 32.1079C77.9763 32.6808 77.815 33.1857 77.5115 33.6239C77.2065 34.0622 76.8156 34.4056 76.3389 34.6544V34.8853C77.3886 34.7906 78.3716 34.7432 79.2881 34.7432C80.203 34.7432 81.2809 34.7906 82.5215 34.8853V34.6544C81.9678 34.4056 81.5533 34.0488 81.2779 33.5825C81.001 33.1132 80.8426 32.5639 80.8041 31.9361C80.6502 28.8804 80.5732 26.017 80.5732 23.3432V21.4541C80.5524 20.7671 80.5436 20.0713 80.5436 19.3636C80.5436 17.3975 80.5924 15.8148 80.6916 14.6141L80.8337 12.5769C82.3024 12.5769 83.703 12.5873 85.0384 12.6065C85.5151 12.6065 85.8112 12.6065 85.9267 12.6065C86.2139 12.6272 86.5071 12.7175 86.8032 12.8789C87.0993 13.0418 87.274 13.2565 87.3302 13.5244C87.3687 13.6592 87.3983 13.8783 87.4191 14.1818C87.4383 14.5652 87.4857 14.7562 87.5612 14.7562C87.616 14.7562 87.6811 14.7325 87.7566 14.6852C87.8351 14.6378 87.884 14.5578 87.9047 14.4424C87.9787 14.0604 88.2452 13.4297 88.7042 12.5532C88.9322 12.112 89.1083 11.7419 89.2312 11.4458C89.3571 11.1497 89.44 10.8802 89.48 10.6345Z" fill="#8A1313"/>
</g>
<mask id="mask1_1213_5086" style="mask-type:luminance" maskUnits="userSpaceOnUse" x="2" y="36" width="89" height="10">
<path d="M90.3099 36.7728H2V45.4901H90.3099V36.7728Z" fill="white"/>
</mask>
<g mask="url(#mask1_1213_5086)">
<path d="M2.52075 39.2421H3.10704L3.81768 42.5466L4.4928 39.2421H5.06132L4.07233 43.7251H3.5275L2.52075 39.2421Z" fill="#8A1313"/>
<path d="M5.56821 39.2421H6.1841V43.7251H5.56821V39.2421Z" fill="#8A1313"/>
<path d="M6.91003 39.2421H7.33642L8.60967 42.2209V39.2421H9.12489V43.7251H8.72811L7.44302 40.6634V43.7251H6.91003V39.2421Z" fill="#8A1313"/>
<path d="M10.5347 39.2421H11.1388L12.0981 43.7251H11.5059L11.2987 42.594H10.3867L10.1735 43.7251H9.58719L10.5347 39.2421ZM11.2158 42.1499L10.8427 40.1304L10.4696 42.1499H11.2158Z" fill="#8A1313"/>
<path d="M13.116 42.1439L12.1448 39.2421H12.7252L13.4121 41.4096L14.0872 39.2421H14.6735L13.7142 42.1439V43.7251H13.116V42.1439Z" fill="#8A1313"/>
<path d="M15.6723 39.2421H16.2763L17.2357 43.7251H16.6435L16.4362 42.594H15.5242L15.311 43.7251H14.7247L15.6723 39.2421ZM16.3533 42.1499L15.9802 40.1304L15.6071 42.1499H16.3533Z" fill="#8A1313"/>
<path d="M17.6884 39.2421H18.3102V41.3563L19.3406 39.2421H19.921L19.0386 41.2201L20.0631 43.7251H19.4591L18.6004 41.6228L18.3102 42.1439V43.7251H17.6884V39.2421Z" fill="#8A1313"/>
<path d="M21.1305 39.2421H21.7346L22.694 43.7251H22.1018L21.8945 42.594H20.9825L20.7693 43.7251H20.183L21.1305 39.2421ZM21.8116 42.1499L21.4385 40.1304L21.0654 42.1499H21.8116Z" fill="#8A1313"/>
<path d="M24.4842 39.2421H25.1L25.8877 42.8783L26.6872 39.2421H27.2912L27.3741 43.7251H26.8707L26.8234 40.4739L26.0653 43.7251H25.71L24.9579 40.4739L24.9105 43.7251H24.4012L24.4842 39.2421Z" fill="#8A1313"/>
<path d="M28.0927 39.2421H28.7085V43.7251H28.0927V39.2421Z" fill="#8A1313"/>
<path d="M30.4886 43.7725C30.1126 43.7725 29.8268 43.6585 29.6299 43.429C29.4315 43.1966 29.322 42.8768 29.2983 42.4697L29.855 42.3216C29.8698 42.6103 29.926 42.8428 30.0208 43.0204C30.1155 43.1951 30.271 43.281 30.4886 43.281C30.65 43.281 30.7729 43.2381 30.8558 43.1507C30.9387 43.0604 30.9801 42.9301 30.9801 42.7598C30.9801 42.5748 30.9402 42.4208 30.8617 42.2979C30.7862 42.1765 30.6633 42.0418 30.4945 41.8952L29.7424 41.232C29.5914 41.0987 29.4819 40.9566 29.4108 40.8056C29.3427 40.6516 29.3101 40.465 29.3101 40.243C29.3101 39.9113 29.4049 39.6567 29.5944 39.479C29.7839 39.2984 30.04 39.2066 30.3643 39.2066C30.7151 39.2066 30.9816 39.3014 31.1637 39.4909C31.3444 39.6774 31.4539 39.9676 31.4894 40.3614L30.9624 40.5035C30.9417 40.243 30.8913 40.0416 30.8084 39.8995C30.7255 39.7574 30.5774 39.6863 30.3643 39.6863C30.2058 39.6863 30.083 39.7277 29.9971 39.8107C29.9142 39.8936 29.8727 40.0164 29.8727 40.1778C29.8727 40.3126 29.8934 40.4251 29.9379 40.5154C29.9808 40.6072 30.0563 40.6975 30.1629 40.7878L30.9209 41.4511C31.1178 41.6258 31.2733 41.8153 31.3888 42.0196C31.5028 42.2209 31.5605 42.4504 31.5605 42.7065C31.5605 43.0352 31.4613 43.2958 31.2644 43.4883C31.066 43.6778 30.8084 43.7725 30.4886 43.7725Z" fill="#8A1313"/>
<path d="M33.1045 43.7725C32.7284 43.7725 32.4427 43.6585 32.2458 43.429C32.0474 43.1966 31.9378 42.8768 31.9141 42.4697L32.4708 42.3216C32.4856 42.6103 32.5419 42.8428 32.6366 43.0204C32.7314 43.1951 32.8868 43.281 33.1045 43.281C33.2658 43.281 33.3887 43.2381 33.4716 43.1507C33.5545 43.0604 33.596 42.9301 33.596 42.7598C33.596 42.5748 33.556 42.4208 33.4775 42.2979C33.402 42.1765 33.2792 42.0418 33.1104 41.8952L32.3583 41.232C32.2073 41.0987 32.0977 40.9566 32.0266 40.8056C31.9585 40.6516 31.926 40.465 31.926 40.243C31.926 39.9113 32.0207 39.6567 32.2102 39.479C32.3997 39.2984 32.6559 39.2066 32.9801 39.2066C33.331 39.2066 33.5975 39.3014 33.7796 39.4909C33.9602 39.6774 34.0698 39.9676 34.1053 40.3614L33.5782 40.5035C33.5575 40.243 33.5072 40.0416 33.4243 39.8995C33.3413 39.7574 33.1933 39.6863 32.9801 39.6863C32.8217 39.6863 32.6988 39.7277 32.6129 39.8107C32.53 39.8936 32.4886 40.0164 32.4886 40.1778C32.4886 40.3126 32.5093 40.4251 32.5537 40.5154C32.5966 40.6072 32.6721 40.6975 32.7787 40.7878L33.5368 41.4511C33.7337 41.6258 33.8891 41.8153 34.0046 42.0196C34.1186 42.2209 34.1764 42.4504 34.1764 42.7065C34.1764 43.0352 34.0772 43.2958 33.8803 43.4883C33.6819 43.6778 33.4243 43.7725 33.1045 43.7725Z" fill="#8A1313"/>
<path d="M34.6958 39.2421H35.3117V43.7251H34.6958V39.2421Z" fill="#8A1313"/>
<path d="M37.1806 43.7725C36.7423 43.7725 36.4285 43.6482 36.239 43.3994C36.0495 43.1507 35.9547 42.7924 35.9547 42.3216V40.622C35.9547 40.1571 36.0495 39.8047 36.239 39.5679C36.4314 39.328 36.7453 39.2066 37.1806 39.2066C37.6144 39.2066 37.9268 39.328 38.1163 39.5679C38.3087 39.8092 38.4064 40.1601 38.4064 40.622V42.3275C38.4064 42.7895 38.3087 43.1477 38.1163 43.3994C37.9223 43.6482 37.6099 43.7725 37.1806 43.7725ZM37.1806 43.281C37.413 43.281 37.5685 43.2144 37.6484 43.0796C37.7313 42.9419 37.7728 42.7347 37.7728 42.4578V40.4976C37.7728 40.2222 37.7313 40.0179 37.6484 39.8876C37.5685 39.7574 37.413 39.6922 37.1806 39.6922C36.9437 39.6922 36.7838 39.7574 36.7009 39.8876C36.6209 40.0179 36.5825 40.2222 36.5825 40.4976V42.4578C36.5825 42.7347 36.6209 42.9419 36.7009 43.0796C36.7838 43.2144 36.9437 43.281 37.1806 43.281Z" fill="#8A1313"/>
<path d="M39.0184 39.2421H39.4448L40.7181 42.2209V39.2421H41.2333V43.7251H40.8365L39.5514 40.6634V43.7251H39.0184V39.2421Z" fill="#8A1313"/>
<path d="M41.7015 39.2421H42.2345L42.0213 40.616H41.7015V39.2421Z" fill="#8A1313"/>
<path d="M43.6949 43.7725C43.3188 43.7725 43.0331 43.6585 42.8362 43.429C42.6378 43.1966 42.5282 42.8768 42.5045 42.4697L43.0612 42.3216C43.076 42.6103 43.1323 42.8428 43.227 43.0204C43.3218 43.1951 43.4772 43.281 43.6949 43.281C43.8562 43.281 43.9791 43.2381 44.062 43.1507C44.1449 43.0604 44.1864 42.9301 44.1864 42.7598C44.1864 42.5748 44.1464 42.4208 44.0679 42.2979C43.9924 42.1765 43.8696 42.0418 43.7008 41.8952L42.9487 41.232C42.7977 41.0987 42.6881 40.9566 42.617 40.8056C42.5489 40.6516 42.5164 40.465 42.5164 40.243C42.5164 39.9113 42.6111 39.6567 42.8006 39.479C42.9901 39.2984 43.2463 39.2066 43.5705 39.2066C43.9214 39.2066 44.1879 39.3014 44.37 39.4909C44.5506 39.6774 44.6601 39.9676 44.6957 40.3614L44.1686 40.5035C44.1479 40.243 44.0976 40.0416 44.0146 39.8995C43.9317 39.7574 43.7837 39.6863 43.5705 39.6863C43.4121 39.6863 43.2892 39.7277 43.2033 39.8107C43.1204 39.8936 43.079 40.0164 43.079 40.1778C43.079 40.3126 43.0997 40.4251 43.1441 40.5154C43.187 40.6072 43.2625 40.6975 43.3691 40.7878L44.1272 41.4511C44.3241 41.6258 44.4795 41.8153 44.595 42.0196C44.709 42.2209 44.7667 42.4504 44.7667 42.7065C44.7667 43.0352 44.6676 43.2958 44.4706 43.4883C44.2723 43.6778 44.0146 43.7725 43.6949 43.7725Z" fill="#8A1313"/>
<path d="M46.5229 39.2421H47.1448V43.2751H48.2936V43.7251H46.5229V39.2421Z" fill="#8A1313"/>
<path d="M49.4232 39.2421H50.0272L50.9866 43.7251H50.3944L50.1871 42.594H49.2751L49.0619 43.7251H48.4756L49.4232 39.2421ZM50.1042 42.1499L49.7311 40.1304L49.358 42.1499H50.1042Z" fill="#8A1313"/>
<path d="M51.2028 39.2421H51.718L52.2036 42.4637L52.8017 39.2599H53.2459L53.8558 42.4815L54.3237 39.2421H54.833L54.1164 43.7251H53.6604L53.0386 40.4088L52.4049 43.7251H51.9312L51.2028 39.2421Z" fill="#8A1313"/>
<path d="M57.3535 39.2421H57.9575L58.9169 43.7251H58.3247L58.1174 42.594H57.2054L56.9922 43.7251H56.4059L57.3535 39.2421ZM58.0345 42.1499L57.6614 40.1304L57.2883 42.1499H58.0345Z" fill="#8A1313"/>
<path d="M59.3696 39.2421H60.3408C60.8265 39.2421 61.167 39.3546 61.3654 39.5797C61.5667 39.8018 61.6674 40.1452 61.6674 40.6101V42.2565C61.6674 42.7539 61.5682 43.124 61.3713 43.3639C61.1729 43.6052 60.8472 43.7251 60.3941 43.7251H59.3696V39.2421ZM60.3468 43.2751C60.5629 43.2751 60.7213 43.2336 60.8205 43.1507C60.9182 43.0648 60.9804 42.9493 61.0041 42.8072C61.0278 42.6621 61.0397 42.44 61.0397 42.1439V40.6871C61.0397 40.4354 61.0234 40.2415 60.9923 40.1067C60.9597 39.9735 60.8946 39.8743 60.7968 39.8106C60.6977 39.744 60.5422 39.71 60.329 39.71H59.9914V43.2751H60.3468Z" fill="#8A1313"/>
<path d="M62.355 39.2421H62.9709L63.7585 42.8783L64.558 39.2421H65.162L65.2449 43.7251H64.7416L64.6942 40.4739L63.9362 43.7251H63.5808L62.8287 40.4739L62.7814 43.7251H62.2721L62.355 39.2421Z" fill="#8A1313"/>
<path d="M65.9636 39.2421H66.5795V43.7251H65.9636V39.2421Z" fill="#8A1313"/>
<path d="M68.3596 43.7725C67.9835 43.7725 67.6978 43.6585 67.5009 43.429C67.3025 43.1966 67.1929 42.8768 67.1693 42.4697L67.7259 42.3216C67.7407 42.6103 67.797 42.8428 67.8917 43.0204C67.9865 43.1951 68.142 43.281 68.3596 43.281C68.521 43.281 68.6438 43.2381 68.7268 43.1507C68.8097 43.0604 68.8511 42.9301 68.8511 42.7598C68.8511 42.5748 68.8111 42.4208 68.7327 42.2979C68.6572 42.1765 68.5343 42.0418 68.3655 41.8952L67.6134 41.232C67.4624 41.0987 67.3528 40.9566 67.2818 40.8056C67.2137 40.6516 67.1811 40.465 67.1811 40.243C67.1811 39.9113 67.2758 39.6567 67.4654 39.479C67.6549 39.2984 67.911 39.2066 68.2352 39.2066C68.5861 39.2066 68.8526 39.3014 69.0347 39.4909C69.2153 39.6774 69.3249 39.9676 69.3604 40.3614L68.8334 40.5035C68.8126 40.243 68.7623 40.0416 68.6794 39.8995C68.5965 39.7574 68.4484 39.6863 68.2352 39.6863C68.0768 39.6863 67.9539 39.7277 67.8681 39.8107C67.7851 39.8936 67.7437 40.0164 67.7437 40.1778C67.7437 40.3126 67.7644 40.4251 67.8088 40.5154C67.8518 40.6072 67.9273 40.6975 68.0339 40.7878L68.7919 41.4511C68.9888 41.6258 69.1443 41.8153 69.2597 42.0196C69.3737 42.2209 69.4315 42.4504 69.4315 42.7065C69.4315 43.0352 69.3323 43.2958 69.1354 43.4883C68.937 43.6778 68.6794 43.7725 68.3596 43.7725Z" fill="#8A1313"/>
<path d="M70.9754 43.7725C70.5994 43.7725 70.3136 43.6585 70.1167 43.429C69.9183 43.1966 69.8088 42.8768 69.7851 42.4697L70.3418 42.3216C70.3566 42.6103 70.4128 42.8428 70.5076 43.0204C70.6023 43.1951 70.7578 43.281 70.9754 43.281C71.1368 43.281 71.2597 43.2381 71.3426 43.1507C71.4255 43.0604 71.467 42.9301 71.467 42.7598C71.467 42.5748 71.427 42.4208 71.3485 42.2979C71.273 42.1765 71.1501 42.0418 70.9814 41.8952L70.2293 41.232C70.0782 41.0987 69.9687 40.9566 69.8976 40.8056C69.8295 40.6516 69.7969 40.465 69.7969 40.243C69.7969 39.9113 69.8917 39.6567 70.0812 39.479C70.2707 39.2984 70.5268 39.2066 70.8511 39.2066C71.2019 39.2066 71.4684 39.3014 71.6505 39.4909C71.8312 39.6774 71.9407 39.9676 71.9763 40.3614L71.4492 40.5035C71.4285 40.243 71.3781 40.0416 71.2952 39.8995C71.2123 39.7574 71.0643 39.6863 70.8511 39.6863C70.6927 39.6863 70.5698 39.7277 70.4839 39.8107C70.401 39.8936 70.3595 40.0164 70.3595 40.1778C70.3595 40.3126 70.3803 40.4251 70.4247 40.5154C70.4676 40.6072 70.5431 40.6975 70.6497 40.7878L71.4077 41.4511C71.6047 41.6258 71.7601 41.8153 71.8756 42.0196C71.9896 42.2209 72.0473 42.4504 72.0473 42.7065C72.0473 43.0352 71.9481 43.2958 71.7512 43.4883C71.5528 43.6778 71.2952 43.7725 70.9754 43.7725Z" fill="#8A1313"/>
<path d="M72.5667 39.2421H73.1826V43.7251H72.5667V39.2421Z" fill="#8A1313"/>
<path d="M75.0514 43.7725C74.6132 43.7725 74.2993 43.6482 74.1098 43.3994C73.9203 43.1507 73.8256 42.7924 73.8256 42.3216V40.622C73.8256 40.1571 73.9203 39.8047 74.1098 39.5679C74.3023 39.328 74.6162 39.2066 75.0514 39.2066C75.4852 39.2066 75.7976 39.328 75.9871 39.5679C76.1796 39.8092 76.2773 40.1601 76.2773 40.622V42.3275C76.2773 42.7895 76.1796 43.1477 75.9871 43.3994C75.7932 43.6482 75.4808 43.7725 75.0514 43.7725ZM75.0514 43.281C75.2839 43.281 75.4393 43.2144 75.5193 43.0796C75.6022 42.9419 75.6436 42.7347 75.6436 42.4578V40.4976C75.6436 40.2222 75.6022 40.0179 75.5193 39.8876C75.4393 39.7574 75.2839 39.6922 75.0514 39.6922C74.8145 39.6922 74.6547 39.7574 74.5717 39.8876C74.4918 40.0179 74.4533 40.2222 74.4533 40.4976V42.4578C74.4533 42.7347 74.4918 42.9419 74.5717 43.0796C74.6547 43.2144 74.8145 43.281 75.0514 43.281Z" fill="#8A1313"/>
<path d="M76.8893 39.2421H77.3157L78.589 42.2209V39.2421H79.1042V43.7251H78.7074L77.4223 40.6634V43.7251H76.8893V39.2421Z" fill="#8A1313"/>
<path d="M81.5672 39.71H80.8092V39.2421H82.9293V39.71H82.195V43.7251H81.5672V39.71Z" fill="#8A1313"/>
<path d="M83.3596 39.2421H85.0948V39.71H83.9815V41.1905H84.8875V41.6346H83.9815V43.2751H85.1067V43.7251H83.3596V39.2421Z" fill="#8A1313"/>
<path d="M86.6645 43.7725C86.2885 43.7725 86.0027 43.6585 85.8058 43.429C85.6074 43.1966 85.4979 42.8768 85.4742 42.4697L86.0309 42.3216C86.0457 42.6103 86.1019 42.8428 86.1967 43.0204C86.2914 43.1951 86.4469 43.281 86.6645 43.281C86.8259 43.281 86.9488 43.2381 87.0317 43.1507C87.1146 43.0604 87.156 42.9301 87.156 42.7598C87.156 42.5748 87.1161 42.4208 87.0376 42.2979C86.9621 42.1765 86.8392 42.0418 86.6704 41.8952L85.9183 41.232C85.7673 41.0987 85.6578 40.9566 85.5867 40.8056C85.5186 40.6516 85.486 40.465 85.486 40.243C85.486 39.9113 85.5808 39.6567 85.7703 39.479C85.9598 39.2984 86.2159 39.2066 86.5402 39.2066C86.891 39.2066 87.1575 39.3014 87.3396 39.4909C87.5203 39.6774 87.6298 39.9676 87.6653 40.3614L87.1383 40.5035C87.1176 40.243 87.0672 40.0416 86.9843 39.8995C86.9014 39.7574 86.7533 39.6863 86.5402 39.6863C86.3817 39.6863 86.2589 39.7277 86.173 39.8107C86.0901 39.8936 86.0486 40.0164 86.0486 40.1778C86.0486 40.3126 86.0693 40.4251 86.1138 40.5154C86.1567 40.6072 86.2322 40.6975 86.3388 40.7878L87.0968 41.4511C87.2937 41.6258 87.4492 41.8153 87.5647 42.0196C87.6787 42.2209 87.7364 42.4504 87.7364 42.7065C87.7364 43.0352 87.6372 43.2958 87.4403 43.4883C87.2419 43.6778 86.9843 43.7725 86.6645 43.7725Z" fill="#8A1313"/>
<mask id="mask2_1213_5086" style="mask-type:luminance" maskUnits="userSpaceOnUse" x="87" y="39" width="4" height="5">
<path d="M87.6568 39.047H90.2195V43.9741H87.6568V39.047Z" fill="white"/>
</mask>
<g mask="url(#mask2_1213_5086)">
<path d="M88.7178 39.71H87.9598V39.2421H90.0799V39.71H89.3455V43.7251H88.7178V39.71Z" fill="#8A1313"/>
</g>
</g>
</svg>
