<svg width="92" height="39" viewBox="0 0 92 39" fill="none" xmlns="http://www.w3.org/2000/svg">
<path d="M12.1509 12.5146C11.7458 11.4648 11.2761 10.3414 10.742 9.14424C10.2079 7.9287 9.58173 6.51057 8.86345 4.88986L8.39381 3.8677L8.31094 3.70194C8.01626 2.98367 7.70317 2.41273 7.37166 1.98914C7.05856 1.54712 6.54288 1.14194 5.8246 0.773597L5.74173 0.386834L6.54288 0.469711C7.8505 0.580215 8.76216 0.635467 9.27784 0.635467C9.92245 0.635467 11.0275 0.589424 12.5929 0.497336L12.7863 0.856473C12.3812 1.11431 12.1786 1.59316 12.1786 2.29302C12.1786 2.90079 12.2706 3.45331 12.4548 3.95058C12.8968 5.12928 13.4125 6.46453 14.0019 7.95633C14.6096 9.44813 15.1898 10.8847 15.7423 12.266C16.2212 13.4999 16.9947 15.3509 18.0629 17.8188L18.1734 18.0398C18.7627 16.548 19.4258 14.9088 20.1624 13.1224C20.5308 12.1647 20.936 11.0781 21.378 9.86252C21.8384 8.62856 22.3725 7.14597 22.9803 5.41475C23.1276 5.00957 23.2842 4.55834 23.4499 4.06108C23.7078 3.43489 23.8367 2.85475 23.8367 2.32065C23.8367 1.91547 23.7446 1.59316 23.5604 1.35374C23.3763 1.11431 23.0263 0.939351 22.5106 0.828848L22.704 0.386834C24.1222 0.534171 25.2088 0.60784 25.9639 0.60784C26.3322 0.60784 26.9492 0.580215 27.8148 0.524963C28.5515 0.469711 29.1317 0.432877 29.5553 0.41446L29.3895 0.773597C28.7817 1.03144 28.2568 1.43662 27.8148 1.98914C27.3728 2.54165 26.9492 3.21388 26.544 4.00583C26.1204 4.92669 25.6968 5.9028 25.2732 6.93417C24.8496 7.94712 24.3524 9.19029 23.7814 10.6637C23.4868 11.4372 23.2658 11.9989 23.1184 12.3488C22.879 12.9382 22.483 13.8683 21.9305 15.1391C21.3412 16.4835 20.7794 17.7912 20.2453 19.0619C19.7296 20.3143 19.1495 21.7509 18.5049 23.3716C18.4681 23.4453 18.376 23.5281 18.2286 23.6202C18.0813 23.7123 17.8971 23.7583 17.6761 23.7583C17.4551 23.7583 17.2617 23.7031 17.096 23.5926C16.9302 23.4821 16.8197 23.3716 16.7645 23.2611C16.4698 22.4876 16.1014 21.5851 15.6594 20.5537C15.2174 19.504 14.6096 18.1042 13.8361 16.3546C13.4125 15.4153 13.081 14.6694 12.8416 14.1169C12.6022 13.5644 12.3719 13.0303 12.1509 12.5146ZM34.9242 23.2058C34.2612 23.2058 33.0364 23.2887 31.2499 23.4545L31.2223 22.9848C31.4433 22.8743 31.6643 22.6994 31.8853 22.4599C32.1063 22.2205 32.3089 21.935 32.4931 21.6035C32.6957 21.272 32.8522 20.9313 32.9627 20.5814C33.0917 20.2314 33.1561 19.9183 33.1561 19.6421C33.193 18.2424 33.2114 17.0913 33.2114 16.1888C33.2114 15.268 33.2114 13.9696 33.2114 12.2936C33.2114 10.8939 33.193 9.46655 33.1561 8.01158C33.1193 6.55662 33.064 5.1477 32.9904 3.78482C32.9535 3.10338 32.8246 2.51403 32.6036 2.01676C32.401 1.50108 31.9958 1.04065 31.3881 0.635467V0.303956C32.2537 0.377625 32.9351 0.432877 33.4324 0.469711C33.9296 0.506546 34.4085 0.524963 34.8689 0.524963C35.2373 0.524963 35.8358 0.497337 36.6646 0.442085C37.3829 0.386833 37.9262 0.349998 38.2945 0.331581V0.663093C37.7973 0.920935 37.4381 1.34453 37.2171 1.93388C36.9961 2.50482 36.858 3.14942 36.8027 3.8677C36.7475 4.56755 36.7106 5.29503 36.6922 6.05014C36.6922 6.80525 36.6922 7.76295 36.6922 8.92324V12.2107C36.6922 13.5183 36.7106 14.697 36.7475 15.7468C36.7843 16.7782 36.8396 18.0674 36.9132 19.6145C36.9685 20.5353 37.2816 21.1707 37.8525 21.5206C38.4419 21.8522 39.243 22.0179 40.256 22.0179C40.9374 22.0179 41.6281 21.9166 42.3279 21.714C43.0278 21.5114 43.6447 21.1983 44.1788 20.7747C44.4919 20.5353 44.8787 20.0565 45.3391 19.3382C45.6154 18.9146 45.8456 18.6015 46.0298 18.3989C46.2324 18.1779 46.4534 18.0674 46.6928 18.0674C46.9875 18.0674 47.1809 18.1227 47.2729 18.2332C47.365 18.3437 47.4111 18.4542 47.4111 18.5647C47.4111 18.712 47.365 18.9054 47.2729 19.1448C47.1993 19.3842 47.0612 19.725 46.8586 20.167C46.4902 20.9958 46.2508 21.6127 46.1403 22.0179C46.0666 22.2942 45.9009 22.5612 45.643 22.8191C45.4036 23.0769 45.0445 23.215 44.5656 23.2335C44.4919 23.2335 44.1328 23.2519 43.4882 23.2887C42.3832 23.3624 41.5544 23.3992 41.0019 23.3992C40.3573 23.3992 39.7955 23.39 39.3167 23.3716C38.8563 23.3532 38.2669 23.3255 37.5486 23.2887C36.4436 23.2335 35.5688 23.2058 34.9242 23.2058ZM61.8642 3.78482L68.4391 20.2499C68.7154 20.9681 69.0469 21.5483 69.4337 21.9903C69.8388 22.4323 70.3361 22.7822 70.9255 23.0401V23.4821C70.1704 23.3532 69.5073 23.2611 68.9364 23.2058C68.3839 23.1506 67.8682 23.1229 67.3894 23.1229C66.8184 23.1229 66.2475 23.1506 65.6765 23.2058C65.1056 23.2427 64.415 23.3255 63.6046 23.4545V23.0677C63.6046 22.9388 63.7243 22.7178 63.9637 22.4047C64.3137 21.9442 64.4886 21.5759 64.4886 21.2996C64.4886 21.1155 64.461 20.9221 64.4058 20.7195C64.3689 20.4985 64.3321 20.3512 64.2953 20.2775L62.1681 14.476C61.0078 14.384 59.9764 14.3379 59.074 14.3379C57.8032 14.3379 56.7165 14.384 55.8141 14.476L53.383 20.7747V20.8024C53.2541 21.097 53.1712 21.3273 53.1344 21.493C53.0976 21.6404 53.0791 21.8153 53.0791 22.0179C53.0791 22.4415 53.2449 22.8099 53.5764 23.1229V23.4545C52.9502 23.3624 52.4253 23.2979 52.0017 23.2611C51.5781 23.2242 51.1822 23.2058 50.8138 23.2058C50.3902 23.2058 49.9482 23.2242 49.4878 23.2611C49.0273 23.2979 48.4288 23.3716 47.6921 23.4821L48.0512 23.0401C48.7327 22.8006 49.3128 22.4507 49.7917 21.9903C50.2889 21.5299 50.7033 20.9037 51.0348 20.1117L57.6098 4.14396C57.6466 4.07029 57.665 3.94137 57.665 3.75719C57.665 3.20468 57.4717 2.66137 57.0849 2.12726C56.7165 1.57475 56.2193 1.07748 55.5931 0.635467L55.4826 0.303956C56.9007 0.432876 58.1899 0.497336 59.3502 0.497336H60.5381L61.8642 3.78482ZM59.0187 13.0395C59.5712 13.0395 60.4184 13.0211 61.5603 12.9842V12.9014L59.1292 6.49216L56.5324 12.9014V12.9842C57.6374 13.0211 58.4662 13.0395 59.0187 13.0395ZM86.2591 7.1583e-05C86.2039 0.35 85.9552 0.957769 85.5132 1.82338C85.0712 2.72583 84.8042 3.37964 84.7121 3.78482C84.6937 3.89532 84.574 3.99662 84.3529 4.0887C84.1504 4.16237 83.9846 4.19921 83.8557 4.19921C83.5978 4.19921 83.4229 4.11633 83.3308 3.95058C83.2387 3.78482 83.1742 3.5454 83.1374 3.2323C83.119 3.06655 83.1006 2.96525 83.0822 2.92842C83.0269 2.67058 82.9164 2.4864 82.7506 2.3759C82.6033 2.24698 82.4375 2.17331 82.2534 2.15489C81.8114 2.13647 81.1115 2.12726 80.1538 2.12726H77.9714L77.8332 3.92295C77.7411 5.12007 77.6951 6.63029 77.6951 8.4536C77.6951 9.06137 77.7043 9.7336 77.7227 10.4703C77.7227 11.5017 77.7227 12.1002 77.7227 12.266C77.7227 14.8076 77.7964 17.5333 77.9437 20.4432C77.999 21.6956 78.5423 22.5704 79.5737 23.0677V23.4545C78.7081 23.3808 78.0082 23.3347 77.4741 23.3163C76.9584 23.2795 76.4519 23.2611 75.9547 23.2611C75.4942 23.2611 75.0062 23.2795 74.4905 23.3163C73.9932 23.3347 73.3578 23.3808 72.5843 23.4545V23.0677C73.0816 22.8099 73.4683 22.4876 73.7446 22.1008C74.0209 21.6956 74.1682 21.1983 74.1866 20.609C74.2234 18.7673 74.2419 16.0139 74.2419 12.3488C74.2419 10.415 74.2419 8.79432 74.2419 7.48669C74.2419 6.17906 74.2234 4.85302 74.1866 3.50856L74.159 2.12726C73.2013 2.12726 72.3449 2.15489 71.5898 2.21014C70.8347 2.2654 70.0888 2.3759 69.3521 2.54165C69.1311 2.59691 68.864 2.6982 68.5509 2.84554C68.2563 2.99288 67.9432 3.20468 67.6117 3.48093C67.5748 3.49935 67.5104 3.5546 67.4183 3.64669C67.2157 3.83086 67.0223 3.9782 66.8381 4.0887C66.654 4.19921 66.4422 4.25446 66.2027 4.25446C66.037 4.25446 65.8712 4.21762 65.7055 4.14396C65.5397 4.05187 65.4568 3.98741 65.4568 3.95058C65.4752 3.80324 65.641 3.50856 65.9541 3.06655C66.2856 2.60611 66.5066 2.25619 66.6171 2.01676C66.6355 1.96151 66.7 1.82338 66.8105 1.60237C67.1236 1.01302 67.3262 0.524963 67.4183 0.138201H68.5786C68.7627 0.34079 68.9285 0.469711 69.0758 0.524963C69.2232 0.580215 69.481 0.617049 69.8493 0.635467C71.3596 0.653884 73.6157 0.663093 76.6177 0.663093C77.6122 0.663093 79.1685 0.626258 81.2865 0.552589C82.0416 0.534172 82.8059 0.515754 83.5794 0.497336C83.8741 0.478919 84.2701 0.377625 84.7673 0.193452C85.0068 0.101366 85.1909 0.0369056 85.3199 7.1583e-05H86.2591Z" fill="#F3F4F6"/>
<path d="M1.87186 32.3487L3.36303 36.5769H3.42189L4.91306 32.3487H5.55073L3.70639 37.3716H3.07853L1.23419 32.3487H1.87186ZM6.05685 32.3487H6.78281L8.48981 36.5181H8.54867L10.2557 32.3487H10.9816V37.3716H10.4126V33.5554H10.3636L8.79393 37.3716H8.24455L6.6749 33.5554H6.62585V37.3716H6.05685V32.3487ZM11.9249 37.3716V32.3487H13.6221C14.0145 32.3487 14.3366 32.4157 14.5884 32.5498C14.8402 32.6822 15.0266 32.8646 15.1476 33.0967C15.2686 33.3289 15.3291 33.593 15.3291 33.8889C15.3291 34.1849 15.2686 34.4473 15.1476 34.6762C15.0266 34.9051 14.841 35.085 14.5909 35.2158C14.3407 35.3449 14.0211 35.4095 13.6319 35.4095H12.2585V34.8601H13.6123C13.8805 34.8601 14.0963 34.8209 14.2598 34.7424C14.4249 34.6639 14.5443 34.5527 14.6179 34.4089C14.6931 34.2633 14.7307 34.09 14.7307 33.8889C14.7307 33.6878 14.6931 33.512 14.6179 33.3616C14.5426 33.2112 14.4225 33.0951 14.2573 33.0133C14.0922 32.93 13.8739 32.8883 13.6025 32.8883H12.5332V37.3716H11.9249ZM14.2892 35.1152L15.5253 37.3716H14.819L13.6025 35.1152H14.2892ZM16.0664 37.3716V32.3487H19.0782V32.8883H16.6746V34.5854H18.8525V35.125H16.6746V37.3716H16.0664ZM21.5098 37.3716V32.3487H22.1181V36.832H24.4529V37.3716H21.5098ZM25.6415 37.3716H25.0038L26.8481 32.3487H27.476L29.3203 37.3716H28.6827L27.1817 33.1433H27.1424L25.6415 37.3716ZM25.8769 35.4095H28.4472V35.9491H25.8769V35.4095ZM30.3476 37.3716L28.9742 32.3487H29.5922L30.6419 36.4396H30.691L31.7603 32.3487H32.447L33.5164 36.4396H33.5654L34.6151 32.3487H35.2332L33.8597 37.3716H33.2319L32.1233 33.369H32.0841L30.9755 37.3716H30.3476ZM37.587 37.3716H36.9493L38.7936 32.3487H39.4215L41.2658 37.3716H40.6282L39.1272 33.1433H39.0879L37.587 37.3716ZM37.8224 35.4095H40.3927V35.9491H37.8224V35.4095ZM43.322 37.3716H41.772V32.3487H43.3907C43.8779 32.3487 44.2948 32.4492 44.6415 32.6504C44.9881 32.8498 45.2538 33.1368 45.4386 33.5112C45.6233 33.884 45.7157 34.3304 45.7157 34.8503C45.7157 35.3735 45.6225 35.824 45.4361 36.2017C45.2497 36.5778 44.9783 36.8672 44.6219 37.0699C44.2654 37.271 43.8321 37.3716 43.322 37.3716ZM42.3802 36.832H43.2827C43.6981 36.832 44.0422 36.7519 44.3153 36.5917C44.5883 36.4314 44.7919 36.2033 44.926 35.9074C45.0601 35.6114 45.1271 35.2591 45.1271 34.8503C45.1271 34.4448 45.0609 34.0957 44.9284 33.8031C44.796 33.5088 44.5981 33.2831 44.3349 33.1262C44.0717 32.9676 43.7438 32.8883 43.3514 32.8883H42.3802V36.832ZM46.4597 32.3487H47.1857L48.8927 36.5181H48.9516L50.6585 32.3487H51.3845V37.3716H50.8155V33.5554H50.7665L49.1968 37.3716H48.6474L47.0778 33.5554H47.0287V37.3716H46.4597V32.3487ZM52.936 32.3487V37.3716H52.3278V32.3487H52.936ZM56.6262 33.6044C56.5968 33.3559 56.4774 33.1629 56.2681 33.0256C56.0589 32.8883 55.8022 32.8196 55.498 32.8196C55.2757 32.8196 55.0811 32.8556 54.9143 32.9275C54.7492 32.9994 54.62 33.0984 54.5268 33.2243C54.4352 33.3502 54.3895 33.4932 54.3895 33.6535C54.3895 33.7875 54.4213 33.9028 54.4851 33.9993C54.5505 34.0941 54.6339 34.1734 54.7353 34.2372C54.8367 34.2993 54.9429 34.3508 55.0541 34.3917C55.1653 34.4309 55.2675 34.4628 55.3607 34.4873L55.8708 34.6247C56.0016 34.659 56.1472 34.7064 56.3074 34.7669C56.4693 34.8274 56.6238 34.91 56.7709 35.0146C56.9197 35.1177 57.0423 35.2501 57.1388 35.412C57.2353 35.5738 57.2835 35.7725 57.2835 36.0079C57.2835 36.2794 57.2124 36.5246 57.0701 36.7437C56.9295 36.9628 56.7235 37.137 56.4521 37.2661C56.1823 37.3953 55.8545 37.4599 55.4686 37.4599C55.1089 37.4599 54.7974 37.4018 54.5342 37.2857C54.2726 37.1697 54.0665 37.0078 53.9161 36.8001C53.7673 36.5925 53.6831 36.3513 53.6635 36.0766H54.2914C54.3077 36.2663 54.3715 36.4232 54.4827 36.5475C54.5955 36.6701 54.7377 36.7617 54.9094 36.8222C55.0827 36.8811 55.2691 36.9105 55.4686 36.9105C55.7008 36.9105 55.9092 36.8729 56.094 36.7977C56.2788 36.7208 56.4251 36.6146 56.533 36.4788C56.6409 36.3415 56.6949 36.1813 56.6949 35.9981C56.6949 35.8314 56.6483 35.6957 56.5551 35.591C56.4619 35.4864 56.3393 35.4013 56.1872 35.3359C56.0351 35.2705 55.8708 35.2133 55.6942 35.1643L55.0762 34.9877C54.6838 34.8749 54.3731 34.7138 54.1442 34.5045C53.9153 34.2952 53.8008 34.0214 53.8008 33.6829C53.8008 33.4017 53.8769 33.1564 54.0289 32.9471C54.1826 32.7362 54.3886 32.5727 54.647 32.4566C54.907 32.3389 55.1972 32.28 55.5177 32.28C55.8414 32.28 56.1292 32.3381 56.381 32.4542C56.6328 32.5686 56.8322 32.7256 56.9794 32.925C57.1282 33.1245 57.2067 33.351 57.2148 33.6044H56.6262ZM60.7542 33.6044C60.7248 33.3559 60.6054 33.1629 60.3961 33.0256C60.1868 32.8883 59.9301 32.8196 59.626 32.8196C59.4036 32.8196 59.2091 32.8556 59.0423 32.9275C58.8771 32.9994 58.748 33.0984 58.6548 33.2243C58.5632 33.3502 58.5174 33.4932 58.5174 33.6535C58.5174 33.7875 58.5493 33.9028 58.6131 33.9993C58.6785 34.0941 58.7619 34.1734 58.8632 34.2372C58.9646 34.2993 59.0709 34.3508 59.1821 34.3917C59.2933 34.4309 59.3955 34.4628 59.4887 34.4873L59.9988 34.6247C60.1296 34.659 60.2751 34.7064 60.4354 34.7669C60.5972 34.8274 60.7517 34.91 60.8989 35.0146C61.0477 35.1177 61.1703 35.2501 61.2668 35.412C61.3632 35.5738 61.4115 35.7725 61.4115 36.0079C61.4115 36.2794 61.3404 36.5246 61.1981 36.7437C61.0575 36.9628 60.8515 37.137 60.5801 37.2661C60.3103 37.3953 59.9824 37.4599 59.5966 37.4599C59.2369 37.4599 58.9254 37.4018 58.6621 37.2857C58.4005 37.1697 58.1945 37.0078 58.0441 36.8001C57.8953 36.5925 57.8111 36.3513 57.7915 36.0766H58.4193C58.4357 36.2663 58.4994 36.4232 58.6106 36.5475C58.7235 36.6701 58.8657 36.7617 59.0374 36.8222C59.2107 36.8811 59.3971 36.9105 59.5966 36.9105C59.8287 36.9105 60.0372 36.8729 60.222 36.7977C60.4067 36.7208 60.5531 36.6146 60.661 36.4788C60.7689 36.3415 60.8229 36.1813 60.8229 35.9981C60.8229 35.8314 60.7763 35.6957 60.6831 35.591C60.5899 35.4864 60.4672 35.4013 60.3152 35.3359C60.1631 35.2705 59.9988 35.2133 59.8222 35.1643L59.2042 34.9877C58.8117 34.8749 58.5011 34.7138 58.2722 34.5045C58.0433 34.2952 57.9288 34.0214 57.9288 33.6829C57.9288 33.4017 58.0048 33.1564 58.1569 32.9471C58.3106 32.7362 58.5166 32.5727 58.775 32.4566C59.0349 32.3389 59.3252 32.28 59.6456 32.28C59.9694 32.28 60.2571 32.3381 60.5089 32.4542C60.7607 32.5686 60.9602 32.7256 61.1074 32.925C61.2562 33.1245 61.3346 33.351 61.3428 33.6044H60.7542ZM62.7435 32.3487V37.3716H62.1353V32.3487H62.7435ZM67.9249 34.8601C67.9249 35.3899 67.8292 35.8477 67.6379 36.2336C67.4466 36.6195 67.1842 36.917 66.8506 37.1263C66.5171 37.3356 66.1361 37.4403 65.7077 37.4403C65.2793 37.4403 64.8984 37.3356 64.5648 37.1263C64.2313 36.917 63.9688 36.6195 63.7775 36.2336C63.5862 35.8477 63.4906 35.3899 63.4906 34.8601C63.4906 34.3304 63.5862 33.8726 63.7775 33.4867C63.9688 33.1008 64.2313 32.8032 64.5648 32.5939C64.8984 32.3847 65.2793 32.28 65.7077 32.28C66.1361 32.28 66.5171 32.3847 66.8506 32.5939C67.1842 32.8032 67.4466 33.1008 67.6379 33.4867C67.8292 33.8726 67.9249 34.3304 67.9249 34.8601ZM67.3362 34.8601C67.3362 34.4252 67.2635 34.0581 67.118 33.7589C66.9741 33.4597 66.7787 33.2333 66.5318 33.0796C66.2865 32.9259 66.0118 32.849 65.7077 32.849C65.4036 32.849 65.1281 32.9259 64.8812 33.0796C64.6359 33.2333 64.4406 33.4597 64.295 33.7589C64.1511 34.0581 64.0792 34.4252 64.0792 34.8601C64.0792 35.2951 64.1511 35.6621 64.295 35.9613C64.4406 36.2606 64.6359 36.487 64.8812 36.6407C65.1281 36.7944 65.4036 36.8713 65.7077 36.8713C66.0118 36.8713 66.2865 36.7944 66.5318 36.6407C66.7787 36.487 66.9741 36.2606 67.118 35.9613C67.2635 35.6621 67.3362 35.2951 67.3362 34.8601ZM72.6543 32.3487V37.3716H72.0657L69.3286 33.4278H69.2796V37.3716H68.6713V32.3487H69.2599L72.0068 36.3023H72.0559V32.3487H72.6543ZM74.9867 32.8883V32.3487H78.7538V32.8883H77.1744V37.3716H76.5661V32.8883H74.9867ZM79.4163 37.3716V32.3487H82.4477V32.8883H80.0245V34.5854H82.2907V35.125H80.0245V36.832H82.4869V37.3716H79.4163ZM86.0146 33.6044C85.9852 33.3559 85.8658 33.1629 85.6565 33.0256C85.4473 32.8883 85.1906 32.8196 84.8864 32.8196C84.6641 32.8196 84.4695 32.8556 84.3027 32.9275C84.1376 32.9994 84.0084 33.0984 83.9152 33.2243C83.8236 33.3502 83.7779 33.4932 83.7779 33.6535C83.7779 33.7875 83.8097 33.9028 83.8735 33.9993C83.9389 34.0941 84.0223 34.1734 84.1237 34.2372C84.2251 34.2993 84.3313 34.3508 84.4425 34.3917C84.5537 34.4309 84.6559 34.4628 84.7491 34.4873L85.2592 34.6247C85.39 34.659 85.5355 34.7064 85.6958 34.7669C85.8577 34.8274 86.0122 34.91 86.1593 35.0146C86.3081 35.1177 86.4307 35.2501 86.5272 35.412C86.6237 35.5738 86.6719 35.7725 86.6719 36.0079C86.6719 36.2794 86.6008 36.5246 86.4585 36.7437C86.3179 36.9628 86.1119 37.137 85.8405 37.2661C85.5707 37.3953 85.2429 37.4599 84.857 37.4599C84.4973 37.4599 84.1858 37.4018 83.9226 37.2857C83.661 37.1697 83.4549 37.0078 83.3045 36.8001C83.1557 36.5925 83.0715 36.3513 83.0519 36.0766H83.6798C83.6961 36.2663 83.7599 36.4232 83.8711 36.5475C83.9839 36.6701 84.1261 36.7617 84.2978 36.8222C84.4711 36.8811 84.6575 36.9105 84.857 36.9105C85.0892 36.9105 85.2976 36.8729 85.4824 36.7977C85.6672 36.7208 85.8135 36.6146 85.9214 36.4788C86.0293 36.3415 86.0833 36.1813 86.0833 35.9981C86.0833 35.8314 86.0367 35.6957 85.9435 35.591C85.8503 35.4864 85.7277 35.4013 85.5756 35.3359C85.4235 35.2705 85.2592 35.2133 85.0826 35.1643L84.4646 34.9877C84.0722 34.8749 83.7615 34.7138 83.5326 34.5045C83.3037 34.2952 83.1892 34.0214 83.1892 33.6829C83.1892 33.4017 83.2653 33.1564 83.4173 32.9471C83.571 32.7362 83.777 32.5727 84.0354 32.4566C84.2954 32.3389 84.5856 32.28 84.9061 32.28C85.2298 32.28 85.5176 32.3381 85.7694 32.4542C86.0212 32.5686 86.2206 32.7256 86.3678 32.925C86.5166 33.1245 86.5951 33.351 86.6032 33.6044H86.0146ZM87.121 32.8883V32.3487H90.8882V32.8883H89.3087V37.3716H88.7005V32.8883H87.121Z" fill="#F3F4F6"/>
</svg>
