<svg width="93" height="55" viewBox="0 0 93 55" fill="none" xmlns="http://www.w3.org/2000/svg">
<rect width="93" height="55" fill="#2B0809"/>
<mask id="mask0_1213_6011" style="mask-type:luminance" maskUnits="userSpaceOnUse" x="2" y="10" width="88" height="26">
<path d="M89.4741 10H2.89014V35.2691H89.4741V10Z" fill="white"/>
</mask>
<g mask="url(#mask0_1213_6011)">
<path d="M10.1358 23.2799C10.4175 23.9345 10.7223 24.6414 11.0474 25.3992C11.3755 26.1583 11.7471 26.9959 12.1623 27.9133C12.9287 29.6552 13.5064 30.9892 13.8983 31.9139C14.2932 32.84 14.6299 33.6485 14.9086 34.3409C15.0204 34.6225 15.1525 34.7648 15.3035 34.7648C15.4341 34.7648 15.5473 34.6617 15.6402 34.457C16.2397 32.9213 16.787 31.564 17.2834 30.3868C17.7784 29.2067 18.3257 27.9133 18.9266 26.5082C19.5798 24.9753 20.056 23.8431 20.355 23.1115L21.0866 21.3173C21.6861 19.8004 22.1956 18.5332 22.6136 17.5142C23.0346 16.4923 23.4701 15.5037 23.9201 14.5471C24.2946 13.7807 24.7112 13.1072 25.1684 12.5265C25.6286 11.9459 26.1758 11.5264 26.8116 11.2666L26.8987 11.0692C26.6548 11.0895 26.2978 11.1083 25.8303 11.1272C24.9507 11.2012 24.2873 11.2375 23.8388 11.2375C23.052 11.2375 22.0795 11.1824 20.9182 11.0692L20.8369 11.2666C21.3392 11.3798 21.6933 11.5714 21.8995 11.8414C22.1041 12.1128 22.2072 12.454 22.2072 12.8633C22.2072 13.1652 22.1637 13.4759 22.0795 13.7923C21.9982 14.1102 21.9009 14.418 21.7891 14.7155C21.6033 15.2613 21.3421 16.0103 21.0053 16.9626C20.4247 18.5927 19.9326 19.9514 19.5305 21.0386C19.1269 22.1229 18.7481 23.1144 18.3924 24.0115L17.8002 25.4979C16.9597 27.5577 16.3515 29.0557 15.977 29.992H15.6983C15.5851 29.7104 15.408 29.2981 15.1641 28.7552C14.0958 26.305 13.3003 24.4339 12.7777 23.1405L12.5222 22.5483C11.8865 20.9428 11.3218 19.5174 10.8268 18.2748C10.3304 17.0293 9.85859 15.7955 9.41006 14.5762C9.20393 13.9955 9.10232 13.4178 9.10232 12.8401C9.10232 12.1477 9.31715 11.6599 9.74682 11.3769L9.6307 11.1504C8.32137 11.2288 7.33139 11.2666 6.65786 11.2666C6.13529 11.2666 5.29337 11.2201 4.1321 11.1272C4.01888 11.1083 3.8505 11.0895 3.62695 11.0692L3.67921 11.2956C4.41081 11.6672 4.93483 12.0707 5.25272 12.5033C5.56917 12.933 5.87981 13.4846 6.18174 14.1581L6.26303 14.3788C6.2819 14.3991 6.35738 14.5689 6.48947 14.8897C7.36768 16.8523 8.08766 18.4708 8.64943 19.7438C9.20974 21.0183 9.70618 22.197 10.1358 23.2799Z" fill="white"/>
<path d="M31.2801 34.2016C32.0262 34.2016 32.9712 34.2291 34.1136 34.2828C34.7291 34.322 35.2937 34.3511 35.8091 34.3699C36.3229 34.3888 36.9006 34.399 37.5393 34.399C38.0619 34.399 38.9038 34.3612 40.0651 34.2828C40.7183 34.248 41.0826 34.2306 41.1567 34.2306C41.4586 34.2117 41.7025 34.0956 41.8883 33.8822C42.077 33.6659 42.2091 33.3988 42.2831 33.0809C42.376 32.7442 42.5996 32.1635 42.9566 31.339C43.1613 30.9094 43.3137 30.5552 43.4153 30.2765C43.5199 29.9949 43.5721 29.7583 43.5721 29.5681C43.5721 29.4752 43.5576 29.3925 43.5315 29.3184C43.5039 29.2415 43.4516 29.2023 43.3747 29.2023C43.247 29.2023 43.0321 29.4665 42.7302 29.992C42.4704 30.4216 42.2221 30.7918 41.987 31.101C41.7547 31.4073 41.4775 31.6918 41.1567 31.9545C40.6341 32.3842 39.9562 32.7079 39.1245 32.9242C38.2913 33.1419 37.5001 33.2493 36.7497 33.2493C36.2271 33.2493 35.735 33.2072 35.2749 33.1216C34.8176 33.0374 34.4068 32.9009 34.0439 32.7151C33.6796 32.5264 33.3791 32.2593 33.1439 31.9139C32.9117 31.5655 32.7854 31.1402 32.7665 30.6365C32.6881 29.0455 32.6301 27.713 32.5923 26.6359C32.5575 25.5603 32.5401 24.3584 32.5401 23.0302C32.5401 20.1662 32.5488 18.2951 32.5691 17.4155C32.5691 16.665 32.5778 16.0844 32.5982 15.6736C32.617 15.2642 32.6344 14.8607 32.6504 14.4659C32.7085 13.7197 32.8493 13.052 33.0743 12.4627C33.2978 11.8704 33.6723 11.4437 34.1949 11.1795V10.9821C33.9539 11.0024 33.6099 11.0212 33.1614 11.0401C32.3165 11.1141 31.6706 11.1504 31.2221 11.1504C30.4556 11.1504 29.454 11.0953 28.2202 10.9821V11.1795C28.8357 11.5946 29.2494 12.0591 29.4627 12.573C29.679 13.0883 29.8068 13.682 29.846 14.3555C29.9185 15.7578 29.9751 17.2064 30.0143 18.7045C30.0521 20.2025 30.0724 21.6715 30.0724 23.1115C30.0724 24.8345 30.0724 26.1642 30.0724 27.1004C30.0724 28.0338 30.0521 29.2226 30.0143 30.6655C30.0143 30.9442 29.9519 31.2578 29.8285 31.6061C29.7081 31.9516 29.5498 32.2971 29.3524 32.6455C29.1579 32.9909 28.9431 33.29 28.7079 33.5454C28.4757 33.798 28.2463 33.9795 28.0228 34.0912L28.0518 34.399C28.6281 34.3409 29.1971 34.2945 29.7589 34.2596C30.3235 34.2219 30.8301 34.2016 31.2801 34.2016Z" fill="white"/>
<path d="M58.0298 14.4078L56.7408 11.1272H55.9802C55.4576 11.1272 54.8726 11.1141 54.2267 11.0866C53.5793 11.0561 53.0422 11.0212 52.6125 10.9821L52.6706 11.1795C53.286 11.5946 53.7941 12.0882 54.1976 12.6601C54.5997 13.2291 54.8015 13.7851 54.8015 14.3265C54.8015 14.4746 54.7739 14.6328 54.7202 14.8026L47.9268 31.2229C47.2881 32.7601 46.2575 33.753 44.8378 34.2016L44.6985 34.3699C45.5186 34.2582 46.3504 34.2016 47.1952 34.2016C47.9616 34.2016 48.7194 34.2582 49.4713 34.3699V34.2016C49.1345 33.8648 48.9661 33.499 48.9661 33.1042C48.9661 32.8066 49.0779 32.3668 49.3029 31.7861L51.7996 25.2714C52.9957 25.1437 54.2963 25.0798 55.7015 25.0798C56.7306 25.0798 57.9659 25.1437 59.4059 25.2714L61.5949 31.281C61.653 31.4319 61.7052 31.6105 61.7517 31.8152C61.7981 32.0213 61.8213 32.2085 61.8213 32.3784C61.8213 32.6222 61.653 32.9764 61.3162 33.4409C61.052 33.798 60.9214 34.0506 60.9214 34.2016V34.3699C62.0275 34.2001 63.1336 34.1145 64.2368 34.1145C65.2659 34.1145 66.2951 34.2001 67.3257 34.3699V34.1725C66.2022 33.724 65.3603 32.7892 64.8 31.3681L58.0298 14.4078ZM58.8195 23.9244C57.7889 23.9824 56.7306 24.0115 55.6434 24.0115C54.578 24.0115 53.5415 23.9824 52.5312 23.9244V23.785L55.7595 15.871H55.8408L58.8195 23.785V23.9244Z" fill="white"/>
<path d="M88.6605 10.6221H88.434C88.3208 10.6569 88.1815 10.7034 88.016 10.7615C87.4542 10.9864 86.9563 11.1084 86.5238 11.1273C85.737 11.1432 84.9517 11.1606 84.1664 11.1795C81.9789 11.2579 80.3705 11.2956 79.3413 11.2956C76.2524 11.2956 73.9313 11.2869 72.3796 11.2666C71.5551 11.2477 71.0006 11.0793 70.7189 10.7615H70.3822C70.3081 11.0402 70.1122 11.5163 69.7957 12.1898L69.5693 12.6137C69.4953 12.7995 69.308 13.1 69.0061 13.5137C68.6533 14.0174 68.4675 14.3614 68.4487 14.5472C68.4487 14.6604 68.514 14.7156 68.6461 14.7156C68.7927 14.7156 69.0351 14.5573 69.3719 14.2394C69.5228 14.1088 69.6448 14.0057 69.7377 13.9317C70.0352 13.6878 70.372 13.4774 70.748 13.2988C71.1225 13.1217 71.4592 13.0056 71.7583 12.9504C72.6016 12.7646 73.4494 12.6485 74.3014 12.6021C75.1521 12.5527 76.1769 12.5266 77.373 12.5266L77.402 14.0711C77.4398 15.4573 77.4601 16.8233 77.4601 18.1703C77.4601 19.5174 77.4601 21.1838 77.4601 23.1696C77.4601 26.9524 77.4398 29.7873 77.402 31.6758C77.3817 32.2376 77.2235 32.7326 76.9259 33.1623C76.6269 33.5919 76.2437 33.9287 75.7763 34.1726V34.399C76.8054 34.3061 77.7693 34.2597 78.6678 34.2597C79.5649 34.2597 80.6216 34.3061 81.8381 34.399V34.1726C81.2952 33.9287 80.8887 33.5789 80.6187 33.1216C80.3473 32.6615 80.192 32.1229 80.1542 31.5075C80.0033 28.5114 79.9278 25.704 79.9278 23.0825V21.2303C79.9075 20.5567 79.8987 19.8745 79.8987 19.1806C79.8987 17.2529 79.9466 15.7012 80.0439 14.524L80.1833 12.5266C81.6232 12.5266 82.9964 12.5367 84.3057 12.5556C84.7732 12.5556 85.0635 12.5556 85.1767 12.5556C85.4583 12.5759 85.7457 12.6645 86.036 12.8227C86.3263 12.9824 86.4976 13.1929 86.5528 13.4556C86.5905 13.5877 86.6196 13.8025 86.6399 14.1001C86.6588 14.4761 86.7052 14.6633 86.7792 14.6633C86.833 14.6633 86.8968 14.6401 86.9709 14.5936C87.0478 14.5472 87.0957 14.4688 87.116 14.3556C87.1886 13.9811 87.4499 13.3627 87.8999 12.5034C88.1234 12.0708 88.2961 11.7079 88.4166 11.4176C88.54 11.1273 88.6213 10.8631 88.6605 10.6221Z" fill="white"/>
</g>
<mask id="mask1_1213_6011" style="mask-type:luminance" maskUnits="userSpaceOnUse" x="2" y="36" width="88" height="9">
<path d="M89.4741 36.2691H2.89014V44.816H89.4741V36.2691Z" fill="white"/>
</mask>
<g mask="url(#mask1_1213_6011)">
<path d="M3.4007 38.6902H3.97552L4.67228 41.9301L5.3342 38.6902H5.89161L4.92195 43.0856H4.38777L3.4007 38.6902Z" fill="white"/>
<path d="M6.38861 38.6902H6.99247V43.0856H6.38861V38.6902Z" fill="white"/>
<path d="M7.70416 38.6902H8.12222L9.37058 41.6108V38.6902H9.87573V43.0856H9.4867L8.22673 40.0837V43.0856H7.70416V38.6902Z" fill="white"/>
<path d="M11.2581 38.6902H11.8503L12.7909 43.0856H12.2103L12.0071 41.9766H11.1129L10.9039 43.0856H10.329L11.2581 38.6902ZM11.9258 41.5411L11.56 39.5611L11.1942 41.5411H11.9258Z" fill="white"/>
<path d="M13.789 41.5353L12.8368 38.6902H13.4058L14.0793 40.8153L14.7413 38.6902H15.3161L14.3755 41.5353V43.0856H13.789V41.5353Z" fill="white"/>
<path d="M16.2952 38.6902H16.8874L17.828 43.0856H17.2474L17.0442 41.9766H16.15L15.941 43.0856H15.3661L16.2952 38.6902ZM16.9629 41.5411L16.5971 39.5611L16.2313 41.5411H16.9629Z" fill="white"/>
<path d="M18.272 38.6902H18.8816V40.763L19.8919 38.6902H20.461L19.5958 40.6295L20.6003 43.0856H20.0081L19.1661 41.0243L18.8816 41.5353V43.0856H18.272V38.6902Z" fill="white"/>
<path d="M21.6468 38.6902H22.239L23.1797 43.0856H22.599L22.3958 41.9766H21.5016L21.2926 43.0856H20.7178L21.6468 38.6902ZM22.3145 41.5411L21.9487 39.5611L21.5829 41.5411H22.3145Z" fill="white"/>
<path d="M24.935 38.6902H25.5388L26.3111 42.2553L27.0949 38.6902H27.6872L27.7685 43.0856H27.2749L27.2285 39.8979L26.4853 43.0856H26.1369L25.3995 39.8979L25.353 43.0856H24.8537L24.935 38.6902Z" fill="white"/>
<path d="M28.4729 38.6902H29.0768V43.0856H28.4729V38.6902Z" fill="white"/>
<path d="M30.8221 43.132C30.4534 43.132 30.1732 43.0203 29.9802 42.7953C29.7857 42.5674 29.6783 42.2538 29.655 41.8547L30.2008 41.7095C30.2153 41.9926 30.2705 42.2204 30.3634 42.3946C30.4563 42.5659 30.6087 42.6501 30.8221 42.6501C30.9803 42.6501 31.1008 42.608 31.1821 42.5224C31.2634 42.4338 31.304 42.3061 31.304 42.1392C31.304 41.9577 31.2648 41.8067 31.1879 41.6863C31.1139 41.5672 30.9934 41.4351 30.8279 41.2914L30.0905 40.6411C29.9424 40.5105 29.835 40.3711 29.7653 40.2231C29.6986 40.0721 29.6666 39.8892 29.6666 39.6715C29.6666 39.3463 29.7595 39.0966 29.9453 38.9225C30.1311 38.7454 30.3823 38.6554 30.7002 38.6554C31.0442 38.6554 31.3055 38.7483 31.484 38.9341C31.6611 39.117 31.7685 39.4015 31.8034 39.7876L31.2866 39.927C31.2663 39.6715 31.2169 39.4741 31.1356 39.3347C31.0544 39.1954 30.9092 39.1257 30.7002 39.1257C30.5448 39.1257 30.4244 39.1663 30.3402 39.2476C30.2589 39.3289 30.2182 39.4494 30.2182 39.6076C30.2182 39.7397 30.2386 39.85 30.2821 39.9386C30.3242 40.0286 30.3982 40.1171 30.5028 40.2057L31.246 40.856C31.439 41.0272 31.5914 41.2131 31.7047 41.4134C31.8164 41.6108 31.873 41.8358 31.873 42.0869C31.873 42.4092 31.7758 42.6646 31.5827 42.8533C31.3882 43.0391 31.1356 43.132 30.8221 43.132Z" fill="white"/>
<path d="M33.3867 43.132C33.018 43.132 32.7378 43.0203 32.5448 42.7953C32.3502 42.5674 32.2428 42.2538 32.2196 41.8547L32.7654 41.7095C32.7799 41.9926 32.8351 42.2204 32.928 42.3946C33.0209 42.5659 33.1733 42.6501 33.3867 42.6501C33.5449 42.6501 33.6654 42.608 33.7467 42.5224C33.828 42.4338 33.8686 42.3061 33.8686 42.1392C33.8686 41.9577 33.8294 41.8067 33.7525 41.6863C33.6784 41.5672 33.558 41.4351 33.3925 41.2914L32.6551 40.6411C32.507 40.5105 32.3996 40.3711 32.3299 40.2231C32.2632 40.0721 32.2312 39.8892 32.2312 39.6715C32.2312 39.3463 32.3241 39.0966 32.5099 38.9225C32.6957 38.7454 32.9468 38.6554 33.2647 38.6554C33.6088 38.6554 33.8701 38.7483 34.0486 38.9341C34.2257 39.117 34.3331 39.4015 34.3679 39.7876L33.8512 39.927C33.8309 39.6715 33.7815 39.4741 33.7002 39.3347C33.6189 39.1954 33.4738 39.1257 33.2647 39.1257C33.1094 39.1257 32.9889 39.1663 32.9048 39.2476C32.8235 39.3289 32.7828 39.4494 32.7828 39.6076C32.7828 39.7397 32.8031 39.85 32.8467 39.9386C32.8888 40.0286 32.9628 40.1171 33.0673 40.2057L33.8105 40.856C34.0036 41.0272 34.156 41.2131 34.2692 41.4134C34.381 41.6108 34.4376 41.8358 34.4376 42.0869C34.4376 42.4092 34.3404 42.6646 34.1473 42.8533C33.9528 43.0391 33.7002 43.132 33.3867 43.132Z" fill="white"/>
<path d="M34.947 38.6902H35.5509V43.0856H34.947V38.6902Z" fill="white"/>
<path d="M37.3832 43.132C36.9536 43.132 36.6458 43.0101 36.46 42.7662C36.2742 42.5224 36.1813 42.1711 36.1813 41.7095V40.0431C36.1813 39.5873 36.2742 39.2418 36.46 39.0096C36.6487 38.7744 36.9565 38.6554 37.3832 38.6554C37.8086 38.6554 38.1148 38.7744 38.3006 39.0096C38.4894 39.2462 38.5852 39.5902 38.5852 40.0431V41.7153C38.5852 42.1682 38.4894 42.5195 38.3006 42.7662C38.1105 43.0101 37.8042 43.132 37.3832 43.132ZM37.3832 42.6501C37.6111 42.6501 37.7636 42.5848 37.8419 42.4527C37.9232 42.3177 37.9639 42.1145 37.9639 41.843V39.9211C37.9639 39.6511 37.9232 39.4508 37.8419 39.3231C37.7636 39.1954 37.6111 39.1315 37.3832 39.1315C37.151 39.1315 36.9942 39.1954 36.9129 39.3231C36.8345 39.4508 36.7968 39.6511 36.7968 39.9211V41.843C36.7968 42.1145 36.8345 42.3177 36.9129 42.4527C36.9942 42.5848 37.151 42.6501 37.3832 42.6501Z" fill="white"/>
<path d="M39.1851 38.6902H39.6032L40.8515 41.6108V38.6902H41.3567V43.0856H40.9677L39.7077 40.0837V43.0856H39.1851V38.6902Z" fill="white"/>
<path d="M41.8157 38.6902H42.3382L42.1292 40.0373H41.8157V38.6902Z" fill="white"/>
<path d="M43.7702 43.132C43.4015 43.132 43.1213 43.0203 42.9282 42.7953C42.7337 42.5674 42.6263 42.2538 42.6031 41.8547L43.1489 41.7095C43.1634 41.9926 43.2186 42.2204 43.3115 42.3946C43.4044 42.5659 43.5568 42.6501 43.7702 42.6501C43.9284 42.6501 44.0489 42.608 44.1302 42.5224C44.2114 42.4338 44.2521 42.3061 44.2521 42.1392C44.2521 41.9577 44.2129 41.8067 44.136 41.6863C44.0619 41.5672 43.9414 41.4351 43.776 41.2914L43.0386 40.6411C42.8905 40.5105 42.7831 40.3711 42.7134 40.2231C42.6466 40.0721 42.6147 39.8892 42.6147 39.6715C42.6147 39.3463 42.7076 39.0966 42.8934 38.9225C43.0792 38.7454 43.3303 38.6554 43.6482 38.6554C43.9923 38.6554 44.2535 38.7483 44.4321 38.9341C44.6092 39.117 44.7166 39.4015 44.7514 39.7876L44.2347 39.927C44.2143 39.6715 44.165 39.4741 44.0837 39.3347C44.0024 39.1954 43.8573 39.1257 43.6482 39.1257C43.4929 39.1257 43.3724 39.1663 43.2882 39.2476C43.2069 39.3289 43.1663 39.4494 43.1663 39.6076C43.1663 39.7397 43.1866 39.85 43.2302 39.9386C43.2723 40.0286 43.3463 40.1171 43.4508 40.2057L44.194 40.856C44.3871 41.0272 44.5395 41.2131 44.6527 41.4134C44.7645 41.6108 44.8211 41.8358 44.8211 42.0869C44.8211 42.4092 44.7238 42.6646 44.5308 42.8533C44.3363 43.0391 44.0837 43.132 43.7702 43.132Z" fill="white"/>
<path d="M46.543 38.6902H47.1526V42.6443H48.2791V43.0856H46.543V38.6902Z" fill="white"/>
<path d="M49.3865 38.6902H49.9787L50.9193 43.0856H50.3387L50.1355 41.9766H49.2413L49.0323 43.0856H48.4575L49.3865 38.6902ZM50.0542 41.5411L49.6884 39.5611L49.3226 41.5411H50.0542Z" fill="white"/>
<path d="M51.1313 38.6902H51.6365L52.1126 41.8488L52.6991 38.7076H53.1345L53.7326 41.8662L54.1913 38.6902H54.6906L53.9881 43.0856H53.541L52.9313 39.834L52.31 43.0856H51.8455L51.1313 38.6902Z" fill="white"/>
<path d="M57.1618 38.6902H57.754L58.6947 43.0856H58.114L57.9108 41.9766H57.0166L56.8076 43.0856H56.2328L57.1618 38.6902ZM57.8295 41.5411L57.4637 39.5611L57.0979 41.5411H57.8295Z" fill="white"/>
<path d="M59.1386 38.6902H60.0908C60.567 38.6902 60.9008 38.8005 61.0953 39.0211C61.2928 39.2389 61.3915 39.5757 61.3915 40.0314V41.6456C61.3915 42.1333 61.2942 42.4962 61.1011 42.7314C60.9066 42.968 60.5873 43.0856 60.1431 43.0856H59.1386V38.6902ZM60.0967 42.6443C60.3086 42.6443 60.4639 42.6036 60.5612 42.5224C60.657 42.4382 60.7179 42.3249 60.7412 42.1856C60.7644 42.0433 60.776 41.8256 60.776 41.5353V40.1069C60.776 39.8602 60.76 39.67 60.7295 39.5379C60.6976 39.4073 60.6337 39.31 60.5379 39.2476C60.4407 39.1823 60.2883 39.1489 60.0792 39.1489H59.7483V42.6443H60.0967Z" fill="white"/>
<path d="M62.0658 38.6902H62.6696L63.4419 42.2553L64.2257 38.6902H64.818L64.8993 43.0856H64.4057L64.3593 39.8979L63.6161 43.0856H63.2677L62.5303 39.8979L62.4838 43.0856H61.9845L62.0658 38.6902Z" fill="white"/>
<path d="M65.6037 38.6902H66.2076V43.0856H65.6037V38.6902Z" fill="white"/>
<path d="M67.9528 43.132C67.5841 43.132 67.304 43.0203 67.1109 42.7953C66.9164 42.5674 66.809 42.2538 66.7858 41.8547L67.3316 41.7095C67.3461 41.9926 67.4012 42.2204 67.4941 42.3946C67.587 42.5659 67.7395 42.6501 67.9528 42.6501C68.1111 42.6501 68.2315 42.608 68.3128 42.5224C68.3941 42.4338 68.4348 42.3061 68.4348 42.1392C68.4348 41.9577 68.3956 41.8067 68.3186 41.6863C68.2446 41.5672 68.1241 41.4351 67.9586 41.2914L67.2212 40.6411C67.0732 40.5105 66.9658 40.3711 66.8961 40.2231C66.8293 40.0721 66.7974 39.8892 66.7974 39.6715C66.7974 39.3463 66.8903 39.0966 67.0761 38.9225C67.2619 38.7454 67.513 38.6554 67.8309 38.6554C68.1749 38.6554 68.4362 38.7483 68.6148 38.9341C68.7919 39.117 68.8993 39.4015 68.9341 39.7876L68.4173 39.927C68.397 39.6715 68.3477 39.4741 68.2664 39.3347C68.1851 39.1954 68.0399 39.1257 67.8309 39.1257C67.6756 39.1257 67.5551 39.1663 67.4709 39.2476C67.3896 39.3289 67.349 39.4494 67.349 39.6076C67.349 39.7397 67.3693 39.85 67.4128 39.9386C67.4549 40.0286 67.529 40.1171 67.6335 40.2057L68.3767 40.856C68.5698 41.0272 68.7222 41.2131 68.8354 41.4134C68.9472 41.6108 69.0038 41.8358 69.0038 42.0869C69.0038 42.4092 68.9065 42.6646 68.7135 42.8533C68.519 43.0391 68.2664 43.132 67.9528 43.132Z" fill="white"/>
<path d="M70.5175 43.132C70.1488 43.132 69.8686 43.0203 69.6756 42.7953C69.481 42.5674 69.3736 42.2538 69.3504 41.8547L69.8962 41.7095C69.9107 41.9926 69.9659 42.2204 70.0588 42.3946C70.1517 42.5659 70.3041 42.6501 70.5175 42.6501C70.6757 42.6501 70.7962 42.608 70.8775 42.5224C70.9588 42.4338 70.9994 42.3061 70.9994 42.1392C70.9994 41.9577 70.9602 41.8067 70.8833 41.6863C70.8092 41.5672 70.6888 41.4351 70.5233 41.2914L69.7859 40.6411C69.6378 40.5105 69.5304 40.3711 69.4607 40.2231C69.394 40.0721 69.362 39.8892 69.362 39.6715C69.362 39.3463 69.4549 39.0966 69.6407 38.9225C69.8265 38.7454 70.0776 38.6554 70.3955 38.6554C70.7396 38.6554 71.0009 38.7483 71.1794 38.9341C71.3565 39.117 71.4639 39.4015 71.4987 39.7876L70.982 39.927C70.9617 39.6715 70.9123 39.4741 70.831 39.3347C70.7497 39.1954 70.6046 39.1257 70.3955 39.1257C70.2402 39.1257 70.1197 39.1663 70.0355 39.2476C69.9543 39.3289 69.9136 39.4494 69.9136 39.6076C69.9136 39.7397 69.9339 39.85 69.9775 39.9386C70.0196 40.0286 70.0936 40.1171 70.1981 40.2057L70.9413 40.856C71.1344 41.0272 71.2868 41.2131 71.4 41.4134C71.5118 41.6108 71.5684 41.8358 71.5684 42.0869C71.5684 42.4092 71.4712 42.6646 71.2781 42.8533C71.0836 43.0391 70.831 43.132 70.5175 43.132Z" fill="white"/>
<path d="M72.0778 38.6902H72.6816V43.0856H72.0778V38.6902Z" fill="white"/>
<path d="M74.514 43.132C74.0844 43.132 73.7766 43.0101 73.5908 42.7662C73.405 42.5224 73.3121 42.1711 73.3121 41.7095V40.0431C73.3121 39.5873 73.405 39.2418 73.5908 39.0096C73.7795 38.7744 74.0873 38.6554 74.514 38.6554C74.9394 38.6554 75.2456 38.7744 75.4314 39.0096C75.6201 39.2462 75.716 39.5902 75.716 40.0431V41.7153C75.716 42.1682 75.6201 42.5195 75.4314 42.7662C75.2413 43.0101 74.935 43.132 74.514 43.132ZM74.514 42.6501C74.7419 42.6501 74.8944 42.5848 74.9727 42.4527C75.054 42.3177 75.0947 42.1145 75.0947 41.843V39.9211C75.0947 39.6511 75.054 39.4508 74.9727 39.3231C74.8944 39.1954 74.7419 39.1315 74.514 39.1315C74.2818 39.1315 74.125 39.1954 74.0437 39.3231C73.9653 39.4508 73.9276 39.6511 73.9276 39.9211V41.843C73.9276 42.1145 73.9653 42.3177 74.0437 42.4527C74.125 42.5848 74.2818 42.6501 74.514 42.6501Z" fill="white"/>
<path d="M76.3159 38.6902H76.734L77.9823 41.6108V38.6902H78.4875V43.0856H78.0985L76.8385 40.0837V43.0856H76.3159V38.6902Z" fill="white"/>
<path d="M80.9025 39.1489H80.1592V38.6902H82.2379V39.1489H81.5179V43.0856H80.9025V39.1489Z" fill="white"/>
<path d="M82.6598 38.6902H84.361V39.1489H83.2695V40.6005H84.1578V41.0359H83.2695V42.6443H84.3727V43.0856H82.6598V38.6902Z" fill="white"/>
<path d="M85.9002 43.132C85.5315 43.132 85.2513 43.0203 85.0582 42.7953C84.8637 42.5674 84.7563 42.2538 84.7331 41.8547L85.2789 41.7095C85.2934 41.9926 85.3486 42.2204 85.4415 42.3946C85.5344 42.5659 85.6868 42.6501 85.9002 42.6501C86.0584 42.6501 86.1789 42.608 86.2602 42.5224C86.3414 42.4338 86.3821 42.3061 86.3821 42.1392C86.3821 41.9577 86.3429 41.8067 86.266 41.6863C86.1919 41.5672 86.0715 41.4351 85.906 41.2914L85.1686 40.6411C85.0205 40.5105 84.9131 40.3711 84.8434 40.2231C84.7766 40.0721 84.7447 39.8892 84.7447 39.6715C84.7447 39.3463 84.8376 39.0966 85.0234 38.9225C85.2092 38.7454 85.4603 38.6554 85.7782 38.6554C86.1223 38.6554 86.3835 38.7483 86.5621 38.9341C86.7392 39.117 86.8466 39.4015 86.8814 39.7876L86.3647 39.927C86.3443 39.6715 86.295 39.4741 86.2137 39.3347C86.1324 39.1954 85.9873 39.1257 85.7782 39.1257C85.6229 39.1257 85.5024 39.1663 85.4182 39.2476C85.337 39.3289 85.2963 39.4494 85.2963 39.6076C85.2963 39.7397 85.3166 39.85 85.3602 39.9386C85.4023 40.0286 85.4763 40.1171 85.5808 40.2057L86.324 40.856C86.5171 41.0272 86.6695 41.2131 86.7827 41.4134C86.8945 41.6108 86.9511 41.8358 86.9511 42.0869C86.9511 42.4092 86.8539 42.6646 86.6608 42.8533C86.4663 43.0391 86.2137 43.132 85.9002 43.132Z" fill="white"/>
<mask id="mask2_1213_6011" style="mask-type:luminance" maskUnits="userSpaceOnUse" x="86" y="38" width="4" height="6">
<path d="M86.8729 38.4988H89.3856V43.3296H86.8729V38.4988Z" fill="white"/>
</mask>
<g mask="url(#mask2_1213_6011)">
<path d="M87.9132 39.1489H87.17V38.6902H89.2486V39.1489H88.5287V43.0856H87.9132V39.1489Z" fill="white"/>
</g>
</g>
</svg>
