<svg width="20" height="20" viewBox="0 0 20 20" fill="none" xmlns="http://www.w3.org/2000/svg">
<path d="M10 5.83337V17.5" stroke="#8D191C" stroke-width="1.66667" stroke-linecap="round" stroke-linejoin="round"/>
<path d="M2.49996 15C2.27895 15 2.06698 14.9122 1.9107 14.7559C1.75442 14.5996 1.66663 14.3877 1.66663 14.1667V3.33333C1.66663 3.11232 1.75442 2.90036 1.9107 2.74408C2.06698 2.5878 2.27895 2.5 2.49996 2.5H6.66663C7.55068 2.5 8.39853 2.85119 9.02365 3.47631C9.64877 4.10143 9.99996 4.94928 9.99996 5.83333C9.99996 4.94928 10.3511 4.10143 10.9763 3.47631C11.6014 2.85119 12.4492 2.5 13.3333 2.5H17.5C17.721 2.5 17.9329 2.5878 18.0892 2.74408C18.2455 2.90036 18.3333 3.11232 18.3333 3.33333V14.1667C18.3333 14.3877 18.2455 14.5996 18.0892 14.7559C17.9329 14.9122 17.721 15 17.5 15H12.5C11.8369 15 11.201 15.2634 10.7322 15.7322C10.2634 16.2011 9.99996 16.837 9.99996 17.5C9.99996 16.837 9.73657 16.2011 9.26773 15.7322C8.79889 15.2634 8.163 15 7.49996 15H2.49996Z" stroke="#8D191C" stroke-width="1.66667" stroke-linecap="round" stroke-linejoin="round"/>
</svg>
