<svg width="106" height="60" viewBox="0 0 106 60" fill="none" xmlns="http://www.w3.org/2000/svg">
<g clip-path="url(#clip0_96_3088)">
<path opacity="0.93" fill-rule="evenodd" clip-rule="evenodd" d="M-12.4661 0L-12.1889 8.31853L-10.2479 18.8553L-10.5252 24.9556L-11.9116 30.5013L-14.4071 35.7697L-18.2891 41.0381L-25.2212 47.1384L-32.4306 51.2976L-38.2536 48.5248L-45.7403 42.7018L-49.345 38.5425L-53.5043 31.0559L-55.168 24.401V16.9144L-53.5043 8.8731L-53.227 0H-12.4661ZM-52.6724 9.15039L-54.3361 16.9144V24.1237L-52.6724 30.7786L-47.404 39.6517L-42.9674 44.0882L-35.758 49.0794L-32.4306 50.4658L-25.4985 46.3065L-19.6755 41.3154L-13.8526 32.9969L-11.0797 22.1828L-13.298 0.831853H-52.3951L-52.6724 9.15039ZM-61.8228 23.5692V22.46L-59.8818 23.8465L-57.3862 23.5692L-59.0499 24.9556L-61.8228 23.5692ZM-61.8228 26.8966V25.7875L-59.6045 26.8966L-57.6635 25.7875V26.8966L-58.4954 27.7284H-60.9909L-61.8228 26.8966ZM-61.8228 29.9467V28.8376L-59.8818 30.224L-58.7727 28.8376L-57.3862 29.1149L-59.3272 31.0559L-61.8228 29.9467ZM105.38 47.1384H102.607V41.87H103.439V46.3065L105.38 46.5838V47.1384ZM-35.758 55.4569L-33.8171 55.1796L-33.2625 52.6841L-32.1533 52.9613L-31.8761 55.1796H-28.8259L-27.7168 54.625L-27.4395 51.0203L-26.3304 51.2976V54.0705H-24.6667L-23.2802 55.4569L-27.7168 55.1796L-29.6578 55.7342L-30.2124 57.1206L-31.8761 56.2887L-31.0442 58.2297H-32.4306V59.0616H-32.9852V58.2297L-34.6489 57.9525L-33.5398 56.566L-34.6489 56.2887V57.1206H-35.4808L-35.758 55.4569ZM1.95264 9.42767L9.9939 9.70496L9.43932 13.3097L16.0942 29.6694L22.749 12.7551V10.8141L21.3626 9.42767L29.4038 9.70496L26.0764 13.0324L16.926 35.7697L15.2623 36.6016L5.28006 13.8642L1.95264 9.42767ZM33.0085 9.42767L37.7223 9.70496L46.5954 29.1149L54.6367 9.70496L59.0732 9.42767L57.4095 11.9232V14.6961L60.1824 32.9969L62.9552 36.047H54.3594L55.7458 33.2741L53.8048 19.6872L46.8727 36.047H45.209L37.4451 19.6872L35.7813 34.3833L37.4451 36.047H29.6811L31.3448 34.9378L32.4539 32.7196L34.9495 14.9734V11.6459L33.0085 9.42767ZM66.8372 9.42767H74.8785L73.492 11.0914L72.9375 14.4188L73.7693 33.5514L78.7604 34.3833L81.8106 32.9969L83.7516 29.9467H85.138L85.4153 31.0559L83.197 35.7697L66.5599 36.047L68.5009 33.5514L69.0555 29.3922L68.7782 13.0324L66.8372 9.42767ZM95.3975 9.42767L103.993 9.98224L103.716 15.2506H102.884L100.389 11.9232L98.1703 11.0914L94.8429 11.9232L93.7338 14.9734L95.9521 18.5781L103.716 24.6783L104.825 26.8966V30.5013L102.052 34.6606L99.0022 36.047L94.5657 36.3243L89.5745 34.6606L89.02 31.3331L89.5745 29.3922L91.2383 29.9467L93.1792 33.2741L95.6748 34.3833L99.5568 33.5514L100.943 31.3331V28.8376L99.8341 26.6193L93.1792 21.9055L90.1291 17.7462L90.961 12.4778L95.3975 9.42767ZM-58.4954 14.6961L-57.9408 16.6371L-59.3272 17.1916L-58.4954 14.6961ZM-7.47503 14.6961L-6.36589 15.2506L-6.0886 16.9144L-7.19774 17.1916L-7.47503 14.6961ZM-60.9909 17.1916L-59.3272 18.5781L-57.9408 17.7462L-56.8317 18.3008L-57.9408 19.4099H-59.6045L-60.9909 17.1916ZM-5.25675 17.1916L-4.4249 17.7462L-5.81132 19.4099L-8.58417 18.5781V17.7462H-7.75231L-6.36589 18.5781L-5.25675 17.1916ZM-61.2682 19.9645L-59.6045 21.3509L-57.3862 20.5191V21.3509L-60.1591 22.1828L-61.2682 19.9645ZM-4.97947 19.9645H-4.14761V20.7963L-5.53403 22.1828H-7.19774L-8.30688 21.0736L-6.92046 20.5191L-5.81132 21.3509L-4.97947 19.9645ZM-4.4249 22.46L-3.59304 22.7373L-3.87033 23.8465L-5.25675 24.9556L-8.0296 23.8465L-6.36589 23.2919L-5.53403 24.1237L-4.4249 22.46ZM-7.75231 25.7875L-5.53403 26.8966L-3.59304 25.7875V26.6193L-4.70218 27.7284H-6.92046L-8.0296 26.6193L-7.75231 25.7875ZM-8.0296 28.8376L-5.53403 29.9467L-3.59304 28.8376V29.9467L-6.0886 31.0559L-8.0296 28.8376ZM-57.6635 31.8877H-56.5544V32.7196L-57.9408 34.3833L-59.6045 34.6606L-61.5455 33.2741L-59.8818 32.7196L-58.7727 33.5514L-57.6635 31.8877ZM-8.86145 31.8877H-7.75231L-6.64317 33.5514L-5.81132 32.7196L-3.87033 33.2741L-6.64317 34.6606L-8.58417 33.5514L-8.86145 31.8877ZM-55.7225 34.6606L-54.8907 35.7697L-55.9998 37.7107L-59.0499 37.988L-60.1591 37.1561V36.3243L-57.1089 36.8788L-55.7225 34.6606ZM-10.2479 34.6606L-8.30688 36.8788L-5.25675 36.3243V36.8788L-6.36589 37.988H-8.86145L-10.5252 36.3243L-10.2479 34.6606ZM-53.7815 37.4334L-53.227 39.0971L-54.6134 40.7608L-56.8317 41.0381L-58.4954 39.6517L-56.5544 39.0971L-55.168 39.6517L-53.7815 37.4334ZM-12.1889 37.4334L-10.5252 38.5425L-10.2479 39.929L-8.86145 39.0971L-6.92046 39.6517L-8.0296 40.7608L-10.2479 41.0381L-11.9116 39.929L-12.1889 37.4334ZM-52.3951 40.2062L-51.5633 40.4835V42.1472L-52.6724 43.5337L-55.4452 43.8109L-56.5544 42.9791L-55.7225 42.1472L-53.5043 42.7018L-52.3951 40.2062ZM-13.8526 40.2062L-12.1889 41.3154V42.7018L-9.6933 42.1472L-8.86145 42.9791L-9.97059 43.8109L-13.0207 43.5337L-14.1299 41.5927L-13.8526 40.2062ZM3.89364 41.87H4.72549L5.83463 46.0292L6.66648 42.1472L7.49834 41.87L6.11191 47.1384L5.00278 46.5838L3.89364 41.87ZM8.0529 41.87H8.88476V47.1384H8.0529V41.87ZM9.71661 41.87H10.8257L12.4895 45.7519V41.87H13.3213V47.1384L11.9349 46.8611L10.8257 43.5337L10.5485 46.5838L9.71661 47.1384V41.87ZM10.2712 43.2564H10.5485V42.9791H10.2712V43.2564ZM15.2623 41.87H16.3714L17.7579 47.1384H16.926L16.6487 46.0292H14.985L14.7077 47.1384H13.8759L15.2623 41.87ZM15.2623 45.1974H16.3714L15.8169 43.2564L15.2623 45.1974ZM18.0351 41.87H18.867L19.4216 44.0882L20.5307 41.87L21.3626 42.4245L19.9761 44.6428V47.1384H19.1443L18.0351 41.87ZM23.0263 41.87L24.1354 42.1472L25.5218 47.1384H24.69L24.4127 46.0292H22.4717L22.1944 47.1384H21.3626L23.0263 41.87ZM22.749 45.1974H24.1354L23.3036 42.9791L22.749 45.1974ZM26.0764 41.87L26.9082 43.8109L28.0174 41.87H28.8492L27.4628 44.6428L29.1265 46.8611L30.5129 42.1472L31.6221 41.87L33.2858 47.1384H32.4539L32.1767 46.0292L28.2947 47.1384L27.1855 44.9201L26.0764 47.1384V41.87ZM30.5129 45.1974L31.8994 44.9201L31.0675 42.9791L30.5129 45.1974ZM35.5041 41.87H36.6132L37.9996 45.7519L39.1088 41.87H40.2179V47.1384L39.6633 42.9791L38.2769 47.1384H37.4451L36.0586 42.9791L35.5041 47.1384V41.87ZM41.0498 41.87H41.8816V47.1384H41.0498V41.87ZM43.268 41.87L45.4863 42.1472L45.7636 43.2564L43.5453 42.4245V43.5337L45.7636 45.1974V46.3065L44.9317 47.1384L42.7135 46.5838V45.4747L43.5453 46.5838L44.9317 46.3065L42.7135 43.8109L43.268 41.87ZM47.15 41.87L49.3683 42.4245V43.2564L48.5364 42.4245H47.4273L47.15 43.2564L49.6456 46.0292L48.8137 47.1384L46.5954 46.8611L46.3182 45.4747H47.15L47.4273 46.5838L48.8137 46.3065L46.3182 43.5337L47.15 41.87ZM50.4774 41.87H51.032V47.1384H50.2001L50.4774 41.87ZM52.6957 41.87L54.914 42.1472L55.1913 46.3065L54.3594 47.1384L52.1411 46.5838L51.8638 42.7018L52.6957 41.87ZM52.6957 46.0292L53.2503 46.5838L54.3594 46.3065V42.7018L53.2503 42.4245L52.6957 46.0292ZM56.0231 41.87H57.1323L58.796 45.7519V42.1472L59.6278 41.87V47.1384H58.5187L57.1323 43.2564L56.855 47.1384H56.0231V41.87ZM60.4597 41.87L61.2915 42.4245L60.4597 43.5337V41.87ZM62.4007 41.87L64.6189 42.1472L64.8962 43.2564L62.9552 42.4245L62.6779 43.5337L64.8962 45.1974V46.3065L64.0644 47.1384L61.8461 46.5838V45.4747L62.9552 46.5838L64.0644 46.3065L61.8461 43.8109L62.4007 41.87ZM67.3918 41.87H68.2236V46.5838L69.8873 47.1384H67.3918V41.87ZM71.8283 41.87L72.9375 42.4245L74.3239 47.1384H73.492L73.2148 46.0292H71.2738L70.9965 47.1384H70.1646L71.8283 41.87ZM71.551 45.1974H72.9375L72.1056 42.9791L71.551 45.1974ZM74.3239 41.87H75.1557L75.9876 46.0292L77.0967 41.87L78.2059 42.4245L78.7604 46.0292L79.8696 41.87L80.7014 42.4245L79.315 47.1384L78.2059 46.5838L77.6513 43.2564L76.5422 47.1384H75.7103L74.3239 41.87ZM83.4743 41.87L85.6926 42.4245V43.2564L83.7516 42.4245L83.4743 43.5337L85.6926 44.9201V46.5838L85.138 47.1384L82.6424 46.5838V45.4747H83.4743L83.7516 46.5838L85.138 46.0292L82.6424 43.5337L83.4743 41.87ZM87.3563 41.87H89.02L89.5745 43.5337L88.7427 42.4245L87.3563 42.7018V46.3065L88.7427 46.5838L89.5745 45.4747V46.5838L87.3563 47.1384L86.5244 46.0292V42.9791L87.3563 41.87ZM90.4064 41.87H91.2383V44.0882H92.9019V41.87H93.7338V47.1384H92.9019V44.6428H91.2383V47.1384H90.4064V41.87ZM95.1202 41.87L97.6158 42.4245L97.8931 46.0292L97.0612 47.1384L94.8429 46.8611L95.1202 41.87ZM95.3975 46.3065L97.0612 46.0292V42.9791L95.6748 42.4245L95.3975 46.3065ZM99.2795 41.87H101.22L102.052 43.8109L101.775 46.5838L99.2795 47.1384L98.4476 45.4747L99.2795 41.87ZM99.2795 45.7519L100.666 46.5838L101.22 45.7519V43.2564L99.8341 42.4245L99.2795 45.7519ZM-49.8996 42.4245L-49.345 44.9201L-49.8996 45.7519L-51.5633 46.5838L-54.0588 45.7519L-53.5043 44.9201L-51.0087 45.1974V43.5337L-49.8996 42.4245ZM-15.7936 42.4245L-14.4071 43.8109V45.1974L-11.9116 44.9201L-11.357 45.7519L-12.7434 46.5838L-15.239 46.0292L-16.3481 44.0882L-15.7936 42.4245ZM-51.286 1.94099H-14.1299L-12.1889 24.1237L-13.8526 30.7786L-16.0708 35.2151L-22.4484 42.7018L-32.7079 49.3566L-36.0353 47.6929L-42.4129 43.2564L-46.8494 38.8198L-51.5633 31.0559L-53.227 24.9556L-53.5043 19.4099L-51.8405 11.0914L-51.286 1.94099ZM-18.5664 44.9201L-17.18 46.0292V47.9702L-14.6844 47.6929L-13.5753 48.5248L-14.6844 49.3566L-17.7346 49.0794L-18.8437 47.6929L-18.5664 44.9201ZM-44.9084 47.1384L-43.7993 47.9702L-44.0766 50.4658L-46.0176 51.8522L-48.7904 51.2976L-47.9586 50.1885H-45.463L-44.9084 47.1384ZM-21.3393 47.1384L-19.9528 48.2475V50.1885L-18.2891 49.9112L-16.6254 51.0203L-18.0118 51.8522L-20.2301 51.5749L-21.6165 50.1885L-21.3393 47.1384ZM-41.581 49.0794L-40.1946 50.4658L-40.7492 52.9613L-42.4129 54.0705L-44.9084 53.7932L-44.0766 52.4068H-41.8583L-41.581 49.0794ZM-24.3894 49.0794L-23.2802 50.7431L-23.8348 52.4068H-21.6165L-20.5074 53.7932L-23.2802 54.0705L-24.944 52.6841L-25.2212 50.1885L-24.3894 49.0794ZM-35.758 55.4569L-36.0353 56.0115L-38.2536 54.9023L-39.3627 55.7342L-42.1356 55.4569L-41.0264 54.0705H-39.0855L-38.8082 51.0203L-37.4218 52.4068L-37.9763 54.3478L-35.758 55.4569ZM-47.404 44.9201L-46.5721 47.4156L-47.404 48.8021L-48.5131 49.3566L-51.8405 48.8021L-50.7314 47.6929L-48.5131 47.9702V46.3065L-47.404 44.9201Z" fill="white"/>
</g>
<defs>
<clipPath id="clip0_96_3088">
<rect width="167.203" height="59.0616" fill="white" transform="translate(-61.8228)"/>
</clipPath>
</defs>
</svg>
