<svg width="355" height="355" viewBox="0 0 355 355" fill="none" xmlns="http://www.w3.org/2000/svg">
<path d="M147.624 113.069C144.749 112.696 119.224 112.696 114.645 113.069C114.566 113.086 114.497 113.132 114.451 113.198C114.405 113.264 114.385 113.345 114.396 113.424C114.412 113.484 114.444 113.538 114.487 113.581C114.531 113.625 114.585 113.656 114.645 113.673C118.763 114.028 144.695 114.187 147.535 113.815C147.944 113.779 148.068 113.122 147.624 113.069ZM267.525 157.48C267.17 157.48 262.609 159.095 263.816 159.752L265.094 160.817C264.81 161.456 267.596 164.367 265.679 171.218C264.881 170.668 264.863 171.218 264.969 171.396C267.934 174.449 289.109 191.4 293.831 194.471C294.257 195.092 296.955 193.761 297.381 193.619C306.759 189.62 315.914 185.117 324.805 180.129C328.053 178.354 328.017 171.981 324.077 169.479C319.932 166.722 315.616 164.232 311.155 162.024L316.657 157.71C317.048 157.409 316.835 156.29 315.344 157.497C312.133 152.309 310.834 146.164 311.67 140.12C311.883 139.996 314.261 138.576 313.214 138.114C307.889 135.896 290.245 129.417 284.814 129.08C283.039 128.955 268.839 140.315 267.508 142.605C264.668 147.344 265.537 152.758 267.614 157.533L267.525 157.48ZM266.105 171.484C267.88 169.55 267.33 164.242 266.478 161.899C268.91 163.852 288.453 178.584 294.665 182.525C298.02 189.625 294.275 193.068 294.399 193.601C283.997 186.377 275.531 178.123 266.105 171.484ZM323.953 170.686C326.917 172.212 326.242 178.567 324.112 179.312C314.456 184.477 304.907 189.128 294.931 193.512C296.242 191.744 296.956 189.606 296.973 187.406L310.64 181.797C310.889 181.673 310.64 181.336 310.445 181.389C305.856 182.923 301.363 184.731 296.99 186.803C296.956 185.077 296.419 183.4 295.446 181.975C299.617 180.324 320.935 169.266 323.953 170.686ZM294.363 152.652C299.586 148.327 305.05 144.303 310.729 140.599C310.315 142.758 310.237 144.967 310.498 147.149C309.628 147.433 298.872 155.314 298.322 155.74C298.091 155.918 298.322 156.29 298.606 156.148L310.622 147.983C310.995 150.486 312.504 156.184 314.829 157.728C312.468 159.645 300.789 168.893 297.949 168.893C295.82 166.839 294.346 164.2 293.714 161.31C293.083 158.42 293.321 155.407 294.399 152.652H294.363ZM292.038 137.333C293.281 138.398 288.133 141.398 287.938 141.451C287.352 141.629 286.962 141.025 288.222 139.818C288.861 139.268 291.204 136.677 292.038 137.351V137.333ZM282.364 140.298C283.252 138.523 286.944 135.576 288.506 134.511C288.583 134.458 288.67 134.42 288.761 134.399C288.853 134.379 288.947 134.378 289.04 134.394C289.132 134.411 289.22 134.445 289.299 134.496C289.378 134.546 289.446 134.612 289.5 134.689C289.553 134.766 289.591 134.852 289.612 134.944C289.632 135.035 289.633 135.13 289.617 135.222C289.601 135.315 289.566 135.403 289.515 135.482C289.465 135.561 289.399 135.629 289.322 135.683C287.938 136.748 284.175 140.28 283.128 141.008C283.049 141.051 282.96 141.074 282.87 141.074C282.78 141.074 282.692 141.051 282.613 141.008C282.551 140.979 282.495 140.938 282.448 140.888C282.402 140.837 282.366 140.778 282.343 140.714C282.32 140.649 282.31 140.581 282.314 140.512C282.317 140.444 282.335 140.377 282.364 140.315V140.298ZM269.336 143.368C276.951 145.435 284.431 147.966 291.736 150.948C292.198 151.178 292.038 151.959 291.488 151.853C283.878 149.733 276.404 147.154 269.105 144.132C269.024 144.086 268.961 144.014 268.926 143.928C268.891 143.842 268.887 143.746 268.914 143.657C268.941 143.568 268.997 143.491 269.074 143.439C269.151 143.386 269.243 143.361 269.336 143.368ZM268.022 158.332C276.489 163.106 292.251 169.177 298.197 170.064C299.387 170.242 309.043 163.461 310.622 162.308C311.652 163.319 320.225 168.165 322.408 169.514C319.249 169.674 296.316 180.359 294.665 181.407C284.814 174.04 274.59 166.568 264.49 159.556L268.04 158.332H268.022ZM147.624 113.069H147.642H147.624ZM176.45 79.2376C176.342 79.1932 176.221 79.1932 176.113 79.2376C175.066 79.8766 169.013 88.1126 167.788 89.6569C166.617 88.0594 165.427 86.4796 164.238 84.9354C164.007 84.6514 163.528 84.9354 163.706 85.3081C164.895 87.2074 166.173 89.0356 167.469 90.8639C167.682 91.1479 168.09 91.0059 168.267 90.7751C169.386 89.3551 176.503 80.7641 176.805 79.7879C176.818 79.7284 176.819 79.667 176.808 79.6071C176.798 79.5472 176.775 79.49 176.742 79.4389C176.709 79.3877 176.666 79.3436 176.616 79.3091C176.566 79.2746 176.51 79.2503 176.45 79.2376ZM142.601 116.513C131.951 116.726 120.147 116.513 115.568 116.903C115.473 116.903 115.383 116.941 115.317 117.007C115.25 117.074 115.213 117.164 115.213 117.258C115.213 117.352 115.25 117.443 115.317 117.509C115.383 117.576 115.473 117.613 115.568 117.613C121.07 117.613 138.199 118.181 142.601 117.24C142.974 117.152 142.903 116.619 142.601 116.513ZM142.991 98.6739C143.346 98.6739 143.453 98.0704 142.991 98.0171C139.441 97.4846 118.141 98.5319 112.976 99.3306C112.882 99.3306 112.792 99.368 112.725 99.4346C112.658 99.5012 112.621 99.5915 112.621 99.6856C112.621 99.7798 112.658 99.8701 112.725 99.9367C112.792 100.003 112.882 100.041 112.976 100.041C119.934 100.041 135.749 98.9579 142.903 98.7094L142.991 98.6739ZM135.927 102.224C136.229 102.224 136.388 101.62 135.927 101.514C134.152 101.07 116.402 101.514 113.722 101.816C113.679 101.822 113.639 101.837 113.602 101.859C113.566 101.882 113.535 101.911 113.51 101.946C113.485 101.981 113.467 102.02 113.458 102.062C113.449 102.103 113.448 102.146 113.455 102.188C113.465 102.257 113.496 102.322 113.543 102.373C113.591 102.424 113.653 102.458 113.722 102.472C117.147 102.668 133.832 102.792 135.927 102.224ZM173.77 111.986C174.746 110.566 164.043 111.081 163.581 111.56C163.12 112.04 163.581 119.335 163.581 120.009C163.581 121.057 173.504 121.039 173.894 120.737C174.337 117.849 174.337 114.91 173.894 112.022L173.77 111.986ZM173.007 119.938C172.066 119.938 165.09 120.063 164.522 119.619C164.522 117.116 164.362 114.631 164.274 112.146H173.149C172.829 114.731 172.782 117.343 173.007 119.938Z" fill="#8D191C"/>
<path d="M298.905 161.313C301.39 159.84 303.928 158.402 306.324 156.805C306.662 156.574 306.324 155.971 305.934 156.184L298.639 160.905C298.598 160.945 298.572 160.998 298.565 161.056C298.559 161.113 298.573 161.17 298.604 161.218C298.636 161.266 298.683 161.302 298.738 161.32C298.792 161.337 298.852 161.335 298.905 161.313ZM281.013 180.803C280.8 180.661 280.516 180.998 280.729 181.176C282.504 182.72 291.237 188.826 293.154 190.175C293.402 190.352 293.615 189.944 293.385 189.767C289.657 186.927 284.971 183.181 281.013 180.803ZM166.028 105.809C166.951 105.809 174.176 106.643 174.105 105.454C174.034 104.265 173.927 97.431 173.466 97.218C173.341 96.0288 164.342 96.8985 163.508 97.0583C162.993 97.0583 163.206 103.981 163.242 104.815C163.295 106.022 165.23 105.774 166.028 105.809ZM173.004 97.6263V105.099C170.014 104.791 167.004 104.732 164.005 104.922C164.123 102.489 164.075 100.052 163.863 97.6263C165.336 97.6263 172.063 97.857 173.004 97.6263ZM292.763 186.767C292.808 186.804 292.865 186.825 292.923 186.825C292.982 186.825 293.038 186.804 293.083 186.767C293.118 186.728 293.137 186.677 293.137 186.625C293.137 186.572 293.118 186.522 293.083 186.483C284.953 180.714 276.877 173.774 268.89 168.36C268.659 168.183 268.304 168.52 268.535 168.751C273.008 173.011 286.977 182.951 292.834 186.856L292.763 186.767ZM315.501 176.578H315.537H315.501ZM174.069 85.5385C174.045 85.4592 173.99 85.3927 173.917 85.3529C173.844 85.3131 173.759 85.3033 173.679 85.3255C173.625 85.3381 173.576 85.3644 173.535 85.4017C173.495 85.439 173.465 85.4861 173.448 85.5385V91.751H163.614C163.442 88.8905 163.122 86.0408 162.656 83.2133C165.432 83.3422 168.214 83.271 170.981 83.0003C171.043 82.9802 171.097 82.9392 171.132 82.8842C171.168 82.8292 171.183 82.7636 171.176 82.6985C171.166 82.6607 171.148 82.6255 171.123 82.5949C171.099 82.5644 171.069 82.5392 171.034 82.521C170.377 82.308 162.159 81.598 162.407 83.018C161.591 83.018 162.78 91.893 162.78 91.893C163.206 92.9758 164.999 92.603 165.94 92.603C166.88 92.603 173.412 92.7628 173.945 92.603C174.797 92.2658 174.318 86.5858 174.122 85.503L174.069 85.5385Z" fill="#8D191C"/>
<path d="M345.589 246.567C322.976 247.952 300.357 249.135 277.731 250.117C277.436 246.88 276.841 243.678 275.956 240.55C298.44 239.958 320.923 239.266 343.406 238.473C343.521 238.459 343.628 238.408 343.711 238.328C343.794 238.248 343.849 238.143 343.868 238.029C343.883 237.891 343.843 237.752 343.757 237.642C343.67 237.533 343.545 237.461 343.406 237.444C320.828 238.284 298.256 238.976 275.69 239.52C270.365 220.954 259.129 203.293 246.03 189.306C245.621 184.584 245.604 182.206 243.58 177.466C239.675 168.503 235.362 166.639 235.468 168.769C235.467 169.33 235.557 169.887 235.735 170.42C235.025 169.532 229.806 164.101 228.741 167.029C227.956 166.535 227.069 166.225 226.148 166.12C225.226 166.016 224.292 166.12 223.416 166.426C220.097 161.101 214.541 161.101 210.991 159.326C204.211 155.776 207.335 144.451 212.322 140.227C212.322 140.227 233.747 139.819 233.764 139.552C234.155 134.529 238.433 58.0799 238.433 58.0799C185.644 57.0327 128.844 58.0799 76.4462 59.1449C76.0912 59.1449 75.7895 59.3757 75.825 59.6952C78.9845 86.5864 86.7412 141.629 86.7412 141.629C88.0192 142.144 204.051 140.333 210.991 140.227C208.023 143.464 206.399 147.71 206.447 152.102C206.802 163.284 215.695 158.527 222.972 166.71C218.251 168.733 217.647 174.715 219.422 178.993C219.745 179.813 220.181 180.584 220.718 181.283C220.793 182.951 221.268 184.576 222.103 186.022C224.375 190.335 228.422 191.826 228.635 192.465C228.635 202.512 230.747 214.759 232.753 224.557C225.99 221.007 205.932 212.54 185.307 211.937C186.478 201.766 195.265 200.488 194.058 193.69C197.732 193.548 201.406 193.406 205.08 193.228C206.003 193.228 204.992 190.388 204.885 189.909C203.394 183.342 201.897 176.786 200.394 170.242C200.164 169.355 199.134 163.391 198.264 163.391L186.816 163.604C184.295 161.207 178.384 160.32 175.97 163.107C172.42 156.273 161.451 157.267 161.096 163.905C158.096 161.864 153.641 161.456 150.925 164.225C150.641 164.349 96.9475 165.077 88.96 165.396H88.818C88.7317 165.451 88.6703 165.538 88.6471 165.637C88.6239 165.737 88.6406 165.842 88.6937 165.929C88.8357 166.852 84.203 188.755 83.6527 194.027C83.6527 194.773 91.6935 194.666 92.5277 194.666C81.0612 208.103 70.7485 223.261 67.6777 240.994C48.3302 240.692 28.9827 240.213 9.63523 240.284C9.54108 240.284 9.45078 240.321 9.38421 240.388C9.31763 240.454 9.28023 240.545 9.28023 240.639C9.28023 240.733 9.31763 240.823 9.38421 240.89C9.45078 240.956 9.54108 240.994 9.63523 240.994C28.894 241.828 48.206 241.917 67.4825 242.059C66.9082 245.578 66.6705 249.144 66.7725 252.709C47.6025 252.318 28.4325 251.715 9.28023 251.395C8.85423 251.395 8.78323 252.07 9.28023 252.07C28.4502 253.046 47.6557 253.401 66.8612 253.685C67.3582 263.323 71.1567 275.145 80.5997 279.476C84.487 287.108 92.723 293.977 101.9 292.007C101.633 293.392 101.385 294.812 101.119 296.232C101.012 296.871 101.971 297.137 102.077 296.498C104.686 282.44 107.402 268.311 111.964 254.75C112.106 254.324 111.467 254.164 111.307 254.572C106.87 266.358 104.367 278.748 102.059 291.084C92.6697 292.451 85.1792 286.469 81.292 278.375C79.2006 274.098 77.9909 269.444 77.7347 264.691C77.4786 259.937 78.1813 255.18 79.801 250.703C84.6467 238.278 97.551 229.403 110.224 223.332C123.111 217.226 136.95 213.377 151.138 211.955C152.15 221.433 163.048 224.646 171.355 224.149C179.662 223.652 184.579 221.114 185.289 212.736C185.396 212.736 215.269 213.392 241.06 230.628C248.639 235.686 255.526 242.183 259.555 250.437C263.496 258.406 264.88 268.187 261.33 276.494C256.254 288.599 246.988 290.356 240.847 291.439C238.675 278.442 234.483 265.865 228.422 254.164C228.262 253.862 227.765 254.058 227.925 254.377C234.246 268.007 238.557 282.482 240.722 297.35C240.722 297.811 241.645 297.936 241.645 297.35C241.574 295.725 241.36 294.11 241.006 292.522C247.7 291.946 253.898 288.758 258.259 283.647C272.459 280.097 278.654 264.743 277.784 251.218C300.457 250.295 323.106 249.111 345.731 247.668C346.353 247.437 346.122 246.567 345.589 246.567ZM86.8122 130.411C83.2622 107.833 80.44 85.3617 77.2272 62.7659C130.477 61.8429 185.112 62.2334 237.634 61.3459L233.534 127.926C211.364 128.601 89.67 129.293 86.8122 130.411ZM193.845 192.696C193.52 191.749 192.897 190.934 192.07 190.371C192.99 188.907 193.488 187.218 193.507 185.489H194.466L195.797 192.589L193.845 192.696ZM192.354 179.685C192.657 179.441 192.937 179.167 193.188 178.869C193.614 180.768 193.969 182.667 194.324 184.566H193.472C193.559 182.867 193.172 181.177 192.354 179.685ZM204.495 192.234L196.33 192.589C196.117 190.193 195.655 187.832 195.229 185.489C197.781 185.574 200.335 185.509 202.879 185.294C203.412 187.584 203.962 189.927 204.495 192.234ZM202.72 184.478H195.087L193.809 177.821L201.175 177.608L202.72 184.478ZM200.945 176.845L194.004 177.058C194.138 176.216 194.078 175.355 193.829 174.54C193.58 173.725 193.148 172.978 192.567 172.354C192.46 171.822 192.354 171.272 192.212 170.721L199.525 170.562L200.945 176.845ZM198.229 164.172C198.619 165.947 198.974 167.846 199.329 169.692L192.034 169.816C191.662 167.95 191.182 166.107 190.596 164.296L198.229 164.172ZM191.519 171.698C190.655 171.305 189.679 171.236 188.768 171.502C188.85 171.283 188.915 171.057 188.963 170.828H191.306L191.519 171.698ZM189.744 164.314C190.077 166.177 190.516 168.02 191.058 169.834H189.088C189.291 167.867 188.746 165.896 187.561 164.314H189.744ZM146.772 165.077H150.197C149.474 166.195 149.219 167.553 149.487 168.858L146.47 169.727C146.612 168.201 146.772 166.497 146.772 165.077ZM145.813 165.077V170.029C145.513 170.208 145.222 170.404 144.943 170.615L136.548 170.757C136.625 168.915 136.572 167.071 136.388 165.237L145.813 165.077ZM142.086 177.946H136.494V171.733L143.772 171.609C143.002 172.452 142.447 173.468 142.153 174.571C141.86 175.674 141.837 176.832 142.086 177.946ZM136.53 186.164H141.376C141.444 187.713 142.018 189.196 143.009 190.388C142.423 190.794 141.952 191.343 141.641 191.984C141.33 192.624 141.19 193.334 141.234 194.045H136.441C136.494 191.382 136.53 188.773 136.53 186.164ZM141.855 184.016C141.699 184.387 141.586 184.774 141.518 185.17H136.619V178.762H142.352C142.738 179.822 143.43 180.742 144.34 181.407C143.231 181.981 142.335 182.896 141.784 184.016H141.855ZM135.909 194.027H113.916C114.147 190.974 113.916 189.057 115.887 186.43L135.713 186.199C135.696 188.809 135.749 191.418 135.838 194.027H135.909ZM116.614 185.454C118.462 183.587 119.858 181.322 120.697 178.833H125.134V185.347L116.614 185.454ZM126.27 165.432L135.571 165.272C135.471 167.111 135.471 168.954 135.571 170.792L126.217 170.952C126.217 169.124 126.235 167.278 126.27 165.432ZM126.146 171.928L135.536 171.769V177.981H126.022C126.022 175.958 126.022 173.952 126.146 171.928ZM126.022 178.815H135.625V185.223L125.631 185.347C125.773 183.164 125.88 181.052 126.022 178.815ZM117.147 165.592L125.649 165.45L125.454 170.97L116.792 171.112C117.003 169.28 117.068 167.434 116.987 165.592H117.147ZM116.721 172.07L125.436 171.928L125.276 177.963H120.928C121.141 176.987 121.531 175.39 120.377 174.857C119.224 174.325 118.123 176.987 115.993 177.946C116.188 175.993 116.366 174.041 116.561 172.088L116.721 172.07ZM109.124 165.734L116.455 165.609C116.201 167.44 116.041 169.283 115.975 171.13H115.372C116.135 169.266 112.017 168.059 108.467 171.13C108.52 170.224 109.017 166.337 108.964 165.734H109.124ZM115.745 172.177C115.62 174.112 115.514 176.029 115.39 177.963H112.621C112.088 176.401 112.621 172.727 114.041 172.177H115.709H115.745ZM108.059 165.787L107.775 171.289H104.456C103.142 168.556 103.976 166.479 102.681 165.822L108.059 165.787ZM107.349 172.283C106.94 172.796 106.594 173.356 106.319 173.952L105.006 172.337L107.349 172.283ZM96.0067 166.018L101.704 165.911C99.9295 166.763 99.6632 169.781 99.6632 171.431H96.983C96.0777 170.65 95.6872 171.431 95.0127 171.431L95.9712 165.911L96.0067 166.018ZM99.9472 175.035C98.9623 174.378 98.1618 173.479 97.622 172.425H99.6277C99.6489 173.3 99.7319 174.172 99.8762 175.035H99.9472ZM94.072 177.697L94.924 172.479C94.746 174.28 94.9703 176.099 95.5807 177.804L94.072 177.697ZM95.847 178.567C96.5747 180.999 97.622 183.217 98.119 185.667L92.794 185.773L93.859 178.549L95.847 178.567ZM89.4037 166.035H95.2257C94.8885 167.81 94.569 169.727 94.2495 171.591C92.3147 171.591 90.3622 171.698 88.4275 171.786C88.8455 169.89 89.1478 167.969 89.3327 166.035H89.4037ZM88.3032 172.514H94.072C93.8057 174.289 93.5217 176.064 93.2377 177.715H87.2915C87.5932 175.94 87.9127 174.218 88.2322 172.514H88.3032ZM87.2205 178.336C89.173 178.443 91.1255 178.496 93.078 178.531C92.7407 180.928 92.3502 183.359 92.0307 185.773C89.954 185.773 87.8772 185.915 85.8005 186.004C86.2797 183.448 86.7412 180.892 87.2205 178.336ZM91.2142 193.725H84.3627C84.8065 191.347 85.268 188.986 85.7472 186.625L91.9065 186.785C91.532 189.084 91.2773 191.4 91.1432 193.725H91.2142ZM91.7112 193.725L92.7585 186.625H98.2787C98.3319 187.097 98.3319 187.574 98.2787 188.045L93.291 193.743L91.7112 193.725ZM79.6235 248.271C77.5474 253.002 76.5095 258.122 76.58 263.288C76.6504 268.453 77.8274 273.543 80.0317 278.215C62.8497 266.607 66.5062 240.94 73.8192 224.539C79.801 211.103 89.2795 199.689 98.9887 188.738C100.409 187.122 95.8115 176.313 95.6517 173.668C95.5452 171.698 96.3617 171.289 97.0895 172.692C97.8172 174.094 98.8645 175.691 100.302 176.029C100.87 177.697 101.314 177.165 101.243 176.898C100.639 173.97 99.5922 169.798 101.545 167.1C102.965 165.219 102.911 168.68 103.053 169.355C103.391 170.97 104.828 174.094 106.124 174.68C105.68 175.94 106.426 175.496 106.479 175.336C109 168.716 116.703 169.656 114.218 171.289C113.563 171.681 113.006 172.217 112.591 172.857C112.175 173.497 111.912 174.224 111.822 174.981C110.917 181.247 115.851 180.306 119.437 175.94C120.928 174.165 120.999 177.981 118.638 181.833C116.632 185.099 113.916 186.27 113.597 190.548C112.709 201.003 110.562 213.481 109.124 222.676C97.338 228.373 85.2857 236.077 79.5525 248.289L79.6235 248.271ZM110.047 222.196C111.78 213.171 113.019 204.058 113.757 194.897H141.287C142.316 200.843 149.7 201.642 150.89 210.872C136.723 212.257 122.904 216.089 110.047 222.196ZM184.987 207.872C184.546 209.268 184.26 210.709 184.135 212.168C183.425 219.694 180.23 222.196 171.87 222.818C162.995 223.545 153.375 220.741 152.026 211.174C150.836 202.654 148.103 203.399 143.719 197.435C142.405 195.66 141.234 192.359 143.719 190.974C144.94 192.315 146.469 193.339 148.174 193.956C152.008 202.565 153.304 212.487 164.451 213.588C185.999 215.593 181.171 203.861 188.005 193.619C189.334 193.005 190.537 192.15 191.555 191.098C192.33 191.746 192.865 192.635 193.074 193.624C193.283 194.612 193.155 195.641 192.709 196.548C190.969 200.754 186.78 202.352 184.987 207.872ZM228.972 168.059C229.575 169.408 230.197 170.739 230.747 172.088C229.877 170.97 225.617 166.319 224.197 168.804C223.469 170.1 224.996 172.035 225.617 173.189C223.235 173.611 221.106 174.932 219.671 176.881C217.399 168.627 225.422 164.509 228.972 168.059ZM220.949 180.147C220.612 179.312 220.257 178.46 219.902 177.626C221.459 175.802 223.553 174.517 225.883 173.952C226.882 176.013 227.53 178.227 227.8 180.502C228.28 185.046 224.801 181.797 223.114 180.235C222.458 179.561 221.357 179.277 220.86 180.147H220.949ZM259.378 282.049C265.253 273.813 265.501 263.181 262.093 253.88C257.265 240.727 245.781 231.515 233.693 225.072C231.369 214.338 229.862 203.444 229.185 192.483C229.185 190.814 223.54 189.678 221.783 183.129C221.464 181.939 220.807 178.815 222.955 181.052C225.102 183.288 228.759 185.347 228.599 180.448C228.386 174.644 224.446 170.775 224.801 169.461C225.244 167.81 228.528 170.917 229.061 171.449C230.448 172.976 231.707 174.614 232.824 176.348C233.019 176.632 233.498 176.348 233.321 176.082C232.907 175.372 232.481 174.662 232.043 173.952C232.327 173.348 229.132 167.704 229.7 167.171C230.268 166.639 232.824 168.485 233.392 168.946C236.356 171.52 236.498 173.242 237.51 174.573C237.556 174.589 237.606 174.589 237.652 174.573C237.715 174.578 237.778 174.559 237.827 174.52C237.877 174.48 237.909 174.423 237.918 174.36C237.811 173.224 237.155 172.585 236.835 171.804C236.516 171.023 235.859 169.266 236.303 168.645C236.516 168.467 237.74 169.372 237.882 169.514C239.054 170.636 240.031 171.944 240.776 173.384C246.207 182.667 244.574 188.649 245.497 189.554C258.969 204.73 273.365 226.953 276.276 247.011C278.246 260.927 273.862 277.15 259.289 282.049H259.378Z" fill="#8D191C"/>
<path d="M130.635 88.7524C131.044 88.6281 130.884 88.0424 130.511 87.9891C124.05 88.1134 117.181 87.9891 110.809 88.1666C110.312 88.1666 110.383 88.9299 110.809 89.0009C114.075 89.5334 127.795 89.6221 130.635 88.7524ZM300.095 183.679C302.509 182.632 314.295 177.875 315.697 177.076C315.723 177.053 315.745 177.024 315.759 176.992C315.774 176.96 315.781 176.925 315.781 176.89C315.781 176.855 315.774 176.82 315.759 176.788C315.745 176.756 315.723 176.727 315.697 176.704C315.668 176.661 315.628 176.626 315.581 176.604C315.534 176.583 315.482 176.574 315.431 176.579C312.449 177.201 302.793 181.798 299.793 183.289C299.633 183.413 299.846 183.786 300.095 183.679ZM181.045 142.002L143.415 142.57C145.031 160.817 181.525 161.101 181.045 142.002ZM181.045 102.952C181.045 103.029 181.075 103.104 181.127 103.16C181.18 103.216 181.253 103.25 181.329 103.254C187.347 103.396 200.073 103.769 204.884 103.112C205.274 103.112 205.15 102.455 204.884 102.455C198.085 102.455 188.27 102.455 181.418 102.651C181.373 102.64 181.326 102.639 181.281 102.65C181.236 102.66 181.193 102.68 181.157 102.709C181.121 102.739 181.092 102.776 181.073 102.818C181.054 102.86 181.044 102.906 181.045 102.952ZM129.57 76.3274C130.067 76.3274 129.854 75.6174 129.446 75.5464C117.216 75.9014 103.904 76.1676 91.9759 76.4339C91.936 76.4403 91.8978 76.4547 91.8636 76.4761C91.8293 76.4976 91.7997 76.5257 91.7765 76.5588C91.7534 76.5919 91.7371 76.6293 91.7286 76.6689C91.7202 76.7084 91.7198 76.7492 91.7274 76.7889C91.7377 76.8511 91.7672 76.9085 91.8118 76.9531C91.8563 76.9976 91.9138 77.0271 91.9759 77.0374C100.656 77.6586 118.299 76.7179 129.57 76.3274ZM136.404 72.2626C136.812 72.2626 136.937 71.5526 136.404 71.4994C132.428 71.0201 93.2184 71.6591 90.4849 72.2626C90.2187 72.2626 90.2364 72.7951 90.4849 72.7951C100.549 72.7774 124.671 72.0851 136.404 72.2626ZM59.2449 199.051V199.033V199.051ZM59.9904 199.353C61.3579 196.823 62.4072 194.134 63.1144 191.347C63.4449 190.39 63.5205 189.362 63.3338 188.366C63.1471 187.371 62.7045 186.44 62.0494 185.667C62.6937 184.046 63.025 182.318 63.0257 180.573C62.6707 177.68 59.5999 177.857 57.9492 180.076C51.2929 188.951 43.9444 203.151 44.1574 214.067C44.0332 214.582 44.2994 215.168 44.7609 214.742C52.6414 206.934 58.4705 197.3 61.7299 186.697C63.9487 189.998 60.5229 195.696 59.2449 199.033C59.0852 199.477 59.7597 199.743 59.9904 199.353ZM44.8319 213.34C44.9621 211.37 45.235 209.412 45.6484 207.482L48.3819 209.452C47.2282 210.73 46.0389 212.062 44.8319 213.34ZM61.3217 184.94C60.1197 183.931 58.6762 183.252 57.1327 182.969C57.7258 181.886 58.4404 180.874 59.2627 179.952C60.0614 179.206 61.5879 178.905 62.0494 180.165C62.2061 181.781 61.9559 183.41 61.3217 184.904V184.94ZM106.495 94.5211C105.714 94.8406 101.17 101.621 100.336 102.81C99.3034 101.438 98.1118 100.193 96.7862 99.1006C96.7122 99.0663 96.6282 99.06 96.5499 99.0828C96.4715 99.1057 96.4042 99.1562 96.3602 99.2249C96.3343 99.2935 96.3343 99.3693 96.3602 99.4379C97.3723 101.095 98.5627 102.637 99.9102 104.035C99.9584 104.088 100.017 104.131 100.083 104.16C100.149 104.189 100.22 104.204 100.292 104.204C100.364 104.204 100.435 104.189 100.501 104.16C100.566 104.131 100.625 104.088 100.673 104.035V103.946L106.495 95.9944C107.312 94.8406 107.081 94.2194 106.495 94.5211ZM212.995 85.2024C213.368 85.2024 213.439 84.4924 212.995 84.4391C201.921 83.8884 190.822 84.0485 179.767 84.9184C179.395 84.9184 179.43 85.5751 179.767 85.5574C188.145 85.4864 203.854 85.7526 212.995 85.2024Z" fill="#8D191C"/>
<path d="M106.497 105.276C107.207 104.992 105.787 99.7027 105.592 98.8684C105.586 98.8311 105.573 98.7954 105.553 98.7631C105.533 98.7309 105.507 98.7029 105.477 98.6806C105.446 98.6584 105.412 98.6423 105.375 98.6334C105.339 98.6246 105.3 98.623 105.263 98.6288C105.226 98.6346 105.19 98.6478 105.158 98.6674C105.126 98.6871 105.098 98.7129 105.075 98.7434C105.053 98.7739 105.037 98.8084 105.028 98.8451C105.019 98.8818 105.018 98.9199 105.024 98.9572C105.236 100.856 105.45 102.773 105.805 104.637C102.84 104.868 100.16 104.85 97.2668 104.974C96.7343 102.667 96.2728 99.6494 95.4918 97.3597C97.7243 97.5474 99.9687 97.5474 102.201 97.3597C103.675 97.3597 103.568 96.4367 102.308 96.4544C101.562 96.4544 95.2078 96.3302 95.2078 97.0934C94.3735 97.0934 96.1308 104.531 96.2373 105.028C96.2556 105.116 96.3016 105.197 96.3686 105.257C96.4356 105.318 96.5201 105.356 96.61 105.365C96.823 106.288 106.16 106.146 106.497 105.276ZM213.991 99.0459C213.975 98.977 213.937 98.9151 213.882 98.8702C213.828 98.8252 213.76 98.7996 213.689 98.7974C202.933 98.5134 191.431 99.0282 180.532 99.0104C180.213 99.0104 180.195 99.5429 180.532 99.5784C190.082 100.217 204.85 100.608 213.76 99.4364C213.84 99.4117 213.908 99.358 213.951 99.2858C213.993 99.2136 214.008 99.1281 213.991 99.0459ZM96.8585 92.4429C99.3484 92.5124 101.84 92.3996 104.314 92.1057C105.858 92.4962 103.497 82.8047 103.213 82.3609C103.176 82.2773 103.112 82.208 103.032 82.1632C102.952 82.1184 102.86 82.1006 102.769 82.1124C101.172 82.1124 93.7523 82.1124 92.705 82.3432C91.427 81.3137 93.2908 90.0644 93.557 91.1117C94.0718 92.8689 95.2078 92.4429 96.8585 92.4429ZM92.918 82.9467C96.1931 83.3467 99.5017 83.3943 102.787 83.0887L103.923 91.2892L94.622 91.7684C94.693 91.1649 93.131 84.1182 92.918 82.9467ZM205.577 88.9284C205.671 88.9284 205.762 88.891 205.828 88.8245C205.895 88.7579 205.932 88.6676 205.932 88.5734C205.932 88.4793 205.895 88.389 205.828 88.3224C205.762 88.2558 205.671 88.2184 205.577 88.2184C203.376 87.7747 184.455 88.4492 180.532 88.7864C180.23 88.7864 180.23 89.3012 180.532 89.3189C182.662 89.4077 203.465 89.4609 205.577 88.9284ZM56.5305 145.231C56.8678 145.231 59.3705 143.811 59.9562 146.119C60.7727 149.278 63.9678 147.379 64.4825 144.965C65.1393 141.983 62.2992 139.64 58.9445 139.64C52.1285 139.64 53.6905 145.551 56.5305 145.231ZM58.9445 140.332C62.7785 140.457 65.1393 144.078 62.814 146.208C60.826 147.983 61.039 145.427 60.0805 144.433C58.1635 142.658 56.637 144.805 55.5543 143.9C53.3355 142.125 57.5777 140.226 58.9445 140.332ZM100.515 111.418C97.7283 111.418 97.6218 110.956 97.9768 113.672C98.0833 114.435 98.6335 119.831 99.5565 119.884C99.7518 120.736 107.722 120.435 108.733 120.133C110.1 120.133 108.733 115.926 108.733 115.447C107.562 109.27 109.017 111.187 100.515 111.418ZM100 119.476C99.5565 117.24 99.2193 114.275 98.5803 112.145C101.487 112.429 104.418 112.322 107.296 111.826C107.476 114.297 107.862 116.749 108.449 119.157C105.68 119.281 102.805 119.423 100 119.476ZM216.778 71.2139C213.512 70.9122 166.474 71.2139 160.51 71.6754C160.433 71.6885 160.364 71.731 160.318 71.7939C160.271 71.8568 160.251 71.9352 160.262 72.0127C160.274 72.0739 160.304 72.13 160.349 72.1742C160.393 72.2183 160.449 72.2486 160.51 72.2612C165.569 72.5274 213.157 72.4032 216.778 71.9949C216.881 71.9949 216.98 71.9538 217.054 71.8806C217.127 71.8073 217.168 71.708 217.168 71.6044C217.168 71.5009 217.127 71.4015 217.054 71.3283C216.98 71.2551 216.881 71.2139 216.778 71.2139ZM136.672 84.2602C137.08 84.1714 136.938 83.6212 136.583 83.5502L109.621 84.2247C109.582 84.2289 109.544 84.2412 109.51 84.2608C109.475 84.2804 109.446 84.3069 109.422 84.3386C109.399 84.3703 109.382 84.4066 109.374 84.445C109.365 84.4835 109.365 84.5233 109.372 84.5619C109.383 84.6241 109.412 84.6815 109.457 84.7261C109.501 84.7707 109.559 84.8002 109.621 84.8104C116.384 85.3074 130.797 85.4494 136.672 84.2602ZM243.58 134.155C243.704 135.504 245.053 148.959 245.55 149.935C249.1 156.858 262.164 157.035 262.448 146.793C262.945 142.533 264.667 130.304 263.993 127.268C264.188 126.274 265.217 121.943 265.413 119.654C265.413 119.281 266.123 109.146 264.703 110.69C262.807 113.213 261.127 115.891 259.679 118.695C259.431 119.778 259.182 120.843 258.916 121.908C258.131 121.612 257.315 121.403 256.484 121.287C256.484 120.559 255.952 117.009 255.703 115.589C254.479 113.21 253.218 111.08 252.153 108.613C250.645 104.903 250.609 104.832 250.183 108.915C249.472 113.074 249.472 117.323 250.183 121.482C242.142 123.15 242.977 127.89 243.562 134.155H243.58ZM262.999 114.63C263.216 114.84 263.476 115.001 263.76 115.102C264.045 115.204 264.348 115.242 264.649 115.216V119.689C263.901 119.762 263.147 119.683 262.43 119.457C261.713 119.231 261.049 118.864 260.478 118.376C261.348 117.151 262.253 115.891 262.999 114.63ZM260.443 119.299C261.618 120.135 263.029 120.576 264.472 120.559C263.886 123.86 263.3 127.144 262.839 130.463C262.235 132.629 259.289 133.41 257.372 133.676C258.543 128.99 259.431 123.949 260.443 119.245V119.299ZM256.893 132.398C256.806 132.844 256.747 133.294 256.715 133.747L252.384 133.854L250.609 117.133C251.412 117.375 252.261 117.418 253.084 117.257C253.907 117.096 254.678 116.737 255.331 116.21C255.331 116.21 256.484 132.132 256.893 132.345V132.398ZM250.822 111.453C251.094 111.524 251.378 111.539 251.655 111.496C251.933 111.453 252.199 111.354 252.437 111.205L254.869 115.571C254.232 116.046 253.493 116.367 252.711 116.509C251.928 116.65 251.124 116.609 250.361 116.388C250.33 114.713 250.485 113.04 250.822 111.4V111.453ZM263.123 131.901C262.803 136.374 262.235 145.817 261.082 150.042C259.04 155.526 250.148 155.615 246.225 150.042C245.479 143.882 244.734 137.617 244.006 131.546C247.325 136.356 260.23 135.771 263.123 131.848V131.901Z" fill="#8D191C"/>
<path d="M24.5102 151.463C27.2118 152.874 30.0639 153.976 33.0125 154.747C27.3502 162.539 43.556 173.651 58.3772 167.722C65.1755 165.007 71.9737 156.38 65.3175 150.398C72.4175 144.665 74.9202 136.394 74.6185 127.323C74.157 113.336 67.98 103.041 53.8332 99.7221C46.8636 98.0911 39.5601 98.6553 32.9237 101.337L30.1725 96.5804C31.0422 96.1189 31.9475 95.6751 32.835 95.2846C35.178 94.4859 34.468 92.7641 33.0835 93.2789C5.89046 103.201 -0.393039 138.967 24.5102 151.463ZM33.2255 153.505C32.7285 151.73 34.0597 149.955 33.4385 148.02C32.0185 143.423 26.0722 146.085 24.5635 142.979C22.9127 139.589 27.3147 139.003 28.2022 136.571C28.3592 136.145 28.3992 135.685 28.318 135.239C28.2368 134.793 28.0375 134.376 27.7407 134.033C25.1847 130.838 19.274 134.21 20.9602 126.755C22.2382 121.129 27.6697 118.466 31.6102 120.951C35.5507 123.436 37.9115 125.105 42.8992 122.194C51.2062 117.312 50.1767 127.519 47.6385 130.607C46.2895 132.276 43.84 132.187 41.9585 132.897C35.817 135.204 35.8525 139.34 40.716 140.352C42.5975 140.742 45.0115 140.565 46.4847 141.985C50.4785 145.872 42.2247 154.179 39.6155 155.546C38.2132 155.262 33.9355 154.428 33.2255 153.505ZM55.7502 101.284C66.205 104.532 71.7252 112.094 73.2162 122.904C73.9249 127.569 73.7503 132.326 72.7015 136.926C72.2755 137.512 66.276 139.163 64.3412 136.678C63.5943 135.673 63.0955 134.506 62.8857 133.272C62.676 132.038 62.7611 130.772 63.1342 129.578C64.288 126.596 68.2107 123.969 67.0037 120.916C65.3352 116.691 60.454 122.46 58.395 121.271C55.3065 119.496 61.093 116.088 54.49 114.863C52.0582 114.419 50.0702 115.413 48.2775 112.733C44.1772 106.591 54.845 101.266 55.7502 101.231V101.284ZM35.4975 109.147C35.574 109.268 35.6901 109.359 35.8259 109.404C35.9618 109.45 36.1091 109.447 36.243 109.396C36.3967 109.333 36.5198 109.212 36.5861 109.06C36.6523 108.907 36.6566 108.735 36.598 108.579L33.3675 102.278C39.9511 99.6382 47.1994 99.1413 54.0817 100.858C45.2067 103.787 44.1595 113.798 50.5317 115.52C51.8807 115.892 57.9157 115.36 56.8685 117.934C56.6559 118.351 56.5367 118.81 56.5191 119.278C56.5016 119.746 56.5861 120.213 56.7667 120.645C56.9474 121.077 57.22 121.465 57.5655 121.782C57.911 122.098 58.3212 122.336 58.7677 122.478C61.2527 122.921 63.9152 119.176 65.7435 120.703C68.9385 123.365 60.596 127.483 62.016 133.412C63.081 137.956 64.9625 139.393 69.5775 138.737C70.5884 138.65 71.5689 138.347 72.453 137.849C68.6367 151.215 54.3657 157.374 41.3195 155.759C43.9465 153.345 48.029 148.552 48.4195 145.109C49.023 139.003 42.0117 140.228 39.438 138.879C35.888 137.104 40.9645 134.015 44.2127 133.305C45.2771 133.13 46.3073 132.788 47.2657 132.293C52.5907 129.027 51.1175 115.892 43.3962 120.738C36.7932 124.874 34.752 121.359 31.6812 119.78C26.7645 117.277 20.0195 121.217 19.6822 128.655C19.487 133.713 23.6582 132.631 26.09 133.98C26.5258 134.143 26.8897 134.456 27.1171 134.862C27.3445 135.268 27.4208 135.741 27.3325 136.198C26.7645 137.973 24.1907 138.328 23.4807 140.476C23.2 141.314 23.2102 142.222 23.5098 143.053C23.8094 143.884 24.3808 144.59 25.1315 145.056C27.4567 146.405 31.5747 145.233 32.551 148.446C33.0302 150.008 32.0895 151.605 32.196 153.185C27.6673 151.557 23.6795 148.704 20.6771 144.943C17.6747 141.183 15.7756 136.662 15.1915 131.885C13.594 119.815 20.9602 108.082 31.7877 102.953C32.906 105.012 34.3082 107.142 35.4975 109.147ZM19.5225 104.408C22.1871 101.645 25.2576 99.3047 28.6282 97.4679C29.6175 98.9857 30.5241 100.556 31.344 102.172C25.7731 104.76 21.1369 109.004 18.0681 114.325C14.9993 119.646 13.6476 125.785 14.1975 131.903C14.5675 135.409 15.6666 138.8 17.4242 141.857C19.1819 144.914 21.5592 147.569 24.4037 149.653C7.43471 140.228 6.72471 118.005 19.5225 104.408ZM208.968 116.922C207.442 116.585 184.615 116.478 181.385 116.922C181.305 116.922 181.228 116.954 181.171 117.01C181.115 117.067 181.083 117.144 181.083 117.224C181.083 117.304 181.115 117.38 181.171 117.437C181.228 117.494 181.305 117.525 181.385 117.525C182.609 117.703 206.465 118.111 208.968 117.525C209.051 117.507 209.125 117.461 209.178 117.395C209.231 117.329 209.26 117.246 209.26 117.161C209.26 117.077 209.231 116.994 209.178 116.928C209.125 116.862 209.051 116.816 208.968 116.798V116.922ZM216.547 76.0969C199.419 76.2921 177.284 75.7064 161.842 76.0969C161.416 76.0969 161.451 76.7004 161.842 76.7359C168.321 77.4459 211.329 77.3926 216.547 76.7359C216.598 76.7316 216.648 76.7169 216.692 76.6928C216.737 76.6687 216.777 76.6357 216.808 76.5958C216.84 76.5559 216.863 76.5099 216.876 76.4608C216.889 76.4116 216.892 76.3602 216.885 76.3099C216.856 76.2447 216.809 76.1895 216.749 76.1515C216.689 76.1135 216.619 76.0945 216.547 76.0969ZM214.648 113.07C204.264 112.839 191.289 113.478 180.231 113.194C179.911 113.194 179.84 113.656 180.231 113.691C187.029 114.366 208.311 115.04 214.719 113.798C215.056 113.709 215.092 113.07 214.648 113.07Z" fill="#8D191C"/>
</svg>
