<svg width="154" height="109" viewBox="0 0 154 109" fill="none" xmlns="http://www.w3.org/2000/svg">
<path d="M136.784 79.1586C139.269 77.6854 141.807 76.2476 144.203 74.6501C144.541 74.4194 144.203 73.8159 143.813 74.0289L136.518 78.7504C136.477 78.7906 136.451 78.8438 136.444 78.9009C136.438 78.958 136.452 79.0156 136.483 79.0637C136.515 79.1118 136.562 79.1476 136.617 79.1649C136.671 79.1822 136.73 79.18 136.784 79.1586ZM118.892 98.6481C118.679 98.5061 118.395 98.8434 118.608 99.0209C120.383 100.565 129.116 106.671 131.033 108.02C131.281 108.198 131.494 107.789 131.264 107.612C127.536 104.772 122.85 101.027 118.892 98.6481ZM3.90733 23.6544C4.83033 23.6544 12.0546 24.4886 11.9836 23.2994C11.9126 22.1101 11.8061 15.2764 11.3446 15.0634C11.2203 13.8741 2.22108 14.7439 1.38683 14.9036C0.872085 14.9036 1.08508 21.8261 1.12058 22.6604C1.17383 23.8674 3.10858 23.6189 3.90733 23.6544ZM10.8831 15.4716V22.9444C7.89338 22.6367 4.88334 22.5774 1.88383 22.7669C2.00143 20.3347 1.95398 17.8974 1.74183 15.4716C3.21508 15.4716 9.94233 15.7024 10.8831 15.4716ZM130.642 104.612C130.687 104.65 130.744 104.67 130.802 104.67C130.861 104.67 130.917 104.65 130.962 104.612C130.997 104.573 131.016 104.523 131.016 104.47C131.016 104.418 130.997 104.367 130.962 104.328C122.832 98.5594 114.756 91.6191 106.769 86.2054C106.538 86.0279 106.183 86.3651 106.414 86.5959C110.887 90.8559 124.856 100.796 130.713 104.701L130.642 104.612ZM153.38 94.4236H153.416H153.38ZM11.9481 3.38389C11.9234 3.30461 11.8689 3.23803 11.796 3.19827C11.7231 3.15852 11.6376 3.1487 11.5576 3.17089C11.504 3.18353 11.4547 3.20977 11.4142 3.24709C11.3738 3.2844 11.3437 3.33152 11.3268 3.38389V9.59639H1.49333C1.32109 6.73587 1.00116 3.88615 0.534829 1.05865C3.31126 1.18761 6.09338 1.11642 8.85958 0.84564C8.92193 0.825573 8.97543 0.784575 9.01101 0.729584C9.04659 0.674592 9.06208 0.608991 9.05483 0.543893C9.04466 0.506123 9.02679 0.47086 9.00236 0.440316C8.97792 0.409772 8.94745 0.384609 8.91283 0.366396C8.25608 0.153396 0.0378297 -0.556606 0.28633 0.863394C-0.53017 0.863394 0.659078 9.73839 0.659078 9.73839C1.08508 10.8211 2.87783 10.4484 3.81858 10.4484C4.75933 10.4484 11.2913 10.6081 11.8238 10.4484C12.6758 10.1111 12.1966 4.43114 12.0013 3.34839L11.9481 3.38389Z" fill="#8D191C"/>
</svg>
