<svg width="215" height="116" viewBox="0 0 215 116" fill="none" xmlns="http://www.w3.org/2000/svg">
<path d="M35.003 33.8648C32.1275 33.492 6.60299 33.492 2.02349 33.8648C1.94504 33.8819 1.87591 33.9279 1.82987 33.9937C1.78382 34.0595 1.76423 34.1402 1.77499 34.2198C1.79129 34.2792 1.82276 34.3334 1.86634 34.377C1.90991 34.4205 1.96407 34.452 2.02349 34.4683C6.14149 34.8233 32.0743 34.983 34.9143 34.6103C35.3225 34.5748 35.4468 33.918 35.003 33.8648ZM154.904 78.2753C154.549 78.2753 149.988 79.8905 151.195 80.5473L152.473 81.6123C152.189 82.2513 154.975 85.1623 153.058 92.0138C152.26 91.4635 152.242 92.0138 152.348 92.1913C155.313 95.2443 176.488 112.196 181.21 115.266C181.636 115.888 184.334 114.556 184.76 114.414C194.138 110.416 203.293 105.913 212.184 100.924C215.432 99.1493 215.396 92.7771 211.456 90.2743C207.311 87.5179 202.995 85.0279 198.534 82.8193L204.036 78.506C204.427 78.2043 204.214 77.0861 202.723 78.2931C199.512 73.1051 198.213 66.9593 199.049 60.9158C199.262 60.7915 201.64 59.3715 200.593 58.91C195.268 56.6913 177.624 50.2125 172.193 49.8753C170.418 49.751 156.218 61.111 154.887 63.4008C152.047 68.14 152.916 73.5538 154.993 78.3285L154.904 78.2753ZM153.484 92.2801C155.259 90.3453 154.709 85.038 153.857 82.695C156.289 84.6475 175.832 99.3801 182.044 103.321C185.399 110.421 181.654 113.864 181.778 114.397C171.376 107.172 162.91 98.9185 153.484 92.2801ZM211.332 91.4813C214.296 93.0078 213.621 99.3623 211.491 100.108C201.835 105.273 192.286 109.924 182.31 114.308C183.62 112.54 184.335 110.402 184.352 108.202L198.019 102.593C198.268 102.469 198.019 102.131 197.824 102.185C193.235 103.719 188.742 105.526 184.369 107.598C184.335 105.873 183.798 104.195 182.825 102.77C186.996 101.12 208.314 90.0613 211.332 91.4813ZM181.742 73.4473C186.965 69.1231 192.429 65.0992 198.108 61.395C197.693 63.5533 197.616 65.7627 197.877 67.9448C197.007 68.2288 186.251 76.1098 185.701 76.5358C185.47 76.7133 185.701 77.0861 185.985 76.944L198.001 68.7791C198.374 71.2818 199.883 76.9795 202.208 78.5238C199.847 80.4408 188.168 89.6886 185.328 89.6886C183.198 87.6345 181.725 84.9959 181.093 82.1055C180.461 79.2152 180.7 76.2025 181.778 73.4473H181.742ZM179.417 58.1291C180.66 59.194 175.512 62.1938 175.317 62.2471C174.731 62.4245 174.341 61.821 175.601 60.614C176.24 60.0638 178.583 57.4723 179.417 58.1468V58.1291ZM169.743 61.0933C170.631 59.3183 174.323 56.3718 175.885 55.3068C175.962 55.2532 176.048 55.2152 176.14 55.1952C176.232 55.1751 176.326 55.1732 176.419 55.1897C176.511 55.2062 176.599 55.2407 176.678 55.2912C176.757 55.3418 176.825 55.4074 176.879 55.4843C176.932 55.5612 176.97 55.6479 176.99 55.7395C177.011 55.8311 177.012 55.9258 176.996 56.0181C176.979 56.1104 176.945 56.1985 176.894 56.2775C176.844 56.3564 176.778 56.4247 176.701 56.4783C175.317 57.5433 171.554 61.0756 170.507 61.8033C170.428 61.8468 170.339 61.8696 170.249 61.8696C170.159 61.8696 170.071 61.8468 169.992 61.8033C169.93 61.7747 169.874 61.734 169.827 61.6835C169.781 61.6331 169.745 61.5739 169.722 61.5094C169.699 61.4449 169.689 61.3765 169.692 61.3081C169.696 61.2397 169.713 61.1727 169.743 61.111V61.0933ZM156.715 64.164C164.329 66.2303 171.81 68.7615 179.115 71.7433C179.577 71.974 179.417 72.7551 178.867 72.6486C171.257 70.5282 163.783 67.9498 156.484 64.9273C156.403 64.8818 156.34 64.8101 156.305 64.7238C156.27 64.6375 156.266 64.542 156.293 64.4529C156.32 64.3639 156.376 64.2868 156.453 64.2342C156.53 64.1817 156.622 64.1569 156.715 64.164ZM155.401 79.1273C163.868 83.902 179.63 89.9725 185.576 90.86C186.766 91.0375 196.422 84.257 198.001 83.1033C199.031 84.1151 207.604 88.9608 209.787 90.3098C206.628 90.4696 183.695 101.155 182.044 102.202C172.193 94.836 161.969 87.3633 151.869 80.352L155.419 79.1273H155.401ZM35.003 33.8648H35.0208H35.003ZM63.829 0.0332872C63.721 -0.0110958 63.5998 -0.0110958 63.4918 0.0332872C62.4445 0.672287 56.3918 8.90829 55.167 10.4525C53.9955 8.85504 52.8063 7.27529 51.617 5.73104C51.3863 5.44704 50.907 5.73104 51.0845 6.10379C52.2738 8.00304 53.5518 9.83129 54.8475 11.6595C55.0605 11.9435 55.4688 11.8015 55.6463 11.5708C56.7645 10.1508 63.8823 1.55979 64.184 0.58354C64.197 0.524087 64.1982 0.46264 64.1874 0.402745C64.1766 0.34285 64.154 0.285688 64.121 0.234544C64.088 0.183401 64.0452 0.139289 63.9951 0.104749C63.945 0.0702092 63.8885 0.0459215 63.829 0.0332872ZM29.9797 37.3083C19.3297 37.5213 7.526 37.3083 2.9465 37.6988C2.85235 37.6988 2.76206 37.7362 2.69548 37.8028C2.62891 37.8693 2.59151 37.9596 2.59151 38.0538C2.59151 38.1479 2.62891 38.2382 2.69548 38.3048C2.76206 38.3714 2.85235 38.4088 2.9465 38.4088C8.449 38.4088 25.5777 38.9768 29.9797 38.036C30.3525 37.9473 30.2815 37.4148 29.9797 37.3083ZM30.3702 19.4695C30.7252 19.4695 30.8317 18.866 30.3702 18.8128C26.8202 18.2803 5.52025 19.3275 0.355001 20.1263C0.26085 20.1263 0.170552 20.1637 0.103977 20.2303C0.0374014 20.2968 0 20.3871 0 20.4813C0 20.5754 0.0374014 20.6657 0.103977 20.7323C0.170552 20.7989 0.26085 20.8363 0.355001 20.8363C7.313 20.8363 23.1283 19.7535 30.2815 19.505L30.3702 19.4695ZM23.3058 23.0195C23.6075 23.0195 23.7673 22.416 23.3058 22.3095C21.5308 21.8658 3.78075 22.3095 1.1005 22.6113C1.05828 22.6177 1.01778 22.6326 0.981395 22.6549C0.945008 22.6773 0.913473 22.7067 0.888651 22.7414C0.86383 22.7762 0.846231 22.8156 0.836886 22.8572C0.827542 22.8989 0.826641 22.942 0.834246 22.984C0.84383 23.0531 0.874583 23.1175 0.922263 23.1683C0.969943 23.2192 1.03221 23.254 1.1005 23.268C4.52625 23.4633 21.2113 23.5875 23.3058 23.0195ZM61.1488 32.782C62.125 31.362 51.4218 31.8768 50.9603 32.356C50.4988 32.8353 50.9603 40.1305 50.9603 40.805C50.9603 41.8523 60.8825 41.8345 61.273 41.5328C61.7158 38.6446 61.7158 35.7058 61.273 32.8175L61.1488 32.782ZM60.3855 40.734C59.4448 40.734 52.469 40.8583 51.901 40.4145C51.901 37.9118 51.7413 35.4268 51.6525 32.9418H60.5275C60.208 35.5271 60.1604 38.1388 60.3855 40.734Z" fill="#8D191C"/>
</svg>
