<svg width="212" height="84" viewBox="0 0 212 84" fill="none" xmlns="http://www.w3.org/2000/svg">
<path d="M52.3874 34.1835C53.0974 33.8995 51.6774 28.61 51.4821 27.7758C51.4763 27.7385 51.4632 27.7027 51.4435 27.6705C51.4239 27.6382 51.3981 27.6102 51.3676 27.5879C51.3371 27.5657 51.3025 27.5497 51.2658 27.5408C51.2291 27.5319 51.1911 27.5303 51.1538 27.5361C51.1165 27.542 51.0807 27.5551 51.0485 27.5747C51.0162 27.5944 50.9882 27.6202 50.9659 27.6507C50.9437 27.6812 50.9277 27.7158 50.9188 27.7525C50.9099 27.7891 50.9083 27.8272 50.9141 27.8645C51.1271 29.7638 51.3401 31.6808 51.6951 33.5445C48.7309 33.7753 46.0506 33.7575 43.1574 33.8818C42.6249 31.5743 42.1634 28.5568 41.3824 26.267C43.6149 26.4547 45.8593 26.4547 48.0919 26.267C49.5651 26.267 49.4586 25.344 48.1984 25.3618C47.4529 25.3618 41.0984 25.2375 41.0984 26.0008C40.2641 26.0008 42.0214 33.438 42.1279 33.935C42.1462 34.0235 42.1922 34.1039 42.2592 34.1645C42.3262 34.2251 42.4108 34.2629 42.5006 34.2723C42.7136 35.1953 52.0501 35.0533 52.3874 34.1835ZM159.881 27.9533C159.866 27.8843 159.828 27.8225 159.773 27.7775C159.718 27.7325 159.65 27.7069 159.58 27.7048C148.823 27.4208 137.321 27.9355 126.423 27.9178C126.103 27.9178 126.085 28.4503 126.423 28.4858C135.972 29.1248 150.74 29.5153 159.651 28.3438C159.731 28.319 159.799 28.2653 159.841 28.1931C159.884 28.1209 159.898 28.0354 159.881 27.9533ZM42.7491 21.3503C45.239 21.4197 47.7307 21.307 50.2041 21.013C51.7484 21.4035 49.3876 11.712 49.1036 11.2683C49.0662 11.1846 49.0028 11.1153 48.9229 11.0705C48.843 11.0258 48.7507 11.008 48.6599 11.0198C47.0624 11.0198 39.6429 11.0198 38.5956 11.2505C37.3176 10.221 39.1814 18.9718 39.4476 20.019C39.9624 21.7763 41.0984 21.3503 42.7491 21.3503ZM38.8086 11.854C42.0838 12.254 45.3923 12.3016 48.6776 11.996L49.8136 20.1965L40.5126 20.6758C40.5836 20.0723 39.0216 13.0255 38.8086 11.854ZM151.468 17.8358C151.562 17.8358 151.652 17.7984 151.719 17.7318C151.785 17.6652 151.823 17.5749 151.823 17.4808C151.823 17.3866 151.785 17.2963 151.719 17.2297C151.652 17.1632 151.562 17.1258 151.468 17.1258C149.267 16.682 130.345 17.3565 126.423 17.6938C126.121 17.6938 126.121 18.2085 126.423 18.2263C128.553 18.315 149.356 18.3683 151.468 17.8358ZM2.42113 74.1388C2.75838 74.1388 5.26112 72.7188 5.84687 75.0263C6.66337 78.1858 9.85838 76.2865 10.3731 73.8725C11.0299 70.8905 8.18987 68.5475 4.83512 68.5475C-1.98088 68.5475 -0.418873 74.4583 2.42113 74.1388ZM4.83512 69.2398C8.66913 69.364 11.0299 72.985 8.70463 75.115C6.71663 76.89 6.92962 74.334 5.97112 73.34C4.05412 71.565 2.52763 73.7128 1.44488 72.8075C-0.773875 71.0325 3.46837 69.1333 4.83512 69.2398ZM46.4056 40.325C43.6189 40.325 43.5124 39.8635 43.8674 42.5793C43.9739 43.3425 44.5241 48.7385 45.4471 48.7918C45.6424 49.6438 53.6121 49.342 54.6239 49.0403C55.9906 49.0403 54.6239 44.8335 54.6239 44.3543C53.4524 38.1773 54.9079 40.0943 46.4056 40.325ZM45.8909 48.3835C45.4471 46.147 45.1099 43.1828 44.4709 41.0528C47.3772 41.3368 50.3084 41.2293 53.1861 40.7333C53.3668 43.2046 53.7527 45.6567 54.3399 48.064C51.5709 48.1883 48.6954 48.3303 45.8909 48.3835ZM162.668 0.12127C159.402 -0.18048 112.365 0.121274 106.401 0.582774C106.324 0.59588 106.255 0.638348 106.208 0.701248C106.162 0.764148 106.142 0.842573 106.152 0.920022C106.165 0.981198 106.195 1.03734 106.239 1.08151C106.283 1.12567 106.339 1.15592 106.401 1.16852C111.459 1.43477 159.047 1.31052 162.668 0.902275C162.772 0.902275 162.871 0.861131 162.944 0.787898C163.017 0.714665 163.059 0.61534 163.059 0.511773C163.059 0.408206 163.017 0.308881 162.944 0.235648C162.871 0.162415 162.772 0.12127 162.668 0.12127ZM82.5624 13.1675C82.9706 13.0788 82.8286 12.5285 82.4736 12.4575L55.5114 13.132C55.4722 13.1362 55.4343 13.1485 55.4002 13.1681C55.366 13.1877 55.3363 13.2142 55.3129 13.2459C55.2895 13.2777 55.273 13.3139 55.2644 13.3523C55.2558 13.3908 55.2553 13.4306 55.2629 13.4693C55.2732 13.5315 55.3027 13.5889 55.3472 13.6334C55.3918 13.678 55.4492 13.7075 55.5114 13.7178C62.2741 14.2148 76.6871 14.3568 82.5624 13.1675ZM189.471 63.0628C189.595 64.4118 190.944 77.8663 191.441 78.8425C194.991 85.765 208.055 85.9425 208.339 75.7008C208.836 71.4408 210.558 59.211 209.883 56.1758C210.078 55.1818 211.108 50.8508 211.303 48.561C211.303 48.1883 212.013 38.053 210.593 39.5973C208.698 42.1206 207.018 44.7984 205.57 47.6025C205.321 48.6853 205.073 49.7503 204.807 50.8153C204.021 50.5191 203.206 50.3108 202.375 50.194C202.375 49.4663 201.842 45.9163 201.594 44.4963C200.369 42.1178 199.109 39.9878 198.044 37.5205C196.535 33.8108 196.5 33.7398 196.074 37.8223C195.362 41.9811 195.362 46.2305 196.074 50.3893C188.033 52.0578 188.867 56.797 189.453 63.0628H189.471ZM208.889 43.5378C209.106 43.7478 209.366 43.9088 209.651 44.0098C209.936 44.1109 210.239 44.1497 210.54 44.1235V48.5965C209.792 48.6691 209.037 48.5902 208.321 48.3645C207.604 48.1388 206.94 47.771 206.369 47.283C207.238 46.0583 208.144 44.798 208.889 43.5378ZM206.333 48.206C207.509 49.0419 208.92 49.4832 210.362 49.4663C209.777 52.7678 209.191 56.0515 208.729 59.3708C208.126 61.5363 205.179 62.3173 203.262 62.5835C204.434 57.8975 205.321 52.8565 206.333 48.1528V48.206ZM202.783 61.3055C202.697 61.7512 202.637 62.2017 202.606 62.6545L198.275 62.761L196.5 46.0405C197.302 46.2828 198.152 46.3254 198.975 46.1646C199.798 46.0037 200.569 45.6443 201.221 45.1175C201.221 45.1175 202.375 61.0393 202.783 61.2523V61.3055ZM196.713 40.3605C196.985 40.4315 197.268 40.4461 197.546 40.4034C197.824 40.3607 198.09 40.2615 198.328 40.112L200.76 44.4785C200.122 44.9535 199.383 45.2744 198.601 45.4161C197.819 45.5577 197.015 45.5163 196.251 45.295C196.221 43.6205 196.375 41.9477 196.713 40.3073V40.3605ZM209.013 60.8085C208.694 65.2815 208.126 74.7245 206.972 78.949C204.931 84.4338 196.038 84.5225 192.115 78.949C191.37 72.7898 190.624 66.524 189.897 60.4535C193.216 65.2638 206.12 64.678 209.013 60.7553V60.8085Z" fill="#8D191C"/>
</svg>
