<svg width="209" height="94" viewBox="0 0 209 94" fill="none" xmlns="http://www.w3.org/2000/svg">
<path d="M15.643 75.504C18.3446 76.9148 21.1967 78.0164 24.1453 78.7877C18.483 86.58 34.6888 97.6915 49.51 91.763C56.3083 89.0472 63.1065 80.4207 56.4503 74.439C63.5503 68.7057 66.053 60.4342 65.7513 51.364C65.2898 37.377 59.1128 27.082 44.966 23.7627C37.9964 22.1318 30.693 22.6959 24.0565 25.378L21.3053 20.621C22.175 20.1595 23.0803 19.7157 23.9678 19.3252C26.3108 18.5265 25.6008 16.8047 24.2163 17.3195C-2.97673 27.2417 -9.26023 63.008 15.643 75.504ZM24.3583 77.5452C23.8613 75.7702 25.1925 73.9952 24.5713 72.0605C23.1513 67.4632 17.205 70.1257 15.6963 67.0195C14.0455 63.6292 18.4475 63.0435 19.335 60.6117C19.492 60.186 19.532 59.726 19.4508 59.2796C19.3696 58.8332 19.1703 58.4167 18.8735 58.0735C16.3175 54.8785 10.4068 58.251 12.093 50.796C13.371 45.1693 18.8025 42.5067 22.743 44.9917C26.6835 47.4767 29.0443 49.1452 34.032 46.2342C42.339 41.353 41.3095 51.5592 38.7713 54.6477C37.4223 56.3162 34.9728 56.2275 33.0913 56.9375C26.9498 59.245 26.9853 63.3807 31.8488 64.3925C33.7303 64.783 36.1443 64.6055 37.6175 66.0255C41.6113 69.9127 33.3575 78.2197 30.7483 79.5865C29.346 79.3025 25.0683 78.4682 24.3583 77.5452ZM46.883 25.3247C57.3378 28.573 62.858 36.1345 64.349 46.9442C65.0577 51.6094 64.8831 56.3661 63.8343 60.9667C63.4083 61.5525 57.4088 63.2032 55.474 60.7182C54.7271 59.7139 54.2283 58.547 54.0185 57.3131C53.8088 56.0791 53.8939 54.813 54.267 53.6182C55.4208 50.6362 59.3435 48.0093 58.1365 44.9562C56.468 40.7318 51.5868 46.5005 49.5278 45.3112C46.4393 43.5362 52.2258 40.1282 45.6228 38.9035C43.191 38.4597 41.203 39.4537 39.4103 36.7735C35.31 30.632 45.9778 25.307 46.883 25.2715V25.3247ZM26.6303 33.188C26.7069 33.309 26.8229 33.3998 26.9587 33.4451C27.0946 33.4904 27.2419 33.4873 27.3758 33.4365C27.5295 33.3733 27.6526 33.2527 27.7189 33.1002C27.7852 32.9478 27.7894 32.7755 27.7308 32.62L24.5003 26.3187C31.0839 23.6788 38.3323 23.182 45.2145 24.8987C36.3395 27.8275 35.2923 37.8385 41.6645 39.5602C43.0135 39.933 49.0485 39.4005 48.0013 41.9743C47.7887 42.3918 47.6695 42.8506 47.652 43.3188C47.6344 43.787 47.7189 44.2534 47.8996 44.6857C48.0802 45.118 48.3528 45.5058 48.6983 45.8222C49.0438 46.1387 49.4541 46.3762 49.9005 46.5182C52.3855 46.962 55.048 43.2167 56.8763 44.7432C60.0713 47.4057 51.7288 51.5237 53.1488 57.4522C54.2138 61.9962 56.0953 63.434 60.7103 62.7772C61.7212 62.6903 62.7017 62.3876 63.5858 61.8897C59.7695 75.2555 45.4985 81.4147 32.4523 79.7995C35.0793 77.3855 39.1618 72.593 39.5523 69.1495C40.1558 63.0435 33.1445 64.2682 30.5708 62.9192C27.0208 61.1442 32.0973 58.0557 35.3455 57.3457C36.4099 57.1705 37.4401 56.8291 38.3985 56.334C43.7235 53.068 42.2503 39.933 34.529 44.7787C27.926 48.9145 25.8848 45.4 22.814 43.8203C17.8973 41.3175 11.1523 45.258 10.815 52.6953C10.6198 57.754 14.791 56.6712 17.2228 58.0202C17.6586 58.1837 18.0225 58.4962 18.2499 58.9023C18.4773 59.3085 18.5536 59.782 18.4653 60.239C17.8973 62.014 15.3235 62.369 14.6135 64.5167C14.3328 65.3544 14.343 66.2624 14.6426 67.0935C14.9422 67.9247 15.5136 68.6303 16.2643 69.0962C18.5895 70.4452 22.7075 69.2737 23.6838 72.4865C24.163 74.0485 23.2223 75.646 23.3288 77.2257C18.8001 75.5981 14.8123 72.7448 11.8099 68.984C8.80755 65.2231 6.90844 60.7025 6.32427 55.9258C4.72677 43.8558 12.093 32.123 22.9205 26.9932C24.0388 29.0522 25.441 31.1822 26.6303 33.188ZM10.6553 28.4487C13.3199 25.6857 16.3905 23.3453 19.761 21.5085C20.7503 23.0263 21.6569 24.5966 22.4768 26.2122C16.906 28.8003 12.2697 33.0446 9.20088 38.3658C6.13209 43.6869 4.78037 49.8255 5.33027 55.9435C5.7003 59.4501 6.79941 62.8406 8.55706 65.8974C10.3147 68.9542 12.6921 71.6097 15.5365 73.6935C-1.43248 64.2682 -2.14248 42.0452 10.6553 28.4487ZM200.101 40.9625C198.575 40.6253 175.748 40.5187 172.518 40.9625C172.438 40.9625 172.361 40.9943 172.304 41.0509C172.248 41.1075 172.216 41.1842 172.216 41.2642C172.216 41.3443 172.248 41.421 172.304 41.4776C172.361 41.5342 172.438 41.566 172.518 41.566C173.742 41.7435 197.598 42.1517 200.101 41.566C200.184 41.5476 200.258 41.5015 200.311 41.4354C200.364 41.3692 200.393 41.2869 200.393 41.2021C200.393 41.1173 200.364 41.035 200.311 40.9689C200.258 40.9027 200.184 40.8566 200.101 40.8382V40.9625ZM207.68 0.137496C190.552 0.332746 168.417 -0.253004 152.975 0.137496C152.549 0.137496 152.584 0.740997 152.975 0.776497C159.454 1.4865 202.462 1.43325 207.68 0.776497C207.731 0.772197 207.78 0.757554 207.825 0.733467C207.87 0.70938 207.909 0.676358 207.941 0.636444C207.973 0.596529 207.996 0.550567 208.009 0.501388C208.022 0.452208 208.025 0.40086 208.018 0.350501C207.989 0.285299 207.942 0.230131 207.882 0.192152C207.822 0.154173 207.751 0.135131 207.68 0.137496ZM205.781 37.1107C195.397 36.88 182.422 37.519 171.364 37.235C171.044 37.235 170.973 37.6965 171.364 37.732C178.162 38.4065 199.444 39.081 205.852 37.8385C206.189 37.7497 206.225 37.1107 205.781 37.1107Z" fill="#8D191C"/>
</svg>
